<svg xmlns="http://www.w3.org/2000/svg" xmlns:xlink="http://www.w3.org/1999/xlink" width="190.813" height="537.097" viewBox="0 0 190.813 537.097">
  <defs>
    <clipPath id="clip-path">
      <rect id="Rect치ngulo_47071" data-name="Rect치ngulo 47071" width="190" height="498" transform="translate(180.007 4431)" fill="#fff" stroke="#707070" stroke-width="1"/>
    </clipPath>
  </defs>
  <g id="Grupo_161145" data-name="Grupo 161145" transform="translate(-179.194 -4349.463)">
    <g id="Grupo_156171" data-name="Grupo 156171" transform="translate(0 -71.566)">
      <g id="Grupo_155483" data-name="Grupo 155483" transform="translate(179.194 4421.03)">
        <ellipse id="Elipse_4784" data-name="Elipse 4784" cx="94" cy="268.548" rx="94" ry="268.548" transform="translate(0 0)" fill="#8c6df2" opacity="0.25"/>
      </g>
      <g id="Enmascarar_grupo_134" data-name="Enmascarar grupo 134" transform="translate(0 10)" clip-path="url(#clip-path)">
        <g id="Grupo_156170" data-name="Grupo 156170" transform="translate(0 -24.624)">
          <g id="Grupo_156169" data-name="Grupo 156169" transform="translate(7045.586 11633.631)">
            <path id="Trazado_204857" data-name="Trazado 204857" d="M168.11,0H18.279C8.184,0,0,10.749,0,24.008V379.864c0,13.26,8.184,24.008,18.279,24.008H168.11c10.095,0,18.278-10.749,18.278-24.008V24.008C186.388,10.749,178.2,0,168.11,0" transform="translate(-6865.586 -7177.712)" fill="#8c6df2"/>
            <path id="Trazado_204858" data-name="Trazado 204858" d="M172.443,25.431H95.811c-8.616,0-15.6,6.622-15.6,14.793V70.8c0,8.17,6.985,14.793,15.6,14.793h76.632c8.616,0,15.6-6.623,15.6-14.793V40.224c0-8.171-6.985-14.793-15.6-14.793" transform="translate(-6898.236 -7178.051)" fill="#5038a1"/>
            <path id="Trazado_204859" data-name="Trazado 204859" d="M164.483,25.431H87.851c-8.616,0-15.6,6.622-15.6,14.793V70.8c0,8.17,6.985,14.793,15.6,14.793h76.632c8.616,0,15.6-6.623,15.6-14.793V40.224c0-8.171-6.985-14.793-15.6-14.793" transform="translate(-6898.559 -7178.051)" fill="#d2e5f5"/>
            <path id="Trazado_204860" data-name="Trazado 204860" d="M158.464,85.593V25.43H101.1c-3.064,3.026-9.476,11.473-9.476,29.216V85.593Z" transform="translate(-6897.773 -7178.052)" fill="#bdd5ea"/>
            <path id="Trazado_204861" data-name="Trazado 204861" d="M153.376,120.1,138.2,112.358l22.451-39.591L125.5,67.962l2.458-16.169L175.3,58.264a8.606,8.606,0,0,1,6.463,4.406,7.8,7.8,0,0,1-.105,7.547Z" transform="translate(-6896.399 -7178.403)" fill="#fedc72"/>
            <path id="Trazado_204862" data-name="Trazado 204862" d="M135.315,69.373,155.24,72.1a30.879,30.879,0,0,0,3.516-16.025l-23.441-3.2Z" transform="translate(-6896.001 -7178.417)" fill="#fdb74d"/>
            <rect id="Rect치ngulo_47070" data-name="Rect치ngulo 47070" width="60.899" height="76.358" transform="translate(-6802.842 -7075.554)" fill="#fedc72"/>
            <path id="Trazado_204863" data-name="Trazado 204863" d="M94.8,133.429v15.224l59.963.863s.362-.05.935-.18V133.756a133.534,133.534,0,0,1-60.9-.327" transform="translate(-6897.645 -7179.492)" fill="#fdb74d"/>
            <path id="Trazado_204864" data-name="Trazado 204864" d="M121.312,111.966l-19.246-8.426h21.162Z" transform="translate(-6897.35 -7179.094)" fill="#fdb74d"/>
            <path id="Trazado_204865" data-name="Trazado 204865" d="M116.1,94.181V104.8a8.295,8.295,0,0,0,16.566,0V94.181Z" transform="translate(-6896.781 -7178.969)" fill="#df7c68"/>
            <path id="Trazado_204866" data-name="Trazado 204866" d="M102.091,55.918H99.7a4.661,4.661,0,0,0-4.46,6.542l6.852,14.43s3.357-20.405,0-20.971" transform="translate(-6897.645 -7178.458)" fill="#df7c68"/>
            <path id="Trazado_204867" data-name="Trazado 204867" d="M146.382,55.918h2.392a4.661,4.661,0,0,1,4.46,6.542l-6.852,14.43s-3.357-20.405,0-20.971" transform="translate(-6895.613 -7178.458)" fill="#df7c68"/>
            <path id="Trazado_204868" data-name="Trazado 204868" d="M100.732,46.916V74.435c0,12.715,10.871,23.022,24.279,23.022s24.28-10.307,24.28-23.022V46.916Z" transform="translate(-6897.404 -7178.339)" fill="#f69d8c"/>
            <path id="Trazado_204869" data-name="Trazado 204869" d="M149.292,48.667h-48.56V46.081c0-10.74,9.182-19.446,20.507-19.446h28.052Z" transform="translate(-6897.404 -7178.068)" fill="#172930"/>
            <path id="Trazado_204870" data-name="Trazado 204870" d="M105.73,46.528v5.3a25.394,25.394,0,0,1-5,15.07V48.206Z" transform="translate(-6897.404 -7178.333)" fill="#172930"/>
            <path id="Trazado_204871" data-name="Trazado 204871" d="M142.6,46.5v5.3a25.394,25.394,0,0,0,5,15.07V44.664Z" transform="translate(-6895.706 -7178.308)" fill="#172930"/>
            <path id="Trazado_204872" data-name="Trazado 204872" d="M147.945,52.046a42.105,42.105,0,0,0,9.839-25.775c.1-4-.541-8.336-3.476-11.214a4.25,4.25,0,0,0-3.818-1.425,3.363,3.363,0,0,0-2.239,2.339,9.239,9.239,0,0,0-.191,3.282,16.023,16.023,0,0,0-8.89-7.892,9.873,9.873,0,0,0-4-.709,5.265,5.265,0,0,0-3.616,1.6,5.094,5.094,0,0,0-.86,4.683,15.416,15.416,0,0,0,2.287,4.409,23.9,23.9,0,0,0-15.323-3.512,12.422,12.422,0,0,0-6.2,2.132,8.9,8.9,0,0,0-2.908,9.479,13.837,13.837,0,0,0,6.81,7.886,29.829,29.829,0,0,0,10.451,3.115c4.612.636,9.438.778,13.6,2.771,3.625,1.738,7.228,5.182,8.537,8.828" transform="translate(-6897.102 -7177.854)" fill="#172930"/>
            <path id="Trazado_204873" data-name="Trazado 204873" d="M113.744,67.162a9.6,9.6,0,0,1-7.132-3.121.807.807,0,0,1,.1-1.18.917.917,0,0,1,1.246.091,7.88,7.88,0,0,0,11.581,0,.918.918,0,0,1,1.246-.091.807.807,0,0,1,.1,1.18,9.6,9.6,0,0,1-7.132,3.121" transform="translate(-6897.174 -7178.548)" fill="#a65241"/>
            <path id="Trazado_204874" data-name="Trazado 204874" d="M134.959,67.162a9.6,9.6,0,0,1-7.133-3.121.808.808,0,0,1,.1-1.18.917.917,0,0,1,1.246.091,7.879,7.879,0,0,0,11.58,0,.918.918,0,0,1,1.246-.091.807.807,0,0,1,.1,1.18,9.6,9.6,0,0,1-7.132,3.121" transform="translate(-6896.313 -7178.548)" fill="#a65241"/>
            <path id="Trazado_204875" data-name="Trazado 204875" d="M141.854,59.887a1.483,1.483,0,0,1-1.331-.8,6.95,6.95,0,0,0-4.514-3.582,7.355,7.355,0,0,0-5.8.936,1.521,1.521,0,0,1-2.045-.366,1.349,1.349,0,0,1,.386-1.939,10.421,10.421,0,0,1,8.23-1.326,9.856,9.856,0,0,1,6.4,5.077,1.365,1.365,0,0,1-.7,1.86,1.536,1.536,0,0,1-.631.135" transform="translate(-6896.302 -7178.413)" fill="#172930"/>
            <path id="Trazado_204876" data-name="Trazado 204876" d="M106.878,59.887a1.536,1.536,0,0,1-.631-.135,1.365,1.365,0,0,1-.7-1.86,9.852,9.852,0,0,1,6.4-5.076,10.421,10.421,0,0,1,8.23,1.325,1.349,1.349,0,0,1,.386,1.939,1.521,1.521,0,0,1-2.045.366,7.345,7.345,0,0,0-5.8-.935,6.941,6.941,0,0,0-4.514,3.581,1.483,1.483,0,0,1-1.331.8" transform="translate(-6897.214 -7178.413)" fill="#172930"/>
            <path id="Trazado_204877" data-name="Trazado 204877" d="M124.171,68.649,121.55,77.59a2.686,2.686,0,1,0,5.242,0Z" transform="translate(-6896.564 -7178.628)" fill="#df7c68"/>
            <path id="Trazado_204878" data-name="Trazado 204878" d="M124.323,84.042a6.448,6.448,0,0,0-6.613,6.27h13.226a6.448,6.448,0,0,0-6.613-6.27" transform="translate(-6896.715 -7178.833)" fill="#172930"/>
            <path id="Trazado_204879" data-name="Trazado 204879" d="M129.068,90.359a5.515,5.515,0,0,0-9.63,0Z" transform="translate(-6896.646 -7178.88)" fill="#b56555"/>
            <path id="Trazado_204880" data-name="Trazado 204880" d="M0,140.375V381.737C0,395,8.183,405.745,18.278,405.745H168.11c10.094,0,18.278-10.749,18.278-24.008V140.375Z" transform="translate(-6865.586 -7179.585)" fill="#5038a1"/>
            <path id="Trazado_204881" data-name="Trazado 204881" d="M84.625,140.375V285.268c0,21.491,18.374,38.914,41.04,38.914s41.04-17.422,41.04-38.914V140.375Z" transform="translate(-6898.058 -7179.585)" fill="#5038a1"/>
            <path id="Trazado_204882" data-name="Trazado 204882" d="M115.791,160.514l-26.772-8.258,7.544-11.881H83.036l-7.19,14.718Z" transform="translate(-6898.414 -7179.585)" fill="#5038a1"/>
            <path id="Trazado_204883" data-name="Trazado 204883" d="M139.43,172.24s-38.065,5.767-54.448,32.653c-16.643-4.44-5.457-38.726-5.457-38.726s54.775,1.293,59.905,6.073" transform="translate(-6898.414 -7179.929)" fill="#5038a1"/>
            <path id="Trazado_204884" data-name="Trazado 204884" d="M115.105,162.107l8.275-4.793a1.186,1.186,0,0,1,1.707.586,1.062,1.062,0,0,1-.278,1.136l-3.982,3.776Z" transform="translate(-6896.821 -7179.809)" fill="#df7c68"/>
            <path id="Trazado_204885" data-name="Trazado 204885" d="M113.237,162.7l12.629-3.415a10.62,10.62,0,0,1,5.805.077l7.158,2.449a1.9,1.9,0,0,1,1.393,1.8v6.641a1.953,1.953,0,0,1-2.14,1.885l-5.995-.131a10.62,10.62,0,0,0-3.782.417l-9.671,2.894a9.316,9.316,0,0,1-5.075.072l-4.506-1.21Z" transform="translate(-6897.067 -7179.832)" fill="#f69d8c"/>
            <path id="Trazado_204886" data-name="Trazado 204886" d="M113.237,162.745l-4.183,11.484,4.506,1.21c.084.023.17.038.254.058l1.537-13.323Z" transform="translate(-6897.067 -7179.876)" fill="#df7c68"/>
            <path id="Trazado_204887" data-name="Trazado 204887" d="M116.419,160.022l-34.394-6.776,21.361-37.669a7.96,7.96,0,0,0-3.508-11.063,8.858,8.858,0,0,0-11.667,3.326L61.384,155.147a7.793,7.793,0,0,0-.221,7.32,8.546,8.546,0,0,0,6.055,4.547l44.645,8.8Z" transform="translate(-6899.042 -7179.094)" fill="#fedc72"/>
            <path id="Trazado_204888" data-name="Trazado 204888" d="M228.347,20.333c-1.593,0-2.883,3.308-2.883,7.388v81.633c0,4.08,1.291,7.387,2.883,7.387s2.883-3.308,2.883-7.387V27.721c0-4.081-1.291-7.388-2.883-7.388" transform="translate(-6919.482 -7174.689)" fill="#d2e5f5"/>
            <path id="Trazado_204889" data-name="Trazado 204889" d="M228.347,148.868c-1.593,0-2.883,3.455-2.883,7.718v202.25c0,4.263,1.291,7.718,2.883,7.718s2.883-3.455,2.883-7.718V156.586c0-4.263-1.291-7.718-2.883-7.718" transform="translate(-6919.482 -7167.939)" fill="#8c6df2"/>
            <path id="Trazado_204890" data-name="Trazado 204890" d="M62.151,59.768,61.4,57.683l2.538-9.058-4.6,1.479-.69-1.929,7.218-2.323.64,1.789-2.648,9.424,5.612-1.8.69,1.929Z" transform="translate(-6890.53 -7178.324)" fill="#fdb74d"/>
            <path id="Trazado_204891" data-name="Trazado 204891" d="M34.5,23.873l.777-2.076,7.91-5.617-4.575-1.539.72-1.92,7.183,2.418-.667,1.781-8.237,5.839L43.2,24.639l-.719,1.92Z" transform="translate(-6891.51 -7177.882)" fill="#fdb74d"/>
            <path id="Trazado_204892" data-name="Trazado 204892" d="M46.525,42.061l.241-3.687L56.785,25.842l-8.133-.48.224-3.413,12.771.752-.207,3.165L51,38.9l9.925.584L60.7,42.9Z" transform="translate(-6891.023 -7178.005)" fill="#fdb74d"/>
          </g>
          <path id="Trazado_204310" data-name="Trazado 204310" d="M252.351-25.114a226.17,226.17,0,0,1-20.391,14.1A168.306,168.306,0,0,1,209.352.66a112.977,112.977,0,0,1-12.191,4.32c-1.039.284-2.081.587-3.129.831-.524.126-1.048.26-1.573.379l-1.578.335c-1.06.23-2.075.409-3.12.613-1.027.168-2.067.354-3.09.493a98.428,98.428,0,0,1-23.234.421c-7.217-.666-13.886-1.9-20.3-3.07-3.206-.592-6.365-1.159-9.48-1.649-1.56-.251-3.106-.468-4.648-.674-.77-.092-1.538-.2-2.3-.275l-2.372-.253c-6.606-.7-13.076-1.279-19.495-1.479C99.628.55,96.44.541,93.289.658Q90.927.745,88.6.927t-4.608.5A66.94,66.94,0,0,0,67.365,5.65q-1.821.749-3.493,1.6c-.559.279-1.1.573-1.641.867l-.793.45c-.24.147-.479.285-.715.436a37.942,37.942,0,0,0-5.28,3.942c-.4.36-.792.723-1.167,1.1l-1.456,1.4c-.5.483-.96.974-1.443,1.453s-.9.97-1.353,1.448a48.7,48.7,0,0,0-4.466,5.706,35.122,35.122,0,0,0-3.051,5.541,27.491,27.491,0,0,0-1.761,5.455c-.414,1.906-2.559,22.059,12.126,40.5s2.593,39.77-12.594,46.276S1.489,115.509-8.568,90.454A65.56,65.56,0,0,1-6.746,36.448,92.918,92.918,0,0,1,.732,24.062a105.529,105.529,0,0,1,9.827-11.813A126.223,126.223,0,0,1,22.091,1.639C23.11.829,24.12.01,25.148-.778s2.059-1.569,3.1-2.321l1.566-1.121c.533-.379,1.006-.721,1.643-1.162,1.2-.839,2.424-1.652,3.663-2.444a108.272,108.272,0,0,1,15.6-8.284c.673-.293,1.351-.569,2.027-.846.662-.263,1.314-.519,1.971-.771,1.313-.495,2.625-.97,3.934-1.406,2.616-.878,5.215-1.64,7.768-2.283A102.135,102.135,0,0,1,81.076-23.99a103.97,103.97,0,0,1,13.134-.491,128.194,128.194,0,0,1,22.4,2.642c6.808,1.385,13.094,3.13,19.13,4.9l2.354.7c.808.239,1.584.494,2.372.742,1.548.51,3.075,1.03,4.549,1.568,2.967,1.069,5.8,2.181,8.593,3.251A168.37,168.37,0,0,0,170.2-4.957a65.379,65.379,0,0,0,17.847,2.425c.79,0,1.594-.04,2.4-.061l1.215-.076.609-.037c.2-.015.4-.042.605-.063l1.213-.131c.407-.05.821-.115,1.233-.172.821-.1,1.663-.267,2.5-.409s1.694-.336,2.548-.517c.859-.21,1.717-.383,2.585-.623l1.3-.34c.435-.116.872-.249,1.309-.373.874-.246,1.751-.527,2.63-.809s1.759-.594,2.643-.89S212.6-7.674,213.488-8c.879-.354,1.763-.7,2.644-1.061s1.763-.732,2.64-1.126q2.639-1.154,5.245-2.456c.87-.43,1.739-.863,2.6-1.318l1.295-.676,1.281-.7a151.573,151.573,0,0,0,19.554-12.786,134.1,134.1,0,0,0,16.779-15.2c1.43-1.556,3.852-2.32,5.409-1.707s1.66,2.373.229,3.929c-.1.11-.207.216-.318.319C270.847-40.788,258.819-30.1,252.351-25.114Z" transform="translate(166.929 4863.569) rotate(-35)" fill="#fdb74d"/>
        </g>
      </g>
    </g>
  </g>
</svg>
