<svg id="Grupo_155516" data-name="Grupo 155516" xmlns="http://www.w3.org/2000/svg" xmlns:xlink="http://www.w3.org/1999/xlink" width="400" height="353.667" viewBox="0 0 400 353.667">
  <defs>
    <clipPath id="clip-path">
      <rect id="Rectángulo_44117" data-name="Rectángulo 44117" width="383.927" height="352.965" transform="translate(0)" fill="none"/>
    </clipPath>
    <clipPath id="clip-path-2">
      <rect id="Rectángulo_44118" data-name="Rectángulo 44118" width="362.838" height="357.364" fill="none"/>
    </clipPath>
    <clipPath id="clip-path-3">
      <rect id="Rectángulo_47089" data-name="Rectángulo 47089" width="304.774" height="507.321" fill="none"/>
    </clipPath>
  </defs>
  <g id="Grupo_132127" data-name="Grupo 132127" transform="translate(0 0.519)">
    <rect id="Rectángulo_44116" data-name="Rectángulo 44116" width="399.927" height="33.139" transform="translate(0.073 0)" fill="#fff"/>
    <g id="Image_Place_Holder" data-name="Image Place Holder" transform="translate(0 32.838)" opacity="0.1">
      <rect id="Image_Place_Holder-2" data-name="Image Place Holder-2" width="399.481" height="320.31" fill="#fdb74d"/>
    </g>
  </g>
  <g id="Grupo_132133" data-name="Grupo 132133" transform="translate(9.271 0)">
    <g id="Grupo_132128" data-name="Grupo 132128" transform="translate(0)" clip-path="url(#clip-path)">
      <g id="Grupo_130781" data-name="Grupo 130781" transform="translate(12.03 -1.476)">
        <g id="Grupo_130837" data-name="Grupo 130837" transform="translate(0)">
          <g id="Grupo_132131" data-name="Grupo 132131">
            <g id="Grupo_132130" data-name="Grupo 132130" clip-path="url(#clip-path-2)">
              <g id="Grupo_130719" data-name="Grupo 130719" transform="translate(9.746 205.134)">
                <g id="Grupo_130718" data-name="Grupo 130718">
                  <path id="Trazado_138125" data-name="Trazado 138125" d="M743.1,452.116a205.99,205.99,0,0,1,24.437-14.852A140.728,140.728,0,0,1,793.527,427a96.106,96.106,0,0,1,27.6-3.743,67.522,67.522,0,0,1,14.272,1.793c1.191.315,2.39.6,3.577,1,.594.191,1.192.368,1.787.575l1.781.665c1.2.438,2.328.935,3.5,1.409,1.142.529,2.3,1.028,3.432,1.616a100.984,100.984,0,0,1,24.79,18.495c7.454,7.285,14.152,15.208,20.6,22.8,3.221,3.806,6.4,7.527,9.549,11.059,1.578,1.781,3.153,3.484,4.724,5.163.791.818,1.577,1.656,2.36,2.446l2.438,2.462c6.8,6.834,13.483,13.334,20.235,19.053,3.382,2.857,6.759,5.522,10.137,7.913q2.534,1.8,5.062,3.38c1.684,1.05,3.377,2,5.05,2.882a44.784,44.784,0,0,0,18.951,5.658,28.651,28.651,0,0,0,4.2-.176c.679-.074,1.347-.188,2.011-.315l.98-.209c.3-.084.6-.153.894-.247a24.8,24.8,0,0,0,6.819-3.222c.534-.363,1.064-.737,1.577-1.144l1.979-1.493c.682-.51,1.321-1.081,1.981-1.6.644-.546,1.254-1.126,1.882-1.671a53.007,53.007,0,0,0,11.449-15.453,58.4,58.4,0,0,0,3.552-9.064,90.7,90.7,0,0,0,3.561-20.986,138.672,138.672,0,0,0-.792-23.829q-.7-6.137-1.9-12.159c-.394-1.994-.829-3.947-1.295-5.815-.23-.925-.474-1.828-.716-2.654-.121-.41-.244-.812-.36-1.144-.05-.15-.1-.3-.166-.438-.024-.043-.052-.125-.069-.121l-.014-.006s-.013-.031-.01.038l.028.282c-4.706-25.292,8.011-50.526,28.4-56.362s40.738,9.937,45.443,35.229h0l.117.784.068.531.1.884.154,1.576c.093,1.012.166,1.959.233,2.9.133,1.872.228,3.674.313,5.458.16,3.556.241,7.036.255,10.5.031,6.919-.216,13.773-.69,20.652a238,238,0,0,1-6.415,41.345,165.91,165.91,0,0,1-15.414,40.085,127.722,127.722,0,0,1-11.757,17.687,105.829,105.829,0,0,1-14.076,14.63,97.087,97.087,0,0,1-15.513,10.89c-1.331.716-2.656,1.453-3.995,2.122-1.337.64-2.67,1.316-4.009,1.9l-2,.859c-.682.288-1.29.556-2.1.877-1.53.622-3.082,1.172-4.641,1.672a62.091,62.091,0,0,1-19.112,3.027c-.8,0-1.605-.025-2.412-.052-.783-.043-1.555-.09-2.33-.151-1.546-.137-3.085-.31-4.609-.556a66.773,66.773,0,0,1-8.95-2.046,77.076,77.076,0,0,1-16.351-7.213,102.363,102.363,0,0,1-14.093-9.968,174.526,174.526,0,0,1-22.955-23.708c-6.8-8.331-12.932-16.92-18.8-25.352l-2.286-3.3c-.784-1.132-1.529-2.271-2.29-3.4-1.485-2.271-2.946-4.541-4.345-6.8-2.819-4.53-5.479-9.027-8.116-13.414-5.262-8.784-10.34-17.236-15.846-24.843a92.231,92.231,0,0,0-18.194-19.508c-.838-.662-1.705-1.249-2.562-1.874l-1.314-.863-.658-.434c-.214-.137-.441-.254-.662-.382l-1.329-.756c-.448-.243-.907-.46-1.361-.694-.9-.482-1.848-.866-2.783-1.29-.942-.4-1.9-.757-2.864-1.119-.977-.309-1.939-.688-2.937-.947l-1.488-.427c-.5-.138-1-.244-1.505-.368-1-.252-2.022-.437-3.041-.625-1.016-.213-2.051-.316-3.08-.478-1.031-.138-2.071-.225-3.109-.335-1.043-.047-2.087-.121-3.134-.15-1.049,0-2.094-.053-3.149-.021-2.1.022-4.214.154-6.325.381-1.056.107-2.112.218-3.166.381l-1.583.229-1.578.293a91.961,91.961,0,0,0-24.7,8.424,101.866,101.866,0,0,0-22.5,15.4c-2,1.812-4.806,1.269-6.267-1.212a6.471,6.471,0,0,1,.977-7.771,4.369,4.369,0,0,1,.427-.343Z" transform="translate(-740.789 -372.621)" fill="#fdb74d"/>
                </g>
              </g>
            </g>
          </g>
        </g>
        <g id="Grupo_156205" data-name="Grupo 156205" transform="translate(10.629 3)">
          <g id="Grupo_156204" data-name="Grupo 156204" clip-path="url(#clip-path-3)">
            <path id="Trazado_205287" data-name="Trazado 205287" d="M111.822,64.01c-8.531,8.705-16.313,83.343-29.587,97.557,0,0,8.264,12.1,21.787,11.256s25.652-65.056,25.652-65.056Z" transform="translate(33.976 26.446)" fill="#8c6df2"/>
            <path id="Trazado_205288" data-name="Trazado 205288" d="M97.354,110.12c-4.31,19.305-9.16,37.865-15.119,44.247,0,0,8.263,12.1,21.785,11.256s25.652-65.057,25.652-65.057l-6.647-16.3-9.289-2.829c2.343,7.077-6.149,18.316-16.381,28.68" transform="translate(33.976 33.647)" fill="#5038a1"/>
            <path id="Trazado_205289" data-name="Trazado 205289" d="M104.829,93.616c8.855-.387,14.1,3.106,15.494,25.818a231.87,231.87,0,0,0,5.241,38.084l-5.226,32.173s-9.315-11.7-10.148-22.677-2.446-40.942-2.446-40.942Z" transform="translate(43.31 38.666)" fill="#ef907c"/>
            <path id="Trazado_205290" data-name="Trazado 205290" d="M52.141,105.883c-8,3.471-6.847,63.1-9.462,74.71s-5.036,14.742-11.8,64.39c0,0-4.224,12.05-2.113,24.724,0,0,31.5-51.889,30.832-57.012s.01-18.184.01-22.831,6.756-45.475,6.756-45.475-4.423-42.758-14.228-38.507" transform="translate(11.643 43.623)" fill="#ffa78f"/>
            <path id="Trazado_205291" data-name="Trazado 205291" d="M52.692,189.1c0-4.646,6.756-45.474,6.756-45.474s-2.853-27.532-9.05-36.2l-1.2.235c5.6,7.016-2.465,67.31-4.077,79.227s7.526,15.41,6.988,27.236c0,.123.007.174.006.276a6.585,6.585,0,0,0,.565-2.462c-.666-5.124.01-18.186.01-22.832" transform="translate(18.564 44.383)" fill="#ef907c"/>
            <path id="Trazado_205292" data-name="Trazado 205292" d="M75.833,105.791c-3.677.834-6.219,1.742-9.725,2.669-1.974.52-2.695.955-2.323,2.371,0,0,5.884-1.749,8.111,17.495s.478,24.97,7.952,38.172,5.917,19.055-4.015,37.766S11.828,275.359,0,468.647H198.832s22.48-64.3-53.536-270.455c0,0-7.3-15.772-3.353-28.727s21.967-11.463,6.2-75.858c0,0-13.392.391-11.892.362s-60.414,11.821-60.414,11.821" transform="translate(0 38.674)" fill="#fff6f9"/>
            <path id="Trazado_205293" data-name="Trazado 205293" d="M110.173,177.034s-7.3-15.772-3.355-28.727a16.787,16.787,0,0,1,1.535-3.486C97.507,157.7,91.336,165.692,85.527,176.948s39.724-25.26,39.724,270.541h38.459s13.637-164-53.536-270.455" transform="translate(35.124 59.833)" fill="#edd9e5"/>
            <path id="Trazado_205294" data-name="Trazado 205294" d="M77.752,48.069c8.222.591,11.633,7.764,8.978,11.767,0,0,5.282,1.081,3.212,6.758H78.6Z" transform="translate(32.123 19.86)" fill="#453748"/>
            <path id="Trazado_205295" data-name="Trazado 205295" d="M70.323,76.456c3.561,12.15,2,28.65,2,28.65s-2.665,4.443-18.664,8.3c0,0,18.249,33.178,40.378,43.548,0,0,24.5-25.478,21.536-55.4H102.838c-4.74,0-4.74-26.36-4.74-26.36Z" transform="translate(22.171 31.065)" fill="#ffa78f"/>
            <path id="Trazado_205296" data-name="Trazado 205296" d="M100.4,101.551c-4.74,0-4.74-26.36-4.74-26.36L67.886,76.456c3.561,12.149,2,28.649,2,28.649s-1.7,2.787-10.329,5.856v0c15.067-4.971,25.021-16.821,32.042-7.341,6.9,9.315,7.5,29.5-8.475,48.184a50.486,50.486,0,0,0,8.475,5.14s24.5-25.476,21.536-55.4Z" transform="translate(24.607 31.065)" fill="#ef907c"/>
            <path id="Trazado_205297" data-name="Trazado 205297" d="M54.928,78.15c-.228,4.21-10.751,12.016-6.746,23.823s20.871,11.593,26.142,3.372,1.286-18.552-1.361-25.93-1.8-11.384-1.8-11.384S55.349,70.349,54.928,78.15" transform="translate(19.531 28.107)" fill="#453748"/>
            <path id="Trazado_205298" data-name="Trazado 205298" d="M85.713,49.813c6.762.637,19.319,28.65,15.456,40S78.951,93.2,72.672,87.64c0,0-7.969,6.037-12.075-3.622s5.072-9.66,8.7-5.072c0,0,12.557,3.864,11.434-15.7-.581-10.125,4.987-13.436,4.987-13.436" transform="translate(24.608 20.58)" fill="#ffa78f"/>
            <path id="Trazado_205299" data-name="Trazado 205299" d="M92.689,53.34c-2.7,4,.332,10.8-5.752,13.2C90.522,91.576,58.9,77.873,53.628,87.359c0,0-8.011-7.2,1.265-12.98,0,0-8.853-14.637,5.482-24.124s35.638-1.841,32.315,3.085" transform="translate(20.829 18.897)" fill="#453748"/>
            <path id="Trazado_205300" data-name="Trazado 205300" d="M143.43,340.205c-.815,6.161-2.065,13.343-6.122,16.154s-9.057,5.27-7.5,10.44h36.219V340.122Z" transform="translate(53.511 140.522)" fill="#453748"/>
            <path id="Trazado_205301" data-name="Trazado 205301" d="M113.707,193.077c2.887,37.6,18.618,84.607,19.336,96.343,1.41,23.029-7.049,27.258,8.93,84.123,8.051,28.652,7.99,32.245,7.99,32.245H163.3s4.882-74.21,0-90.59,1.676-45.518,4.271-62.906.849-59.392.849-59.392l-19.872-11.519Z" transform="translate(46.978 74.938)" fill="#8c6df2"/>
            <path id="Trazado_205302" data-name="Trazado 205302" d="M149.963,405.789H163.3s4.882-74.21,0-90.589,1.677-45.519,4.272-62.908.848-59.392.848-59.392l-19.87-11.52-34.847,11.7c.244,3.15.582,6.37.989,9.625,17.259,11.305,34.82,36.779,40.528,70.269,5.176,30.374-2.747,100.608-6.164,127.776a33.369,33.369,0,0,1,.9,5.042" transform="translate(46.978 74.938)" fill="#5038a1"/>
            <path id="Trazado_205303" data-name="Trazado 205303" d="M149.786,340.1s-4.88,6.819-2.884,11.632,14.79-11.776,14.79-11.776Z" transform="translate(60.495 140.452)" fill="#ffa78f"/>
            <path id="Trazado_205304" data-name="Trazado 205304" d="M154.322,196.813c-3.727,13.245-5.753,63.11-4.943,82.165s2.89,25.945-.177,40.135,0,78.248,0,90.409c0,0,15.177.406,15.177,0s22.7-67.707,21.486-87.977-2.432-28.377-2.432-40.54S209.742,216.816,205.5,180.4l-2.385-8.483Z" transform="translate(61.08 71.026)" fill="#8c6df2"/>
            <path id="Trazado_205305" data-name="Trazado 205305" d="M150.352,217.58c11.817-12.354,42.878-28.568,54.368-34.338-.069-.957-.146-1.909-.254-2.848l-2.385-8.482-48.8,24.9c-1.152,4.09-2.14,11.678-2.932,20.768" transform="translate(62.118 71.026)" fill="#5038a1"/>
            <path id="Trazado_205306" data-name="Trazado 205306" d="M151.165,340.122c-2.4,2.968-6.207,7.73-7.5,14.327-.7,3.6-1.846,12.447,4.026,12.447h34.864c5.675,0,3.649-8.534,2.028-10.966s-6.082-3.14-9.731-5.421-3.351-9.259-8.513-10.387c-7.494-1.636-11.086,5.89-14.421,5.761-3.052-.117-.756-5.761-.756-5.761" transform="translate(59.116 140.426)" fill="#453748"/>
            <path id="Trazado_205307" data-name="Trazado 205307" d="M103.318,68.549c-3.291,17.137,10.582,57.169,14.577,73.279,8.827,35.576-5.829,49.5-6.844,101.514,0,0,21.915,9.252,32.423,8.511s12.731-9.622,12.731-9.622,5.309,9.622,16.718,3.7c10.452-5.427,30.281-14.892,51.18-16.438a4.958,4.958,0,0,0,4.5-6.051c-2.381-10.394-8.254-32.982-18.367-53.752,0,0,23.317-99.008,14.8-104.464a86.431,86.431,0,0,0-30.114-11.712c-11.312-2.189-61.482,3.649-61.482,3.649s-9.9,3.485-18.769,5.805c-8.63,2.258-11.357,5.581-11.357,5.581" transform="translate(42.479 21.907)" fill="#8c6df2"/>
            <path id="Trazado_205308" data-name="Trazado 205308" d="M131.571,54.011s-4.2,2.92-6.933,3.649,5.514,47.39,27,81.368c0,0,33.569-54.549,34.481-85.017,0,0-7.662-.681-11.311-2.189Z" transform="translate(51.285 21.41)" fill="#edd9e5"/>
            <path id="Trazado_205309" data-name="Trazado 205309" d="M157.383,79.7c4.984-5.282,10.343-12.43,11.341-19.554,0,0-1.374-15.129,0-27.272l-36.64,13.809V66.248c0,3.513,3.989,8.906,8.007,13.448Z" transform="translate(54.57 13.58)" fill="#ffa78f"/>
            <path id="Trazado_205310" data-name="Trazado 205310" d="M132.083,46.68V59.726c3.054,8.328,14.989,8.188,24.565.728,6.987-5.442,8.947,9.68,4.121,15.377,3.8-4.666,7.183-10.18,7.955-15.689,0,0-1.374-15.129,0-27.272Z" transform="translate(54.57 13.58)" fill="#ef907c"/>
            <path id="Trazado_205311" data-name="Trazado 205311" d="M129.857,36.586c-1.974-2.737-5.138-4.254-1.55-7.693,0,0-6.9-8.123-4.3-14.157,3.469-8.049,13.377-2.2,19.429-8.188,8.969-8.869,25.061-10.6,27.092,6.769,0,0,10.606-.452,9.7,14.215s-4.468,11.66-5.619,18.916l-11.755-1.123Z" transform="translate(50.991 0)" fill="#453748"/>
            <path id="Trazado_205312" data-name="Trazado 205312" d="M128.391,17.12c-2.448,25.228,4.806,47.356,16.534,47.356,9.837,0,16.035-11.249,18.5-17.188,1.73-4.176,3.024-5.456,3.609-4.89,1.354,1.316,3.394,2.624,5.722-1.868s2.679-11.7.564-12.366-5.289,3.753-7.546,7.656-2.257,1.1-3.526.294,2.186-5.52,1.2-6.625a10.546,10.546,0,0,1-.776-10.38s-4.091.147-5.431-4.786c0,0-14.88,6.037-20.594,6.11s-8.251-3.314-8.251-3.314" transform="translate(52.849 5.918)" fill="#ffa78f"/>
            <path id="Trazado_205313" data-name="Trazado 205313" d="M142.969,74.652c3.109-2.2,17.517-4.981,20.939-24.915l-.137-2.814s1.279.288,2.452,3.144a15.705,15.705,0,0,0,2.277,3.1c3.714,5.668-1.364,29.747-12.834,35.035,0,0-1.79-5.976-6.118-8.133-5.544-2.763-6.578-2.487-6.578-2.487Z" transform="translate(59.068 19.386)" fill="#fff6f9"/>
            <path id="Trazado_205314" data-name="Trazado 205314" d="M148.992,74.545c-2.586-2.2-12.539-5.284-15.384-25.218V47.182s-1.063-.078-2.038,2.778a15.839,15.839,0,0,1-1.894,3.1c-3.086,5.668-.78,29.747,8.756,35.035,0,0,1.492-5.976,5.089-8.133,4.608-2.763,5.47-2.487,5.47-2.487Z" transform="translate(53.045 19.493)" fill="#fff6f9"/>
            <path id="Trazado_205315" data-name="Trazado 205315" d="M145.665,66.942c.91-.2,11.534-8.4,13-6.63s1.061,16.393,0,17.556-4.9.526-12.879-3.486c0,0-1.515,0-1.515-3.719s1.4-3.719,1.4-3.719" transform="translate(59.605 24.814)" fill="#fedc72"/>
            <path id="Trazado_205316" data-name="Trazado 205316" d="M158.663,76.074a3.631,3.631,0,0,0,.437-1.429c-.236,1.457-3.407,1.272-7.478-.188-4.094-1.468-4.717-5.207-3.382-5.207s9.169,1.781,9.169-.623-6.855,0-8.992,0-2.751-3.478-1.481-4.225h0a7.585,7.585,0,0,1-1.269.748s-1.4,0-1.4,3.719,1.514,3.719,1.514,3.719c7.979,4.012,11.82,4.651,12.881,3.486" transform="translate(59.605 26.607)" fill="#acd2e9"/>
            <path id="Trazado_205317" data-name="Trazado 205317" d="M158.663,76.074a3.631,3.631,0,0,0,.437-1.429c-.236,1.457-3.407,1.272-7.478-.188-4.094-1.468-4.717-5.207-3.382-5.207s9.169,1.781,9.169-.623-6.855,0-8.992,0-2.751-3.478-1.481-4.225h0a7.585,7.585,0,0,1-1.269.748s-1.4,0-1.4,3.719,1.514,3.719,1.514,3.719c7.979,4.012,11.82,4.651,12.881,3.486" transform="translate(59.605 26.607)" fill="#fdb74d"/>
            <path id="Trazado_205318" data-name="Trazado 205318" d="M145.6,66.942c-.91-.2-11.955-8.4-13.419-6.63s-1.061,16.393,0,17.556,5.322.526,13.3-3.486c0,0,1.515,0,1.515-3.719s-1.4-3.719-1.4-3.719" transform="translate(54.215 24.814)" fill="#fedc72"/>
            <path id="Trazado_205319" data-name="Trazado 205319" d="M132.025,76.15a3.631,3.631,0,0,1-.437-1.429c.235,1.457,3.407,1.272,7.478-.188,4.094-1.468,4.717-5.207,3.382-5.207s-9.169,1.781-9.169-.623,6.855,0,8.99,0,2.729-3.742,1.458-4.488l.478.307a6.388,6.388,0,0,0,1.238.7s1.4,0,1.4,3.719-1.513,3.719-1.513,3.719c-7.979,4.012-12.241,4.651-13.3,3.486" transform="translate(54.366 26.531)" fill="#fdb74d"/>
            <path id="Trazado_205320" data-name="Trazado 205320" d="M147.3,72.465c-.437.681-1.99-.338-4.839.244-2.549.521-2.551-8.721.4-7.96,2.917.75,4.022-.65,4.317.277-1.631,1.652-.757,7.31.119,7.439" transform="translate(58.088 26.729)" fill="#fedc72"/>
            <path id="Trazado_205321" data-name="Trazado 205321" d="M180.873,73.65l6.009-1.632c1.834-7.57,1.738-13.079,1.023-14.53-2.294-4.656-17.541-4.142-19.239-6.469s-2.508-1.545-2.508-1.545a14.147,14.147,0,0,0,2.082,2.7c1.2,16.852-8.346,47.431-24.643,87.88,12.477-19.356,27.055-34.693,34.265-46.537a77.559,77.559,0,0,0,8.041-17.9Z" transform="translate(59.327 20.388)" fill="#5038a1"/>
            <path id="Trazado_205322" data-name="Trazado 205322" d="M122.49,76.247l-5.182-1.432c-1.718-7.416-1.747-12.891-1.16-14.363,1.889-4.745,15.174-4.813,16.637-7.235s2.8-2.587,2.8-2.587a6.58,6.58,0,0,0-1.412,2.992c-.858,16.956,6.712,47.493,20.91,85.9-11.5-15.742-23.388-32.688-29.7-43.965a80.36,80.36,0,0,1-7.166-17.236Z" transform="translate(47.844 20.917)" fill="#5038a1"/>
            <path id="Trazado_205323" data-name="Trazado 205323" d="M185.619,76.137q-.212,1.323-.4,2.628c-3.043,20.573-2.754,37.675-2.754,47.423,0,10.161-7.819,39.249-11.886,49.571a59.051,59.051,0,0,0,9.484-11.886s13.9,36.407,14.563,56.205l.034.011q.727-.068,1.456-.123a4.968,4.968,0,0,0,4.5-6.057c-2.378-10.387-8.254-32.986-18.371-53.768,0,0,10.577-44.937,14.879-75.931Z" transform="translate(70.473 31.456)" fill="#5038a1"/>
            <path id="Trazado_205324" data-name="Trazado 205324" d="M192.921,61.916c17.132,12.327,24.059,77.651,27.638,87.232,10.838,29.008,10.634,33.786,8.369,73.526H207.422a160.425,160.425,0,0,1-6.9-35.493c-1.22-16.032-2.107-25.1-7.179-39.325-2.811-7.888-9.621-25.27-12.105-40.792s1.943-52.154,11.678-45.149" transform="translate(74.6 25.217)" fill="#8c6df2"/>
            <path id="Trazado_205325" data-name="Trazado 205325" d="M202.924,181.381c0,2.323-3.708,7.812-3.291,13.562s2.638,6.8,2.638,10.849a41.932,41.932,0,0,0,.653,8.756s-2.989-.13-3.324,1.439,1.662,2.483,1.662,2.483-2.449,1.7-1.7,3.267,5.583,1.046,8.591.784,8.1-4.051,9.409-5.227,2.876-8.757,4.183-12.025-3.659-15.461-3.659-23.888Z" transform="translate(82.39 74.938)" fill="#ffa78f"/>
            <path id="Trazado_205326" data-name="Trazado 205326" d="M199.57,175.418l1.564,8.427h16.889v-8.427Z" transform="translate(82.453 72.474)" fill="#fff6f9"/>
            <path id="Trazado_205327" data-name="Trazado 205327" d="M62.933,160.107l.2-1.28c3.606-.328,2.785-3.479,1.571-3.444-1.314.037-1.814-.753-3.1-1.745s-4.824-1.556-5.306,1.7c-.243,1.642,1.59,2.941-1.749,5.719-1.707,1.422-3.742,2.172-2.979,8.285.4,3.153.625,7.333,1.47,9.446s8.186.239,10.641-2.545c0,0,1.237-1.618-1.58-2.463,0,0,3.547.185,2.716-4.213-.561-2.973,2.946-6.939,1.68-8.51s-3.56-.952-3.56-.952" transform="translate(21.236 63.157)" fill="#ffa78f"/>
          </g>
        </g>
      </g>
    </g>
  </g>
</svg>
