<svg xmlns="http://www.w3.org/2000/svg" xmlns:xlink="http://www.w3.org/1999/xlink" width="390.051" height="258.594" viewBox="0 0 390.051 258.594">
  <defs>
    <clipPath id="clip-path">
      <rect id="Rectángulo_45499" data-name="Rectángulo 45499" width="244.711" height="214.946" fill="none"/>
    </clipPath>
    <clipPath id="clip-path-2">
      <rect id="Rectángulo_45508" data-name="Rectángulo 45508" width="33.163" height="30.378" fill="none"/>
    </clipPath>
    <clipPath id="clip-path-3">
      <rect id="Rectángulo_45509" data-name="Rectángulo 45509" width="41.552" height="38.064" fill="none"/>
    </clipPath>
    <clipPath id="clip-path-4">
      <rect id="Rectángulo_47095" data-name="Rectángulo 47095" width="375" height="254.124" fill="none"/>
    </clipPath>
  </defs>
  <g id="Grupo_161161" data-name="Grupo 161161" transform="translate(-605.142 -11031.839)">
    <g id="Grupo_156206" data-name="Grupo 156206" transform="translate(0 694.566)">
      <path id="Trazado_200489" data-name="Trazado 200489" d="M347.981,46.086a119.132,119.132,0,0,1,19.9,18.23c41.747,46.509,24.407,95,18.628,109.958-9.336,24.137-16.205,44.585-43.178,60.639C282.053,271.392,72.32,256.1,43.593,224.44c-28.752-31.69-36.1-59.912-38.124-90.9-.144-1.229-.209-2.144-.275-2.944-.62-7.755-3.295-55.73,51.091-90.779C67.637,32.366,81.954,25.7,98.838,20.005,174.966-4.953,288.861,3.136,347.981,46.086" transform="translate(600.167 10333.499)" fill="#e5e1f1"/>
      <g id="Grupo_136635" data-name="Grupo 136635" transform="translate(605.84 10337.272)" opacity="0.61">
        <g id="Grupo_136634" data-name="Grupo 136634">
          <g id="Grupo_136633" data-name="Grupo 136633" clip-path="url(#clip-path)">
            <path id="Trazado_200490" data-name="Trazado 200490" d="M250.148,214.956a3.463,3.463,0,0,1,.129.369c.5,1.759-.771,3.189-2.828,3.192a4.92,4.92,0,0,1-4.624-3.182,80.963,80.963,0,0,0-7.812-18.1,100.733,100.733,0,0,0-12.361-17l-.9-1.006-.93-.985c-.616-.659-1.254-1.3-1.9-1.942q-1.912-1.931-3.954-3.751c-.672-.614-1.378-1.2-2.063-1.8s-1.41-1.162-2.11-1.743c-.728-.558-1.433-1.13-2.178-1.671s-1.468-1.089-2.224-1.6-1.495-1.041-2.263-1.531c-.382-.246-.759-.5-1.145-.737l-1.16-.707c-.765-.485-1.561-.907-2.336-1.361-.788-.428-1.575-.855-2.366-1.26s-1.585-.8-2.388-1.155c-.4-.18-.8-.369-1.2-.543l-1.2-.5c-.2-.082-.4-.171-.6-.249l-.622-.232L189.885,157c-.837-.28-1.664-.577-2.5-.834a92.966,92.966,0,0,0-20.547-3.8c-6.98-.569-14.049-.613-21.389-.647-3.673-.021-7.409-.02-11.262-.1-1.921-.03-3.882-.1-5.862-.18-1-.051-1.993-.092-3.008-.156l-2.957-.189c-7.571-.495-15.4-1.1-23.538-2.161a179.558,179.558,0,0,1-25.521-5.1,124.711,124.711,0,0,1-13.626-4.687A105.2,105.2,0,0,1,45.8,132.226c-2.289-1.367-4.548-2.847-6.749-4.429-1.1-.79-2.183-1.612-3.255-2.452-.532-.422-1.049-.83-1.586-1.282s-1.077-.9-1.6-1.365a78.166,78.166,0,0,1-11.117-11.97c-.793-1.064-1.56-2.137-2.281-3.227-.386-.574-.662-1.017-.983-1.5l-.927-1.441c-.615-.963-1.2-1.948-1.769-2.939s-1.108-2-1.657-3A75.968,75.968,0,0,1,8.6,86.033,62.308,62.308,0,0,1,5.935,73.011a57.81,57.81,0,0,1,7.994-35.157A80.094,80.094,0,0,1,28.142,20.14a101.241,101.241,0,0,1,8.737-7.4c1.552-1.167,3.152-2.3,4.839-3.416.848-.558,1.711-1.114,2.631-1.673.461-.281.93-.561,1.441-.85l.8-.446.457-.241.281-.141.425-.2c14.324-5.886,34.616.416,45.317,14.073s7.764,29.5-6.56,35.388l.143-.08c.033-.021.012-.018.012-.018l-.013-.006c-.009-.01-.065,0-.1,0-.1.014-.2.031-.3.054-.225.044-.485.114-.744.182-.527.14-1.088.308-1.649.49-1.131.371-2.287.786-3.428,1.234a64.573,64.573,0,0,0-6.649,3.038,52.838,52.838,0,0,0-11.123,7.633,30.468,30.468,0,0,0-7.014,9.162,20.822,20.822,0,0,0-1.717,5.108,22.42,22.42,0,0,0-.4,5.6,28.822,28.822,0,0,0,.991,6.2c.167.544.306,1.09.485,1.644.2.556.364,1.114.576,1.678L56.2,98.8c.153.431.337.864.517,1.294a24.1,24.1,0,0,0,3.015,5c.152.2.314.4.473.6l.546.633c.376.423.761.846,1.172,1.26.816.831,1.7,1.654,2.66,2.465a63.012,63.012,0,0,0,14.877,8.933q2.217,1,4.568,1.914t4.807,1.752c3.269,1.121,6.661,2.155,10.133,3.115,6.948,1.925,14.2,3.549,21.675,5.123l2.683.562c.865.182,1.746.346,2.626.521,1.772.331,3.558.654,5.381.955,3.631.607,7.359,1.166,11.152,1.718,7.587,1.118,15.479,2.266,23.582,4.065a120.722,120.722,0,0,1,24.4,7.922c.995.448,1.976.942,2.957,1.416.976.51,1.935.991,2.911,1.527l1.456.793c.479.271.948.552,1.421.828.952.543,1.861,1.136,2.777,1.71a95.709,95.709,0,0,1,10.11,7.564,122.913,122.913,0,0,1,16.333,17.075A147.068,147.068,0,0,1,240.816,195.9a176.586,176.586,0,0,1,9.326,19.037Z" transform="translate(-5.673 -3.572)" fill="#fdb74d"/>
          </g>
        </g>
      </g>
      <g id="Grupo_136654" data-name="Grupo 136654" transform="translate(947.019 10353.178)" opacity="0.7" style="isolation: isolate">
        <g id="Grupo_136653" data-name="Grupo 136653">
          <g id="Grupo_136652" data-name="Grupo 136652" clip-path="url(#clip-path-2)">
            <path id="Trazado_200733" data-name="Trazado 200733" d="M357.177,22.062c8.478-3.165,18.152.565,21.607,8.332s-.617,16.628-9.1,19.793-18.152-.565-21.607-8.332.617-16.628,9.1-19.793" transform="translate(-346.852 -20.935)" fill="#5038a1"/>
          </g>
        </g>
      </g>
      <path id="Trazado_200734" data-name="Trazado 200734" d="M363.4,27.316a5.71,5.71,0,0,1,7.2,2.778,4.925,4.925,0,0,1-3.031,6.6,5.712,5.712,0,0,1-7.2-2.778A4.926,4.926,0,0,1,363.4,27.316Z" transform="translate(600.167 10331.738)" fill="none" stroke="#fff" stroke-width="1.441"/>
      <path id="Trazado_200735" data-name="Trazado 200735" d="M319.878,17.305A3.476,3.476,0,0,1,324.262,19a3,3,0,0,1-1.845,4.016,3.475,3.475,0,0,1-4.384-1.69,3,3,0,0,1,1.845-4.016" transform="translate(600.167 10332.566)" fill="#fdb74d"/>
      <path id="Trazado_200736" data-name="Trazado 200736" d="M320.15,17.977A2.731,2.731,0,0,1,323.6,19.3a2.357,2.357,0,0,1-1.45,3.156,2.733,2.733,0,0,1-3.445-1.328,2.356,2.356,0,0,1,1.45-3.156" transform="translate(600.167 10332.506)" fill="#fdb74d"/>
      <path id="Trazado_200737" data-name="Trazado 200737" d="M320.15,17.977A2.731,2.731,0,0,1,323.6,19.3a2.357,2.357,0,0,1-1.45,3.156,2.733,2.733,0,0,1-3.445-1.328A2.356,2.356,0,0,1,320.15,17.977Z" transform="translate(600.167 10332.506)" fill="none" stroke="#8c6df2" stroke-width="1.441"/>
      <path id="Trazado_200738" data-name="Trazado 200738" d="M341.1,35.646a2.233,2.233,0,0,1,2.818,1.086,1.928,1.928,0,0,1-1.186,2.582,2.235,2.235,0,0,1-2.818-1.087,1.927,1.927,0,0,1,1.186-2.581" transform="translate(600.167 10331.021)" fill="#fdb74d"/>
      <g id="Grupo_136657" data-name="Grupo 136657" transform="translate(944.873 10545.177)" opacity="0.5">
        <g id="Grupo_136656" data-name="Grupo 136656">
          <g id="Grupo_136655" data-name="Grupo 136655" clip-path="url(#clip-path-3)">
            <path id="Trazado_200739" data-name="Trazado 200739" d="M386.258,249.558c0-10.511-9.3-19.032-20.776-19.032s-20.775,8.521-20.775,19.032,9.3,19.032,20.775,19.032,20.776-8.521,20.776-19.032" transform="translate(-344.706 -230.526)" fill="#fdb74d"/>
          </g>
        </g>
      </g>
      <ellipse id="Elipse_6177" data-name="Elipse 6177" cx="18.162" cy="16.638" rx="18.162" ry="16.638" transform="translate(947.487 10547.57)" fill="none" stroke="#fff" stroke-linecap="round" stroke-width="2.046" stroke-dasharray="1.535 4.093"/>
    </g>
    <g id="Grupo_156208" data-name="Grupo 156208" transform="translate(612.507 11036.309)">
      <g id="Grupo_156207" data-name="Grupo 156207" clip-path="url(#clip-path-4)">
        <path id="Trazado_205328" data-name="Trazado 205328" d="M166.6,344.78c-.208-1.485.258-4.039,1.421-8.036-2.3.006-4.238-1.014-6.591-.978-.642,3.758-1.638,9.929-1.638,9.929l-.106,4.878,16.383.123s-.137.071-4.966-2.981c-.357-.226-4.3-1.5-4.5-2.935" transform="translate(-50.326 -105.818)" fill="#f7a491"/>
        <path id="Trazado_205329" data-name="Trazado 205329" d="M159.364,356.361h16.912c.625-.056.778-.567.561-.881-.447-.648-3.745-2.2-5.963-3.235-3.889.41-10.727-1.192-11.34-2.093-1.067,2.985-.518,6.132-.17,6.209" transform="translate(-50.081 -110.352)" fill="#3c8f7c"/>
        <path id="Trazado_205330" data-name="Trazado 205330" d="M136.8,344.93a28.064,28.064,0,0,1-.043-8.3c-2.3.005-4.493-.427-6.846-.391,0,3.866.081,9.6.081,9.6l-.106,4.878,16.383.123s-.137.071-4.966-2.981c-.357-.226-4.3-1.5-4.5-2.935" transform="translate(-40.935 -105.968)" fill="#f7a491"/>
        <path id="Trazado_205331" data-name="Trazado 205331" d="M129.564,356.361h16.912c.625-.056.778-.567.561-.881-.447-.648-3.745-2.2-5.963-3.235-3.889.41-10.727-1.192-11.34-2.093-1.067,2.985-.518,6.132-.17,6.209" transform="translate(-40.689 -110.352)" fill="#3c8f7c"/>
        <path id="Trazado_205332" data-name="Trazado 205332" d="M157.368,128.7l6.162-6.5s6.6,3.628,14.286,7.094c2.113-3.68,5.564-15.782,5.749-16.359s-4.041-7.85-3.1-8.032,2.173,3.882,3.173,3.471,3.569-9.842,4.171-9.328c1.125.963-1.352,5.866-.759,6.223s2.1-5.434,3.244-5.187-1.935,5.272-1.6,5.755,3.558-4.232,4.223-3.14c.361.593-2.97,4.106-2.285,4.5s3.687-1.819,4.046-1.1-2.8,1.464-3.678,3.277-2.472,2.52-3,5.949-1.976,21.754-5.712,23.226c-3.262,1.285-24.926-9.843-24.926-9.843" transform="translate(-49.595 -31.207)" fill="#f7a491"/>
        <path id="Trazado_205333" data-name="Trazado 205333" d="M156.208,193.558l-5,2.787-10.158,15.532,18.167,42.758s-2.046,6.43-2.713,9.643c-.7,3.361-2.408,32.21-2.408,32.21l7.75.131s7.361-30.713,8.608-40.68c1.514-12.105-7.7-40.934-7.7-40.934-1.719-5.882-5.425-17.983-5.425-17.983s-.907-2.948-1.12-3.464" transform="translate(-44.453 -61.001)" fill="#5038a1"/>
        <path id="Trazado_205334" data-name="Trazado 205334" d="M133.024,185.039a14.637,14.637,0,0,1-1.55,7.822c-1.26,2.54-3.437,4.532-4.995,7.644-2.95,5.89-4.551,14.256-3.445,19.633,0,0,6.1,23.284,5.856,31.794a109.672,109.672,0,0,1-1.855,12.614c-.609,3.379-.814,28.867-.814,28.867l8.654-.261,6.627-41.115,2.8-36.547,6.113-24.616Z" transform="translate(-38.664 -58.316)" fill="#5038a1"/>
        <path id="Trazado_205335" data-name="Trazado 205335" d="M145.437,99.977c-.8-3.774-1.624-7.562-5.375-10.281a10.009,10.009,0,0,0-9.754-1.574c-9.8,3.553-4.528,11.327-16.684,19.613-3.778,2.575-5.211,3.473-7.922,6.9-3.795,4.8-5.868,11.247-3.961,16.551C105.686,142.16,117.909,145.33,124.3,143c11.9-4.33,21.816-19.423,22.475-23.542.705-4.408-.826-17.056-1.34-19.486" transform="translate(-31.837 -27.571)" fill="#13375b"/>
        <path id="Trazado_205336" data-name="Trazado 205336" d="M149.615,142.116c2.758,1.275,7.752,3.189,7.752,3.189l2.841-8.987c-16.06-9.136-14.8-7.662-26.856-7.482-9.63.137-13.665-1.7-21.958,20.684,0,0,6.312,2.837,8.573,3.747.972-2.767,2.729-8.287,3.753-5.14a91.522,91.522,0,0,1,3.441,14.493c.483,2.928,1.533,6.677.981,9.661a89.534,89.534,0,0,0,11.568,1.57.228.228,0,0,0,.043,0,39.264,39.264,0,0,0,7.107-.751s.982-20.767,1.507-21.633a8.33,8.33,0,0,0,.947-8.7c-.369-.82-.269-.916.3-.653" transform="translate(-35.107 -40.542)" fill="#8c6df2"/>
        <path id="Trazado_205337" data-name="Trazado 205337" d="M144.942,114.768s-.767,6.193-1.219,8.343c-.473,2.25-1.185,9.335,3.48,10.486s3.224-7.709,3.3-10,1.4-10.264,1.4-10.264Z" transform="translate(-45.186 -35.718)" fill="#f7a491"/>
        <path id="Trazado_205338" data-name="Trazado 205338" d="M145.291,116.744c.048.029.092.059.14.087,2.578,1.478,4.823,1.245,6.507.095.3-1.98.568-3.59.568-3.59l-6.961,1.432s-.1.825-.254,1.976" transform="translate(-45.789 -35.718)" fill="#f47458"/>
        <path id="Trazado_205339" data-name="Trazado 205339" d="M145.2,91.806a7.983,7.983,0,0,0-4.31,3.483c-1.577,2.715-2.363,10.512,3.44,13.839s9.922-2,9.747-6.99-1.565-11.583-8.876-10.332" transform="translate(-44.043 -28.884)" fill="#f7a491"/>
        <path id="Trazado_205340" data-name="Trazado 205340" d="M161.292,102.79c.064,1.3-.49,2.378-1.239,2.415s-1.407-.982-1.472-2.278.49-2.378,1.239-2.415,1.407.982,1.472,2.278" transform="translate(-49.976 -31.676)" fill="#f7a491"/>
        <path id="Trazado_205341" data-name="Trazado 205341" d="M144.756,91.577s-3.129,8.156-6.19,9.024-2.817,4.882-2.817,4.882-.392-9.273,2.405-11.546a12.152,12.152,0,0,1,6.6-2.36" transform="translate(-42.776 -28.861)" fill="#13375b"/>
        <path id="Trazado_205342" data-name="Trazado 205342" d="M140.264,106.257c.472,1.274.162,2.569-.692,2.891s-1.929-.45-2.4-1.725-.163-2.569.692-2.891,1.929.451,2.4,1.725" transform="translate(-43.16 -32.921)" fill="#f7a491"/>
        <path id="Trazado_205343" data-name="Trazado 205343" d="M135.879,187.952c.114.016.625-.052,1.044-.041a7.976,7.976,0,0,1,1.085.1,3.063,3.063,0,0,1,.662-.4c.181-.083.475-.114.677-.207s.382-.274.579-.362c.512-.222.982-.274,1.137,0,.129.222-2.717,1.963-2.717,1.963-2.635.016-5.395,1.359-11.5-2.624-3.487-1.524-20.424-9.889-20.765-11.713-.191-1.023,2.408-8.943,4.532-14.958,1.637.733,5.12,2.284,7.068,3.1-1.787,3.787-3.9,8.809-3.674,9.424.057.16.269.449,11.718,7.946.289.186.583.382.883.579q1.209.79,2.583,1.684l3.265-.341s5.172.357,5.327.946c.067.268-.362.4-.888.48h-.016l-.232.032h-.011c-.568.067-1.168.077-1.312.129a3.393,3.393,0,0,0-.78.383c3.224,1.317,2.976.847,4.045.78.268-.021.553.057.806.036.434-.036.78-.294,1.116-.316a1.463,1.463,0,0,1,.977.294c.114.114-.1.279-.512.465-2.491,1.08-4.552.667-5.214.827-.444.109.367.274,1.633.14a6.654,6.654,0,0,0,1.147-.015c.279-.062.532-.243.806-.31.253-.062.512-.057.723-.1.279-.052.667-.264.889-.29a2.1,2.1,0,0,1,1.322.129c.192.171-3.565,1.611-3.565,1.611s-2.589.373-3.167.373c0,0-.346.155.331.258" transform="translate(-33.428 -50.332)" fill="#f7a491"/>
        <rect id="Rectángulo_47090" data-name="Rectángulo 47090" width="8.759" height="4.25" transform="translate(91.62 101.331) rotate(-4.404)" fill="#fff"/>
        <path id="Trazado_205344" data-name="Trazado 205344" d="M276.779,315.555l-195.529-.3v-116H279.583Z" transform="translate(-25.606 -62.797)" fill="#aec3ff"/>
        <rect id="Rectángulo_47091" data-name="Rectángulo 47091" width="203.875" height="27.712" transform="translate(51.572 136.44)" fill="#c0d4ff"/>
        <path id="Trazado_205345" data-name="Trazado 205345" d="M66.259,295.287s25.77-19.128,29.3-27.373-3.75-7.313-3.75-7.313,10.406-14.743,7.644-19.615-8.509,1.35-8.509,1.35,4.827-19.945.63-21.055c-7.818-2.067-14.232,19.4-14.232,19.4s.575-8.912-4.318-7.711c-7.379,1.811-3.476,21-3.476,21s-2.352-3.4-6.4-.166c-7.261,5.807,3.109,41.487,3.109,41.487" transform="translate(-19.089 -69.694)" fill="#5038a1"/>
        <path id="Trazado_205346" data-name="Trazado 205346" d="M61.64,254.3a5.847,5.847,0,0,1,7.491-.331s-3.9-19.187,3.476-21c4.893-1.2,4.317,7.711,4.317,7.711s6.416-21.466,14.233-19.4L65.648,295.226c-1.14-4.618-10.791-35.505-4.008-40.93" transform="translate(-18.671 -69.693)" fill="#8c6df2"/>
        <path id="Trazado_205347" data-name="Trazado 205347" d="M68.927,311.148s26.408-.028,31.859-4.6-1.235-4.934-1.235-4.934,12.621-6.7,12.437-11.166-4.462-3.567-4.462-3.567,8.724-7.814,6.933-11.6c-2.752-5.821-15.228,5.219-15.228,5.219s.954-4.428-2.915-5.352c-5.836-1.4-11.756,15.2-11.756,15.2s2.791-7.474-1.218-6.644c-7.193,1.49-14.413,27.455-14.413,27.455" transform="translate(-21.723 -86.219)" fill="#8c6df2"/>
        <path id="Trazado_205348" data-name="Trazado 205348" d="M54,297.33s-23.44-20-26.3-28.059,4.011-6.731,4.011-6.731-9.006-14.658-6.083-19.126,8.013,1.8,8.013,1.8-3.383-19.27.677-20.071c7.563-1.492,12.366,19.32,12.366,19.32s-.008-8.514,4.575-7.075c6.911,2.17,2.034,20.189,2.034,20.189s2.551-6.736,6.2-3.411C66.058,260.13,54,297.33,54,297.33" transform="translate(-7.894 -70.931)" fill="#5038a1"/>
        <path id="Trazado_205349" data-name="Trazado 205349" d="M66.015,250.268c-4.271-2.483-6.862,2.016-6.862,2.016s3.289-12.726-3.623-14.9c-4.583-1.439-4.575,7.075-4.575,7.075s-4.8-20.812-12.366-19.32L57.657,301.36c1.365-4.325,16.077-46.606,8.358-51.092" transform="translate(-12.162 -70.931)" fill="#8c6df2"/>
        <path id="Trazado_205350" data-name="Trazado 205350" d="M43.747,317.039s-25.748.01-29.33-.407.375-3.613.375-3.613-8.011.292-9.232-1.657,2.051-2.717,2.051-2.717-7.979-2.312-7.6-4.009c.709-3.161,9.522-1.1,9.522-1.1s-3.274-1.589-1.943-3.066C9.6,298.243,18.165,304.3,18.165,304.3s-2.939-5.6-1.318-6.855c6.793-5.245,26.9,19.595,26.9,19.595" transform="translate(0 -93.512)" fill="#8c6df2"/>
        <path id="Trazado_205351" data-name="Trazado 205351" d="M32.826,355.016H75.68a25.649,25.649,0,0,0,8.662-19.382,23.22,23.22,0,0,0-2.477-10.375l-55.252.621a24.589,24.589,0,0,0-2.285,10.745,25.5,25.5,0,0,0,8.5,18.392" transform="translate(-7.666 -102.507)" fill="#fedc72"/>
        <path id="Trazado_205352" data-name="Trazado 205352" d="M343.933,10.136l-2.624.713-1.613-4.1-3.965.569-1.708-2.867-1.451.865,2.285,3.834,3.757-.539,1.678,4.26L344.24,11.8Z" transform="translate(-104.812 -1.404)" fill="#8c6df2"/>
        <path id="Trazado_205353" data-name="Trazado 205353" d="M458.2,139.211l2.472,1.133-1.383,4.178,3.41,2.1-.523,3.3,1.668.265.7-4.408-3.231-1.992,1.439-4.347-3.719-1.7Z" transform="translate(-144.405 -43.407)" fill="#8c6df2"/>
        <path id="Trazado_205354" data-name="Trazado 205354" d="M436.2,4.089l-3.819.854-.854,3.9-4.347.654.37,4.432-4.884.957-.162,4.123-4.549,1.689-.64-1.722,3.4-1.263.171-4.35,4.7-.92L425.2,7.933l4.8-.722.834-3.806,3.539-.792L434.4,0l1.837.018Z" transform="translate(-131.518 0)" fill="#8c6df2"/>
        <path id="Trazado_205355" data-name="Trazado 205355" d="M322.713,169.6a5.752,5.752,0,0,1-.546,1.411,53.386,53.386,0,0,1-5.216,7.408l-2.82-6.781s.46-2.129,1.257-5.173c2.724.759,5.318,1.2,7.326,3.135" transform="translate(-99 -52.464)" fill="#f8a492"/>
        <path id="Trazado_205356" data-name="Trazado 205356" d="M303.053,151.549s15.729,7.229,16.238,7.091c.328-.089,6.453-11.029,6.518-21.318.03-4.752-4.593-10.468-9.753-9.337-2.6.569-2.557,1.34-6.4,7.3s-6.6,16.265-6.6,16.265" transform="translate(-95.509 -40.289)" fill="#ffb27d"/>
        <path id="Trazado_205357" data-name="Trazado 205357" d="M279.2,351.669s.373,6.593.375,6.607c.137.837.677,2.905.677,3.666,0,2.859-12.719-2.426-9.869-3.693.258-.115,1.61-.982,1.694-1.955a30.011,30.011,0,0,0-.33-4.719Z" transform="translate(-85.081 -110.8)" fill="#f7a491"/>
        <path id="Trazado_205358" data-name="Trazado 205358" d="M265.754,361.225a45.79,45.79,0,0,0,4.516,1.093c1.529.218,3.545-1.622,4.628-1.125,1.191.547,1.144,5.474,1.144,5.474s-15.654.546-20.517-.049c-1.86-.227,4.125-3.356,10.23-5.393" transform="translate(-80.421 -113.805)" fill="#466eb6"/>
        <path id="Trazado_205359" data-name="Trazado 205359" d="M317.191,351.712s.373,6.593.375,6.607c.137.837.677,2.905.677,3.666,0,2.859-12.719-2.426-9.869-3.693.258-.115,2.011-1.629,2.1-2.6.131-1.5.062-3.884.062-3.884Z" transform="translate(-97.055 -110.844)" fill="#f7a491"/>
        <path id="Trazado_205360" data-name="Trazado 205360" d="M303.748,361.225a45.785,45.785,0,0,0,4.516,1.093c1.529.218,3.545-1.622,4.627-1.125,1.19.547,1.238,5.474,1.238,5.474s-15.966.633-20.611-.049c-1.855-.272,4.125-3.356,10.23-5.393" transform="translate(-92.395 -113.805)" fill="#466eb6"/>
        <path id="Trazado_205361" data-name="Trazado 205361" d="M293.175,155.67l-16.118,12.092c-.144.054-.438.173-.888.353-1.629.653-5.019,2.012-8.4,3.219l-.036.013c-1.183.386-3.241,1.179-5.232,1.947-2.213.853-4.958,1.911-5.434,1.969-.083-.023-.232-.068-.43-.128a40.853,40.853,0,0,0-5.082-.889c-.756-.084-2.584-.11-2.539.724.071,1.312,1.856.588,3.024,1.132a30.269,30.269,0,0,1-3.74,1.114l-3.544.412c-.266.057-2.242-.1-2.191.816l0,.044c.11.823,2.194.692,5.74.844-.4.131-.883.266-1.329.373a13.655,13.655,0,0,0-1.846.381c-.992-.113-2.536.067-2.337,1.04.1.488,2.261.33,2.261.33.3-.022,2.583-.175,3.035-.184-.762.143-4.014.713-3.973,1.483.035.638.919.642,1.615.59.412-.03,3.936-.623,4.348-.668-.522.329-4.008.334-3.993.631.068,1.244,6.346.448,6.613.38a11.434,11.434,0,0,0,3.248-1.246c1.384-.858,3.593-2.059,3.932-2.242.7-.159,3.229-.671,6.407-1.316l4.4-.892,0-.012c.334-.06,1.394-.351,5.366-1.454a50.431,50.431,0,0,0,5.766-1.707c.965-.579,17.792-13.586,18.507-14.139l.423-.327Z" transform="translate(-76.446 -49.06)" fill="#f7a491"/>
        <path id="Trazado_205362" data-name="Trazado 205362" d="M315.7,112.081l1.442,9.733s-5.5,4.709-8.7,3.716c-2.687-.833-.844-4.584-.844-4.584s1.432-5.2.992-7.92,7.108-.946,7.108-.946" transform="translate(-96.749 -35.143)" fill="#f7a491"/>
        <path id="Trazado_205363" data-name="Trazado 205363" d="M315.342,115.024a21.366,21.366,0,0,1-6.219,1.87,13.767,13.767,0,0,0,.147-3.867c-.2-1.257,1.3-1.554,2.968-1.511,2.189.2,4.14.565,4.14.565l.277,1.87a4.57,4.57,0,0,1-1.312,1.072" transform="translate(-97.422 -35.144)" fill="#f47458"/>
        <path id="Trazado_205364" data-name="Trazado 205364" d="M322.311,93.542c.227,0-2.172,10.875-5.884,12.745s-9.249.9-10.288-2.033c-1.149-3.239,3.043-14.332,8.264-15.742s7.908,5.03,7.908,5.03" transform="translate(-96.421 -27.832)" fill="#f7a491"/>
        <path id="Trazado_205365" data-name="Trazado 205365" d="M320.824,81.125a12.278,12.278,0,0,1,4.784,5.641c1.392.7,3.076,2.23,3.884,6.338a8.908,8.908,0,0,1-6.287,10.115c-3.746,1.171-4.341,3.713-4.341,3.713l-.41-2.743a11.479,11.479,0,0,1,2.087-3.72c1.253-1.241-.594-3.049-.756-4.524-.125-1.135.659-3.341.489-5.2,0,0-2.082-3.367-4.134-4.2-3.5-1.418.878-7.758,4.682-5.416" transform="translate(-99.23 -25.405)" fill="#13375b"/>
        <path id="Trazado_205366" data-name="Trazado 205366" d="M321.142,104.927c-.485,1.256-.287,2.5.443,2.785s1.715-.507,2.2-1.763.287-2.5-.442-2.785-1.716.507-2.2,1.763" transform="translate(-101.126 -32.495)" fill="#f7a491"/>
        <path id="Trazado_205367" data-name="Trazado 205367" d="M309.553,199.378s2.155,11.122,1.277,19.554-.948,38.39-.948,38.39l3.352,47.93-7.954.185s-9.432-47.907-9.256-46.677-3.163-33.731-3.163-33.731l11.244-26.7Z" transform="translate(-92.297 -62.503)" fill="#5038a1"/>
        <path id="Trazado_205368" data-name="Trazado 205368" d="M299.684,197.4s1.405,10.014-.351,14.406-15.069,47.486-15.245,51-4.6,42.351-4.6,42.351l-9.249-.277-2-43.179,4.189-54.269,4.068-13.721Z" transform="translate(-84.536 -61.047)" fill="#8c6df2"/>
        <path id="Trazado_205369" data-name="Trazado 205369" d="M317.43,125.107a7.962,7.962,0,0,1-4.408,1.412c-2.127-.185-5.135-2.28-5.135-2.28l.418-1.512s5.5-.855,5.641-.763,3.483,3.143,3.483,3.143" transform="translate(-97.032 -38.435)" fill="#f7a491"/>
        <path id="Trazado_205370" data-name="Trazado 205370" d="M278.33,161.064c1.214-7.05,4.206-20.034,6.548-23.936,1.026-1.711,5.594-12.922,12.4-11.938,4.734.685,9.519.916,9.519.916s4.228.741,6.088,2.6,2.354,7-.32,16.77c-2.111,7.709-4.727,11.941-6.022,17.556-.262,1.883-.487,3.742-.785,5.912-.476,8.4.005,19.487.005,19.487s-23.014,5.1-31.623-2.635c0,0,2.95-17.509,4.194-24.732" transform="translate(-86.395 -39.435)" fill="#fedc72"/>
        <path id="Trazado_205371" data-name="Trazado 205371" d="M235.372,253.013l27.153,7.439a1.6,1.6,0,0,0,1.841-1.374l2.9-18.495c.494-2.348.449-4.922-1.49-5.453l-23.72-6.5a1.572,1.572,0,0,0-1.812,1.257l-5.787,21.119a1.572,1.572,0,0,0,.919,2.005" transform="translate(-73.866 -72.041)" fill="#ffb27d"/>
        <path id="Trazado_205372" data-name="Trazado 205372" d="M267.917,275.748l5.927-2.264-3.22-3.448-2.585.065Z" transform="translate(-84.435 -85.103)" fill="#ffb27d"/>
        <path id="Trazado_205373" data-name="Trazado 205373" d="M252.114,230.633l1.693.464,1.533-5.592a2.165,2.165,0,0,1,2.493-1.729l3.652,1a2.164,2.164,0,0,1,1.264,2.758l-1.532,5.592,1.693.464L264.441,228c.644-2.352-.434-4.7-2.4-5.245l-3.652-1c-1.969-.539-4.1.935-4.74,3.287Z" transform="translate(-79.455 -69.851)" fill="#ffb27d"/>
        <path id="Trazado_205374" data-name="Trazado 205374" d="M262.052,234.622l-27.758-7.605a1.548,1.548,0,0,0-1.776,1.141l-.216.51-9.634,22.718a1.12,1.12,0,0,0,.7,1.508c5.7,1.787,30.241,9.28,30.241,9.28.63.173,4.3-16.88,5.749-23.71a1.657,1.657,0,0,1,2.728-.9c1.735,1.561.868,5.983.868,5.983l.113-.408.48-3.066c.5-2.348.45-4.922-1.49-5.453" transform="translate(-70.146 -71.532)" fill="#fedc72"/>
        <path id="Trazado_205375" data-name="Trazado 205375" d="M265.212,200.085a4.916,4.916,0,0,0-2.332.4c-1.8.564-3.6,2.819-3.426,3.751s1.5.932,1.5.932.3,1.6,1.019,1.8a3.851,3.851,0,0,1,1.734.932,2.465,2.465,0,0,0,2.971-.173c1.127-.954,3.3-5.95,3.3-5.95s15.344-16.729,16.32-20.436,5.919-20.294,5.919-20.294l-10.8-1.3s-3.122,12.033-4.1,15.35-12.108,24.989-12.108,24.989" transform="translate(-81.765 -50.345)" fill="#f7a491"/>
        <path id="Trazado_205376" data-name="Trazado 205376" d="M287.679,151.9s11.785,3.451,12.264,3.23c.308-.14,7.342-14.317,6.6-22.881-.412-4.734-5.553-7.881-9.032-6.266-2.411,1.121-3.18,2.278-5.991,8.788s-3.839,17.129-3.839,17.129" transform="translate(-90.663 -39.568)" fill="#ffb27d"/>
        <path id="Trazado_205377" data-name="Trazado 205377" d="M257.4,251.378l-22.986-7.016-.431-3.589a.52.52,0,0,1,1.033-.124l.35,2.915,21.764,6.643,2.577-2.4a.521.521,0,0,1,.71.762Z" transform="translate(-73.738 -75.697)" fill="#ffb27d"/>
        <path id="Trazado_205378" data-name="Trazado 205378" d="M259.35,188.35s-2.527-.774-2.619-2.389a1.761,1.761,0,0,0,.4,1.661,3.555,3.555,0,0,0,2.222.729" transform="translate(-80.89 -58.606)" fill="#f47458"/>
        <rect id="Rectángulo_47092" data-name="Rectángulo 47092" width="10.789" height="14.494" transform="matrix(0.932, -0.363, 0.363, 0.932, 162.29, 122.606)" fill="#355389"/>
        <path id="Trazado_205379" data-name="Trazado 205379" d="M253.864,182.72s-2.992-.412-3.078.52,3.75,1.474,3.989,1.8-.282-1.973-.282-1.973Z" transform="translate(-79.036 -57.557)" fill="#f7a491"/>
        <path id="Trazado_205380" data-name="Trazado 205380" d="M450.971,344.08s2.086,2.063,2.133,2.82.185,8.867-.667,9.624-3.352,1.294-2.548,2.146c.607.644,5.283.506,8.382.334.9-.051,2.039-7.366,2.4-8.441.52-1.561,2.395-4.96,1.922-6.049-.23-.53-1.942-1.739-3.5-2.756a14.32,14.32,0,0,1-3.2-3.452Z" transform="translate(-141.735 -106.619)" fill="#f7a491"/>
        <path id="Trazado_205381" data-name="Trazado 205381" d="M407.187,354.083s1.617,4.629,1.843,5.282a32.538,32.538,0,0,1,.711,3.784c0,2.892-12.866-2.454-9.982-3.736a3.1,3.1,0,0,0,1.166-2.027,6.831,6.831,0,0,0-1.084-3.418Z" transform="translate(-125.853 -111.555)" fill="#f7a491"/>
        <path id="Trazado_205382" data-name="Trazado 205382" d="M381.89,205.967l-4.658,12.064s-3.039,28.79-1.269,46.024c.74,7.207,16.763,45.792,16.763,45.792l7.959-1.138-10.66-45.69,3.923-17.472,5.551-34.537Z" transform="translate(-118.312 -64.911)" fill="#5038a1"/>
        <path id="Trazado_205383" data-name="Trazado 205383" d="M407.359,206.886l4,13.433,6.078,40.544,20.555,37.927s-3.091,4.745-6.409,5.492L402.4,265.949l-15.812-47.987.555-10.661Z" transform="translate(-121.836 -65.201)" fill="#8c6df2"/>
        <path id="Trazado_205384" data-name="Trazado 205384" d="M373.223,183.767c.4-1.046,4.356-21.779,4.356-21.779l-9.856,1.043-2.875,17.552c-3.478-1.6-6.39-2.941-6.39-2.941s-5.768-2.611-6.019-3.009c-.212-.338.3-.5-1.277-3.174a5,5,0,0,0-1.59-1.4s-1.4-.768-1.676-.5a.766.766,0,0,0-.025.981c.2.236.792.475.99.711a2.229,2.229,0,0,1-.025,1.507c-.153.314-4.2-2.082-4.2-2.082s-1.129-.74-1.484-1.015c-.3-.234-1.155-1.005-1.155-1.005s-1.5-1.158-1.8-.757c-.371.492,4.427,4.559,4.271,4.818-.188.316-2.442-.947-2.442-.947a8.364,8.364,0,0,0-1.431-1.059c-.481-.6-1.718-1.337-2.052-.823a11.778,11.778,0,0,0,1.26,1.5s.9.766,1.306,1.157c.717.69,2.031,1.356,2.552,1.785.434.357.183.379.181.442a13.451,13.451,0,0,1-1.537-.852,10.363,10.363,0,0,1-1.486-.836,12.434,12.434,0,0,0-1.526-.981c-1.166-.652-1.374.178-.386.958.376.3.788.618,1.207.941,1.629,1.256,3.375,2.055,3.3,2.261-.092.266-3.189-1.379-3.189-1.379s-1.924-.422-.464.729a15.73,15.73,0,0,0,3.326,2.031,15.041,15.041,0,0,0,3.741,1.627c1.759.347,4.576.807,4.576.807,1.381.783,12.706,7.682,19.539,11.693l5.007-6.094c-.571-.257-1.672-.758-3.054-1.391a3.341,3.341,0,0,0,.33-.509" transform="translate(-106.607 -51.051)" fill="#f8a492"/>
        <path id="Trazado_205385" data-name="Trazado 205385" d="M378.376,160.751l11.343,1.174s.521-9.426.521-13.922c0-5.455-.724-12.248-1.374-12.1a8.869,8.869,0,0,0-5.477,3.249c-5.061,7.048-5.012,21.6-5.012,21.6" transform="translate(-119.247 -42.831)" fill="#ffb27d"/>
        <path id="Trazado_205386" data-name="Trazado 205386" d="M458.607,343.246s-4.391,13.471-6.273,14.133c-.5.176-3.31.888-3.763,1.963a.515.515,0,0,0-.029.1,1.119,1.119,0,0,0,1.122,1.309h8.926s1.268-6.045,1.768-8.7c0,0,2.652-6.489,2.357-7.079s-4.11-1.722-4.11-1.722" transform="translate(-141.353 -108.176)" fill="#184655"/>
        <path id="Trazado_205387" data-name="Trazado 205387" d="M405.885,366.589l-1.444-4.737s-3.125,1.346-4.672,1.125a46.372,46.372,0,0,1-4.568-1.106c-6.175,2.06-11.235,3.061-10.314,4.718Z" transform="translate(-121.265 -114.039)" fill="#184655"/>
        <path id="Trazado_205388" data-name="Trazado 205388" d="M403.228,134.833s6,.835,7.585,2c1.78,1.307,5.1,6.519,5.1,6.519s-9.28,33.745-8.836,39.592,1.7,14.506,1.7,14.506-22.277,1.406-30.714-1.924c0,0,2.664-13.248,2.664-16.726s1.5-38.248,2.561-40.069,3.212-2.857,7.282-3.745,12.656-.148,12.656-.148" transform="translate(-119.149 -42.402)" fill="#fedc72"/>
        <path id="Trazado_205389" data-name="Trazado 205389" d="M408.453,121l1.486,9.731s-5.191,8.3-8.431,7.3c-2.719-.843-1.283-7.812-1.283-7.812s.518-1.926.85-4.069a14.877,14.877,0,0,0,.188-4.191c-.444-2.755,7.19-.957,7.19-.957" transform="translate(-126.014 -37.953)" fill="#f7a491"/>
        <path id="Trazado_205390" data-name="Trazado 205390" d="M401.827,121.958c-.444-2.755,7.19-.957,7.19-.957l.123.807a4.479,4.479,0,0,1-.828,1.357,10.082,10.082,0,0,1-6.676,3,14.92,14.92,0,0,0,.19-4.207" transform="translate(-126.578 -37.953)" fill="#f47458"/>
        <path id="Trazado_205391" data-name="Trazado 205391" d="M408.244,99.766c.216-.078,1.73,11.083-1.143,14.154s-8.47,4.076-10.477,1.657c-2.221-2.675-2.109-14.67,2.357-17.829s9.263,2.018,9.263,2.018" transform="translate(-124.551 -30.484)" fill="#f7a491"/>
        <path id="Trazado_205392" data-name="Trazado 205392" d="M403.111,91.008c3.452.7,8.848,3.674,11.049,7.293a9.01,9.01,0,0,1-2.442,11.8c-3.149,2.419-3.113,5.227-3.113,5.227l-.49-1.459a8.025,8.025,0,0,1-.394-3.4,6.624,6.624,0,0,1,.51-2.046c.757-1.614-1.627-2.688-2.3-4.032-.515-1.035-.54-3.4-1.351-5.113l-.968-1.3a9.177,9.177,0,0,0-4.421-1.24c-1.351.049-.512-6.615,3.917-5.718" transform="translate(-125.622 -28.655)" fill="#f47458"/>
        <path id="Trazado_205393" data-name="Trazado 205393" d="M409.521,112.353c-.023,1.361.6,2.476,1.392,2.49s1.452-1.08,1.474-2.441-.6-2.476-1.392-2.49-1.452,1.08-1.474,2.441" transform="translate(-129.062 -34.639)" fill="#f7a491"/>
        <rect id="Rectángulo_47093" data-name="Rectángulo 47093" width="4.943" height="3.729" transform="translate(288.416 248.942)" fill="#13375b"/>
        <path id="Trazado_205394" data-name="Trazado 205394" d="M434.256,245.3a.769.769,0,0,1,.732-.8H447.55a.769.769,0,0,1,.731.8v22.177h2.226V245.3a3.107,3.107,0,0,0-2.957-3.232H434.988a3.107,3.107,0,0,0-2.958,3.232v22.177h2.226Z" transform="translate(-136.156 -76.289)" fill="#5038a1"/>
        <path id="Trazado_205395" data-name="Trazado 205395" d="M452.585,340.406l-30.063-1.687a2.985,2.985,0,0,1-2.909-3.055l-2.85-53.48c-.089-3.74,4.153-4.332,5.76-4.332h32.714a2.985,2.985,0,0,1,2.909,3.055v54.757c.013,2.839-2.78,4.693-5.56,4.742" transform="translate(-131.344 -87.566)" fill="#fedc72"/>
        <path id="Trazado_205396" data-name="Trazado 205396" d="M444.521,341.174h-17.01a10.761,10.761,0,0,1-10.762-10.762V291.068a10.761,10.761,0,0,1,10.761-10.761h17.011a10.761,10.761,0,0,1,10.761,10.761v39.345a10.761,10.761,0,0,1-10.761,10.761" transform="translate(-131.34 -88.34)" fill="#ffb27d"/>
        <path id="Trazado_205397" data-name="Trazado 205397" d="M451.576,349.746h-23.9V319.458a11.95,11.95,0,1,1,23.9,0Z" transform="translate(-134.784 -96.912)" fill="#fedc72"/>
        <path id="Trazado_205398" data-name="Trazado 205398" d="M442.565,273.656c3.027,0,5.592,1.343,5.7,2.954h2.428c-.09-2.654-3.693-4.788-8.126-4.788s-8.035,2.135-8.126,4.788h2.428c.1-1.611,2.67-2.954,5.7-2.954" transform="translate(-136.915 -85.666)" fill="#5038a1"/>
        <path id="Trazado_205399" data-name="Trazado 205399" d="M447.549,244.457h-9.763a1.551,1.551,0,1,1,0-3.1h9.762a1.551,1.551,0,1,1,0,3.1" transform="translate(-137.482 -76.064)" fill="#8c6df2"/>
        <path id="Trazado_205400" data-name="Trazado 205400" d="M425.51,165.708s7.805,13.659,8.2,17.3,1.566,25.363,1.566,25.363-1.566,9.37-.785,10.15,2.992.52,3.642.651a14.576,14.576,0,0,0,2.809-.2,3.071,3.071,0,0,0,.837-.238l1.072-.5s-2.24-8.839-2.178-9.482,1.883-24.84.842-29.653-8.065-20.944-8.065-20.944Z" transform="translate(-134.101 -49.846)" fill="#f8a492"/>
        <path id="Trazado_205401" data-name="Trazado 205401" d="M437.1,160.411l-10.488,5.463s-3.41-7.959-5.637-12.661c-2.255-4.761.879-15.918,3.278-15.272,5.367,1.444,12.846,22.47,12.846,22.47" transform="translate(-132.427 -43.464)" fill="#ffb27d"/>
        <path id="Trazado_205402" data-name="Trazado 205402" d="M439.636,64.852,437.4,61.618l-3.932.009a.541.541,0,0,1-.431-.868l2.385-3.126L434.2,53.895a.54.54,0,0,1,.692-.678l3.711,1.3,3.176-2.318a.54.54,0,0,1,.859.449l-.092,3.932,3.187,2.3a.54.54,0,0,1-.162.955L441.8,60.968,440.6,64.711a.54.54,0,0,1-.959.142" transform="translate(-130.431 -20.053)" fill="#fedc72"/>
        <path id="Trazado_205403" data-name="Trazado 205403" d="M268.929,109.453l-3.015-4.36-5.3.012a.729.729,0,0,1-.581-1.17l3.215-4.215L261.6,94.68a.729.729,0,0,1,.933-.914l5,1.756,4.282-3.126a.729.729,0,0,1,1.158.606l-.124,5.3,4.3,3.107a.728.728,0,0,1-.218,1.288l-5.079,1.52-1.627,5.046a.729.729,0,0,1-1.293.19" transform="translate(-81.902 -29.074)" fill="#fedc72"/>
        <path id="Trazado_205404" data-name="Trazado 205404" d="M386.346,30.818l-5.932-.658-3.906,4.514a.821.821,0,0,1-1.424-.371l-1.207-5.845-5.5-2.32a.82.82,0,0,1-.087-1.468l5.186-2.954.506-5.947a.82.82,0,0,1,1.37-.537l4.412,4.019,5.813-1.356a.82.82,0,0,1,.933,1.137l-2.459,5.438,3.086,5.109a.82.82,0,0,1-.792,1.24" transform="translate(-115.938 -4.732)" fill="#fedc72"/>
        <path id="Trazado_205405" data-name="Trazado 205405" d="M495.656,83.441l2.971-3.936-1.559-4.679a.678.678,0,0,1,.864-.855l4.662,1.609,3.968-2.928a.677.677,0,0,1,1.08.557l-.089,4.931,4.011,2.87a.677.677,0,0,1-.2,1.2l-4.717,1.439-1.49,4.7a.678.678,0,0,1-1.2.184l-2.826-4.042-4.932.037a.678.678,0,0,1-.546-1.086" transform="translate(-140.536 -23.478)" fill="#fedc72"/>
        <path id="Trazado_205406" data-name="Trazado 205406" d="M410.01,55.541l.066,2.781-4.463.6-.4,4.079-3.267,1,.5,1.653,4.369-1.332.383-3.865,4.643-.626-.1-4.185Z" transform="translate(-126.674 -17.504)" fill="#8c6df2"/>
        <g id="Grupo_156209" data-name="Grupo 156209" transform="translate(-24.622 35.624)">
          <path id="Trazado_205407" data-name="Trazado 205407" d="M513.548,42.743l-24.723,5.2a5.349,5.349,0,0,1-6.394-3.932L479.5,30.715a5.221,5.221,0,0,1,4.168-6.153l24.723-5.2a5.348,5.348,0,0,1,6.394,3.932l2.934,13.294a5.221,5.221,0,0,1-4.168,6.153" transform="translate(-151.079 -6.064)" fill="#aec3ff"/>
          <path id="Trazado_205408" data-name="Trazado 205408" d="M479.476,45.2,471.31,57.71l12.431-5.132Z" transform="translate(-148.536 -14.245)" fill="#aec3ff"/>
          <path id="Trazado_205409" data-name="Trazado 205409" d="M496.355,35.779l3.149-.742s3.333-3.708,3.226-4.738-1.248-3.013-.69-3.415a2.186,2.186,0,0,1,2.948.253c.821.834,1.128,4.465,1.553,4.62a17.933,17.933,0,0,0,3.415-.578,2.448,2.448,0,0,1,2.358.736l0,0a1.183,1.183,0,0,1,.036,1.54l-.577.717.716.583a1.186,1.186,0,0,1,.14,1.719l-.464.527.476.331a1.187,1.187,0,0,1,.182,1.812l-.419.439.1.115a1.185,1.185,0,0,1-.051,1.653l-.425.423-8.387,1.976a6.21,6.21,0,0,1-2.4.088l-3.065.229a.656.656,0,0,1-.7-.493l-1.63-7.033a.644.644,0,0,1,.5-.763" transform="translate(-156.267 -8.328)" fill="#fff"/>
        </g>
        <path id="Trazado_205410" data-name="Trazado 205410" d="M349.166,110.025l.231,4.847,4.521.082.438,4.764,4.311.612.911,3.512,1.778-.461-1.219-4.7-4.085-.579-.456-4.956-4.446-.081-.21-4.392Z" transform="translate(-110.041 -34.249)" fill="#8c6df2"/>
        <g id="Grupo_156210" data-name="Grupo 156210" transform="translate(-150.437 24.389)">
          <path id="Trazado_205411" data-name="Trazado 205411" d="M461.858,90.319c1.508,3.557.539,19.189.539,19.189s-11.911-10.171-13.42-13.727a7,7,0,1,1,12.881-5.462" transform="translate(-141.322 -27.12)" fill="#f47458"/>
          <path id="Trazado_205412" data-name="Trazado 205412" d="M459.831,94.065a2.591,2.591,0,1,1-3.4-1.374,2.592,2.592,0,0,1,3.4,1.374" transform="translate(-143.35 -29.147)" fill="#fff"/>
        </g>
        <path id="Trazado_205413" data-name="Trazado 205413" d="M524.084,221.776s.4-1,.507-1.346c.126-.4.409-1.64.409-1.64s.785-4.352.458-4.384-.878.639-1.02.891-.334.532-.477.783a.563.563,0,0,1-.772.2c-.325-.155.025-1.282.224-1.647a45.513,45.513,0,0,1,3.116-4.144c.269-.351.24-8.151.442-10.824h0c.2-4.386.188-8.9.207-9.368l-4.595-18.231,6.027-4.283s5.383,20.16,5.536,21.2c.074.494-1.179,10.623-1.183,10.623-.931,4.948-1.764,9.306-1.9,10.147,0,0,.269,2.627.54,4.289a14.575,14.575,0,0,1-.145,3.78,10.852,10.852,0,0,1-.517,3.647c-.536,1.662-.794-.17-.794-.17s.436-3.266.172-3.26c-.2.005-.336,1.8-.91,3.65-.147.475-.294.942-.433,1.371-.364,1.125-1.163,1.214-.97-.027a11.745,11.745,0,0,1,.365-1.666,9.773,9.773,0,0,0,.25-1.582,12.8,12.8,0,0,0,.247-1.633c-.056.018-.158-.2-.331.3-.207.6-.364,1.974-.737,2.832-.212.486-.592,1.53-.592,1.53a11.087,11.087,0,0,1-.906,1.6c-.562-.126-.321-1.455.053-2.076a7.891,7.891,0,0,1,.464-1.607s.376-2.4.036-2.461c-.279-.051-2.291,5.505-2.846,5.34-.452-.136.077-1.835.077-1.835" transform="translate(-164.694 -52.877)" fill="#f7a491"/>
        <path id="Trazado_205414" data-name="Trazado 205414" d="M523.548,178.021a36.743,36.743,0,0,0,5.056-.3c2.389-.43,3.993-.9,3.993-.9s-.565-10.962-2.483-17.9c-.792-2.868-1.845-4.373-3.578-5-.01,0-4.214,1.8-5.138,7.788-.217,1.407,2.15,16.309,2.15,16.309" transform="translate(-164.316 -48.51)" fill="#ffb27d"/>
        <path id="Trazado_205415" data-name="Trazado 205415" d="M501.323,240.144l-4.169,38.35s2.037,8.11,1.792,10.414-4.531,32.528-4.531,32.528l.181,1.7,0,5.006H478.695a71.016,71.016,0,0,0,8.1-4.633,3.364,3.364,0,0,0,1.35-2.4c1.261-9.316-1.233-40.389-1.233-40.389l-1.965-40.448Z" transform="translate(-150.863 -75.683)" fill="#f7a491"/>
        <path id="Trazado_205416" data-name="Trazado 205416" d="M524.251,251.923c.9.234,2.281,33.208,3.025,34.67,4.716,9.265,5.837,37.434,5.837,37.434l1.407,4.1L535.949,333s-4.708,1.249-7.177-.155l.274-4.849.251-4.434-11.9-35.095-6.511-35.8Z" transform="translate(-161.008 -79.395)" fill="#f7a491"/>
        <path id="Trazado_205417" data-name="Trazado 205417" d="M494.724,153.817c1.919-2.7,9.839-10.524,10.719-10.508,2.565.047,10.983.05,12.629.91l-.079,14.893c-.268,1.25-6.08,20.723-5.742,24.985l-.04.04A11.422,11.422,0,0,1,495.2,183.3,101.25,101.25,0,0,0,494.534,172c-1.075-8.441-4.579-11.475.189-18.183" transform="translate(-155.146 -45.164)" fill="#fedc72"/>
        <path id="Trazado_205418" data-name="Trazado 205418" d="M485.388,252.972l-.566-22.751a45.018,45.018,0,0,1,3.726-18.658l4.3-9.867a25.956,25.956,0,0,0,5.207,1.266,50.713,50.713,0,0,0,11.84-.463,3.094,3.094,0,0,0,.055.4c.717,3.35,4.714,10.821,6.4,21.03,1.911,11.589,2.411,27.657,2.172,29.018a68.8,68.8,0,0,1-33.131.024" transform="translate(-152.792 -63.565)" fill="#8c6df2"/>
        <path id="Trazado_205419" data-name="Trazado 205419" d="M512.543,130.16s-.222,5.495.258,7.578,1.119,2.241-3,2.874c-1.617.249-3.176.621-3.176.621s.422-3.06.486-4.351c.1-2.127-.476-8.695-.476-8.695Z" transform="translate(-159.666 -40.399)" fill="#f7a491"/>
        <path id="Trazado_205420" data-name="Trazado 205420" d="M509.414,132.894a7.232,7.232,0,0,1-2.367.865c-.14-2.595-.4-5.571-.4-5.571l5.633,1.881a7.491,7.491,0,0,1-2.863,2.825" transform="translate(-159.671 -40.399)" fill="#f47458"/>
        <path id="Trazado_205421" data-name="Trazado 205421" d="M537.277,362.971a7.677,7.677,0,0,0,5.451.077l.312.866,1.2,4.111s-4.767,1.218-7.237-.186Z" transform="translate(-169.239 -114.392)" fill="#13375b"/>
        <path id="Trazado_205422" data-name="Trazado 205422" d="M494.257,367.566H477.722c-.612-.057-.76-.571-.549-.889.436-.653,2.365-1.131,4.534-2.172,3.8.412,11.784-2.291,12.384-3.2.347,1.819.506,6.181.166,6.259" transform="translate(-150.355 -113.868)" fill="#13375b"/>
        <path id="Trazado_205423" data-name="Trazado 205423" d="M505.659,231.043V238.2a6.741,6.741,0,0,1-6.74,6.74h-6.933v-16.69h10.883a2.793,2.793,0,0,1,2.791,2.791" transform="translate(-155.051 -71.935)" fill="#ffb27d"/>
        <path id="Trazado_205424" data-name="Trazado 205424" d="M501.881,205.935l-2.059-.042,1.16-56a5.879,5.879,0,0,0-4.577,4.161l-14.326,50.566-1.981-.562L494.423,153.5a7.943,7.943,0,0,1,7.613-5.755h1.051Z" transform="translate(-151.305 -46.561)" fill="#ffb27d"/>
        <path id="Trazado_205425" data-name="Trazado 205425" d="M489.976,170.969l-8.726-1.574-6.813,15.71-.016-.008c-.936,1.509-13.793,15.9-13.793,15.9v0l-.118.076-2.5.419s-4.64,1.572-4.619,2.131,2.117-.047,2.424-.03a3.151,3.151,0,0,1,.818.153,9.8,9.8,0,0,1-2.49,1.533c-1.588.406-3.5.589-3.65.853-.168.3,2.444.462,4.186.181.716-.115,1.089-.414,1.408-.422.438-.012-.212.461-1.4.65-.68.108-1.939.015-2.7.079a4.156,4.156,0,0,0-1.982.46c-.128.2,3.754.492,3.754.492s2.417-.225,2.948-.365c0,0,.358.052-.232.307-.238.1-1.931.569-1.931.569s-2.876-.872-3.063-.119c-.055.223,3.024,1.077,3.024,1.077s2.646-.493,3.27-.646c1.161-.285,3.539-1.129,6.544-4.47,2.661-2.109,14.534-13.2,16.219-15.765,3.167-4.762,9.552-17.246,9.447-17.19" transform="translate(-141.818 -53.386)" fill="#f8a492"/>
        <path id="Trazado_205426" data-name="Trazado 205426" d="M509.327,151.89c1.191,5.048-5.16,16.3-5.16,16.3s-9.049-4.395-10.639-6.288c0,0,6.147-10.92,6.55-11.584a5.5,5.5,0,0,1,5.915-2.813c1.3.158,3.335,4.385,3.335,4.385" transform="translate(-155.538 -46.465)" fill="#ffb27d"/>
        <path id="Trazado_205427" data-name="Trazado 205427" d="M523.356,156.659c10.491-3.242,7.682-12.762,7.623-12.4.031-.294,1.02-1.493,1.509-2.518,2.037-4.268-.651-9.41-3.73-11.188,2.042-5.428.014-10.636-3.83-12.805a15.58,15.58,0,0,1-4.885-4.454c-2.911-4-8.205-8.023-14.57-6.709-6.3,1.659,2.134,5.414,1.3,11.651-.423,3.161.793,2.709,2.69,5.25-2.731,4.941-1.152,13.236,3.035,17-2.052,8.9.151,19.484,10.859,16.175" transform="translate(-158.561 -33.511)" fill="#355389"/>
        <path id="Trazado_205428" data-name="Trazado 205428" d="M507.787,122.233c0,1.371.5,2.482,1.112,2.482s1.111-1.111,1.111-2.482-.5-2.483-1.111-2.483-1.112,1.112-1.112,2.483" transform="translate(-160.031 -37.74)" fill="#f7a491"/>
        <path id="Trazado_205429" data-name="Trazado 205429" d="M500.1,229.02h-.046a2.59,2.59,0,0,0-2.59,2.59v5.266a8.066,8.066,0,0,1-8.065,8.066h-4.221a8.066,8.066,0,0,1-8.066-8.066v-5.24a3.384,3.384,0,0,1,3.384-3.384h17.684a2.776,2.776,0,0,1,1.921.768" transform="translate(-150.364 -71.935)" fill="#fedc72"/>
        <path id="Trazado_205430" data-name="Trazado 205430" d="M513.66,113.208c1.24,5.262-5.469,9.082-10.781,9.221-3.452.091-5.039-.274-5.6-4.019-.905-6.074,1.526-9.777,4.932-11.31,4.4-1.977,10.423,1.766,11.446,6.107" transform="translate(-156.661 -33.582)" fill="#355389"/>
        <path id="Trazado_205431" data-name="Trazado 205431" d="M506.122,110.99a7.021,7.021,0,0,1,3.58,3.236c1.244,2.428.626,10.2-4.554,12.763s-7.559-3.257-7.184-7.552,1.876-9.915,8.157-8.446" transform="translate(-156.924 -34.904)" fill="#f7a491"/>
        <path id="Trazado_205432" data-name="Trazado 205432" d="M512.981,119.682c.766-4.017.466-7.061-2.307-8.531s-5.142-2.927-7.623-.285l-.561.325s4.682,1.332,4.943,3.891,2.75,5.6,2.367,6.859-.825,3.764-.825,3.764l1.025-.868s2.214-1.139,2.98-5.156" transform="translate(-158.362 -34.478)" fill="#355389"/>
        <path id="Trazado_205433" data-name="Trazado 205433" d="M510.683,121.438c-.387,1.109-.095,2.223.653,2.487s1.667-.42,2.054-1.53.094-2.223-.653-2.487-1.667.42-2.054,1.53" transform="translate(-160.89 -37.772)" fill="#f7a491"/>
        <path id="Trazado_205434" data-name="Trazado 205434" d="M285.44,37.106c-2.992-.762-.593-10.063,2.369-9.31l-.365,1.435a.1.1,0,0,0,.036,0c-.262.041-1.139,1-1.652,3.014s-.2,3.276.011,3.437a.109.109,0,0,0-.034-.014Z" transform="translate(-89.525 -8.746)" fill="#8c6df2"/>
        <path id="Trazado_205435" data-name="Trazado 205435" d="M289.8,45.306l3.217,4.577-.321,1.332,1.659.644,1.547,2.131,1,.175-.175,1,1.537,2.188-.355,2.034-2.176-.055-8.681-12.351s2.72-1.71,2.743-1.677" transform="translate(-90.467 -14.278)" fill="#8c6df2"/>
        <path id="Trazado_205436" data-name="Trazado 205436" d="M282.126,37.7a5.348,5.348,0,1,0,7.45,1.3,5.348,5.348,0,0,0-7.45-1.3m2.649,3.769a1.687,1.687,0,1,1,.444-2.373,1.707,1.707,0,0,1-.444,2.373" transform="translate(-88.197 -11.576)" fill="#8c6df2"/>
        <path id="Trazado_205437" data-name="Trazado 205437" d="M301.818,9.189l-15.167,10.66a1.981,1.981,0,0,0-.48,2.751l1.577,2.244a1.98,1.98,0,0,0,2.75.48l15.167-10.66a1.98,1.98,0,0,0,.48-2.75l-1.577-2.244a1.98,1.98,0,0,0-2.75-.479m-12.9,14.018a.9.9,0,1,1,.22-1.261.905.905,0,0,1-.22,1.261" transform="translate(-90.076 -2.783)" fill="#ffb27d"/>
        <path id="Trazado_205438" data-name="Trazado 205438" d="M288.184,27.805a.741.741,0,0,0-.816.334.9.9,0,0,0,.114.82.88.88,0,0,0,.312.275c.21.19.507,1.442,0,3.429s-1.364,2.946-1.641,3.011a.743.743,0,0,0-.877.54c-.247.974,1.346,1.624,2.687-.27,1.33-1.876,2.144-5.749,1.154-7.408a1.5,1.5,0,0,0-.936-.731" transform="translate(-89.899 -8.756)" fill="#8c6df2"/>
        <path id="Trazado_205439" data-name="Trazado 205439" d="M364,83.972l-20.27-1.324a2.871,2.871,0,0,1-2.678-3.052l26,1.7A2.871,2.871,0,0,1,364,83.972" transform="translate(-107.483 -25.085)" fill="#fedc72"/>
        <path id="Trazado_205440" data-name="Trazado 205440" d="M374.848,67.2c-2.269-.148-4.21,1.188-4.327,2.978s1.634,3.367,3.9,3.515,4.21-1.188,4.328-2.977-1.634-3.367-3.9-3.515m-.328,5.03c-1.437-.094-2.6-.99-2.535-1.957s1.331-1.7,2.768-1.609,2.6.99,2.535,1.956-1.331,1.7-2.768,1.61" transform="translate(-116.77 -21.175)" fill="#fedc72"/>
        <path id="Trazado_205441" data-name="Trazado 205441" d="M366.283,61.689c-.533,8.157-5.672,14.461-11.48,14.082s-10.084-7.3-9.552-15.454c.068-1.035,4.83-1.568,10.638-1.188s10.462,1.526,10.394,2.561" transform="translate(-108.793 -18.596)" fill="#fedc72"/>
        <path id="Trazado_205442" data-name="Trazado 205442" d="M366.3,61.689c-.068,1.035-4.83,1.568-10.638,1.189s-10.461-1.527-10.394-2.561,4.83-1.568,10.638-1.188,10.462,1.526,10.394,2.561" transform="translate(-108.813 -18.596)" fill="#ffb27d"/>
        <path id="Trazado_205443" data-name="Trazado 205443" d="M241.409,66.854l-21.519.929a4.6,4.6,0,0,1-4.8-4.4l-.523-12.117a4.6,4.6,0,0,1,4.4-4.8l21.519-.929a4.6,4.6,0,0,1,4.8,4.4l.523,12.118a4.6,4.6,0,0,1-4.4,4.795" transform="translate(-67.622 -14.352)" fill="#aec3ff"/>
        <path id="Trazado_205444" data-name="Trazado 205444" d="M212.328,62.539l-8.682,9.794,11.187-2.681Z" transform="translate(-64.18 -19.709)" fill="#aec3ff"/>
        <path id="Trazado_205445" data-name="Trazado 205445" d="M242.8,57.471a7.19,7.19,0,1,1-7.991-6.29,7.189,7.189,0,0,1,7.991,6.29" transform="translate(-72.002 -16.114)" fill="#ffb27d"/>
        <path id="Trazado_205446" data-name="Trazado 205446" d="M233.588,63.527a3.844,3.844,0,1,0,7.635-.909Z" transform="translate(-73.616 -19.734)" fill="#fff"/>
        <path id="Trazado_205447" data-name="Trazado 205447" d="M218.331,196.413H208.054v-1.041a5.138,5.138,0,0,1,10.277,0Z" transform="translate(-65.569 -59.953)" fill="#5038a1"/>
        <rect id="Rectángulo_47094" data-name="Rectángulo 47094" width="0.954" height="4.77" transform="translate(147.168 127.354)" fill="#5038a1"/>
        <path id="Trazado_205448" data-name="Trazado 205448" d="M216.088,186.141a1.1,1.1,0,1,1-1.073-.846.98.98,0,0,1,1.073.846" transform="translate(-67.425 -58.397)" fill="#5038a1"/>
      </g>
    </g>
  </g>
</svg>
