<svg xmlns="http://www.w3.org/2000/svg" xmlns:xlink="http://www.w3.org/1999/xlink" width="109" height="109" viewBox="0 0 109 109">
  <defs>
    <clipPath id="clip-path">
      <rect id="Rect치ngulo_47116" data-name="Rect치ngulo 47116" width="59.333" height="58.999" fill="#fff"/>
    </clipPath>
  </defs>
  <g id="Grupo_155573" data-name="Grupo 155573" transform="translate(-260.667 -1264)">
    <circle id="Elipse_4745" data-name="Elipse 4745" cx="54.5" cy="54.5" r="54.5" transform="translate(260.667 1264)" fill="#8c6df2"/>
    <g id="Capa_1-2" transform="translate(267.667 1271)">
      <g id="Grupo_130811" data-name="Grupo 130811">
        <rect id="Rect치ngulo_41194" data-name="Rect치ngulo 41194" width="95" height="95" rx="47.5" fill="none"/>
        <g id="Grupo_156254" data-name="Grupo 156254" transform="translate(17.511 18.001)">
          <g id="Grupo_156253" data-name="Grupo 156253" clip-path="url(#clip-path)">
            <path id="Trazado_205879" data-name="Trazado 205879" d="M102.323,6.926c-1.895,1.895-2.361,4.4-1.061,5.7a2.638,2.638,0,0,0,1.915.735,5.605,5.605,0,0,0,3.781-1.8c1.895-1.894,2.361-4.4,1.061-5.7s-3.8-.835-5.7,1.061m3.3,3.3c-1.248,1.248-2.627,1.463-3.029,1.061s-.187-1.78,1.061-3.029A3.787,3.787,0,0,1,106.1,7.015a.821.821,0,0,1,.585.184c.4.4.187,1.781-1.061,3.029" transform="translate(-53.118 -2.71)" fill="#fff"/>
            <path id="Trazado_205880" data-name="Trazado 205880" d="M57.663,1.671c-2.54-2.54-7.075-2.139-10.108.894-2.384,2.384-3.189,5.787-2.066,8.379L38.456,17.8A10.246,10.246,0,0,0,22.6,25.119a10.258,10.258,0,0,0-7.546,15.514L4.821,50.613a.95.95,0,0,0-.125.15L.16,57.531A.943.943,0,0,0,1.524,58.8l6.319-4.941a.891.891,0,0,0,.078-.068l10.205-9.954a10.14,10.14,0,0,0,5.69,1.722A10.27,10.27,0,0,0,34,36.519,10.248,10.248,0,0,0,41.533,21l7.2-7.028a7.907,7.907,0,0,0,8.03-2.2C59.8,8.745,60.2,4.211,57.663,1.671M6.641,52.4,5.015,53.675l1.194-1.781L19.6,38.828a.332.332,0,0,1,.45-.015.328.328,0,0,1,.116.243.332.332,0,0,1-.1.249Zm17.175-8.732a8.273,8.273,0,0,1-4.3-1.193l1.869-1.823a2.22,2.22,0,1,0-3.1-3.179L16.449,39.27a8.369,8.369,0,1,1,7.367,4.4m10.231-9.061q-.025-.384-.078-.761a7.912,7.912,0,0,0,4.7-2.676,7.331,7.331,0,0,0,1.248-6.6c-.305-1.415-1.72-1.415-1.72,0a6.756,6.756,0,0,1-1.886,4.716,13.721,13.721,0,0,1-2.989,2.171,10.275,10.275,0,0,0-8.818-6.39,8.369,8.369,0,1,1,9.542,9.542M55.434,10.445c-1.892,1.893-4.558,2.541-6.482,1.575a.944.944,0,0,0-1.081.168L40.394,19.48c-.149-.166-.3-.325-.463-.48L47.3,11.808a.943.943,0,0,0,.148-1.164C46.291,8.728,46.9,5.892,48.888,3.9c2.3-2.3,5.635-2.7,7.44-.894s1.4,5.142-.894,7.44" transform="translate(0 0)" fill="#fff"/>
            <path id="Trazado_205881" data-name="Trazado 205881" d="M53.947,69.914a6.756,6.756,0,0,1-1.886,4.716,16.38,16.38,0,0,1-4.244,2.83c-1.886.943-.943,1.886.472,1.886a8.308,8.308,0,0,0,6.131-2.83,7.331,7.331,0,0,0,1.248-6.6c-.305-1.415-1.72-1.415-1.72,0" transform="translate(-24.708 -36.382)" fill="#fff"/>
          </g>
        </g>
      </g>
    </g>
  </g>
</svg>
