<svg xmlns="http://www.w3.org/2000/svg" xmlns:xlink="http://www.w3.org/1999/xlink" width="109" height="109" viewBox="0 0 109 109">
  <defs>
    <clipPath id="clip-path">
      <rect id="Rect치ngulo_47115" data-name="Rect치ngulo 47115" width="61" height="62" transform="translate(-0.155 -0.202)" fill="#fff"/>
    </clipPath>
  </defs>
  <g id="Grupo_155572" data-name="Grupo 155572" transform="translate(-260.667 -1089)">
    <circle id="Elipse_4744" data-name="Elipse 4744" cx="54.5" cy="54.5" r="54.5" transform="translate(260.667 1089)" fill="#5038a1"/>
    <g id="Capa_1-2" transform="translate(267.58 1096)">
      <g id="Grupo_130816" data-name="Grupo 130816">
        <rect id="Rect치ngulo_41197" data-name="Rect치ngulo 41197" width="95" height="95" rx="47.5" transform="translate(0.087)" fill="none"/>
        <g id="Grupo_156252" data-name="Grupo 156252" transform="translate(17.243 16.122)">
          <g id="Grupo_156251" data-name="Grupo 156251" transform="translate(0 0.081)" clip-path="url(#clip-path)">
            <path id="Trazado_205878" data-name="Trazado 205878" d="M60.689,29.668A5.69,5.69,0,0,0,55.428,24V15.662h1.713a.979.979,0,0,0,0-1.958H53.792A11.273,11.273,0,0,0,43.559,3.471V.979a.979.979,0,0,0-1.958,0V3.438A11.271,11.271,0,0,0,30.879,13.7h-3.1a.979.979,0,1,0,0,1.958h1.713v8.32h-5.82a6.336,6.336,0,0,0,1.782-4.4V18.6H23.668a6.336,6.336,0,0,0,1.782-4.4v-.979H23.668a6.336,6.336,0,0,0,1.782-4.4V7.831H4.894V8.81a6.336,6.336,0,0,0,1.782,4.4H4.894v.979a6.336,6.336,0,0,0,1.782,4.4H4.894v.979a6.336,6.336,0,0,0,1.782,4.4H5.686A5.693,5.693,0,0,0,0,29.668V52.859H6.363v8.81h6.478l4.4-8.81h26.2l4.4,8.81h6.478v-8.81h6.363ZM42.091,5.384h.489a9.312,9.312,0,0,1,9.248,8.32H32.843a9.312,9.312,0,0,1,9.248-8.32M31.446,15.662H53.47v8.32H31.446ZM6.962,9.789H23.383a4.413,4.413,0,0,1-4.3,3.426H11.257a4.413,4.413,0,0,1-4.3-3.426m0,5.384H23.383a4.413,4.413,0,0,1-4.3,3.426H11.257a4.413,4.413,0,0,1-4.3-3.426m0,5.384H23.383a4.413,4.413,0,0,1-4.3,3.426H11.257a4.413,4.413,0,0,1-4.3-3.426M5.686,25.94H55a3.732,3.732,0,0,1,3.728,3.728v13.2C46.555,42.8,40.742,41.482,35.6,40.318A50.665,50.665,0,0,0,23,38.665,56.856,56.856,0,0,0,1.958,42.919V29.668A3.732,3.732,0,0,1,5.686,25.94m5.945,33.771H8.32V52.859h6.737Zm40.738,0H49.059l-3.426-6.852h6.737Zm1.958-8.81H1.958V45.053A55.531,55.531,0,0,1,23,40.623a49.1,49.1,0,0,1,12.164,1.6c5.242,1.187,11.168,2.529,23.564,2.6V50.9Z" transform="translate(0 -0.073)" fill="#fff"/>
          </g>
        </g>
      </g>
    </g>
  </g>
</svg>
