<svg xmlns="http://www.w3.org/2000/svg" xmlns:xlink="http://www.w3.org/1999/xlink" width="109" height="109" viewBox="0 0 109 109">
  <defs>
    <clipPath id="clip-path">
      <rect id="Rect치ngulo_47117" data-name="Rect치ngulo 47117" width="62.845" height="62.428" fill="#fff"/>
    </clipPath>
  </defs>
  <g id="Grupo_130817" data-name="Grupo 130817" transform="translate(-258.667 -1462)">
    <circle id="Elipse_4746" data-name="Elipse 4746" cx="54.5" cy="54.5" r="54.5" transform="translate(258.667 1462)" fill="#5038a1"/>
    <g id="Capa_1-2" transform="translate(265.942 1469)">
      <g id="Grupo_130814" data-name="Grupo 130814">
        <rect id="Rect치ngulo_41196" data-name="Rect치ngulo 41196" width="96" height="95" rx="47.5" transform="translate(-0.275)" fill="none"/>
        <g id="Grupo_156256" data-name="Grupo 156256" transform="translate(16.725 16.286)">
          <g id="Grupo_156255" data-name="Grupo 156255" transform="translate(0 0)" clip-path="url(#clip-path)">
            <path id="Trazado_205882" data-name="Trazado 205882" d="M47.444,30.941c1.351,2.732,2.563,5.2,3.8,7.659.2.4.417.921.772,1.107,5.01,2.631,6.531,7.058,6.292,12.313,4.632.7,5.365,1.977,3.783,6.353a10.907,10.907,0,0,1-9.986,7.31c-13.786.1-27.575.135-41.361-.021C6.3,65.611,3,63.182,1.135,59.091-1.123,54.146-.151,52.508,5.3,52.185a54.494,54.494,0,0,1-2.3-6.108c-3.8-15.3,9.773-28.138,25.516-24.275,3.064.752,5.985,3.1,9.346,1.445a41.083,41.083,0,0,0,4.4-3.1c1.805-1.211,1.584-2.66,1.106-4.557A6.367,6.367,0,0,1,48.033,7.81a6.9,6.9,0,0,1,8,4.052,5.561,5.561,0,0,0,2.474,2.451,7,7,0,0,1,4.083,7.763c-.789,3.266-3.775,5.809-7.045,4.882-3.417-.968-5.141.56-6.97,2.721-.473.559-.978,1.089-1.132,1.26m-1.5,6.447c-3.117,6.349-7.266,10.677-14.368,10.346a9.016,9.016,0,0,1-8.395-6.392c-2.148-6.114.982-10.563,5.174-14.545-5.706-2.827-13.18-1.067-17.718,4.12a15.7,15.7,0,0,0-.994,19.178,4.666,4.666,0,0,0,4.366,2.263c12.021-.1,24.044-.048,36.066-.047,3.865,0,4.724-1.192,3.187-4.853-.512-1.219-1.43-2.813-2.5-3.147-2.871-.895-3.921-2.753-4.142-5.463a6.548,6.548,0,0,0-.675-1.46M5,56.839c1.4,2.853,3.31,4.364,6.04,4.377q20.4.094,40.805-.01a5.888,5.888,0,0,0,5.847-4.367ZM40.452,27.732C34.3,27.641,29,31.092,27.426,35.439a5.67,5.67,0,0,0,7.548,7.422c4.49-1.7,8.343-7.816,7.513-12.534-.2-1.158-1.626-2.1-2.035-2.6M44.4,24l.284,1.258c.78-.125,1.734-.011,2.3-.426a24.244,24.244,0,0,0,2.983-2.9c1.372-1.425,2.62-1.706,4.3-.226.681.6,2.129.558,3.167.4.342-.051.9-1.812.655-2.039A4.745,4.745,0,0,0,55.268,18.6c-2.9.026-3.614-.641-3.576-3.4a4.819,4.819,0,0,0-1.3-2.918c-.227-.256-2.171.349-2.229.729a4.369,4.369,0,0,0,.554,3.148c1.33,1.592,1.127,2.813-.221,4.088s-2.729,2.5-4.1,3.75" transform="translate(0 -3.34)" fill="#fff"/>
            <path id="Trazado_205883" data-name="Trazado 205883" d="M21.755,10.334a16.951,16.951,0,0,1,.95-3.008c.853-1.535,1.971-2.868.628-4.793-.271-.388.5-2.056,1.154-2.377a2.815,2.815,0,0,1,2.6.626c1.706,1.973,2.21,4.31.693,6.659-1.011,1.567-1.7,2.936-.539,4.836a2.853,2.853,0,0,1-.876,2.69,2.9,2.9,0,0,1-2.765-.659,17.555,17.555,0,0,1-1.848-3.974" transform="translate(-9.588 -0.017)" fill="#fff"/>
            <path id="Trazado_205884" data-name="Trazado 205884" d="M49.019,4.292a10.064,10.064,0,0,1-.705,2.4c-1.222,1.942-2.207,3.773-.7,6.108.244.38-.63,2.025-1.3,2.3a2.992,2.992,0,0,1-2.578-.8,6.075,6.075,0,0,1-.56-7.482c.782-1.337,1.377-2.431.447-4.053C43.3,2.216,44.013.611,44.7.125a2.744,2.744,0,0,1,2.561.663,15.123,15.123,0,0,1,1.755,3.5" transform="translate(-18.577 0)" fill="#fff"/>
            <path id="Trazado_205885" data-name="Trazado 205885" d="M9.048,12.4a10.8,10.8,0,0,1-.882,2.686c-1.252,1.789-1.979,3.449-.585,5.588.274.42-.487,2.062-1.144,2.386a2.937,2.937,0,0,1-2.614-.616,6.1,6.1,0,0,1-.743-7.475c.823-1.414,1.543-2.589.475-4.288-.3-.475.355-2.093.987-2.451A2.728,2.728,0,0,1,7.157,8.7,16.867,16.867,0,0,1,9.048,12.4" transform="translate(-0.948 -3.558)" fill="#fff"/>
          </g>
        </g>
      </g>
    </g>
  </g>
</svg>
