<svg id="Grupo_156240" data-name="Grupo 156240" xmlns="http://www.w3.org/2000/svg" xmlns:xlink="http://www.w3.org/1999/xlink" width="85" height="94.367" viewBox="0 0 85 94.367">
  <defs>
    <clipPath id="clip-path">
      <rect id="Rectángulo_47112" data-name="Rectángulo 47112" width="85" height="94.367" fill="#5038a1"/>
    </clipPath>
  </defs>
  <g id="Grupo_156240-2" data-name="Grupo 156240" clip-path="url(#clip-path)">
    <path id="Trazado_205850" data-name="Trazado 205850" d="M7.735,43.111c-.824-17.585,12.612-33.079,30.6-36.537,1.06-2.4,1.455-4.924,2.876-6,1.174-.887,3.976-.7,5.283.2,1.231.854,1.451,3.272,2.348,5.6C68.83,12.217,80.65,25.862,79.666,43.111ZM43.389,16.826c-.43-2.881-4.207-2.4-5.444-2.109a26.789,26.789,0,0,0-11.377,5.6,25.241,25.241,0,0,0-4.509,5c-1.173,1.734-2.724,4.07-2.547,6.263.167,2.055,1.963,3.043,3.591,1.773,1.406-1.1,2.16-2.844,3.232-4.247a26.072,26.072,0,0,1,3.5-3.773,23.581,23.581,0,0,1,9.255-4.988c1.2-.332,4.729-.662,4.3-3.522" transform="translate(-1.35 0)" fill="#5038a1"/>
    <path id="Trazado_205851" data-name="Trazado 205851" d="M13.77,81.7c5.154-5.178,10.105-9.208,17.523-8.556,5.447.48,10.965.076,16.452.107,2.883.017,5.362.824,5.222,4.463-.131,3.448-2.607,3.883-5.289,3.85-2.056-.026-4.189-.306-6.142.172-1.174.287-2.067,1.811-3.086,2.779,1.089,1.009,2.1,2.776,3.28,2.9,5.633.585,11.138.554,15.5-4.431,2.179-2.489,5.067-4.329,7.7-6.366,2.4-1.856,4.964-2.075,6.915.525,1.976,2.634,1.036,5.054-1.333,6.995-5.055,4.141-9.942,8.539-15.253,12.293a15.638,15.638,0,0,1-8.051,2.453c-6.018.258-12.065-.049-18.093-.322a5.226,5.226,0,0,1-3.5-1.567C21.649,92.116,17.886,87.059,13.77,81.7" transform="translate(-2.415 -10.642)" fill="#5038a1"/>
    <path id="Trazado_205852" data-name="Trazado 205852" d="M42.224,64.815q-18.547,0-37.095.009C2.67,64.829.1,64.761,0,61.425c-.1-3.649,2.608-3.716,5.222-3.715q37.3.022,74.6-.006c2.7,0,5.317.355,5.167,3.852-.141,3.3-2.847,3.265-5.263,3.263q-18.752-.013-37.506,0" transform="translate(0 -8.404)" fill="#5038a1"/>
    <path id="Trazado_205853" data-name="Trazado 205853" d="M21.087,103.561l-4.16,3.406L4.014,90.119l3.807-3.6,13.266,17.046" transform="translate(-0.704 -12.6)" fill="#5038a1"/>
  </g>
</svg>
