<svg xmlns="http://www.w3.org/2000/svg" width="405.804" height="405.92" viewBox="0 0 405.804 405.92">
  <path id="Trazado_117564" data-name="Trazado 117564" d="M243.027,4.016a3.516,3.516,0,0,1,.693.069q8.394,1.709,16.52,4.1a3.5,3.5,0,0,1-1.985,6.713c-5.225-1.532-10.583-2.861-15.923-3.948a3.5,3.5,0,0,1,.695-6.93ZM281.423,16a3.49,3.49,0,0,1,1.362.278q5.867,2.51,11.534,5.371h0l.065.033,0,0,.063.032.006,0,.062.032.005,0,.2.1.015.008.048.025.021.011.042.021.027.013.037.019.027.014.037.019.029.015.046.024.051.026.025.013.04.021.023.012.04.02.022.011.04.021.023.012.043.022.01.005.287.147h0q1.237.636,2.465,1.288a3.5,3.5,0,1,1-3.285,6.181c-4.814-2.558-9.793-4.941-14.8-7.084A3.5,3.5,0,0,1,281.423,16Zm35.191,19.485a3.485,3.485,0,0,1,1.992.625q3.577,2.483,7.042,5.113h0l.05.038,0,0,.309.235.007.006.045.035.01.008.043.033.012.009.045.034,0,0,.2.156.005,0,.043.033.014.011.039.03.016.013.038.029.019.015.038.029.012.009.133.1.017.013.035.027.021.016.034.026.022.017.035.027.023.018.03.023.029.022.028.022.032.025.023.018.054.042.022.017.038.029.02.015.035.027.025.02.032.025.025.019.03.023.028.022.031.024.026.02.037.029.019.015.055.043.019.014.039.03.022.017.035.027.023.018.034.027.024.019.034.027.021.016.037.029.021.016.113.088.013.01.046.036.015.012.041.032.02.016.038.03.019.015.038.03.019.015.042.033.016.012.056.044.013.01.044.034.018.014.039.031.021.016.036.028.021.017.036.029.021.016.041.032.014.011.052.041.005,0,.115.091.013.011.045.036.013.011.042.033.019.015.04.031.017.014.042.033.015.012.115.091.009.007.048.038.017.014.038.03.024.019.032.025.024.019.034.027.023.018.039.031.015.012.046.037.02.016.048.038.018.014.037.03.022.018.035.028.023.019.03.024.028.023.028.023.027.022.03.024.026.021.037.03.044.035.027.021.03.024.025.02.03.024.025.02.034.027.019.015.036.029.016.013.04.032.006,0,.138.111.014.011.038.03.017.013.037.03.019.015.037.03.015.012.04.032.01.008.3.243,0,0q.617.5,1.231,1.008a3.5,3.5,0,0,1-4.456,5.4c-4.2-3.471-8.605-6.806-13.08-9.912a3.5,3.5,0,0,1,2-6.376Zm30.577,26.139a3.491,3.491,0,0,1,2.52,1.071q1.828,1.911,3.6,3.866l0,0,.049.054,0,0,.049.054,0,0,.05.055h0l.1.112,0,0,.044.049.013.015.034.038.017.019.033.036.017.018.031.034.019.021.032.036.016.018.042.047.025.028.027.03.024.027.024.026.026.029.022.024.026.028.021.023.029.032.015.017.032.035.011.012.165.184,0,.006.039.043.007.008.038.042.008.009q2.206,2.469,4.333,5.009l.01.012.033.04.011.014.033.039.012.014.033.04.012.015.031.037.019.023.048.057.021.026.022.026.024.029.02.024.028.034.017.021.029.035.017.02.033.04.012.015.04.048.006.007.144.174,0,0,.045.054,0,.005c.506.611,1,1.218,1.5,1.836a3.5,3.5,0,0,1-5.451,4.391c-3.426-4.237-7.073-8.383-10.841-12.323a3.5,3.5,0,0,1,2.529-5.919ZM371.938,93.34a3.5,3.5,0,0,1,2.965,1.635l0,0,.03.048.006.009.032.05h0l.139.222v0l.032.051,0,.008.03.048.007.012.03.048,0,.007.166.266.009.015.027.043.01.017.025.04.013.02.026.041.009.014.028.044.006.01.092.149.008.013.026.042.012.02.023.037.015.024.022.035.016.026.022.035.012.02.08.13.017.028.02.032.017.028.02.032.018.029.02.033.018.03.017.028.022.036.016.026.027.043.016.025.03.05.018.029.021.034.017.028.02.032.018.029.021.034.017.028.021.034.016.027.025.041.012.02.036.06.013.022.024.04.014.023.024.039.016.026.022.036.016.026.022.036.016.027.025.041.012.019.031.05.011.019.033.055.01.017.028.046.011.018.028.046.011.018.026.043.012.02.029.047.008.014.115.189.007.012.031.052.007.012.031.052.008.013.032.054,0,.008.037.062v0l.117.194,0,.008.033.055.007.012.033.055,0,.007.194.324,0,0,.036.061,0,0,.036.06,0,.006.155.261h0l.311.527h0q2.789,4.734,5.328,9.632a3.5,3.5,0,0,1-6.22,3.21c-2.505-4.835-5.249-9.625-8.154-14.239a3.5,3.5,0,0,1,2.958-5.366Zm17.887,36.027a3.5,3.5,0,0,1,3.275,2.266l.016.041h0l.135.362v0q1.8,4.832,3.364,9.774l0,.005.021.066,0,.009.022.07h0l.046.147,0,.005.02.064.006.018.016.052.007.021.015.047.008.026.015.049.006.02.019.06.009.027.016.051.011.034.01.033.012.037.01.033.011.036.01.031.012.038.009.03.012.04,0,.013.032.1,0,.012.015.048.006.02.015.047.006.02.014.047.006.019.113.37h0q.642,2.1,1.24,4.219a3.5,3.5,0,1,1-6.737,1.9c-1.478-5.242-3.2-10.487-5.115-15.587a3.5,3.5,0,0,1,3.276-4.731Zm10.248,38.893a3.5,3.5,0,0,1,3.452,2.947q1.084,6.891,1.7,13.917v.014l.006.063v.015l.005.062v.016l.013.149,0,.029,0,.044,0,.035,0,.036,0,.04,0,.03,0,.043,0,.02.009.108v.008l0,.055v.015l0,.055v.015q.088,1.062.165,2.126a3.5,3.5,0,1,1-6.982.506c-.395-5.445-1.024-10.931-1.869-16.306a3.5,3.5,0,0,1,3.462-4.044Zm2.228,40.177q.078,0,.157,0a3.5,3.5,0,0,1,3.343,3.637q-.341,7.758-1.255,15.348h0l-.029.238v0l-.009.072v.011l-.008.068v.008l-.009.073v0l-.019.153,0,.016-.007.059,0,.02-.007.055,0,.021-.008.064v.01l-.009.074,0,.019-.007.055,0,.025-.006.048,0,.031-.005.043,0,.03-.006.044-.007.057-.005.041,0,.036,0,.034-.005.042,0,.03-.005.042,0,.029-.005.043v0a3.5,3.5,0,0,1-6.943-.889c.69-5.395,1.162-10.9,1.4-16.352A3.5,3.5,0,0,1,402.3,208.436Zm-5.8,39.8a3.5,3.5,0,0,1,3.4,4.34c-.709,2.825-1.475,5.617-2.3,8.394v0l-.088.3v0l-.021.07,0,.005-.02.068,0,.007-.021.07v0l-.044.147,0,.009-.019.061-.005.018-.016.054-.005.017-.016.054-.006.02-.017.055,0,.016-.021.07,0,.016-.016.054-.009.028-.012.038-.011.036-.01.034-.011.035-.011.035-.01.034-.012.039-.042.138-.008.025-.012.04-.009.03-.012.04-.009.028-.013.041-.007.024-.014.046h0l-.054.176-.006.018-.015.049-.005.016-.016.05,0,.015-.017.054v0q-.893,2.881-1.868,5.726a3.5,3.5,0,1,1-6.621-2.271c1.767-5.153,3.336-10.445,4.663-15.729A3.5,3.5,0,0,1,396.5,248.239Zm-13.7,37.813a3.5,3.5,0,0,1,3.15,5.021q-1.562,3.238-3.234,6.412h0l-.152.287,0,.009-.026.049-.007.012-.026.049-.005.01-.026.05-.005.009-.115.216-.008.016-.022.042-.011.021-.022.041-.012.022-.022.041-.01.019-.023.043-.01.02-.075.141-.012.022-.019.035-.015.028-.019.035-.015.027-.019.035-.014.027-.02.037-.014.027-.018.034-.017.032-.031.057-.019.035-.014.027-.019.036-.015.028-.02.037-.015.028-.018.034-.016.03-.019.035-.015.028-.022.041-.012.021-.034.062-.011.02-.024.044-.013.024-.022.041-.012.021-.023.043-.013.023-.023.042-.011.021-.024.045-.011.02-.069.127-.008.015-.027.05-.009.016-.027.049-.009.016-.029.053-.006.01-.033.06,0,0-.109.2,0,.005-.033.061,0,.007-.034.062v0l-.184.335h0q-1.453,2.636-2.985,5.23a3.5,3.5,0,0,1-6.021-3.57c2.772-4.695,5.376-9.562,7.742-14.466A3.5,3.5,0,0,1,382.8,286.052Zm-21.042,34.283a3.5,3.5,0,0,1,2.781,5.622q-1.289,1.691-2.612,3.353l0,0-.245.308,0,0-.039.048,0,.005-.037.047-.006.007-.241.3-.008.01-.034.042-.01.012-.033.04-.012.015-.033.041,0,.005-.12.149,0,0-.032.04-.012.015-.03.037-.014.018-.03.037-.015.019-.026.033-.021.026-.024.03-.019.024-.025.031-.01.012-.055.068-.022.028-.018.023-.027.033-.02.024-.026.033-.019.024-.026.032-.018.022-.031.038-.014.017-.037.045-.009.011-.046.056-.009.011-.036.045-.015.018-.031.039-.014.017-.033.04-.013.016-.036.044-.009.011-.039.048-.008.01-.142.174,0,0-.044.053-.008.01-.042.051,0,0-.288.35,0,0-.046.056,0,0q-2.909,3.525-5.972,6.915a3.5,3.5,0,0,1-5.184-4.7c3.654-4.045,7.182-8.294,10.485-12.626A3.494,3.494,0,0,1,361.758,320.335ZM334.28,349.722a3.5,3.5,0,0,1,2.31,6.131l-.568.495,0,0-.051.044-.011.009-.042.037-.016.014-.037.032-.02.018-.038.033-.015.013-.044.038-.031.027-.031.027-.031.027-.021.018-.033.029-.021.018-.034.03-.016.014-.038.033-.013.011-.041.035,0,0-.249.214h0Q329.441,362,323.338,366.5a3.5,3.5,0,0,1-4.154-5.634c4.385-3.233,8.689-6.692,12.793-10.281A3.486,3.486,0,0,1,334.28,349.722ZM301.492,373.03a3.5,3.5,0,0,1,1.744,6.537c-1.082.616-2.176,1.224-3.27,1.821l-.005,0-.057.031-.013.007-.052.028-.014.008-.05.027-.016.009-.062.033h0l-.065.036-.01.006-.054.029-.016.009-.048.026-.021.011-.042.023-.023.012-.041.022-.025.013-.044.024-.018.01-.057.031-.033.018-.035.019-.031.016-.032.017-.031.017-.034.018-.031.017-.028.015-.037.02-.024.013-.04.021-.008,0-.157.084-.014.007-.046.024-.017.009-.042.022-.021.011-.043.023-.015.008-.047.025,0,0-.222.118-.013.007-.05.027-.008,0-.052.028-.007,0-.343.182-.007,0-.054.028,0,0q-1.495.79-3,1.555h0l-.771.389h0l-.052.026-.012.006-.051.025-.008,0-.055.027h0l-.291.146-.006,0-.051.025-.013.007-.05.025-.01,0-.284.141-.011.005-.046.023-.018.009-.043.021-.022.011-.042.021-.017.008-.048.023h0l-.161.08-.021.01-.037.018-.028.014-.035.017-.03.015-.033.016-.031.015-.034.017-.033.016-.03.015-.049.024-.042.021-.036.017-.03.015-.034.017-.03.015-.037.018-.026.013-.043.021-.021.01-.051.025-.014.007-.133.065-.013.006-.053.026-.019.009-.047.023-.02.01-.045.022-.022.011-.052.025-.011.005-.2.1-.012.006-.055.027-.013.006-.055.027-.012.006-.061.029-.005,0-.275.132h0l-.066.032,0,0c-.873.419-1.744.829-2.624,1.236A3.5,3.5,0,0,1,285.175,381c4.942-2.286,9.851-4.811,14.59-7.507A3.484,3.484,0,0,1,301.492,373.03ZM264.7,389.276a3.5,3.5,0,0,1,1.091,6.826q-8.057,2.618-16.392,4.571a3.5,3.5,0,0,1-1.581-6.819c5.305-1.241,10.621-2.723,15.8-4.406A3.5,3.5,0,0,1,264.7,389.276Zm-39.311,8.482a3.5,3.5,0,0,1,.4,6.977c-1.342.15-2.683.286-4.033.41h0l-.075.007h-.01l-.071.006h-.006l-.078.007h0l-.08.007h0l-.071.006-.022,0-.053,0-.025,0-.05,0-.026,0-.062.005h-.016l-.069.006-.028,0-.044,0-.034,0-.038,0-.038,0-.035,0-.037,0-.036,0-.078.007-.025,0-.047,0-.023,0-.048,0-.026,0-.047,0h-.014l-.177.015h-.013l-.056,0h-.012l-.058,0h-.006q-3.1.259-6.221.424h-.008l-.26.014h0l-.072,0-.071,0-.055,0h-.009l-.176.009-.067,0-.07,0-.073,0-.087,0-.088,0-.076,0-.074,0-.069,0h-.006l-.158.007h-.01l-.07,0h-.009q-1.786.081-3.582.132a3.5,3.5,0,0,1-.183-7c5.461-.154,10.971-.538,16.376-1.141A3.541,3.541,0,0,1,225.39,397.758Zm-56.806-1.715a3.526,3.526,0,0,1,.6.052c5.359.932,10.833,1.648,16.268,2.13a3.5,3.5,0,1,1-.618,6.973q-6.3-.558-12.477-1.5h-.008l-.058-.009-.011,0-.242-.037-.016,0-.048-.007-.025,0-.044-.007-.03,0-.042-.007-.029,0-.064-.01-.046-.007-.028,0-.048-.007-.025,0-.051-.008-.022,0-.057-.009-.016,0-.152-.024h-.005l-.073-.011h-.005l-.076-.012h0c-1.055-.166-2.116-.342-3.166-.525a3.5,3.5,0,0,1,.61-6.946Zm-38.718-10.874a3.491,3.491,0,0,1,1.283.245c5.069,2,10.285,3.8,15.5,5.368a3.5,3.5,0,0,1-2.009,6.705q-3.832-1.148-7.6-2.442l-.009,0-.055-.019-.011,0-.054-.018-.011,0-.225-.078-.024-.008-.037-.013-.033-.011-.033-.011-.039-.013-.03-.01-.042-.015-.025-.009-.068-.024h0l-.07-.024-.014,0-.056-.02-.018-.006-.052-.018-.019-.007-.057-.02-.01,0c-2.519-.88-5.006-1.8-7.479-2.779a3.5,3.5,0,0,1,1.295-6.753ZM94.136,366.7a3.483,3.483,0,0,1,1.909.569c4.566,2.979,9.312,5.8,14.105,8.383a3.5,3.5,0,1,1-3.321,6.162q-2.812-1.515-5.57-3.116h0l-.457-.266,0,0-.336-.2-.008,0-.05-.029-.009-.005-.049-.029-.01-.006-.05-.029,0,0-.221-.13-.006,0-.047-.028-.014-.008-.046-.027-.014-.008-.046-.027-.012-.007-.2-.121-.02-.012-.039-.023-.02-.012-.039-.023-.023-.013-.037-.022-.024-.014-.036-.021-.028-.017-.034-.02-.015-.009-.087-.052-.015-.009-.035-.021-.028-.017-.033-.02-.028-.017-.032-.019-.03-.018-.033-.019-.03-.018-.029-.018-.034-.02-.126-.076-.019-.012-.037-.022-.027-.016-.033-.02-.028-.017-.032-.019-.033-.02-.028-.017-.035-.021-.025-.015-.052-.031-.019-.011-.051-.031-.025-.015-.036-.022-.028-.017-.033-.02-.03-.018-.032-.02-.028-.017-.034-.021-.028-.017-.044-.027-.015-.009L98,376.772l-.022-.013-.04-.024-.025-.015-.036-.022-.026-.016-.037-.022-.027-.016-.033-.02-.03-.018-.036-.022-.024-.014-.123-.075-.017-.01-.044-.027-.024-.015-.039-.024-.022-.013-.041-.025-.023-.014-.04-.024-.022-.013-.044-.027-.018-.011-.062-.038,0,0-.057-.035-.02-.012-.042-.026-.021-.013-.04-.025-.023-.014L96.9,376.1l-.02-.012-.048-.029-.013-.008-.126-.078-.01-.006-.052-.032-.016-.01-.045-.028-.02-.012-.044-.027-.018-.011-.045-.028-.018-.011-.058-.036h0l-.128-.079-.009-.006-.05-.031-.019-.012-.044-.027L96.1,375.6l-.045-.028-.017-.01-.052-.032-.009-.006-.127-.079,0,0-.059-.037-.013-.008-.048-.03-.018-.011-.042-.027-.021-.013-.045-.028-.015-.01-.051-.032-.011-.007-.063-.039h0l-.059-.037-.019-.012-.044-.028-.019-.012-.041-.026-.021-.013-.042-.027-.019-.012-.044-.027L95.13,375l-.055-.035-.005,0-.062-.039-.016-.01-.046-.029-.02-.012-.042-.026-.023-.014-.038-.024-.023-.014-.039-.025-.022-.014-.044-.028-.016-.01-.054-.034-.026-.017-.041-.026-.024-.015L94.5,374.6l-.026-.017-.036-.023-.025-.016-.034-.022-.029-.018-.031-.02-.03-.019-.033-.021-.028-.018-.057-.036-.028-.018-.033-.021-.03-.019-.032-.02-.027-.017-.034-.022-.028-.018-.031-.02-.031-.02-.025-.016-.037-.024,0,0-.1-.064-.009-.006-.042-.027-.017-.011-.042-.027-.016-.01-.042-.027-.017-.011-.042-.027-.012-.008-.047-.03h0l-.214-.138-.011-.007-.045-.029-.014-.009-.043-.027-.016-.01-.045-.029,0,0-.272-.176,0,0-.052-.034,0,0-.052-.034,0,0-.441-.287a3.5,3.5,0,0,1,1.916-6.432ZM62.819,341.449a3.489,3.489,0,0,1,2.459,1.01c3.878,3.83,7.965,7.544,12.147,11.037a3.5,3.5,0,0,1-4.476,5.382q-5.853-4.888-11.323-10.2l0,0-.051-.05,0,0-.052-.051,0,0-.217-.211h0l-.05-.049-.009-.009-.042-.041-.014-.013-.041-.04-.01-.009-.045-.044-.008-.008-.106-.1h0l-.051-.05-.007-.007-.044-.043-.014-.014-.038-.037-.016-.016-.035-.034-.017-.017-.039-.039-.012-.011-.105-.1,0,0-.046-.045-.017-.017-.035-.034-.018-.018-.032-.032-.021-.021-.031-.03-.02-.02-.01-.01a3.5,3.5,0,0,1,2.461-5.989Zm-25.648-31A3.5,3.5,0,0,1,40.082,312c3.033,4.524,6.3,8.978,9.7,13.238a3.5,3.5,0,0,1-5.461,4.38q-3.038-3.8-5.89-7.743l0,0-.043-.059,0,0-.042-.058,0,0-.175-.242-.009-.012-.035-.048-.009-.013-.034-.047-.009-.013-.036-.05-.007-.01-.04-.056,0,0-.088-.123,0,0-.039-.055-.01-.014-.031-.043L37.8,321l-.029-.041-.012-.017-.032-.045-.011-.015-.038-.053,0-.006-.043-.06-.008-.011-.035-.049-.013-.018-.027-.038-.019-.027-.022-.031-.02-.029-.019-.027-.023-.032-.018-.025-.023-.033-.016-.022-.047-.066-.017-.024-.021-.03-.021-.029-.022-.03-.02-.027-.022-.03-.02-.028-.022-.031-.019-.027-.022-.03-.018-.026-.024-.034-.01-.014-.053-.075-.016-.022-.023-.033-.018-.026-.023-.033-.016-.023-.024-.035-.017-.024-.024-.034-.016-.022-.025-.035-.015-.022-.094-.134-.009-.013-.025-.035-.017-.024-.024-.035-.015-.022-.026-.037-.014-.019-.028-.04-.011-.016-.028-.04-.011-.016-.1-.146,0-.005-.029-.041-.013-.019-.027-.038-.012-.018-.028-.041-.011-.016-.029-.042-.008-.012-.14-.2-.007-.01-.029-.042-.011-.016-.029-.042-.01-.015-.028-.041-.012-.017-.029-.042-.006-.009-.107-.154,0,0-.03-.043-.01-.015-.027-.039-.015-.021-.026-.037-.012-.018L35.691,318l-.011-.016-.028-.041-.01-.014-.093-.136-.013-.019-.025-.037-.015-.022-.023-.033-.018-.027-.023-.033-.016-.024-.024-.034-.016-.023-.025-.037-.012-.018-.087-.127-.018-.026-.021-.031-.02-.029-.019-.028-.023-.034-.017-.025-.024-.035-.017-.025-.026-.038-.015-.022-.033-.048-.01-.015-.038-.056-.01-.015-.031-.046-.011-.016-.03-.045-.011-.016-.031-.045-.011-.017L34.8,316.7l-.008-.012-.037-.055,0-.006-.083-.123-.007-.01-.036-.053-.005-.008-.037-.055,0-.007-.039-.058,0,0-.276-.41a3.5,3.5,0,0,1,2.907-5.445Zm-18.911-35.5a3.5,3.5,0,0,1,3.241,2.176c2.061,5.04,4.363,10.057,6.843,14.912a3.5,3.5,0,1,1-6.234,3.185q-.482-.943-.954-1.892h0l-.147-.3h0l-.027-.055,0-.008-.027-.054,0-.006-.027-.054,0-.006-.111-.225-.006-.012-.022-.046-.009-.018-.021-.044-.01-.02-.021-.043-.009-.018-.022-.045-.005-.011-.052-.105,0,0-.021-.043-.01-.021-.02-.04-.012-.024-.02-.041-.011-.023-.019-.039-.014-.028-.018-.036-.018-.036-.013-.027-.03-.062-.015-.03-.017-.035-.014-.03-.017-.035-.015-.03-.018-.036-.014-.029-.018-.036-.014-.029-.023-.048-.008-.016-.032-.066,0-.01-.027-.055-.01-.021-.021-.044-.013-.026-.02-.04-.011-.024-.022-.045-.01-.021-.024-.049-.008-.016-.031-.064L20.011,291l-.025-.051-.009-.018-.023-.047-.01-.022-.022-.046-.009-.019-.023-.049-.008-.017-.029-.06,0,0-.066-.138v0l-.03-.063-.006-.013-.026-.054-.007-.015-.025-.053-.007-.014-.03-.062v0l-.1-.206,0,0-.031-.064,0,0-.029-.062,0-.008c-.132-.278-.262-.553-.393-.832h0l-.2-.418h0q-1.009-2.165-1.967-4.354l0,0c-.124-.283-.246-.564-.368-.847h0l-.183-.425h0l-.03-.07h0l-.028-.066,0-.007-.119-.279,0-.009-.025-.06,0-.011-.025-.059,0-.011-.028-.065v0l-.089-.209,0-.011-.024-.057-.007-.016-.022-.051-.008-.018-.024-.056,0-.011-.088-.208,0-.008-.025-.06-.006-.013-.023-.055-.007-.016-.024-.056,0-.011-.026-.061,0-.009-.058-.138,0-.011-.024-.057-.007-.016-.021-.05-.009-.021-.02-.048-.008-.02-.022-.054-.005-.013-.057-.136-.008-.018-.021-.05-.008-.019-.021-.05-.008-.02-.02-.049-.008-.018-.021-.051-.008-.019-.056-.135-.007-.016-.022-.052-.008-.021-.019-.045-.011-.026-.018-.044-.01-.025-.018-.043-.01-.025-.021-.05-.007-.018-.027-.066L15.114,280l-.02-.049-.01-.024-.018-.043-.011-.027-.017-.04-.011-.027-.007-.017a3.5,3.5,0,0,1,3.239-4.824ZM6.9,236.373a3.5,3.5,0,0,1,3.437,2.858c1,5.357,2.242,10.735,3.689,15.983a3.5,3.5,0,0,1-6.745,1.872q-.867-3.143-1.635-6.326h0l-.091-.38v0l-.072-.3,0-.007L5.468,250l0-.006-.017-.07v-.005l-.054-.227v0l-.017-.071,0-.01-.015-.064,0-.011-.015-.065,0-.01-.035-.15h0l-.017-.073,0-.011-.015-.062,0-.014-.015-.063,0-.01-.052-.224,0-.008-.015-.066,0-.011-.015-.065,0-.011-.069-.3v0l-.016-.07V248.3l-.015-.068,0-.009L5.005,248v0l-.016-.071,0-.01-.016-.069v0l-.051-.226,0-.01-.014-.065,0-.011-.014-.063,0-.013-.015-.068v-.005l-.05-.225,0-.012-.014-.062,0-.013-.014-.063,0-.012-.066-.3,0-.011L4.7,246.62l0-.008-.05-.227v0l-.015-.071,0-.008-.015-.068,0-.009-.016-.073h0l-.049-.229v-.005l-.015-.071v-.006l-.015-.072v0l-.065-.305v-.006l-.016-.073h0l-.082-.386h0l-.1-.464h0q-.416-2-.793-4.019A3.5,3.5,0,0,1,6.9,236.373ZM3.5,196.278h.056a3.534,3.534,0,0,1,3.472,3.555L7,203q0,6.681.441,13.253a3.5,3.5,0,0,1-6.984.466q-.078-1.168-.143-2.34v0c-.006-.1-.011-.209-.017-.313v-.01l-.005-.1v0l-.011-.207v-.013l0-.092v-.011l-.01-.2v-.013l0-.088V213.3l-.01-.2v-.018l0-.082v-.022l0-.1v0l0-.1v-.02l0-.078v-.028l0-.08v-.018l0-.1v-.022l0-.076v-.029l0-.077v-.021l0-.1v-.015l0-.08v-.032l0-.071v-.027l0-.1V211.8l0-.074v-.035l0-.064v-.036l0-.092v-.018l0-.078v-.035l0-.064v-.035l0-.077v-.028l0-.083v-.036l0-.063v-.037l0-.074v-.021l0-.092v-.039l0-.059v-.04l0-.063v-.033l0-.091V210.4l0-.06V210.3l0-.058V210.2l0-.089v-.038l0-.058v-.042l0-.055v-.041l0-.088v-.037l0-.059v-.043l0-.055v-.04l0-.072,0-.053,0-.061v-.042l0-.055v-.042l0-.067v-.05l0-.068V209l0-.057v-.038l0-.07v-.027l0-.091v-.036l0-.06v-.04l0-.066v-.03l0-.091v-.036l0-.061v-.038l0-.063v-.035l0-.091v-.031l0-.065v-.136c0-.03,0-.061,0-.091,0-.014,0-.018,0-.032v-.2l0-.086v-.349l0-.078c0-.007,0-.029,0-.036V206.9c0-.014,0-.024,0-.037V206.8c0-.007,0-.019,0-.026l0-.092c0-.014,0-.024,0-.037v-.06c0-.014,0-.027,0-.04v-.061c0-.014,0-.022,0-.036v-.124c0-.022,0-.043,0-.065v-.037c0-.022,0-.044,0-.066v-.123c0-.014,0-.018,0-.032v-.067c0-.014,0-.022,0-.036s0-.044,0-.066,0-.018,0-.032v-.117q0-.037,0-.074c0-.014,0-.021,0-.035s0-.044,0-.066v-.126c0-.007,0-.013,0-.019,0-.026,0-.053,0-.079,0-.007,0-.026,0-.032,0-.022,0-.045,0-.067,0-.007,0-.026,0-.033,0-.03,0-.06,0-.09v-.011c0-.03,0-.061,0-.092v-.033c0-.022,0-.044,0-.066v-.035c0-.024,0-.048,0-.072,0-.007,0-.019,0-.026q0-.047,0-.094c0-.007,0-.025,0-.031,0-.022,0-.045,0-.067V204.5c0-.025,0-.051,0-.077,0-.007,0-.014,0-.021v-.1c0-.014,0-.012,0-.026s0-.048,0-.072,0-.019,0-.033,0-.048,0-.072,0-.013,0-.026c0-.032,0-.064,0-.1,0-.014,0-.01,0-.024s0-.048,0-.072,0-.022,0-.036v-.067c0-.014,0-.016,0-.03,0-.032,0-.064,0-.1,0-.007,0-.012,0-.019,0-.026,0-.052,0-.078s0-.019,0-.032v-.07c0-.007,0-.022,0-.029v-.108c0-.029,0-.058,0-.086,0-.007,0-.024,0-.031,0-.023,0-.047,0-.07v-.03c0-.032,0-.065,0-.1H0q0-.047,0-.093v-.031q0-.031,0-.063c0-.014,0-.022,0-.036v-.062c0-.007,0-.026,0-.032q0-.04,0-.08c0-.014,0-.013,0-.027V202.5c0-.014,0-.024,0-.038s0-.036,0-.055,0-.029,0-.043,0-.033,0-.05,0-.025,0-.045v-.043c0-.034,0-.068,0-.1,0-.01,0-.019,0-.029s0-.037,0-.058v-.093c0-.009,0-.018,0-.027s0-.045,0-.066v0c0-.082,0-.16,0-.242,0,0,0,0,0,0,0-.649.012-1.294.022-1.941A3.466,3.466,0,0,1,3.5,196.278Zm4.684-39.956a3.5,3.5,0,0,1,3.421,4.255c-1.172,5.314-2.134,10.75-2.858,16.155a3.5,3.5,0,0,1-6.94-.916q.743-5.555,1.783-11.01v0l.014-.073v-.007l.044-.229v0l.013-.067,0-.017.011-.059,0-.015.013-.065,0-.009.029-.15,0-.015.011-.056,0-.024.009-.048.006-.028.009-.046,0-.025.012-.06,0-.013.014-.071L3.8,163.7l.008-.042.007-.035.007-.038.007-.033.008-.039.007-.034.008-.04.014-.069.006-.028.008-.042.006-.029.008-.04.006-.031.008-.041.005-.028.009-.044,0-.018.036-.178v0l.011-.057,0-.013.011-.056,0-.008q.371-1.846.776-3.68A3.5,3.5,0,0,1,8.181,156.323ZM20.795,118.13a3.5,3.5,0,0,1,3.193,4.93c-2.225,4.975-4.264,10.1-6.061,15.245A3.5,3.5,0,1,1,11.318,136l.02-.057,0-.008.019-.055,0-.009.02-.057,0-.006.021-.059h0l.086-.246,0-.007.02-.055,0-.01.02-.056,0-.007.107-.3,0-.009L11.67,135l.006-.016.018-.051,0-.011.02-.055v0l.086-.24,0-.013.018-.05.005-.015.018-.049.006-.017.018-.051,0-.005.064-.177,0-.008.018-.049.007-.018.016-.045.008-.022.016-.045.008-.021.016-.043.009-.025.059-.164,0,0,.017-.047.008-.022.016-.044.008-.022.016-.044.009-.024.016-.043.008-.022.016-.045,0-.006.038-.1.007-.018.016-.044.008-.022.016-.042.009-.025.016-.043.009-.024.015-.04.012-.032.013-.035.021-.056.013-.035.015-.04.012-.033.013-.036.011-.031.014-.037.011-.031.015-.04.01-.028.016-.043.009-.025.025-.068v0l.025-.067.006-.017.02-.053.007-.019.019-.051.007-.02.02-.054.005-.013.025-.066v0l.053-.143,0-.008.024-.064,0-.007.023-.062,0-.011.023-.061,0-.01.107-.286v0l.025-.067,0-.007.026-.068h0q2.141-5.676,4.608-11.19A3.5,3.5,0,0,1,20.795,118.13Zm20.051-34.87a3.5,3.5,0,0,1,2.84,5.542c-3.18,4.429-6.211,9.044-9.007,13.717a3.5,3.5,0,0,1-6.007-3.594q.268-.448.538-.894l.014-.022.021-.035.016-.027.02-.032.018-.03.019-.031.019-.032.017-.028.022-.036.016-.026.075-.123.006-.01.033-.055.006-.009.033-.054.007-.011.035-.057,0,0Q33.564,90.894,38,84.715A3.5,3.5,0,0,1,40.846,83.261ZM67.468,53.1a3.5,3.5,0,0,1,2.379,6.068c-4,3.7-7.89,7.621-11.567,11.644a3.5,3.5,0,0,1-5.167-4.722q2.778-3.04,5.676-5.965h0l.372-.374,0,0,.371-.371,0,0,.044-.044,0,0,.045-.045h0l.186-.186,0,0,.043-.043.006-.006.039-.039.012-.012.038-.037.01-.01.039-.039.008-.008.175-.173.01-.01.036-.036.014-.014.034-.034.015-.015.037-.036.009-.009.038-.038.012-.012.118-.116.015-.015.031-.03.021-.021.028-.028.021-.021.029-.028.023-.022.029-.029.019-.018.032-.031.018-.018.107-.105.022-.022.028-.028.022-.022.028-.028.023-.023.026-.025.026-.026.026-.025.025-.024.026-.025.025-.024.031-.031.044-.043.016-.015.035-.034.022-.021.03-.029.023-.022.028-.027.023-.023.03-.029.021-.021.032-.031.019-.018.044-.043.007-.007.052-.05.013-.012.04-.038.015-.015.037-.036.018-.017.035-.034.016-.015.038-.036.015-.015.044-.042.007-.007.159-.154.012-.011.042-.041.011-.01.043-.041.01-.01.045-.043.008-.008.049-.048,0,0,.162-.156.006-.006.045-.044.012-.011.044-.042.008-.007.049-.047,0,0,.218-.208,0,0,.05-.048.006-.006.048-.046.007-.006q1.067-1.018,2.151-2.022A3.487,3.487,0,0,1,67.468,53.1ZM99.573,28.866a3.5,3.5,0,0,1,1.82,6.492c-4.655,2.827-9.249,5.889-13.657,9.1a3.5,3.5,0,0,1-4.132-5.65c1.675-1.22,3.36-2.408,5.073-3.578l.005,0,.057-.039.006,0,.249-.17,0,0,.058-.04.007,0,.053-.036.012-.008.05-.034.012-.008.051-.035.01-.007.183-.124.017-.011.042-.029.022-.015.039-.026.02-.013.043-.029.017-.012.049-.033.01-.007.124-.083.006,0,.053-.035.019-.013.041-.027.023-.016.035-.024.025-.017.037-.025.022-.015.044-.029.015-.01L90.2,34.2l0,0,.056-.037.019-.013.041-.028.02-.013.041-.027.022-.015.038-.025.023-.016L90.5,34l.023-.016.053-.035,0,0,.061-.041.017-.011.043-.029.024-.016.035-.024.026-.018.034-.023.027-.018.031-.021.029-.019.031-.02.029-.019L91,33.665l.037-.025.044-.029.029-.02.03-.02.032-.021.028-.018.031-.02.029-.019.031-.021.028-.019.031-.02.029-.019.032-.021.053-.035.036-.024.025-.016.037-.025.023-.015.034-.023.025-.016.033-.022.029-.019.03-.02.028-.018.033-.022.024-.016.05-.033.041-.027.033-.022.026-.017L92.008,33l.023-.015.037-.024.022-.014.036-.023.024-.016.036-.023.022-.014.037-.024.019-.012.074-.048.023-.015.034-.022.024-.016.036-.024.023-.015.037-.024.021-.014.038-.025.022-.014.037-.024.018-.011.138-.09.017-.011.04-.026.018-.012.038-.025.022-.014.039-.025.02-.013.039-.026.017-.011.2-.13.014-.009.044-.028.014-.009.045-.029.014-.009.044-.029.013-.008.046-.029.009-.006.21-.134.009-.006.046-.03.012-.008.046-.029.012-.007.047-.03.01-.006.047-.03.01-.006.207-.132.014-.009.043-.027.015-.009.045-.029.012-.008.047-.03.006,0,.273-.173,0,0,.053-.034,0,0,.053-.034,0,0,.333-.21,0,0q1.35-.849,2.714-1.678A3.483,3.483,0,0,1,99.573,28.866Zm36.315-17.3a3.5,3.5,0,0,1,1.177,6.8c-5.128,1.832-10.244,3.906-15.2,6.164a3.5,3.5,0,0,1-2.91-6.367q6.217-2.832,12.649-5.25h0l.071-.027h0l.066-.025.008,0,.065-.025,0,0,.21-.078.022-.008.048-.018.021-.008.049-.018.02-.008.05-.018.021-.008.05-.018.02-.007.066-.024.028-.01.039-.014.037-.014.029-.011.039-.014.027-.01.042-.016.024-.009.043-.016.02-.007.229-.084.007,0,.059-.022h0q.844-.31,1.69-.612A3.492,3.492,0,0,1,135.888,11.567Zm39.058-9.61a3.5,3.5,0,0,1,.483,6.966c-5.4.76-10.829,1.758-16.136,2.966a3.5,3.5,0,0,1-1.566-6.823q3.207-.73,6.454-1.359h0l.387-.074h0q4.909-.941,9.892-1.642A3.526,3.526,0,0,1,174.946,1.957ZM203,0h2.133l.175,0h.156l.168,0h.159l.238,0h.089l.24,0h.164l.245,0c.028,0,.053,0,.08,0h0l.325.006h0l.407.009h0l.652.015h0q3.265.083,6.5.268h0l.077,0h0l.24.014h.005l.073,0h.008l.074,0h0l.158.009h.012l.064,0h.017l.062,0h.016l.071,0h0l.078,0h.012l.063,0,.074,0,.077,0,.026,0,.064,0,.028,0,.052,0,.075,0,.074,0,.072,0,.092.006h.012l.046,0,.025,0,.047,0,.024,0,.051,0h.014l.188.013h0l.062,0h.006l.061,0h.006q1.514.1,3.021.228a3.5,3.5,0,0,1-.578,6.976C213.987,7.228,208.467,7,203,7h0q-2.246,0-4.479.05a3.5,3.5,0,0,1-.169-7q1.5-.034,3.007-.046c.028,0,.054,0,.081,0h.08l.409,0H203Z" transform="translate(0 0)" fill="#fff"/>
</svg>
