<svg xmlns="http://www.w3.org/2000/svg" width="95" height="95" viewBox="0 0 95 95">
  <g id="Grupo_156168" data-name="Grupo 156168" transform="translate(-336 -3017)">
    <g id="Elipse_5098" data-name="Elipse 5098" transform="translate(336 3017)" fill="#fff" stroke="#5038a1" stroke-width="8">
      <circle cx="47.5" cy="47.5" r="47.5" stroke="none"/>
      <circle cx="47.5" cy="47.5" r="43.5" fill="none"/>
    </g>
    <g id="Hotel" transform="translate(329.356 3013.178)">
      <path id="Trazado_204853" data-name="Trazado 204853" d="M240,29.9H218.4a1.62,1.62,0,0,0-1.62,1.62v39.6a1.62,1.62,0,0,0,1.62,1.62h7.2V60.32h7.2V72.74H240a1.62,1.62,0,0,0,1.62-1.62v-39.6A1.62,1.62,0,0,0,240,29.9ZM225.063,55.416a2.7,2.7,0,1,1,2.7-2.7,2.7,2.7,0,0,1-2.7,2.7Zm0-7.6a2.7,2.7,0,1,1,2.7-2.7,2.7,2.7,0,0,1-2.7,2.7Zm0-7.6a2.7,2.7,0,1,1,2.7-2.7,2.7,2.7,0,0,1-2.7,2.7Zm8.279,15.209a2.7,2.7,0,1,1,2.7-2.7,2.7,2.7,0,0,1-2.7,2.7Zm0-7.6a2.7,2.7,0,1,1,2.7-2.7,2.7,2.7,0,0,1-2.7,2.7Zm0-7.6a2.7,2.7,0,1,1,2.7-2.7,2.7,2.7,0,0,1-2.7,2.7Z" transform="translate(-166.354 0)" fill="#5038a1"/>
      <path id="Trazado_204854" data-name="Trazado 204854" d="M46.6,345.648l-3.807-.505-1.7-3.149a1.01,1.01,0,0,0-1.734,0l-1.7,3.149-3.807.505a.865.865,0,0,0-.536,1.506l2.755,2.452-.65,3.462a.951.951,0,0,0,1.4.931l3.4-1.634,3.4,1.634a.951.951,0,0,0,1.4-.931l-.65-3.462,2.755-2.452A.865.865,0,0,0,46.6,345.648Z" transform="translate(0 -282.081)" fill="#5038a1"/>
      <path id="Trazado_204855" data-name="Trazado 204855" d="M46.6,193.648l-3.807-.505-1.7-3.149a1.01,1.01,0,0,0-1.734,0l-1.7,3.149-3.807.505a.865.865,0,0,0-.536,1.506l2.755,2.452-.65,3.462a.951.951,0,0,0,1.4.931l3.4-1.634,3.4,1.634a.951.951,0,0,0,1.4-.93l-.65-3.462,2.755-2.452A.865.865,0,0,0,46.6,193.648Z" transform="translate(0 -144.48)" fill="#5038a1"/>
      <path id="Trazado_204856" data-name="Trazado 204856" d="M46.6,41.648,42.8,41.143l-1.7-3.149a1.01,1.01,0,0,0-1.734,0l-1.7,3.149-3.807.505a.865.865,0,0,0-.536,1.506l2.755,2.452-.65,3.462a.951.951,0,0,0,1.4.931l3.4-1.634L43.631,50a.951.951,0,0,0,1.4-.931l-.65-3.462,2.755-2.452A.865.865,0,0,0,46.6,41.648Z" transform="translate(0 -6.879)" fill="#5038a1"/>
    </g>
  </g>
</svg>
