<svg xmlns="http://www.w3.org/2000/svg" width="364.157" height="1350.726" viewBox="0 0 364.157 1350.726">
  <g id="Grupo_161169" data-name="Grupo 161169" transform="translate(-986.445 -1598.975)">
    <g id="Grupo_161168" data-name="Grupo 161168">
      <g id="Grupo_161167" data-name="Grupo 161167">
        <path id="Trazado_206015" data-name="Trazado 206015" d="M44.917,346.394A10.967,10.967,0,0,1,34.209,357.6a11.222,11.222,0,0,1,0-22.421,10.967,10.967,0,0,1,10.709,11.21" transform="translate(970.612 2134.482)" fill="#ffb27d"/>
        <g id="Grupo_156265" data-name="Grupo 156265">
          <g id="Grupo_156260" data-name="Grupo 156260" transform="translate(-1470.261 11557.2)">
            <path id="Trazado_205886" data-name="Trazado 205886" d="M52.879,499.031S36.275,565.061,51,601.114c21.378,52.341,58.578,65.094,97.126,60.718,42.62-4.841,75.592-29.084,83.3-79.016,6.306-40.863-24.207-101.31-24.207-101.31Z" transform="translate(2465.495 -9446.565)" fill="#fedc72"/>
            <path id="Trazado_205887" data-name="Trazado 205887" d="M149.186,716.7S127.1,636.358,134.6,567.594c.644-5.913-31.921-2.185-29.966,3.4,23.458,67.061,18.031,149.56,18.031,149.56C105.527,738.385,71.645,752.8,71.645,752.8l137.8-15.646c-38.814-6-60.262-20.454-60.262-20.454" transform="translate(2490.813 -9360.298)" fill="#fedc72"/>
            <path id="Trazado_205888" data-name="Trazado 205888" d="M104.682,647.884a104.786,104.786,0,0,1-16.37,11.879l71.451-8.114a84.025,84.025,0,0,1-19.435-7.813s-4.649,3.677-16.993,5.079c-14.184,1.61-18.652-1.031-18.652-1.031" transform="translate(2506.596 -9278.022)" fill="#fff" opacity="0.5"/>
            <path id="Trazado_205889" data-name="Trazado 205889" d="M105.446,575.222s-1.567-5.116-5.72-4.645c-5.239.6-5.306,5.9-5.306,5.9,9.978,56.532,13.2,116.281,14.034,136.059,0,0,.43,4.15,6.339,3.479,5.15-.585,5.479-4.821,5.479-4.821-3.086-18.583-12.5-78.842-14.826-135.969" transform="translate(2512.381 -9354.118)" fill="#fff" opacity="0.5"/>
            <path id="Trazado_205890" data-name="Trazado 205890" d="M112.876,627.976c-22.19-18.683-36.557-46.155-39.629-75.807a117.947,117.947,0,0,1,11.629-64.413l-21.252,2.413s-16.6,66.028-1.879,102.081c20.815,50.961,65.139,49.393,55.591,39.279q-2.269-1.712-4.461-3.553" transform="translate(2475.671 -9440.077)" fill="#fff" opacity="0.5"/>
            <path id="Trazado_205891" data-name="Trazado 205891" d="M122.279,536.968c-.084,9.152,16.012-.3,16.762-16.634a87.773,87.773,0,0,0-6.867-38.032l-23.088,2.621c4.026,5.524,13.522,16.5,13.193,52.045" transform="translate(2526.27 -9445.74)" fill="#fff" opacity="0.5"/>
          </g>
          <g id="Grupo_156264" data-name="Grupo 156264" transform="matrix(0.996, -0.087, 0.087, 0.996, -696.188, 11745.812)">
            <rect id="Rectángulo_47120" data-name="Rectángulo 47120" width="63.01" height="149.419" transform="translate(2531.327 -8952.324)" fill="none"/>
            <rect id="Rectángulo_47121" data-name="Rectángulo 47121" width="30.04" height="58.242" transform="translate(2635.355 -8963.439)" fill="none"/>
            <path id="Trazado_205892" data-name="Trazado 205892" d="M139.412,202.723c-10.624,21.1-47.107,45.066-79.132,155-24.511,106.563,17.5,209.023,51.111,266.927,38.911,67.035,101.986,131.428,67.875,167.085-4.042,4.4-9.642,8.665-15.43,10.039-.469.112-.987,1.148-.38,1.425,13.035,5.277,24.98-10.189,30.776-20.609-8.948,25.207-43.553,39.186-65.256,22.912a49.818,49.818,0,0,1-20.629-24.522c-.411-1.09-1.556.214-1.6.86-.539,22.657,21.9,41.513,42.616,41.3-32.108,4.578-52.927-32.038-54.331-61.788-3.337-17.26,6.852-33.654,4.727-50.237-15.745-16.3-20.19,30.6-19.8,40.423-1.049,18.7,3.119,37.417,12.381,53.158-15.1-15.167-11.964-34.81-18.954-52.355-9.122-5.536-10.082,11.318-8.983,17.358,11.075,68.5,95.176,97.874,133.434,34.706,26.006-33.817,6.353-76.551-12.784-108.32-10.51-19.209-49.427-87.018-62.659-117.731-24.863-57.72-55.718-198.286,29.442-368.512M87.878,527.451C100.69,574.828,124.36,625.127,152.4,671.7c-40.455-63.352-73.3-139.414-74.1-195.978,1.252,16.06,4.667,33.778,9.577,51.733" transform="translate(2471.371 -9639.9)" fill="#ffb27d"/>
            <path id="Trazado_205893" data-name="Trazado 205893" d="M58.517,524.558c-.09-1.671.014.54,0,0" transform="translate(2478.345 -9402.526)" fill="#ba1425"/>
            <path id="Trazado_205894" data-name="Trazado 205894" d="M82.263,488.581a4.039,4.039,0,0,0-2.375-1.282.957.957,0,0,0-.2-.014c-.267,0-.794.037-1.061.063l-.062.006c-.035.006-.068.012-.1.02s-.068.022-.1.035c-.29.1-.79.283-1.071.406l-.053.022a8.219,8.219,0,0,0-1.194.819,1.793,1.793,0,0,0-.2.171,12.744,12.744,0,0,0-1.092,1.2,10.767,10.767,0,0,0-1.127,1.877A5.608,5.608,0,0,0,73,493.972a4.833,4.833,0,0,0-.056,1.971c.109.381.216.762.325,1.143a3.188,3.188,0,0,0,1.414,1.6,2.148,2.148,0,0,0,.551.344c.179.069.327.118.477.169.053.08.1.163.148.236.019.025.037.051.058.078a3.469,3.469,0,0,0,.878.715,3.157,3.157,0,0,0,1.09.355,2.893,2.893,0,0,0,1.19-.063,4.94,4.94,0,0,0,2.087-1.117,5.644,5.644,0,0,0,.864-.96c.251-.375.5-.8.724-1.2a2.05,2.05,0,0,0,.127-.265,10.065,10.065,0,0,0,.878-3.508,8.088,8.088,0,0,0-.475-3.253,2.759,2.759,0,0,0-.206-.418,6.874,6.874,0,0,0-.81-1.217" transform="translate(2491.97 -9440.566)" fill="#ffb27d"/>
            <path id="Trazado_205895" data-name="Trazado 205895" d="M74.105,480.22a2.363,2.363,0,0,0-1.532-.809c-.008,0-.117,0-.247.012a1.176,1.176,0,0,1-.171-.012l-.008,0-.925.055a3.09,3.09,0,0,0-1,.426,2.057,2.057,0,0,0-.352.228l-.018.012a5.476,5.476,0,0,0-.467.334c-.016.014-.031.03-.047.043l.014-.01-.029.033a3.931,3.931,0,0,0-.783.821c-.016.02-.633,1.042-.644,1.066l-.432,1.168-.189,1.158a4.586,4.586,0,0,0,.325,2.083l.012.029,0,0q.126.2.251.4c-.07-.114.167.281.255.408l.014.018.012.018a1.958,1.958,0,0,0,.728.577l.436.135a1.94,1.94,0,0,0,1.357.075,5.054,5.054,0,0,0,.991-.383c.045-.026.09-.053.134-.084.335-.22.666-.448.985-.691.031-.024.06-.049.09-.075a7.055,7.055,0,0,0,.79-.862,6.522,6.522,0,0,0,1.071-2.218,5.509,5.509,0,0,0,.14-2.222L74.592,481a2.61,2.61,0,0,0-.487-.781" transform="translate(2486.657 -9448.743)" fill="#ffb27d"/>
            <path id="Trazado_205896" data-name="Trazado 205896" d="M68.555,496.341l-.81-.249a2.978,2.978,0,0,0-1.725.381,3.594,3.594,0,0,0-1.2.987,4.38,4.38,0,0,0-.983,1.415,4.554,4.554,0,0,0-.5,1.671,3.912,3.912,0,0,0-.045,1.592l.263.925a2.576,2.576,0,0,0,1.143,1.288c.269.083.539.167.81.249a2.965,2.965,0,0,0,1.725-.381,3.611,3.611,0,0,0,1.2-.984,4.389,4.389,0,0,0,.983-1.417,4.556,4.556,0,0,0,.5-1.669,3.956,3.956,0,0,0,.045-1.594l-.263-.923a2.571,2.571,0,0,0-1.143-1.29" transform="translate(2482.843 -9431.432)" fill="#ffb27d"/>
            <path id="Trazado_205897" data-name="Trazado 205897" d="M76.436,499.351c-5.1,5.552-6.437,13.31-7.21,20.721a148.155,148.155,0,0,0-.872,25.305c1.238,18.053,6.68,35.58,17.344,49.942a79.311,79.311,0,0,0,8.869,10.036c2.732,2.613,5.907,5.607,9.622,6.412.753.163,1.5-1.347.905-1.877-2.529-2.248-5.4-3.991-7.872-6.341a58.014,58.014,0,0,1-7.147-8.471A80.289,80.289,0,0,1,79.458,573.6a139.48,139.48,0,0,1-5.738-26.381c-.987-7.913-.461-15.695-.01-23.619.456-7.976.765-16.115,3.415-23.7.158-.45-.317-.948-.689-.542" transform="translate(2487.478 -9428.193)" fill="#fedc72"/>
            <path id="Trazado_205898" data-name="Trazado 205898" d="M107.45,592.252c-6.7-4.454-13.119-8.636-18.477-14.861-4.574-5.316-8.785-11.007-12.842-16.761a84.071,84.071,0,0,1-10.1-18.962,64.118,64.118,0,0,1-2.843-9.908,60.528,60.528,0,0,1-1.517-11.029c0-.534-.609-.4-.685.043a44.934,44.934,0,0,0-.95,11.129A50.2,50.2,0,0,0,62,542.549a75.17,75.17,0,0,0,10.087,20.564c8.52,12.7,21.39,23.76,35.079,29.734.288.126.549-.422.286-.6" transform="translate(2479.757 -9406.198)" fill="#fedc72"/>
            <path id="Trazado_205899" data-name="Trazado 205899" d="M124.448,560a26.326,26.326,0,0,1-9.753-1.158,80.253,80.253,0,0,1-9.895-3.6,35.8,35.8,0,0,1-9.26-5.754c-1.388-1.2-2.78-2.4-4.171-3.606a42.492,42.492,0,0,0-4.515-3.025c-.306-.2-.59.434-.4.667,1.34,1.68,2.412,3.547,3.839,5.181a44.358,44.358,0,0,0,4.075,4.183,30.806,30.806,0,0,0,9.548,5.8c6.369,2.43,13.861,3.834,20.5,1.816.21-.063.335-.532.031-.5" transform="translate(2504.779 -9382.915)" fill="#fedc72"/>
            <path id="Trazado_205900" data-name="Trazado 205900" d="M88.713,513.647a6.46,6.46,0,0,0-4.614-.463,6.867,6.867,0,0,0-3.3,2.519c-.1.116-.193.226-.292.367-.249.351-.473.73-.685,1.1a13.645,13.645,0,0,0,.683,14.178,7.252,7.252,0,0,0,4.463,3.074c3.814.638,6.421-3.422,7.539-6.641a14.457,14.457,0,0,0-.251-10.55,7.2,7.2,0,0,0-3.542-3.587" transform="translate(2496.978 -9413.937)" fill="#ffb27d"/>
            <path id="Trazado_205901" data-name="Trazado 205901" d="M81.423,518.37h0l-.018.006h0l.018-.006" transform="translate(2500.052 -9408.291)" fill="#ffb27d"/>
            <path id="Trazado_205902" data-name="Trazado 205902" d="M87.618,525.3a.748.748,0,0,0-.335-.377.663.663,0,0,0-.432-.228.691.691,0,0,0-.489-.057,1.322,1.322,0,0,0-.759.206,1.081,1.081,0,0,0-.1.049l-.039.024-.012.008-.5.353a2.585,2.585,0,0,0-.639.8,2.851,2.851,0,0,0-.44.991c-.01.035-.019.071-.027.108a6.291,6.291,0,0,0-.119.76c.008.206.018.41.027.616.051.181.1.363.154.544.093.149.185.3.278.446a1.028,1.028,0,0,0,.635.389.711.711,0,0,0,.493.057.876.876,0,0,0,.51-.112,1.147,1.147,0,0,0,.5-.269c.049-.029.076-.082.121-.114l-.023.047a2.236,2.236,0,0,0,.4-.357,2.4,2.4,0,0,0,.333-.385,3.8,3.8,0,0,0,.631-1.317.944.944,0,0,1,.043-.145l.008-.022c.035-.216.07-.432.105-.646-.008-.2-.018-.408-.025-.609a1.5,1.5,0,0,0-.292-.762" transform="translate(2502.253 -9401.805)" fill="#ffb27d"/>
            <path id="Trazado_205903" data-name="Trazado 205903" d="M63.758,338.752c.2-.491-.391-.489-.555-.133-3.544,7.735-5.1,16.439-5.971,25.179a176.063,176.063,0,0,0-.894,29.671,259.482,259.482,0,0,0,4.128,32.292c2.1,10.719,11.886,38.97,10.023,31.018-3.183-13.573-3.974-21.333-5.672-31.983-1.655-10.385-3.191-20.7-4.023-31.206-.755-9.572-.97-19-.773-28.583.181-8.842.452-18.247,3.736-26.257" transform="translate(2476.039 -9595.185)" fill="#fedc72"/>
            <path id="Trazado_205904" data-name="Trazado 205904" d="M129.826,508.207c-1.98-3.267-4.276-6.3-6.373-9.486-2.3-3.483-5.177-7.385-6.188-11.549-.2-.811-1.1-.077-.993.532,1.26,7.073,4.41,12.753,8.026,18.789a185.994,185.994,0,0,1,10.934,21.017c6.082,13.9,9.585,28.4,8.477,43.776a45.33,45.33,0,0,1-2.591,12.435c-1.415,3.875-3.246,7.584-4.507,11.522-.31.968.755,1.09,1.158.353,3.491-6.392,6.776-13.451,8.259-20.686a67.336,67.336,0,0,0,.561-22.052c-2.017-15.872-8.621-31.218-16.764-44.65" transform="translate(2533.068 -9441.056)" fill="#fedc72"/>
            <path id="Trazado_205915" data-name="Trazado 205915" d="M52.755,366.328s-6.48,29.993,3.627,42.955c1.394,1.79.129,10.5-4.963,7.58-5.753-3.3-4.141-22.763-3.351-28.8,2.118-16.2,4.686-21.736,4.686-21.736" transform="translate(2467.704 -9566.152)" fill="#ffb27d"/>
            <path id="Trazado_205916" data-name="Trazado 205916" d="M72.761,299.206s-9.554,19.853-18.685,22.878,1.248,28.061,18.685-22.878" transform="translate(2470.967 -9635.843)" fill="#ffb27d"/>
            <path id="Trazado_205917" data-name="Trazado 205917" d="M77.8,394.79s12.4,18.045,21.873,19.537,2.959,27.92-21.873-19.537" transform="translate(2496.639 -9536.601)" fill="#ffb27d"/>
            <path id="Trazado_205918" data-name="Trazado 205918" d="M68.768,332.12s1.774,29.712-11.721,58.678C49,408.082,40.8,402.412,42.168,398.586c3.059-8.534,13.148-5.548,26.6-66.466" transform="translate(2462.755 -9601.669)" fill="#ffb27d"/>
            <path id="Trazado_205919" data-name="Trazado 205919" d="M72.86,388.21s2.13,29.685,19.285,56.446c10.237,15.966,17.617,9.174,15.759,5.581-4.145-8.016-13.75-3.61-35.044-62.027" transform="translate(2491.963 -9543.433)" fill="#ffb27d"/>
            <path id="Trazado_205920" data-name="Trazado 205920" d="M60.789,316.464s-5.454,6.111-4.038,10.515-13.532,3.9,4.038-10.515" transform="translate(2472.364 -9617.925)" fill="#ffb27d"/>
            <path id="Trazado_205921" data-name="Trazado 205921" d="M90.855,412.4s6.55,4.788,6.042,9.407,14.011.862-6.042-9.407" transform="translate(2509.005 -9518.312)" fill="#ffb27d"/>
          </g>
          <g id="Grupo_156263" data-name="Grupo 156263" transform="translate(987.431 1632.65) rotate(-6)">
            <path id="Trazado_205905" data-name="Trazado 205905" d="M5.568,342.039c4.359,8.346,15.654,29.983,11.009,40.219-.071.156-.152.331-.229.5l48.465,26.373.141-.292c4.118-8.652,25.631-13.647,35.263-14.446,25.293-2.1,46.168-28.687,55.3-47.073l123.8-249.542c10.517-21.184,1.721-28.076-7.365-35.991C247.482,40.473,203.05,16.938,171.826,4.38,154.474-2.6,147.282-4.027,134.581,21.551l-122.3,246.3C6.53,279.442-7.881,316.276,5.568,342.039" transform="translate(38.064 0)" fill="#5038a1"/>
            <path id="Trazado_205906" data-name="Trazado 205906" d="M54.624,0C44.578,21.536,0,109.886,0,109.886L47.623,135.8S91.966,49.37,103.071,26.364Z" transform="translate(0.262 381.883)" fill="#8c6df2"/>
            <path id="Trazado_205907" data-name="Trazado 205907" d="M35.507,0C17.494,36.1,0,70.913,0,70.913L47.622,96.827S65.253,62.179,83.5,26.114Z" transform="translate(0.264 420.858)" fill="#5038a1"/>
            <path id="Trazado_205908" data-name="Trazado 205908" d="M18.421,80.937a78.929,78.929,0,0,1,7.464-24.253,75.438,75.438,0,0,1,43.659-38.16L35.507,0C17.494,36.1,0,70.913,0,70.913Z" transform="translate(0.264 420.858)" fill="#b1a1e8"/>
            <rect id="Rectángulo_47122" data-name="Rectángulo 47122" width="69.544" height="80.937" transform="translate(0.264 420.858)" fill="none"/>
            <path id="Trazado_205909" data-name="Trazado 205909" d="M9,0C4.5,9.922-3.566,31.876,1.753,46.277,3.1,49.911,5.943,57.628,6.36,64.321L32.066,12.55Z" transform="translate(51.112 276.595)" fill="#fff" opacity="0.48"/>
            <rect id="Rectángulo_47123" data-name="Rectángulo 47123" width="32.066" height="64.321" transform="translate(51.112 276.595)" fill="none"/>
            <path id="Trazado_206024" data-name="Trazado 206024" d="M2.812,4.29,234.689,0l-2.812,148.071L0,152.361Z" transform="translate(55.018 266.26) rotate(-62.534)" fill="#8c6df2"/>
            <path id="Trazado_205910" data-name="Trazado 205910" d="M25.375,221.529C34.2,191.9,64.592,142.547,80.209,121.415c24.523-33.179,43.807-40.52,73.571-50.364,27.779-9.188,50.663-6.885,78.179,2.286l1.264-2.548L103.14,0,0,207.721Z" transform="translate(60.123 58.025)" fill="#b1a1e8"/>
            <rect id="Rectángulo_47125" data-name="Rectángulo 47125" width="233.223" height="221.529" transform="translate(60.122 58.025)" fill="none"/>
            <path id="Trazado_206025" data-name="Trazado 206025" d="M.222,2.27,122.917,0l-.222,11.714L0,13.983Z" transform="matrix(0.461, -0.887, 0.887, 0.461, 32.514, 509.622)" fill="#fff" opacity="0.48"/>
            <rect id="Rectángulo_47127" data-name="Rectángulo 47127" width="64.866" height="115.512" transform="translate(34.63 400.559)" fill="none"/>
            <path id="Trazado_205911" data-name="Trazado 205911" d="M0,109.891l10.6,5.769L65.176,5.747,54.616,0C44.489,21.493,0,109.891,0,109.891" transform="translate(0.264 381.881)" fill="#fff" opacity="0.48"/>
            <rect id="Rectángulo_47128" data-name="Rectángulo 47128" width="65.176" height="115.66" transform="translate(0.264 381.881)" fill="none"/>
            <path id="Trazado_205912" data-name="Trazado 205912" d="M8.5,1.82A3.159,3.159,0,0,1,12.852.381l54.595,29.71a3.454,3.454,0,0,1,1.375,4.554L60.686,51.033a3.158,3.158,0,0,1-4.352,1.439L1.74,22.764A3.459,3.459,0,0,1,.364,18.208Z" transform="translate(0 457.117)" fill="#8c6df2"/>
            <path id="Trazado_206026" data-name="Trazado 206026" d="M1.031.044,3.432,0,2.4,54.267,0,54.312Z" transform="matrix(0.461, -0.887, 0.887, 0.461, 3.682, 484.76)" fill="#b1a1e8"/>
            <rect id="Rectángulo_47130" data-name="Rectángulo 47130" width="48.743" height="28.094" transform="translate(4.196 481.717)" fill="none"/>
            <path id="Trazado_206027" data-name="Trazado 206027" d="M1.031.044,3.432,0,2.4,54.267,0,54.312Z" transform="matrix(0.461, -0.887, 0.887, 0.461, 16.099, 460.436)" fill="#b1a1e8"/>
            <rect id="Rectángulo_47132" data-name="Rectángulo 47132" width="48.743" height="28.094" transform="translate(16.612 457.392)" fill="none"/>
            <path id="Trazado_205913" data-name="Trazado 205913" d="M.5,3.516c4.41-8.882,36.891-.354,72.546,19.049S134.03,64.9,129.62,73.781s-36.891.353-72.547-19.049S-3.911,12.4.5,3.516" transform="translate(184.288 12.393)" fill="#5038a1"/>
            <path id="Trazado_205914" data-name="Trazado 205914" d="M0,316.071c18.214-6.037,35.186-30.343,43.4-46.878l115.047-231.7c9.895-19.927,4.609-31.35-1.449-37.442L156.94,0Z" transform="translate(141.071 65.709)" fill="#fff" opacity="0.48"/>
            <rect id="Rectángulo_47133" data-name="Rectángulo 47133" width="163.953" height="316.071" transform="translate(141.071 65.709)" fill="none"/>
          </g>
          <g id="Grupo_156262" data-name="Grupo 156262" transform="translate(-1589.739 11678.413)">
            <path id="Trazado_205954" data-name="Trazado 205954" d="M192.346,364.388a7.589,7.589,0,0,1,4.153-2.681,6.443,6.443,0,0,1,1.5-.148q18.944,38.58,37.887,77.162l-5.564,3q-18.985-38.666-37.974-77.331" transform="translate(2583.493 -9614.356)" fill="#5038a1"/>
            <path id="Trazado_205955" data-name="Trazado 205955" d="M222.614,409.844l1.629,10.473-7.194-7.475s.234-6.113,5.564-3" transform="translate(2596.762 -9585.479)" fill="#8c6df2"/>
            <path id="Trazado_205956" data-name="Trazado 205956" d="M218.84,379.355l-6.056-12.322L169.33,383.6l1.489,3.03c.061-.039.12-.08.183-.116,1.775-.956,4.178.233,5.369,2.655s.716,5.159-1.058,6.115c-.063.035-.131.061-.2.09l2.238,4.552c.015-.008.028-.023.043-.031a1.945,1.945,0,0,1,2.492,1.21,2.124,2.124,0,0,1-.507,2.826c-.015.008-.034.011-.049.019l8.233,16.749,48.73-5.833L226.3,394.539s-2.907,3.584-8.759-2.441,1.294-12.743,1.294-12.743" transform="translate(2571.13 -9611.021)" fill="#fedc72"/>
            <path id="Trazado_205957" data-name="Trazado 205957" d="M239.02,369.659c-1.014-2.065-1.007-4.185.018-4.737a1.274,1.274,0,0,1,.161-.068l-6.782-15.484L197.6,377.795l6.056,12.32c-4.322,2.283-3.506,8.587-3.506,8.587,3.661,10.729,10.972,6.6,10.972,6.6l9.993,20.331,27.058-40.293-5.637-12.867c-1.03.338-2.558-.863-3.515-2.811" transform="translate(2586.314 -9621.781)" fill="#fedc72"/>
            <path id="Trazado_205958" data-name="Trazado 205958" d="M169.33,394.363l38.373-26.9,39.9-18.092-34.819,28.425Z" transform="translate(2571.13 -9621.781)" fill="#ffdc87"/>
            <path id="Trazado_205959" data-name="Trazado 205959" d="M209.112,382.5c2.33,4.739,1.949,9.8-.852,11.313s-6.957-1.112-9.287-5.851-1.948-9.8.852-11.311,6.957,1.11,9.287,5.849" transform="translate(2586.233 -9605.423)" fill="#ffb27d"/>
            <path id="Trazado_205960" data-name="Trazado 205960" d="M217.744,373.005c1.474,3,1.456,6.086-.043,6.894s-3.909-.97-5.383-3.97-1.456-6.086.043-6.894,3.909.97,5.383,3.97" transform="translate(2593.633 -9609.919)" fill="#ffb27d"/>
            <path id="Trazado_205961" data-name="Trazado 205961" d="M220.36,358.435c1.054,2.147,1.122,4.311.149,4.836s-2.616-.792-3.671-2.938-1.122-4.311-.151-4.836,2.618.792,3.672,2.938" transform="translate(2596.199 -9618.119)" fill="#ffb27d"/>
            <path id="Trazado_205962" data-name="Trazado 205962" d="M229.043,378.371c-.077-.169-.155-.338-.24-.507-1.514-3.082-3.52-5.162-4.481-4.644s-.509,3.434,1.007,6.516a18.135,18.135,0,0,0,1.3,2.234Z" transform="translate(2600.398 -9607.3)" fill="#ffb27d"/>
            <path id="Trazado_205963" data-name="Trazado 205963" d="M215.946,385.021c.636,1.294.747,2.56.247,2.829s-1.42-.562-2.057-1.854-.745-2.56-.246-2.831,1.419.562,2.055,1.855" transform="translate(2594.897 -9601.224)" fill="#ffb27d"/>
            <path id="Trazado_205964" data-name="Trazado 205964" d="M219.729,373.736c.35.711.463,1.381.252,1.493s-.664-.372-1.013-1.083-.464-1.381-.254-1.493.664.372,1.014,1.083" transform="translate(2597.6 -9607.607)" fill="#ffb27d"/>
            <path id="Trazado_205965" data-name="Trazado 205965" d="M227.2,367.568c.638,1.3.729,2.578.2,2.861s-1.47-.537-2.107-1.836-.727-2.578-.2-2.861,1.468.539,2.106,1.836" transform="translate(2600.902 -9611.847)" fill="#ffb27d"/>
            <path id="Trazado_205966" data-name="Trazado 205966" d="M206.429,367.011c.433.88.581,1.7.332,1.838s-.8-.47-1.236-1.35-.583-1.7-.332-1.838.8.47,1.236,1.35" transform="translate(2590.328 -9611.868)" fill="#ffb27d"/>
            <path id="Trazado_205967" data-name="Trazado 205967" d="M206.944,371.831c.832,1.693.8,3.444-.065,3.91s-2.244-.525-3.077-2.217-.8-3.444.065-3.912,2.246.526,3.077,2.219" transform="translate(2589.321 -9609.521)" fill="#ffb27d"/>
            <path id="Trazado_205968" data-name="Trazado 205968" d="M219.856,366.54c.73,1.485.833,2.954.227,3.281s-1.686-.615-2.416-2.1-.833-2.954-.229-3.281,1.688.615,2.418,2.1" transform="translate(2596.759 -9612.641)" fill="#ffb27d"/>
            <path id="Trazado_205969" data-name="Trazado 205969" d="M208.11,359.5c.048.126.1.253.161.378.581,1.183,1.559,1.868,2.183,1.532s.659-1.567.078-2.75a4.224,4.224,0,0,0-.447-.713Z" transform="translate(2591.96 -9616.557)" fill="#ffb27d"/>
            <path id="Trazado_205970" data-name="Trazado 205970" d="M182.338,382.625c.832,1.693.772,3.46-.135,3.949s-2.316-.487-3.15-2.179-.77-3.461.137-3.951,2.316.488,3.148,2.18" transform="translate(2576.038 -9602.927)" fill="#ffb27d"/>
            <path id="Trazado_205971" data-name="Trazado 205971" d="M189.412,383.77c.426.867.324,1.81-.227,2.108s-1.345-.164-1.772-1.031-.323-1.81.229-2.108,1.345.164,1.771,1.031" transform="translate(2580.701 -9601.508)" fill="#ffb27d"/>
            <path id="Trazado_205972" data-name="Trazado 205972" d="M189.079,395.2c1.11,2.256,1.05,4.6-.134,5.24s-3.04-.674-4.15-2.932-1.05-4.6.134-5.24,3.04.676,4.15,2.932" transform="translate(2579.01 -9595.745)" fill="#ffb27d"/>
            <path id="Trazado_205973" data-name="Trazado 205973" d="M194.051,375.4c.975,1.981.9,4.052-.164,4.626s-2.718-.568-3.691-2.549-.9-4.053.164-4.626,2.716.568,3.691,2.549" transform="translate(2581.969 -9607.568)" fill="#ffb27d"/>
            <path id="Trazado_205974" data-name="Trazado 205974" d="M202.16,392.7c1.42,2.89,1.117,6.015-.676,6.982s-4.4-.592-5.821-3.482-1.117-6.015.676-6.982,4.4.592,5.821,3.482" transform="translate(2584.793 -9597.678)" fill="#ffb27d"/>
            <path id="Trazado_205975" data-name="Trazado 205975" d="M208.958,395.306c.518,1.054.575,2.1.126,2.346s-1.231-.417-1.751-1.471-.575-2.106-.126-2.348,1.233.418,1.751,1.472" transform="translate(2591.312 -9594.725)" fill="#ffb27d"/>
            <path id="Trazado_205976" data-name="Trazado 205976" d="M192.518,391.976c.318.648.226,1.365-.208,1.6s-1.044-.1-1.363-.752-.226-1.365.208-1.6,1.044.1,1.363.751" transform="translate(2582.64 -9596.329)" fill="#ffb27d"/>
            <path id="Trazado_205977" data-name="Trazado 205977" d="M197.953,371.929c.541,1.1.546,2.227.011,2.515s-1.408-.37-1.949-1.471-.546-2.227-.011-2.515,1.408.37,1.949,1.471" transform="translate(2585.244 -9608.976)" fill="#ffb27d"/>
            <path id="Trazado_205978" data-name="Trazado 205978" d="M195.483,364.588c.163.333-.887,1.239-2.346,2.026s-2.775,1.154-2.937.821.887-1.239,2.346-2.026,2.775-1.154,2.937-.821" transform="translate(2582.331 -9612.585)" fill="#ffb23d"/>
            <path id="Trazado_205979" data-name="Trazado 205979" d="M208.853,357.673c.354.721-1.692,2.562-4.571,4.111s-5.5,2.226-5.852,1.5,1.692-2.562,4.57-4.113,5.5-2.224,5.853-1.5" transform="translate(2586.739 -9616.898)" fill="#ffb27d"/>
            <path id="Trazado_205980" data-name="Trazado 205980" d="M198.87,365.792c.175.357-.564,1.123-1.652,1.711s-2.114.771-2.29.414.564-1.123,1.652-1.711,2.115-.771,2.29-.414" transform="translate(2584.865 -9611.888)" fill="#ffb27d"/>
            <path id="Trazado_205981" data-name="Trazado 205981" d="M185.989,369.545c.171.346-.987,1.324-2.584,2.185s-3.03,1.276-3.2.93.985-1.324,2.582-2.184,3.03-1.278,3.2-.932" transform="translate(2576.963 -9609.565)" fill="#ffb27d"/>
            <path id="Trazado_205982" data-name="Trazado 205982" d="M189.135,368.793c.06.122-.619.611-1.516,1.1s-1.672.776-1.732.655.618-.613,1.516-1.1,1.672-.777,1.732-.655" transform="translate(2580.021 -9609.966)" fill="#ffb23d"/>
            <path id="Trazado_205983" data-name="Trazado 205983" d="M209.83,355.841c.089.18-.3.573-.862.877s-1.1.406-1.184.225.3-.573.862-.877,1.094-.405,1.184-.225" transform="translate(2591.779 -9617.894)" fill="#ffb27d"/>
            <path id="Trazado_205984" data-name="Trazado 205984" d="M200.963,363c.1.209-.28.628-.853.937s-1.121.391-1.224.182.28-.628.853-.937,1.121-.391,1.224-.182" transform="translate(2586.997 -9613.548)" fill="#ffb27d"/>
            <path id="Trazado_205985" data-name="Trazado 205985" d="M214.754,353.106c.121.248-.409.787-1.184,1.2s-1.5.557-1.625.309.409-.785,1.184-1.2,1.5-.557,1.625-.309" transform="translate(2594.011 -9619.58)" fill="#ffb27d"/>
            <path id="Trazado_205986" data-name="Trazado 205986" d="M182.554,396.687c.543,1.1.509,2.256-.075,2.57s-1.5-.325-2.041-1.429-.509-2.256.075-2.57,1.5.325,2.041,1.429" transform="translate(2576.889 -9593.875)" fill="#ffb27d"/>
            <path id="Trazado_205987" data-name="Trazado 205987" d="M183.268,391.147c.5,1.027.5,2.084-.014,2.359s-1.339-.331-1.845-1.358-.5-2.084.014-2.361,1.34.333,1.845,1.36" transform="translate(2577.417 -9597.199)" fill="#ffb27d"/>
            <path id="Trazado_205988" data-name="Trazado 205988" d="M175.62,378.081a1.145,1.145,0,0,1-.246,1.519c-.435.233-1.027-.068-1.325-.673a1.145,1.145,0,0,1,.247-1.519c.434-.233,1.025.068,1.324.673" transform="translate(2573.575 -9604.749)" fill="#ffb27d"/>
            <path id="Trazado_205989" data-name="Trazado 205989" d="M215.915,336.771c-10.251-8.429-27.493-3.355-38.511,11.33s-11.638,33.425-1.386,41.853,27.495,3.355,38.511-11.33,11.638-33.425,1.386-41.854" transform="translate(2570.801 -9631.938)" fill="#a39a00"/>
            <path id="Trazado_205990" data-name="Trazado 205990" d="M192.3,362.622a10.294,10.294,0,0,1-4.149,13.553,9.408,9.408,0,0,1-12.946-4.342,10.294,10.294,0,0,1,4.149-13.554,9.409,9.409,0,0,1,12.946,4.343" transform="translate(2573.712 -9617.034)" fill="#a39a00"/>
            <path id="Trazado_205991" data-name="Trazado 205991" d="M189.711,363.263a8.188,8.188,0,0,1-3.3,10.78,7.484,7.484,0,0,1-10.3-3.453,8.19,8.19,0,0,1,3.3-10.782,7.484,7.484,0,0,1,10.3,3.455" transform="translate(2574.318 -9615.964)" fill="#3d3500"/>
            <path id="Trazado_205992" data-name="Trazado 205992" d="M181.869,343.37c-2.552-1.418-6.593,1.321-9.025,6.118s-2.333,9.834.22,11.252,6.591-1.321,9.023-6.117,2.333-9.835-.218-11.253" transform="translate(2572.072 -9625.663)" fill="#fff"/>
            <rect id="Rectángulo_47134" data-name="Rectángulo 47134" width="12.764" height="18.118" transform="translate(2743.156 -9282.668)" fill="none"/>
            <path id="Trazado_205993" data-name="Trazado 205993" d="M210.214,326.409c7.245,14.737,1.706,32.832-12.371,40.416s-31.362,1.785-38.607-12.952-1.706-32.831,12.371-40.415,31.362-1.786,38.607,12.951" transform="translate(2563.998 -9645.688)" fill="#8c6df2"/>
            <path id="Trazado_205994" data-name="Trazado 205994" d="M172.535,321.13a7.259,7.259,0,0,1-2.925,9.552,6.632,6.632,0,0,1-9.124-3.061,7.256,7.256,0,0,1,2.924-9.552,6.634,6.634,0,0,1,9.126,3.061" transform="translate(2565.975 -9641.329)" fill="#fff"/>
            <rect id="Rectángulo_47135" data-name="Rectángulo 47135" width="13.553" height="14.188" transform="translate(2725.708 -9324.049)" fill="none"/>
            <path id="Trazado_205995" data-name="Trazado 205995" d="M184.184,342.732a7.6,7.6,0,0,1-4.153,2.681,6.445,6.445,0,0,1-1.5.148q-18.944-38.58-37.887-77.162l5.564-3q18.985,38.666,37.973,77.331" transform="translate(2555.723 -9672.935)" fill="#5038a1"/>
            <path id="Trazado_205996" data-name="Trazado 205996" d="M141.215,271.23l-1.629-10.473,7.194,7.475s-.234,6.113-5.564,3" transform="translate(2555.153 -9675.764)" fill="#8c6df2"/>
          </g>
          <g id="Grupo_156261" data-name="Grupo 156261" transform="translate(-1579.74 11052.007)">
            <path id="Trazado_205922" data-name="Trazado 205922" d="M202.757,530.665a6.351,6.351,0,0,1,4.142.869,5.937,5.937,0,0,1,1.031.83q-9.753,36.136-19.51,72.272l-5.214-1.539q9.775-36.217,19.551-72.432" transform="translate(2593.292 -9410.422)" fill="#5038a1"/>
            <path id="Trazado_205923" data-name="Trazado 205923" d="M188.419,571.7l-4.872,7.639-.341-9.178s3.594-3.727,5.214,1.539" transform="translate(2593.292 -9377.483)" fill="#8c6df2"/>
            <path id="Trazado_205924" data-name="Trazado 205924" d="M211.919,553.373c27.756,12.78,62.3-5.726,60.034,1.675-1.927,6.306-10.665,17.421-24.887,23.478-25.554,10.88-63.584,4.313-77.85-22.295-10.379-19.358-.6-47.169.85-47.947,7.919-4.246,13.893,32.215,41.854,45.088" transform="translate(2578.747 -9429.94)" fill="#eee"/>
            <path id="Trazado_205925" data-name="Trazado 205925" d="M207.5,548.777c24.978,11.5,56.06-5.153,54.024,1.507-1.733,5.676-9.6,15.678-22.4,21.128-23,9.792-57.219,3.88-70.058-20.064-9.341-17.421-.542-42.446.764-43.146,7.126-3.822,12.5,28.988,37.664,40.574" transform="translate(2579.001 -9429.98)" fill="#f4f2f1"/>
            <path id="Trazado_205926" data-name="Trazado 205926" d="M199.455,540.413c19.919,9.172,44.707-4.109,43.084,1.2-1.383,4.526-7.654,12.5-17.861,16.848-18.339,7.81-45.631,3.1-55.87-16-7.448-13.893-.432-33.851.61-34.409,5.683-3.046,9.97,23.119,30.037,32.358" transform="translate(2579.466 -9430.055)" fill="#fff"/>
            <path id="Trazado_205927" data-name="Trazado 205927" d="M209.841,557.157c28.136,12.912,55.014,13.662,60.034,1.675s-13.717-32.176-41.854-45.088-55.014-13.662-60.034-1.675,13.717,32.176,41.854,45.088" transform="translate(2580.825 -9433.724)" fill="#ffe9db"/>
            <path id="Trazado_205928" data-name="Trazado 205928" d="M203.18,549.123c23.636,10.849,46.219,11.48,50.437,1.407S242.09,523.5,218.452,512.65s-46.219-11.479-50.437-1.407,11.527,27.031,35.165,37.879" transform="translate(2580.948 -9433.263)" fill="#fcefe9"/>
            <path id="Trazado_205929" data-name="Trazado 205929" d="M197.089,539.16c19.02,8.729,37.189,9.235,40.583,1.131s-9.273-21.75-28.293-30.479-37.189-9.235-40.583-1.131,9.273,21.75,28.293,30.479" transform="translate(2581.66 -9434.264)" fill="#faf4f1"/>
            <path id="Trazado_205930" data-name="Trazado 205930" d="M196.136,539.2c12.38,5.674,30.835,8,34.429.96,3.662-7.17-8.21-23.869-22.982-30.343-14.05-6.158-32.945-4.034-35.449,3.526-2.515,7.589,11.643,20.192,24,25.857" transform="translate(2584.455 -9431.425)" fill="#ffb27d"/>
            <path id="Trazado_205931" data-name="Trazado 205931" d="M194.045,533.539c10.047,4.6,25.02,6.489,27.937.78,2.972-5.819-6.662-19.37-18.648-24.623-11.4-5-26.734-3.273-28.766,2.862-2.041,6.158,9.448,16.385,19.476,20.981" transform="translate(2586.391 -9430.942)" fill="#fedc72"/>
            <path id="Trazado_205932" data-name="Trazado 205932" d="M301.1,534.173c-33.441,3.458-54.744-3.679-68.211-11.158-7.878-4.377-17.736-11.459-36.439-20.639-11.838-5.811-21.887-9.842-28.611-12.367a68.709,68.709,0,0,0,9.234,27.01c7.873,12.983,18,19.36,26.583,24.608,11.858,7.253,27.977,17.112,50.046,15.523,25.33-1.826,42.1-17.553,47.4-22.978" transform="translate(2581.339 -9445.377)" fill="#80ea00"/>
            <path id="Trazado_205933" data-name="Trazado 205933" d="M301.1,535.721s-38.75,10.8-74.654-14.972c0,0-33.325-19.742-58.607-29.191,0,0,21.023-13.512,66.961,13.783s66.3,30.38,66.3,30.38" transform="translate(2581.339 -9446.925)" fill="#8bfb1c"/>
            <path id="Trazado_205934" data-name="Trazado 205934" d="M188.487,499.168s20.792,16.124,27,36.815c0,0,.677-20.678-27-36.815" transform="translate(2597.398 -9437.493)" fill="#6ec900"/>
            <path id="Trazado_205935" data-name="Trazado 205935" d="M205.037,508.308s20.914,14.273,20.182,24.489c0,0,6.124-10.114-20.182-24.489" transform="translate(2610.266 -9429.625)" fill="#6ec900"/>
            <path id="Trazado_205936" data-name="Trazado 205936" d="M220.414,513.889s12.508,1.872,18.721,13.634c0,0-.569-12.295-18.721-13.634" transform="translate(2622.222 -9424.82)" fill="#6ec900"/>
            <path id="Trazado_205937" data-name="Trazado 205937" d="M167.833,490.01a59.832,59.832,0,0,0,47.424,6.012q-9.329-.611-19.338-1.747c-9.9-1.141-19.277-2.6-28.087-4.265" transform="translate(2581.338 -9445.377)" fill="#78db00"/>
            <path id="Trazado_205938" data-name="Trazado 205938" d="M167.833,490.01s31.423,17.788,47.277,49.973c0,0-11.632-39.2-47.277-49.973" transform="translate(2581.338 -9445.377)" fill="#6ec900"/>
            <path id="Trazado_205939" data-name="Trazado 205939" d="M188.487,499.592s13.253,6.766,30.481-.916c0,0-11.23,13.009-30.481.916" transform="translate(2597.398 -9437.917)" fill="#78db00"/>
            <path id="Trazado_205940" data-name="Trazado 205940" d="M205.037,510.8s17.606,3.32,22.809-5.387c0,0-.158,13.035-22.809,5.387" transform="translate(2610.266 -9432.117)" fill="#78db00"/>
            <path id="Trazado_205941" data-name="Trazado 205941" d="M220.414,517.621s13.065.268,16.917-8.067c0,0,3,10.289-16.917,8.067" transform="translate(2622.222 -9428.553)" fill="#78db00"/>
            <path id="Trazado_205942" data-name="Trazado 205942" d="M172.831,492.074c4.806.824,11.78,2.2,20.079,4.481,4.3,1.185,8.553,2.5,23.371,7.723,6.1,2.149,14.082,4.991,23.465,8.413a150.15,150.15,0,0,0-22.452-13.711c-11.364-5.623-20.177-9.857-31.836-9.323a45.623,45.623,0,0,0-12.628,2.417" transform="translate(2585.225 -9445.721)" fill="#d1fb91"/>
            <path id="Trazado_205943" data-name="Trazado 205943" d="M214.338,504.227s20.566,6.418,29.05,14.273Z" transform="translate(2617.497 -9433.139)" fill="#d1fb91"/>
            <path id="Trazado_205944" data-name="Trazado 205944" d="M189.994,514.79a47.428,47.428,0,0,1-12.818-11.973c-2.762-3.785-6.113-8.374-4.575-12.142a7.056,7.056,0,0,1,3.98-3.58l2.5-3.256a23.516,23.516,0,0,1,5.455-5.147l2.766-1.872c1.529-1.035,3.807-2.579,5.333-3.614l6.077-2.685a8.406,8.406,0,0,1,9.967-2.306c1.943.888,3.459,1.483,4.972,2.173a23.33,23.33,0,0,1,11.556,11.848c1.676,3.774,3.685,7.75,3.685,7.75Z" transform="translate(2584.744 -9464.794)" fill="#ffeae8"/>
            <path id="Trazado_205945" data-name="Trazado 205945" d="M256.968,503.52s-13.545,8.379-27.088-4.449-13.6-36.633-12.107-45.161c0,0,25.447,2.428,36.832,34.647Z" transform="translate(2619.668 -9476.453)" fill="#fedc72"/>
            <path id="Trazado_205946" data-name="Trazado 205946" d="M250.275,509.814s14.643-6.024,13.315-25.094-19.217-33.765-26.562-37.775c0,0-13.826,22.5,3.432,51.713Z" transform="translate(2631.065 -9482.449)" fill="#fedc72"/>
            <path id="Trazado_205947" data-name="Trazado 205947" d="M274.133,471.209c-1.4-5.009,5-8.15,7.787-3.824,9.583,14.853,17.281,35.5,6.008,55.539-21.049,37.423-75.316,38.281-104.823-6.314-.629-1.865-4.965-15.268,1.362-22.531,3.813-4.375,9.9-4.691,21.57-5.294a98.488,98.488,0,0,1,14.969.361s13.116,40.486,42.769,25.067c15.847-8.242,14.784-27.168,10.358-43" transform="translate(2591.632 -9466.614)" fill="#ffb27d"/>
            <path id="Trazado_205948" data-name="Trazado 205948" d="M189.225,512.585s-.174-27.168,14.053-21.411,20.516-3.679,20.516-3.679,2.243,11.132-14.108,12.358a23.123,23.123,0,0,1-10.269-1.918c-2.54-1.016-6.717.152-10.192,14.65" transform="translate(2597.971 -9447.542)" fill="#fedc72"/>
            <path id="Trazado_205949" data-name="Trazado 205949" d="M226.381,493.013s1.017,14.12-11.4,18.3-10.189,12.758-10.189,12.758-.492-5.454,9.252-7.963,23.129-16.534,12.334-23.1" transform="translate(2609.957 -9442.792)" fill="#fedc72"/>
            <path id="Trazado_205950" data-name="Trazado 205950" d="M227.6,492.925s14.29-4.621,10.688,7.574-1.406,18.2-1.406,18.2.277-7.228,3.432-11.82,7.357-24.031-12.715-13.958" transform="translate(2627.808 -9445.328)" fill="#fedc72"/>
            <path id="Trazado_205951" data-name="Trazado 205951" d="M251.494,500.984a6.4,6.4,0,0,1-3.331-2.077c-2.638-3.3.2-7.642-2.263-12.615-.219-.441-2.005-4.04-4.565-4.226-2.782-.2-6.012,3.655-7.492,9.928,0,0,1.612-15.006,8.968-15.073s4.289,19.991,8.683,24.063" transform="translate(2632.663 -9456.645)" fill="#fedc72"/>
            <path id="Trazado_205952" data-name="Trazado 205952" d="M209.115,525.629a6.353,6.353,0,0,1-4.142-.869,5.93,5.93,0,0,1-1.031-.83q9.753-36.136,19.51-72.272l5.213,1.539q-9.775,36.217-19.551,72.432" transform="translate(2609.414 -9478.393)" fill="#5038a1"/>
            <path id="Trazado_205953" data-name="Trazado 205953" d="M214.918,455.192l4.872-7.639.341,9.178s-3.594,3.727-5.213-1.539" transform="translate(2617.948 -9481.926)" fill="#8c6df2"/>
          </g>
          <g id="Grupo_156257" data-name="Grupo 156257" transform="translate(-1413.548 10733.479)">
            <path id="Trazado_206005" data-name="Trazado 206005" d="M18.583,480.753A34.345,34.345,0,0,1,7.1,474.73c-2.7-2.169-5.971-4.8-5.565-7.831a5.439,5.439,0,0,1,2.206-3.4l1.2-2.864a18.185,18.185,0,0,1,2.979-4.829l1.647-1.916,3.176-3.7,3.886-3.18a6.417,6.417,0,0,1,6.764-3.7c1.567.245,2.774.365,3.993.554a16.865,16.865,0,0,1,10.549,6.192c1.914,2.383,4.1,4.841,4.1,4.841Z" transform="translate(2424.385 -9486.293)" fill="#ffeae8"/>
            <path id="Trazado_206006" data-name="Trazado 206006" d="M64.112,457.588s-8.216,8.816-20.381,2.32-16.645-23.664-17.153-30.126c0,0,18.82-3.443,33.041,17.488Z" transform="translate(2448.134 -9500.488)" fill="#fedc72"/>
            <path id="Trazado_206007" data-name="Trazado 206007" d="M58.41,464.688s9.447-7.338,4.936-20.831-20.163-20.448-26.211-21.842c0,0-5.788,19.06,12.112,36.626Z" transform="translate(2457.286 -9508.334)" fill="#fedc72"/>
            <path id="Trazado_206008" data-name="Trazado 206008" d="M69.559,439.106c-1.943-3.331,2.087-6.9,4.908-4.352,9.684,8.767,19.088,22.095,14.686,38.862-8.222,31.312-47.23,43.014-76.839,16.85-.8-1.219-6.427-10.008-3.215-16.543,1.935-3.936,6.271-5.408,14.581-8.226A74.264,74.264,0,0,1,34.554,462.9s17.013,26.544,35.543,9.36c9.9-9.186,5.607-22.629-.537-33.157" transform="translate(2430.653 -9496.007)" fill="#ffb27d"/>
            <path id="Trazado_206009" data-name="Trazado 206009" d="M16.909,478.547s-5.189-19.576,6.154-18.324,14.124-6.844,14.124-6.844,3.693,7.574-7.881,11.8a17.255,17.255,0,0,1-7.771.711c-2.023-.214-4.819,1.482-4.626,12.656" transform="translate(2437.856 -9475.771)" fill="#fedc72"/>
            <path id="Trazado_206010" data-name="Trazado 206010" d="M38.2,455.554s3.364,9.983-4.815,15.538-4.978,11.29-4.978,11.29-1.371-3.836,5.195-7.635,13.613-16.659,4.6-19.192" transform="translate(2449.277 -9473.511)" fill="#fedc72"/>
            <path id="Trazado_206011" data-name="Trazado 206011" d="M39.951,454.854s9.453-6.253,9.126,3.284,2.377,13.428,2.377,13.428-1.147-5.275.276-9.233.831-18.848-11.779-7.478" transform="translate(2460.798 -9478.598)" fill="#fedc72"/>
            <path id="Trazado_206012" data-name="Trazado 206012" d="M57.426,456.681a4.652,4.652,0,0,1-2.794-.819c-2.517-1.839-1.275-5.556-3.984-8.642-.239-.275-2.2-2.507-4.083-2.118-2.044.422-3.656,3.865-3.557,8.7,0,0-1.63-11.162,3.664-12.711s6.82,13.553,10.753,15.595" transform="translate(2463.469 -9488.648)" fill="#fedc72"/>
          </g>
          <g id="Grupo_156258" data-name="Grupo 156258" transform="matrix(0.391, 0.921, -0.921, 0.391, -8569.339, 4246.633)">
            <path id="Trazado_205997" data-name="Trazado 205997" d="M71,257.744c-5.266-11.925-22.275-15.529-38-8.05S8.807,272.9,14.071,284.83s22.277,15.528,38,8.049,24.2-23.209,18.93-35.134" transform="translate(2434.81 -9691.298)" fill="#a39a00"/>
            <path id="Trazado_205999" data-name="Trazado 205999" d="M32.893,271.928a8.563,8.563,0,0,1-8.361,8.753,8.762,8.762,0,0,1,0-17.505,8.563,8.563,0,0,1,8.361,8.753" transform="translate(2438.041 -9681.443)" fill="#3d3500"/>
            <path id="Trazado_206000" data-name="Trazado 206000" d="M36.55,252.182c-1.8-2.715-7.04-2.169-11.7,1.221s-6.968,8.339-5.164,11.054,7.04,2.169,11.7-1.221,6.968-8.339,5.165-11.054" transform="translate(2438.69 -9688.299)" fill="#fff"/>
          </g>
          <g id="Grupo_156259" data-name="Grupo 156259" transform="matrix(0.087, 0.996, -0.996, 0.087, 1033.759, 1974)">
            <path id="Trazado_206001" data-name="Trazado 206001" d="M118.6,436.684c-6.1-9.78-.682-24.792,12.1-33.53s28.092-7.894,34.191,1.884.682,24.792-12.1,33.53-28.091,7.9-34.191-1.884" transform="translate(-116.091 -397.114)" fill="#a39a00"/>
            <path id="Trazado_206002" data-name="Trazado 206002" d="M120.911,418.352a8.015,8.015,0,0,0,11.349-2.691,8.855,8.855,0,0,0-2.572-11.881,8.014,8.014,0,0,0-11.349,2.691,8.856,8.856,0,0,0,2.572,11.881" transform="translate(-83.668 -394.221)" fill="#a39a00"/>
            <path id="Trazado_206003" data-name="Trazado 206003" d="M120.831,416.142A6.375,6.375,0,0,0,129.858,414a7.044,7.044,0,0,0-2.046-9.45,6.373,6.373,0,0,0-9.026,2.141,7.042,7.042,0,0,0,2.045,9.45" transform="translate(-82.045 -393.655)" fill="#3d3500"/>
            <path id="Trazado_206004" data-name="Trazado 206004" d="M130.143,408.864c-.965-2.384,1.567-5.786,5.655-7.6s8.185-1.349,9.149,1.035-1.567,5.786-5.657,7.6-8.183,1.349-9.148-1.035" transform="translate(-114.246 -395.463)" fill="#fff"/>
          </g>
          <path id="Trazado_206013" data-name="Trazado 206013" d="M18.5,424.411c-10.2,0-18.5-8.687-18.5-19.364s8.3-19.364,18.5-19.364,18.5,8.687,18.5,19.364-8.3,19.364-18.5,19.364m0-32.612c-6.978,0-12.656,5.944-12.656,13.249S11.518,418.3,18.5,418.3s12.656-5.944,12.656-13.249S25.475,391.8,18.5,391.8" transform="translate(1020 2144.067)" fill="#8c6df2"/>
          <path id="Trazado_206018" data-name="Trazado 206018" d="M77.917,596.394a10.72,10.72,0,1,1-10.709-11.21,10.967,10.967,0,0,1,10.709,11.21" transform="translate(972.32 2308.865)" fill="#ffb27d"/>
          <path id="Trazado_206023" data-name="Trazado 206023" d="M124,371.911c-10.2,0-18.5-8.687-18.5-19.364s8.3-19.364,18.5-19.364,18.5,8.687,18.5,19.364-8.3,19.364-18.5,19.364m0-32.612c-6.978,0-12.656,5.944-12.656,13.249S117.019,365.8,124,365.8s12.656-5.944,12.656-13.249S130.975,339.3,124,339.3" transform="translate(995.029 1850.469)" fill="#8c6df2"/>
          <path id="Trazado_206022" data-name="Trazado 206022" d="M71,252.911c-10.2,0-18.5-8.687-18.5-19.364s8.3-19.364,18.5-19.364,18.5,8.687,18.5,19.364-8.3,19.364-18.5,19.364M71,220.3c-6.978,0-12.656,5.944-12.656,13.249S64.018,246.8,71,246.8s12.656-5.944,12.656-13.249S77.975,220.3,71,220.3" transform="translate(1141.837 2578.277)" fill="#8c6df2"/>
          <path id="Trazado_206014" data-name="Trazado 206014" d="M234,203.911c-10.2,0-18.5-8.687-18.5-19.364s8.3-19.364,18.5-19.364,18.5,8.687,18.5,19.364-8.3,19.364-18.5,19.364m0-32.612c-6.978,0-12.656,5.944-12.656,13.249S227.018,197.8,234,197.8s12.656-5.944,12.656-13.249S240.975,171.3,234,171.3" transform="translate(1059.2 1689.106)" fill="#8c6df2"/>
          <path id="Trazado_206020" data-name="Trazado 206020" d="M49.917,195.395a10.967,10.967,0,0,1-10.709,11.211,11.222,11.222,0,0,1,0-22.421,10.967,10.967,0,0,1,10.709,11.211" transform="translate(1219.704 1756.273)" fill="#ffb27d"/>
          <path id="Trazado_206021" data-name="Trazado 206021" d="M150,639.911c-10.2,0-18.5-8.687-18.5-19.364s8.3-19.364,18.5-19.364,18.5,8.687,18.5,19.364-8.3,19.364-18.5,19.364m0-32.612c-6.978,0-12.656,5.944-12.656,13.249S143.018,633.8,150,633.8s12.656-5.944,12.656-13.249S156.975,607.3,150,607.3" transform="translate(896.022 1173.717)" fill="#8c6df2"/>
          <path id="Trazado_206019" data-name="Trazado 206019" d="M162.917,465.394a10.72,10.72,0,1,1-10.709-11.211,10.967,10.967,0,0,1,10.709,11.211" transform="translate(892.121 1418.856)" fill="#ffb27d"/>
          <path id="Trazado_206017" data-name="Trazado 206017" d="M235.917,302.394a10.72,10.72,0,1,1-10.709-11.211,10.967,10.967,0,0,1,10.709,11.211" transform="translate(1005.776 2004.444)" fill="#ffb27d"/>
          <path id="Trazado_206016" data-name="Trazado 206016" d="M206.917,244.394a10.72,10.72,0,1,1-10.709-11.21,10.967,10.967,0,0,1,10.709,11.21" transform="translate(1076.789 2323.271)" fill="#ffb27d"/>
        </g>
      </g>
    </g>
  </g>
</svg>
