<svg xmlns="http://www.w3.org/2000/svg" xmlns:xlink="http://www.w3.org/1999/xlink" width="109" height="109" viewBox="0 0 109 109">
  <defs>
    <clipPath id="clip-path">
      <rect id="Rect치ngulo_47113" data-name="Rect치ngulo 47113" width="57.845" height="51.84" transform="translate(0 0)" fill="#fff"/>
    </clipPath>
  </defs>
  <g id="Grupo_155570" data-name="Grupo 155570" transform="translate(-260.667 -1089)">
    <circle id="Elipse_4744" data-name="Elipse 4744" cx="54.5" cy="54.5" r="54.5" transform="translate(260.667 1089)" fill="#5038a1"/>
    <g id="Capa_1-2" transform="translate(267.58 1096)">
      <g id="Grupo_130816" data-name="Grupo 130816">
        <rect id="Rect치ngulo_41197" data-name="Rect치ngulo 41197" width="95" height="95" rx="47.5" transform="translate(0.087)" fill="none"/>
        <g id="Grupo_156248" data-name="Grupo 156248" transform="translate(19.087 21.58)">
          <g id="Grupo_156247" data-name="Grupo 156247" transform="translate(0 0)" clip-path="url(#clip-path)">
            <path id="Trazado_205864" data-name="Trazado 205864" d="M24.316,70.8a28.1,28.1,0,0,0-14.1,3.106c-2.232,1.227-4.64,2.138-6.985,3.155-1.6.7-2.636.513-2.977-1.571A20.324,20.324,0,0,1,2.848,62.019,33.936,33.936,0,0,1,15.684,49.458C23.03,45.141,30.4,46.3,37,51.3a48.033,48.033,0,0,1,8.2,8.2A20.058,20.058,0,0,1,49.383,75.41c-.3,2.19-.833,2.512-2.968,1.619a72.928,72.928,0,0,1-6.986-3.15c-4.583-2.511-9.518-3.109-15.113-3.079M15.241,53.577c1.556,3.265,3.071,6.448,4.588,9.63,2.118,4.443,2.12,4.462,6.995,4.079a1.946,1.946,0,0,0,1.411-.751c2.118-4.3,4.151-8.634,6.19-12.921-5.757-4.456-13.027-4.489-19.184-.037m21.622,2.711-5.513,11.5c5.079,1.261,8.738-1.99,12.971-2.9a15.747,15.747,0,0,0-7.458-8.6m-18.5,11.5L12.7,56.09A20.3,20.3,0,0,0,5.08,64.95c4.584.659,8.134,4.188,13.284,2.837M3.088,73.543l7.394-3.353L3.844,67.781c-.252,1.923-.467,3.562-.756,5.761m36.084-3.337,7.411,3.281-.734-5.7-6.677,2.415" transform="translate(0 -25.653)" fill="#fff"/>
            <path id="Trazado_205865" data-name="Trazado 205865" d="M67.562,48.46l-2.328-2.539a26.646,26.646,0,0,0,4.516-12.885h-28.7c.055.866.105,1.651.165,2.6l-3.1.831c-.275-2.3-.528-4.417-.807-6.744H73.159c.1.519.206,1.078.332,1.734.532.047,1.043.1,1.555.134,2.345.159,3.186,1.013,3.226,3.385q.051,2.931,0,5.863a2.824,2.824,0,0,1-2.917,3.047,1.835,1.835,0,0,1-.45.006c-3.207-.548-5.674.314-6.883,3.594-.105.286-.258.554-.455.973M73,34.868c-.466,2.011-.874,3.774-1.339,5.783l3.273-.174V35.007L73,34.868" transform="translate(-20.451 -16.294)" fill="#fff"/>
            <path id="Trazado_205866" data-name="Trazado 205866" d="M56.565,0,53.5,11.437h3.566C58.1,7.451,59.072,3.718,60.039,0Z" transform="translate(-29.325 0)" fill="#fff"/>
            <path id="Trazado_205867" data-name="Trazado 205867" d="M72.286,0s-2.447,9.352-2.832,11.447H73.02L76.005,0Z" transform="translate(-38.073 0)" fill="#fff"/>
            <path id="Trazado_205868" data-name="Trazado 205868" d="M88.587,0,85.513,11.443h3.522L92.016,0Z" transform="translate(-46.876 0)" fill="#fff"/>
          </g>
        </g>
      </g>
    </g>
  </g>
</svg>
