<svg xmlns="http://www.w3.org/2000/svg" width="95" height="95" viewBox="0 0 95 95">
  <g id="Grupo_131765" data-name="Grupo 131765" transform="translate(-0.007 0)">
    <g id="Elipse_5098" data-name="Elipse 5098" transform="translate(0.007 0)" fill="#fff" stroke="#5038a1" stroke-width="8">
      <circle cx="47.5" cy="47.5" r="47.5" stroke="none"/>
      <circle cx="47.5" cy="47.5" r="43.5" fill="none"/>
    </g>
    <g id="Layer_x0020_1" transform="translate(-0.413 -0.42)">
      <path id="Trazado_205207" data-name="Trazado 205207" d="M47.92,41.209a2.311,2.311,0,0,1,2.307,2.3,2.1,2.1,0,0,0,4.2,0,6.5,6.5,0,0,0-4.409-6.129V36.195a2.1,2.1,0,1,0-4.2,0v1.191a6.49,6.49,0,0,0,2.1,12.635,2.307,2.307,0,1,1-2.3,2.307,2.1,2.1,0,1,0-4.2,0,6.491,6.491,0,0,0,4.4,6.126v1.191a2.1,2.1,0,1,0,4.2,0V58.454a6.487,6.487,0,0,0-2.1-12.633,2.306,2.306,0,0,1,0-4.612ZM65.514,59.582a2.1,2.1,0,0,0,2.837-.873,23.093,23.093,0,1,0-9.793,9.719,2.1,2.1,0,1,0-1.94-3.726,18.613,18.613,0,0,1-8.7,2.12A18.89,18.89,0,1,1,64.641,56.742a2.1,2.1,0,0,0,.873,2.839ZM47.92,16.42a31.392,31.392,0,0,0-17.078,5.03,2.1,2.1,0,1,0,2.281,3.527A27.3,27.3,0,1,1,24.9,33.242a2.1,2.1,0,0,0-3.538-2.265A31.5,31.5,0,1,0,47.92,16.42Z" fill="#5038a1"/>
    </g>
  </g>
</svg>
