<svg xmlns="http://www.w3.org/2000/svg" xmlns:xlink="http://www.w3.org/1999/xlink" width="109" height="109" viewBox="0 0 109 109">
  <defs>
    <clipPath id="clip-path">
      <rect id="Rect치ngulo_47114" data-name="Rect치ngulo 47114" width="77" height="45.541" fill="#fff"/>
    </clipPath>
  </defs>
  <g id="Grupo_155571" data-name="Grupo 155571" transform="translate(-260.667 -1264)">
    <circle id="Elipse_4745" data-name="Elipse 4745" cx="54.5" cy="54.5" r="54.5" transform="translate(260.667 1264)" fill="#8c6df2"/>
    <g id="Capa_1-2" transform="translate(267.667 1271)">
      <g id="Grupo_130811" data-name="Grupo 130811">
        <rect id="Rect치ngulo_41194" data-name="Rect치ngulo 41194" width="95" height="95" rx="47.5" fill="none"/>
        <g id="Grupo_156250" data-name="Grupo 156250" transform="translate(9 24.729)">
          <g id="Grupo_156249" data-name="Grupo 156249" transform="translate(0 0)" clip-path="url(#clip-path)">
            <path id="Trazado_205869" data-name="Trazado 205869" d="M76.458,31.749,65.13,21.883l9.347-1.915a1.578,1.578,0,0,0,.737-2.72L56.442.4A1.576,1.576,0,0,0,55.071.032L1.261,11.057a1.578,1.578,0,0,0-.737,2.72l10.442,9.369q-.058.446-.071.866L2.551,25.568a1.578,1.578,0,0,0-.765,2.725L20.559,45.137a1.574,1.574,0,0,0,1.054.4,1.543,1.543,0,0,0,.317-.032L75.739,34.485a1.578,1.578,0,0,0,.72-2.736M61.481,24.961c-1.02,1.723-3.815,2.322-5.009,2.578-6.744,1.445-22.958,4.941-30.258,6.515a6.229,6.229,0,0,1-5.317-1.3c-1.845-1.531-3.23-2.75-4-3.524a13.026,13.026,0,0,1-2.3-2.828l4.7,4.22a1.576,1.576,0,0,0,1.054.4,1.542,1.542,0,0,0,.317-.032l41.2-8.441a3.733,3.733,0,0,1-.384,2.41M54.926,3.283,70.775,17.505,20.813,27.742,4.963,13.52ZM22.075,42.258,6.278,28.083l5.162-.962a13.649,13.649,0,0,0,3.223,4.339c.853.853,2.273,2.106,4.22,3.721a9.364,9.364,0,0,0,5.993,2.172,9.49,9.49,0,0,0,2-.214c7.3-1.575,23.512-5.07,30.255-6.515,1.6-.342,5.341-1.144,7.063-4.057a6.15,6.15,0,0,0,.439-.93l7.344,6.4Z" transform="translate(0 0)" fill="#fff"/>
            <path id="Trazado_205870" data-name="Trazado 205870" d="M25.67,20.491a1.84,1.84,0,0,0-1.5,2.078,1.84,1.84,0,0,0,2.379.952,1.84,1.84,0,0,0,1.5-2.078,1.84,1.84,0,0,0-2.379-.952" transform="translate(-8.897 -7.52)" fill="#fff"/>
            <path id="Trazado_205871" data-name="Trazado 205871" d="M95.549,25.521a1.84,1.84,0,0,0,1.5-2.078,2.081,2.081,0,0,0-3.879,1.126,1.84,1.84,0,0,0,2.379.952" transform="translate(-34.348 -8.258)" fill="#fff"/>
            <path id="Trazado_205872" data-name="Trazado 205872" d="M41.549,34.521a1.84,1.84,0,0,0,1.5-2.078,2.081,2.081,0,0,0-3.879,1.126,1.84,1.84,0,0,0,2.379.952" transform="translate(-14.43 -11.578)" fill="#fff"/>
            <path id="Trazado_205873" data-name="Trazado 205873" d="M49.549,25.521a1.84,1.84,0,0,0,1.5-2.078,2.081,2.081,0,0,0-3.879,1.126,1.84,1.84,0,0,0,2.379.952" transform="translate(-17.38 -8.258)" fill="#fff"/>
            <path id="Trazado_205874" data-name="Trazado 205874" d="M56.549,17.521a1.84,1.84,0,0,0,1.5-2.078,2.081,2.081,0,0,0-3.879,1.126,1.84,1.84,0,0,0,2.379.952" transform="translate(-19.962 -5.307)" fill="#fff"/>
            <path id="Trazado_205875" data-name="Trazado 205875" d="M66.549,29.521a1.84,1.84,0,0,0,1.5-2.078,2.081,2.081,0,0,0-3.879,1.126,1.84,1.84,0,0,0,2.379.952" transform="translate(-23.651 -9.734)" fill="#fff"/>
            <path id="Trazado_205876" data-name="Trazado 205876" d="M74.549,20.521a1.84,1.84,0,0,0,1.5-2.078,2.081,2.081,0,0,0-3.879,1.126,1.84,1.84,0,0,0,2.379.952" transform="translate(-26.602 -6.414)" fill="#fff"/>
            <path id="Trazado_205877" data-name="Trazado 205877" d="M81.549,12.521a1.84,1.84,0,0,0,1.5-2.078,2.081,2.081,0,0,0-3.879,1.126,1.84,1.84,0,0,0,2.379.952" transform="translate(-29.184 -3.463)" fill="#fff"/>
          </g>
        </g>
      </g>
    </g>
  </g>
</svg>
