<svg xmlns="http://www.w3.org/2000/svg" xmlns:xlink="http://www.w3.org/1999/xlink" width="610" height="219.382" viewBox="0 0 610 219.382">
  <defs>
    <clipPath id="clip-path">
      <rect id="Rectángulo_47111" data-name="Rectángulo 47111" width="292.868" height="199.712" fill="none"/>
    </clipPath>
  </defs>
  <g id="Grupo_155457" data-name="Grupo 155457" transform="translate(-915 -412)">
    <g id="Grupo_130790" data-name="Grupo 130790" transform="translate(915 412)">
      <g id="Grupo_130789" data-name="Grupo 130789" transform="translate(0 0)">
        <g id="Grupo_80729" data-name="Grupo 80729" transform="translate(17.787 8.124)">
          <ellipse id="Elipse_4784" data-name="Elipse 4784" cx="232.276" cy="100.938" rx="232.276" ry="100.938" transform="translate(0 0)" fill="#8c6df2" opacity="0.25"/>
        </g>
        <path id="Trazado_115813" data-name="Trazado 115813" d="M498.234,42.72a315.862,315.862,0,0,1-30.085,21.4,259.336,259.336,0,0,1-33.973,17.844,211.818,211.818,0,0,1-38.626,12.6,161.393,161.393,0,0,1-21.306,3.209c-1.837.121-3.673.275-5.536.319-.929.03-1.858.074-2.793.09L363.1,98.2c-1.888.014-3.706-.047-5.572-.073-1.843-.086-3.7-.143-5.545-.28a196.223,196.223,0,0,1-42.5-8.068c-13.394-3.954-25.919-8.725-37.969-13.293-6.021-2.294-11.949-4.524-17.781-6.6-2.92-1.049-5.808-2.03-8.684-2.991-1.433-.46-2.866-.939-4.289-1.375l-4.41-1.36c-12.281-3.776-24.283-7.292-36.1-10.1-5.9-1.4-11.75-2.632-17.5-3.618q-4.31-.74-8.535-1.295-4.225-.534-8.329-.852c-10.939-.87-21.056-.428-29.459,1.354-2.1.445-4.107.973-6.018,1.57-.958.294-1.885.621-2.8.95l-1.345.516c-.4.175-.81.336-1.206.52a42.689,42.689,0,0,0-8.726,5.15c-.645.5-1.276,1.012-1.875,1.546l-2.33,1.99c-.805.686-1.525,1.4-2.294,2.089-.74.7-1.415,1.42-2.13,2.114a52.96,52.96,0,0,0-6.808,8.662,41.236,41.236,0,0,0-4.253,8.9,37.865,37.865,0,0,0-1.909,9.234,53.412,53.412,0,0,0,2.327,19.815,88.781,88.781,0,0,0,9.652,20.876,106.437,106.437,0,0,0,7.088,10.147c1.282,1.631,2.61,3.224,3.941,4.723.664.744,1.339,1.463,1.986,2.114.322.323.643.638.929.893a5.04,5.04,0,0,0,.4.334c.05.03.121.093.142.084l.024,0s.03.023-.007-.037l-.141-.242c15.84,20.853,6.433,47.515-21.011,59.551S37.536,216.043,21.7,195.19l-.45-.656-.287-.449-.46-.751-.786-1.346c-.5-.866-.939-1.682-1.37-2.492-.859-1.615-1.642-3.181-2.4-4.735-1.5-3.1-2.859-6.16-4.118-9.227a172.633,172.633,0,0,1-6.371-18.547A139.985,139.985,0,0,1,0,118.133a107.331,107.331,0,0,1,8.01-40.739A106.353,106.353,0,0,1,18.724,57.749,114.007,114.007,0,0,1,33.882,40.037,136.755,136.755,0,0,1,52.458,25.158c1.672-1.083,3.327-2.185,5.02-3.226,1.708-1.018,3.4-2.066,5.125-3.035l2.6-1.44c.885-.486,1.67-.927,2.73-1.485,2-1.067,4.044-2.077,6.124-3.045a135,135,0,0,1,26.59-9.111c1.162-.276,2.34-.519,3.512-.766,1.15-.226,2.284-.443,3.427-.65,2.288-.4,4.578-.763,6.872-1.057,4.584-.6,9.165-.995,13.69-1.192a173.62,173.62,0,0,1,26.251.9,203.342,203.342,0,0,1,23.962,4.1,289.775,289.775,0,0,1,41.7,13.31c12.817,5.1,24.764,10.659,36.259,16.167l4.484,2.158c1.539.741,3.023,1.5,4.529,2.249,2.961,1.515,5.887,3.038,8.72,4.575,5.7,3.069,11.156,6.163,16.54,9.168C301.35,58.8,311.719,64.59,322.408,69.487a149.837,149.837,0,0,0,33.308,11.188c1.45.3,2.913.533,4.378.8l2.21.325,1.108.164c.368.049.729.077,1.095.116l2.193.224c.735.065,1.478.1,2.219.157,1.48.125,2.984.147,4.488.209,1.507.037,3.025.033,4.547.03,1.525-.054,3.055-.042,4.589-.148l2.306-.123c.77-.045,1.539-.12,2.31-.18,1.543-.115,3.083-.292,4.626-.469,1.548-.153,3.082-.409,4.63-.611,1.543-.225,3.079-.5,4.623-.748,1.527-.308,3.064-.595,4.592-.92,1.518-.35,3.056-.658,4.568-1.041q4.56-1.092,9.021-2.465c1.49-.45,2.98-.905,4.447-1.4l2.21-.736,2.179-.79a176.7,176.7,0,0,0,32.757-15.78A145.637,145.637,0,0,0,487.9,36.058c2.245-2.282,6.5-2.748,9.5-1.042s3.617,4.939,1.371,7.221a5.8,5.8,0,0,1-.506.458Z" transform="translate(0 0)" fill="#fdb74d"/>
      </g>
    </g>
    <g id="Elipse_4971" data-name="Elipse 4971" transform="translate(1494.689 484.932)" fill="none" stroke="#fff" stroke-width="3">
      <ellipse cx="15.155" cy="11.516" rx="15.155" ry="11.516" stroke="none"/>
      <ellipse cx="15.155" cy="11.516" rx="13.655" ry="10.016" fill="none"/>
    </g>
    <g id="Grupo_156239" data-name="Grupo 156239" transform="translate(1013.287 431.67)">
      <g id="Grupo_156238" data-name="Grupo 156238" clip-path="url(#clip-path)">
        <path id="Trazado_205634" data-name="Trazado 205634" d="M84.738,158.6c-.825.229-1.65.457-2.5.658-17.329,3.974-32.781-1.458-41.688-5.746a19.592,19.592,0,0,1-.028-2.23v-.143q.384-9.649.768-19.3c.028-.8.057-1.572.086-2.344H83.315a.5.5,0,0,0,.028.229c.455,7.175.939,14.379,1.452,21.554a6.087,6.087,0,0,1,.056.714,36.266,36.266,0,0,1-.114,6.6" transform="translate(-3.631 -11.071)" fill="#ffa492"/>
        <path id="Trazado_205635" data-name="Trazado 205635" d="M102.363,80.607A139.149,139.149,0,0,1,88.79,114.89c-2.066,3.634-4.171,7.027-6.3,10.124-.079.538-.131,1.082-.21,1.62l-41.029-8.328.018-.084c-.689-2.356-1.3-4.785-1.862-7.348a116.944,116.944,0,0,1-.895-43.9A78.431,78.431,0,0,1,62.692,65.38a77.367,77.367,0,0,1,9.021,1.336,78.314,78.314,0,0,1,10.351,2.947,79.536,79.536,0,0,1,20.3,10.945" transform="translate(-3.304 -5.563)" fill="#ffa492"/>
        <path id="Trazado_205636" data-name="Trazado 205636" d="M82.967,78.943,61.73,74.632Q65.566,61.994,69.4,49.355l16.8,3.411q-1.618,13.088-3.237,26.177" transform="translate(-5.535 -4.219)" fill="#ffa492"/>
        <path id="Trazado_205637" data-name="Trazado 205637" d="M126.636,132.286l11.132-6.974c-4.63-8.619-8.865-15.666-12.115-20.846-14.126-22.516-20.273-26.7-25.677-26.629a10.478,10.478,0,0,0-2.484.337q3.78,14.109,7.56,28.215,10.793,12.948,21.584,25.9" transform="translate(-8.741 -6.654)" fill="#ffa492"/>
        <path id="Trazado_205638" data-name="Trazado 205638" d="M19.05,125.02,6.987,119.839c3.264-9.228,6.375-16.843,8.8-22.462,10.53-24.422,15.967-29.5,21.318-30.261a10.4,10.4,0,0,1,2.507-.049q-1.587,14.521-3.174,29.045L19.05,125.02" transform="translate(-0.626 -5.729)" fill="#ffa492"/>
        <path id="Trazado_205639" data-name="Trazado 205639" d="M84.828,54.334c-1.092,5.432-4.906,9.241-8.517,8.508s-5.654-5.73-4.561-11.162,4.906-9.241,8.517-8.508,5.653,5.73,4.561,11.162" transform="translate(-6.407 -3.683)" fill="#5038a1"/>
        <path id="Trazado_205640" data-name="Trazado 205640" d="M75.89,57.474A12.829,12.829,0,0,1,65.9,42.358l3.7-18.383a22.875,22.875,0,0,1,25.036,5.082l-3.7,18.383A12.773,12.773,0,0,1,75.89,57.474" transform="translate(-5.886 -1.902)" fill="#ffa492"/>
        <path id="Trazado_205641" data-name="Trazado 205641" d="M70.556,36.8c-.46,2.284-2.369,3.823-4.266,3.438s-3.061-2.548-2.6-4.831,2.369-3.823,4.265-3.438,3.062,2.548,2.6,4.831" transform="translate(-5.701 -2.728)" fill="#ffa492"/>
        <path id="Trazado_205642" data-name="Trazado 205642" d="M97.095,44.749c-.46,2.284-2.369,3.824-4.266,3.438s-3.061-2.547-2.6-4.83,2.369-3.823,4.265-3.438,3.062,2.548,2.6,4.83" transform="translate(-8.081 -3.408)" fill="#ffa492"/>
        <path id="Trazado_205643" data-name="Trazado 205643" d="M70.192,79.344c.445,1.74,1.886,2.691,3.007,2.444a2.445,2.445,0,0,0,1.494-1.377Z" transform="translate(-6.293 -6.783)" fill="#5038a1"/>
        <path id="Trazado_205644" data-name="Trazado 205644" d="M49.327,74.984A14.148,14.148,0,0,0,54.135,78.3a14.429,14.429,0,0,0,8.575.722Z" transform="translate(-4.423 -6.411)" fill="#5038a1"/>
        <path id="Trazado_205645" data-name="Trazado 205645" d="M80.986,83.057a14.112,14.112,0,0,0,5.4,2.226,14.422,14.422,0,0,0,8.534-1.11Z" transform="translate(-7.261 -7.101)" fill="#5038a1"/>
        <path id="Trazado_205646" data-name="Trazado 205646" d="M68.071,28.355A23.017,23.017,0,0,0,73.71,33.9c8.244,5.664,17.651,3.946,20.089,3.423,2.675-4.65,2.044-7.718,1.7-8.852-2.541-8.458-19.7-11.874-25.317-5.664a8.934,8.934,0,0,0-2.115,5.546" transform="translate(-6.103 -1.678)" fill="#fff"/>
        <path id="Trazado_205647" data-name="Trazado 205647" d="M69.089,22.96c-2.605.432-11.7-13.054-7.636-19.355C65.608-2.844,82.324.127,93,6.5c2.87,1.712,14,8.352,12.512,15.164-1.128,5.181-9.216,8.94-15.037,7.79a20.84,20.84,0,0,1-6.579-2.95c-3.767-2.48-4.347-4.527-7.166-4.84a17.977,17.977,0,0,0-5.286.591s-1.97.645-2.35.708" transform="translate(-5.418 0)" fill="#fff"/>
        <path id="Trazado_205648" data-name="Trazado 205648" d="M88.824,144.767A91.752,91.752,0,0,1,74.57,147.6a94.415,94.415,0,0,1-37.437-3.265Q35.02,107.809,32.9,71.282a13.015,13.015,0,0,1,3.443-4.4c1.308-1.063,4.111-2.874,15.6-3.072,2.38-.04,5.612-.02,9.461.236l.47-5.429a27.047,27.047,0,0,0,22.007,5.9l-2.179,4.594c13.353,2.393,22.643,7.769,22.973,13.632a6.69,6.69,0,0,1-.823,3.489L88.824,144.767" transform="translate(-2.95 -5.011)" fill="#ffb27d"/>
        <path id="Trazado_205649" data-name="Trazado 205649" d="M91.3,152.7a55.607,55.607,0,0,1-6.886,2.43c-.826.229-1.651.457-2.5.658-17.33,3.974-32.781-1.458-41.688-5.746-1.252-.6-2.361-1.172-3.329-1.686.17-.944.341-1.858.512-2.8,1.053-5.6,2.22-11.348,3.558-17.18.17-.8.341-1.572.541-2.344.4-1.83.825-3.6,1.28-5.375a.848.848,0,0,1,.057-.285c.086-.372.17-.743.284-1.116.057-.343.143-.657.228-1,.257-.971.484-1.915.74-2.858q1.751-6.862,3.642-13.35c.513-1.83,1.053-3.631,1.594-5.4.625-2.059,1.252-4.116,1.906-6.117.4-.086.74-.172,1.11-.258a53.889,53.889,0,0,1,7.8-1.143c1.2-.114,2.475-.172,3.784-.172h.341a50.911,50.911,0,0,1,5.407.258,54.491,54.491,0,0,1,17.814,4.945c.2.086.4.172.569.258-.4,6.146-.626,12.835-.484,19.981a7.36,7.36,0,0,0,0,1.116c0,1.029.028,2.029.114,3.087a.4.4,0,0,0,0,.257.822.822,0,0,0,0,.371,7.263,7.263,0,0,0,.057,1.115,1.528,1.528,0,0,0,0,.515.088.088,0,0,0,.028.057c0,.6.028,1.229.086,1.858.028.944.086,1.887.142,2.859,0,.286.028.572.057.886.085,1.115.17,2.259.256,3.4.427,5.06,1,9.89,1.65,14.465.4,2.859.854,5.632,1.337,8.318" transform="translate(-3.308 -7.605)" fill="#5038a1"/>
        <path id="Trazado_205650" data-name="Trazado 205650" d="M62.507,64.254a88.471,88.471,0,0,0-6.016,13.853c-1.682,4.75-3.855,9.742-3.559,14.883.034.587.948.591.914,0-.29-5.046,1.873-9.973,3.527-14.639A87.1,87.1,0,0,1,63.3,64.718a.458.458,0,0,0-.789-.464" transform="translate(-4.744 -5.474)" fill="#5038a1"/>
        <path id="Trazado_205651" data-name="Trazado 205651" d="M86.49,70.437a87.4,87.4,0,0,1,3.449,12.577c.872,4.206,2.354,8.965,1.078,13.213a.457.457,0,0,0,.881.244c1.244-4.142-.05-8.631-.88-12.735a90.885,90.885,0,0,0-3.647-13.544c-.2-.55-1.086-.312-.881.244" transform="translate(-7.752 -5.974)" fill="#5038a1"/>
        <path id="Trazado_205652" data-name="Trazado 205652" d="M80.467,72.612a.158.158,0,0,1-.06-.013L65.571,66.227a.153.153,0,0,1-.08-.2.151.151,0,0,1,.2-.08l14.836,6.372a.153.153,0,0,1-.06.294" transform="translate(-5.871 -5.637)" fill="#5038a1"/>
        <path id="Trazado_205653" data-name="Trazado 205653" d="M83.26,89.494a.153.153,0,0,1-.152-.141L81.777,73.067a.152.152,0,0,1,.139-.166.144.144,0,0,1,.164.14l1.332,16.286a.153.153,0,0,1-.139.165H83.26" transform="translate(-7.332 -6.232)" fill="#5038a1"/>
        <path id="Trazado_205654" data-name="Trazado 205654" d="M82.018,74.106a.153.153,0,0,1-.1-.272l2.444-2.016a.152.152,0,1,1,.193.236l-2.444,2.016a.149.149,0,0,1-.1.035" transform="translate(-7.34 -6.137)" fill="#5038a1"/>
        <path id="Trazado_205655" data-name="Trazado 205655" d="M76.533,79.068a1.369,1.369,0,1,1-1.369-1.375,1.372,1.372,0,0,1,1.369,1.375" transform="translate(-6.616 -6.642)" fill="#5038a1"/>
        <path id="Trazado_205656" data-name="Trazado 205656" d="M95.383,119.772c0,1.521-13.57,2.754-30.31,2.754s-30.309-1.233-30.309-2.754,13.57-2.754,30.309-2.754,30.31,1.233,30.31,2.754" transform="translate(-3.117 -10.004)" fill="#fedc72"/>
        <path id="Trazado_205657" data-name="Trazado 205657" d="M88.746,121.958c0,2.325-10.274,4.209-22.948,4.209s-22.947-1.885-22.947-4.209,10.274-4.209,22.947-4.209,22.948,1.885,22.948,4.209" transform="translate(-3.842 -10.067)" fill="#fedc72"/>
        <path id="Trazado_205658" data-name="Trazado 205658" d="M76.6,119.37a82.621,82.621,0,0,1-19.061.236A9.574,9.574,0,0,1,76.6,119.37" transform="translate(-5.159 -9.474)" fill="#ffb27d"/>
        <path id="Trazado_205659" data-name="Trazado 205659" d="M65.127,111.66a1.454,1.454,0,1,1-1.454-1.46,1.457,1.457,0,0,1,1.454,1.46" transform="translate(-5.579 -9.421)" fill="#ffb27d"/>
        <path id="Trazado_205660" data-name="Trazado 205660" d="M55.61,117.054a2.648,2.648,0,1,1-2.648-2.66,2.654,2.654,0,0,1,2.648,2.66" transform="translate(-4.511 -9.78)" fill="#ffb27d"/>
        <path id="Trazado_205661" data-name="Trazado 205661" d="M81.818,117.5a2.648,2.648,0,1,1-2.648-2.66,2.654,2.654,0,0,1,2.648,2.66" transform="translate(-6.861 -9.818)" fill="#ffb27d"/>
        <path id="Trazado_205662" data-name="Trazado 205662" d="M57.124,118.052a1.729,1.729,0,1,1-1.727-1.819,1.774,1.774,0,0,1,1.727,1.819" transform="translate(-4.812 -9.937)" fill="#ffb27d"/>
        <path id="Trazado_205663" data-name="Trazado 205663" d="M59.587,118.472a1.729,1.729,0,1,1-1.727-1.819,1.775,1.775,0,0,1,1.727,1.819" transform="translate(-5.033 -9.973)" fill="#ffb27d"/>
        <path id="Trazado_205664" data-name="Trazado 205664" d="M72.612,108.878c-.919,2.1-2.4,3.471-3.314,3.069s-.9-2.43.016-4.528,2.4-3.471,3.314-3.069.9,2.43-.016,4.528" transform="translate(-6.153 -8.915)" fill="#7d8c67"/>
        <path id="Trazado_205665" data-name="Trazado 205665" d="M74.185,113.342c-2.193.632-4.194.366-4.468-.594s1.281-2.252,3.474-2.884,4.194-.366,4.468.594-1.281,2.252-3.474,2.884" transform="translate(-6.248 -9.363)" fill="#7d8c67"/>
        <path id="Trazado_205666" data-name="Trazado 205666" d="M67.721,108.407c.25,1.546-.091,2.887-.762,3s-1.417-1.054-1.667-2.6.09-2.887.761-3,1.417,1.054,1.668,2.6" transform="translate(-5.847 -9.045)" fill="#7d8c67"/>
        <path id="Trazado_205667" data-name="Trazado 205667" d="M138.581,122.429l-24.417-2.4-17.9-15.185q5.252-13.207,10.5-26.415a160.6,160.6,0,0,1,13.346,14.81,161.65,161.65,0,0,1,18.465,29.193" transform="translate(-8.631 -6.705)" fill="#ffb27d"/>
        <path id="Trazado_205668" data-name="Trazado 205668" d="M141.444,130.242a13.279,13.279,0,1,1-13.275-12.964,13.122,13.122,0,0,1,13.275,12.964" transform="translate(-10.301 -10.026)" fill="#ffb27d"/>
        <path id="Trazado_205669" data-name="Trazado 205669" d="M95.331,118.962q-.558,4.572-1.118,9.144a120.177,120.177,0,0,1,11.487,4.556c10.066,4.609,14.338,8.257,21.086,7.353a18.492,18.492,0,0,0,6.278-2.087,10.939,10.939,0,0,0,2.875-4.1,10.719,10.719,0,0,0,.737-4.212,6.086,6.086,0,0,0-4.47-5.72,46.171,46.171,0,0,0-5.278-1.168c-10.857-1.732-16.665,1.317-26.425-1.7a34.585,34.585,0,0,1-5.172-2.069" transform="translate(-8.447 -10.17)" fill="#ffa492"/>
        <path id="Trazado_205670" data-name="Trazado 205670" d="M95.154,118.011c3.2,2.121,4.239,7.513,2.889,8.509-1.542,1.139-6.564-3.193-9.4-5.822-7.288,1.249-9.026.933-9.2.381-.288-.924,3.584-3.218,7.24-4.06a12.415,12.415,0,0,1,5.815-.059,8.11,8.11,0,0,1,2.653,1.05" transform="translate(-7.122 -9.973)" fill="#fff"/>
        <path id="Trazado_205671" data-name="Trazado 205671" d="M96.331,123.344c.544,1.094-.643,3.525-3.583,4.9l-15.331,1.475c-11.455-2.073-13.906-2.91-13.861-3.281.027-.225.97-.29,3.166-.373,4.8-.182,7.194-.273,10.636-.181a31.361,31.361,0,0,0,13.686-3.069c2.51-.921,4.783-.48,5.286.531" transform="translate(-5.698 -10.456)" fill="#fff"/>
        <path id="Trazado_205672" data-name="Trazado 205672" d="M108.088,137.294l-17.563-9.382,6.873-8.084,13.151,1.107a26.813,26.813,0,0,1-2.461,16.36" transform="translate(-8.116 -10.244)" fill="#fff"/>
        <path id="Trazado_205673" data-name="Trazado 205673" d="M103.2,113.39c-.118-.025-.168-.108-.148-.189l2.644-10.767a.152.152,0,1,1,.3.073l-2.643,10.767a.154.154,0,0,1-.148.116" transform="translate(-9.239 -8.747)" fill="#5038a1"/>
        <path id="Trazado_205674" data-name="Trazado 205674" d="M128.773,118.935a.153.153,0,0,1-.086-.279l2.585-1.779a.153.153,0,0,1,.172.252l-2.584,1.779a.152.152,0,0,1-.086.027" transform="translate(-11.532 -9.99)" fill="#5038a1"/>
        <path id="Trazado_205675" data-name="Trazado 205675" d="M125.547,120.88a.153.153,0,0,1-.024-.3l11.239-1.779a.149.149,0,0,1,.174.127.153.153,0,0,1-.127.176l-11.239,1.779-.024,0" transform="translate(-11.243 -10.156)" fill="#5038a1"/>
        <path id="Trazado_205676" data-name="Trazado 205676" d="M108.8,91.106a.159.159,0,0,1-.073-.018.155.155,0,0,1-.061-.209l2.48-4.563a.153.153,0,0,1,.268.147l-2.48,4.563a.152.152,0,0,1-.134.08" transform="translate(-9.741 -7.372)" fill="#5038a1"/>
        <path id="Trazado_205677" data-name="Trazado 205677" d="M24.689,123a10.56,10.56,0,0,1-6.965,4.651A10.733,10.733,0,0,1,7.2,122.087a2.7,2.7,0,0,1-.323-1.715C9.033,103.926,15.09,82.78,32.136,69.111q1.207-.968,2.445-1.854l6.7,5.095Q32.984,97.673,24.689,123" transform="translate(-0.614 -5.75)" fill="#ffb27d"/>
        <path id="Trazado_205678" data-name="Trazado 205678" d="M44.286,84.8,50.2,91.855c-3.742,4.72-6.549,8.781-8.443,11.658-7.072,10.743-9.173,16.747-16.037,20.537a22.611,22.611,0,0,1-7.046,2.463,7.371,7.371,0,0,1-8.656-2.355c-2.165-3.044-.76-6.68-.663-6.921a33.844,33.844,0,0,1,5.961-9.1c8.077-8.736,16.841-8.451,25.177-18.075A36.343,36.343,0,0,0,44.286,84.8" transform="translate(-0.791 -7.25)" fill="#ffa492"/>
        <path id="Trazado_205679" data-name="Trazado 205679" d="M36.37,95.618,47.137,81.043l12.923-.059c1.672,2.269,5.391,7.75,5.08,12.376-.046.671-.185,2.2-1.116,2.751-.875.515-1.924-.372-3.853-1.019a14.112,14.112,0,0,0-4.693-.713l-3.818.767q-3.907,6.078-7.813,12.156L36.37,95.618" transform="translate(-3.261 -6.923)" fill="#fff"/>
        <path id="Trazado_205680" data-name="Trazado 205680" d="M35.839,96.1a.153.153,0,0,1-.15-.127l-.626-3.619a.154.154,0,0,1,.124-.177.15.15,0,0,1,.177.124l.626,3.62a.153.153,0,0,1-.124.177l-.026,0" transform="translate(-3.144 -7.88)" fill="#5038a1"/>
        <path id="Trazado_205681" data-name="Trazado 205681" d="M35.41,85.839a.153.153,0,0,1-.15-.129l-1.488-9.363a.153.153,0,1,1,.3-.048l1.487,9.363a.152.152,0,0,1-.127.175l-.024,0" transform="translate(-3.028 -6.512)" fill="#5038a1"/>
        <path id="Trazado_205682" data-name="Trazado 205682" d="M13.214,108.319a.152.152,0,0,1-.14-.092.154.154,0,0,1,.079-.2l4.637-2.032a.153.153,0,0,1,.121.281l-4.636,2.032a.162.162,0,0,1-.061.013" transform="translate(-1.171 -9.061)" fill="#5038a1"/>
        <path id="Trazado_205683" data-name="Trazado 205683" d="M61.7,99.237a.411.411,0,1,1-.411-.413.412.412,0,0,1,.411.413" transform="translate(-5.458 -8.449)" fill="#fff"/>
        <path id="Trazado_205684" data-name="Trazado 205684" d="M63.364,102.013a.573.573,0,1,1-.573-.575.574.574,0,0,1,.573.575" transform="translate(-5.579 -8.672)" fill="#fff"/>
        <path id="Trazado_205685" data-name="Trazado 205685" d="M64.65,98.628a.382.382,0,1,1-.381-.383.383.383,0,0,1,.381.383" transform="translate(-5.728 -8.399)" fill="#fff"/>
        <path id="Trazado_205686" data-name="Trazado 205686" d="M67.973,102.606a1.483,1.483,0,1,1-1.484-1.49,1.487,1.487,0,0,1,1.484,1.49" transform="translate(-5.828 -8.645)" fill="#fff"/>
        <path id="Trazado_205687" data-name="Trazado 205687" d="M91.737,124.267a.151.151,0,0,1-.144-.1.154.154,0,0,1,.095-.195l1.378-.471a.147.147,0,0,1,.193.094.153.153,0,0,1-.095.195l-1.378.472a.154.154,0,0,1-.049.008" transform="translate(-8.212 -10.557)" fill="#5038a1"/>
        <path id="Trazado_205688" data-name="Trazado 205688" d="M33.949,159.113H14.79l-4.4-34.033h10.28A10.44,10.44,0,0,1,30.7,134Z" transform="translate(-0.931 -10.693)" fill="#5038a1"/>
        <path id="Trazado_205689" data-name="Trazado 205689" d="M25.165,125.08H11.9a7.96,7.96,0,0,0-7.549,6.513L.013,158.137a.807.807,0,0,0,.813.977H19.6a1.194,1.194,0,0,0,1.132-.977l5.248-32.08a.807.807,0,0,0-.813-.977m-8.737,7.709c.167-1.015.765-1.837,1.336-1.837s.9.822.736,1.837-.765,1.837-1.336,1.837-.9-.823-.736-1.837m-.883,5.4c.167-1.015.765-1.837,1.336-1.837s.9.822.736,1.837-.765,1.837-1.336,1.837-.9-.823-.736-1.837m1.236,5.106c-.166,1.014-.764,1.837-1.336,1.837s-.9-.823-.735-1.837.764-1.838,1.336-1.838.9.823.735,1.838m-3.558-10.5c.166-1.015.764-1.837,1.336-1.837s.9.822.736,1.837-.765,1.837-1.336,1.837-.9-.823-.736-1.837m-.883,5.4c.166-1.015.764-1.837,1.336-1.837s.9.822.736,1.837-.765,1.837-1.336,1.837-.9-.823-.736-1.837m1.236,5.106c-.166,1.014-.765,1.837-1.336,1.837s-.9-.823-.736-1.837.765-1.838,1.336-1.838.9.823.736,1.838m-3.493-10.5c.166-1.015.764-1.837,1.336-1.837s.9.822.735,1.837-.764,1.837-1.336,1.837-.9-.823-.735-1.837m-.883,5.4c.166-1.015.764-1.837,1.336-1.837s.9.822.735,1.837-.764,1.837-1.336,1.837-.9-.823-.735-1.837m.5,3.268c.573,0,.9.823.736,1.838s-.765,1.837-1.336,1.837-.9-.823-.736-1.837.765-1.838,1.336-1.838m-3.017-8.666c.166-1.015.765-1.837,1.336-1.837s.9.822.736,1.837-.765,1.837-1.336,1.837-.9-.823-.736-1.837m-.883,5.4c.166-1.015.765-1.837,1.336-1.837s.9.822.736,1.837-.765,1.837-1.336,1.837-.9-.823-.736-1.837m-.487,15.642c-.167,1.014-.765,1.837-1.336,1.837s-.9-.823-.736-1.837.765-1.837,1.336-1.837.9.822.736,1.837m.84-5.139c-.166,1.015-.765,1.837-1.336,1.837s-.9-.822-.736-1.837.765-1.837,1.336-1.837.9.823.736,1.837m-.453-3.56c-.572,0-.9-.823-.736-1.837s.765-1.838,1.337-1.838.9.823.735,1.838-.765,1.837-1.336,1.837m3.012,8.7c-.167,1.014-.765,1.837-1.337,1.837s-.9-.823-.735-1.837.764-1.837,1.336-1.837.9.822.736,1.837m.84-5.139c-.167,1.015-.765,1.837-1.336,1.837s-.9-.822-.736-1.837.765-1.837,1.336-1.837.9.823.736,1.837m2.3,5.139c-.167,1.014-.765,1.837-1.336,1.837s-.9-.823-.736-1.837.765-1.837,1.336-1.837.9.822.736,1.837m.84-5.139c-.166,1.015-.765,1.837-1.336,1.837s-.9-.822-.736-1.837.765-1.837,1.336-1.837.9.823.736,1.837m2.364,5.139c-.166,1.014-.765,1.837-1.336,1.837s-.9-.823-.736-1.837.765-1.837,1.336-1.837.9.822.736,1.837m.84-5.139c-.166,1.015-.764,1.837-1.336,1.837s-.9-.822-.735-1.837.764-1.837,1.336-1.837.9.823.735,1.837m2.17,5.139c-.166,1.014-.765,1.837-1.336,1.837s-.9-.823-.736-1.837.765-1.837,1.336-1.837.9.822.736,1.837m.84-5.139c-.166,1.015-.764,1.837-1.336,1.837s-.9-.822-.735-1.837.764-1.837,1.336-1.837.9.823.735,1.837m.883-5.4c-.166,1.014-.764,1.837-1.336,1.837s-.9-.823-.735-1.837.764-1.838,1.336-1.838.9.823.735,1.838m.836-5.106c-.166,1.014-.765,1.837-1.336,1.837s-.9-.823-.736-1.837.765-1.837,1.336-1.837.9.822.736,1.837m.883-5.4c-.166,1.014-.765,1.837-1.336,1.837s-.9-.823-.736-1.837.765-1.837,1.336-1.837.9.822.736,1.837" transform="translate(0 -10.693)" fill="#fff"/>
        <path id="Trazado_205690" data-name="Trazado 205690" d="M26.955,127.58c-2.464.144-5.082.212-7.836.176A110.138,110.138,0,0,1,7.634,127l1.373-2.416c2.558.26,5.356.432,8.363.453a88.916,88.916,0,0,0,9.585-.453Z" transform="translate(-0.684 -10.651)" fill="#8c6df2"/>
        <path id="Trazado_205691" data-name="Trazado 205691" d="M9.419,124.554a8.583,8.583,0,0,1,3.019-9.915c4.5-2.98,9.684.817,10.263,1.26a11.4,11.4,0,0,1,4.115,8.524l-1.176.021a10.179,10.179,0,0,0-3.655-7.607c-.2-.155-5.012-3.788-8.9-1.211a7.493,7.493,0,0,0-2.55,8.556Z" transform="translate(-0.801 -9.704)" fill="#8c6df2"/>
        <path id="Trazado_205692" data-name="Trazado 205692" d="M89.395,161.56H37.667a6.093,6.093,0,0,1-6.079-6.107V142.471H95.474v12.981a6.093,6.093,0,0,1-6.079,6.107" transform="translate(-2.832 -12.18)" fill="#fff"/>
        <path id="Trazado_205693" data-name="Trazado 205693" d="M255.845,160.874h43.878a.146.146,0,0,0,.146-.146v-.472a.146.146,0,0,0-.146-.146H255.845a.146.146,0,0,0-.146.146v.472a.146.146,0,0,0,.146.146" transform="translate(-22.926 -13.688)" fill="#ffb27d"/>
        <path id="Trazado_205694" data-name="Trazado 205694" d="M280.275,164.627H281.3a.317.317,0,0,0,.316-.317V153.674a.317.317,0,0,0-.316-.317h-1.022a.317.317,0,0,0-.316.317V164.31a.317.317,0,0,0,.316.317" transform="translate(-25.101 -13.111)" fill="#ffb27d"/>
        <path id="Trazado_205695" data-name="Trazado 205695" d="M272.076,160.183c0,1.017,3.472,1.842,7.755,1.842s7.754-.825,7.754-1.842-3.472-1.842-7.754-1.842-7.755.825-7.755,1.842" transform="translate(-24.394 -13.537)" fill="#ffb27d"/>
        <path id="Trazado_205696" data-name="Trazado 205696" d="M203.942,160.874H247.82a.146.146,0,0,0,.146-.146v-.472a.146.146,0,0,0-.146-.146H203.942a.146.146,0,0,0-.146.146v.472a.146.146,0,0,0,.146.146" transform="translate(-18.272 -13.688)" fill="#ffb27d"/>
        <path id="Trazado_205697" data-name="Trazado 205697" d="M228.372,164.627h1.022a.317.317,0,0,0,.316-.317V153.674a.317.317,0,0,0-.316-.317h-1.022a.317.317,0,0,0-.316.317V164.31a.317.317,0,0,0,.316.317" transform="translate(-20.448 -13.111)" fill="#ffb27d"/>
        <path id="Trazado_205698" data-name="Trazado 205698" d="M220.173,160.183c0,1.017,3.472,1.842,7.755,1.842s7.754-.825,7.754-1.842-3.472-1.842-7.754-1.842-7.755.825-7.755,1.842" transform="translate(-19.741 -13.537)" fill="#ffb27d"/>
        <path id="Trazado_205699" data-name="Trazado 205699" d="M281.939,121.135l-10.9,2.541a130.644,130.644,0,0,1-14.621-23.089c-1.865-3.772-3.445-7.427-4.787-10.908-2-6.515.746-11.841,3.561-12.465,2.5-.554,6.33,2.309,8.132,7.287q9.306,18.317,18.61,36.634" transform="translate(-22.5 -6.595)" fill="#ffa492"/>
        <path id="Trazado_205700" data-name="Trazado 205700" d="M294.82,84.886l4.085,1.205a101.307,101.307,0,0,1-6.537,36.983,97.693,97.693,0,0,1-4.125,9.306l-10.429-4.061a58.241,58.241,0,0,1,1.863-7.711c4.061-12.862,10.394-17.238,13.868-29.8a52.226,52.226,0,0,0,1.274-5.918" transform="translate(-24.909 -7.257)" fill="#ffa492"/>
        <path id="Trazado_205701" data-name="Trazado 205701" d="M271.43,133.253c2.782,1.972,4.545,2.042,5.683,1.634,1.569-.562,2.042-2.063,3.4-1.985,1.421.081,1.737,1.777,3.242,2.065.9.174,2.11-.187,3.716-1.827q-3.874-9.372-7.749-18.746c-4.7-13.951-9.745-24.239-13.157-29.39a28.134,28.134,0,0,0-8.626-8.89,24.906,24.906,0,0,0-3.389-1.785l-1.237,35.816L270.154,127.9l1.275,5.355" transform="translate(-22.712 -6.354)" fill="#fff"/>
        <path id="Trazado_205702" data-name="Trazado 205702" d="M279.615,132.987a.148.148,0,0,1-.147-.148V129.5a.147.147,0,1,1,.295,0v3.336a.148.148,0,0,1-.147.148" transform="translate(-25.057 -11.059)" fill="#240100"/>
        <path id="Trazado_205703" data-name="Trazado 205703" d="M217.122,47.542a8.994,8.994,0,1,0,8.994-9.035,9.014,9.014,0,0,0-8.994,9.035" transform="translate(-19.467 -3.292)" fill="#5038a1"/>
        <path id="Trazado_205704" data-name="Trazado 205704" d="M190.528,120.833l-8.257-7.581a130.9,130.9,0,0,1,10.656-25.183c2.037-3.682,4.14-7.059,6.237-10.142,4.208-5.35,10.135-6.092,12.242-4.113,1.87,1.754,1.691,6.547-1.37,10.86l-19.509,36.16" transform="translate(-16.342 -6.225)" fill="#ffa492"/>
        <path id="Trazado_205705" data-name="Trazado 205705" d="M206.665,100.953q5.645,15.757,11.751,29.669a52.52,52.52,0,0,0-7.614,7.562h38.152a1.676,1.676,0,0,0-.144-.347c-2.7-6.147-1.062-12.063,0-20.4,1.379-10.621,1.638-23.666,3.506-31.112.143-.779.287-1.588.373-2.4.316-2.945.144-6.234-1.638-8.745-3.591-2.4-8.274-1.3-11.807-4.1-.058-.058-.144-.115-.2-.174a42.733,42.733,0,0,0-8.361-.058c-9.8.751-9.768,3.984-16.548,3.118-3.965-.519-6.291-.866-8.877.664-.862.49-3.563,1.963-4.741,7.734a1.3,1.3,0,0,0-.028.144q2.8,9,6.177,18.442" transform="translate(-17.976 -6.042)" fill="#ffa492"/>
        <path id="Trazado_205706" data-name="Trazado 205706" d="M258.174,96.86a7.641,7.641,0,1,1-7.64-7.675,7.658,7.658,0,0,1,7.64,7.675" transform="translate(-21.778 -7.625)" fill="#ffa492"/>
        <path id="Trazado_205707" data-name="Trazado 205707" d="M250.669,104.924a7.71,7.71,0,0,1-6.249-3.155.147.147,0,0,1,.03-.207.146.146,0,0,1,.206.03,7.423,7.423,0,0,0,6.014,3.035,7.535,7.535,0,0,0,5.724-12.384.148.148,0,0,1,.018-.209.146.146,0,0,1,.208.017,7.832,7.832,0,0,1-5.95,12.872" transform="translate(-21.912 -7.865)" fill="#5038a1"/>
        <path id="Trazado_205708" data-name="Trazado 205708" d="M232.083,96.86a7.64,7.64,0,1,1-7.64-7.675,7.658,7.658,0,0,1,7.64,7.675" transform="translate(-19.439 -7.625)" fill="#ffa492"/>
        <path id="Trazado_205709" data-name="Trazado 205709" d="M224.526,105.525a7.8,7.8,0,0,1-6.786-3.981.149.149,0,0,1,.056-.2.147.147,0,0,1,.2.057,7.485,7.485,0,0,0,13.882-2.241.144.144,0,0,1,.172-.117.148.148,0,0,1,.117.174,7.807,7.807,0,0,1-7.641,6.311" transform="translate(-19.521 -8.467)" fill="#5038a1"/>
        <path id="Trazado_205710" data-name="Trazado 205710" d="M200.493,80.326l52.2,1.558c.8.029,1.609.029,2.413.058a11.531,11.531,0,0,0-2.5-7.388,6.427,6.427,0,0,0-1.579-1.385c-3.591-2.424-8.246-1.327-11.808-4.126l-.172-.174a3.138,3.138,0,0,1-1.006-1.674,7.3,7.3,0,0,1-.345-1.732,15.633,15.633,0,0,1-.028-3.723,31.278,31.278,0,0,1,1.551-7.446c-.632-.288-1.58-.692-2.787-1.126-1.925-.722-3.074-1.039-3.965-1.327a6.586,6.586,0,0,1-1.7-.808c-.029,0-.029-.029-.057-.029a8,8,0,0,1-2.9-4.156c-.948,2.252-9.164,20.4-10.285,21.271-4.6,3.549-8.992.808-13.215,4.647a13.219,13.219,0,0,0-3.821,7.561" transform="translate(-17.976 -4.005)" fill="#ffa492"/>
        <path id="Trazado_205711" data-name="Trazado 205711" d="M232.638,73.717a1.738,1.738,0,0,0,1.91.933,2.414,2.414,0,0,0,1.415-1.586Z" transform="translate(-20.858 -6.246)" fill="#5038a1"/>
        <path id="Trazado_205712" data-name="Trazado 205712" d="M237.068,76.254a6.234,6.234,0,0,0,.947.56,5.562,5.562,0,0,0,3.33.419,65.868,65.868,0,0,0,6.506-1.212l-6.262.326Z" transform="translate(-21.256 -6.499)" fill="#5038a1"/>
        <path id="Trazado_205713" data-name="Trazado 205713" d="M231.025,76.254a11.273,11.273,0,0,1-1.438.56,12.538,12.538,0,0,1-5.059.419c-4.422-.375-8.507-1-9.884-1.212l9.513.326Z" transform="translate(-19.245 -6.499)" fill="#5038a1"/>
        <path id="Trazado_205714" data-name="Trazado 205714" d="M235.727,60.071a10.741,10.741,0,0,0,5.056,5.858,15.634,15.634,0,0,1-.028-3.723,31.277,31.277,0,0,1,1.551-7.446c-.632-.288-1.58-.692-2.787-1.126-1.925-.722-3.074-1.039-3.965-1.327a10.835,10.835,0,0,0,.172,7.763" transform="translate(-21.063 -4.472)" fill="#5038a1"/>
        <path id="Trazado_205715" data-name="Trazado 205715" d="M253.933,48.771c-.564,2.541-1.885,4.168-3.577,6.249-.3.371-3.929,4.766-6.977,5.127a9.02,9.02,0,0,1-2.111-.028,8.2,8.2,0,0,1-1.994-.576,24.29,24.29,0,0,1-10.019-9.087c-4.21-7.233-5.944-21.15,2.259-27.433,5.061-3.875,11.573-3.06,14.127-2.585.276.064.588.142.931.24a21.676,21.676,0,0,1,2.507.905,14.273,14.273,0,0,1,6.134,4.99c1.784,2.967,1.592,6.521,1.078,9.285-.1.534-.211,1.038-.323,1.5-.126.529-.253,1-.361,1.417-.327,1.229-.656,2-1,3.826-.621,3.243-.225,4.163-.67,6.169" transform="translate(-20.239 -1.712)" fill="#ffa492"/>
        <path id="Trazado_205716" data-name="Trazado 205716" d="M198.939,138.659c5.16,2.665,15.464,6.672,19.518,6.14,1.028-.134,2.929-.415,5.627-.543,5.924-.28,22.689-6.991,33.724-8.847-.633-19.461-1.265-32.838-1.9-52.3a8.935,8.935,0,0,0-.989-5.907c-1.484-2.506-4.083-3.464-8.914-5.174a52.461,52.461,0,0,0-6.523-1.846q.128-2.236.257-4.468l-12.256,1.429-9.014-3.813q-1.147,3.019-2.293,6.037c-5.594-1.326-11.1.027-14.232,3.734a11.593,11.593,0,0,0-2.464,5.291c-.18,21.271-.361,38.994-.541,60.266" transform="translate(-17.837 -5.414)" fill="#fff"/>
        <path id="Trazado_205717" data-name="Trazado 205717" d="M234.717,23.348c-1.28,2.106.831,5.493,1.345,6.315,2.723,4.368,7.7,5.393,13.741,6.639,4.916,1.014,10.582,1.288,10.915.071.2-.743-1.772-1.324-3.5-3.884-1.6-2.367-1.393-4.069-2.017-5.578-2.5-6.048-17.824-7.937-20.482-3.564" transform="translate(-21.008 -1.792)" fill="#5038a1"/>
        <path id="Trazado_205718" data-name="Trazado 205718" d="M228.026,48.887c1.722-.262.826-15.495,1.85-15.533.464-.017.405,3.129,1.66,3.455,1.726.449,4.95-4.693,5.97-9.849.36-1.819,1.082-5.478-.474-6.474-1.8-1.149-5.608,1.9-7.226,3.466a18.63,18.63,0,0,0-5.151,9.64c-1.492,7.8,2.11,15.487,3.371,15.3" transform="translate(-20.111 -1.73)" fill="#5038a1"/>
        <path id="Trazado_205719" data-name="Trazado 205719" d="M225.156,37.393c-.466,2.45.615,4.716,2.414,5.062s3.636-1.361,4.1-3.811-.614-4.716-2.414-5.062-3.636,1.361-4.1,3.811" transform="translate(-20.178 -2.867)" fill="#ffa492"/>
        <path id="Trazado_205720" data-name="Trazado 205720" d="M228.046,43.236a2.693,2.693,0,0,1-.5-.048,3.349,3.349,0,0,1-2.443-2.581.147.147,0,1,1,.283-.08A3.065,3.065,0,0,0,227.6,42.9a2.458,2.458,0,0,0,1.456-.176.148.148,0,0,1,.117.272,2.838,2.838,0,0,1-1.13.243" transform="translate(-20.182 -3.456)" fill="#240100"/>
        <path id="Trazado_205721" data-name="Trazado 205721" d="M225.1,39.905a.148.148,0,0,1-.146-.125,5.944,5.944,0,0,1-.014-1.668.145.145,0,0,1,.165-.128.148.148,0,0,1,.127.166,5.654,5.654,0,0,0,.013,1.584.148.148,0,0,1-.123.169l-.023,0" transform="translate(-20.163 -3.247)" fill="#240100"/>
        <path id="Trazado_205722" data-name="Trazado 205722" d="M225.273,37.051c-.117-.027-.164-.108-.142-.187.627-2.3,2.422-3.773,4.161-3.441a2.689,2.689,0,0,1,1.108.494.148.148,0,0,1-.176.239,2.4,2.4,0,0,0-.987-.442c-1.6-.3-3.236,1.083-3.823,3.229a.146.146,0,0,1-.142.109" transform="translate(-20.185 -2.853)" fill="#240100"/>
        <path id="Trazado_205723" data-name="Trazado 205723" d="M225.275,31.293c3.209.492,6.6.9,10.149,1.2a148.776,148.776,0,0,0,21.394.238,15.481,15.481,0,0,1,3.113-6.911L226.445,17.6q-.584,6.846-1.17,13.693" transform="translate(-20.198 -1.505)" fill="#fff"/>
        <path id="Trazado_205724" data-name="Trazado 205724" d="M269.881,8.271c3.078,6.33.763,15.12-4.349,17.713-2.951,1.5-6.774.9-7.433.795-2.769-.434-2.7-1.281-5.3-1.827-5.355-1.126-7.8,2.342-11.149.318-2.006-1.214-2.044-2.7-4.191-3.734-3.005-1.451-4.932.905-7.749.318-4.747-.989-9.608-9.359-6.879-15.648A10.748,10.748,0,0,1,230.187.168c4.17-.869,6.155,1.907,13.6,1.907.906,0,2.158-.106,4.665-.317,8.17-.691,8.852-1.4,11.149-1.112a14.012,14.012,0,0,1,10.28,7.625" transform="translate(-19.909 0)" fill="#fff"/>
        <path id="Trazado_205725" data-name="Trazado 205725" d="M221.363,151.508q-1.143,1.805-2.285,3.61a100.212,100.212,0,0,1-33.56-16.562A97.219,97.219,0,0,1,177.761,132l6.775-8.941a57.989,57.989,0,0,1,6.858,3.936C202.57,134.476,205,141.8,216.055,148.638a51.706,51.706,0,0,0,5.307,2.87" transform="translate(-15.938 -10.52)" fill="#ffa492"/>
        <path id="Trazado_205726" data-name="Trazado 205726" d="M177.686,120.491c.139,2.365-.129,5.132-1.957,6.732-1.135.994-2.259,1-2.55,1.847-.327.953.508,2.682,5.337,6.076a17.406,17.406,0,0,0,6.586-.656,19.07,19.07,0,0,0,10.612-8.665l15.062-32.977L198.648,75.51a283.914,283.914,0,0,0-16.574,33.662q-2.375,5.753-4.389,11.319" transform="translate(-15.522 -6.455)" fill="#fff"/>
        <path id="Trazado_205727" data-name="Trazado 205727" d="M222.94,139.4a.149.149,0,0,1-.147-.154l2.525-64.408a.154.154,0,0,1,.153-.143.149.149,0,0,1,.142.154l-2.525,64.408a.148.148,0,0,1-.147.143" transform="translate(-19.976 -6.385)" fill="#5038a1"/>
        <path id="Trazado_205728" data-name="Trazado 205728" d="M229.8,92.443a1.377,1.377,0,1,0,1.339-1.7,1.549,1.549,0,0,0-1.339,1.7" transform="translate(-20.604 -7.758)" fill="#5038a1"/>
        <path id="Trazado_205729" data-name="Trazado 205729" d="M229.9,108.839a1.377,1.377,0,1,0,1.339-1.7,1.55,1.55,0,0,0-1.339,1.7" transform="translate(-20.613 -9.16)" fill="#5038a1"/>
        <path id="Trazado_205730" data-name="Trazado 205730" d="M230.646,127.018a1.377,1.377,0,1,0,1.339-1.7,1.55,1.55,0,0,0-1.339,1.7" transform="translate(-20.68 -10.714)" fill="#5038a1"/>
        <path id="Trazado_205731" data-name="Trazado 205731" d="M199.116,124.919a.128.128,0,0,1-.06-.014.147.147,0,0,1-.074-.195L210.47,99.126a.143.143,0,0,1,.195-.074.148.148,0,0,1,.074.2l-11.489,25.584a.145.145,0,0,1-.134.088" transform="translate(-17.84 -8.467)" fill="#5038a1"/>
        <path id="Trazado_205732" data-name="Trazado 205732" d="M262.452,119.583a.147.147,0,0,1-.147-.149l.086-18.986a.147.147,0,1,1,.295,0l-.086,18.986a.148.148,0,0,1-.147.147" transform="translate(-23.518 -8.575)" fill="#5038a1"/>
        <path id="Trazado_205733" data-name="Trazado 205733" d="M298.345,99.267l9.394-4.063a10.251,10.251,0,0,0,.613-6.878c-1.356-4.942-6.1-6.718-6.579-6.886a12.385,12.385,0,0,0-6.081,5.942,11.91,11.91,0,0,0-1.079,5.139l3.732,6.746" transform="translate(-26.415 -6.962)" fill="#ffa492"/>
        <path id="Trazado_205734" data-name="Trazado 205734" d="M316.043,66.123l-25.1,20.752a.125.125,0,0,0-.016.174l.786.959a.122.122,0,0,0,.173.017l25.1-20.753A.123.123,0,0,0,317,67.1l-.786-.96a.123.123,0,0,0-.173-.016" transform="translate(-26.082 -5.651)" fill="#5038a1"/>
        <path id="Trazado_205735" data-name="Trazado 205735" d="M320.321,62.883c-.492-.516-2.4.578-3.08.971-6.642,3.817-10.054,12.018-9.525,12.36.132.086.385-.4,1.818-1.736,3.748-3.5,5.484-3.425,7.925-6.04,1.945-2.083,3.457-4.93,2.861-5.555" transform="translate(-27.585 -5.364)" fill="#5038a1"/>
        <path id="Trazado_205736" data-name="Trazado 205736" d="M292.257,87.769c-.718-1.087-5.979.005-9.028,3.525-3.315,3.825-3.385,9.793-2.153,10.3.4.163.9-.249,6-6.52s5.442-6.909,5.183-7.3" transform="translate(-25.136 -7.469)" fill="#5038a1"/>
        <path id="Trazado_205737" data-name="Trazado 205737" d="M312.888,79.916c-1.329-3.04-5.354-3.808-6.266-3.962-1.388.261-7.838,1.541-9.435,4.295-.144.249-.394.693-.221,1,.461.815,3.516-.055,6.045-.926-.527.071-5.622.788-5.75,2.444-.023.294.1.812,1.106,1.517l3.382.619,7.748,1.417c-6.849-1.7-8.239-.877-8.569-.241A1.771,1.771,0,0,0,301.2,87.8c.633.8,2.06.886,3.98,1,1,.059,1.489.016,1.659.333.233.435-.462.93-.829,2.166s.076,1.641-.221,2.389c-.7,1.767-4.078,1.822-4.063,1.916.018.113,5,.869,8.044-2.194,1.305-1.314,1.736-3.191,2.6-6.942.777-3.379,1.165-5.069.516-6.553" transform="translate(-26.621 -6.493)" fill="#ffa492"/>
        <path id="Trazado_205738" data-name="Trazado 205738" d="M205.715,158.553l46.907-12.107a.378.378,0,0,0,.27-.459l-.8-3.116a.378.378,0,0,0-.458-.272l-46.907,12.107a.378.378,0,0,0-.27.459l.8,3.116a.377.377,0,0,0,.458.272" transform="translate(-18.331 -12.19)" fill="#5038a1"/>
        <path id="Trazado_205739" data-name="Trazado 205739" d="M310.444,135.776c.077.07.147.111.2.1.027-.007,0-.119,0-.119a.429.429,0,0,1-.2.022" transform="translate(-27.834 -11.606)" fill="#7d8c67"/>
        <path id="Trazado_205740" data-name="Trazado 205740" d="M260.641,157.852a2.93,2.93,0,0,0,2.371.589c5.48-.936,11.461-2.185,17.831-3.861,5.5-1.447,10.573-3.026,15.2-4.635a2.974,2.974,0,0,0,1.756-1.556l9.56-21.19c.855-1.9-.677-3.813-2.946-3.653a171.775,171.775,0,0,0-60.1,15.484c-2.01.933-2.48,3.268-.932,4.549l17.255,14.275" transform="translate(-21.74 -10.561)" fill="#5038a1"/>
        <path id="Trazado_205741" data-name="Trazado 205741" d="M245.872,141.067c.283,1.062,5.364.8,12.92-.535,2.976-.531,6.38-1.218,10.01-2.025,2.2-.514,4.486-1.087,6.858-1.692,16-4.1,28.617-8.872,28.144-10.65-.444-1.78-13.791.123-29.788,4.222-16,4.13-28.586,8.9-28.143,10.68" transform="translate(-22.044 -10.729)" fill="#5038a1"/>
        <path id="Trazado_205742" data-name="Trazado 205742" d="M248.6,141.841c-1.711,0-2.754-.235-2.888-.76-.247-.968,2.444-2.526,8-4.629a202.623,202.623,0,0,1,20.262-6.211c14.311-3.676,29.434-6.226,29.97-4.124.247.968-2.443,2.526-8,4.629a202.776,202.776,0,0,1-20.262,6.211c-10.739,2.76-21.936,4.883-27.084,4.883m52.587-16.222c-4.4,0-14.314,1.613-27.141,4.909a202.568,202.568,0,0,0-20.231,6.2c-5.989,2.268-7.965,3.7-7.816,4.279.379,1.482,12.367.094,29.612-4.338a202.552,202.552,0,0,0,20.23-6.2c5.989-2.268,7.965-3.7,7.816-4.279-.1-.38-.956-.572-2.471-.572" transform="translate(-22.029 -10.717)" fill="#b2b2b2"/>
        <path id="Trazado_205743" data-name="Trazado 205743" d="M284.2,125.845a6.049,6.049,0,1,0,5.905-6.217,6.061,6.061,0,0,0-5.905,6.217" transform="translate(-25.481 -10.227)" fill="#ffb27d"/>
        <path id="Trazado_205744" data-name="Trazado 205744" d="M288.852,126.143a1.809,1.809,0,1,0,1.766-1.859,1.813,1.813,0,0,0-1.766,1.859" transform="translate(-25.898 -10.625)" fill="#fedc72"/>
        <path id="Trazado_205745" data-name="Trazado 205745" d="M289.959,122.048c.021.892.312,1.608.652,1.6s.6-.738.575-1.629-.312-1.609-.651-1.6-.6.737-.576,1.629" transform="translate(-25.998 -10.295)" fill="#fedc72"/>
        <path id="Trazado_205746" data-name="Trazado 205746" d="M290.545,130.3c.021.9.318,1.631.663,1.622s.608-.748.587-1.652-.318-1.631-.663-1.622-.608.748-.587,1.652" transform="translate(-26.05 -10.998)" fill="#fedc72"/>
        <path id="Trazado_205747" data-name="Trazado 205747" d="M287.156,124.27c.721.521,1.465.719,1.663.443s-.226-.923-.946-1.444-1.466-.719-1.663-.443.225.923.946,1.444" transform="translate(-25.657 -10.49)" fill="#fedc72"/>
        <path id="Trazado_205748" data-name="Trazado 205748" d="M294.092,128.778c.731.529,1.487.728,1.688.447s-.227-.938-.958-1.467-1.486-.728-1.688-.446.227.937.958,1.466" transform="translate(-26.278 -10.873)" fill="#fedc72"/>
        <path id="Trazado_205749" data-name="Trazado 205749" d="M287.852,128.858c.763-.455,1.241-1.063,1.068-1.355s-.932-.161-1.7.3-1.242,1.062-1.068,1.355.932.16,1.7-.3" transform="translate(-25.654 -10.887)" fill="#fedc72"/>
        <path id="Trazado_205750" data-name="Trazado 205750" d="M294.753,124.294c.774-.462,1.258-1.078,1.082-1.376s-.947-.166-1.721.3-1.258,1.078-1.081,1.377.947.165,1.721-.3" transform="translate(-26.27 -10.495)" fill="#fedc72"/>
        <path id="Trazado_205751" data-name="Trazado 205751" d="M264.255,104.734a4.266,4.266,0,1,0,4.165-4.385,4.275,4.275,0,0,0-4.165,4.385" transform="translate(-23.693 -8.579)" fill="#ffb27d"/>
        <path id="Trazado_205752" data-name="Trazado 205752" d="M267.539,104.944a1.276,1.276,0,1,0,1.245-1.311,1.278,1.278,0,0,0-1.245,1.311" transform="translate(-23.988 -8.86)" fill="#fedc72"/>
        <path id="Trazado_205753" data-name="Trazado 205753" d="M268.32,102.056c.015.629.22,1.134.46,1.128s.421-.52.406-1.149-.22-1.134-.46-1.129-.421.519-.406,1.149" transform="translate(-24.058 -8.627)" fill="#fedc72"/>
        <path id="Trazado_205754" data-name="Trazado 205754" d="M268.733,107.875c.015.637.224,1.15.468,1.144s.429-.528.413-1.165-.224-1.15-.467-1.144-.429.528-.414,1.165" transform="translate(-24.095 -9.123)" fill="#fedc72"/>
        <path id="Trazado_205755" data-name="Trazado 205755" d="M266.343,103.624c.508.368,1.033.508,1.173.313s-.159-.651-.667-1.019-1.033-.508-1.173-.312.159.65.667,1.018" transform="translate(-23.817 -8.764)" fill="#fedc72"/>
        <path id="Trazado_205756" data-name="Trazado 205756" d="M271.234,106.8c.515.372,1.048.514,1.191.315s-.16-.661-.675-1.033-1.049-.514-1.191-.316.16.662.675,1.034" transform="translate(-24.255 -9.035)" fill="#fedc72"/>
        <path id="Trazado_205757" data-name="Trazado 205757" d="M266.833,106.858c.538-.321.876-.749.753-.956s-.657-.113-1.2.208-.876.75-.753.956.657.113,1.2-.208" transform="translate(-23.815 -9.044)" fill="#fedc72"/>
        <path id="Trazado_205758" data-name="Trazado 205758" d="M271.7,103.641c.545-.326.888-.761.763-.97s-.667-.117-1.214.209-.887.761-.763.971.668.116,1.213-.209" transform="translate(-24.25 -8.768)" fill="#fedc72"/>
        <path id="Trazado_205759" data-name="Trazado 205759" d="M278.775,119.5a4.266,4.266,0,1,0,4.165-4.384,4.275,4.275,0,0,0-4.165,4.384" transform="translate(-24.995 -9.841)" fill="#ffb27d"/>
        <path id="Trazado_205760" data-name="Trazado 205760" d="M282.059,119.707A1.276,1.276,0,1,0,283.3,118.4a1.278,1.278,0,0,0-1.245,1.311" transform="translate(-25.289 -10.122)" fill="#fedc72"/>
        <path id="Trazado_205761" data-name="Trazado 205761" d="M282.84,116.819c.015.629.22,1.134.46,1.129s.421-.52.406-1.149-.22-1.134-.46-1.129-.421.519-.406,1.149" transform="translate(-25.359 -9.889)" fill="#fedc72"/>
        <path id="Trazado_205762" data-name="Trazado 205762" d="M283.253,122.638c.015.637.224,1.15.468,1.144s.429-.528.413-1.165-.224-1.15-.467-1.144-.429.528-.414,1.165" transform="translate(-25.396 -10.385)" fill="#fedc72"/>
        <path id="Trazado_205763" data-name="Trazado 205763" d="M280.863,118.387c.508.368,1.033.508,1.173.312s-.159-.65-.667-1.018-1.033-.508-1.173-.313.159.651.667,1.019" transform="translate(-25.119 -10.026)" fill="#fedc72"/>
        <path id="Trazado_205764" data-name="Trazado 205764" d="M285.754,121.565c.515.372,1.048.514,1.191.316s-.16-.662-.675-1.034-1.049-.514-1.191-.316.16.662.675,1.034" transform="translate(-25.557 -10.297)" fill="#fedc72"/>
        <path id="Trazado_205765" data-name="Trazado 205765" d="M281.353,121.621c.538-.321.876-.749.753-.956s-.657-.113-1.2.208-.876.75-.753.956.657.114,1.2-.208" transform="translate(-25.117 -10.307)" fill="#fedc72"/>
        <path id="Trazado_205766" data-name="Trazado 205766" d="M286.22,118.4c.545-.326.888-.76.763-.97s-.668-.117-1.214.209-.887.76-.763.97.668.116,1.214-.209" transform="translate(-25.551 -10.03)" fill="#fedc72"/>
        <path id="Trazado_205767" data-name="Trazado 205767" d="M262.62,129.29a4.265,4.265,0,1,0,4.164-4.385,4.273,4.273,0,0,0-4.164,4.385" transform="translate(-23.546 -10.678)" fill="#ffb27d"/>
        <path id="Trazado_205768" data-name="Trazado 205768" d="M265.9,129.5a1.276,1.276,0,1,0,1.245-1.311A1.278,1.278,0,0,0,265.9,129.5" transform="translate(-23.841 -10.959)" fill="#fedc72"/>
        <path id="Trazado_205769" data-name="Trazado 205769" d="M266.684,126.612c.015.629.22,1.134.46,1.129s.421-.52.406-1.149-.22-1.134-.46-1.129-.421.519-.406,1.149" transform="translate(-23.911 -10.726)" fill="#fedc72"/>
        <path id="Trazado_205770" data-name="Trazado 205770" d="M267.1,132.431c.015.637.224,1.15.468,1.144s.429-.528.413-1.165-.224-1.15-.467-1.144-.429.528-.414,1.165" transform="translate(-23.948 -11.222)" fill="#fedc72"/>
        <path id="Trazado_205771" data-name="Trazado 205771" d="M264.707,128.18c.508.368,1.033.508,1.173.313s-.158-.651-.666-1.019-1.033-.508-1.173-.312.159.65.667,1.018" transform="translate(-23.671 -10.864)" fill="#fedc72"/>
        <path id="Trazado_205772" data-name="Trazado 205772" d="M269.6,131.359c.515.372,1.048.514,1.191.315s-.16-.661-.675-1.033-1.049-.514-1.191-.316.16.662.675,1.034" transform="translate(-24.109 -11.134)" fill="#fedc72"/>
        <path id="Trazado_205773" data-name="Trazado 205773" d="M265.2,131.414c.538-.322.876-.749.753-.956s-.657-.113-1.2.208-.876.75-.753.956.657.113,1.2-.208" transform="translate(-23.668 -11.144)" fill="#fedc72"/>
        <path id="Trazado_205774" data-name="Trazado 205774" d="M270.064,128.2c.545-.326.888-.761.763-.97s-.667-.117-1.213.208-.887.761-.763.971.668.116,1.214-.209" transform="translate(-24.103 -10.867)" fill="#fedc72"/>
        <path id="Trazado_205775" data-name="Trazado 205775" d="M277.107,103.511a5.446,5.446,0,1,0,5.317-5.6,5.458,5.458,0,0,0-5.317,5.6" transform="translate(-24.845 -8.371)" fill="#7d8c67"/>
        <path id="Trazado_205776" data-name="Trazado 205776" d="M277.91,103.562a4.715,4.715,0,1,0,4.6-4.846,4.724,4.724,0,0,0-4.6,4.846" transform="translate(-24.917 -8.439)" fill="#ffb27d"/>
        <path id="Trazado_205777" data-name="Trazado 205777" d="M282.279,103.841a.736.736,0,1,0,.718-.757.736.736,0,0,0-.718.757" transform="translate(-25.309 -8.813)" fill="#7d8c67"/>
        <path id="Trazado_205778" data-name="Trazado 205778" d="M282.5,100.6c.024,1.032.254,1.864.513,1.857s.451-.848.426-1.879-.253-1.864-.513-1.857-.45.848-.426,1.879" transform="translate(-25.329 -8.439)" fill="#7d8c67"/>
        <path id="Trazado_205779" data-name="Trazado 205779" d="M282.648,106.986c.024,1.032.254,1.864.513,1.857s.451-.848.426-1.879-.253-1.864-.513-1.857-.45.848-.426,1.879" transform="translate(-25.342 -8.986)" fill="#7d8c67"/>
        <path id="Trazado_205780" data-name="Trazado 205780" d="M280.068,102.3c.834.6,1.633.92,1.784.709s-.4-.872-1.235-1.475-1.632-.921-1.784-.709.4.872,1.235,1.475" transform="translate(-24.998 -8.614)" fill="#7d8c67"/>
        <path id="Trazado_205781" data-name="Trazado 205781" d="M285.256,106.036c.834.6,1.633.92,1.784.709s-.4-.872-1.235-1.475-1.632-.92-1.784-.709.4.872,1.235,1.475" transform="translate(-25.463 -8.933)" fill="#7d8c67"/>
        <path id="Trazado_205782" data-name="Trazado 205782" d="M280.54,105.961c.854-.575,1.428-1.216,1.284-1.433s-.954.074-1.807.648-1.428,1.216-1.284,1.433.954-.073,1.807-.648" transform="translate(-24.989 -8.93)" fill="#7d8c67"/>
        <path id="Trazado_205783" data-name="Trazado 205783" d="M285.85,102.4c.853-.575,1.428-1.216,1.284-1.433s-.954.074-1.807.648-1.428,1.216-1.284,1.433.954-.074,1.807-.648" transform="translate(-25.465 -8.626)" fill="#7d8c67"/>
        <path id="Trazado_205784" data-name="Trazado 205784" d="M301.16,124.629c.1.019.183.018.223-.024a4.738,4.738,0,0,1,.473.423,5.493,5.493,0,0,0-.125-7.733,5.407,5.407,0,0,0-7.678.1l7.267,7.106a.42.42,0,0,1-.161.124" transform="translate(-26.365 -9.895)" fill="#7d8c67"/>
        <path id="Trazado_205785" data-name="Trazado 205785" d="M294.619,117.971l6.753,6.6a.363.363,0,0,0,.1-.144,4.525,4.525,0,0,0,1.169-3.73c.019-.1,0-.164.017-.225a4.978,4.978,0,0,0-1.376-2.594,4.631,4.631,0,0,0-2.21-1.194,1.321,1.321,0,0,0-.225-.059,4.73,4.73,0,0,0-4.228,1.343" transform="translate(-26.416 -9.964)" fill="#ffb27d"/>
        <path id="Trazado_205786" data-name="Trazado 205786" d="M297.762,121.141l1.05,1.027a.741.741,0,0,0-.034-1.041.709.709,0,0,0-1.016.014" transform="translate(-26.697 -10.338)" fill="#7d8c67"/>
        <path id="Trazado_205787" data-name="Trazado 205787" d="M294.619,118.1l2.676,2.617c.139-.227-.3-.936-1.018-1.64s-1.437-1.123-1.659-.978" transform="translate(-26.416 -10.094)" fill="#7d8c67"/>
        <path id="Trazado_205788" data-name="Trazado 205788" d="M301.622,125.209c.1.019.183.018.223-.024a.25.25,0,0,0,.037-.245,3.981,3.981,0,0,0-1.035-1.415c-.7-.684-1.416-1.1-1.638-.957l2.574,2.517a.42.42,0,0,1-.161.124" transform="translate(-26.827 -10.476)" fill="#7d8c67"/>
        <path id="Trazado_205789" data-name="Trazado 205789" d="M301.37,121.661c1.016-.156,1.807-.491,1.768-.749s-.894-.34-1.91-.185-1.807.491-1.768.749.894.34,1.91.185" transform="translate(-26.849 -10.314)" fill="#7d8c67"/>
        <path id="Trazado_205790" data-name="Trazado 205790" d="M299.372,118.524c.208-1.011.172-1.873-.082-1.926s-.63.723-.838,1.734-.172,1.873.082,1.926.63-.723.838-1.734" transform="translate(-26.747 -9.968)" fill="#7d8c67"/>
        <path id="Trazado_205791" data-name="Trazado 205791" d="M269.415,121.4a4.072,4.072,0,1,0,3.975-4.186,4.08,4.08,0,0,0-3.975,4.186" transform="translate(-24.156 -10.021)" fill="#7d8c67"/>
        <path id="Trazado_205792" data-name="Trazado 205792" d="M290.408,95.826a2.815,2.815,0,1,0,2.748-2.894,2.82,2.82,0,0,0-2.748,2.894" transform="translate(-26.038 -7.945)" fill="#7d8c67"/>
        <path id="Trazado_205793" data-name="Trazado 205793" d="M287.836,105.722a2.815,2.815,0,1,0,2.748-2.894,2.821,2.821,0,0,0-2.748,2.894" transform="translate(-25.807 -8.791)" fill="#7d8c67"/>
        <path id="Trazado_205794" data-name="Trazado 205794" d="M290.978,120.139a2.815,2.815,0,1,0,2.748-2.894,2.821,2.821,0,0,0-2.748,2.894" transform="translate(-26.089 -10.023)" fill="#7d8c67"/>
        <path id="Trazado_205795" data-name="Trazado 205795" d="M279.014,128.662a2.815,2.815,0,1,0,2.748-2.893,2.821,2.821,0,0,0-2.748,2.893" transform="translate(-25.016 -10.752)" fill="#7d8c67"/>
        <path id="Trazado_205796" data-name="Trazado 205796" d="M269.5,131.035c-.754,1.286,2.417,6.375,6.553,6.282s7.072-5.3,6.253-6.583c-.51-.8-2.269.262-7.1.286-3.943.019-5.3-.674-5.7.015" transform="translate(-24.154 -11.151)" fill="#ffb27d"/>
        <path id="Trazado_205797" data-name="Trazado 205797" d="M290.685,110.076a3.172,3.172,0,1,0,3.1-3.261,3.179,3.179,0,0,0-3.1,3.261" transform="translate(-26.063 -9.132)" fill="#ffb27d"/>
        <path id="Trazado_205798" data-name="Trazado 205798" d="M272.606,112.643c.033,1.4,2.547,2.473,5.617,2.4s5.532-1.264,5.5-2.662-2.547-2.473-5.617-2.4-5.532,1.264-5.5,2.662" transform="translate(-24.442 -9.402)" fill="#ffb27d"/>
        <path id="Trazado_205799" data-name="Trazado 205799" d="M259.767,139.614a2.46,2.46,0,0,0,.255,1.12c2.978-.532,6.38-1.219,10.011-2.026-.42-1.982-2.609-3.432-5.193-3.371-2.845.067-5.128,1.968-5.073,4.276" transform="translate(-23.291 -11.57)" fill="#ffb27d"/>
        <path id="Trazado_205800" data-name="Trazado 205800" d="M280.719,134.741a2.472,2.472,0,0,0,.256,1.12c2.977-.532,6.381-1.219,10.011-2.026-.42-1.982-2.609-3.432-5.193-3.371-2.844.067-5.127,1.968-5.073,4.276" transform="translate(-25.169 -11.153)" fill="#ffb27d"/>
        <path id="Trazado_205801" data-name="Trazado 205801" d="M291.855,131.54a2.46,2.46,0,0,0,.466,1.049c2.818-1.1,6.026-2.429,9.435-3.923-.792-1.864-3.218-2.863-5.742-2.3-2.777.615-4.654,2.924-4.158,5.178" transform="translate(-26.161 -10.79)" fill="#ffb27d"/>
        <path id="Trazado_205802" data-name="Trazado 205802" d="M284.925,116.967a2.657,2.657,0,1,0,2.594-2.594,2.6,2.6,0,0,0-2.594,2.594" transform="translate(-25.546 -9.778)" fill="#ffb27d"/>
        <path id="Trazado_205803" data-name="Trazado 205803" d="M213.176,153.852a15.118,15.118,0,0,0,21.755-.7l-6.108-9.83-10.2.239-3.321,4.587-2.313-.12q.094,2.909.188,5.819" transform="translate(-19.097 -12.253)" fill="#ffa492"/>
        <path id="Trazado_205804" data-name="Trazado 205804" d="M154.6,62.157a7.934,7.934,0,1,1-7.934-7.969,7.953,7.953,0,0,1,7.934,7.969" transform="translate(-12.439 -4.633)" fill="#5038a1"/>
        <path id="Trazado_205805" data-name="Trazado 205805" d="M196.815,91.7l-71.467-.425a15.668,15.668,0,0,1,4.2-8.268c5.31-5.164,11.983-2.609,17.37-6.665,2.845-2.143,5.861-6.457,6.251-15.987.365-.018.725-.049,1.084-.08l6.532-.459,6.519.459c.366.03.719.061,1.084.08.4,9.53,3.4,13.845,6.251,15.987,5.36,4.027,11.8,1.576,17.365,6.665a16.929,16.929,0,0,1,4.806,8.693" transform="translate(-11.239 -5.114)" fill="#ffa492"/>
        <path id="Trazado_205806" data-name="Trazado 205806" d="M170.044,65.663c0,4.308-2.865,7.8-6.4,7.8s-6.4-3.493-6.4-7.8,2.865-7.8,6.4-7.8,6.4,3.493,6.4,7.8" transform="translate(-14.099 -4.947)" fill="#5038a1"/>
        <path id="Trazado_205807" data-name="Trazado 205807" d="M183.112,92.832a1.259,1.259,0,0,1,.812.255,1.457,1.457,0,0,1,.358,1.632H136.35a1.242,1.242,0,0,1,.3-1.377,1.22,1.22,0,0,1,.965-.255,40.5,40.5,0,0,1,14.724-1.276c2.771.294,3.49.693,6.55.842,5.443.264,7.823-.776,12.261-1.072a36.548,36.548,0,0,1,11.957,1.25" transform="translate(-12.217 -7.823)" fill="#fff"/>
        <path id="Trazado_205808" data-name="Trazado 205808" d="M161.122,81.957a2.8,2.8,0,0,0,2.742,1.02,2.95,2.95,0,0,0,2.031-1.734Z" transform="translate(-14.446 -6.946)" fill="#5038a1"/>
        <path id="Trazado_205809" data-name="Trazado 205809" d="M166.7,84.733a12.306,12.306,0,0,0,1.574.612,13.693,13.693,0,0,0,5.534.459c4.838-.41,9.308-1.09,10.815-1.326l-10.409.358Z" transform="translate(-14.946 -7.222)" fill="#5038a1"/>
        <path id="Trazado_205810" data-name="Trazado 205810" d="M160.087,84.733a12.307,12.307,0,0,1-1.574.612,13.693,13.693,0,0,1-5.534.459c-4.839-.41-9.308-1.09-10.815-1.326l10.408.358Z" transform="translate(-12.746 -7.222)" fill="#5038a1"/>
        <path id="Trazado_205811" data-name="Trazado 205811" d="M125.63,125.683l-9.707-7.488a143.307,143.307,0,0,1,9.271-28.453c1.878-4.2,3.856-8.084,5.853-11.643a9.113,9.113,0,0,1,9.242.891,8.988,8.988,0,0,1,3.239,5.442q-8.95,20.624-17.9,41.251" transform="translate(-10.394 -6.604)" fill="#ffa492"/>
        <path id="Trazado_205812" data-name="Trazado 205812" d="M199.909,132.03,209.952,125a143.352,143.352,0,0,0-7.944-28.856c-1.68-4.287-3.477-8.255-5.307-11.9a9.112,9.112,0,0,0-9.273.457,8.979,8.979,0,0,0-3.488,5.285l15.968,42.043" transform="translate(-16.492 -7.113)" fill="#ffa492"/>
        <path id="Trazado_205813" data-name="Trazado 205813" d="M162.347,26.831a29.542,29.542,0,0,0-3.778.2,12.623,12.623,0,0,0-11.118,12.556V52.606a18.939,18.939,0,0,0,6.772,11.13,18.014,18.014,0,0,0,7.726,3.435c.113,0,.223-.005.335-.011s.221.011.334.011a18.01,18.01,0,0,0,7.726-3.435,18.939,18.939,0,0,0,6.772-11.13V39.586A12.623,12.623,0,0,0,166,27.029a28.8,28.8,0,0,0-3.651-.2" transform="translate(-13.22 -2.294)" fill="#ffa492"/>
        <path id="Trazado_205814" data-name="Trazado 205814" d="M149.691,47.386c0,2.62-1.561,4.744-3.486,4.744s-3.486-2.124-3.486-4.744,1.56-4.745,3.486-4.745,3.486,2.124,3.486,4.745" transform="translate(-12.796 -3.645)" fill="#ffa492"/>
        <path id="Trazado_205815" data-name="Trazado 205815" d="M184.078,47.386c0,2.62-1.56,4.744-3.485,4.744s-3.486-2.124-3.486-4.744,1.56-4.745,3.486-4.745,3.485,2.124,3.485,4.745" transform="translate(-15.88 -3.645)" fill="#ffa492"/>
        <path id="Trazado_205816" data-name="Trazado 205816" d="M161.51,211.12v3.241a3.166,3.166,0,0,1-.949,0,.065.065,0,0,1-.095,0c-9.016,0-17.651-.1-25.812-.285-.047-.382-.1-.764-.143-1.1-.095-1.049-.189-2-.284-3-.048-.715-.1-1.382-.143-2.049-.095-1.192-.189-2.336-.237-3.432-.048-.286-.048-.572-.095-.858-.143-2.622-.238-5.1-.285-7.483-.047-1.525-.047-3.051-.047-4.528v-.906c.284.1.522.144.807.239.189.048.331.1.522.143a225.052,225.052,0,0,0,25.574,6.292,3.261,3.261,0,0,0,.617.1c.047,0,.047.048.095.048h.095c.095,1.907.19,3.861.238,5.815.047,1.144.047,2.241.047,3.432a9.247,9.247,0,0,1,.047,1.144c.047,1.049.047,2.1.047,3.193" transform="translate(-11.963 -16.305)" fill="#ffa492"/>
        <path id="Trazado_205817" data-name="Trazado 205817" d="M191.322,190.719v1.192c0,3.575-.095,7.388-.38,11.487v.476c-.047,1-.143,2-.19,3.051a7.166,7.166,0,0,0-.095,1c-.095.859-.142,1.764-.284,2.717-.048.858-.143,1.717-.238,2.622-.047.334-.095.715-.143,1.049-6.168.048-12.621.1-19.168.1-2.23,0-4.412,0-6.548-.048a.065.065,0,0,1-.095,0,3.173,3.173,0,0,1-.949,0V211.12c0-1.1,0-2.145.048-3.194a9.243,9.243,0,0,1,.047-1.143c-.047-1.192,0-2.288.047-3.432.047-1.954.095-3.909.189-5.815h.238l.569-.143h.143c1.47-.286,2.941-.572,4.412-.905.569-.1,1.091-.191,1.66-.334,6.975-1.478,13.854-3.289,20.592-5.386.048,0,.1-.048.143-.048" transform="translate(-14.636 -16.305)" fill="#ffa492"/>
        <path id="Trazado_205818" data-name="Trazado 205818" d="M192.133,181.483a98.732,98.732,0,0,1-66.267.179q4.315-43.449,8.629-86.9c-4.146,1.54-7.88.948-9.083-1.074-1.53-2.571,1.444-6.756,2.27-7.921,5.292-7.446,15.5-8.145,19.208-8.216l2.463-5.409,12.263,4.833,10.251-4.766,4.866,5.907c1.274-.311,10.665-2.451,16.768,3.586,2.232,2.208,6.15,7.611,3.931,11.257-1.6,2.631-5.982,3.663-10.512,2q2.607,43.26,5.213,86.519" transform="translate(-11.206 -6.168)" fill="#5038a1"/>
        <path id="Trazado_205819" data-name="Trazado 205819" d="M128.607,130.664l-16.481-8.343c.672-3.629,8.973-46.982,22.645-47.255,1.74-.036,3.884.621,6.4,2.937q-.6,7.656-1.19,15.31-5.686,18.677-11.371,37.351" transform="translate(-10.053 -6.417)" fill="#5038a1"/>
        <path id="Trazado_205820" data-name="Trazado 205820" d="M174.628,132.226q.007,2.34.014,4.68A51.1,51.1,0,0,0,202,141.237a49.418,49.418,0,0,0,7.39-1.528q-.363-6.122-.726-12.246a28.748,28.748,0,0,0-5.806-.375c-9.879.382-14.253,5.74-23.8,5.591a25.8,25.8,0,0,1-4.424-.454" transform="translate(-15.657 -10.863)" fill="#ffa492"/>
        <path id="Trazado_205821" data-name="Trazado 205821" d="M184.808,145.078a37.255,37.255,0,0,0,14.772,2.283,38.642,38.642,0,0,0,14.951-3.956,34.367,34.367,0,0,0-.046-11.027c-1.484-8.66-5.952-13.131-7.108-14.214l-25.9,10.421,3.326,16.494" transform="translate(-16.272 -10.102)" fill="#5038a1"/>
        <path id="Trazado_205822" data-name="Trazado 205822" d="M214.815,129.787l-23.342-1.744q-3.158-17.207-6.315-34.415L202.6,87.864a316.3,316.3,0,0,1,9.448,30.272q1.531,5.937,2.77,11.651" transform="translate(-16.601 -7.512)" fill="#5038a1"/>
        <path id="Trazado_205823" data-name="Trazado 205823" d="M169.768,129.688l-4.361,2.455-31.15-65.365c6.536-3.233,9.556-1.971,11.1-.044,1.889,2.366,2.1,6.425,4.117,7.219,1.352.532,1.977-1.007,3.857-1.4,2.286-.483,4.559,1.115,6.271,2.764q5.087,27.187,10.171,54.375" transform="translate(-12.038 -5.539)" fill="#fedc72"/>
        <path id="Trazado_205824" data-name="Trazado 205824" d="M175.119,147.113a1.612,1.612,0,0,1-.584,1.586c-.452.262-1.02.029-1.377-.569l-5.666-12.142c-.072-1.931.27-2.668.626-2.968s.68-.133,1.431-.616c.546-.352.578-.571.88-.647.37-.092.953.074,1.876,1.289l2.813,14.066" transform="translate(-15.017 -11.262)" fill="#ffb27d"/>
        <path id="Trazado_205825" data-name="Trazado 205825" d="M154.381,97.468l3.448,3.147a110.351,110.351,0,0,1-24.022,33.264,106.116,106.116,0,0,1-8.484,7.181l-8.335-9a63.716,63.716,0,0,1,5.5-6.7c10.115-10.71,18.43-11.979,27.825-22.679a56.99,56.99,0,0,0,4.067-5.215" transform="translate(-10.489 -8.333)" fill="#ffa492"/>
        <path id="Trazado_205826" data-name="Trazado 205826" d="M154.459,117.664a80.693,80.693,0,0,1-30.82,31.873,23.1,23.1,0,0,1-8.11-7.43,24.493,24.493,0,0,1-3.439-17.4l33.48-21.771,8.889,14.731" transform="translate(-10.017 -8.8)" fill="#5038a1"/>
        <path id="Trazado_205827" data-name="Trazado 205827" d="M181.562,141.971l-15.442-2.477q-1.946-2.38-3.893-4.758-.747-5.215-1.493-10.429l9.171-5.432,5.017,4.259.606,6.453,5.71.261a12.954,12.954,0,0,1,1.687,7.1,12.729,12.729,0,0,1-1.363,5.019" transform="translate(-14.411 -10.163)" fill="#fff"/>
        <path id="Trazado_205828" data-name="Trazado 205828" d="M155.6,110.07l-4.111-5.824,4.658-12.658,8.175-.13,5.21,1.651c.083,3.632-.067,4.989-.235,5.519a2.919,2.919,0,0,0-.13,1.39,2.779,2.779,0,0,0,.173.609,6.186,6.186,0,0,1,.454,3.888c-.114.322-.141.2-.756,1.183a22.723,22.723,0,0,0-1.212,2.185L155.6,110.07" transform="translate(-13.582 -7.819)" fill="#fff"/>
        <path id="Trazado_205829" data-name="Trazado 205829" d="M149.292,47.23c0,2.629-.614,4.76-1.372,4.76s-1.371-2.131-1.371-4.76.614-4.76,1.371-4.76,1.372,2.131,1.372,4.76" transform="translate(-13.14 -3.631)" fill="#5038a1"/>
        <path id="Trazado_205830" data-name="Trazado 205830" d="M180.667,46.2c0,2.629-.614,4.76-1.372,4.76s-1.371-2.131-1.371-4.76.614-4.76,1.371-4.76,1.372,2.131,1.372,4.76" transform="translate(-15.953 -3.543)" fill="#5038a1"/>
        <path id="Trazado_205831" data-name="Trazado 205831" d="M177.34,40.673a3.181,3.181,0,0,1-1.72,3.357c-1.192.522-2.25-.439-5.677-1.271a26.2,26.2,0,0,0-2.95-.548c-6.186-.712-9.4,4.482-13.876,3.068a7.118,7.118,0,0,0-2.947-.615c-2.05.109-3.37,1.327-3.576,1.06-.188-.243.758-1.479,2.056-2.482a11.126,11.126,0,0,1,4.466-2.036c4.577-.968,22.851-4.707,24.223-.534" transform="translate(-13.142 -3.312)" fill="#5038a1"/>
        <path id="Trazado_205832" data-name="Trazado 205832" d="M123.655,116.7a.178.178,0,0,1-.087-.334l20.55-11.732a.174.174,0,0,1,.242.068.178.178,0,0,1-.066.242l-20.551,11.732a.165.165,0,0,1-.087.024" transform="translate(-11.071 -8.944)" fill="#b2b2b2"/>
        <path id="Trazado_205833" data-name="Trazado 205833" d="M134.629,109.935a.176.176,0,0,1-.172-.137l-3.182-13.134a.177.177,0,0,1,.13-.215.173.173,0,0,1,.214.131l3.182,13.135a.177.177,0,0,1-.13.215.165.165,0,0,1-.042.005" transform="translate(-11.77 -8.245)" fill="#b2b2b2"/>
        <path id="Trazado_205834" data-name="Trazado 205834" d="M131.066,147.59a.181.181,0,0,1-.134-.06.179.179,0,0,1,.015-.252l20.644-18.289a.179.179,0,0,1,.237.268l-20.644,18.289a.184.184,0,0,1-.118.045" transform="translate(-11.735 -11.024)" fill="#b2b2b2"/>
        <path id="Trazado_205835" data-name="Trazado 205835" d="M183.453,130.022a.177.177,0,0,1-.171-.132.179.179,0,0,1,.124-.219l13.433-3.761a.172.172,0,0,1,.218.124.179.179,0,0,1-.124.219L183.5,130.014a.142.142,0,0,1-.047.007" transform="translate(-16.433 -10.763)" fill="#b2b2b2"/>
        <path id="Trazado_205836" data-name="Trazado 205836" d="M195.989,121.237a.177.177,0,0,1-.172-.134l-5.158-20.183a.179.179,0,0,1,.127-.218.173.173,0,0,1,.218.128l5.157,20.184a.178.178,0,0,1-.127.218.2.2,0,0,1-.045.005" transform="translate(-17.094 -8.609)" fill="#b2b2b2"/>
        <path id="Trazado_205837" data-name="Trazado 205837" d="M165.188,87.46a.179.179,0,0,1-.079-.339l12.236-6.055a.178.178,0,0,1,.239.081.182.182,0,0,1-.081.241l-12.236,6.054a.179.179,0,0,1-.079.018" transform="translate(-14.795 -6.929)" fill="#b2b2b2"/>
        <path id="Trazado_205838" data-name="Trazado 205838" d="M148.282,152.754a1.514,1.514,0,1,1-1.514-1.521,1.517,1.517,0,0,1,1.514,1.521" transform="translate(-13.024 -12.929)" fill="#fff"/>
        <path id="Trazado_205839" data-name="Trazado 205839" d="M163.217,152.422A1.514,1.514,0,1,1,161.7,150.9a1.517,1.517,0,0,1,1.514,1.521" transform="translate(-14.363 -12.901)" fill="#fff"/>
        <path id="Trazado_205840" data-name="Trazado 205840" d="M148.282,173a1.514,1.514,0,1,1-1.514-1.521A1.517,1.517,0,0,1,148.282,173" transform="translate(-13.024 -14.66)" fill="#fff"/>
        <path id="Trazado_205841" data-name="Trazado 205841" d="M163.217,172.664a1.514,1.514,0,1,1-1.514-1.521,1.518,1.518,0,0,1,1.514,1.521" transform="translate(-14.363 -14.631)" fill="#fff"/>
        <path id="Trazado_205842" data-name="Trazado 205842" d="M207.551,213.213c0,2.405-21.69,4.355-48.446,4.355s-48.446-1.95-48.446-4.355,21.69-4.355,48.446-4.355,48.446,1.95,48.446,4.355" transform="translate(-9.922 -17.856)" fill="#fff"/>
        <path id="Trazado_205843" data-name="Trazado 205843" d="M183.146,189.023l-41.544-.347a51.821,51.821,0,0,1-1.877-9.964,55.879,55.879,0,0,1,.154-11.512,21.364,21.364,0,0,1,5.232-2.253c4.5-1.235,6.178.061,13.166.049,6.25-.011,5.838-1.049,8.622-.265,3.519.992,5.105,2.913,8.616,2.326,1.47-.246,2.081-.732,3.939-.839a12.335,12.335,0,0,1,5.478.981c.012,3.6-.124,7.74-.54,12.275-.323,3.514-.763,6.708-1.245,9.547" transform="translate(-12.508 -14.056)" fill="#fedc72"/>
        <path id="Trazado_205844" data-name="Trazado 205844" d="M186.4,167.818c.069.513.23,3.173-.4,3.621-.24.171-.453-.083-.668.14-.4.414-.162,1.811-.086,2.918.2,2.876-.563,5.782-.985,5.79-.34.007-.741-1.869-.8-3.6-.094-2.809.746-4.473.369-4.964s-1.14,1.139-2.446,1.511c-2.227.632-2.968-3.223-5.908-3.885-2.22-.5-2.68,1.5-5.216.647-.949-.318-.99-.634-3-1.657-2.3-1.173-3.455-1.76-3.934-1.238-1.544,1.682.87,10.064-.171,10.806-.32.228-.82-.366-1.069-.788-1.3-2.208.608-6.017-.48-8.093-.817-1.559-2.91-1.36-4.178-.611-1.425.842-1.583,2.25-2.677,2.3-1.2.057-1.458-1.622-2.93-2.195-1.446-.562-1.653.881-3.809,1.116-1.473.16-1.742-.474-5.585-1.079-1.312-.207-1.53-.173-1.776.059-1.705,1.61-.352,8.611-1.14,8.934-.347.143-.982-1.063-1.146-2.231a11.427,11.427,0,0,1,.023-1.724c.01-.993-.06-1.364-.206-3.352-.109-1.5-.164-2.249-.156-2.43.209-4.535,24.188-4.6,24.188-4.6,7.62-.022,23.567.026,24.188,4.6" transform="translate(-12.375 -13.953)" fill="#fff"/>
        <path id="Trazado_205845" data-name="Trazado 205845" d="M193.613,211.005l-64.627-.348a36.124,36.124,0,0,1-2.681-21.536,44.416,44.416,0,0,1,8.138-2.259c7-1.238,9.61.062,20.482.049,9.722-.011,9.081-1.052,13.412-.265,5.475.994,7.942,2.92,13.4,2.332,2.288-.246,3.238-.733,6.128-.84a28.7,28.7,0,0,1,8.521.983,84.077,84.077,0,0,1-2.777,21.883" transform="translate(-11.272 -15.929)" fill="#fedc72"/>
        <path id="Trazado_205846" data-name="Trazado 205846" d="M198.673,189.741c.108.514.359,3.182-.623,3.631-.375.172-.706-.082-1.041.141-.62.415-.251,1.815-.134,2.926.3,2.884-.876,5.8-1.532,5.806-.53.006-1.153-1.875-1.243-3.607-.146-2.818,1.16-4.486.574-4.978s-1.774,1.143-3.806,1.514c-3.463.635-4.616-3.231-9.191-3.895-3.454-.5-4.168,1.5-8.115.649-1.477-.319-1.54-.636-4.669-1.663-3.584-1.176-5.376-1.764-6.119-1.241-2.4,1.686,1.353,10.092-.267,10.835-.5.229-1.275-.367-1.662-.79-2.018-2.213.945-6.033-.746-8.115-1.27-1.564-4.528-1.364-6.5-.614-2.217.845-2.463,2.257-4.165,2.309-1.871.057-2.27-1.627-4.56-2.2-2.249-.563-2.572.883-5.924,1.118-2.291.161-2.71-.475-8.688-1.082-2.04-.208-2.381-.173-2.763.06-2.653,1.614-.548,8.634-1.773,8.958-.54.143-1.528-1.066-1.783-2.238a7.538,7.538,0,0,1,.036-1.729,24.621,24.621,0,0,0-.32-3.361c-.17-1.5-.256-2.255-.242-2.436.326-4.548,37.626-4.616,37.627-4.616,11.854-.022,36.66.026,37.627,4.616" transform="translate(-11.066 -15.826)" fill="#fff"/>
        <path id="Trazado_205847" data-name="Trazado 205847" d="M172.251,148.361c-1.543,1.882-.139,4.054,2.049,4.354.325.037.651.059.979.065q.467-1.358-.552-.684a18.83,18.83,0,0,0-2.12.42c-1.352.173-2.7.268-4.036.561-1.468.323-1.346,2.131-.375,2.882a17.435,17.435,0,0,1,2.866,2.336l-.46-1.115-.033.255q.229-.558.46-1.115c.361-.342-.6-.062-.921-.052-.721.025-1.442.033-2.163.037-1.34.007-2.68-.011-4.02,0a49.45,49.45,0,0,0-7.178.46c-1.653.25-4.635.59-5.5,2.259-1.057,2.036,1.518,3.127,3.069,3.408,4.725.86,9.752.743,14.537.705,5.077-.041,10.2-.38,15.156.947a1.577,1.577,0,0,0,.835-3.04c-5.139-1.374-10.424-1.115-15.687-1.063q-3.957.04-7.914-.12c-1.259-.051-2.521-.107-3.777-.206-.67-.052-3.154-.007-3.545-.541l.158,1.214.115-.278-.721.942c1.979-1.33,5.083-1.364,7.369-1.47,2.573-.119,5.149-.037,7.722-.066,1.566-.017,4.452.375,5.089-1.6.657-2.041-2.618-3.648-3.872-4.617q-.187,1.44-.375,2.882c2.5-.551,6.438-.088,8.371-2.128a2.407,2.407,0,0,0,.2-3.046,3,3,0,0,0-1.417-1.075,4.026,4.026,0,0,0-1.041-.212c-1.085-.107-.256-.035-1.051.936,1.274-1.555-.934-3.8-2.219-2.23" transform="translate(-13.539 -12.638)" fill="#fff"/>
        <path id="Trazado_205848" data-name="Trazado 205848" d="M178.256,40.323c.416-3.257.34-7.149-2.011-9.191-2.692-2.336-5.974-.175-14.923.2-9.565.4-13.856-1.739-15.767.848-.782,1.058-1.407,3.236.844,8.147a2.635,2.635,0,0,0,.614,1.323c2.115,2.327,8.158-1.011,13.854-2.105,3.828-.736,9.249-.795,16.339,2.084Z" transform="translate(-12.986 -2.57)" fill="#fff"/>
        <path id="Trazado_205849" data-name="Trazado 205849" d="M139.991,17.513c-.843,2.234-2.387,6.327-.778,9.646,1.554,3.207,5.33,4.2,9.407,5.28,4.121,1.087,4.492.007,9.539,1.3a6.823,6.823,0,0,0,3.7.261c2.32-.61,2.295-2.333,4.153-2.737,2.489-.542,3.9,2.255,6.747,1.564a6.6,6.6,0,0,0,1.882-.978c4.013-2.434,6.019-3.651,6.423-4.237,1.839-2.664,1.144-7.324-1.135-9.875-1.738-1.944-3-1.094-6.91-3.552-3.488-2.19-3.145-3.277-5.969-4.889A16.353,16.353,0,0,0,157.1,7.389c-4.224.637-3.468,2.566-9.6,4.345-2.132.619-4.207.961-5.883,2.847a9,9,0,0,0-1.622,2.933" transform="translate(-12.419 -0.618)" fill="#fff"/>
      </g>
    </g>
  </g>
</svg>
