<svg xmlns="http://www.w3.org/2000/svg" xmlns:xlink="http://www.w3.org/1999/xlink" width="191.037" height="188.736" viewBox="0 0 191.037 188.736">
  <defs>
    <clipPath id="clip-path">
      <rect id="Rectángulo_47072" data-name="Rectángulo 47072" width="78.068" height="117.969" fill="none"/>
    </clipPath>
  </defs>
  <g id="Grupo_161147" data-name="Grupo 161147" transform="translate(-1125 -4753.177)">
    <g id="Grupo_161146" data-name="Grupo 161146">
      <g id="Grupo_130954" data-name="Grupo 130954" transform="translate(1125 4792.433)">
        <ellipse id="Elipse_4784" data-name="Elipse 4784" cx="95" cy="49.984" rx="95" ry="49.984" transform="translate(0 0)" fill="#8c6df2" opacity="0.25"/>
      </g>
      <path id="Trazado_138318" data-name="Trazado 138318" d="M130.7,135.515c-3.173-5.04-6.385-9.925-9.693-14.525s-6.689-8.948-10.148-12.909a88.187,88.187,0,0,0-10.569-10.432,37.892,37.892,0,0,0-5.358-3.686c-.442-.232-.889-.482-1.327-.674-.22-.1-.441-.208-.661-.3l-.655-.257c-.441-.177-.856-.307-1.286-.46-.418-.118-.843-.254-1.254-.343a14.792,14.792,0,0,0-8.863.641A37.7,37.7,0,0,0,73.732,96.5c-1.111.727-2.208,1.427-3.3,2.049-.547.317-1.094.6-1.642.873-.275.125-.548.261-.824.374l-.854.355a39.482,39.482,0,0,1-7.12,2.336,20.282,20.282,0,0,1-3.612.427,17.011,17.011,0,0,1-1.821-.051,16.043,16.043,0,0,1-1.829-.277,16.752,16.752,0,0,1-7.02-3.394c-.545-.435-1.078-.906-1.6-1.408-.26-.248-.517-.512-.771-.776l-.378-.406c-.116-.133-.231-.258-.346-.4a32.05,32.05,0,0,1-2.678-3.629c-.213-.336-.424-.674-.631-1.022l-.793-1.309c-.274-.451-.531-.912-.8-1.36s-.508-.911-.762-1.359c-.993-1.811-1.88-3.616-2.675-5.4s-1.5-3.54-2.111-5.3-1.154-3.505-1.608-5.273a74.2,74.2,0,0,1-1.957-10.738c-.179-1.651-3.426-10.058,1.475-24.4s9.08-26.374-.672-34.74S-.537,3.046,1.065,34.02s20,57.747,22.013,61.278,4.1,6.848,6.195,9.888c.525.748,1.049,1.506,1.574,2.233s1.05,1.446,1.574,2.137l.786,1.029c.267.348.505.662.822,1.065q.9,1.153,1.808,2.232a58.77,58.77,0,0,0,7.331,7.421c.3.257.609.5.913.739s.587.45.879.667c.582.426,1.161.832,1.731,1.2a29.417,29.417,0,0,0,3.333,1.888,20.2,20.2,0,0,0,5.99,1.861,15.679,15.679,0,0,0,5.054-.114,20.269,20.269,0,0,0,8.017-3.609,49.446,49.446,0,0,0,6.392-5.676l.77-.79c.264-.271.514-.557.769-.836.5-.571.986-1.15,1.451-1.745.938-1.184,1.817-2.4,2.69-3.58a46.65,46.65,0,0,1,5.29-6.374,10.776,10.776,0,0,1,6.333-3.19c.3-.038.61-.033.917-.049l.473.019.237.009c.079.006.16.023.24.034l.482.073c.163.03.331.076.5.112.328.064.675.187,1.017.288s.7.253,1.053.392c.361.167.715.3,1.086.494l.552.275c.185.094.373.2.56.307.373.2.754.438,1.135.675s.768.5,1.153.753.778.551,1.169.829c.394.307.787.6,1.184.921s.794.638,1.193.986c.8.675,1.6,1.4,2.408,2.172.4.382.807.768,1.211,1.175l.607.605.606.632a107.925,107.925,0,0,1,9.605,11.66,143.346,143.346,0,0,1,8.973,14.159c.81,1.462,1.858,2.1,2.341,1.429s.218-2.4-.591-3.866q-.086-.156-.175-.3Z" transform="translate(1315.656 4834.658) rotate(126)" fill="#fdb74d"/>
      <g id="Grupo_156173" data-name="Grupo 156173" transform="translate(1179.945 4782.949)">
        <g id="Grupo_156172" data-name="Grupo 156172" clip-path="url(#clip-path)">
          <path id="Trazado_204893" data-name="Trazado 204893" d="M85.873,213.97s-2.348,4.486,1.177,5.975,5.666-2.018,6.408-4.355,1.219-3.795.51-3.922-5.607-.928-8.1,2.3" transform="translate(-41.18 -102.333)" fill="#3f434c"/>
          <path id="Trazado_204894" data-name="Trazado 204894" d="M27.412,197.98s-2.348,4.486,1.176,5.975S34.255,201.937,35,199.6s1.219-3.795.51-3.922-5.607-.928-8.1,2.3" transform="translate(-12.893 -94.596)" fill="#3f434c"/>
          <path id="Trazado_204895" data-name="Trazado 204895" d="M106.644,32.615a.928.928,0,0,1-.714-1.1l5.147-24.094a1.042,1.042,0,0,0-.652-1.188L99.439,3.161a1.036,1.036,0,0,0-1.374.755l-5,23.429a.928.928,0,0,1-1.816-.388L96.25,3.528a2.892,2.892,0,0,1,3.836-2.107l10.986,3.071a2.909,2.909,0,0,1,1.821,3.315L107.745,31.9a.928.928,0,0,1-1.1.714" transform="translate(-44.14 -0.6)" fill="#606060"/>
          <path id="Trazado_204896" data-name="Trazado 204896" d="M18.209,46.1a4.975,4.975,0,0,1,4.377-3.812c5.107-.482,14.219-1.17,17.2-.29C44,43.25,78.359,52.056,78.68,55.4s-14.664,76.318-19.05,76.25-15.42,3.121-17.858,2.416S1.727,123,1.281,121.265c-.389-1.513,13.4-60.193,16.928-75.16" transform="translate(-0.616 -20.119)" fill="#5038a1"/>
          <path id="Trazado_204897" data-name="Trazado 204897" d="M14.65,56.492s.833-9.6,3.871-9.892,42.8,9.24,42.956,14.579-14.24,67.746-18.883,71.434C41.84,133.212.28,122.9,0,119.352S14.65,56.492,14.65,56.492" transform="translate(0 -22.545)" fill="#8c6df2"/>
          <path id="Trazado_204898" data-name="Trazado 204898" d="M114.99,3.292l-.051-.017L103.978.211a3.533,3.533,0,0,0-4.659,2.582l-.444,2.08a.639.639,0,0,0,.458.751l1.795.485.034.008a.639.639,0,0,0,.759-.492l.465-2.177a.394.394,0,0,1,.525-.289l.051.017,10.954,3.062a.4.4,0,0,1,.231.446l-.467,2.188a.639.639,0,0,0,.459.751l1.795.485.033.008a.639.639,0,0,0,.759-.492l.488-2.284a3.551,3.551,0,0,0-2.223-4.049" transform="translate(-47.836 0)" fill="#606060"/>
          <path id="Trazado_204899" data-name="Trazado 204899" d="M80.133,132.595a.541.541,0,0,1-.145-.02.547.547,0,0,1-.384-.672l1.158-4.257a.547.547,0,1,1,1.057.287l-1.158,4.258a.547.547,0,0,1-.528.4m2.886-10.623a.531.531,0,0,1-.143-.02.548.548,0,0,1-.386-.671l1.722-6.36a.548.548,0,0,1,1.058.286l-1.722,6.36a.548.548,0,0,1-.529.4m3.44-12.719a.547.547,0,0,1-.529-.69l1.712-6.359a.548.548,0,0,1,1.058.284l-1.713,6.359a.547.547,0,0,1-.528.405m3.419-12.719a.54.54,0,0,1-.142-.019.548.548,0,0,1-.388-.67c.575-2.148,1.145-4.28,1.7-6.361a.548.548,0,0,1,1.059.282c-.555,2.082-1.125,4.215-1.7,6.363a.548.548,0,0,1-.529.406m3.39-12.728a.547.547,0,0,1-.53-.687c.6-2.266,1.163-4.409,1.674-6.37a.548.548,0,0,1,1.06.276C94.959,78.987,94.4,81.131,93.8,83.4a.548.548,0,0,1-.529.408m3.318-12.759a.547.547,0,0,1-.532-.681c.5-1.981.839-3.392,1.01-4.19s.323-1.528.46-2.213a.548.548,0,0,1,1.074.216c-.138.689-.293,1.429-.463,2.226-.173.812-.516,2.234-1.018,4.229a.548.548,0,0,1-.531.414M98.9,58.116a.548.548,0,0,1-.547-.523,3.49,3.49,0,0,0-1.07-2.646,12.8,12.8,0,0,0-2.758-1.192.548.548,0,0,1,.382-1.026,11.006,11.006,0,0,1,3.126,1.421,4.592,4.592,0,0,1,1.414,3.394.548.548,0,0,1-.522.572H98.9M88.482,51.634a.54.54,0,0,1-.172-.028c-1.826-.6-3.933-1.285-6.264-2.026a.548.548,0,1,1,.332-1.044c2.335.743,4.447,1.426,6.276,2.03a.548.548,0,0,1-.172,1.068m-12.556-4a.555.555,0,0,1-.163-.025c-2.152-.669-4.282-1.324-6.295-1.941a.547.547,0,1,1,.321-1.047c2.013.616,4.146,1.272,6.3,1.941a.548.548,0,0,1-.163,1.071m-12.6-3.858a.544.544,0,0,1-.158-.024c-3.8-1.147-6.328-1.9-6.329-1.9a.548.548,0,1,1,.312-1.05s2.532.752,6.333,1.9a.548.548,0,0,1-.158,1.072" transform="translate(-27.311 -19.731)" fill="#fff"/>
          <path id="Trazado_204900" data-name="Trazado 204900" d="M57.574,97.239,50.38,95.162a1.822,1.822,0,0,0-1.011,3.5l7.193,2.076a1.822,1.822,0,1,0,1.011-3.5" transform="translate(-23.251 -46.012)" fill="#fcf8eb"/>
        </g>
      </g>
    </g>
  </g>
</svg>
