<svg xmlns="http://www.w3.org/2000/svg" width="136.973" height="136.973" viewBox="0 0 136.973 136.973">
  <g id="Grupo_161155" data-name="Grupo 161155" transform="translate(3336.429 6445.44)">
    <g id="Grupo_155495" data-name="Grupo 155495" transform="translate(-3336.429 -6445.44)">
      <g id="Trazado_137458" data-name="Trazado 137458" transform="translate(0 0)" fill="#fff">
        <path d="M 68.48631286621094 131.9726409912109 C 59.91350936889648 131.9726409912109 51.59981155395508 130.2947692871094 43.77611541748047 126.9856185913086 C 40.01535797119141 125.3949661254883 36.38774871826172 123.4259033203125 32.9940071105957 121.1331405639648 C 29.6312255859375 118.8612899780273 26.46885681152344 116.2520523071289 23.5947265625 113.3779220581055 C 20.72059631347656 110.503791809082 18.11135673522949 107.341423034668 15.83950805664062 103.9786376953125 C 13.5467472076416 100.5848999023438 11.57768249511719 96.95726776123047 9.987030029296875 93.196533203125 C 6.677877902984619 85.37283325195312 5.000008583068848 77.05912017822266 5.000008583068848 68.48631286621094 C 5.000008583068848 59.91350936889648 6.677877902984619 51.59981155395508 9.987030029296875 43.77611541748047 C 11.57768249511719 40.01535797119141 13.5467472076416 36.38774871826172 15.83950805664062 32.9940071105957 C 18.11135673522949 29.6312255859375 20.72059631347656 26.46885681152344 23.5947265625 23.5947265625 C 26.46885681152344 20.72059631347656 29.6312255859375 18.11135673522949 32.9940071105957 15.83950805664062 C 36.38774871826172 13.5467472076416 40.01535797119141 11.57768249511719 43.77611541748047 9.987030029296875 C 51.59981155395508 6.677877902984619 59.91350936889648 5.000008583068848 68.48631286621094 5.000008583068848 C 77.05912017822266 5.000008583068848 85.37283325195312 6.677877902984619 93.196533203125 9.987030029296875 C 96.95726776123047 11.57768249511719 100.5848999023438 13.5467472076416 103.9786376953125 15.83950805664062 C 107.341423034668 18.11135673522949 110.503791809082 20.72059631347656 113.3779220581055 23.5947265625 C 116.2520523071289 26.46885681152344 118.8612899780273 29.6312255859375 121.1331405639648 32.9940071105957 C 123.4259033203125 36.38774871826172 125.3949661254883 40.01535797119141 126.9856185913086 43.77611541748047 C 130.2947692871094 51.59981155395508 131.9726409912109 59.91350936889648 131.9726409912109 68.48631286621094 C 131.9726409912109 77.05912017822266 130.2947692871094 85.37283325195312 126.9856185913086 93.196533203125 C 125.3949661254883 96.95726776123047 123.4259033203125 100.5848999023438 121.1331405639648 103.9786376953125 C 118.8612899780273 107.341423034668 116.2520523071289 110.503791809082 113.3779220581055 113.3779220581055 C 110.503791809082 116.2520523071289 107.341423034668 118.8612899780273 103.9786376953125 121.1331405639648 C 100.5848999023438 123.4259033203125 96.95726776123047 125.3949661254883 93.196533203125 126.9856185913086 C 85.37283325195312 130.2947692871094 77.05912017822266 131.9726409912109 68.48631286621094 131.9726409912109 Z" stroke="none"/>
        <path d="M 68.48631286621094 10.00000762939453 C 36.23686981201172 10.00000762939453 10.00000762939453 36.23686981201172 10.00000762939453 68.48631286621094 C 10.00000762939453 100.7357559204102 36.23686981201172 126.9726181030273 68.48631286621094 126.9726181030273 C 100.7357559204102 126.9726181030273 126.9726181030273 100.7357559204102 126.9726181030273 68.48631286621094 C 126.9726181030273 36.23686981201172 100.7357559204102 10.00000762939453 68.48631286621094 10.00000762939453 M 68.48631286621094 0 C 106.3102569580078 0 136.9726257324219 30.66236877441406 136.9726257324219 68.48631286621094 C 136.9726257324219 106.3102569580078 106.3102569580078 136.9726257324219 68.48631286621094 136.9726257324219 C 30.66236877441406 136.9726257324219 0 106.3102569580078 0 68.48631286621094 C 0 30.66236877441406 30.66236877441406 0 68.48631286621094 0 Z" stroke="none" fill="#8c6df2"/>
      </g>
    </g>
    <circle id="Elipse_4752" data-name="Elipse 4752" cx="60.161" cy="60.161" r="60.161" transform="translate(-3327.429 -6437.114)" fill="#fedc72"/>
    <g id="Grupo_156191" data-name="Grupo 156191" transform="translate(-3295.128 -6415.246)">
      <path id="Trazado_204903" data-name="Trazado 204903" d="M222.057,38.715a3.357,3.357,0,1,0-3.357-3.357A3.346,3.346,0,0,0,222.057,38.715Z" transform="translate(-214.497 -32)" fill="#5038a1"/>
      <g id="Grupo_156179" data-name="Grupo 156179" transform="translate(0 7.471)">
        <path id="Trazado_204904" data-name="Trazado 204904" d="M182.927,115h-6.733A4.309,4.309,0,0,0,172,119.356v10.225a1.4,1.4,0,1,0,2.79,0V120.13h.54v25.706a1.937,1.937,0,1,0,3.87,0V131.022h.72v14.824a1.937,1.937,0,1,0,3.87-.009V120.13h.45v9.451a1.441,1.441,0,1,0,2.88,0V119.356A4.321,4.321,0,0,0,182.927,115Z" transform="translate(-172 -115)" fill="#5038a1"/>
      </g>
    </g>
    <g id="Grupo_156192" data-name="Grupo 156192" transform="translate(-3274.746 -6415.246)">
      <path id="Trazado_204903-2" data-name="Trazado 204903" d="M222.057,38.715a3.357,3.357,0,1,0-3.357-3.357A3.346,3.346,0,0,0,222.057,38.715Z" transform="translate(-214.497 -32)" fill="#5038a1"/>
      <g id="Grupo_156179-2" data-name="Grupo 156179" transform="translate(0 7.471)">
        <path id="Trazado_204904-2" data-name="Trazado 204904" d="M182.927,115h-6.733A4.309,4.309,0,0,0,172,119.356v10.225a1.4,1.4,0,1,0,2.79,0V120.13h.54v25.706a1.937,1.937,0,1,0,3.87,0V131.022h.72v14.824a1.937,1.937,0,1,0,3.87-.009V120.13h.45v9.451a1.441,1.441,0,1,0,2.88,0V119.356A4.321,4.321,0,0,0,182.927,115Z" transform="translate(-172 -115)" fill="#5038a1"/>
      </g>
    </g>
    <g id="Grupo_156193" data-name="Grupo 156193" transform="translate(-3254.364 -6415.246)">
      <path id="Trazado_204903-3" data-name="Trazado 204903" d="M222.057,38.715a3.357,3.357,0,1,0-3.357-3.357A3.346,3.346,0,0,0,222.057,38.715Z" transform="translate(-214.497 -32)" fill="#5038a1"/>
      <g id="Grupo_156179-3" data-name="Grupo 156179" transform="translate(0 7.471)">
        <path id="Trazado_204904-3" data-name="Trazado 204904" d="M182.927,115h-6.733A4.309,4.309,0,0,0,172,119.356v10.225a1.4,1.4,0,1,0,2.79,0V120.13h.54v25.706a1.937,1.937,0,1,0,3.87,0V131.022h.72v14.824a1.937,1.937,0,1,0,3.87-.009V120.13h.45v9.451a1.441,1.441,0,1,0,2.88,0V119.356A4.321,4.321,0,0,0,182.927,115Z" transform="translate(-172 -115)" fill="#5038a1"/>
      </g>
    </g>
    <g id="Grupo_156195" data-name="Grupo 156195" transform="translate(-3236.613 -6385.246)">
      <path id="Trazado_204903-4" data-name="Trazado 204903" d="M222.057,38.715a3.357,3.357,0,1,0-3.357-3.357A3.346,3.346,0,0,0,222.057,38.715Z" transform="translate(-214.497 -32)" fill="#5038a1"/>
      <g id="Grupo_156179-4" data-name="Grupo 156179" transform="translate(0 7.471)">
        <path id="Trazado_204904-4" data-name="Trazado 204904" d="M182.927,115h-6.733A4.309,4.309,0,0,0,172,119.356v10.225a1.4,1.4,0,1,0,2.79,0V120.13h.54v25.706a1.937,1.937,0,1,0,3.87,0V131.022h.72v14.824a1.937,1.937,0,1,0,3.87-.009V120.13h.45v9.451a1.441,1.441,0,1,0,2.88,0V119.356A4.321,4.321,0,0,0,182.927,115Z" transform="translate(-172 -115)" fill="#5038a1"/>
      </g>
    </g>
    <g id="Grupo_156196" data-name="Grupo 156196" transform="translate(-3312.879 -6385.246)">
      <path id="Trazado_204903-5" data-name="Trazado 204903" d="M222.057,38.715a3.357,3.357,0,1,0-3.357-3.357A3.346,3.346,0,0,0,222.057,38.715Z" transform="translate(-214.497 -32)" fill="#5038a1"/>
      <g id="Grupo_156179-5" data-name="Grupo 156179" transform="translate(0 7.471)">
        <path id="Trazado_204904-5" data-name="Trazado 204904" d="M182.927,115h-6.733A4.309,4.309,0,0,0,172,119.356v10.225a1.4,1.4,0,1,0,2.79,0V120.13h.54v25.706a1.937,1.937,0,1,0,3.87,0V131.022h.72v14.824a1.937,1.937,0,1,0,3.87-.009V120.13h.45v9.451a1.441,1.441,0,1,0,2.88,0V119.356A4.321,4.321,0,0,0,182.927,115Z" transform="translate(-172 -115)" fill="#5038a1"/>
      </g>
    </g>
    <g id="Grupo_156194" data-name="Grupo 156194" transform="translate(-3285.134 -6368.698)">
      <rect id="Rectángulo_47073" data-name="Rectángulo 47073" width="34.926" height="13.667" transform="translate(0.485 14.671)" fill="#5038a1"/>
      <path id="Línea_379" data-name="Línea 379" d="M-.515,14.852A.485.485,0,0,1-1,14.367V-.515A.485.485,0,0,1-.515-1,.485.485,0,0,1-.03-.515V14.367A.485.485,0,0,1-.515,14.852Z" transform="translate(35.926 15.186)" fill="#5038a1"/>
      <path id="Línea_380" data-name="Línea 380" d="M-.515,14.852A.485.485,0,0,1-1,14.367V-.515A.485.485,0,0,1-.515-1,.485.485,0,0,1-.03-.515V14.367A.485.485,0,0,1-.515,14.852Z" transform="translate(1 15.186)" fill="#5038a1"/>
      <path id="Trazado_204901" data-name="Trazado 204901" d="M32.553,4H5.687A2.686,2.686,0,0,0,3,6.687v9.4H5.687V13.4A1.344,1.344,0,0,1,7.03,12.06h9.4A1.344,1.344,0,0,1,17.777,13.4V16.09h2.687V13.4a1.344,1.344,0,0,1,1.343-1.343h9.4A1.344,1.344,0,0,1,32.553,13.4V16.09H35.24v-9.4A2.686,2.686,0,0,0,32.553,4Z" transform="translate(-1.171 -4)" fill="#5038a1"/>
    </g>
  </g>
</svg>
