<svg xmlns="http://www.w3.org/2000/svg" xmlns:xlink="http://www.w3.org/1999/xlink" width="282" height="241" viewBox="0 0 282 241">
  <defs>
    <clipPath id="clip-path">
      <circle id="Elipse_5368" data-name="Elipse 5368" cx="110.636" cy="110.636" r="110.636" fill="none"/>
    </clipPath>
    <clipPath id="clip-path-2">
      <path id="Trazado_188103" data-name="Trazado 188103" d="M209.318,50.214A85.4,85.4,0,0,1,220.5,65.682c23.54,39.834,14.444,83.87,11.4,97.476-4.917,21.951-8.509,40.5-23.255,55.958-24.893,26.094-68.078,30.29-105.361,18.514H36.678s-21.7-29.8-25.5-74.473c-.092-1.093,9.544-33.189,9.5-33.9-.265-4.342-53.5-56.5-53.5-56.5V49.714S62.084,42.962,71.358,37.179C113.183,11.742,176.212,14.276,209.318,50.214Z" transform="translate(1170.829 750.244)" fill="#e5e1f1"/>
    </clipPath>
    <clipPath id="clip-path-3">
      <rect id="Rectángulo_46235" data-name="Rectángulo 46235" width="259.948" height="178.843" fill="none"/>
    </clipPath>
    <clipPath id="clip-path-5">
      <rect id="Rectángulo_46225" data-name="Rectángulo 46225" width="120.146" height="94.768" fill="none"/>
    </clipPath>
    <clipPath id="clip-path-6">
      <rect id="Rectángulo_46226" data-name="Rectángulo 46226" width="73.801" height="90.241" fill="none"/>
    </clipPath>
  </defs>
  <g id="Grupo_155607" data-name="Grupo 155607" transform="translate(-1138.007 -758)">
    <g id="Grupo_132821" data-name="Grupo 132821" transform="translate(1179.007 758.334)">
      <rect id="Rectángulo_43932" data-name="Rectángulo 43932" width="241" height="241" transform="translate(0 -0.334)" fill="none"/>
      <g id="Grupo_132821-2" data-name="Grupo 132821" transform="translate(7.625 3.606)">
        <circle id="Elipse_5243" data-name="Elipse 5243" cx="42.82" cy="42.82" r="42.82" fill="#fdb74d" opacity="0.8" style="isolation: isolate"/>
        <g id="Elipse_5250" data-name="Elipse 5250" transform="translate(14.749 51.86)">
          <circle id="Elipse_5364" data-name="Elipse 5364" cx="3.33" cy="3.33" r="3.33" fill="none"/>
          <circle id="Elipse_5365" data-name="Elipse 5365" cx="2.617" cy="2.617" r="2.617" transform="translate(0.714 0.714)" fill="none" stroke="#8c6df2" stroke-width="2.372"/>
        </g>
        <circle id="Elipse_5251" data-name="Elipse 5251" cx="2.141" cy="2.141" r="2.141" transform="translate(39.49 40.441)" fill="#8c6df2"/>
      </g>
      <path id="Trazado_188103-2" data-name="Trazado 188103" d="M209.318,50.214A85.4,85.4,0,0,1,220.5,65.682c23.54,39.834,14.444,83.87,11.4,97.476-4.917,21.951-8.509,40.5-23.255,55.958-33.5,35.119-100.142,30.572-140.312,1-4.763-3.506-43.642-32.98-47.44-77.65-.092-1.093-.137-1.907-.181-2.619-.421-6.9-2.381-49.657,27.325-83.213A102.788,102.788,0,0,1,71.358,37.179C113.183,11.742,176.212,14.276,209.318,50.214Z" transform="translate(-8.178 -8.09)" fill="#e5e1f1"/>
      <path id="Trazado_139920" data-name="Trazado 139920" d="M37.808,235.332a3.388,3.388,0,0,0-.087.379,2.48,2.48,0,0,0,2.859,2.966,4.553,4.553,0,0,0,3.958-3.54,85.189,85.189,0,0,1,5.6-18.685,101.082,101.082,0,0,1,9.853-17.943l.733-1.075.767-1.055c.507-.706,1.035-1.4,1.567-2.088q1.584-2.077,3.3-4.055c.562-.665,1.158-1.3,1.733-1.955s1.19-1.271,1.782-1.905c.618-.614,1.214-1.241,1.849-1.838s1.249-1.2,1.9-1.774,1.279-1.156,1.939-1.705c.329-.276.652-.558.984-.826l1-.8c.658-.543,1.351-1.027,2.021-1.541.684-.489,1.367-.977,2.056-1.443s1.381-.924,2.085-1.34c.351-.21.7-.431,1.048-.636l1.054-.6c.177-.1.348-.2.529-.3l.549-.281,1.094-.558c.742-.345,1.472-.706,2.219-1.028a78.947,78.947,0,0,1,18.468-5.4c6.336-1.114,12.8-1.711,19.508-2.32,3.357-.308,6.775-.6,10.293-.978,1.754-.18,3.542-.4,5.346-.638.91-.129,1.815-.247,2.737-.391l2.689-.419c6.882-1.087,13.988-2.3,21.343-4a152.765,152.765,0,0,0,22.907-7.091,108.24,108.24,0,0,0,12.063-5.747,93.694,93.694,0,0,0,12.1-7.991c1.976-1.544,3.917-3.2,5.795-4.951.941-.874,1.859-1.78,2.768-2.7.451-.463.889-.91,1.341-1.4s.908-.986,1.345-1.488a76.125,76.125,0,0,0,9.144-12.821c.635-1.125,1.245-2.256,1.811-3.4.3-.6.519-1.067.771-1.578l.725-1.511c.48-1.01.928-2.04,1.366-3.073s.842-2.084,1.259-3.13A80.119,80.119,0,0,0,247.718,87.7a67.547,67.547,0,0,0,1.328-13.21,62.263,62.263,0,0,0-10.315-34.476,79.485,79.485,0,0,0-14.513-16.575,95.677,95.677,0,0,0-8.624-6.7c-1.519-1.044-3.079-2.05-4.718-3.032-.823-.49-1.66-.978-2.549-1.464-.446-.244-.9-.486-1.39-.736l-.772-.383-.439-.2-.269-.119-.406-.165c-13.6-4.756-31.625,3.124-40.246,17.6s-4.58,30.063,9.024,34.819l-.138-.069c-.032-.019-.012-.017-.012-.017l.011-.007c.007-.011.059,0,.09-.006.094.005.189.016.282.03.209.026.453.075.7.123.494.1,1.022.223,1.55.36,1.066.282,2.159.606,3.241.964a57.116,57.116,0,0,1,6.341,2.512A48.6,48.6,0,0,1,196.716,73.7a30.4,30.4,0,0,1,7.2,8.6,22.28,22.28,0,0,1,2.007,4.966,24.561,24.561,0,0,1,.848,5.561,31.438,31.438,0,0,1-.377,6.266c-.106.557-.188,1.112-.3,1.68-.133.57-.238,1.14-.384,1.72l-.432,1.685c-.1.442-.233.889-.362,1.333a24.666,24.666,0,0,1-2.33,5.225c-.122.214-.253.422-.382.633l-.445.674c-.307.451-.623.9-.964,1.349-.675.894-1.413,1.785-2.222,2.67a57.155,57.155,0,0,1-12.844,10.083q-1.942,1.177-4.014,2.268t-4.247,2.124c-2.895,1.375-5.908,2.673-9,3.9-6.191,2.466-12.686,4.655-19.387,6.811l-2.405.77c-.776.25-1.567.482-2.358.727-1.593.468-3.2.931-4.839,1.374-3.27.891-6.632,1.74-10.054,2.588-6.843,1.709-13.964,3.475-21.221,5.9a104.309,104.309,0,0,0-21.638,9.819c-.872.525-1.727,1.1-2.584,1.645-.848.586-1.685,1.141-2.532,1.753l-1.264.906c-.415.308-.82.626-1.229.938-.824.617-1.6,1.28-2.393,1.925a88.959,88.959,0,0,0-8.6,8.343,119.229,119.229,0,0,0-13.48,18.327,149,149,0,0,0-9.758,19.306,184.081,184.081,0,0,0-6.9,19.737Z" transform="translate(-15.008 -3.686)" fill="#fdb74d"/>
      <circle id="Elipse_5247" data-name="Elipse 5247" cx="16.414" cy="16.414" r="16.414" transform="translate(38.244 18.823)" fill="#8c6df2" opacity="0.7" style="isolation: isolate"/>
      <g id="Elipse_5249" data-name="Elipse 5249" transform="translate(44.609 25.287)">
        <circle id="Elipse_5369" data-name="Elipse 5369" cx="6.185" cy="6.185" r="6.185" fill="none"/>
        <circle id="Elipse_5370" data-name="Elipse 5370" cx="5.471" cy="5.471" r="5.471" transform="translate(0.714 0.714)" fill="none" stroke="#fff" stroke-width="2.372"/>
      </g>
      <g id="Elipse_5245" data-name="Elipse 5245" transform="translate(195.286 5.567)">
        <circle id="Elipse_5371" data-name="Elipse 5371" cx="17.842" cy="17.842" r="17.842" fill="none"/>
        <circle id="Elipse_5372" data-name="Elipse 5372" cx="16.89" cy="16.89" r="16.89" transform="translate(0.952 0.952)" fill="none" stroke="#fff" stroke-linecap="round" stroke-width="3.163" stroke-dasharray="2.372 6.326"/>
      </g>
    </g>
    <g id="Enmascarar_grupo_133" data-name="Enmascarar grupo 133" clip-path="url(#clip-path-2)">
      <g id="Grupo_155606" data-name="Grupo 155606" transform="translate(1140.657 805.657)">
        <g id="Grupo_155605" data-name="Grupo 155605" transform="translate(0 0)" clip-path="url(#clip-path-3)">
          <g id="Grupo_155604" data-name="Grupo 155604">
            <g id="Grupo_155603" data-name="Grupo 155603" clip-path="url(#clip-path-3)">
              <path id="Trazado_204327" data-name="Trazado 204327" d="M184.881,31.539a2.993,2.993,0,0,0-2.3-1.079s-45.294-2.4-70.791-2.4c-25.193,0-69.292,2.4-69.292,2.4a3.006,3.006,0,0,0-3,3v100.49a3,3,0,0,0,3,3H182.578a3,3,0,0,0,3-3V33.459a2.969,2.969,0,0,0-.7-1.92" transform="translate(46.743 -8.431)" fill="#5038a1"/>
              <path id="Trazado_204328" data-name="Trazado 204328" d="M22.152,19.575V136.748a3.5,3.5,0,0,0,3.5,3.5H188.992a3.5,3.5,0,0,0,3.5-3.5V19.575a3.513,3.513,0,0,0-1.021-2.476l-.028.028L177.184,29.992a2.866,2.866,0,0,1,.672,1.854v97.047a2.893,2.893,0,0,1-2.9,2.9H39.676a2.9,2.9,0,0,1-2.9-2.9V31.845a2.9,2.9,0,0,1,1.021-2.2L22.852,17.477a3.457,3.457,0,0,0-.7,2.1" transform="translate(51.961 -5.138)" fill="#fedc72"/>
              <path id="Trazado_204329" data-name="Trazado 204329" d="M23.612,15.836,38.561,28a2.879,2.879,0,0,1,1.875-.693s42.588-2.315,66.918-2.315c24.624,0,68.366,2.315,68.366,2.315a2.889,2.889,0,0,1,2.225,1.042L192.2,15.486l.028-.028a3.513,3.513,0,0,0-2.476-1.021s-52.815-2.8-82.546-2.8c-29.381,0-80.8,2.8-80.8,2.8a3.5,3.5,0,0,0-2.8,1.4" transform="translate(51.201 -3.497)" fill="#fedc72"/>
              <path id="Trazado_204330" data-name="Trazado 204330" d="M18.608,162.276,12.8,166.691a.911.911,0,0,1,.315-.05h183.07l-6.422-4.442Z" transform="translate(54.806 -48.734)" fill="#fdb74d"/>
              <path id="Trazado_204331" data-name="Trazado 204331" d="M43.315,24.91l-11.659,78.3,15.982-1.971,23.924,9.193,29.076-3.929,21.533,10.185,18.206-4.013,25.5,11.479L177.528,43.77,151.8,35.939l-18.5,3.838L111.757,29.655,83.286,31.692,59.771,21.915ZM36.522,98.49,46.1,29.1l13.153-2.939,23.468,9.29,28.054-1.619,21.914,10.015,19.15-3.9,21.147,7.038-10.644,71.487-21.3-10.31-18.558,4.376-21.872-10.459L72.14,106.545l-24.125-10Z" transform="translate(60.275 -6.585)" fill="#fff"/>
              <path id="Trazado_204332" data-name="Trazado 204332" d="M47.723,30.923l-9.583,69.39,11.493-1.943,24.126,10,28.478-4.467,21.872,10.459,18.558-4.376,21.3,10.311L174.61,48.807l-21.147-7.038-19.15,3.9L112.4,35.655,84.344,37.273l-23.467-9.29Z" transform="translate(58.658 -8.408)" fill="#fedc72"/>
              <path id="Trazado_204333" data-name="Trazado 204333" d="M85.576,70.192c1.047.248.914.065,2.687-.382s3.431-1.552,5.274-.566S96,72.312,95.308,72.636s-2.038-.162-1.626.895,1.02.792,1.4.635,1.13.524.949.781a3.017,3.017,0,0,1-1.724.6c-.268-.111-.829-1.119-1.05-.583s-.486,1.35-.069,1.412,2.084.808,1.643,1.382a3.576,3.576,0,0,1-2.185,1.31,5.339,5.339,0,0,0-1.691-.111c-.159.119-.5-1.424-.923-1.914s-2.476-.085-2.984-.018-4.41,2.4-4.983,3.382-2.792,3-2.981,4.746-.907,3.7-1.914,4.264-1.754,2.227-2.264,2.791-1.74,1.66-2.067,1.47,2.313-2.642,2.225-3.01-.391-.236-.527-.043a9.835,9.835,0,0,1-1.886,1.923,3.455,3.455,0,0,0-1.3,1.583c.008.179-.452.644-1.508,1.056a3,3,0,0,1-2.229.166c-.257-.18-.577.056-.961.248s-1.316.48-1.568.264-.511.563-.921.929a2.363,2.363,0,0,1-1.122.615c-.329.058-1-.682-1.245-.469a3.9,3.9,0,0,0-.466.5,1.112,1.112,0,0,0-.108,1.441c.557.794.886,1.447.639,2.157s.006.676-.48,1.314a10.159,10.159,0,0,0-1.019,1.589c-.3.561-2.657,1.133-2.932,2.265a29.935,29.935,0,0,0,.1,6.485c.2,1.523-.439,4.378-.737,6.146s-.718,1.956-1.267,2.3a3.327,3.327,0,0,1-2.041.336c-.119-.162,1.8-.657,1.724-1.557s-.364-.658-.442-.848.157-.58-.015-.856-.66-.346-.583-.618.813-.448.7-.892-.8-.581-.665-1.025a1.3,1.3,0,0,0-.057-1.286c-.32-.474-1.582-.841-1.889-1.633s.639-1.433.433-1.714-1.331.585-1.755-.152a12.287,12.287,0,0,1-1.183-2.56c-.1-.548.437-.787-.052-1.324s-1.81-.731-2.091-1.235a4.291,4.291,0,0,1-.585-2.042c.01-.781.439-1.037.267-1.312s-1.137-1.91-1-2.6.681-.041,1-.278a1.648,1.648,0,0,1,1.275-.451c.632.059.917.527,1.154.136s.744-.706,1.734-.665.2-.645.746-.956,2.186-.6,3.463-1.3,2.24-1.195,3.63-.739a2.451,2.451,0,0,1,1.777,1.438,1.365,1.365,0,0,1,.837-.374c.462,0,.738.537,1.2.32s.589-.374.659-1.324-.009-.89.507-.777,1.468.645,1.387-.007-.645-1.873-.425-2.16.928.21,1.13.523.073,1.184.355,1.191a1.474,1.474,0,0,0,1.579-.334,2.432,2.432,0,0,0,.739-2.342,2.111,2.111,0,0,0-.97-1.6c-.536-.222-1.126.153-1.471-.148s-1.636-.954-1.981-.544-.728,2.024-1.168,1.639.86-1.72.422-2.355-1.566-.944-1.6-1.695.679-1.214.253-1.7-.269.137-.52-.327-1.012-.364-1.1-.732.5-.744-.151-1.373-2-.867-1.966-1.359.795.153.739-.423-.518-.824.059-.881,1.541.87,1.335.342a1.826,1.826,0,0,0-1.7-1.214c-.96,0-1.749-.19-2.024-.728s-.879-1.02-.158-1.8,1.869-.859,2.321-1.5,1.026-1.873,1.248-1.7.34,1.3.742,1.461.285-1.2,1.088-1.58.485-1.349,1.353-.971,1.338.092,1.216,1.141-.91,2.53-.828,2.933.76.86.513,1.321-.749,1.452-.357,1.689,1.289-.057,1.369-1.076-.1-.762.541-.773a2.638,2.638,0,0,0,1.693-.388c.519-.384.561-.662,1.176-.5s.725.143.7-.429.2.066.61-.513a1.228,1.228,0,0,0,.094-1.585,6.307,6.307,0,0,1-.753-1.392c-.224-.638-.957-1.209-1.126-1.98s.778-.453-.127-1.3-1.329-2.294-.618-2.3,1.108,1.871,3.077,1.773,3.691-.2,4.355.115-.2,1.356.129,1.761,3.471-.158,3.8-.927.08-1.019,1.955-.953,2.746.658,4.36,1.04" transform="translate(131.515 -20.246)" fill="#fdb74d"/>
              <path id="Trazado_204334" data-name="Trazado 204334" d="M155,40c.8.479.606.944,1.519,1.612s2.4.73,3.272,1.66.4,2.3,1.544,2.523-.783,2.39.22,3.179,2.735-2.259,4.215-1.452-.736,4.583,1.44,5.013,2.665-.349,4.063.285,2.979,3.27,3.989,4.007,1.642-1.356,2.157-1.6-3.114-.571-2.43-1.589,4.376-2.174,5.866-1.793,2.416,1.319,3.365,3.54,2.229,4.011,2.079,5.375.034,1.924-.772,1.964-2.4,1.083-3.024.616.238-2.311-.017-3.468-.7-3.517-1.7-3.612-.746,1.435-.266,2.146.427,2.143-.311,2.087-2.316-.558-2.185,0,1.9.5,2.026,1.794-.564,2,.85,2.527,2.52.268,3.372.982a9.634,9.634,0,0,1,2.345,2.162c1.073,1.386-.323,2.884.494,3.486s2.24-.359,2.5.373.157,2.53-.553,2.637-1.736.914-2.415-.253-1.3-2.753-2.353-3.177-1.9.2-2.69.879-.381,1.489-.88,1.255-.844-1.138-.476-1.456,2.541-.954,2.217-1.643-1.213-.448-1.82.049-1.291,2.58-1.859,2.816-1.538.3-1.6.028,1.8-.96,1.5-1.483-.819-.229-1.487-.755.171-1.148-.378-1.762a6.751,6.751,0,0,0-2.484-1.224c-1-.416-.717.16-1.365,1.289s.646,1.75,1.559,1.353,2.047.571,2.267,1.244-.815,1.531-1.477,1.326-1.8-.108-1.681.549,1.522,2.306,2.814,2.232,3.363-1.1,3.632-.046,2.809.471,3.046-.4-.565-1.942.473-1.743c1.244.239,2.58,1.291,3.295,1.5s1.328.038,1.894,1.242a32.056,32.056,0,0,1,1.984,3.868c.476,1.457-1.072,6.132-3.542,6.244s-4.458-1.57-5.214-1.15a2.143,2.143,0,0,0-1.108,2.075c.016.962-2.686,2.639-2.327,3.813s.279,3.134-.651,4.009-.825,3.4-2.072,3.53a3.456,3.456,0,0,1-3.228-1.6c-.59-1.048-1.738-2.286-1.675-3.075a18.187,18.187,0,0,0-.859-3.541c-.262-1.105,1.049-2.031.766-3.352s-1.547-2.15-2.121-3.3-1.2-2.311-.911-2.481,2.413.626,2.856.158a27.393,27.393,0,0,0,3.338-4.515c.3-.915.157-1.417-.164-1.411s-1.5,1.856-2.328,2.746-1.163,2.439-1.6,2.482a7.552,7.552,0,0,1-3-1.726c-.5-.606-1.454-1.335-1.533-1.88s.925-1.2,1.29-1.141.712.586,1.109.432,1.9-1.638,1.622-1.945-2.319,1.255-2.766,1.028a11.508,11.508,0,0,0-3.752.134c-.829.2-1.112,1.381-1.6,1.095s-.511.564-1.542,2.116-1.328,2.469-1.513,2.281-1.151-.865-1.019-1.752a5.14,5.14,0,0,0-1.383-3.245c-.616-.518-.834-1.563-1.6-1.091s-.939,2.366-1.484,2.445-.794-.758-1.284.022-2.18,1.755-2.634,1.58-1.175-1.774-.793-2.2,1.686-1.3,1.5-1.857-2.466-.634-3.053-.987-1.991-1.31-1.945-2.69,2.581-2.655,1.774-3.681-1.552.035-2.968-1.189-2.724-1.046-3.2-2.876-1.356-4.148-.749-4.644.641-2.517,1.85-1.324c1.7,1.68-9.442-3.354-2.483-2.662,2.154.215-2.449.328-3.034-.4s-.957-2.169-1.718-2.069-.845,1.74-.336,2.616,1.005,1.483.891,1.893-.081,2.334-.381,2.556-1.653-1.792-1.724-2.39-.168-3.17-.688-3.621-1.636-.83-2.727-1.739-1.805-1.122-1.616-1.68.655-1.182-.125-1.671-1.754,1.392-2.294.724-.846-1.832.259-2.094,5.326-2.46,6.037-1.874-.76,1.167.634,1.481,2.925-2.817,4.446-2.644,1.61,1.359,2.664,1.09,3.667.439,4.485.668,5.46-1.214,5.833-1.212a14.37,14.37,0,0,1,2.832.315c1.028.26,1.5,1.023,1.861.757s-3.494-4.466-3.028-5.09A4.76,4.76,0,0,1,155,40" transform="translate(-18.036 -11.959)" fill="#fdb74d"/>
              <g id="Grupo_155599" data-name="Grupo 155599" transform="translate(91.932 15.33)" opacity="0.2" style="mix-blend-mode: multiply;isolation: isolate">
                <g id="Grupo_155598" data-name="Grupo 155598">
                  <g id="Grupo_155597" data-name="Grupo 155597" clip-path="url(#clip-path-5)">
                    <path id="Trazado_204335" data-name="Trazado 204335" d="M97.445,46.1,87.308,114.185l-.672,4.509L68.43,122.706l.628-4.22L79.285,49.8l.591-3.975-.02-.09,18.2-3.776Z" transform="translate(22.084 -27.938)" fill="#6d6666"/>
                    <path id="Trazado_204336" data-name="Trazado 204336" d="M228.1,21.914l-.656,4.277L216.67,96.68l-.7,4.554L199.991,103.2l11.658-78.3Z" transform="translate(-199.99 -21.914)" fill="#6d6666"/>
                    <path id="Trazado_204337" data-name="Trazado 204337" d="M136.714,38.758l.548-3.587L137.25,35l28.189-2.017.3.141-.644,4.327L154.934,105.7l-.613,4.12-29.076,3.93.593-3.886Z" transform="translate(-85.339 -25.239)" fill="#6d6666"/>
                  </g>
                </g>
              </g>
              <path id="Trazado_204338" data-name="Trazado 204338" d="M239.323,139.291a13.556,13.556,0,0,1-1.956-11.343c1.857-7.035,8.61-11.353,15.085-9.645a11.25,11.25,0,0,1,3.964,1.957,8.044,8.044,0,0,1,8.1-2.874c4.027,1.062,6.41,5.474,5.687,10.166a8.865,8.865,0,0,1,4.929-.132c5.105,1.347,8.045,6.982,6.567,12.586a10.339,10.339,0,0,1-9.686,7.987c-.141.064-.284.13-.431.2-3.4,1.528-10.948,5.673-17.294,6.711a15.563,15.563,0,0,1-9.777.375c-6.662-1.757-11.1-6.816-9.921-11.3a7.211,7.211,0,0,1,4.737-4.683" transform="translate(-186.098 -35.199)" fill="#f4f4f4"/>
              <path id="Trazado_204339" data-name="Trazado 204339" d="M196.872,80.8a9.768,9.768,0,0,1,5.757-7.559,7.456,7.456,0,0,1,11.03-9.868c2.272-3.91,5.926-6.3,9.762-5.874,4.225.474,7.478,4.239,8.576,9.24a10.56,10.56,0,0,1,8.992-3.749c6.207.7,10.292,7.358,9.7,14.933-.261,3.373-2.024,6.646-1.926,6.706,0,0-5.034,11.4-24.7,13.067-13.286,1.126-20.32-4.241-23.8-8.706a9.617,9.617,0,0,1-3.4-8.19" transform="translate(-128.484 -17.261)" fill="#f4f4f4"/>
              <g id="Grupo_155602" data-name="Grupo 155602" transform="translate(60.997 37.348)" opacity="0.5">
                <g id="Grupo_155601" data-name="Grupo 155601">
                  <g id="Grupo_155600" data-name="Grupo 155600" clip-path="url(#clip-path-6)">
                    <path id="Trazado_204340" data-name="Trazado 204340" d="M185.2,53.389C239.412,88.716,252.7,143.28,252.7,143.28l-11.542.35S225.072,89.765,178.9,53.389Z" transform="translate(-178.902 -53.389)" fill="#fff"/>
                  </g>
                </g>
              </g>
              <path id="Trazado_204341" data-name="Trazado 204341" d="M247.73,29.646c7.737,4.61,14.068,8.464,19.594,8,0,0-.084.1-.238.266.909-.441,12.55-6.093,12.774-6.967.112-.469-6.646-3.267-9.563-3.736-1.959-.308-9.269,3.729-11.542,3.847-4.3.231-10.633-1.357-11-1.448Z" transform="translate(-193.211 -8.171)" fill="#5038a1"/>
              <path id="Trazado_204342" data-name="Trazado 204342" d="M350.623.989a43.457,43.457,0,0,0-4.232,2.378c5.652,5.715,11.137,6.177,11.137,6.177s1.4-1.98,1.28-2.91-5.128-2.686-8.164-5.6Z" transform="translate(-341.183 -0.297)" fill="#8c6df2"/>
              <path id="Trazado_204343" data-name="Trazado 204343" d="M339.765,29.478c-5.526.462-11.857-3.393-19.594-8q-1.616-.965-3.316-1.966C307.586,14.088,284.327.8,279.78.1a8.863,8.863,0,0,0-4.687.595l.021.049c3.036,2.91,8.045,4.659,8.164,5.6S282,9.247,282,9.247s-5.484-.462-11.137-6.177c0,0-4.372-.874-5.072.7s1.224,5.6,7.17,9.269S312.133,34.2,322.277,36.124c9.066,1.721,15.9-4.946,17.251-6.38.154-.168.238-.266.238-.266" transform="translate(-265.652 0)" fill="#f8f8f8"/>
              <path id="Trazado_204344" data-name="Trazado 204344" d="M337.3,13.471a.927.927,0,1,0,1.657.832l1.111-2.208a.928.928,0,0,0-1.658-.833Z" transform="translate(-316.108 -3.23)" fill="#8c6df2"/>
              <path id="Trazado_204345" data-name="Trazado 204345" d="M331.048,16.871a.927.927,0,1,0,1.657.832l1.111-2.208a.928.928,0,0,0-1.659-.833Z" transform="translate(-305.479 -4.252)" fill="#8c6df2"/>
              <path id="Trazado_204346" data-name="Trazado 204346" d="M319.132,23.121a.927.927,0,1,0,1.657.832l1.111-2.208a.928.928,0,0,0-1.659-.833Z" transform="translate(-285.227 -6.13)" fill="#8c6df2"/>
              <path id="Trazado_204347" data-name="Trazado 204347" d="M325.3,19.621a.927.927,0,1,0,1.657.832l1.111-2.208a.928.928,0,0,0-1.659-.833Z" transform="translate(-295.708 -5.078)" fill="#8c6df2"/>
              <path id="Trazado_204348" data-name="Trazado 204348" d="M312.715,26.705a.927.927,0,1,0,1.657.832l1.111-2.208a.928.928,0,0,0-1.659-.833Z" transform="translate(-274.321 -7.206)" fill="#8c6df2"/>
              <path id="Trazado_204349" data-name="Trazado 204349" d="M306.715,30.038a.927.927,0,1,0,1.657.832l1.111-2.208a.928.928,0,0,0-1.659-.833Z" transform="translate(-264.124 -8.208)" fill="#8c6df2"/>
              <path id="Trazado_204350" data-name="Trazado 204350" d="M300.465,33.788a.927.927,0,1,0,1.657.832l1.111-2.208a.928.928,0,0,0-1.659-.833Z" transform="translate(-253.502 -9.334)" fill="#8c6df2"/>
              <path id="Trazado_204351" data-name="Trazado 204351" d="M294.69,37.28a.927.927,0,1,0,1.657.832l1.111-2.208a.928.928,0,1,0-1.659-.833Z" transform="translate(-243.687 -10.384)" fill="#8c6df2"/>
              <path id="Trazado_204352" data-name="Trazado 204352" d="M267.9,44.743c1.566.836,8.394,6.7,8.977,7.87s1.749,4.43.933,4.2S265.109,48.061,264.843,46.2c-.175-1.224,2.186-1.924,3.06-1.457" transform="translate(-203.409 -13.4)" fill="#5038a1"/>
              <path id="Trazado_204353" data-name="Trazado 204353" d="M328.159,45.54v.007c.308.371.637.56.923.483.623-.161.818-1.5.427-2.994s-1.21-2.574-1.833-2.413a.427.427,0,0,0-.084.035c-.553.259-.707,1.539-.343,2.966a5.046,5.046,0,0,0,.909,1.917" transform="translate(-298.551 -12.201)" fill="#8c6df2"/>
              <path id="Trazado_204354" data-name="Trazado 204354" d="M321.473,58.021c0,.007,0,.014.007.014.315.35.651.525.937.448.686-.175.9-1.644.469-3.274s-1.322-2.812-2-2.637a.47.47,0,0,0-.161.07c-.553.35-.7,1.707-.308,3.2a5.44,5.44,0,0,0,1.056,2.176" transform="translate(-287.149 -15.79)" fill="#8c6df2"/>
              <path id="Trazado_204355" data-name="Trazado 204355" d="M323.356,40.011a5.721,5.721,0,0,0-3.064.427l.014.035a.428.428,0,0,1,.084-.035c.623-.161,1.448.916,1.833,2.413s.2,2.833-.427,2.994c-.287.077-.616-.112-.923-.483.119.357.93,1.735,6.282.9-1.357-2.183-2.651-4.3-3.8-6.247" transform="translate(-291.264 -12.016)" fill="#5038a1"/>
              <path id="Trazado_204356" data-name="Trazado 204356" d="M315.526,51.422c-.979-.322-3.176.707-3.414.825l.014.035a.47.47,0,0,1,.161-.07c.679-.175,1.574,1,2,2.637s.217,3.1-.469,3.274c-.287.077-.623-.1-.937-.448.329.511,1.735,1.854,7.254.993l.028-.014c-1.539-2.364-3.113-4.82-4.638-7.233" transform="translate(-278.551 -15.432)" fill="#5038a1"/>
              <path id="Trazado_204357" data-name="Trazado 204357" d="M288.345,35.491c1.147,1.945,2.441,4.064,3.8,6.247.357.574.721,1.161,1.084,1.749,1.525,2.413,3.1,4.869,4.638,7.233,4.9,7.52,9.444,14.1,10.64,15.341.693.728,8.975.818,9.325.7s-.231-1.861-.7-2.679-3.61-2.448-4.9-3.847S299.747,32.126,298.481,31.2c-1.287-.93-14.229-8.276-15.04-5.715-.259.8,1.826,4.806,4.9,10" transform="translate(-256.253 -7.496)" fill="#8c6df2"/>
              <path id="Trazado_204358" data-name="Trazado 204358" d="M217.739,75.257c-6.2,1.35-10.493,7.317-8.772,14.809,2.658,11.565,14.921,20.372,16.509,20.372.021,0,.042-.008.056-.008,1.3-.336,8.877-13.592,6.478-25.365-1.539-7.534-7.919-11.186-14.124-9.836Zm-2.973,13.627a5.945,5.945,0,1,1,7.072,4.547,5.947,5.947,0,0,1-7.072-4.547" transform="translate(-118.441 -22.52)" fill="#fdb74d"/>
              <path id="Trazado_204359" data-name="Trazado 204359" d="M.1,138.029a1.084,1.084,0,0,0,.52,1.442l31.321,14.71a1.084,1.084,0,0,0,1.442-.519L56.236,105.01a1.086,1.086,0,0,0-.521-1.443L24.394,88.858a1.084,1.084,0,0,0-1.442.52Z" transform="translate(203.609 -26.667)" fill="#5038a1"/>
              <path id="Trazado_204360" data-name="Trazado 204360" d="M23.086,118.075a9.585,9.585,0,1,1,4.566,12.763A9.583,9.583,0,0,1,23.086,118.075Z" transform="translate(203.105 -33.828)" fill="none" stroke="#fff" stroke-linecap="round" stroke-linejoin="round" stroke-width="1"/>
              <path id="Trazado_204361" data-name="Trazado 204361" d="M40.958,128.94s-4.792-2.2-8.644-3.956c-5.233-2.388-8.685-4.241-8.685-4.241" transform="translate(202.46 -36.278)" fill="none" stroke="#fff" stroke-linecap="round" stroke-linejoin="round" stroke-width="1"/>
              <path id="Trazado_204362" data-name="Trazado 204362" d="M37.521,122.72s-4.177-1.908-7.535-3.431c-4.562-2.07-7.559-3.708-7.559-3.708" transform="translate(206.737 -34.727)" fill="none" stroke="#fff" stroke-linecap="round" stroke-linejoin="round" stroke-width="1"/>
              <path id="Trazado_204363" data-name="Trazado 204363" d="M43.01,134.236s-4.228-1.933-7.626-3.476c-4.618-2.1-7.652-3.752-7.652-3.752" transform="translate(197.539 -38.161)" fill="none" stroke="#fff" stroke-linecap="round" stroke-linejoin="round" stroke-width="1"/>
              <path id="Trazado_204364" data-name="Trazado 204364" d="M36.826,114.953s-.283,9.939-7.962,16.646" transform="translate(202.93 -34.539)" fill="none" stroke="#fff" stroke-linecap="round" stroke-linejoin="round" stroke-width="1"/>
              <path id="Trazado_204365" data-name="Trazado 204365" d="M31.611,119.09s-.089,9.031-7.4,14.526" transform="translate(211.401 -35.782)" fill="none" stroke="#fff" stroke-linecap="round" stroke-linejoin="round" stroke-width="1"/>
              <path id="Trazado_204366" data-name="Trazado 204366" d="M39.587,113.578s-7.5,6.524-7.818,16.714" transform="translate(198.137 -34.126)" fill="none" stroke="#fff" stroke-linecap="round" stroke-linejoin="round" stroke-width="1"/>
              <path id="Trazado_204367" data-name="Trazado 204367" d="M44.24,112.674s-7.552,6.5-6.552,15.221" transform="translate(189.407 -33.854)" fill="none" stroke="#fff" stroke-linecap="round" stroke-linejoin="round" stroke-width="1"/>
              <path id="Trazado_204368" data-name="Trazado 204368" d="M47.57,117.649a2.82,2.82,0,0,0-.218,3.984l43.812,48.992a2.827,2.827,0,0,0,3.989.224l14.032-12.554-.216-.242L61.606,105.089Z" transform="translate(118.142 -31.575)" fill="#fdfdfd"/>
              <path id="Trazado_204369" data-name="Trazado 204369" d="M43.956,100.833,40.864,103.6l47.364,52.963.215.242,3.091-2.762a2.823,2.823,0,0,0,.223-3.989L47.944,101.056a2.833,2.833,0,0,0-3.989-.223" transform="translate(138.884 -30.081)" fill="#8c6df2"/>
              <rect id="Rectángulo_46227" data-name="Rectángulo 46227" width="42.795" height="1.553" transform="matrix(-0.667, -0.745, 0.745, -0.667, 220.609, 128.231)" fill="#8c6df2"/>
              <rect id="Rectángulo_46228" data-name="Rectángulo 46228" width="42.795" height="1.554" transform="translate(216.397 131.999) rotate(-131.804)" fill="#8c6df2"/>
              <path id="Trazado_204370" data-name="Trazado 204370" d="M110.513,120.636a40.234,40.234,0,0,1,5.167.889c2.247-1.918,4.361-3.306,4.909-2.63.52.644-1.18,2.535-3.4,4.476a38.022,38.022,0,0,1,.291,5.057c-.179.633-1.172,2.3-1.35,2.194-.134-.076-.629-3.764-.869-5.652a41.242,41.242,0,0,1-4.09,2.888,11.361,11.361,0,0,1-.118,1.976,3.509,3.509,0,0,1-1.086.76,14.342,14.342,0,0,1,.043-2.136c-.3.118-.511.15-.586.066s-.016-.28.136-.554a10.248,10.248,0,0,1-2.113-.2,4.369,4.369,0,0,1,.876-.995,11.7,11.7,0,0,1,2.009.106,41.053,41.053,0,0,1,3.443-3.641c-1.824-.441-5.533-1.368-5.594-1.511-.081-.186,1.683-.991,2.332-1.1" transform="translate(64.102 -35.671)" fill="#5038a1"/>
              <path id="Trazado_204371" data-name="Trazado 204371" d="M96.633,140.677a.348.348,0,0,0,.233-.089l13.476-12.052a.35.35,0,1,0-.466-.521L96.4,140.067a.35.35,0,0,0,.233.611" transform="translate(82.135 -38.437)" fill="#5038a1"/>
              <rect id="Rectángulo_46229" data-name="Rectángulo 46229" width="42.796" height="1.553" transform="translate(212.081 135.858) rotate(-131.805)" fill="#8c6df2"/>
              <path id="Trazado_204372" data-name="Trazado 204372" d="M208.114,161.042l1.645,7.447,35.625-7.859-1.766-8-.014,0a7.965,7.965,0,0,0-7.167-1.9c-2.861.781-3.888,2.812-5.125,4.256a4.284,4.284,0,0,1-1.852,1.391c-2.551.882-7.73-1.563-11.16-.384-3.41,1.17-3.815,7.014-10.187,5.041" transform="translate(-131.021 -45.216)" fill="#fdb74d"/>
              <path id="Trazado_204373" data-name="Trazado 204373" d="M228.23,144.115l3.312,15.011c6.373,1.973,6.777-3.871,10.187-5.041,3.431-1.179,8.609,1.265,11.16.384a4.28,4.28,0,0,0,1.852-1.391l-.064-.055s-7.731-8.737-11.055-8.531-4.2,3.459-6.106,3.883-6.144-4.239-9.286-4.261" transform="translate(-154.449 -43.301)" fill="#fdb74d"/>
              <path id="Trazado_204374" data-name="Trazado 204374" d="M226.336,140.525c3.324-.206,11.055,8.531,11.055,8.531l.064.055c1.238-1.444,2.264-3.475,5.126-4.257a7.966,7.966,0,0,1,7.167,1.9l.014,0-3.5-15.84-35.625,7.859.306,1.378c3.142.022,7.393,4.676,9.286,4.261s2.774-3.676,6.106-3.883" transform="translate(-137.163 -39.333)" fill="#8c6df2"/>
              <path id="Trazado_204375" data-name="Trazado 204375" d="M206.833,138.677l-.306-1.378,35.625-7.859,3.5,15.84,1.765,8-35.625,7.859-1.645-7.447Zm-3.915-3.47,6.5,29.446,41.633-9.183-6.5-29.454Z" transform="translate(-133.051 -37.863)" fill="#fff"/>
              <path id="Trazado_204376" data-name="Trazado 204376" d="M220.808,137.232a2.5,2.5,0,0,1,2.581.418,2.918,2.918,0,0,1,.739.813,2.471,2.471,0,0,1,.388,2.831,2.7,2.7,0,0,1-.365.654,3.232,3.232,0,0,1-3.851,1.1,2.434,2.434,0,0,1-1.289-2,2.8,2.8,0,0,1,1.8-3.815" transform="translate(-117.908 -41.17)" fill="#fdb74d"/>
              <path id="Trazado_204377" data-name="Trazado 204377" d="M216.091,144.5a3.373,3.373,0,0,1,.731.257,5.342,5.342,0,0,1,.762.358.4.4,0,0,1-.127.716,1.537,1.537,0,0,1-1.753-.725c-.1-.256.038-.661.386-.605" transform="translate(-108.692 -43.416)" fill="#fdb74d"/>
              <path id="Trazado_204378" data-name="Trazado 204378" d="M219.637,146.774a.292.292,0,0,1,.427-.152,1.7,1.7,0,0,1,.464.5,4.9,4.9,0,0,1,.609.767.622.622,0,0,1-1,.709,2.126,2.126,0,0,1-.43-.96,1.367,1.367,0,0,1-.069-.858" transform="translate(-114.872 -44.041)" fill="#fdb74d"/>
              <path id="Trazado_204379" data-name="Trazado 204379" d="M224.583,147.765a1.711,1.711,0,0,1,1.137-.927.537.537,0,0,1,.641.543,2.137,2.137,0,0,1-.619,1.124.688.688,0,0,1-1.16-.74" transform="translate(-123.452 -44.118)" fill="#fdb74d"/>
              <path id="Trazado_204380" data-name="Trazado 204380" d="M228.474,143.419a6.567,6.567,0,0,1,.626-.227c.228-.09.447-.2.674-.293.427-.175.966.265.654.71a2.433,2.433,0,0,1-1.484,1.089.707.707,0,0,1-.756-.35.694.694,0,0,1,.286-.929" transform="translate(-130.146 -42.923)" fill="#fdb74d"/>
              <path id="Trazado_204381" data-name="Trazado 204381" d="M214.922,140.846a1.811,1.811,0,0,1,1.636-.025.467.467,0,0,1-.033.8,2.514,2.514,0,0,1-.655.208,2.174,2.174,0,0,1-.71.1.578.578,0,0,1-.238-1.08" transform="translate(-106.961 -42.256)" fill="#fdb74d"/>
              <path id="Trazado_204382" data-name="Trazado 204382" d="M216.121,137.954c-.076.078.021-.035.041-.07a.551.551,0,0,1,.159-.147,3.19,3.19,0,0,1,.526-.309c.164-.085.306-.217.469-.3a4.047,4.047,0,0,1,.532-.189.29.29,0,0,1,.352.3,1.256,1.256,0,0,1-.32.686,2.115,2.115,0,0,1-.857.492.912.912,0,0,1-.744,0c-.12-.077-.289-.326-.159-.46" transform="translate(-109.408 -41.143)" fill="#fdb74d"/>
              <path id="Trazado_204383" data-name="Trazado 204383" d="M220.3,133.92a.348.348,0,0,1,.505.323,1.175,1.175,0,0,1-.28.657,4.612,4.612,0,0,1-.476.624.14.14,0,0,1-.229-.072,1.461,1.461,0,0,1,.48-1.531" transform="translate(-114.6 -40.225)" fill="#fdb74d"/>
              <path id="Trazado_204384" data-name="Trazado 204384" d="M228.672,137.7a1.9,1.9,0,0,1,1.334.332,5.765,5.765,0,0,1,1.159.743c.348.3-.073.755-.43.674-.419-.1-.823-.217-1.234-.345a1.668,1.668,0,0,1-1.126-.762.453.453,0,0,1,.3-.641" transform="translate(-131.075 -41.361)" fill="#fdb74d"/>
              <path id="Trazado_204385" data-name="Trazado 204385" d="M226.329,134.2a.183.183,0,0,1,.278-.143,3.229,3.229,0,0,1,.74.694c.133.159.4.67.127.83-.292.171-.648-.118-.8-.353a1.793,1.793,0,0,1-.344-1.028" transform="translate(-125.969 -40.27)" fill="#fdb74d"/>
              <path id="Trazado_204386" data-name="Trazado 204386" d="M223.693,133.188a.285.285,0,0,1,.488.02,1.5,1.5,0,0,1-.069,1.631c-.085.1-.267.165-.365.032a1.594,1.594,0,0,1-.055-1.683" transform="translate(-120.775 -39.979)" fill="#fdb74d"/>
              <path id="Trazado_204387" data-name="Trazado 204387" d="M213.391,163.881c2.058,1,4.056,1.91,5.817-.7a11.014,11.014,0,0,1,1.451-2.146,2.613,2.613,0,0,1,2.379-.929,9.358,9.358,0,0,1,3.05,1.949c2.458,1.868,2.926-2.016,4.663-2.4,1.319-.292,2.159.841,3.077,1.577,2.831,2.267,3.308-4.012,3.7-5.2.912-2.767,4.87.16,6.185.818a.065.065,0,0,1-.039.119c-2.345-.341-5.453-2.948-6.157,1.224-.181,1.074-.242,2.683-1.079,3.494-.908.881-1.826.644-2.923.214-.913-.359-2.087-1.9-3.213-.448-.443.569-.567,1.524-1.277,1.893a2.972,2.972,0,0,1-3.124-.031,10.728,10.728,0,0,1-1.693-1.269c-1.683-1.346-3.134.334-3.98,1.791-1.582,2.73-5.612,3.535-7.507.66-.29-.44.3-.8.669-.616" transform="translate(-132.548 -46.53)" fill="#5038a1"/>
              <path id="Trazado_204388" data-name="Trazado 204388" d="M212.192,163.712c1.58.538,1.121-1.754,1.812-2.562.76-.888,2.755.578,3.068,1.312a.309.309,0,0,1-.364.434c-.59-.2-1.061-.72-1.645-.962-.906-.375-1.1.308-1.305,1.035-.248.88-.736,1.419-1.651.925-.1-.055-.022-.218.085-.182" transform="translate(-105.496 -48.336)" fill="#5038a1"/>
              <path id="Trazado_204389" data-name="Trazado 204389" d="M187.1,171.908,141.814,160.6a3.1,3.1,0,0,1-2.327-2.406c.1,3.105,2.078,3.491,2.078,3.491l47.483,11.968-.735-1.676a3.225,3.225,0,0,1-1.209-.071" transform="translate(-26.676 -47.531)" fill="#5038a1"/>
              <path id="Trazado_204390" data-name="Trazado 204390" d="M128.878,164.952a2.952,2.952,0,0,1-2.52,2.183l.735,1.677a2.025,2.025,0,0,0,1.763-.1,2.56,2.56,0,0,0,1.456-1.735s3.711-14.4,5.964-23.776l-1.687-1.128Z" transform="translate(35.278 -42.687)" fill="#5038a1"/>
              <path id="Trazado_204391" data-name="Trazado 204391" d="M128.819,147.848a3.1,3.1,0,0,0,2.327,2.406l45.29,11.307a3.22,3.22,0,0,0,1.208.07,2.952,2.952,0,0,0,2.52-2.183l5.712-22.88-.012-.01L164.8,131.3c3.147,2.876,4.294,8.073,3.251,12.248a11.663,11.663,0,0,1-14.553,8.588c-6.937-1.934-8.662-9.459-8.662-9.459l.125-.041a11.542,11.542,0,0,1,6.888-14.568l-17.11-4.271-.17-.042-5.713,22.885a2.79,2.79,0,0,0-.035,1.21" transform="translate(-16.008 -37.183)" fill="#8c6df2"/>
              <path id="Trazado_204392" data-name="Trazado 204392" d="M131.4,120.634c-.627.03-2.09,1.641-2.09,1.641l-.071.285,10.655,2.66c.1.024.189.054.276.083-.115-.26-.716-1.642-.943-2.088A4.427,4.427,0,0,0,137.292,122a18.229,18.229,0,0,0-5.894-1.37" transform="translate(29.373 -36.245)" fill="#afaeab"/>
              <path id="Trazado_204393" data-name="Trazado 204393" d="M125.818,130.868l-1.7,6.793,1.687,1.128a76.612,76.612,0,0,0,1.69-7.84,3.956,3.956,0,0,0-3.561-3.556,3,3,0,0,1,1.88,3.476" transform="translate(45.747 -38.276)" fill="#fdb74d"/>
              <path id="Trazado_204394" data-name="Trazado 204394" d="M150.326,123.821a11.5,11.5,0,0,1,5.9,3.615l.054-.045.17.043,21.067,5.259.012.01,1.7-6.793a3,3,0,0,0-1.88-3.476l-.014,0-.106,0a.469.469,0,0,1-.024-.05c-.087-.029-.18-.059-.276-.083l-10.655-2.66-34.635-8.646a3.027,3.027,0,0,0-3.722,2.113l-1.694,6.788.17.042L143.5,124.2a11.521,11.521,0,0,1,6.822-.381M131.184,115.3a2.139,2.139,0,0,1,2.6-1.558l4.581,1.144a2.148,2.148,0,0,1,1.558,2.595,2.146,2.146,0,0,1-2.6,1.566L132.74,117.9a2.144,2.144,0,0,1-1.556-2.6" transform="translate(-7.664 -33.318)" fill="#fdb74d"/>
              <path id="Trazado_204395" data-name="Trazado 204395" d="M185.107,114.939a2.144,2.144,0,0,0-1.039,4.159l4.581,1.144a2.146,2.146,0,0,0,2.6-1.566,2.148,2.148,0,0,0-1.558-2.595Z" transform="translate(-58.993 -34.515)" fill="#fedc72"/>
              <path id="Trazado_204396" data-name="Trazado 204396" d="M161.964,153.306a11.536,11.536,0,0,1-8.12-7.449l-.125.041s1.726,7.526,8.663,9.459a11.663,11.663,0,0,0,14.552-8.588c1.042-4.173-.1-9.371-3.251-12.247l-.169-.043-.055.044a11.541,11.541,0,0,1-11.495,18.783" transform="translate(-24.894 -40.405)" fill="#5038a1"/>
              <path id="Trazado_204397" data-name="Trazado 204397" d="M162.672,129.607a11.541,11.541,0,1,0,6.822-.381,11.527,11.527,0,0,0-6.822.381m-4.043,8.8a8.317,8.317,0,1,1,6.055,10.085,8.314,8.314,0,0,1-6.055-10.085" transform="translate(-26.832 -38.724)" fill="#fedc72"/>
              <path id="Trazado_204398" data-name="Trazado 204398" d="M170.1,133.74a8.318,8.318,0,1,0,6.055,10.085A8.314,8.314,0,0,0,170.1,133.74" transform="translate(-28.219 -40.108)" fill="#fdb74d"/>
              <path id="Trazado_204399" data-name="Trazado 204399" d="M11.8,168.536a1.151,1.151,0,0,0-.839,1.112l2.413,41.28h.028c.462-.035.93-.056,1.406-.056a17.571,17.571,0,0,1,17.572,17.572c0,.35-.007.685-.028,1.021H173.286c-.014-.343-.028-.672-.028-1.021a17.575,17.575,0,0,1,17.572-17.572,16.326,16.326,0,0,1,1.847.1l3.666-41.321a1.157,1.157,0,0,0-1.154-1.161H12.119a.911.911,0,0,0-.315.049" transform="translate(55.934 -50.623)" fill="#fedc72"/>
              <path id="Trazado_204400" data-name="Trazado 204400" d="M245.345,229.133l.853,14.578c0,3.785,3.792,3.959,4.428,3.959h13.7c.021-.336.028-.672.028-1.021a17.571,17.571,0,0,0-17.572-17.572c-.476,0-.944.021-1.406.056Z" transform="translate(-176.032 -68.828)" fill="#fdb74d"/>
              <path id="Trazado_204401" data-name="Trazado 204401" d="M16.2,246.649c0,.35.014.679.028,1.021H28.678c.637,0,5.6.175,5.708-4.484l1.238-14.012a16.322,16.322,0,0,0-1.847-.1A17.575,17.575,0,0,0,16.2,246.649" transform="translate(212.987 -68.828)" fill="#fdb74d"/>
              <path id="Rectángulo_46230" data-name="Rectángulo 46230" d="M5.683,0h20.2a5.683,5.683,0,0,1,5.683,5.683v0a5.683,5.683,0,0,1-5.683,5.683H5.684A5.684,5.684,0,0,1,0,5.683v0A5.683,5.683,0,0,1,5.683,0Z" transform="translate(80.673 121.38)" fill="#8c6df2"/>
              <path id="Trazado_204402" data-name="Trazado 204402" d="M213.493,179.817a4.484,4.484,0,1,1,4.484,4.484,4.484,4.484,0,0,1-4.484-4.484" transform="translate(-111.86 -52.68)" fill="#5038a1"/>
              <path id="Trazado_204403" data-name="Trazado 204403" d="M214.044,179.986a4.069,4.069,0,1,1,4.069,4.069,4.069,4.069,0,0,1-4.069-4.069" transform="translate(-111.966 -52.856)" fill="#e8e8e7"/>
              <path id="Rectángulo_46231" data-name="Rectángulo 46231" d="M1.759,0h.579A1.758,1.758,0,0,1,4.1,1.758V6.148A1.758,1.758,0,0,1,2.338,7.906h-.58A1.758,1.758,0,0,1,0,6.148V1.759A1.759,1.759,0,0,1,1.759,0Z" transform="translate(95.763 122.98)" fill="#fdb74d"/>
              <path id="Trazado_204404" data-name="Trazado 204404" d="M229.142,182.433a1.144,1.144,0,0,0,1.107,1.177h1.473a1.144,1.144,0,0,0,1.107-1.177v-5.214a1.144,1.144,0,0,0-1.107-1.177h-1.473a1.144,1.144,0,0,0-1.107,1.177Z" transform="translate(-133.176 -52.893)" fill="#fedc72"/>
              <path id="Rectángulo_46232" data-name="Rectángulo 46232" d="M1.759,0h.579A1.758,1.758,0,0,1,4.1,1.758V6.148A1.758,1.758,0,0,1,2.338,7.906h-.58A1.758,1.758,0,0,1,0,6.148V1.759A1.759,1.759,0,0,1,1.759,0Z" transform="translate(90.341 122.98)" fill="#fdb74d"/>
              <path id="Rectángulo_46233" data-name="Rectángulo 46233" d="M1.759,0h.579A1.758,1.758,0,0,1,4.1,1.758V6.148A1.758,1.758,0,0,1,2.338,7.906h-.58A1.758,1.758,0,0,1,0,6.148V1.759A1.759,1.759,0,0,1,1.759,0Z" transform="translate(84.876 122.98)" fill="#fdb74d"/>
              <path id="Trazado_204405" data-name="Trazado 204405" d="M217.84,179.783a1.268,1.268,0,1,1,1.767,1.165,12.8,12.8,0,0,1,.4,2.29,4.271,4.271,0,0,1-1.894,0c-.036-.132.454-2.31.454-2.31a1.265,1.265,0,0,1-.731-1.145" transform="translate(-112.816 -53.636)" fill="#5038a1"/>
              <path id="Trazado_204406" data-name="Trazado 204406" d="M231.027,178.858v2.9h-.551c-.108,0-.155.078-.155.258v.088c0,.18.047.257.155.257h2c.108,0,.155-.078.155-.257v-.088c0-.18-.046-.258-.155-.258h-.686v-2.315l.7.1c.134,0,.165-.288.165-.433a.142.142,0,0,0-.134-.144l-1.284-.237c-.083,0-.211.062-.211.124" transform="translate(-133.826 -53.702)" fill="#fdb74d"/>
              <path id="Trazado_204407" data-name="Trazado 204407" d="M236.85,182.433a1.144,1.144,0,0,0,1.107,1.177h1.473a1.144,1.144,0,0,0,1.107-1.177v-5.214a1.144,1.144,0,0,0-1.107-1.177h-1.473a1.144,1.144,0,0,0-1.107,1.177Z" transform="translate(-146.276 -52.893)" fill="#fedc72"/>
              <path id="Trazado_204408" data-name="Trazado 204408" d="M244.725,182.433a1.144,1.144,0,0,0,1.107,1.177H247.3a1.144,1.144,0,0,0,1.107-1.177v-5.214a1.144,1.144,0,0,0-1.107-1.177h-1.473a1.144,1.144,0,0,0-1.107,1.177Z" transform="translate(-159.66 -52.893)" fill="#fedc72"/>
              <path id="Trazado_204409" data-name="Trazado 204409" d="M237.895,179.715a1.313,1.313,0,0,0,.315.84l.969,1.2h-1.191c-.108,0-.155.077-.155.257v.088c0,.18.046.257.155.257h2.052c.078,0,.144-.3.144-.453a.139.139,0,0,0-.015-.077l-1.3-1.6a.782.782,0,0,1-.2-.495c0-.278.206-.418.48-.418.33,0,.51.222.6.222.16,0,.294-.222.294-.356,0-.3-.541-.474-1.026-.474a1,1,0,0,0-1.124,1.01" transform="translate(-146.609 -53.694)" fill="#fdb74d"/>
              <path id="Trazado_204410" data-name="Trazado 204410" d="M245.786,179.669a.782.782,0,0,0,.48.752v.021a.919.919,0,0,0-.6.923,1.06,1.06,0,0,0,1.165,1.093c.387,0,1.119-.1,1.119-.422,0-.1-.134-.392-.253-.392a2.083,2.083,0,0,1-.748.211.468.468,0,0,1-.51-.5c0-.34.17-.525.6-.525h.145c.108,0,.155-.078.155-.258v-.093c0-.18-.046-.257-.155-.257h-.1c-.335,0-.532-.17-.532-.427a.381.381,0,0,1,.418-.418,1.543,1.543,0,0,1,.608.16c.1,0,.258-.253.258-.392,0-.258-.49-.376-1-.376-.644,0-1.057.35-1.057.9" transform="translate(-159.858 -53.712)" fill="#fdb74d"/>
              <path id="Trazado_204411" data-name="Trazado 204411" d="M100.227,195.589c-1.511.217-1.651,6.485-1.665,7.408.693-.07,1.329-.133,1.91-.2l-.014-.091s-.084-3.386,1.084-3.267,5.561,0,6.38,2.217.818,8.744-1.168,9.675c-.881.413-3.715.944-8.01,1.448a9.309,9.309,0,0,0,.553,3.218c.581,1.28,7.821,1.42,11.074-.35,2.567-1.4,3.267-11.542,1.63-16.089s-10.143-4.2-11.773-3.966" transform="translate(78.118 -58.731)" fill="#fdb74d"/>
              <path id="Trazado_204412" data-name="Trazado 204412" d="M189.194,199.436c1.161-.119,1.077,3.267,1.077,3.267l-.021.182c.588.077,1.224.147,1.917.217,0-.259-.056-7.289-1.665-7.513-1.63-.231-10.143-.581-11.773,3.966s-.93,14.69,1.63,16.089c3.253,1.77,10.493,1.63,11.081.35a7.05,7.05,0,0,0,.518-2.8l.014-.1a38.961,38.961,0,0,1-8-1.77c-1.987-.93-1.98-7.464-1.168-9.675s5.219-2.1,6.387-2.217" transform="translate(-56.634 -58.731)" fill="#fdb74d"/>
              <path id="Trazado_204413" data-name="Trazado 204413" d="M184.152,221.416a12.338,12.338,0,0,0,2.164-1.9" transform="translate(-55.19 -65.955)" fill="#5038a1"/>
              <path id="Trazado_204414" data-name="Trazado 204414" d="M111.815,201.138c-1.168.119-5.568,0-6.387,2.218s-.818,8.744,1.168,9.675a38.958,38.958,0,0,0,8,1.77,118.646,118.646,0,0,0,19.692,1.147c8.912-.259,16.5-.839,21.833-1.469,4.3-.5,7.128-1.035,8.01-1.448,1.987-.93,1.987-7.464,1.168-9.675s-5.219-2.1-6.38-2.218-1.084,3.267-1.084,3.267l.014.091c-.581.07-1.217.133-1.91.2-4.491.434-11.256.881-20.72.986a202.194,202.194,0,0,1-20.427-.881c-.693-.07-1.329-.14-1.917-.217l.021-.182s.084-3.386-1.077-3.267" transform="translate(20.745 -60.433)" fill="#8c6df2"/>
              <path id="Trazado_204415" data-name="Trazado 204415" d="M185.078,234.57c.962-2.973,11.105-14.166,12.5-14.428s6.821-.612,8.22.35c.84.578,2.711,8.832,1.924,10.143s-10.9,13.787-12.737,13.438-10.872-6.53-9.91-9.5m19.762-12.155a.7.7,0,1,0-.7-.7.7.7,0,0,0,.7.7" transform="translate(-77.387 -66.058)" fill="#8c6df2"/>
              <path id="Trazado_204416" data-name="Trazado 204416" d="M194.323,242.271a1.14,1.14,0,0,0,1.608-.129l9.774-11.467a1.141,1.141,0,0,0-.129-1.608l-5.626-4.795a1.14,1.14,0,0,0-1.607.129l-9.774,11.468a1.14,1.14,0,0,0,.128,1.608Z" transform="translate(-77.75 -67.303)" fill="#fff"/>
              <path id="Trazado_204417" data-name="Trazado 204417" d="M196.078,238.479a.347.347,0,0,0,.26-.117l8.958-10a.349.349,0,1,0-.52-.467l-8.958,10a.349.349,0,0,0,.26.583" transform="translate(-82.358 -68.439)" fill="#5038a1"/>
              <path id="Trazado_204418" data-name="Trazado 204418" d="M192.628,241.777a.347.347,0,0,0,.26-.117l8.958-10a.349.349,0,1,0-.52-.467l-8.958,10a.349.349,0,0,0,.26.583" transform="translate(-76.495 -69.43)" fill="#5038a1"/>
              <path id="Trazado_204419" data-name="Trazado 204419" d="M187.929,204.96a1.847,1.847,0,0,0-1.8-1.067c-3.314.341-4.69,11-2.786,13.1a.366.366,0,0,0,.161.064c.05.017.136.041.219-.109a7.732,7.732,0,0,1-.594-3.775,18.714,18.714,0,0,1,1.775-7.642,1.729,1.729,0,0,1,2.963-.525c.027.034.078-.006.06-.041" transform="translate(-55.637 -61.258)" fill="#5038a1"/>
            </g>
          </g>
        </g>
      </g>
    </g>
  </g>
</svg>
