<svg xmlns="http://www.w3.org/2000/svg" width="136.973" height="136.973" viewBox="0 0 136.973 136.973">
  <g id="Grupo_161154" data-name="Grupo 161154" transform="translate(3691 6445.44)">
    <g id="Grupo_155493" data-name="Grupo 155493" transform="translate(-3691 -6445.44)">
      <g id="Trazado_137458" data-name="Trazado 137458" transform="translate(0 0)" fill="#fff">
        <path d="M 68.48631286621094 131.9726409912109 C 59.91350936889648 131.9726409912109 51.59981155395508 130.2947692871094 43.77611541748047 126.9856185913086 C 40.01535797119141 125.3949661254883 36.38774871826172 123.4259033203125 32.9940071105957 121.1331405639648 C 29.6312255859375 118.8612899780273 26.46885681152344 116.2520523071289 23.5947265625 113.3779220581055 C 20.72059631347656 110.503791809082 18.11135673522949 107.341423034668 15.83950805664062 103.9786376953125 C 13.5467472076416 100.5848999023438 11.57768249511719 96.95726776123047 9.987030029296875 93.196533203125 C 6.677877902984619 85.37283325195312 5.000008583068848 77.05912017822266 5.000008583068848 68.48631286621094 C 5.000008583068848 59.91350936889648 6.677877902984619 51.59981155395508 9.987030029296875 43.77611541748047 C 11.57768249511719 40.01535797119141 13.5467472076416 36.38774871826172 15.83950805664062 32.9940071105957 C 18.11135673522949 29.6312255859375 20.72059631347656 26.46885681152344 23.5947265625 23.5947265625 C 26.46885681152344 20.72059631347656 29.6312255859375 18.11135673522949 32.9940071105957 15.83950805664062 C 36.38774871826172 13.5467472076416 40.01535797119141 11.57768249511719 43.77611541748047 9.987030029296875 C 51.59981155395508 6.677877902984619 59.91350936889648 5.000008583068848 68.48631286621094 5.000008583068848 C 77.05912017822266 5.000008583068848 85.37283325195312 6.677877902984619 93.196533203125 9.987030029296875 C 96.95726776123047 11.57768249511719 100.5848999023438 13.5467472076416 103.9786376953125 15.83950805664062 C 107.341423034668 18.11135673522949 110.503791809082 20.72059631347656 113.3779220581055 23.5947265625 C 116.2520523071289 26.46885681152344 118.8612899780273 29.6312255859375 121.1331405639648 32.9940071105957 C 123.4259033203125 36.38774871826172 125.3949661254883 40.01535797119141 126.9856185913086 43.77611541748047 C 130.2947692871094 51.59981155395508 131.9726409912109 59.91350936889648 131.9726409912109 68.48631286621094 C 131.9726409912109 77.05912017822266 130.2947692871094 85.37283325195312 126.9856185913086 93.196533203125 C 125.3949661254883 96.95726776123047 123.4259033203125 100.5848999023438 121.1331405639648 103.9786376953125 C 118.8612899780273 107.341423034668 116.2520523071289 110.503791809082 113.3779220581055 113.3779220581055 C 110.503791809082 116.2520523071289 107.341423034668 118.8612899780273 103.9786376953125 121.1331405639648 C 100.5848999023438 123.4259033203125 96.95726776123047 125.3949661254883 93.196533203125 126.9856185913086 C 85.37283325195312 130.2947692871094 77.05912017822266 131.9726409912109 68.48631286621094 131.9726409912109 Z" stroke="none"/>
        <path d="M 68.48631286621094 10.00000762939453 C 36.23686981201172 10.00000762939453 10.00000762939453 36.23686981201172 10.00000762939453 68.48631286621094 C 10.00000762939453 100.7357559204102 36.23686981201172 126.9726181030273 68.48631286621094 126.9726181030273 C 100.7357559204102 126.9726181030273 126.9726181030273 100.7357559204102 126.9726181030273 68.48631286621094 C 126.9726181030273 36.23686981201172 100.7357559204102 10.00000762939453 68.48631286621094 10.00000762939453 M 68.48631286621094 0 C 106.3102569580078 0 136.9726257324219 30.66236877441406 136.9726257324219 68.48631286621094 C 136.9726257324219 106.3102569580078 106.3102569580078 136.9726257324219 68.48631286621094 136.9726257324219 C 30.66236877441406 136.9726257324219 0 106.3102569580078 0 68.48631286621094 C 0 30.66236877441406 30.66236877441406 0 68.48631286621094 0 Z" stroke="none" fill="#8c6df2"/>
      </g>
    </g>
    <circle id="Elipse_4752" data-name="Elipse 4752" cx="60.161" cy="60.161" r="60.161" transform="translate(-3682 -6437.114)" fill="#fedc72"/>
    <g id="Grupo_156186" data-name="Grupo 156186" transform="translate(-3654.196 -6419.409)">
      <path id="Trazado_204903" data-name="Trazado 204903" d="M222.6,39.8a3.9,3.9,0,1,0-3.9-3.9A3.884,3.884,0,0,0,222.6,39.8Z" transform="translate(-213.82 -32)" fill="#5038a1"/>
      <g id="Grupo_156179" data-name="Grupo 156179" transform="translate(0 8.673)">
        <path id="Trazado_204904" data-name="Trazado 204904" d="M184.686,115h-7.816A5,5,0,0,0,172,120.058v11.871a1.623,1.623,0,1,0,3.239,0V120.956h.627V150.8a2.249,2.249,0,1,0,4.493,0V133.6h.836v17.21a2.248,2.248,0,1,0,4.493-.01V120.956h.522v10.972a1.673,1.673,0,1,0,3.344,0V120.058A5.016,5.016,0,0,0,184.686,115Z" transform="translate(-172 -115)" fill="#5038a1"/>
      </g>
    </g>
    <g id="Grupo_156188" data-name="Grupo 156188" transform="translate(-3630.534 -6419.409)">
      <path id="Trazado_204903-2" data-name="Trazado 204903" d="M222.6,39.8a3.9,3.9,0,1,0-3.9-3.9A3.884,3.884,0,0,0,222.6,39.8Z" transform="translate(-213.82 -32)" fill="#5038a1"/>
      <g id="Grupo_156179-2" data-name="Grupo 156179" transform="translate(0 8.673)">
        <path id="Trazado_204904-2" data-name="Trazado 204904" d="M184.686,115h-7.816A5,5,0,0,0,172,120.058v11.871a1.623,1.623,0,1,0,3.239,0V120.956h.627V150.8a2.249,2.249,0,1,0,4.493,0V133.6h.836v17.21a2.248,2.248,0,1,0,4.493-.01V120.956h.522v10.972a1.673,1.673,0,1,0,3.344,0V120.058A5.016,5.016,0,0,0,184.686,115Z" transform="translate(-172 -115)" fill="#5038a1"/>
      </g>
    </g>
    <g id="Grupo_156189" data-name="Grupo 156189" transform="translate(-3606.873 -6419.409)">
      <path id="Trazado_204903-3" data-name="Trazado 204903" d="M222.6,39.8a3.9,3.9,0,1,0-3.9-3.9A3.884,3.884,0,0,0,222.6,39.8Z" transform="translate(-213.82 -32)" fill="#5038a1"/>
      <g id="Grupo_156179-3" data-name="Grupo 156179" transform="translate(0 8.673)">
        <path id="Trazado_204904-3" data-name="Trazado 204904" d="M184.686,115h-7.816A5,5,0,0,0,172,120.058v11.871a1.623,1.623,0,1,0,3.239,0V120.956h.627V150.8a2.249,2.249,0,1,0,4.493,0V133.6h.836v17.21a2.248,2.248,0,1,0,4.493-.01V120.956h.522v10.972a1.673,1.673,0,1,0,3.344,0V120.058A5.016,5.016,0,0,0,184.686,115Z" transform="translate(-172 -115)" fill="#5038a1"/>
      </g>
    </g>
    <g id="Grupo_156190" data-name="Grupo 156190" transform="translate(-3643.594 -6369.37)">
      <rect id="Rectángulo_47073" data-name="Rectángulo 47073" width="40.548" height="15.866" transform="translate(1.563 21.033)" fill="#5038a1"/>
      <path id="Línea_379" data-name="Línea 379" d="M-.437,17.4A.563.563,0,0,1-1,16.84V-.437A.563.563,0,0,1-.437-1a.563.563,0,0,1,.563.563V16.84A.563.563,0,0,1-.437,17.4Z" transform="translate(42.548 21.469)" fill="#5038a1"/>
      <path id="Línea_380" data-name="Línea 380" d="M-.437,17.4A.563.563,0,0,1-1,16.84V-.437A.563.563,0,0,1-.437-1a.563.563,0,0,1,.563.563V16.84A.563.563,0,0,1-.437,17.4Z" transform="translate(2 21.469)" fill="#5038a1"/>
      <path id="Trazado_204901" data-name="Trazado 204901" d="M37.309,4H6.119A3.118,3.118,0,0,0,3,7.119V18.036H6.119V14.917a1.56,1.56,0,0,1,1.56-1.56H18.6a1.56,1.56,0,0,1,1.56,1.56v3.119h3.119V14.917a1.56,1.56,0,0,1,1.56-1.56H35.75a1.56,1.56,0,0,1,1.56,1.56v3.119h3.119V7.119A3.118,3.118,0,0,0,37.309,4Z" transform="translate(0.123 0)" fill="#5038a1"/>
    </g>
  </g>
</svg>
