<svg xmlns="http://www.w3.org/2000/svg" width="136.973" height="136.973" viewBox="0 0 136.973 136.973">
  <g id="Grupo_161152" data-name="Grupo 161152" transform="translate(4391 6445.44)">
    <g id="Grupo_155489" data-name="Grupo 155489" transform="translate(-4391 -6445.44)">
      <g id="Trazado_137458" data-name="Trazado 137458" transform="translate(0 0)" fill="#fff">
        <path d="M 68.48631286621094 131.9726409912109 C 59.91350936889648 131.9726409912109 51.59981155395508 130.2947692871094 43.77611541748047 126.9856185913086 C 40.01535797119141 125.3949661254883 36.38774871826172 123.4259033203125 32.9940071105957 121.1331405639648 C 29.6312255859375 118.8612899780273 26.46885681152344 116.2520523071289 23.5947265625 113.3779220581055 C 20.72059631347656 110.503791809082 18.11135673522949 107.341423034668 15.83950805664062 103.9786376953125 C 13.5467472076416 100.5848999023438 11.57768249511719 96.95726776123047 9.987030029296875 93.196533203125 C 6.677877902984619 85.37283325195312 5.000008583068848 77.05912017822266 5.000008583068848 68.48631286621094 C 5.000008583068848 59.91350936889648 6.677877902984619 51.59981155395508 9.987030029296875 43.77611541748047 C 11.57768249511719 40.01535797119141 13.5467472076416 36.38774871826172 15.83950805664062 32.9940071105957 C 18.11135673522949 29.6312255859375 20.72059631347656 26.46885681152344 23.5947265625 23.5947265625 C 26.46885681152344 20.72059631347656 29.6312255859375 18.11135673522949 32.9940071105957 15.83950805664062 C 36.38774871826172 13.5467472076416 40.01535797119141 11.57768249511719 43.77611541748047 9.987030029296875 C 51.59981155395508 6.677877902984619 59.91350936889648 5.000008583068848 68.48631286621094 5.000008583068848 C 77.05912017822266 5.000008583068848 85.37283325195312 6.677877902984619 93.196533203125 9.987030029296875 C 96.95726776123047 11.57768249511719 100.5848999023438 13.5467472076416 103.9786376953125 15.83950805664062 C 107.341423034668 18.11135673522949 110.503791809082 20.72059631347656 113.3779220581055 23.5947265625 C 116.2520523071289 26.46885681152344 118.8612899780273 29.6312255859375 121.1331405639648 32.9940071105957 C 123.4259033203125 36.38774871826172 125.3949661254883 40.01535797119141 126.9856185913086 43.77611541748047 C 130.2947692871094 51.59981155395508 131.9726409912109 59.91350936889648 131.9726409912109 68.48631286621094 C 131.9726409912109 77.05912017822266 130.2947692871094 85.37283325195312 126.9856185913086 93.196533203125 C 125.3949661254883 96.95726776123047 123.4259033203125 100.5848999023438 121.1331405639648 103.9786376953125 C 118.8612899780273 107.341423034668 116.2520523071289 110.503791809082 113.3779220581055 113.3779220581055 C 110.503791809082 116.2520523071289 107.341423034668 118.8612899780273 103.9786376953125 121.1331405639648 C 100.5848999023438 123.4259033203125 96.95726776123047 125.3949661254883 93.196533203125 126.9856185913086 C 85.37283325195312 130.2947692871094 77.05912017822266 131.9726409912109 68.48631286621094 131.9726409912109 Z" stroke="none"/>
        <path d="M 68.48631286621094 10.00000762939453 C 36.23686981201172 10.00000762939453 10.00000762939453 36.23686981201172 10.00000762939453 68.48631286621094 C 10.00000762939453 100.7357559204102 36.23686981201172 126.9726181030273 68.48631286621094 126.9726181030273 C 100.7357559204102 126.9726181030273 126.9726181030273 100.7357559204102 126.9726181030273 68.48631286621094 C 126.9726181030273 36.23686981201172 100.7357559204102 10.00000762939453 68.48631286621094 10.00000762939453 M 68.48631286621094 0 C 106.3102569580078 0 136.9726257324219 30.66236877441406 136.9726257324219 68.48631286621094 C 136.9726257324219 106.3102569580078 106.3102569580078 136.9726257324219 68.48631286621094 136.9726257324219 C 30.66236877441406 136.9726257324219 0 106.3102569580078 0 68.48631286621094 C 0 30.66236877441406 30.66236877441406 0 68.48631286621094 0 Z" stroke="none" fill="#8c6df2"/>
      </g>
    </g>
    <circle id="Elipse_4752" data-name="Elipse 4752" cx="60.161" cy="60.161" r="60.161" transform="translate(-4383 -6437.567)" fill="#fedc72"/>
    <g id="Grupo_156180" data-name="Grupo 156180" transform="translate(-4505.566 -6443.881)">
      <path id="Trazado_204903" data-name="Trazado 204903" d="M223.608,41.816a4.908,4.908,0,1,0-4.908-4.908A4.891,4.891,0,0,0,223.608,41.816Z" transform="translate(-40.555)" fill="#5038a1"/>
      <g id="Grupo_156179" data-name="Grupo 156179" transform="translate(172 42.921)">
        <path id="Trazado_204904" data-name="Trazado 204904" d="M187.973,115h-9.842A6.3,6.3,0,0,0,172,121.368v14.947a2.043,2.043,0,1,0,4.079,0V122.5h.789v37.578c0,4,5.526,3.868,5.658,0V138.421h1.053v21.671a2.831,2.831,0,1,0,5.658-.013V122.5h.658v13.816a2.106,2.106,0,1,0,4.21,0V121.368A6.316,6.316,0,0,0,187.973,115Z" transform="translate(-172 -115)" fill="#5038a1"/>
      </g>
    </g>
    <g id="Grupo_156181" data-name="Grupo 156181" transform="translate(-4304.158 -6393.452)">
      <rect id="Rectángulo_47073" data-name="Rectángulo 47073" width="27.358" height="18.436" transform="translate(0.654 19.791)" fill="#5038a1"/>
      <path id="Línea_379" data-name="Línea 379" d="M-.346,20.384A.654.654,0,0,1-1,19.729V-.346A.654.654,0,0,1-.346-1a.654.654,0,0,1,.654.654V19.729A.654.654,0,0,1-.346,20.384Z" transform="translate(28.358 20.137)" fill="#5038a1"/>
      <path id="Línea_380" data-name="Línea 380" d="M-.346,20.384A.654.654,0,0,1-1,19.729V-.346A.654.654,0,0,1-.346-1a.654.654,0,0,1,.654.654V19.729A.654.654,0,0,1-.346,20.384Z" transform="translate(1 20.137)" fill="#5038a1"/>
      <path id="Trazado_204901" data-name="Trazado 204901" d="M22.925,4H6.624A3.623,3.623,0,0,0,3,7.624V20.309H6.624V16.685a1.813,1.813,0,0,1,1.812-1.812H21.121a1.813,1.813,0,0,1,1.812,1.812v3.624h3.616V7.624A3.623,3.623,0,0,0,22.925,4Z" transform="translate(-0.441 -4)" fill="#5038a1"/>
    </g>
    <g id="Grupo_156182" data-name="Grupo 156182" transform="translate(-4370.187 -6393.452)">
      <rect id="Rectángulo_47073-2" data-name="Rectángulo 47073" width="27.358" height="18.436" transform="translate(0.654 19.791)" fill="#5038a1"/>
      <path id="Línea_379-2" data-name="Línea 379" d="M-.346,20.384A.654.654,0,0,1-1,19.729V-.346A.654.654,0,0,1-.346-1a.654.654,0,0,1,.654.654V19.729A.654.654,0,0,1-.346,20.384Z" transform="translate(28.358 20.137)" fill="#5038a1"/>
      <path id="Línea_380-2" data-name="Línea 380" d="M-.346,20.384A.654.654,0,0,1-1,19.729V-.346A.654.654,0,0,1-.346-1a.654.654,0,0,1,.654.654V19.729A.654.654,0,0,1-.346,20.384Z" transform="translate(1 20.137)" fill="#5038a1"/>
      <path id="Trazado_204901-2" data-name="Trazado 204901" d="M22.925,4H6.624A3.623,3.623,0,0,0,3,7.624V20.309H6.624V16.685a1.813,1.813,0,0,1,1.812-1.812H21.121a1.813,1.813,0,0,1,1.812,1.812v3.624H26.55V7.624A3.623,3.623,0,0,0,22.925,4Z" transform="translate(-0.441 -4)" fill="#5038a1"/>
    </g>
  </g>
</svg>
