<svg xmlns="http://www.w3.org/2000/svg" xmlns:xlink="http://www.w3.org/1999/xlink" width="505" height="259.471" viewBox="0 0 505 259.471">
  <defs>
    <clipPath id="clip-path">
      <rect id="Rectángulo_47080" data-name="Rectángulo 47080" width="421.993" height="259.471" fill="none"/>
    </clipPath>
  </defs>
  <g id="Grupo_161156" data-name="Grupo 161156" transform="translate(-180 -5892.962)">
    <g id="Grupo_156199" data-name="Grupo 156199" transform="translate(0 -71.566)">
      <path id="Trazado_116171" data-name="Trazado 116171" d="M292.238,32.977A195.814,195.814,0,0,1,274.591,49.5a144.159,144.159,0,0,1-19.927,13.775A104.7,104.7,0,0,1,232.009,73a73.75,73.75,0,0,1-12.5,2.477c-1.077.093-2.154.213-3.247.246-.545.023-1.09.057-1.638.07l-1.65.007c-1.108.011-2.174-.036-3.268-.056-1.081-.066-2.173-.11-3.253-.216A91.009,91.009,0,0,1,181.53,69.3c-7.856-3.052-15.2-6.735-22.271-10.261-3.532-1.771-7.009-3.493-10.429-5.094-1.713-.809-3.407-1.567-5.094-2.309-.841-.355-1.681-.725-2.516-1.061l-2.586-1.05c-7.2-2.915-14.243-5.629-21.174-7.794C114,40.648,110.568,39.7,107.2,38.939c-1.685-.381-3.356-.717-5.006-1s-3.283-.494-4.885-.658a47.052,47.052,0,0,0-17.279,1.045,31.437,31.437,0,0,0-3.53,1.212c-.562.227-1.106.479-1.642.733l-.789.4c-.237.135-.475.259-.707.4a24.7,24.7,0,0,0-5.118,3.976c-.378.388-.749.782-1.1,1.193l-1.367,1.536c-.472.53-.895,1.083-1.345,1.613-.434.54-.83,1.1-1.249,1.632a41.327,41.327,0,0,0-3.993,6.686,37.024,37.024,0,0,0-2.494,6.87,37.414,37.414,0,0,0-1.12,7.128A53.614,53.614,0,0,0,56.936,87,80.252,80.252,0,0,0,62.6,103.117a86.432,86.432,0,0,0,4.158,7.833c.752,1.259,1.531,2.488,2.312,3.646.389.574.786,1.129,1.165,1.632.189.25.377.492.545.689a3.341,3.341,0,0,0,.233.257c.029.023.071.072.083.065l.014,0s.017.017,0-.028l-.082-.186a33.654,33.654,0,0,1-58.294,33.646l-.264-.507-.169-.346-.27-.579-.461-1.039c-.29-.669-.551-1.3-.8-1.924-.5-1.247-.963-2.456-1.409-3.655-.88-2.394-1.677-4.755-2.415-7.123-1.472-4.73-2.7-9.487-3.737-14.317A140.181,140.181,0,0,1,0,91.191,106.1,106.1,0,0,1,4.7,59.743a92.674,92.674,0,0,1,6.283-15.165,86.183,86.183,0,0,1,8.891-13.673,88.894,88.894,0,0,1,10.9-11.486c.981-.836,1.952-1.687,2.945-2.49,1-.786,1.991-1.595,3.006-2.343l1.525-1.112c.519-.375.979-.716,1.6-1.146,1.17-.824,2.372-1.6,3.592-2.351a67.339,67.339,0,0,1,15.6-7.033c.682-.213,1.372-.4,2.06-.591.674-.174,1.339-.342,2.01-.5,1.342-.308,2.685-.589,4.031-.816a71.531,71.531,0,0,1,8.03-.92,77.562,77.562,0,0,1,15.4.694,93.54,93.54,0,0,1,14.055,3.166,142.641,142.641,0,0,1,24.459,10.275c7.518,3.939,14.525,8.228,21.268,12.48l2.63,1.666c.9.572,1.773,1.157,2.657,1.736,1.737,1.17,3.453,2.345,5.115,3.532,3.343,2.369,6.544,4.757,9.7,7.077,6.308,4.648,12.389,9.117,18.659,12.9a74.471,74.471,0,0,0,19.537,8.637c.85.235,1.709.411,2.568.618l1.3.251.65.127c.216.038.428.059.642.09l1.286.173c.431.05.867.079,1.3.121.868.1,1.75.114,2.632.161.884.028,1.774.026,2.667.023.894-.042,1.792-.033,2.692-.114l1.353-.095c.452-.034.9-.093,1.355-.139.9-.088,1.808-.225,2.713-.362.908-.118,1.808-.316,2.716-.471.9-.174,1.806-.384,2.712-.578.9-.238,1.8-.459,2.693-.711.891-.27,1.793-.508,2.679-.8,1.783-.562,3.547-1.2,5.292-1.9.874-.347,1.748-.7,2.608-1.084l1.3-.568,1.278-.61A95.686,95.686,0,0,0,270.289,44.22a93.883,93.883,0,0,0,15.886-16.386,3.983,3.983,0,1,1,6.082,5.123Z" transform="translate(180 6019.376)" fill="#fdb74d"/>
      <g id="Grupo_156198" data-name="Grupo 156198" transform="translate(263.007 5964.529)">
        <g id="Grupo_156197" data-name="Grupo 156197" clip-path="url(#clip-path)">
          <path id="Trazado_204905" data-name="Trazado 204905" d="M518.512,329.145s1.838-9.717-9.335-13.232-222.367-3.951-226.158-1.864-12.841,15.1-12.841,15.1Z" transform="translate(-101.453 -117.454)" fill="#c0d4ff"/>
          <rect id="Rectángulo_47074" data-name="Rectángulo 47074" width="253.268" height="40.617" transform="translate(168.725 68.038)" fill="#aec3ff"/>
          <rect id="Rectángulo_47075" data-name="Rectángulo 47075" width="252.876" height="40.618" transform="translate(168.725 211.051)" fill="#aec3ff"/>
          <rect id="Rectángulo_47076" data-name="Rectángulo 47076" width="9.867" height="31.077" transform="translate(168.725 228.394)" fill="#aec3ff"/>
          <rect id="Rectángulo_47077" data-name="Rectángulo 47077" width="9.867" height="41.32" transform="translate(412.126 218.151)" fill="#aec3ff"/>
          <rect id="Rectángulo_47078" data-name="Rectángulo 47078" width="4.934" height="164.805" transform="translate(417.06 74.005)" fill="#aec3ff"/>
          <rect id="Rectángulo_47079" data-name="Rectángulo 47079" width="36.353" height="73.91" transform="translate(385.641 1.465)" fill="#aec3ff"/>
          <path id="Trazado_204906" data-name="Trazado 204906" d="M315.683,149.172a7.21,7.21,0,0,0-5.726.295c-9.743.4-10.105,10.387-8.961,14.1,1.606,5.22-4.078,9.336,2.226,11.448,7.314,2.451,13.452-1.419,13.033-.157,23.13,1.823,7.125-23.134-.571-25.689" transform="translate(-112.715 -55.852)" fill="#2a539b"/>
          <path id="Trazado_204907" data-name="Trazado 204907" d="M300.174,214.76a25.587,25.587,0,0,1-2.6,3.939c-2.024,2.535-12.647-3.482-11.732-3.939s6.088-15.142,8.278-17.745a9.323,9.323,0,0,1,4.849-2.959Z" transform="translate(-107.312 -72.869)" fill="#8c6df2"/>
          <path id="Trazado_204908" data-name="Trazado 204908" d="M359.843,392.53s2.932,2.675,2.36,4.576-3.217,3.169-3.575,5.492-1.788,3.591-3.075,3.591h-6.137s-.947-1.635,1.341-2.128,3.151-3.223,3.008-5.758a44.661,44.661,0,0,1,.215-5.915l4.862-1.127Z" transform="translate(-131.134 -146.92)" fill="#4075c1"/>
          <path id="Trazado_204909" data-name="Trazado 204909" d="M316.449,395.111s1.055,11.335-.232,11.969l-16.473-.034s0-1.9,2.646-2.323,7.294-1.972,8.08-5.423,5.979-4.189,5.979-4.189" transform="translate(-112.555 -148.365)" fill="#4075c1"/>
          <path id="Trazado_204910" data-name="Trazado 204910" d="M328.89,206.576a65.616,65.616,0,0,1,0,7.613c-.163,2.753-2.948,6.44-3.343,7.353-.991,2.288-2.11,2.66-2.11,2.66l-8.649,2.12-3.041.744-9.59-2.864s-4.368-12.192-2.614-19.055a52.745,52.745,0,0,1,4.433-11.629s6.517-1.466,18.015-.65Z" transform="translate(-112.323 -72.33)" fill="#8c6df2"/>
          <path id="Trazado_204911" data-name="Trazado 204911" d="M337.742,222.83c-.163,2.753-3.771,6.344-4.167,7.256-.991,2.288-2.11,2.66-2.11,2.66l-8.649,2.12-2.307-3.254s14-3.894,11.35-16.238Z" transform="translate(-120.352 -80.874)" fill="#5038a1"/>
          <path id="Trazado_204912" data-name="Trazado 204912" d="M301.912,246.154s-4.749,14.782-5.054,19.815,9.078,71.5,9.456,73.817c.356,2.186,3.071,3.58,3.071,3.58a4.109,4.109,0,0,0,3.03.234,7.489,7.489,0,0,0,3.254-1.534s3.7-47.4,1.409-64.335a268.185,268.185,0,0,1-2.314-31.576Z" transform="translate(-111.468 -92.432)" fill="#fdb74d"/>
          <path id="Trazado_204913" data-name="Trazado 204913" d="M326.017,245.449s7.244,9.72,7.919,16.291,1.06,29.652,2.5,36.057,6.726,18.733,6.726,38.712a3.989,3.989,0,0,1-2.247,1.755,18.672,18.672,0,0,1-1.975.546,3.107,3.107,0,0,1-3.473-1.649c-3.574-7.2-14.959-30.4-15.542-35.223-.412-3.409-4.007-25.974-11.849-39.215-1.882-3.179,1.155-15.82,1.155-15.82Z" transform="translate(-115.452 -92.167)" fill="#fedc72"/>
          <path id="Trazado_204914" data-name="Trazado 204914" d="M303.579,242.5a9.955,9.955,0,0,0,5.694,1.584c4.524.091,15.734-1.153,15.734-1.153a9.281,9.281,0,0,1,.478,2.861s-13.691,3.453-21.624.5a5.014,5.014,0,0,1-.282-3.8" transform="translate(-113.894 -91.059)" fill="#5038a1"/>
          <path id="Trazado_204915" data-name="Trazado 204915" d="M309.879,248.47a2.355,2.355,0,1,1,2.064-2.337,2.216,2.216,0,0,1-2.064,2.337m0-3.989a1.679,1.679,0,1,0,1.38,1.652,1.536,1.536,0,0,0-1.38-1.652" transform="translate(-115.585 -91.547)" fill="#fff"/>
          <path id="Trazado_204916" data-name="Trazado 204916" d="M308.5,243.777l-20.578.192-10.127-23.8,20.578-.192Z" transform="translate(-104.312 -82.603)" fill="#fdb74d"/>
          <path id="Trazado_204917" data-name="Trazado 204917" d="M316.3,238.6l-1.508-1.854a5.307,5.307,0,0,0-1.762-1.065c-.741-.155-2.305-1.057-2.457-.8s1.2,2.067,1.2,2.067l.068.01c-1.553,1.168-5.476.137-5.96.613-.587.578.807,1.827,1.556,2.529s2.888,1.87,4.556,1.351c1.219-.38,3.138-.766,3.138-.766Z" transform="translate(-114.809 -88.181)" fill="#ffb27d"/>
          <path id="Trazado_204918" data-name="Trazado 204918" d="M280.191,226.416s1.293-1.469,2.116-.764-.215,4.174-1,3.821-1.568-2.626-1.117-3.057" transform="translate(-105.163 -84.661)" fill="#ffb27d"/>
          <path id="Trazado_204919" data-name="Trazado 204919" d="M329.52,193.016s6.861.481,9.492,6.875,7.465,16.918,6.426,21.328c-.415,1.759-5.414,7.846-26.262,3.978a4.879,4.879,0,0,1,1.579-3.2s14.689-4.716,14.664-5.654c-.047-1.775-1.985-3.308-10.19-11.516-2.231-2.231,4.291-11.808,4.291-11.808" transform="translate(-119.852 -72.478)" fill="#8c6df2"/>
          <path id="Trazado_204920" data-name="Trazado 204920" d="M323.131,188.1c.2-.272-.058-1.137-.382-2.749a30.112,30.112,0,0,1-.78-6.258l-.434.072-7.3,1.228s.166,1.952.171,3.791v.046c.009,1.6-.431,4.011.107,4.327,2.767,1.621,7.839.588,8.618-.457" transform="translate(-117.996 -67.25)" fill="#ffb27d"/>
          <path id="Trazado_204921" data-name="Trazado 204921" d="M314.234,180.437s.145,2.753.15,4.591c4.085-.1,6.266-4.064,7.151-5.82Z" transform="translate(-117.996 -67.294)" fill="#e8945b"/>
          <path id="Trazado_204922" data-name="Trazado 204922" d="M310.514,176.281s9.572-1.363,8.631-7.31-.34-10.129-6.49-9.51-6.976,3.076-7.145,5.138,2.49,11.884,5,11.683" transform="translate(-114.717 -59.855)" fill="#ffb27d"/>
          <path id="Trazado_204923" data-name="Trazado 204923" d="M309.957,159.382s3.724,6.56,7.9,6.953,5.745-.959,5.745-.959a11.5,11.5,0,0,1-4.785-6.119s-7.418-3.509-8.86.126" transform="translate(-116.39 -59.229)" fill="#2a539b"/>
          <path id="Trazado_204924" data-name="Trazado 204924" d="M308.515,160.581a6,6,0,0,0-2.4,2.574,9.733,9.733,0,0,0-.42,5.664s-2.725-4.428-.939-7.463c1.893-3.218,3.755-.776,3.755-.776" transform="translate(-114.211 -59.965)" fill="#2a539b"/>
          <path id="Trazado_204925" data-name="Trazado 204925" d="M538.906,61.642s5.1-17.553,20.9-27.268c0,0,24.362.606,39.338,12.186,0,0-19.83,26.427-17.909,43.153,0,0-32.7-7.452-42.327-28.072" transform="translate(-202.361 -12.908)" fill="#fedc72"/>
          <path id="Trazado_204926" data-name="Trazado 204926" d="M624.589,53.889s.031,16.928-5.423,28.136S606.68,97.042,606.68,97.042c.041-.107-1.3-30.6,17.909-43.153" transform="translate(-227.807 -20.235)" fill="#fdb74d"/>
          <path id="Trazado_204927" data-name="Trazado 204927" d="M534.216,33.512s.744-21.683,6.259-31.077S563.211,13.86,563.211,13.86L543.839,29.667Z" transform="translate(-200.6 0)" fill="#8c9df4"/>
          <path id="Trazado_204928" data-name="Trazado 204928" d="M327.215,96.877s-14.586-.679-16.567-1.912-6.412-1.994-7.956-3.544-3.649-3.187-4.508-1.651c-1.093,1.957,1.89,7.8,3.274,8.735s5.77,2.846,7.749,5a3.852,3.852,0,0,0,5.891.277c1.56-1.517,15.137-3.977,15.137-3.977Z" transform="translate(-111.881 -33.478)" fill="#f9ddbf"/>
          <path id="Trazado_204929" data-name="Trazado 204929" d="M431.737,76.1c-1.6-1.7-29.733-15.975-40.811-15.739-12.213.261-47.326,22.886-47.326,22.886l13.765-.669s31.465-7.253,34.426-6.173c9.086,3.317,34.832,26.278,48.794,22.318,15.138-4.294,15.8-14.93,15.8-14.93Z" transform="translate(-129.023 -22.666)" fill="#5038a1"/>
          <path id="Trazado_204930" data-name="Trazado 204930" d="M531.106,79.093c-.354.42-.717.829-1.092,1.228a35.534,35.534,0,0,1-6.223,5.2c-11.649,7.757-26.646,9.348-26.646,9.348-17.309-6.963-14.879-33.484-14.879-33.484,23.271-.263,41.119-27.008,41.119-27.008s13.938,7.234,20.524,17.139c3.524,5.3,2.419,18.857,1.821,21.827-1.122,5.576-6.906-3.435-14.624,5.752" transform="translate(-181.048 -12.908)" fill="#8c9df4"/>
          <path id="Trazado_204931" data-name="Trazado 204931" d="M566.148,42.888a20.971,20.971,0,0,0-1.037,4.533,5.077,5.077,0,0,1-3.943,4.378,10.654,10.654,0,0,1-4.358.2,2.7,2.7,0,0,1-2.141-3.16c.137-.7.265-1.342.3-1.451q.1-.311.18-.6c.656-2.17.965-3.391.965-3.391l.009,0c.245-.019,5.795-.466,8.529-.566a4.237,4.237,0,0,1,1.5.048" transform="translate(-208.261 -16.079)" fill="#ffb27d"/>
          <path id="Trazado_204932" data-name="Trazado 204932" d="M556.511,44.541a12.511,12.511,0,0,0,7.907.362c-.363-.4,1.368-1.8.944-2.083-2.735.1-7.66-.069-7.906-.049-.006,0-.7.484-.7.484s-.116.523-.24,1.286" transform="translate(-208.972 -16.06)" fill="#ed975d"/>
          <path id="Trazado_204933" data-name="Trazado 204933" d="M554.163,33.694a20.23,20.23,0,0,0,3.48,1.575c2.91,1,6.889,1.541,8.843-1.832,3.29-5.676,6.673-8.8,1.044-12.5-3.013-1.982-5.1-2.469-6.62-2.244a5.023,5.023,0,0,0-2.953,1.68C556.4,22,551.9,32.136,554.163,33.694" transform="translate(-207.855 -7)" fill="#ffb27d"/>
          <path id="Trazado_204934" data-name="Trazado 204934" d="M560.331,13.906a3.307,3.307,0,0,0,2.123,5.735,5.539,5.539,0,0,1,2.568.417c1.388.979,1.155,3.587,1.021,4.4s-.163,1.524,2,1.448a1.026,1.026,0,0,1,.743.194c.674.605-.513,2.458-1.088,3.185a2.109,2.109,0,0,0-.355.668,2.456,2.456,0,0,0,.235,2.286c.107.128,2,1.447,8.519-5.21a7.245,7.245,0,0,0,1.616-6.447c-.694-2.845-5.5-6.808-9.855-8.253a6.991,6.991,0,0,0-7.528,1.572" transform="translate(-210.005 -4.46)" fill="#233862"/>
          <path id="Trazado_204935" data-name="Trazado 204935" d="M424.891,89.185s-28.934-6.8-45-6.625c-10.952.119-38.1,7.071-51.653,10.423a11,11,0,0,0,.2,4.23c.667,3.153,3.041,3.505,3.041,3.505s28.981-1.261,41.959-1.246,33.215,16.564,68.439,7.935Z" transform="translate(-123.213 -31)" fill="#8c6df2"/>
          <path id="Trazado_204936" data-name="Trazado 204936" d="M529.275,83.3s-5.4-1.3-7.441-.658-5.005,3.642-4.552,3.786c4.153,1.318,4.891-.843,6.282-.409a5.725,5.725,0,0,0,4.1.018,6.413,6.413,0,0,1,3.575.031l1.039-1.962Z" transform="translate(-194.224 -30.964)" fill="#ffb27d"/>
          <path id="Trazado_204937" data-name="Trazado 204937" d="M522.184,82.845s-3.632.378-3.519.726,2.119.522,2.119.522Z" transform="translate(-194.759 -31.109)" fill="#ffb27d"/>
          <path id="Trazado_204938" data-name="Trazado 204938" d="M549.436,101.807a35.516,35.516,0,0,1-6.224,5.2c-5.9-4.356-9.287-15.229-9.343-15.411Z" transform="translate(-200.47 -34.394)" fill="#6980e2"/>
          <path id="Trazado_204939" data-name="Trazado 204939" d="M565.141,73.573s2.6,20.117-6.173,27.746-25.292-16.494-25.292-16.494-1.913-2.155,3.64-4.922l15.366,6.707c2.335-.611.666-10.016,12.459-13.038" transform="translate(-200.278 -27.627)" fill="#8c9df4"/>
          <path id="Trazado_204940" data-name="Trazado 204940" d="M545.749,84.369s8.586,5.427,11.07,4.187.747-7.485.747-7.485.563,8.336-11.818,3.3" transform="translate(-204.93 -30.443)" fill="#6980e2"/>
          <path id="Trazado_204941" data-name="Trazado 204941" d="M494.938,114.6s-15.573-5.1-18.666-27.676a60.672,60.672,0,0,0,16.261,2.529l14.451,12.138Z" transform="translate(-178.842 -32.64)" fill="#8c9df4"/>
          <path id="Trazado_204942" data-name="Trazado 204942" d="M502.311,89.895l18.611,1.858a1.8,1.8,0,0,0-1.615-1.973L502.49,88.1Z" transform="translate(-188.619 -33.082)" fill="#fdb74d"/>
          <path id="Trazado_204943" data-name="Trazado 204943" d="M489.012,50.016l-28.774-2.872,4.455,25.193,28.962,2.891Z" transform="translate(-172.821 -17.703)" fill="#fdb74d"/>
          <path id="Trazado_204944" data-name="Trazado 204944" d="M459.558,47.075l4.456,25.193,28.962,2.891-4.643-25.212Z" transform="translate(-172.565 -17.677)" fill="#fedc72"/>
          <path id="Trazado_204945" data-name="Trazado 204945" d="M482.473,67.854a2,2,0,0,0,1.557,1.868c.774.077,1.333-.634,1.248-1.587a2.005,2.005,0,0,0-1.557-1.868c-.774-.077-1.333.634-1.248,1.588" transform="translate(-181.167 -24.881)" fill="#fff"/>
          <path id="Trazado_204946" data-name="Trazado 204946" d="M206.686,379.25l-1.409,5.928-1.871,7.863h-5.844l-.348-7.532-.269-5.81Z" transform="translate(-73.953 -142.409)" fill="#ffb27d"/>
          <path id="Trazado_204947" data-name="Trazado 204947" d="M237.2,171.065s4.624-4.948,7.631-1.068,6.339,6.5,10.953,9.483-4.077,26.374-9.856,25.894-29.361-18.921-8.727-34.309" transform="translate(-85.95 -63.277)" fill="#5038a1"/>
          <path id="Trazado_204948" data-name="Trazado 204948" d="M205.327,167.345c1.154-.863,11.783-4.512,22.145-.923s-8.026,13.585-8.026,13.585l-5.96.256Z" transform="translate(-77.101 -61.91)" fill="#fdb74d"/>
          <path id="Trazado_204949" data-name="Trazado 204949" d="M194.232,409.971a15.562,15.562,0,0,1,.408-3.813c.408-.952,1.9-4.825,1.9-4.825h5.845a35.847,35.847,0,0,1,1.155,4.689c.067,1.155,0,3.949,0,3.949Z" transform="translate(-72.935 -150.702)" fill="#5038a1"/>
          <path id="Trazado_204950" data-name="Trazado 204950" d="M248.036,409.971a15.585,15.585,0,0,0-.407-3.813c-.408-.952-1.9-4.825-1.9-4.825h-5.845a35.847,35.847,0,0,0-1.155,4.689c-.068,1.155,0,3.949,0,3.949Z" transform="translate(-89.631 -150.702)" fill="#5038a1"/>
          <path id="Trazado_204951" data-name="Trazado 204951" d="M211.665,156.012s-.206,6.371-1.022,9.226l-6.454,13.911,24.295-5.773-5.794-8.005s-1.749-8.542-.832-11.7-10.194,2.345-10.194,2.345" transform="translate(-76.674 -57.335)" fill="#ffb27d"/>
          <path id="Trazado_204952" data-name="Trazado 204952" d="M216.1,159.419s1.921,4.625,5.54,4.523,4.443-4.194,4.443-4.194Z" transform="translate(-81.147 -59.862)" fill="#ed985f"/>
          <path id="Trazado_204953" data-name="Trazado 204953" d="M211.185,142.355a58.067,58.067,0,0,0-1.984-7.6c-.816-1.767-1.5-9.65,7.543-10.058,0,0,3.466.408,5.369-.748,0,0,0,1.155-.476,1.563a6.008,6.008,0,0,1,5.573,1.971c2.446,2.718-1.631,12.232-1.427,14.475Z" transform="translate(-78.389 -46.543)" fill="#2c3a64"/>
          <path id="Trazado_204954" data-name="Trazado 204954" d="M219.831,153.29c-2.622-.046-7.448-3.538-7.448-7.861v-6.747a2.692,2.692,0,0,1,2.447-2.871h10a2.692,2.692,0,0,1,2.447,2.871v6.365c0,4.534-4.441,8.3-7.448,8.243" transform="translate(-79.75 -50.997)" fill="#ffb27d"/>
          <path id="Trazado_204955" data-name="Trazado 204955" d="M212.182,141.365s.014-4.054,3.225-4.677,10.4,1.976,11.417-.98-13.891-2.906-14.642-1.019,0,6.676,0,6.676" transform="translate(-79.55 -50.078)" fill="#2c3a64"/>
          <path id="Trazado_204956" data-name="Trazado 204956" d="M215.321,257.86c1.608-5.007,1.576,20.723-4.88,49.664-.985,4.417-3.192,15.069-4.776,25.376H192.436c-.183-8.324-1.075-19.944-1.637-28.648-1.762-27.281,2.723-47.754,2.723-47.754Z" transform="translate(-71.491 -96.316)" fill="#8c6df2"/>
          <path id="Trazado_204957" data-name="Trazado 204957" d="M242.455,304.22c-.146,8.342-1.84,19.422-1.994,27.545H227.04c-.9-5.9-2.334-11.967-3.362-16.865a46.481,46.481,0,0,1-1.253-8.177c.016-3.543-2.226-13.759-3.56-22.767,0-.014,0-.025-.006-.036-.052-.347-.1-.693-.151-1.035a149.6,149.6,0,0,1-1.157-25.057l22.645-1.414s2.647,25.561,2.259,47.807" transform="translate(-81.651 -96.284)" fill="#8c6df2"/>
          <path id="Trazado_204958" data-name="Trazado 204958" d="M192.533,273.3s5.095,6.173,18.937,5.282,20.445-3.3,20.445-3.3Z" transform="translate(-72.297 -102.625)" fill="#5038a1"/>
          <path id="Trazado_204959" data-name="Trazado 204959" d="M231.355,237.469c-4.521.615-35.28,2.213-39.381-1.982s6.694-61.432,6.694-61.432,1.223-.353,3.285-.742c1.052-.2,2.321-.4,3.757-.577.017.447.372,7.194,5.975,9.982,0,0,6.728-2.7,6.069-9.872-.008-.084-.017-.165-.029-.246.9.1,1.807.221,2.721.378a38.473,38.473,0,0,1,5.567,1.379s9.864,62.5,5.342,63.112" transform="translate(-71.738 -64.812)" fill="#fedc72"/>
          <path id="Trazado_204960" data-name="Trazado 204960" d="M186.139,208.812c-.182.238,1.044,2,2.775,4.264,3.559,4.652,9.252,11.422,9.252,11.422a23.284,23.284,0,0,1-.4,3.775,85.656,85.656,0,0,1-16.612-9.927c-4.928-3.9-6.341-6.465-6.341-6.465,7.9-33.424,18.039-36.9,18.039-36.9l3.307,20.141s-9.469,12.97-10.023,13.695" transform="translate(-65.644 -65.704)" fill="#fedc72"/>
          <path id="Trazado_204961" data-name="Trazado 204961" d="M227.006,172.978l-2.038,6.2-2.716,3.989-3.9,2.115-3.67-2.115-6.169-9.852c1.052-.2,2.321-.4,3.757-.577a6.39,6.39,0,0,0,.764,2.519,6.058,6.058,0,0,0,10.715.024,4.882,4.882,0,0,0,.565-2.433,2.421,2.421,0,0,0-.029-.247c.9.1,1.807.222,2.721.379" transform="translate(-78.297 -64.811)" fill="#fff"/>
          <path id="Trazado_204962" data-name="Trazado 204962" d="M201.979,247.407c0,.066,0,.129-.008.192-.017.423-.042.819-.074,1.178a6.419,6.419,0,0,1-.649.765,6.855,6.855,0,0,1-1.144.927c-.2-.094-.4-.192-.59-.289a81.987,81.987,0,0,1-14.545-8.926,17.457,17.457,0,0,0,7.758-5.271c3.558,4.653,9.253,11.423,9.253,11.423" transform="translate(-69.456 -88.613)" fill="#ffb27d"/>
          <path id="Trazado_204963" data-name="Trazado 204963" d="M260.5,210.364s-1.365,2.588-6.216,6.585a85.674,85.674,0,0,1-16.42,10.244,23.307,23.307,0,0,1-.469-3.768s5.562-6.878,9.031-11.6c1.687-2.3,2.878-4.082,2.692-4.317-.44-.554-6.375-8.361-9.023-11.842l-1.258-1.657,3.352-19.8s9.771,2.887,18.311,36.153" transform="translate(-89.144 -65.417)" fill="#fedc72"/>
          <path id="Trazado_204964" data-name="Trazado 204964" d="M254.445,239.569a82.4,82.4,0,0,1-14.44,9.239l-.5.257a9.3,9.3,0,0,1-1.684-3.345c.112-.139.255-.322.433-.538,1.6-1.994,5.612-7.031,8.336-10.735a17.454,17.454,0,0,0,7.857,5.121" transform="translate(-89.302 -88.036)" fill="#ffb27d"/>
          <path id="Trazado_204965" data-name="Trazado 204965" d="M226.542,170.81a53.921,53.921,0,0,0-12.015.136.154.154,0,0,1,0-.022s11.122-6.878,12.017-.114" transform="translate(-80.555 -63.022)" fill="#ffb27d"/>
          <path id="Trazado_204966" data-name="Trazado 204966" d="M215.67,197.3h-.229l-.168-10.72h.577Z" transform="translate(-80.836 -70.063)" fill="#fdb74d"/>
          <path id="Trazado_204967" data-name="Trazado 204967" d="M215.224,203.235c-.207.313-.674,1.35-.365,1.459a1.316,1.316,0,0,0,1-.03c.146-.146-.243-2.021-.636-1.429" transform="translate(-80.641 -76.272)" fill="#fdb74d"/>
          <path id="Trazado_204968" data-name="Trazado 204968" d="M232.527,197.3H232.3l-.168-10.72h.576Z" transform="translate(-87.166 -70.063)" fill="#fdb74d"/>
          <path id="Trazado_204969" data-name="Trazado 204969" d="M232.082,203.235c-.208.313-.675,1.35-.365,1.459a1.316,1.316,0,0,0,1-.03c.146-.146-.243-2.021-.636-1.429" transform="translate(-86.972 -76.272)" fill="#fdb74d"/>
          <path id="Trazado_204970" data-name="Trazado 204970" d="M212.308,181.635l-9.454-9.11s-2.129-1.511,1.235-3.77,8.218,12.88,8.218,12.88" transform="translate(-75.923 -63.282)" fill="#fdb74d"/>
          <path id="Trazado_204971" data-name="Trazado 204971" d="M230.511,181.635l9.454-9.11s2.129-1.511-1.235-3.77-8.218,12.88-8.218,12.88" transform="translate(-86.558 -63.282)" fill="#fdb74d"/>
          <path id="Trazado_204972" data-name="Trazado 204972" d="M231.239,255.6a5.837,5.837,0,0,1-4.564-1.365,5.712,5.712,0,0,1-.552-.569,9.03,9.03,0,0,1-1.753-3.626,12.206,12.206,0,0,1-.375-2.388l-.008-.267h-15.27l.01.285a8.556,8.556,0,0,1-.792,4.21,5.99,5.99,0,0,1-1.111,1.551,6.359,6.359,0,0,1-1.346,1.03,9.252,9.252,0,0,1-4.347,1.138l-.282-.009v6.452h30.688v-6.467Z" transform="translate(-75.419 -92.894)" fill="#fdb74d"/>
          <path id="Trazado_204973" data-name="Trazado 204973" d="M253.546,218.82s-8.512-11.169-1.774-14.421c2.675-1.291,6.44,14.036,4.422,15.478s-5.341,3.259-5.341,3.259Z" transform="translate(-93.567 -76.723)" fill="#fdb74d"/>
          <path id="Trazado_204974" data-name="Trazado 204974" d="M191.738,216.962s2.957-14.024.362-12.579-6.44,14.036-4.421,15.478,5.34,3.259,5.34,3.259Z" transform="translate(-70.262 -76.707)" fill="#fdb74d"/>
          <path id="Trazado_204975" data-name="Trazado 204975" d="M251.16,207.949c-3.888-4.826-5.339-12.661-5.141-20.747a94.422,94.422,0,0,1,1.036-11.742l3.187,2.484a22.053,22.053,0,0,0-1.97,9.276c-.128,5.4-.385,9.516,2.67,18.921Z" transform="translate(-92.374 -65.886)" fill="#5038a1"/>
          <path id="Trazado_204976" data-name="Trazado 204976" d="M201.647,378.7l-6.849,0c-.606.069-1.555-.819-1.555-2.088a25.214,25.214,0,0,0-.215-3.583c-.881-2.371.43-2.5,1.7-2.5h12.5c1.269,0-.674,3.922-.674,5.191l.45,1.663c0,1.269-4.082,1.32-5.35,1.32" transform="translate(-72.374 -139.134)" fill="#5038a1"/>
          <path id="Trazado_204977" data-name="Trazado 204977" d="M205.439,388.743l-1.871,7.863h-5.844l-.348-7.532a12.2,12.2,0,0,0,8.063-.331" transform="translate(-74.115 -145.974)" fill="#fff"/>
          <path id="Trazado_204978" data-name="Trazado 204978" d="M235.36,379.25l1.409,5.928,1.87,7.863h5.845l.347-7.532.269-5.81Z" transform="translate(-88.378 -142.409)" fill="#ffb27d"/>
          <path id="Trazado_204979" data-name="Trazado 204979" d="M237.29,378.7l6.848,0c.606.069,1.556-.819,1.556-2.088a25.212,25.212,0,0,1,.215-3.583c.881-2.371-.43-2.5-1.7-2.5h-12.5c-1.269,0,.674,3.922.674,5.191l-.45,1.663c0,1.269,4.081,1.32,5.35,1.32" transform="translate(-86.848 -139.134)" fill="#5038a1"/>
          <path id="Trazado_204980" data-name="Trazado 204980" d="M237.617,388.743l1.87,7.863h5.845l.348-7.532a12.2,12.2,0,0,1-8.063-.331" transform="translate(-89.226 -145.974)" fill="#fff"/>
          <path id="Trazado_204981" data-name="Trazado 204981" d="M220.323,156.147a3.183,3.183,0,0,0,2.49,1.183,2.96,2.96,0,0,0,2.328-1.183,15.8,15.8,0,0,0-4.818,0" transform="translate(-82.732 -58.561)" fill="#fff"/>
          <path id="Trazado_204982" data-name="Trazado 204982" d="M142.51,211.521s-.294,13.9.388,17.953-.892,22.917-.892,22.917l-3.254-.408s-8.146-30.81-7.314-34.763,11.073-5.7,11.073-5.7" transform="translate(-49.333 -79.427)" fill="#ffb27d"/>
          <path id="Trazado_204983" data-name="Trazado 204983" d="M146.236,276.719s1.256,4.218.956,5.025a12.419,12.419,0,0,1-3.22,3.516c-1.32,1.025-.157-2.7.094-3.909s-1.692-1.295-1.388-3.168l.3-1.873Z" transform="translate(-53.564 -103.756)" fill="#ffb27d"/>
          <path id="Trazado_204984" data-name="Trazado 204984" d="M142.68,279.31s.007,3.492-.029,4.182.687.061.787-.546a3,3,0,0,1,1.033-1.706c.309-.086-1.792-1.929-1.792-1.929" transform="translate(-53.565 -104.882)" fill="#ffb27d"/>
          <path id="Trazado_204985" data-name="Trazado 204985" d="M110.586,322.124c1.17,11.78,5.4,29.881,5.4,29.881l3.286-2.369s5.787-40.62,6.732-43.923a213.06,213.06,0,0,0,7.313-45.508l-19.208-5.669a26.233,26.233,0,0,0-3.015,14.834c2.02,26.728-1.911,38.643-.509,52.754" transform="translate(-41.409 -95.579)" fill="#5038a1"/>
          <path id="Trazado_204986" data-name="Trazado 204986" d="M78.349,277.676a5.019,5.019,0,0,1-1.062,2.584c-.225.288-.886,1.05-1.132.779s.689-2.318.136-3.575c-.2-.451,2.059.212,2.059.212" transform="translate(-28.58 -104.13)" fill="#ffb27d"/>
          <path id="Trazado_204987" data-name="Trazado 204987" d="M131.827,408.731a1.317,1.317,0,0,0-.866-.792,9.984,9.984,0,0,1-4.69-2.142c-1-.9-4.815-3.313-4.815-3.313l-.019-.005c-.084,0-.483.124-2.22,1.591-.9.757-2.428-1.068-2.428-1.068a2.181,2.181,0,0,0-.5.681,2.3,2.3,0,0,0-.2,1.421,9.228,9.228,0,0,1-.663,3.433c-.216.636-.4,1.086-.4,1.086s-.1.523,1.77.758h2.18c.73-.115,1.269-.326,2.018-.423a2.023,2.023,0,0,1,1.765.423l.02.022h9.258c.233-.332.009-1.1-.21-1.669" transform="translate(-43.192 -151.132)" fill="#37598c"/>
          <path id="Trazado_204988" data-name="Trazado 204988" d="M93.335,320.713c1.17,11.781,5.146,30.268,5.146,30.268l2.9.937s6.424-44.313,7.368-47.616c6.564-22.957,7.58-50.211,7.58-50.211l-19.475-.966a26.233,26.233,0,0,0-3.015,14.834c2.019,26.728-1.911,38.643-.509,52.754" transform="translate(-34.931 -95.05)" fill="#8c6df2"/>
          <path id="Trazado_204989" data-name="Trazado 204989" d="M114.252,408.731a1.319,1.319,0,0,0-.867-.792A9.985,9.985,0,0,1,108.7,405.8c-1-.9-4.815-3.313-4.815-3.313l-.02-.005c-.084,0-.483.124-2.219,1.591-.9.757-2.349-1.116-2.349-1.116a2.246,2.246,0,0,0-.78,2.149,9.2,9.2,0,0,1-.663,3.433c-.216.636-.4,1.086-.4,1.086s-.1.523,1.771.758H101.4c.731-.115,1.27-.326,2.018-.423a2.022,2.022,0,0,1,1.765.423l.021.022h9.257c.234-.332.009-1.1-.209-1.669" transform="translate(-36.593 -151.132)" fill="#466aa5"/>
          <path id="Trazado_204990" data-name="Trazado 204990" d="M18.61,406.575a3.273,3.273,0,0,1-1.791,4.343,3.444,3.444,0,0,1-4.471-1.74,3.274,3.274,0,0,1,1.791-4.343,3.444,3.444,0,0,1,4.471,1.74" transform="translate(-4.533 -151.916)" fill="#1c468a"/>
          <path id="Trazado_204991" data-name="Trazado 204991" d="M57.728,406.57a3.274,3.274,0,0,1-1.791,4.343,3.444,3.444,0,0,1-4.471-1.74,3.274,3.274,0,0,1,1.792-4.343,3.443,3.443,0,0,1,4.47,1.74" transform="translate(-19.223 -151.914)" fill="#1c468a"/>
          <path id="Trazado_204992" data-name="Trazado 204992" d="M11.264,405.223l4.843,1.689a4.5,4.5,0,0,0,1.527.25l27.478-.273,3-4.831Z" transform="translate(-4.23 -150.974)" fill="#fdb74d"/>
          <path id="Trazado_204993" data-name="Trazado 204993" d="M35.593,306.025l7.676-18.536.009-.036c.046-.166,1.242-4.147,8.158-5.037l.032-.005,5.689-1.042c.736-.188,2.858-.5,3.832.294a1.819,1.819,0,0,1,.533,1.692c-.142,1.554-5.251,13.573-8.649,21.272l1.087.453c.873-1.978,8.535-19.386,8.74-21.623a2.893,2.893,0,0,0-.952-2.676c-1.589-1.3-4.559-.608-4.874-.53l-5.61,1.026c-7.447.964-8.97,5.341-9.121,5.843L34.494,305.6Z" transform="translate(-12.953 -105.141)" fill="#fdb74d"/>
          <path id="Trazado_204994" data-name="Trazado 204994" d="M57.981,312.886l14.829,2.88s4.324,1.709,3.467,9.07c-.755,6.477-4.064,42.819-4.064,42.819s-.691,7.563-17.319,5.369Z" transform="translate(-20.613 -117.49)" fill="#fdb74d"/>
          <path id="Trazado_204995" data-name="Trazado 204995" d="M45.589,322.839l-3.988,40.7a9,9,0,0,1-1.687,4.428,9.543,9.543,0,0,1-7.679,3.9l-13.753.083-.34,0L9.529,372a9.732,9.732,0,0,1-2.5-.306c-.186-.047-.369-.1-.55-.158a9.358,9.358,0,0,1-6.126-6.217,8.9,8.9,0,0,1-.244-3.93L6.36,322.448a9.36,9.36,0,0,1,8.454-7.739l2.429-.225.58-.053h0l.486-.044,8.12-.754,1-.092,7.836-.726a9.722,9.722,0,0,1,3.527.314c.073.021.146.041.218.065l.453.15a9.189,9.189,0,0,1,6.128,9.5" transform="translate(0 -117.446)" fill="#fedc72"/>
          <path id="Trazado_204996" data-name="Trazado 204996" d="M39.923,398.335a9.545,9.545,0,0,1-7.679,3.9l-13.753.082-.34,0-8.613.052a9.764,9.764,0,0,1-2.5-.306c-.186-.047-.368-.1-.55-.158-2.981-.961-6.419-4.468-6.467-8.187,0,0,29.092-.37,35.173.542,3.137.471,4.075,2.6,4.724,4.075" transform="translate(-0.01 -147.815)" fill="#fdb74d"/>
          <path id="Trazado_204997" data-name="Trazado 204997" d="M20.6,315.357c-.061.036-6.439,3.812-7.278,7.129-.862,3.41-6.62,43.148-6.678,43.549a9.075,9.075,0,0,0,3.116,6.733l-.437-.1c-.186-.047-.368-.1-.55-.159a8.121,8.121,0,0,1-2.643-6.542c.237-1.641,5.822-40.166,6.688-43.6.761-3.008,5.258-6.007,6.715-6.912l.58-.053h0Z" transform="translate(-2.291 -118.418)" fill="#fdb74d"/>
          <path id="Trazado_204998" data-name="Trazado 204998" d="M37.792,314a12.062,12.062,0,0,0-5.168,7.963c-.876,5.6-4.3,46.27-4.335,46.679l0,.029-.009.027a4.419,4.419,0,0,0,.914,3.706l-.345,0-.34,0a4.25,4.25,0,0,1-.732-3.837c.107-1.258,3.468-41.132,4.337-46.686a12.5,12.5,0,0,1,4.684-7.8Z" transform="translate(-10.364 -117.908)" fill="#fdb74d"/>
          <path id="Trazado_204999" data-name="Trazado 204999" d="M57.486,313.556a10.7,10.7,0,0,0-2.494,2,11.354,11.354,0,0,0-2.81,5.931c-.876,5.6-3.591,46.132-3.618,46.539v.032l-.01.029a6.032,6.032,0,0,0,1.283,3.992l-.867.005a6.4,6.4,0,0,1-.92-4.119c.087-1.3,2.751-41,3.621-46.553a11.5,11.5,0,0,1,5.146-8.072c.072.021.145.041.217.065Z" transform="translate(-18.025 -117.661)" fill="#fdb74d"/>
          <path id="Trazado_205000" data-name="Trazado 205000" d="M123.911,235.929c-1.7,1.982-16.5,1.6-19.835.859q-3.428-.762-5.316-7.222c-.417,3-1.356,6.528-3.457,6.746-3.441.357-4.865-.236-5.278-1.542-.068-.212.632-9.3,1.238-18.432.419-6.3.794-12.624.845-16.081.006-.434.006-.821,0-1.161a52.776,52.776,0,0,0-7.595-.062,47.137,47.137,0,0,1,8.554-15.224c5.516-6.3,18.66-4.431,23.986-2.856,3.359.993,6.528,4.6,4.888,12.235-.962,4.493.411,11.7.96,22.331.528,10.214,1.373,19.983,1.007,20.408" transform="translate(-31.736 -67.372)" fill="#fedc72"/>
          <path id="Trazado_205001" data-name="Trazado 205001" d="M140.5,184.291s4.117,3.356,6.48,18.519c0,0-1.33,1.834-5.268,1.342s-1.212-19.861-1.212-19.861" transform="translate(-52.412 -69.202)" fill="#fedc72"/>
          <path id="Trazado_205002" data-name="Trazado 205002" d="M122.189,138.351s-9.548-10.844-14.241-3.6c0,0-3.606,1.616-4.753,7.864-1.17,6.374,3.179,11.073,5.324,9.822,1.376-.8,2.5,1.614,2.5,1.614Z" transform="translate(-38.676 -49.663)" fill="#233862"/>
          <path id="Trazado_205003" data-name="Trazado 205003" d="M106.249,132.259s-1.381-4.934-8.635-3.177c0,0,3.482-.538,4.476.781,0,0-2.8-1.191-4.508-.081s-1.89,4.689-1.6,5.768,2.294,4.26,3.562,4.225a5.836,5.836,0,0,0,2.738-1.19Z" transform="translate(-36 -48.329)" fill="#233862"/>
          <path id="Trazado_205004" data-name="Trazado 205004" d="M114.72,173.83c-.2-1.077.881-2.971.692-8.98l.467.079,7.859,1.33s.184,6.389.243,8.707c.049,1.931-9.41.581-9.261-1.135" transform="translate(-43.069 -61.902)" fill="#ffb27d"/>
          <path id="Trazado_205005" data-name="Trazado 205005" d="M124.449,166.3s.07,2.316.129,4.634c-4.377,0-6.979-3.778-7.988-5.963Z" transform="translate(-43.78 -61.949)" fill="#e8945b"/>
          <path id="Trazado_205006" data-name="Trazado 205006" d="M113.381,153.915a22.986,22.986,0,0,1-3.029-6.638c-.455-2.2.443-10.425,8.71-9.475a11.189,11.189,0,0,1,4.689,1.624c1.822,1.157,4.475,3.693,1.789,10.924l-.682,2.436Z" transform="translate(-41.401 -51.716)" fill="#233862"/>
          <path id="Trazado_205007" data-name="Trazado 205007" d="M125.12,160.113s-10.343.459-10.53-5.986-1.647-10.726,4.948-11.292,7.95,1.857,8.536,3.992-.269,13-2.954,13.286" transform="translate(-42.929 -53.604)" fill="#ffb27d"/>
          <path id="Trazado_205008" data-name="Trazado 205008" d="M122.29,141.675s-2.622,7.641-6.939,8.88-6.236.127-6.236.127a12.317,12.317,0,0,0,3.824-7.387s7.112-5.16,9.35-1.621" transform="translate(-40.973 -52.734)" fill="#233862"/>
          <path id="Trazado_205009" data-name="Trazado 205009" d="M129.116,142.662a9.134,9.134,0,0,1,2.724,3.256c.561,1.627.888,5,1.87,4.857,0,0,1.991-5.2-.489-8.04-2.63-3.012-4.1-.073-4.1-.073" transform="translate(-48.483 -53.088)" fill="#233862"/>
          <path id="Trazado_205010" data-name="Trazado 205010" d="M125.419,142.6s-1.8,7.975-7.213,10.664c0,0,5.35-5.018,5.67-10.259s1.542-.405,1.542-.405" transform="translate(-44.387 -52.785)" fill="#233862"/>
          <path id="Trazado_205011" data-name="Trazado 205011" d="M74.045,269.169s-2.586,3.011-2.866,4.576-.132,5.747.662,5.9c.849.16,1.351-2.742,1.624-3.311.923-1.922,2.74-1.021,2.983-1.711a33.729,33.729,0,0,0,.483-4Z" transform="translate(-26.679 -101.074)" fill="#ffb27d"/>
          <path id="Trazado_205012" data-name="Trazado 205012" d="M84.594,202.963s-6.989,13.622-7.383,19.329-1.365,22.016-1.365,22.016l2.886,1.449s5.99-21.5,6.355-24.749c.408-3.627,12.259-15.656,12.259-15.656Z" transform="translate(-28.481 -76.213)" fill="#ffb27d"/>
          <path id="Trazado_205013" data-name="Trazado 205013" d="M100.282,194.573H89.845l-5.33,10.152s8.5,7.034,16.969,4.179-1.2-14.331-1.2-14.331" transform="translate(-31.736 -73.063)" fill="#fedc72"/>
          <path id="Trazado_205014" data-name="Trazado 205014" d="M597.957,265.528s-12.146,18.209-17.173,29.1c0,0,20.314,4.03,33.3,12.277,0,0,9.009-22.734,16.13-32.591,0,0-19.48-8.775-32.255-8.785" transform="translate(-218.086 -99.707)" fill="#aec3ff"/>
          <path id="Trazado_205015" data-name="Trazado 205015" d="M634.1,312.187s9.843,1.668,13.3-2.739,2.831-29.852,2.831-29.852S635.1,300.8,634.1,312.187" transform="translate(-238.108 -104.989)" fill="#8caaed"/>
          <path id="Trazado_205016" data-name="Trazado 205016" d="M539.027,233.64s-16.74,7.293-19.779,7.16-21.763-5.7-21.763-5.7l.477,3.221s14.45,8.311,19.5,8.782c4.974.465,21.98-4.463,23.623-5.5s2.712-6.9-2.06-7.957" transform="translate(-186.807 -87.733)" fill="#ed985f"/>
          <path id="Trazado_205017" data-name="Trazado 205017" d="M562.619,190.492s6.176-1.173,9.251,1.074c5.572,4.069,5.87,18.1,7.959,20.185s7.121,1.2,7.57,12.01-2,11.716.916,16.542-1.235,9.657-1.235,9.657,1.7-2.664.972-4.587c0,0-.708,4.244-3.4,5.239s-3.095,1.724-3.526,3.183c0,0-23-11.787-23.027-20.147s-4.527-16.642-2.316-20.264a8.02,8.02,0,0,0-1.105,3.274,4.31,4.31,0,0,1,.973-4.907c2.3-2.366-2.7-7.262-1.957-12.931.508-3.892,3.239-8.157,8.93-8.327" transform="translate(-207.883 -71.415)" fill="#233862"/>
          <path id="Trazado_205018" data-name="Trazado 205018" d="M560.749,235.837a16.09,16.09,0,0,0,5.627,2.395c8.675,2,12-5.328,13.249-10.36a7.46,7.46,0,0,0-2.94-.9c-.627-.074-1.286-.122-1.832-.15-.974-.746-2.426-3.8-2.747-8.541l-.408.109-6.836,1.871s.313,2.173.466,4.228c.119,1.607.137,3.144-.167,3.52-.533.116-.854.191-.854.191a.011.011,0,0,1,0,.006,43.964,43.964,0,0,0-3.555,7.634" transform="translate(-210.563 -81.964)" fill="#ffb27d"/>
          <path id="Trazado_205019" data-name="Trazado 205019" d="M567.334,220.326s.314,2.171.466,4.227c3.874-.388,5.671-4.075,6.371-6.1Z" transform="translate(-213.036 -82.031)" fill="#ed985f"/>
          <path id="Trazado_205020" data-name="Trazado 205020" d="M563.18,215.226s9.194-.507,8.79-6.228.51-9.639-5.376-9.557-6.873,2.346-7.2,4.288,1.386,11.481,3.788,11.5" transform="translate(-210.038 -74.89)" fill="#ffb27d"/>
          <path id="Trazado_205021" data-name="Trazado 205021" d="M558.661,199.82c1.3-1.822,2.4-1.522,3.034-1.047a6.434,6.434,0,0,1,8.348.728,10.955,10.955,0,0,0,4.037,6.2s-1.6,1.154-5.529.439a6.58,6.58,0,0,1-3.281-1.933,21.482,21.482,0,0,0,4.011,4.238c-4.762-1.8-7.073-8.077-7.306-8.742a7.208,7.208,0,0,0-1.811,2.812c-.353,1.49-1.877,3.818-2.758,3.779,0,0-.688-3.741,1.255-6.474" transform="translate(-209.263 -74.181)" fill="#233862"/>
          <path id="Trazado_205022" data-name="Trazado 205022" d="M578.868,259.086c.831-4.244,3.537-21.2.831-26.659-.972-1.96-4.787-2.137-8.973-1.965-1.3.841-6.266,4.019-8.3,3.621-.022,0-.061-.014-.114-.027-.96-.24-1.323-.914-.521-1.5a18.291,18.291,0,0,0-4.648.285,34.425,34.425,0,0,0-5.376,2.3s1.975,3.568,4.888,4.8c-.5,4.43.241,6.384,4.837,16.616A19.451,19.451,0,0,1,560.963,273s22.861,18.38,22.988,9.022c.1-7.045-6.144-17.513-5.083-22.937" transform="translate(-207.188 -86.52)" fill="#fff"/>
          <path id="Trazado_205023" data-name="Trazado 205023" d="M551.822,300.379a4.25,4.25,0,0,1-3.058-1.861l-.353-.532c-2.6-3.94-3.615-16-9.467-28.856C537.517,266,532.4,265.439,531,261.9c0,0-3.435-11.464,6.574-11.8s26.8,31.9,27.069,35.28c.257,3.276,6.617,17.194-12.826,15" transform="translate(-199.18 -93.912)" fill="#fdb74d"/>
          <path id="Trazado_205024" data-name="Trazado 205024" d="M500.982,325.747h14.245a5.924,5.924,0,0,0-.4-3.818c-.828-1.368-.511-2.147.1-3.279a5.536,5.536,0,0,1-2.4.452,5.016,5.016,0,0,1-2.118-.745,51.358,51.358,0,0,1-4.059,4.263c-.931.669-5.082.431-5.369,3.127" transform="translate(-188.12 -119.544)" fill="#5038a1"/>
          <path id="Trazado_205025" data-name="Trazado 205025" d="M579.811,240.757s1.854,16.868-10.17,20.4-15.438-15.521-5.729-16.891a93.467,93.467,0,0,0,15.9-3.512" transform="translate(-209.633 -90.405)" fill="#ebeef2"/>
          <path id="Trazado_205026" data-name="Trazado 205026" d="M524.536,253.14c-.858,6.43-4.207,26.728-10.116,36.63-1.9,3.192,4.8,4.982,4.836,4.973.9-.235,2.4-1.669,3.088-2.291,4.8-4.323,14.535-16.565,14.535-26.381,0-4.786.084-13.925-3.4-16.248-2.143-1.431-8.606.763-8.947,3.317" transform="translate(-193.038 -93.64)" fill="#fdb74d"/>
          <path id="Trazado_205027" data-name="Trazado 205027" d="M565.432,299.675s-.528-.734-1.448-2.13c-1.1-1.66-2.307-4.925-3.779-9.111-1.545-4.394-3.378-9.8-5.669-15.425-.707-1.736-1.458-3.494-2.256-5.248-1.426-3.129-5.348-2.7-6.743-6.234,0,0-5.445-12.261,4.564-12.6s29.027,32.8,30.119,36.011c1.2,3.513,7.033,18.1-14.789,14.737" transform="translate(-204.296 -93.472)" fill="#fedc72"/>
          <path id="Trazado_205028" data-name="Trazado 205028" d="M517.727,325.747h14.245a5.919,5.919,0,0,0-.4-3.818c-.827-1.368-.511-2.147.1-3.279a5.534,5.534,0,0,1-2.4.452,5.018,5.018,0,0,1-2.119-.745,51.358,51.358,0,0,1-4.059,4.263c-.931.669-5.082.431-5.369,3.127" transform="translate(-194.408 -119.544)" fill="#8c6df2"/>
          <path id="Trazado_205029" data-name="Trazado 205029" d="M566.5,297.209c-1.546-4.394-3.378-9.8-5.669-15.426.6-4.261,1.888-7.99,4.059-9.492,0,0,5.264,16.309,1.61,24.918" transform="translate(-210.596 -102.246)" fill="#fdb74d"/>
          <path id="Trazado_205030" data-name="Trazado 205030" d="M539.14,252.838c-.858,6.431-2.066,27.184-7.975,37.087-1.905,3.192,4.8,4.982,4.836,4.973.9-.235,2.4-1.669,3.088-2.291,4.8-4.324,14.535-16.565,14.535-26.381,0-4.786-5.616-13.542-9.1-15.865a3.5,3.5,0,0,0-5.388,2.477" transform="translate(-199.326 -93.793)" fill="#fedc72"/>
          <path id="Trazado_205031" data-name="Trazado 205031" d="M562.726,219.326a8.492,8.492,0,0,1,3.315-.146s-.13.954-1.933,1.049a1.439,1.439,0,0,1-1.381-.9" transform="translate(-211.305 -82.28)" fill="#fff"/>
          <path id="Trazado_205032" data-name="Trazado 205032" d="M494.625,221.98l2.953-5.329,6.389,17.828-3.769,4.047Z" transform="translate(-185.733 -81.353)" fill="#163560"/>
          <path id="Trazado_205033" data-name="Trazado 205033" d="M510.045,228.3l5.939,16.966L500.2,241.73l-5.574-16.545Z" transform="translate(-185.733 -84.557)" fill="#8c6df2"/>
          <path id="Trazado_205034" data-name="Trazado 205034" d="M524.942,246.034l.277-.484-5.62-16.056-.281.43Z" transform="translate(-195.006 -86.176)" fill="#efdece"/>
          <path id="Trazado_205035" data-name="Trazado 205035" d="M510.326,227.743,495.36,224.83l-.736.221,15.421,3.121Z" transform="translate(-185.733 -84.424)" fill="#fcecdb"/>
          <path id="Trazado_205036" data-name="Trazado 205036" d="M494.625,222.136l3.194-5.07,2.036,5.724-4.495-.875Z" transform="translate(-185.733 -81.509)" fill="#efdece"/>
          <path id="Trazado_205037" data-name="Trazado 205037" d="M510.384,232.655c.514-.1,1.615-.514,2.73-.821a2.291,2.291,0,0,1-.806-.9c-.2-.629-.332-.831.332-.632s2.983,1.263,2.983,1.263l-.006,0a6.145,6.145,0,0,1,2.533,2.248s16.322,5.737,18.285,5.836c3.038.152,23.257-7.293,23.257-7.293,4.771,1.053,3.7,6.916,2.059,7.956s-16.191,6.334-24.813,6.433c-4.367.051-20.253-10.16-20.253-10.16a6.764,6.764,0,0,0-3.316-.584c-1.459.266-4.841,0-5.57-1.193s1.724-1.989,2.586-2.155" transform="translate(-190.629 -86.451)" fill="#ffb27d"/>
          <path id="Trazado_205038" data-name="Trazado 205038" d="M574.294,237.03a11.11,11.11,0,0,0,8.018,7.027s10.256-3.16,5.15-10.147c0,0-5.049-3.751-13.168,3.119" transform="translate(-215.649 -87.45)" fill="#fff"/>
          <path id="Trazado_205039" data-name="Trazado 205039" d="M495.03,233.061h0a1.532,1.532,0,0,1,.054-.465s1.463-2.314,1.942-2.408c1.459-.289,1.459,1.633,1.149,2.873a5.034,5.034,0,0,1-1.208,2.14h0l.059,1.81a3.873,3.873,0,0,1-2-3.951" transform="translate(-185.872 -86.426)" fill="#ffb27d"/>
        </g>
      </g>
    </g>
  </g>
</svg>
