<svg xmlns="http://www.w3.org/2000/svg" width="136.973" height="136.973" viewBox="0 0 136.973 136.973">
  <g id="Grupo_161151" data-name="Grupo 161151" transform="translate(4742 6445.44)">
    <g id="Grupo_155487" data-name="Grupo 155487" transform="translate(-4742 -6445.44)">
      <g id="Trazado_137458" data-name="Trazado 137458" transform="translate(0 0)" fill="#fff">
        <path d="M 68.48631286621094 131.9726409912109 C 59.91350936889648 131.9726409912109 51.59981155395508 130.2947692871094 43.77611541748047 126.9856185913086 C 40.01535797119141 125.3949661254883 36.38774871826172 123.4259033203125 32.9940071105957 121.1331405639648 C 29.6312255859375 118.8612899780273 26.46885681152344 116.2520523071289 23.5947265625 113.3779220581055 C 20.72059631347656 110.503791809082 18.11135673522949 107.341423034668 15.83950805664062 103.9786376953125 C 13.5467472076416 100.5848999023438 11.57768249511719 96.95726776123047 9.987030029296875 93.196533203125 C 6.677877902984619 85.37283325195312 5.000008583068848 77.05912017822266 5.000008583068848 68.48631286621094 C 5.000008583068848 59.91350936889648 6.677877902984619 51.59981155395508 9.987030029296875 43.77611541748047 C 11.57768249511719 40.01535797119141 13.5467472076416 36.38774871826172 15.83950805664062 32.9940071105957 C 18.11135673522949 29.6312255859375 20.72059631347656 26.46885681152344 23.5947265625 23.5947265625 C 26.46885681152344 20.72059631347656 29.6312255859375 18.11135673522949 32.9940071105957 15.83950805664062 C 36.38774871826172 13.5467472076416 40.01535797119141 11.57768249511719 43.77611541748047 9.987030029296875 C 51.59981155395508 6.677877902984619 59.91350936889648 5.000008583068848 68.48631286621094 5.000008583068848 C 77.05912017822266 5.000008583068848 85.37283325195312 6.677877902984619 93.196533203125 9.987030029296875 C 96.95726776123047 11.57768249511719 100.5848999023438 13.5467472076416 103.9786376953125 15.83950805664062 C 107.341423034668 18.11135673522949 110.503791809082 20.72059631347656 113.3779220581055 23.5947265625 C 116.2520523071289 26.46885681152344 118.8612899780273 29.6312255859375 121.1331405639648 32.9940071105957 C 123.4259033203125 36.38774871826172 125.3949661254883 40.01535797119141 126.9856185913086 43.77611541748047 C 130.2947692871094 51.59981155395508 131.9726409912109 59.91350936889648 131.9726409912109 68.48631286621094 C 131.9726409912109 77.05912017822266 130.2947692871094 85.37283325195312 126.9856185913086 93.196533203125 C 125.3949661254883 96.95726776123047 123.4259033203125 100.5848999023438 121.1331405639648 103.9786376953125 C 118.8612899780273 107.341423034668 116.2520523071289 110.503791809082 113.3779220581055 113.3779220581055 C 110.503791809082 116.2520523071289 107.341423034668 118.8612899780273 103.9786376953125 121.1331405639648 C 100.5848999023438 123.4259033203125 96.95726776123047 125.3949661254883 93.196533203125 126.9856185913086 C 85.37283325195312 130.2947692871094 77.05912017822266 131.9726409912109 68.48631286621094 131.9726409912109 Z" stroke="none"/>
        <path d="M 68.48631286621094 10.00000762939453 C 36.23686981201172 10.00000762939453 10.00000762939453 36.23686981201172 10.00000762939453 68.48631286621094 C 10.00000762939453 100.7357559204102 36.23686981201172 126.9726181030273 68.48631286621094 126.9726181030273 C 100.7357559204102 126.9726181030273 126.9726181030273 100.7357559204102 126.9726181030273 68.48631286621094 C 126.9726181030273 36.23686981201172 100.7357559204102 10.00000762939453 68.48631286621094 10.00000762939453 M 68.48631286621094 0 C 106.3102569580078 0 136.9726257324219 30.66236877441406 136.9726257324219 68.48631286621094 C 136.9726257324219 106.3102569580078 106.3102569580078 136.9726257324219 68.48631286621094 136.9726257324219 C 30.66236877441406 136.9726257324219 0 106.3102569580078 0 68.48631286621094 C 0 30.66236877441406 30.66236877441406 0 68.48631286621094 0 Z" stroke="none" fill="#8c6df2"/>
      </g>
    </g>
    <circle id="Elipse_4752" data-name="Elipse 4752" cx="60.161" cy="60.161" r="60.161" transform="translate(-4734 -6437.567)" fill="#fedc72"/>
    <g id="Grupo_156178" data-name="Grupo 156178" transform="translate(-4710.228 -6414.881)">
      <circle id="Elipse_6242" data-name="Elipse 6242" cx="5.158" cy="5.158" r="5.158" transform="translate(13.118 8)" fill="#5038a1"/>
      <circle id="Elipse_6243" data-name="Elipse 6243" cx="5.158" cy="5.158" r="5.158" transform="translate(35.224 8)" fill="#5038a1"/>
      <circle id="Elipse_6244" data-name="Elipse 6244" cx="3.684" cy="3.684" r="3.684" transform="translate(56.593 39.685)" fill="#5038a1"/>
      <path id="Trazado_204902" data-name="Trazado 204902" d="M68.236,60.991,65.657,54.8a7.13,7.13,0,0,0-3.832-2.653A10.03,10.03,0,0,0,60.278,52H56.593L53.5,46.769a2.809,2.809,0,0,0,.074-1.105l-3.463-17.39a12.787,12.787,0,0,0-5.232-3.463A13.229,13.229,0,0,0,40.308,24a13.547,13.547,0,0,0-4.569.811,13.84,13.84,0,0,0-5.232,3.463l-1.179,6.558L28,28.274a12.787,12.787,0,0,0-5.232-3.463A13.229,13.229,0,0,0,18.2,24a13.547,13.547,0,0,0-4.569.811A13.84,13.84,0,0,0,8.4,28.274L5.086,45.664a2.184,2.184,0,0,0,1.768,2.579.552.552,0,0,0,.368.074A2.143,2.143,0,0,0,9.36,46.548L12.381,31.59V71.16H16.8V48.317H19.75V71.16h4.421V31.59l3.021,14.958a2.175,2.175,0,0,0,4.274,0L34.487,31.59v8.032l-2.8,13.927h2.8V71.16h4.421V53.475h2.947V71.16h4.421V53.548h2.8l-2.8-13.927V31.59L49.3,46.548a2.119,2.119,0,0,0,1.695,1.695l5.6,9.506v3.537L55.12,65.265h1.474V71.16h2.947V65.265h1.474V71.16h2.947V65.265h1.474l-1.474-4.053V58.338l1.621,3.832a1.416,1.416,0,0,0,1.326.884.886.886,0,0,0,.589-.147A1.4,1.4,0,0,0,68.236,60.991Z" transform="translate(0 -4.21)" fill="#5038a1"/>
    </g>
  </g>
</svg>
