<svg id="Grupo_155518" data-name="Grupo 155518" xmlns="http://www.w3.org/2000/svg" xmlns:xlink="http://www.w3.org/1999/xlink" width="400" height="354.013" viewBox="0 0 400 354.013">
  <defs>
    <clipPath id="clip-path">
      <rect id="Rectángulo_44114" data-name="Rectángulo 44114" width="380.855" height="348.493" fill="none"/>
    </clipPath>
    <clipPath id="clip-path-2">
      <rect id="Rectángulo_47081" data-name="Rectángulo 47081" width="322.133" height="453.022" fill="none"/>
    </clipPath>
  </defs>
  <g id="Grupo_132115" data-name="Grupo 132115" transform="translate(0 0)">
    <rect id="Rectángulo_44113" data-name="Rectángulo 44113" width="399.928" height="33.139" transform="translate(0.072)" fill="#fff"/>
    <g id="Image_Place_Holder" data-name="Image Place Holder" transform="translate(0 32.838)" opacity="0.1">
      <rect id="Image_Place_Holder-2" data-name="Image Place Holder-2" width="399.482" height="320.309" fill="#fdb74d"/>
    </g>
  </g>
  <g id="Grupo_130835" data-name="Grupo 130835" transform="translate(7 5.52)">
    <g id="Grupo_132117" data-name="Grupo 132117">
      <g id="Grupo_132116" data-name="Grupo 132116" clip-path="url(#clip-path)">
        <g id="Grupo_130719" data-name="Grupo 130719" transform="translate(3.949 9.608)">
          <g id="Grupo_130718" data-name="Grupo 130718" transform="translate(0 -30)">
            <path id="Trazado_138125" data-name="Trazado 138125" d="M12.14,244a257.374,257.374,0,0,1,18.434-25.5A178.329,178.329,0,0,1,52.185,196.43a119.794,119.794,0,0,1,25.538-16.908,79.447,79.447,0,0,1,14.559-5.342c1.274-.295,2.544-.625,3.846-.84.648-.118,1.295-.247,1.949-.348l1.976-.265c1.324-.185,2.608-.285,3.922-.426,1.306-.075,2.619-.182,3.93-.2a97.573,97.573,0,0,1,30.859,4.744A296.242,296.242,0,0,1,167.1,187.561c4.517,1.9,8.961,3.735,13.316,5.417,2.184.85,4.334,1.636,6.475,2.4,1.064.36,2.131.738,3.185,1.078l3.268,1.049c9.1,2.909,17.968,5.567,26.621,7.484,4.322.962,8.583,1.739,12.743,2.269,2.08.265,4.136.478,6.156.606s4.011.176,5.957.154a49.693,49.693,0,0,0,20.512-4.106,35.192,35.192,0,0,0,4.029-2.215c.637-.4,1.247-.831,1.846-1.265l.879-.67c.26-.223.526-.43.781-.663a31.256,31.256,0,0,0,5.479-6.271c.391-.593.769-1.193,1.124-1.816l1.384-2.332c.48-.8.895-1.631,1.343-2.431.432-.811.809-1.638,1.23-2.443a60.331,60.331,0,0,0,3.691-9.835,56.913,56.913,0,0,0,1.866-9.858,59.439,59.439,0,0,0,.179-10,85.091,85.091,0,0,0-4.126-20.881,121.926,121.926,0,0,0-9.406-21.348q-2.9-5.254-6.255-10.159c-1.107-1.621-2.24-3.2-3.363-4.672-.559-.731-1.124-1.436-1.66-2.072-.268-.315-.531-.621-.765-.866a4.415,4.415,0,0,0-.321-.319c-.039-.028-.1-.089-.112-.077l-.017,0s-.023-.022.006.04l.128.245c-13.747-20.768-10.493-50,7.266-65.293s43.3-10.853,57.049,9.915l.4.658.257.453.417.758.726,1.352c.457.878.872,1.706,1.276,2.528.807,1.642,1.554,3.239,2.283,4.823,1.445,3.166,2.784,6.3,4.052,9.448,2.529,6.3,4.779,12.669,6.8,19.17a222.208,222.208,0,0,1,8.72,40.865,168.571,168.571,0,0,1-.5,44.089,141.39,141.39,0,0,1-5.05,21.876,124.451,124.451,0,0,1-8.415,20.224,119.787,119.787,0,0,1-11.171,17.517c-1.037,1.3-2.061,2.627-3.119,3.888-1.072,1.239-2.124,2.506-3.217,3.694l-1.644,1.768c-.557.6-1.057,1.138-1.73,1.828-1.267,1.318-2.581,2.578-3.918,3.795a77.518,77.518,0,0,1-17.526,12.1c-.781.4-1.577.765-2.374,1.134-.778.344-1.55.679-2.324,1-1.556.633-3.116,1.224-4.694,1.747a75.766,75.766,0,0,1-9.46,2.506,81.385,81.385,0,0,1-18.546,1.415,99.787,99.787,0,0,1-17.343-2.2,158.916,158.916,0,0,1-30.957-10.4c-9.642-4.273-18.731-9.108-27.5-13.932l-3.42-1.891c-1.173-.65-2.311-1.322-3.463-1.984-2.271-1.344-4.517-2.7-6.7-4.081-4.388-2.759-8.609-5.552-12.767-8.265-8.309-5.431-16.319-10.663-24.442-14.912a83.492,83.492,0,0,0-24.8-8.9c-1.056-.191-2.114-.305-3.176-.458l-1.593-.146-.8-.074c-.264-.019-.522-.015-.783-.026l-1.568-.041c-.524,0-1.051.024-1.577.033-1.055,0-2.118.114-3.178.184-1.062.1-2.129.238-3.2.38-1.063.194-2.14.321-3.2.573l-1.6.339c-.536.116-1.067.267-1.6.4-1.069.262-2.127.589-3.189.918-1.068.3-2.113.714-3.174,1.068-1.055.379-2.1.808-3.151,1.215-1.034.465-2.076.91-3.109,1.394-1.021.51-2.063.976-3.081,1.522q-3.065,1.577-6.025,3.439c-.989.613-1.977,1.234-2.946,1.9l-1.46.983L57.6,205.345A116.383,116.383,0,0,0,36.583,225.1a125.951,125.951,0,0,0-16.348,25.044,4.425,4.425,0,0,1-6.547,1.954,6.075,6.075,0,0,1-1.859-7.566,5.666,5.666,0,0,1,.288-.515Z" transform="translate(33.097 79.847) rotate(8)" fill="#fdb74d"/>
            <g id="Grupo_156201" data-name="Grupo 156201" transform="translate(33.458 20.74)">
              <g id="Grupo_156200" data-name="Grupo 156200" clip-path="url(#clip-path-2)">
                <path id="Trazado_205208" data-name="Trazado 205208" d="M89.118,54.431s-39.29-8.119-63.432,8.791C8.032,75.587,14.457,191.356,31.562,197.255s44.694.356,44.694.356Z" transform="translate(3.471 11.992)" fill="#5038a1"/>
                <path id="Trazado_205209" data-name="Trazado 205209" d="M161.672,112.509s.822-7.99,2.628-10.237,3.956-8.619,5.472-7.588-.588,5.568.672,7.059,14.1-3.307,15.162-1.552,1.267,7.574-3.286,9.918-15.405,7.222-19.409,9.329c-2.62,1.38-1.238-6.929-1.238-6.929" transform="translate(36.858 21.609)" fill="#ffb27d"/>
                <path id="Trazado_205210" data-name="Trazado 205210" d="M92.782,68.282s-.643,18.736,4.666,27.781,46.066,48.817,57.474,53.984,6.744-26.274,3.133-28.915-40.185-67.264-65.272-52.85" transform="translate(21.194 15.124)" fill="#ffb27d"/>
                <path id="Trazado_205211" data-name="Trazado 205211" d="M153.511,121.888S140.765,143.63,128.919,151.1a15.94,15.94,0,0,1-2.956,1.44c-13.134,4.951-38.168-1.453-38.168-1.453l-3.333-8.792a191.947,191.947,0,0,1,22.419-4.926c12.5-1.971,25.09-40.128,38.245-48.027,6.12-3.682,7.8,18.281,8.235,28.047.123,2.724.15,4.5.15,4.5" transform="translate(19.299 20.32)" fill="#fedc72"/>
                <path id="Trazado_205212" data-name="Trazado 205212" d="M145.792,116.939s-12.746,21.742-24.592,29.212a15.941,15.941,0,0,1-2.956,1.44c.382-.4,12.625-13.312,13.273-21.3.661-8.12,6.586-16.889,12.507-15.571a2.379,2.379,0,0,1,1.618,1.719c.123,2.724.15,4.5.15,4.5" transform="translate(27.018 25.269)" fill="#fdb74d"/>
                <path id="Trazado_205213" data-name="Trazado 205213" d="M167.747,63.764s-10.833,6.376-4.19,18.741c0,0-9.483-1.738-11.529-4.571a7.451,7.451,0,0,0,.59,1.775s-8.716-1.979-11.568-5.618S152.2,26.882,174.857,38.175c0,0,20.72,3.851,12.6,26.855S187,90.065,187,90.065a11.266,11.266,0,0,1-3.442.213s-1.353-.972-1.429-1.883a5.557,5.557,0,0,0,.226,1.9s-8.486-1.412-11.791-5.631-5.283-16.366-2.817-20.9" transform="translate(32.145 8.297)" fill="#233862"/>
                <path id="Trazado_205214" data-name="Trazado 205214" d="M149.989,88.8l-.039.015c-.068-.01-.053-.015.039-.015" transform="translate(34.253 20.291)" fill="#ffb27d"/>
                <path id="Trazado_205215" data-name="Trazado 205215" d="M176.3,86.187c.318,2.853.7,5.41.866,6.63.378,2.731-25.54.945-27.193.94,1.152-.5,4.672-11.652,5.786-15.907,1.351-5.16,2.413-10.733,2.413-10.733l18.3,1.162,1.09.068a63.83,63.83,0,0,0-1.491,7.039c-.043.294-.087.592-.125.881a47.528,47.528,0,0,0,.353,9.92" transform="translate(34.268 15.336)" fill="#ffb27d"/>
                <path id="Trazado_205216" data-name="Trazado 205216" d="M155.048,71.882s-2.964-9.411-2.361-16.628c.43-5.152,7.77-22.723,25.4-15.239a25.762,25.762,0,0,1,9.29,6.641c3.268,3.742,7.472,11.066-3.168,25.279l-3.092,4.932Z" transform="translate(34.87 8.725)" fill="#233862"/>
                <path id="Trazado_205217" data-name="Trazado 205217" d="M174.794,86.09c-12.8-3.754-18.23-18.547-18.23-18.547,5.415.162,12.468,3.924,18,7.746-.043.294-.087.592-.125.881a47.533,47.533,0,0,0,.353,9.92" transform="translate(35.774 15.433)" fill="#ed975d"/>
                <path id="Trazado_205218" data-name="Trazado 205218" d="M175.817,86.28s-23.129-5.724-19.341-20.072,3.351-24.752,18.279-21.7S191.094,53.783,191,58.88s-9.064,28.521-15.178,27.4" transform="translate(35.658 10.048)" fill="#ffb27d"/>
                <path id="Trazado_205219" data-name="Trazado 205219" d="M193.48,51.88c-6.882-10.894-15.092-12.029-15.126-12.029-5.877-3.942-13.656,5.726-13.656,5.726A28.35,28.35,0,0,1,151.443,59.39s3.509,3.705,13.846,3.783c3.156.023,6.353-1.378,9.27-3.33a55.612,55.612,0,0,1-12.241,8.841c12.4-2.178,21.088-15.84,22.626-18.418,1.668,2.683,3.326,5.8,3.413,7.741.181,3.957-1.3,11.614.962,11.939,0,0,8.795-10.728,4.16-18.065" transform="translate(34.604 8.89)" fill="#233862"/>
                <path id="Trazado_205220" data-name="Trazado 205220" d="M169.206,70.926s.287,2.185,1.681,2.7,5.093,1.455,5.468,1.224a18.646,18.646,0,0,0,1.762-1.935s-5.829-2.237-8.91-1.99" transform="translate(38.663 16.202)" fill="#fff"/>
                <path id="Trazado_205221" data-name="Trazado 205221" d="M170.1,263.1q-.44,1.843-.877,3.647c-1.747,7.246-3.373,13.966-4.4,19.587-1.333,7.317-1.647,12.762.1,15.05,7.181,9.421-.029,84.163-.029,84.163l-8.178,8.418s-14.187-73.8-18.037-85.362c-1.753-5.257-4.3-27.709-6.545-50.628q-.173-1.721-.337-3.44c-.388-4.009-.763-8-1.123-11.9-2.017-21.685-3.523-40.253-3.523-40.253s15.079-10.595,28.776-11.77c8.07-.7,15.657,1.87,19.4,11.786,5.453,14.426-.085,39.333-5.228,60.7" transform="translate(29.054 43.53)" fill="#ffb27d"/>
                <path id="Trazado_205222" data-name="Trazado 205222" d="M165.906,268.063c-10.549-11.507-17.491-27.984-30.362-51.054-1.09-11.732,8.165-22.877,18.49-26.4,8.07-.7,15.657,1.87,19.4,11.786,5.453,14.426-2.387,44.293-7.529,65.663" transform="translate(30.951 43.53)" fill="#ed975d"/>
                <path id="Trazado_205223" data-name="Trazado 205223" d="M200.825,93.783c-3.346-4.62-14.377-4.8-16.833-4.919-1.783-.1,1.542-7.668-1.6-8.527-2.571-.7-5.939,2.364-8.592,3.069-5.329,1.428-12.9-2.322-15.577-3.179-1.385-.443-3.037,1.978-2.812,3.413.275,1.7-12.527,2.011-20.913,7.7-4.683,3.177-3.328,29.356-3.318,29.359-.81,19.832,4.753,49.185,4.753,49.185,22.386,13.5,49.474,1.661,49.474,1.661a20.671,20.671,0,0,1-.415-3.313c.077-.588.568-4.876.663-5.357.211-1.074,17.913-65.306,15.173-69.091" transform="translate(29.93 18.319)" fill="#fedc72"/>
                <path id="Trazado_205224" data-name="Trazado 205224" d="M261.284,334.92l-2.576,10.623s-74.45-38.485-84.079-45.874c-3.867-2.969-8.973-19.087-13.7-37.319-7.044-27.174-13.249-59.046-13.249-59.046s10.453-40.142,38.389-15.563c16.717,14.71,14.106,43.042,12.268,65.078-1.224,14.786-2.1,26.738,3.44,29.838,10.814,6.041,42.544,33.86,52.582,52.994Z" transform="translate(33.743 41.077)" fill="#ffb27d"/>
                <path id="Trazado_205225" data-name="Trazado 205225" d="M226.032,235.939s-7.254,2.075-18.15,4.369c-22.515,4.742-60.594,10.421-82.4.69,0,0,1.4-32.072,5.2-56.315,3.038-19.394,5.851-32.125,5.851-32.125s20.27,5.086,40.859,1.152c.2-.036.389-.072.586-.113a66.939,66.939,0,0,0,8.05-2.117s15.532,22.281,23.544,37.782c5.543,10.724,16.453,46.677,16.453,46.677" transform="translate(28.673 34.612)" fill="#8c6df2"/>
                <path id="Trazado_205226" data-name="Trazado 205226" d="M256.161,312.143s-.022,0-.066-.015c-.333-.084-1.865-.588-2.88-3.026-.668-1.6-.869-2.921-1.482-4.507l-2.512-4.342c-2.629-3.463-3.552-2.652-3.552-2.652s-.688.881-1.7,2.044c-1.679,1.918-4.253,4.592-6.074,5.279a5.293,5.293,0,0,0-2.6,2.034,5,5,0,0,0-.776,1.784s5.4.943,4.927,3.6c-.918,5.15-.7,6.087-.608,6.255l.032.034s9.208,4.823,12.151,5.771c5.24,1.679,7.975,5.242,9.674,6.87a3.029,3.029,0,0,0,2.576.813c1.382-.217,3.174-.661,3.568-1.509Z" transform="translate(53.585 67.981)" fill="#5038a1"/>
                <path id="Trazado_205227" data-name="Trazado 205227" d="M170.93,361.959l-4.412,2.386c-1.6.566-2.926.73-4.548,1.35a9.411,9.411,0,0,0-4.284,3.133c-1.246,5.059-3.066,4.9-3.066,4.9l-17.666-.006c-.835-.416.582-3.994,1.26-4.662,1.677-1.65,6.689-.818,8.521-6.006,1.032-2.916,6.119-11.979,6.119-11.979l.036-.032c.172-.088,1.115-.278,6.235.79,2.646.547,3.744-4.822,3.744-4.822a5,5,0,0,1,1.762.828,5.3,5.3,0,0,1,1.958,2.658c.634,1.84,3.233,4.49,5.1,6.224,1.131,1.049,1.993,1.762,1.993,1.762s.784.946-2.754,3.474" transform="translate(31.235 79.291)" fill="#5038a1"/>
                <path id="Trazado_205228" data-name="Trazado 205228" d="M156.159,159.758c-15.017,0-21.205-5.174-21.663-5.527l-.673-8.068c.145.107,19.994,13.208,51.182,1.63l-.663,5.359c-11.994,4.452-20.382,6.609-28.182,6.606" transform="translate(30.578 33.398)" fill="#fdb74d"/>
                <path id="Trazado_205229" data-name="Trazado 205229" d="M175.409,92.878s51.354,1.764,61.344-.629S271.12,76.677,271.12,76.677l3.595,6.794s-24.381,21.968-37.968,25.959-58.738,7.972-58.738,7.972Z" transform="translate(40.08 17.52)" fill="#ffb27d"/>
                <path id="Trazado_205230" data-name="Trazado 205230" d="M257.24,93.987h-7.224a2.55,2.55,0,0,1-2.547-2.55l.009-25.37a2.547,2.547,0,0,1,2.549-2.547l7.224,0a2.546,2.546,0,0,1,2.545,2.548l-.009,25.371a2.547,2.547,0,0,1-2.548,2.547" transform="translate(56.545 14.514)" fill="#37547f"/>
                <path id="Trazado_205231" data-name="Trazado 205231" d="M259.075,93.988l-7.224,0a2.546,2.546,0,0,1-2.545-2.548l.007-25.372a2.547,2.547,0,0,1,2.549-2.547l7.224,0a2.548,2.548,0,0,1,2.547,2.548l-.01,25.372a2.546,2.546,0,0,1-2.548,2.547" transform="translate(56.965 14.514)" fill="#152847"/>
                <path id="Trazado_205232" data-name="Trazado 205232" d="M263.053,71.525s-6.291-5.76-8.189-3.588,3.092,14.124,5.389,14.56,5.3-5.974,2.8-10.972" transform="translate(58.138 15.411)" fill="#ffb27d"/>
                <path id="Trazado_205233" data-name="Trazado 205233" d="M245.594,67.028s4.968.529,5.537-2.229a40.488,40.488,0,0,0,.57-6.65s.281,8.029,2.349,8.76a15.63,15.63,0,0,0,4.5.731s-3.765.627-4.9,1.337c-1.308.821-1.91,3.3-1.857,4.683,0,0-.181-3.285-1.945-4.927a13.738,13.738,0,0,0-4.258-1.705" transform="translate(56.117 13.287)" fill="#fff"/>
                <path id="Trazado_205234" data-name="Trazado 205234" d="M177.881,88.806s37.836,4.764,46.612,2.364,33.344-11.593,36.989-9.9a16.066,16.066,0,0,1,1.826,11.678s-12.666,13.556-24.676,17.244-50.184,6.794-53.217,18.827l-10.774-6.337s-5.108-28.561-4.359-29.055,7.6-4.823,7.6-4.823" transform="translate(38.891 18.523)" fill="#fedc72"/>
                <path id="Trazado_205235" data-name="Trazado 205235" d="M130.317,372.547l-49.324-.016c-3.533-2.4.962-25.828.962-25.828s13.464-5.1,15.785,5.285,17.141,13.687,24.983,14.956c5.364.873,7.059,3.822,7.595,5.6" transform="translate(18.197 78.933)" fill="#233862"/>
                <path id="Trazado_205236" data-name="Trazado 205236" d="M120.468,168.193s-1.018,33.483-3.635,66.728c-3.556,45.166-13.149,157.142-13.149,157.142s-6.263,5.341-20.135,2.413a440.044,440.044,0,0,1-15.149-80.7l-.162-2.027c-.054-.724-.108-1.453-.161-2.178-1.64-22.5-3.733-57.484-5.413-86.775-1.667-29.134-2.932-52.634-2.932-52.634Z" transform="translate(13.648 38.431)" fill="#fedc72"/>
                <path id="Trazado_205237" data-name="Trazado 205237" d="M94.549,192.112,67.856,308.31q-.083-1.012-.163-2.026c-.054-.724-.108-1.453-.161-2.178-1.64-22.5-3.733-57.484-5.413-86.775l1.058-5.037Z" transform="translate(14.194 43.896)" fill="#fdb74d"/>
                <path id="Trazado_205238" data-name="Trazado 205238" d="M70.771,372.527l-49.323-.017c-3.533-2.4.962-25.827.962-25.827s13.463-5.1,15.785,5.285,17.141,13.685,24.981,14.956c5.365.873,7.059,3.822,7.595,5.6" transform="translate(4.591 78.929)" fill="#233862"/>
                <path id="Trazado_205239" data-name="Trazado 205239" d="M117.116,168.3S81.864,255.967,70.593,289.2c-8.029,23.671-30.677,106.711-30.677,106.711s-9.838,2.99-18.1-2.8c0,0-4.533-82.531,8.619-108.768C41.048,263.167,32.72,152.4,69.287,151.388S117.116,168.3,117.116,168.3" transform="translate(4.812 34.582)" fill="#fedc72"/>
                <path id="Trazado_205240" data-name="Trazado 205240" d="M123.846,137c-1.873,30.431,3.295,61.8,3.295,61.8-11.038,11.722-75,16.816-87.667,6.942-2.988-2.329,6.721-19.294,8.179-53.231.882-20.581-1.7-37.4-2.15-45.545C43.857,77.432,40.819,71.22,47.07,67.478c6.773-4.052,21.868-7.811,38.008-9.542,5.356-.571,12.778.05,20.338,1.606,2.566.527,5.145,1.16,7.665,1.891,7.717,2.241,14.881,5.394,19.314,9.16,5.888,5,17.765,22.377,17.765,22.377s-15.97,21.655-23.867,25.429c-.118.053-.237.113-.355.158a170.2,170.2,0,0,0-2.086,18.416.11.11,0,0,0-.006.026" transform="translate(8.89 13.19)" fill="#8c6df2"/>
                <path id="Trazado_205241" data-name="Trazado 205241" d="M74.034,67.54S55.4,69.615,47.22,76.174,3.641,126.839.178,138.874s44.51,40.309,44.51,40.309l3.512-8.7s-22.916-27.647-20.824-31.6,64.55-48.6,46.658-71.344" transform="translate(0 15.433)" fill="#ffb27d"/>
                <path id="Trazado_205242" data-name="Trazado 205242" d="M80.435,57.9S57.644,60.782,46.2,69.987c-5.271,4.238-24.642,27.684-24.642,27.684s5.085,21.4,31.9,24.083c27.3,2.736,26.135-42.186,26.135-42.186Z" transform="translate(4.925 13.229)" fill="#8c6df2"/>
                <path id="Trazado_205243" data-name="Trazado 205243" d="M65.364,64.441a3.415,3.415,0,0,0,.391,3.878c2.732,3.214,9.935,8.461,26.688,5.232,5.738-1.106,6.569-5.45,2.4-9.283-1.015-.935-1.43-6.986-1.623-9.41a75.308,75.308,0,0,0-.919-8.722L79.4,39.819,67.16,33.754c3.955,17.28.2,27.043-1.8,30.687" transform="translate(14.837 7.713)" fill="#ffb27d"/>
                <path id="Trazado_205244" data-name="Trazado 205244" d="M68.926,44.481A39.149,39.149,0,0,0,92.3,53.73a75.391,75.391,0,0,0-.92-8.722L78.49,38.69Z" transform="translate(15.749 8.84)" fill="#ed985f"/>
                <path id="Trazado_205245" data-name="Trazado 205245" d="M98.847,51.522s-27.034,9.872-32.916-6.785S52.6,18.139,69.611,11.131s22.629-1.824,25.967,3.257,10.151,34.136,3.27,37.134" transform="translate(13.511 1.766)" fill="#ffb27d"/>
                <path id="Trazado_205246" data-name="Trazado 205246" d="M51.595,14.621c-.308-.242-.937-.366-2.252-.189a5.373,5.373,0,0,1,2.3-1.146c-.071-1.86.281-5.242,3.246-6.612a3.967,3.967,0,0,0-1.355,3.172c2.9-4.386,9.8-11.192,31.577-9.613,26.6,1.928,21.307,13.076,16.48,16.694-3.45,2.585-10.276.205-16.972,2.037s-6.12,11.9-8.171,13.688-1.6-.768-4.984-1.586-2.7,4.41-1.161,7.6-1.9,8.44-1.9,8.44l-5.22-3.843c-5.221-3.841-13.063-22.827-11.894-27.415.1-.405.2-.814.31-1.227" transform="translate(11.275 0)" fill="#2c3a64"/>
                <path id="Trazado_205247" data-name="Trazado 205247" d="M94.321,33.848a5.745,5.745,0,0,1-4.273,4.376A7.783,7.783,0,0,1,83.6,36.754s5.776-3.6,10.724-2.907" transform="translate(19.101 7.714)" fill="#fff"/>
                <path id="Trazado_205248" data-name="Trazado 205248" d="M177.075,142.341s-11.911,6.178-9.72,11.224,10.087,3.512,12.282,0-.029-12.233-2.563-11.227" transform="translate(38.178 32.506)" fill="#ffb27d"/>
                <path id="Trazado_205249" data-name="Trazado 205249" d="M39.888,151.814s11.188-4.346,15.354-1.713,9.208,13.6,5.916,14.038-10.909-4.833-12.719-3.625-7.35,6.685-12.064,0Z" transform="translate(8.312 34.104)" fill="#ffb27d"/>
                <path id="Trazado_205250" data-name="Trazado 205250" d="M53.3,61.221s21.645,42.282-7.526,66.616L45.5,139.354s17.757-9.265,23.856-29.164c7.41-24.178-4.211-51.916-4.211-51.916Z" transform="translate(10.397 13.315)" fill="#5038a1"/>
                <path id="Trazado_205251" data-name="Trazado 205251" d="M111.482,136.635a.11.11,0,0,0-.006.026C109.03,112.315,95.4,66.936,93.046,59.2c2.565.527,5.145,1.16,7.665,1.891,7.791,19.414,11.891,35.449,13.1,54.057.065.98.1,1.955.111,2.908a68.769,68.769,0,0,1-2.441,18.575" transform="translate(21.26 13.528)" fill="#5038a1"/>
              </g>
            </g>
          </g>
        </g>
      </g>
    </g>
  </g>
</svg>
