<svg xmlns="http://www.w3.org/2000/svg" xmlns:xlink="http://www.w3.org/1999/xlink" width="505" height="244" viewBox="0 0 505 244">
  <defs>
    <clipPath id="clip-path">
      <rect id="Rectángulo_47109" data-name="Rectángulo 47109" width="505" height="244" transform="translate(284.581 1092)" fill="#fff" stroke="#707070" stroke-width="1"/>
    </clipPath>
    <clipPath id="clip-path-2">
      <rect id="Rectángulo_47097" data-name="Rectángulo 47097" width="505" height="273.445" fill="none"/>
    </clipPath>
    <clipPath id="clip-path-3">
      <rect id="Rectángulo_47096" data-name="Rectángulo 47096" width="12.75" height="4.551" fill="none"/>
    </clipPath>
    <clipPath id="clip-path-4">
      <path id="Trazado_205502" data-name="Trazado 205502" d="M516.633,223.53l-2.006,6.935,78.712-21.8-4.463-9.049Z" transform="translate(-514.627 -199.619)" fill="none"/>
    </clipPath>
    <linearGradient id="linear-gradient" x1="-3.544" y1="3.281" x2="-3.537" y2="3.281" gradientUnits="objectBoundingBox">
      <stop offset="0" stop-color="#dedfe0"/>
      <stop offset="0.032" stop-color="#dedfe0"/>
      <stop offset="0.118" stop-color="#e6e7e8"/>
      <stop offset="0.316" stop-color="#f4f4f5"/>
      <stop offset="0.562" stop-color="#fcfcfc"/>
      <stop offset="1" stop-color="#fff"/>
    </linearGradient>
    <clipPath id="clip-path-6">
      <path id="Trazado_205513" data-name="Trazado 205513" d="M639.848,185.8c-11.456,2.82-147.689,40.183-147.689,40.183s-2.879.646-2.879,4.934V263.7l3.642,4.582,7.81,2.842c-.062-.836-.1-1.7-.1-2.6,0-6.473,1.737-11.72,3.879-11.72s3.88,5.247,3.88,11.72a32.274,32.274,0,0,1-.411,5.233l49.041,17.844a36.506,36.506,0,0,1-.184-3.662c0-11.162,4.931-20.21,11.016-20.21s11.016,9.048,11.016,20.21a33.259,33.259,0,0,1-1.766,10.97c30.015,10.924,57.213,20.825,60.1,21.889,8.46,2.116,49.348-13.395,53.812-19.5s5.405-6.815,5.405-13.394,1.763-17.331-1.057-24.2V207.071c0-3.525-8.812-9.458-22.207-15.979-9.187-4.472-16.053-6.623-23.157-6.624a42.076,42.076,0,0,0-10.152,1.336" transform="translate(-489.28 -184.468)" fill="none"/>
    </clipPath>
    <linearGradient id="linear-gradient-2" x1="-1.369" y1="1.196" x2="-1.366" y2="1.196" gradientUnits="objectBoundingBox">
      <stop offset="0" stop-color="#fff"/>
      <stop offset="0.438" stop-color="#fcfcfc"/>
      <stop offset="0.684" stop-color="#f4f4f5"/>
      <stop offset="0.882" stop-color="#e6e7e8"/>
      <stop offset="0.968" stop-color="#dedfe0"/>
      <stop offset="1" stop-color="#dedfe0"/>
    </linearGradient>
    <clipPath id="clip-path-8">
      <path id="Trazado_205517" data-name="Trazado 205517" d="M779.6,350.207a40.362,40.362,0,0,1-12.455,0v27.727s29.712-10.95,42.525-16.488c1.782-2.69,2.239-4.428,2.239-9.006,0-3.471.486-8.1.536-12.709-2.827,2.089-12.113,7.731-32.845,10.476" transform="translate(-767.147 -339.731)" fill="none"/>
    </clipPath>
    <linearGradient id="linear-gradient-3" x1="-9.896" y1="1.961" x2="-9.883" y2="1.961" gradientUnits="objectBoundingBox">
      <stop offset="0" stop-color="#dedfe0"/>
      <stop offset="0.032" stop-color="#dedfe0"/>
      <stop offset="1" stop-color="#c1c2c2"/>
    </linearGradient>
    <clipPath id="clip-path-10">
      <path id="Trazado_205578" data-name="Trazado 205578" d="M753.5,379.073c0,2.359,1.568,4.273,3.5,4.273s3.5-1.914,3.5-4.273-1.568-4.273-3.5-4.273-3.5,1.913-3.5,4.273" transform="translate(-753.5 -374.8)" fill="none"/>
    </clipPath>
    <linearGradient id="linear-gradient-4" x1="-62.849" y1="6.368" x2="-62.766" y2="6.368" xlink:href="#linear-gradient"/>
    <clipPath id="clip-path-12">
      <path id="Trazado_205580" data-name="Trazado 205580" d="M767.751,379.751c0,2.36,1.567,4.273,3.5,4.273s3.5-1.913,3.5-4.273-1.567-4.275-3.5-4.275-3.5,1.914-3.5,4.275" transform="translate(-767.751 -375.476)" fill="none"/>
    </clipPath>
    <linearGradient id="linear-gradient-5" x1="-64.054" y1="6.321" x2="-63.971" y2="6.321" xlink:href="#linear-gradient"/>
    <clipPath id="clip-path-13">
      <rect id="Rectángulo_47108" data-name="Rectángulo 47108" width="505" height="273.445" transform="translate(0 -35)" fill="none"/>
    </clipPath>
  </defs>
  <g id="Enmascarar_grupo_135" data-name="Enmascarar grupo 135" transform="translate(-284.581 -1092)" clip-path="url(#clip-path)">
    <path id="Trazado_139920" data-name="Trazado 139920" d="M910.458,371.06a4.733,4.733,0,0,0-.354.4,4.085,4.085,0,0,0,.879,6.056,5,5,0,0,0,6.574-1.06,112.836,112.836,0,0,1,18.9-18.4,120.2,120.2,0,0,1,22.776-13.922l1.513-.714,1.534-.662c1.019-.449,2.052-.861,3.085-1.268q3.094-1.241,6.254-2.25c1.048-.351,2.113-.642,3.164-.965,1.058-.3,2.123-.575,3.18-.863,1.07-.241,2.125-.52,3.2-.719s2.136-.44,3.207-.6,2.134-.358,3.2-.484c.534-.066,1.065-.144,1.6-.2l1.594-.148c1.062-.12,2.118-.138,3.172-.213,1.051-.032,2.1-.064,3.14-.062,1.038.024,2.076.013,3.1.09.51.034,1.023.051,1.531.092l1.508.146c.252.027.5.042.755.077l.765.113,1.523.226c1.01.2,2.019.361,3.017.588a87.752,87.752,0,0,1,22.9,8.786c7.337,3.923,14.444,8.6,21.814,13.462,3.691,2.429,7.431,4.93,11.338,7.406,1.941,1.246,3.948,2.467,5.979,3.687,1.033.6,2.051,1.214,3.107,1.808l3.077,1.732c7.883,4.418,16.088,8.868,24.892,12.923a168.769,168.769,0,0,0,28.677,10.412,115,115,0,0,0,16.512,2.995,98.1,98.1,0,0,0,18.123.254,91.879,91.879,0,0,0,9.467-1.267c1.587-.293,3.173-.643,4.756-1.023.791-.2,1.558-.382,2.373-.613s1.63-.458,2.436-.713a86.016,86.016,0,0,0,18.452-8.186c1.445-.858,2.87-1.746,4.258-2.683.738-.491,1.284-.884,1.9-1.3l1.809-1.26c1.2-.846,2.39-1.743,3.568-2.652s2.332-1.869,3.5-2.814a106.653,106.653,0,0,0,12.971-12.89,98.9,98.9,0,0,0,10.636-15.209,101.461,101.461,0,0,0,7.58-16.755,109.969,109.969,0,0,0,5.916-34.473,140.422,140.422,0,0,0-3.4-32.626q-1.745-7.907-4.225-15.5c-.84-2.56-1.749-5.111-2.756-7.694-.508-1.294-1.032-2.6-1.611-3.943-.29-.674-.588-1.353-.922-2.073l-.531-1.119-.311-.624-.195-.372-.3-.544c-10.743-17.262-34.917-22.611-53.986-11.945s-25.817,33.308-15.073,50.57l-.095-.2c-.02-.049,0-.031,0-.031h.016c.015-.007.064.044.1.068a3.671,3.671,0,0,1,.271.273c.2.21.416.472.634.735.441.536.9,1.129,1.352,1.743.905,1.237,1.81,2.555,2.677,3.9a87.729,87.729,0,0,1,4.8,8.411,80.2,80.2,0,0,1,6.47,17.4,53.781,53.781,0,0,1,1.42,16.648,38.807,38.807,0,0,1-1.4,7.815,40.085,40.085,0,0,1-3.021,7.58,46.909,46.909,0,0,1-4.784,7.427c-.5.6-.974,1.217-1.491,1.822-.537.593-1.045,1.21-1.6,1.8l-1.628,1.72c-.417.46-.863.9-1.309,1.338a30.543,30.543,0,0,1-6.075,4.506c-.276.162-.557.306-.838.462l-.934.461c-.635.3-1.278.594-1.943.86a40.469,40.469,0,0,1-4.171,1.438,60.138,60.138,0,0,1-20.36,1.707q-2.835-.171-5.745-.558t-5.883-.927c-3.96-.72-7.987-1.643-12.051-2.712-8.135-2.136-16.391-4.867-24.838-7.812l-3.033-1.062c-.978-.341-1.96-.716-2.949-1.076-1.977-.754-3.963-1.526-5.97-2.353-4.008-1.635-8.082-3.4-12.219-5.217-8.281-3.616-16.886-7.4-26.1-10.469a111.375,111.375,0,0,0-29.276-5.98c-1.271-.08-2.556-.093-3.828-.13-1.289.013-2.543,0-3.848.045l-1.943.062c-.646.033-1.287.087-1.93.131-1.285.072-2.557.238-3.826.375a95.006,95.006,0,0,0-14.746,3.113,133.964,133.964,0,0,0-26.8,11.359,180.074,180.074,0,0,0-23.633,15.684,238,238,0,0,0-20.982,18.607Z" transform="translate(-468.246 715.632) rotate(9)" fill="#fdb74d"/>
    <path id="Trazado_205449" data-name="Trazado 205449" d="M0,96.405,17.239,114.2l18.715-5.609-25.3-12.183Z" transform="translate(285 1051.741)" fill="#fedc72"/>
    <path id="Trazado_205450" data-name="Trazado 205450" d="M27.8,107.372l-2.384-2.461,78.917-24.927,8.008,6.813Z" transform="translate(274.434 1058.566)" fill="#f1ece6"/>
    <g id="Grupo_156215" data-name="Grupo 156215" transform="translate(285 1091.811)">
      <g id="Grupo_156214" data-name="Grupo 156214" clip-path="url(#clip-path-2)">
        <path id="Trazado_205451" data-name="Trazado 205451" d="M43.556,103.71c-3.527,1.116-14.056,4.141-14.056,4.141l8.752,8.275s59.314-1.786,93.844-6.232c12.544-1.615,25.1-3.417,37.331-6.625,6.22-1.631,12.452-3.675,17.71-7.376,1.556-1.1,3.174-2.745,2.772-4.6a4.525,4.525,0,0,0-1.433-2.195c-3.454-3.316-7.5-4.772-12.156-5.906C137.25,73.661,54.514,100.243,43.556,103.71" transform="translate(-12.261 -33.724)" fill="#d9cebc"/>
        <path id="Trazado_205452" data-name="Trazado 205452" d="M479.111,94.527l61.365-42.969,16.851,4.534-35.6,52.054Z" transform="translate(-199.136 -21.429)" fill="#fedc72"/>
        <path id="Trazado_205453" data-name="Trazado 205453" d="M24.245,21.5C22.375,27.028,42.378,42.4,51.777,46.484c22.943,9.96,195.065,55.633,200.115,56.953s92.942-4.68,92.942-4.68L346.861,91s.909-9.546-67.989-30.2S97.83,9.393,81.059,6.566C69.689,4.65,56.621,5.281,49.307,8.906c-8.022,3.976-10.715,5.588-13.589,6.073-3.849.649-9.311.124-11.473,6.517" transform="translate(-10.026 -2.289)" fill="#f1ece6"/>
        <path id="Trazado_205454" data-name="Trazado 205454" d="M52.59,14.009c3.1,2.4,7.933,4.158,11.434,5.776,2.2,1.017,4.648,1.281,6.928,2.091a27.529,27.529,0,0,0,9.8,2.014,2.514,2.514,0,0,0,1.117-.215,3.876,3.876,0,0,0,1.491-2.492q.781-2.718,1.433-5.468a3.113,3.113,0,0,0,.109-1.439c-.212-.829-1.057-1.116-1.792-1.317-4.533-1.238-11.345-2.77-15.283-5.428a17.113,17.113,0,0,0-6.689,2.216c-2.918,1.446-6.776,3.382-8.549,4.262" transform="translate(-21.858 -3.13)" fill="#5038a1"/>
        <path id="Trazado_205455" data-name="Trazado 205455" d="M91.8,13.642c-1.38,3.355-2.671,6.753-4.3,9.995-.23.459-.467.915-.65,1.395a1.9,1.9,0,0,0-.161.936.8.8,0,0,0,.58.688.835.835,0,0,0,.812-.424,2.824,2.824,0,0,0,.3-.92,22.509,22.509,0,0,1,1.357-3.881q1.448-3.413,3.047-6.761a1.8,1.8,0,0,0,.258-1.07c-.165-.875-1.006-.553-1.251.042" transform="translate(-36.026 -5.429)" fill="#d9e3e8"/>
        <path id="Trazado_205456" data-name="Trazado 205456" d="M225.891,89.723c-25.863-3.874-51.014-11.417-76.061-18.936l-39.5-11.861L40.485,37.958c-5.152-1.547-10.329-3.029-15.442-4.7-.272-.089-.545-.182-.82-.277C22.531,38.569,42.411,53.838,51.773,57.9c22.943,9.96,195.065,55.634,200.115,56.953s92.942-4.678,92.942-4.678l2.027-7.755s.289-3.061-11.967-9.467q-18.63.53-37.27.628c-23.969.12-48.026-.309-71.731-3.86" transform="translate(-10.026 -13.709)" fill="#fedc72"/>
        <path id="Trazado_205457" data-name="Trazado 205457" d="M251.445,108.322C246.221,106.954,67.837,61.8,34.263,49.382c4.79,5.839,17.659,13.571,21.728,15.337,22.943,9.961,194.84,55.21,199.889,56.529s92.942-4.679,92.942-4.679l1.49-5.7c-2.191.1-93.53-1.149-98.867-2.547" transform="translate(-14.241 -20.525)" fill="#ffb27d"/>
        <path id="Trazado_205458" data-name="Trazado 205458" d="M28.318,35.045a18.973,18.973,0,0,0,2.668-5.2,20.887,20.887,0,0,0,1.394-5.57,10.538,10.538,0,0,0-.05-2.048c-3.16.447-6.455,1.449-8.02,6.079-.576,1.7.923,4.339,3.545,7.291q.242-.268.463-.551" transform="translate(-10.053 -9.238)" fill="#5038a1"/>
        <path id="Trazado_205459" data-name="Trazado 205459" d="M323.41,105.874,118.477,50.738l8.467-1.357,197.377,53.1Z" transform="translate(-49.243 -20.525)" fill="#fedc72"/>
        <path id="Trazado_205460" data-name="Trazado 205460" d="M564.778,80.37l4.182-6.115q-8.139.424-16.261,1.116,3.41-2.838,7.037-5.4l-11.783.857c-1.828.133-3.811.108-5.726.285L524.976,83.19c6.854-1.086,13.912-1.31,20.685-2.893q-4.6,3.185-9.475,5.962,14.237-3.222,28.592-5.89" transform="translate(-218.199 -29.082)" fill="#ffb27d"/>
        <path id="Trazado_205461" data-name="Trazado 205461" d="M504.347,138.938c.3,1.182,1.778,1.54,2.991,1.681l39.883,4.622a8.436,8.436,0,0,0,3.771-.135,2.888,2.888,0,0,0,2.071-2.846l-21.721-5.987a70.688,70.688,0,0,0-11.55-2.5c-2.353-.24-16.671.373-15.446,5.166" transform="translate(-209.594 -55.582)" fill="#eaf5f9"/>
        <path id="Trazado_205462" data-name="Trazado 205462" d="M552.5,144.652a3.453,3.453,0,0,1-1.439.982,8.44,8.44,0,0,1-3.772.135l-39.883-4.622c-1.066-.124-2.336-.415-2.832-1.289a2.055,2.055,0,0,0-.228,1.627c.3,1.182,1.778,1.54,2.991,1.681l39.883,4.622a8.436,8.436,0,0,0,3.771-.135,2.888,2.888,0,0,0,2.071-2.846l-.562-.155" transform="translate(-209.594 -58.13)" fill="#5038a1"/>
        <path id="Trazado_205463" data-name="Trazado 205463" d="M328.408,103.99l-.241.139a.45.45,0,0,0-.223.466.343.343,0,0,0,.056.174l.073.095a.47.47,0,0,0,.206.12l.125.017a.467.467,0,0,0,.236-.064l.241-.139a.528.528,0,0,0,.215-.279.357.357,0,0,0,.008-.187.348.348,0,0,0-.055-.174l-.073-.095a.469.469,0,0,0-.207-.12l-.125-.016a.46.46,0,0,0-.236.064" transform="translate(-136.302 -43.195)" fill="#c2cbce"/>
        <path id="Trazado_205464" data-name="Trazado 205464" d="M142.077,42.38h0A2.757,2.757,0,0,1,140.13,39l.795-2.954a2.758,2.758,0,1,1,5.326,1.433l-.795,2.953a2.757,2.757,0,0,1-3.379,1.947" transform="translate(-58.204 -14.134)" fill="#5038a1"/>
        <path id="Trazado_205465" data-name="Trazado 205465" d="M164.353,48.374h0a2.757,2.757,0,0,1-1.947-3.379l.795-2.954a2.758,2.758,0,1,1,5.326,1.433l-.795,2.954a2.757,2.757,0,0,1-3.379,1.947" transform="translate(-67.462 -16.625)" fill="#5038a1"/>
        <path id="Trazado_205466" data-name="Trazado 205466" d="M186.629,54.367h0a2.757,2.757,0,0,1-1.947-3.379l.795-2.954a2.758,2.758,0,1,1,5.326,1.433l-.795,2.953a2.757,2.757,0,0,1-3.379,1.947" transform="translate(-76.721 -19.116)" fill="#5038a1"/>
        <path id="Trazado_205467" data-name="Trazado 205467" d="M208.9,60.36h0a2.757,2.757,0,0,1-1.947-3.379l.795-2.954a2.758,2.758,0,0,1,5.326,1.433l-.795,2.954A2.757,2.757,0,0,1,208.9,60.36" transform="translate(-85.98 -21.607)" fill="#5038a1"/>
        <path id="Trazado_205468" data-name="Trazado 205468" d="M231.181,66.353h0a2.757,2.757,0,0,1-1.947-3.379l.795-2.954a2.758,2.758,0,1,1,5.326,1.433l-.795,2.953a2.757,2.757,0,0,1-3.379,1.947" transform="translate(-95.238 -24.098)" fill="#7a7f89"/>
        <path id="Trazado_205469" data-name="Trazado 205469" d="M253.457,72.347h0a2.758,2.758,0,0,1-1.947-3.379l.795-2.954a2.758,2.758,0,0,1,5.326,1.433l-.795,2.954a2.757,2.757,0,0,1-3.379,1.947" transform="translate(-104.497 -26.589)" fill="#7a7f89"/>
        <path id="Trazado_205470" data-name="Trazado 205470" d="M275.733,78.34h0a2.758,2.758,0,0,1-1.947-3.379l.795-2.954a2.758,2.758,0,0,1,5.326,1.433l-.795,2.954a2.757,2.757,0,0,1-3.379,1.947" transform="translate(-113.756 -29.08)" fill="#7a7f89"/>
        <path id="Trazado_205471" data-name="Trazado 205471" d="M298.009,84.333h0a2.757,2.757,0,0,1-1.947-3.379L296.857,78a2.758,2.758,0,1,1,5.326,1.433l-.795,2.953a2.757,2.757,0,0,1-3.379,1.947" transform="translate(-123.015 -31.571)" fill="#7a7f89"/>
        <path id="Trazado_205472" data-name="Trazado 205472" d="M320.285,90.326h0a2.757,2.757,0,0,1-1.947-3.379l.795-2.954a2.758,2.758,0,0,1,5.326,1.433l-.795,2.954a2.757,2.757,0,0,1-3.379,1.947" transform="translate(-132.273 -34.062)" fill="#7a7f89"/>
        <path id="Trazado_205473" data-name="Trazado 205473" d="M342.561,96.32h0a2.757,2.757,0,0,1-1.946-3.379l.795-2.954a2.758,2.758,0,1,1,5.326,1.433l-.795,2.953a2.757,2.757,0,0,1-3.379,1.947" transform="translate(-141.532 -36.553)" fill="#5038a1"/>
        <path id="Trazado_205474" data-name="Trazado 205474" d="M364.837,102.313h0a2.757,2.757,0,0,1-1.947-3.379l.795-2.954a2.758,2.758,0,1,1,5.326,1.433l-.795,2.954a2.757,2.757,0,0,1-3.379,1.947" transform="translate(-150.791 -39.044)" fill="#5038a1"/>
        <path id="Trazado_205475" data-name="Trazado 205475" d="M387.113,108.306h0a2.757,2.757,0,0,1-1.947-3.379l.795-2.954a2.758,2.758,0,0,1,5.326,1.433l-.795,2.954a2.757,2.757,0,0,1-3.379,1.947" transform="translate(-160.049 -41.535)" fill="#5038a1"/>
        <path id="Trazado_205476" data-name="Trazado 205476" d="M409.389,114.3h0a2.757,2.757,0,0,1-1.947-3.379l.795-2.954a2.758,2.758,0,1,1,5.326,1.433l-.795,2.953a2.757,2.757,0,0,1-3.379,1.947" transform="translate(-169.308 -44.026)" fill="#5038a1"/>
        <path id="Trazado_205477" data-name="Trazado 205477" d="M431.665,120.293h0a2.757,2.757,0,0,1-1.947-3.379l.795-2.954a2.758,2.758,0,0,1,5.326,1.433l-.795,2.954a2.757,2.757,0,0,1-3.379,1.947" transform="translate(-178.567 -46.517)" fill="#5038a1"/>
        <path id="Trazado_205478" data-name="Trazado 205478" d="M191.959,61.02c.641-1.588,2.24-2.547,3.767-3.323,6.966-3.541,14.557-5.678,22.171-7.436,28.082-6.481,57.043-8.049,85.846-9.035a217.178,217.178,0,0,1,26.984.25c4.934.446,10.272,1.439,13.544,5.159-4.237,2.984-9.385,4.327-14.43,5.512-17.761,4.174-35.8,7.1-53.5,11.531-17.1,4.282-34.184,10.01-51.806,9.655A47.52,47.52,0,0,1,211.242,71.4c-3.9-1.225-7.552-3.133-11.419-4.456-2.5-.854-9.735-1.287-7.864-5.924" transform="translate(-79.658 -17.013)" fill="#f1ece6"/>
        <path id="Trazado_205479" data-name="Trazado 205479" d="M331.142,44.388c3.2-.513,6.49-1.012,9.64-.27s6.159,3.034,6.745,6.216c-21.558,11.983-85.38,31.644-92.7,32.337-6.029.572-53.739-10.6-61.13-17.031-1.776-1.546,17.89-6.2,23.817-7.932,23.085-6.736,99.92-11.12,113.624-13.321" transform="translate(-80.462 -18.181)" fill="#d9cebc"/>
        <path id="Trazado_205480" data-name="Trazado 205480" d="M428.979,26.208,452.472,0,456.5,2.275l-11.136,29.88Z" transform="translate(-178.299 0)" fill="#ffb27d"/>
        <path id="Trazado_205481" data-name="Trazado 205481" d="M450.379,0l-3.625.828-22.81,23.091,2.942,2.288Z" transform="translate(-176.207 0)" fill="#fedc72"/>
        <path id="Trazado_205482" data-name="Trazado 205482" d="M311.487,60.636c-4.3-4.238-24.117-13.614-24.117-13.614L275.429,70.929s19.4,10.214,25.371,11.1,13.458-2.343,13.458-2.343l1.07-2.143,1.3-2.6L317.7,72.8s-1.914-7.929-6.211-12.166" transform="translate(-114.478 -19.544)" fill="#f1ece6"/>
        <path id="Trazado_205483" data-name="Trazado 205483" d="M315.329,91.246l1.3-2.6L317.7,86.5a36.159,36.159,0,0,0-1.629-4.82c.039.324.075.648.1.973a7.306,7.306,0,0,1-.241,3.12,6.211,6.211,0,0,1-3.127,3.17c-4.67,2.432-10.359,1.452-15.375-.151a88.072,88.072,0,0,1-8.61-3.3c-2.453-1.078-4.869-2.24-7.267-3.435-1.259-.628-2.519-1.408-3.8-2.077l-2.32,4.645s19.4,10.214,25.371,11.1,13.458-2.343,13.458-2.343Z" transform="translate(-114.478 -33.244)" fill="#d9cebc"/>
        <path id="Trazado_205484" data-name="Trazado 205484" d="M289.755,78.05l-4.995-2.495s2.778-1.062,8-11c5.144-9.789,3.965-12.955,3.965-12.955l4.995,2.495a105.813,105.813,0,0,1-3.795,11.92,41.005,41.005,0,0,1-8.169,12.033" transform="translate(-118.357 -21.448)" fill="#fedc72"/>
        <path id="Trazado_205485" data-name="Trazado 205485" d="M282.492,74.494l-1.077-.538a54.848,54.848,0,0,0,7.933-11.729A60.361,60.361,0,0,0,293.4,49.961l1.077.538s-2.687,9.477-4.175,12.479c-1.538,3.1-7.81,11.516-7.81,11.516" transform="translate(-116.966 -20.766)" fill="#fedc72"/>
        <path id="Trazado_205486" data-name="Trazado 205486" d="M279.573,49.46c-.184.191-2.713,5.363-3.689,7.366-1.016,1.984-3.631,7.113-3.673,7.375-.053.324,1.88,6.694,1.88,6.694s3.251-1.983,7.77-11.564c4.194-8.893,4.194-12.389,4.194-12.389s-6.254,2.28-6.482,2.517" transform="translate(-113.14 -19.511)" fill="#eaf5f9"/>
        <path id="Trazado_205487" data-name="Trazado 205487" d="M278.406,51.819a11.745,11.745,0,0,0-2.161,3.14c-.6,1.128-1.17,2.27-1.736,3.414a22.766,22.766,0,0,0-2.5,6.925c-.049.363-.046.806.261,1.007.411.269.923-.14,1.225-.527a32.235,32.235,0,0,0,2.939-4.856l3.03-5.742a6.091,6.091,0,0,0,.719-1.81c.194-1.177-.556-2.706-1.778-1.551" transform="translate(-113.047 -21.368)" fill="#5038a1"/>
        <path id="Trazado_205488" data-name="Trazado 205488" d="M285.918,52.014a4.435,4.435,0,0,1-.475,3.6c-.583,1.105-1.389,2.083-1.935,3.206-.223.459-.33,1.142.129,1.365a.909.909,0,0,0,.924-.242,5.617,5.617,0,0,0,1.351-1.982c.6-1.246,1.143-2.515,1.689-3.784a10.788,10.788,0,0,0,.7-1.975,1.784,1.784,0,0,0-1.609-2.346c-1.364-.008-1.107,1.312-.777,2.157" transform="translate(-117.757 -20.722)" fill="#fff"/>
        <path id="Trazado_205489" data-name="Trazado 205489" d="M121.527,107.2c-4.3-4.238-24.117-13.614-24.117-13.614L85.469,117.49s19.4,10.213,25.371,11.1S124.3,126.25,124.3,126.25l1.07-2.143,1.3-2.6,1.07-2.143s-1.914-7.929-6.211-12.166" transform="translate(-35.524 -38.896)" fill="#f1ece6"/>
        <path id="Trazado_205490" data-name="Trazado 205490" d="M125.369,137.807l1.3-2.6,1.071-2.143a36.168,36.168,0,0,0-1.629-4.82c.039.324.074.648.1.973a7.3,7.3,0,0,1-.24,3.12,6.212,6.212,0,0,1-3.127,3.17c-4.67,2.432-10.359,1.452-15.375-.151a88.06,88.06,0,0,1-8.61-3.3c-2.454-1.078-4.869-2.24-7.267-3.435-1.259-.628-2.519-1.408-3.8-2.077l-2.32,4.645s19.4,10.214,25.371,11.1S124.3,139.95,124.3,139.95Z" transform="translate(-35.524 -52.597)" fill="#d9cebc"/>
        <path id="Trazado_205491" data-name="Trazado 205491" d="M99.8,124.612,94.8,122.118s2.778-1.062,8-11c5.144-9.789,3.965-12.955,3.965-12.955l4.995,2.495a105.813,105.813,0,0,1-3.795,11.92A41.005,41.005,0,0,1,99.8,124.612" transform="translate(-39.403 -40.801)" fill="#fedc72"/>
        <path id="Trazado_205492" data-name="Trazado 205492" d="M92.532,121.055l-1.077-.538a54.849,54.849,0,0,0,7.933-11.729,60.363,60.363,0,0,0,4.052-12.266l1.077.538s-2.687,9.477-4.175,12.479c-1.538,3.1-7.81,11.516-7.81,11.516" transform="translate(-38.012 -40.118)" fill="#fedc72"/>
        <path id="Trazado_205493" data-name="Trazado 205493" d="M89.613,96.021c-.184.191-2.714,5.363-3.69,7.367-1.015,1.985-3.63,7.113-3.673,7.375-.053.324,1.881,6.694,1.881,6.694s3.252-1.983,7.77-11.564C96.094,97,96.094,93.5,96.094,93.5s-6.253,2.28-6.481,2.517" transform="translate(-34.185 -38.864)" fill="#eaf5f9"/>
        <path id="Trazado_205494" data-name="Trazado 205494" d="M88.446,98.381a11.725,11.725,0,0,0-2.162,3.141c-.6,1.128-1.17,2.269-1.736,3.413a22.767,22.767,0,0,0-2.5,6.925c-.049.363-.046.806.261,1.007.411.269.923-.14,1.225-.527a32.167,32.167,0,0,0,2.94-4.856l3.03-5.742a6.107,6.107,0,0,0,.719-1.81c.194-1.177-.556-2.706-1.778-1.551" transform="translate(-34.093 -40.72)" fill="#5038a1"/>
        <path id="Trazado_205495" data-name="Trazado 205495" d="M95.958,98.575a4.433,4.433,0,0,1-.475,3.6c-.583,1.105-1.389,2.083-1.935,3.206-.223.459-.33,1.142.129,1.365a.908.908,0,0,0,.924-.242,5.617,5.617,0,0,0,1.351-1.982c.6-1.246,1.143-2.515,1.689-3.784a10.787,10.787,0,0,0,.7-1.975,1.784,1.784,0,0,0-1.609-2.346c-1.364-.008-1.107,1.312-.777,2.157" transform="translate(-38.802 -40.075)" fill="#fff"/>
        <path id="Trazado_205496" data-name="Trazado 205496" d="M60.533,15.751a10.625,10.625,0,0,0-1.561,1.3.525.525,0,0,0-.182.351.5.5,0,0,0,.174.314,3.059,3.059,0,0,0,.756.565,20.062,20.062,0,0,1,3.2-3.141,35.648,35.648,0,0,1,3.725-2.464q3.008-1.794,6.095-3.453a2.762,2.762,0,0,1,1.934-.477,3.3,3.3,0,0,0-2.513-.1c-.925.555-1.916,1.012-2.861,1.535q-2.9,1.6-5.661,3.423-1.579,1.04-3.11,2.15" transform="translate(-24.436 -3.5)" fill="#d9e3e8"/>
        <g id="Grupo_156213" data-name="Grupo 156213" transform="translate(75.794 7.236)" opacity="0.49">
          <g id="Grupo_156212" data-name="Grupo 156212">
            <g id="Grupo_156211" data-name="Grupo 156211" clip-path="url(#clip-path-3)">
              <path id="Trazado_205497" data-name="Trazado 205497" d="M130.261,14.214a3.335,3.335,0,0,0,1.052.327,73.34,73.34,0,0,1,8.169,2.084,4.415,4.415,0,0,0,1.623.3,1.442,1.442,0,0,0,1.3-.878,1.454,1.454,0,0,0-.749-1.593,4.52,4.52,0,0,0-1.83-.462,47.09,47.09,0,0,1-6.042-1.087c-.98-.244-2.4-.746-3.408-.418a.913.913,0,0,0-.113,1.723" transform="translate(-129.704 -12.383)" fill="#fff"/>
            </g>
          </g>
        </g>
        <path id="Trazado_205498" data-name="Trazado 205498" d="M844.591,257.975a29.235,29.235,0,0,1-4.968-1.406c-5.188.791-17.717,2.413-17.717,2.413v2.906l.788.265,15.438-2.58,1.1,13.877a7.883,7.883,0,0,0,7.386,0,125.2,125.2,0,0,0-2.022-15.475" transform="translate(-341.614 -106.639)" fill="#bcbcbc"/>
        <path id="Trazado_205499" data-name="Trazado 205499" d="M844.591,257.593s-2.287-1.064-4.4-1.944c-5.189.791-18.289,2.95-18.289,2.95v2.906l17.058-2.906,1.22,13.71s2.209,2.78,6.43.759a125.2,125.2,0,0,0-2.022-15.475" transform="translate(-341.614 -106.257)" fill="#ffb27d"/>
        <path id="Trazado_205500" data-name="Trazado 205500" d="M840.2,255.649c-5.189.791-18.289,2.95-18.289,2.95v2.907l17.058-2.907,1.22,13.71a4.408,4.408,0,0,0,2.055,1.287Z" transform="translate(-341.614 -106.257)" fill="#ffb27d"/>
        <path id="Trazado_205501" data-name="Trazado 205501" d="M514.627,230.465l2.005-6.935,72.243-23.911h42.473Z" transform="translate(-213.898 -82.969)" fill="#cecece"/>
      </g>
    </g>
    <g id="Grupo_156217" data-name="Grupo 156217" transform="translate(585.729 1208.461)">
      <g id="Grupo_156216" data-name="Grupo 156216" clip-path="url(#clip-path-4)">
        <rect id="Rectángulo_47098" data-name="Rectángulo 47098" width="84.099" height="50.81" transform="translate(-7.963 2.215) rotate(-15.543)" fill="url(#linear-gradient)"/>
      </g>
    </g>
    <g id="Grupo_156219" data-name="Grupo 156219" transform="translate(285 1091.811)">
      <g id="Grupo_156218" data-name="Grupo 156218" clip-path="url(#clip-path-2)">
        <path id="Trazado_205503" data-name="Trazado 205503" d="M603.667,347.881l21.318-4.3-2.468-22.662-18.85-1.058s-4.869,23.969,0,28.022" transform="translate(-250.006 -132.945)" fill="#2b2b2b"/>
        <path id="Trazado_205504" data-name="Trazado 205504" d="M508.017,321.792l11.943-2.349-1.491-12.495-11.4-.583s-1.017,12.907.948,15.426" transform="translate(-210.647 -127.337)" fill="#2b2b2b"/>
        <path id="Trazado_205505" data-name="Trazado 205505" d="M631.872,331.891c5.192.065,9.723,7.465,10.117,16.526.361,8.2-2.787,14.948-7.233,16.113h0l0,0a5.53,5.53,0,0,1-1.444.177l-.122-.008-8.875.569-1.557-1.636c-3.674-2.369.745-8.408.437-15.454-.232-5.315-3.215-12.748-1.1-15.719l7.9-.261a5.447,5.447,0,0,1,1.879-.31" transform="translate(-258.229 -137.946)"/>
        <path id="Trazado_205506" data-name="Trazado 205506" d="M608.394,349.14c.4,9.063,4.926,16.463,10.117,16.528s9.08-7.229,8.682-16.292-4.925-16.461-10.117-16.526-9.078,7.229-8.682,16.29" transform="translate(-252.859 -138.345)" fill="#474747"/>
        <path id="Trazado_205507" data-name="Trazado 205507" d="M612.732,353.947c.235,5.367,2.918,9.751,5.994,9.789s5.376-4.282,5.141-9.65-2.918-9.75-5.991-9.789-5.378,4.281-5.144,9.65" transform="translate(-254.667 -143.103)" fill="#606060"/>
        <path id="Trazado_205508" data-name="Trazado 205508" d="M616.523,357.564c.113,2.588,1.406,4.7,2.889,4.72s2.593-2.065,2.481-4.653-1.409-4.7-2.891-4.719-2.592,2.064-2.478,4.652" transform="translate(-256.246 -146.683)" fill="#474747"/>
        <path id="Trazado_205509" data-name="Trazado 205509" d="M518.2,311.2c1.476.035,2.742,4.11,2.855,8.993.1,4.418-.447,7.8-1.712,8.432l-4.77.561-.442-.881c-1.045-1.277.211-4.532.124-8.328-.066-2.863-.915-6.869-.314-8.47l3.161-.2a3.412,3.412,0,0,1,1.1-.109" transform="translate(-213.518 -129.346)"/>
        <path id="Trazado_205510" data-name="Trazado 205510" d="M510.048,320.5c.113,4.883,1.4,8.871,2.877,8.906s2.581-3.894,2.468-8.778-1.4-8.871-2.876-8.906-2.581,3.9-2.469,8.778" transform="translate(-211.991 -129.562)" fill="#474747"/>
        <path id="Trazado_205511" data-name="Trazado 205511" d="M512.26,323.087c.067,2.893.83,5.255,1.7,5.274s1.529-2.306,1.462-5.2-.829-5.253-1.7-5.275-1.529,2.308-1.463,5.2" transform="translate(-212.912 -132.125)" fill="#606060"/>
        <path id="Trazado_205512" data-name="Trazado 205512" d="M513.337,325.036c.032,1.394.4,2.533.822,2.544s.737-1.113.705-2.508-.4-2.533-.822-2.543-.737,1.112-.7,2.506" transform="translate(-213.361 -134.055)" fill="#474747"/>
      </g>
    </g>
    <g id="Grupo_156221" data-name="Grupo 156221" transform="translate(570.917 1199.607)">
      <g id="Grupo_156220" data-name="Grupo 156220" clip-path="url(#clip-path-6)">
        <rect id="Rectángulo_47100" data-name="Rectángulo 47100" width="208.903" height="138.453" transform="translate(0 0)" fill="url(#linear-gradient-2)"/>
      </g>
    </g>
    <g id="Grupo_156223" data-name="Grupo 156223" transform="translate(285 1091.811)">
      <g id="Grupo_156222" data-name="Grupo 156222" clip-path="url(#clip-path-2)">
        <path id="Trazado_205514" data-name="Trazado 205514" d="M637.779,338.467a31.267,31.267,0,0,1,2.813,13.487,33.261,33.261,0,0,1-1.765,10.97c15.193,5.529,29.658,10.794,40.621,14.786l-2.206-31.37Z" transform="translate(-265.084 -140.679)" fill="#fedc72"/>
        <path id="Trazado_205515" data-name="Trazado 205515" d="M521.291,322.8a32.22,32.22,0,0,1-.412,5.233l49.041,17.844c-.119-1.188-.184-2.411-.184-3.662,0-6.758,1.809-12.737,4.587-16.407L520.312,315.03a28.432,28.432,0,0,1,.979,7.767" transform="translate(-216.261 -130.938)" fill="#fedc72"/>
        <path id="Trazado_205516" data-name="Trazado 205516" d="M489.279,315.4l3.643,4.582,7.81,2.842c-.063-.836-.1-1.7-.1-2.6a26.1,26.1,0,0,1,1.342-8.852l-12.7-2.534Z" transform="translate(-203.362 -128.364)" fill="#fedc72"/>
      </g>
    </g>
    <g id="Grupo_156225" data-name="Grupo 156225" transform="translate(733.293 1290.337)">
      <g id="Grupo_156224" data-name="Grupo 156224" clip-path="url(#clip-path-8)">
        <rect id="Rectángulo_47102" data-name="Rectángulo 47102" width="45.301" height="38.203" transform="translate(0 0)" fill="url(#linear-gradient-3)"/>
      </g>
    </g>
    <g id="Grupo_156227" data-name="Grupo 156227" transform="translate(285 1091.811)">
      <g id="Grupo_156226" data-name="Grupo 156226" clip-path="url(#clip-path-2)">
        <path id="Trazado_205518" data-name="Trazado 205518" d="M492.7,235.922,633.22,201.233v66.442L492.7,256.924Z" transform="translate(-204.783 -83.64)" fill="#5038a1"/>
        <path id="Trazado_205519" data-name="Trazado 205519" d="M497.651,259.217l-.881.218v21.772l.881.067Z" transform="translate(-206.476 -107.74)" fill="#8c6df2"/>
        <path id="Trazado_205520" data-name="Trazado 205520" d="M501.471,258.212l-1.234.305v22.427l1.234.094Z" transform="translate(-207.917 -107.322)" fill="#8c6df2"/>
        <path id="Trazado_205521" data-name="Trazado 205521" d="M511.4,255.607l-2.115.522v24.137l2.115.162Z" transform="translate(-211.677 -106.24)" fill="#8c6df2"/>
        <path id="Trazado_205522" data-name="Trazado 205522" d="M524.87,252.405l-1.41.348v26.815l1.41.108Z" transform="translate(-217.569 -104.909)" fill="#8c6df2"/>
        <path id="Trazado_205523" data-name="Trazado 205523" d="M533.443,249.948l-3.348.826v28.07l3.348.256Z" transform="translate(-220.327 -103.887)" fill="#8c6df2"/>
        <path id="Trazado_205524" data-name="Trazado 205524" d="M579.016,238.11l-6.7,1.654v36.048l6.7.512Z" transform="translate(-237.876 -98.967)" fill="#8c6df2"/>
        <path id="Trazado_205525" data-name="Trazado 205525" d="M607.033,231.782l-3.349.826v41.975l3.349.256Z" transform="translate(-250.913 -96.337)" fill="#8c6df2"/>
        <path id="Trazado_205526" data-name="Trazado 205526" d="M628.7,226.5l-3,.74v46.135l3,.229Z" transform="translate(-260.064 -94.14)" fill="#8c6df2"/>
        <path id="Trazado_205527" data-name="Trazado 205527" d="M645.822,221.185l-9.164,2.262v48.206l9.164.7Z" transform="translate(-264.618 -91.933)" fill="#8c6df2"/>
        <path id="Trazado_205528" data-name="Trazado 205528" d="M707.733,206.83v61.636l3.877.3v-62.89Z" transform="translate(-294.159 -85.568)" fill="#8c6df2"/>
        <path id="Trazado_205529" data-name="Trazado 205529" d="M686.924,210.915v57.7l9.869.755v-60.9Z" transform="translate(-285.511 -86.651)" fill="#8c6df2"/>
        <path id="Trazado_205530" data-name="Trazado 205530" d="M805.005,273.383a22.612,22.612,0,0,0-1.421-6.505V210.345c-2.314-2.2-7.635-6.3-19.035-11.612-17.388-8.107-30.43-6.933-34.9-5.875v82.715s7.99,4.23,10.81,5.287,15.274,2.7,29.491-1.409c9.225-2.669,13.352-3.953,15.05-6.067" transform="translate(-311.584 -79.846)" fill="#5038a1"/>
        <path id="Trazado_205531" data-name="Trazado 205531" d="M761.115,192.118v86.874c1.621.794,3.163,1.512,4.113,1.868a31.717,31.717,0,0,0,8.224,1.179v-88.68a55.018,55.018,0,0,0-12.337-1.241" transform="translate(-316.347 -79.847)" fill="#8c6df2"/>
        <path id="Trazado_205532" data-name="Trazado 205532" d="M786.651,195.282V283.41c1.041,0,2.149-.033,3.29-.09V196.2q-1.687-.515-3.29-.92" transform="translate(-326.961 -81.166)" fill="#8c6df2"/>
        <path id="Trazado_205533" data-name="Trazado 205533" d="M805.609,201.855c-1.813-.846-3.576-1.584-5.287-2.235v85.1c2.1-.248,4.308-.622,6.58-1.121V202.469c-.428-.2-.847-.407-1.293-.614" transform="translate(-332.643 -82.969)" fill="#8c6df2"/>
        <path id="Trazado_205534" data-name="Trazado 205534" d="M749.654,322.757v5.117s7.99,4.23,10.81,5.287,15.274,2.7,29.491-1.409c9.225-2.669,13.352-3.953,15.05-6.067a22.612,22.612,0,0,0-1.421-6.505v-.769c-14.2-2.013-46.1,3.038-53.93,4.346" transform="translate(-311.584 -132.149)" fill="#ffb27d"/>
        <path id="Trazado_205535" data-name="Trazado 205535" d="M767.63,210.833c11.368,2.7,30.625,9.951,35.954,15.306V210.345c-2.314-2.2-7.635-6.3-19.035-11.612-17.388-8.107-30.43-6.933-34.9-5.875v17.579a48.448,48.448,0,0,1,17.976.4" transform="translate(-311.584 -79.846)" fill="#ffb27d"/>
        <path id="Trazado_205536" data-name="Trazado 205536" d="M784.735,374.977c-8.342,3.642-28.432,11.867-34.778,11.162S729.4,382.5,729.4,382.5l-2.759,11.791c5.02,1.829,8.317,3.032,9.221,3.365,8.46,2.117,49.347-13.394,53.811-19.5,3.136-4.291,4.53-5.921,5.083-8.787-1.934,1.641-5.088,3.463-10.016,5.614" transform="translate(-302.016 -153.521)" fill="#fedc72"/>
        <path id="Trazado_205537" data-name="Trazado 205537" d="M791.411,374.977c-8.342,3.642-28.432,11.867-34.778,11.162-.1-.011-.206-.025-.31-.036A36.208,36.208,0,0,1,742.7,397.688c8.8,1.886,49.21-13.465,53.646-19.538,3.136-4.291,4.53-5.921,5.083-8.787-1.934,1.641-5.088,3.463-10.016,5.614" transform="translate(-308.692 -153.521)" fill="#fedc72"/>
        <path id="Trazado_205538" data-name="Trazado 205538" d="M741.009,372.232v10.221a94.728,94.728,0,0,0,13.864,2.5c5.992.44,15.273-2.145,18.212-8.019-6.58-2.938-23.616-6.344-32.076-4.7" transform="translate(-307.99 -154.534)" fill="#a8a8a8"/>
        <path id="Trazado_205539" data-name="Trazado 205539" d="M756.284,383.25a94.693,94.693,0,0,1-13.865-2.5v-8.587c-.49.06-.964.129-1.409.216V382.6a94.777,94.777,0,0,0,13.863,2.5c5.788.425,14.621-1.98,17.868-7.435-3.934,4.145-11.373,5.958-16.457,5.584" transform="translate(-307.991 -154.686)" fill="#999"/>
        <path id="Trazado_205540" data-name="Trazado 205540" d="M837.116,362.414a5.723,5.723,0,0,0,3.805-.639c.048-.746.072-1.571.072-2.532s.04-2.028.1-3.146a12.241,12.241,0,0,0-3.973,6.317" transform="translate(-347.936 -148.007)" fill="#999"/>
        <path id="Trazado_205541" data-name="Trazado 205541" d="M837.116,362.414a5.64,5.64,0,0,0,3.805-1.385c.048-.746.072-.826.072-1.786s.04-2.028.1-3.146a12.241,12.241,0,0,0-3.973,6.317" transform="translate(-347.936 -148.007)" fill="#a8a8a8"/>
        <path id="Trazado_205542" data-name="Trazado 205542" d="M633.18,249.747,492.7,265.319v.73l140.67-14.626Z" transform="translate(-204.783 -103.804)" fill="#282828"/>
        <path id="Trazado_205543" data-name="Trazado 205543" d="M665.171,322.778c16.44,5.984,30.719,11.183,38.677,14.084V228.778l-38.677,6.872Z" transform="translate(-276.469 -95.089)" fill="#2b2b2b"/>
        <path id="Trazado_205544" data-name="Trazado 205544" d="M703.848,260.874,665.171,265.1v22.7l38.677,2.569Z" transform="translate(-276.469 -108.429)" fill="#3f3f3f"/>
        <path id="Trazado_205545" data-name="Trazado 205545" d="M665.171,329.414v35.191c16.44,5.985,30.719,11.183,38.677,14.084V333.721Z" transform="translate(-276.469 -136.916)" fill="#474747"/>
        <path id="Trazado_205546" data-name="Trazado 205546" d="M701.85,304.718c.3,1.479,1.532,12.492.053,12.492l-16.231,1.346c-1.479,0-2.862-12.359-3.159-13.838l-5.755-28.7a2.128,2.128,0,0,1,2.141-2.677H692.88a3.438,3.438,0,0,1,3.214,2.677Z" transform="translate(-281.263 -113.612)" fill="#191919"/>
        <path id="Trazado_205547" data-name="Trazado 205547" d="M711.525,328.012a3.274,3.274,0,0,1-3.275,3.274H689.459a3.274,3.274,0,0,1,0-6.548h18.792a3.274,3.274,0,0,1,3.275,3.275" transform="translate(-285.204 -134.973)" fill="#232323"/>
        <path id="Trazado_205548" data-name="Trazado 205548" d="M727.628,273.346h-2.2a2.128,2.128,0,0,0-2.141,2.677l4.342,21.649Z" transform="translate(-300.601 -113.613)" fill="#191919"/>
        <path id="Trazado_205549" data-name="Trazado 205549" d="M681.4,327.034h-.031c-.787,0-1.262,0-1.92-10.214-.31-4.81-.507-9.82-.507-10.313V289.45a2.429,2.429,0,0,1,2.426-2.427l.071,0,20.045,2.028a2.431,2.431,0,0,1,2.389,2.426v31.415a2.431,2.431,0,0,1-2.427,2.427Zm-.062-38.6a1.018,1.018,0,0,0-.984,1.017v17.058c0,1.732.714,16.553,1.4,19.082l19.631-1.676a1.037,1.037,0,0,0,1.077-1.019V291.48a1.018,1.018,0,0,0-1.017-1.016l-.072,0Z" transform="translate(-282.194 -119.297)" fill="#6b6b6b"/>
        <path id="Trazado_205550" data-name="Trazado 205550" d="M665.245,350.713l.2,13.368s30.473,8.891,38.432,11.792V358.825Z" transform="translate(-276.5 -145.769)" fill="#6b6b6b"/>
        <path id="Trazado_205551" data-name="Trazado 205551" d="M665.171,327.665l19.339-3.823V241.656l-19.339-1.118Z" transform="translate(-276.469 -99.976)" fill="#232323"/>
        <path id="Trazado_205552" data-name="Trazado 205552" d="M665.591,327.339l17.782-3.725V243.561l-17.782-1.089Z" transform="translate(-276.644 -100.78)" fill="#3f3f3f"/>
        <path id="Trazado_205553" data-name="Trazado 205553" d="M676.88,243.163l-5.641-.345V326.79l5.641-1.181Z" transform="translate(-278.991 -100.924)" fill="#606060"/>
        <path id="Trazado_205554" data-name="Trazado 205554" d="M683.3,243.556v82.065l1.587-.332V243.654Z" transform="translate(-284.005 -101.231)" fill="#606060"/>
        <path id="Trazado_205555" data-name="Trazado 205555" d="M663.361,321.5l2.115.77V235.639l36.563-6.5V335.578l2.115.772V226.619l-40.793,7.247Z" transform="translate(-275.717 -94.191)" fill="#282828"/>
        <path id="Trazado_205556" data-name="Trazado 205556" d="M541.636,307.646c9.063,3.3,16.934,6.164,21.32,7.763V255.83l-21.32,3.788Z" transform="translate(-225.124 -106.332)" fill="#474747"/>
        <path id="Trazado_205557" data-name="Trazado 205557" d="M541.636,307.646c9.063,3.3,16.934,6.164,21.32,7.763V255.83l-21.32,3.788Z" transform="translate(-225.124 -106.332)" fill="#474747"/>
        <path id="Trazado_205558" data-name="Trazado 205558" d="M562.927,276.006l-21.112,2.308V290.7l21.112,1.4Z" transform="translate(-225.198 -114.718)" fill="#3f3f3f"/>
        <path id="Trazado_205559" data-name="Trazado 205559" d="M561.835,299.939c.162.807.836,6.818.03,6.818l-8.86.735c-.807,0-1.562-6.746-1.724-7.553l-3.141-15.663a1.161,1.161,0,0,1,1.169-1.462h7.631a1.874,1.874,0,0,1,1.754,1.462Z" transform="translate(-227.814 -117.548)" fill="#191919"/>
        <path id="Trazado_205560" data-name="Trazado 205560" d="M567.116,312.653a1.787,1.787,0,0,1-1.787,1.787H555.072a1.787,1.787,0,1,1,0-3.574h10.257a1.786,1.786,0,0,1,1.787,1.787" transform="translate(-229.965 -129.207)" fill="#232323"/>
        <path id="Trazado_205561" data-name="Trazado 205561" d="M575.905,282.814h-1.2a1.162,1.162,0,0,0-1.168,1.461l2.37,11.817Z" transform="translate(-238.37 -117.548)" fill="#191919"/>
        <path id="Trazado_205562" data-name="Trazado 205562" d="M550.674,312.118h-.016c-.429,0-.689,0-1.049-5.575-.169-2.626-.276-5.36-.276-5.629V291.6a1.326,1.326,0,0,1,1.325-1.325l.038,0,10.941,1.107a1.327,1.327,0,0,1,1.3,1.324v17.148a1.326,1.326,0,0,1-1.324,1.324Zm-.033-21.07a.556.556,0,0,0-.538.555v9.311c0,.945.39,9.035.766,10.416l10.715-.915a.566.566,0,0,0,.588-.556V292.712a.555.555,0,0,0-.555-.554l-.039,0Z" transform="translate(-228.323 -120.651)" fill="#6b6b6b"/>
        <path id="Trazado_205563" data-name="Trazado 205563" d="M541.636,324.771v6.621s16.934,4.9,21.32,6.5v-8.647Z" transform="translate(-225.124 -134.987)" fill="#6b6b6b"/>
        <path id="Trazado_205564" data-name="Trazado 205564" d="M541.636,310.34l10.66-2.108v-45.3l-10.66-.616Z" transform="translate(-225.124 -109.026)" fill="#282828"/>
        <path id="Trazado_205565" data-name="Trazado 205565" d="M541.867,310.159l9.8-2.053V263.978l-9.8-.6Z" transform="translate(-225.22 -109.47)" fill="#3f3f3f"/>
        <path id="Trazado_205566" data-name="Trazado 205566" d="M544.773,263.557v46.321l2.937-.615V263.737Z" transform="translate(-226.427 -109.544)" fill="#606060"/>
        <path id="Trazado_205567" data-name="Trazado 205567" d="M551.207,263.95v45.3l1.174-.247V264.022Z" transform="translate(-229.102 -109.707)" fill="#606060"/>
        <path id="Trazado_205568" data-name="Trazado 205568" d="M540.639,306.939q.586.213,1.166.425V259.612l20.154-3.582V314.7c.417.152.806.293,1.166.425V254.64l-22.486,3.995Z" transform="translate(-224.709 -105.838)" fill="#282828"/>
        <path id="Trazado_205569" data-name="Trazado 205569" d="M496.089,303.11c4.8,1.748,4.579,1.689,6.9,2.537V268.064l-6.9,1.506Z" transform="translate(-206.193 -111.417)" fill="#474747"/>
        <path id="Trazado_205570" data-name="Trazado 205570" d="M502.994,268.063l-6.9,1.506v26.209l6.9-.776Z" transform="translate(-206.193 -111.417)" fill="#191919"/>
        <path id="Trazado_205571" data-name="Trazado 205571" d="M496.089,314.94v7.331c4.8,1.748,4.579,1.689,6.9,2.537V314.163Z" transform="translate(-206.193 -130.578)" fill="#474747"/>
        <path id="Trazado_205572" data-name="Trazado 205572" d="M496.089,315.2v4.095c.584.213,3.022.977,6.853,2.154v-4.81Z" transform="translate(-206.193 -131.007)" fill="#6b6b6b"/>
        <path id="Trazado_205573" data-name="Trazado 205573" d="M496.089,304.181l5.392-1.431v-32.1l-5.392-.013Z" transform="translate(-206.193 -112.488)" fill="#282828"/>
        <path id="Trazado_205574" data-name="Trazado 205574" d="M496.212,304.086l4.937-1.4V271.211l-4.937,0Z" transform="translate(-206.244 -112.723)" fill="#3f3f3f"/>
        <path id="Trazado_205575" data-name="Trazado 205575" d="M497.523,303.869l1.322-.375V271.209h-1.322Z" transform="translate(-206.789 -112.724)" fill="#606060"/>
        <path id="Trazado_205576" data-name="Trazado 205576" d="M500.339,271.211V303.4l.47-.133V271.211Z" transform="translate(-207.959 -112.725)" fill="#606060"/>
        <path id="Trazado_205577" data-name="Trazado 205577" d="M495.56,302.735l.618.224V269.566l6.287-1.149v36.855l.618.224V267.432l-7.523,1.616Z" transform="translate(-205.973 -111.154)" fill="#282828"/>
      </g>
    </g>
    <g id="Grupo_156229" data-name="Grupo 156229" transform="translate(725.318 1310.83)">
      <g id="Grupo_156228" data-name="Grupo 156228" clip-path="url(#clip-path-10)">
        <rect id="Rectángulo_47104" data-name="Rectángulo 47104" width="7.006" height="8.546" transform="translate(0 0)" fill="url(#linear-gradient-4)"/>
      </g>
    </g>
    <g id="Grupo_156231" data-name="Grupo 156231" transform="translate(285 1091.811)">
      <g id="Grupo_156230" data-name="Grupo 156230" clip-path="url(#clip-path-2)">
        <path id="Trazado_205579" data-name="Trazado 205579" d="M759.227,374.8a3.048,3.048,0,0,0-.374.025c1.757.228,3.129,2.044,3.129,4.25s-1.371,4.02-3.129,4.248a2.835,2.835,0,0,0,.374.025c1.935,0,3.5-1.914,3.5-4.273s-1.568-4.274-3.5-4.274" transform="translate(-315.407 -155.78)" fill="#d1d1d1"/>
      </g>
    </g>
    <g id="Grupo_156233" data-name="Grupo 156233" transform="translate(733.646 1311.225)">
      <g id="Grupo_156232" data-name="Grupo 156232" clip-path="url(#clip-path-12)">
        <rect id="Rectángulo_47106" data-name="Rectángulo 47106" width="7.004" height="8.548" transform="translate(0)" fill="url(#linear-gradient-5)"/>
      </g>
    </g>
    <g id="Grupo_156235" data-name="Grupo 156235" transform="translate(285 1091.811)">
      <g id="Grupo_156234" data-name="Grupo 156234" clip-path="url(#clip-path-13)">
        <path id="Trazado_205581" data-name="Trazado 205581" d="M773.462,375.476a2.877,2.877,0,0,0-.4.03c1.746.241,3.107,2.048,3.107,4.245s-1.36,4-3.107,4.244a2.96,2.96,0,0,0,.4.029c1.935,0,3.5-1.913,3.5-4.273s-1.567-4.275-3.5-4.275" transform="translate(-321.314 -156.062)" fill="#d1d1d1"/>
        <path id="Rectángulo_47107" data-name="Rectángulo 47107" d="M.912,0H2.286A.913.913,0,0,1,3.2.913V7.065a.913.913,0,0,1-.913.913H.912A.912.912,0,0,1,0,7.066V.912A.912.912,0,0,1,.912,0Z" transform="translate(435.535 218.094)" fill="#ffb27d"/>
        <path id="Trazado_205582" data-name="Trazado 205582" d="M766.9,235.481a39.119,39.119,0,0,1-6.64-1.88c-6.933,1.058-23.674,3.224-23.674,3.224v3.884l1.049.354,20.633-3.448,1.464,18.545a10.532,10.532,0,0,0,9.869,0,167.158,167.158,0,0,0-2.7-20.679" transform="translate(-306.152 -97.093)" fill="#bcbcbc"/>
        <path id="Trazado_205583" data-name="Trazado 205583" d="M766.9,234.971s-3.056-1.422-5.876-2.6c-6.934,1.058-24.438,3.942-24.438,3.942V240.2l22.793-3.884,1.63,18.32s2.952,3.715,8.591,1.014a167.158,167.158,0,0,0-2.7-20.679" transform="translate(-306.152 -96.583)" fill="#ffb27d"/>
        <path id="Trazado_205584" data-name="Trazado 205584" d="M761.025,232.372c-6.933,1.058-24.438,3.942-24.438,3.942V240.2l22.793-3.884,1.631,18.321a5.9,5.9,0,0,0,2.744,1.721Z" transform="translate(-306.152 -96.582)" fill="#ffb27d"/>
        <path id="Trazado_205585" data-name="Trazado 205585" d="M821.275,351.064c.081-.632-.25-1.058-.742-.894a197.923,197.923,0,0,1-20.627,6.534,1.773,1.773,0,0,0-1.04,1.438c-.084.653.247,1.068.739.927,6.971-1.89,13.87-4.053,20.627-6.61a1.767,1.767,0,0,0,1.043-1.395" transform="translate(-332.033 -145.529)" fill="#999"/>
        <path id="Trazado_205586" data-name="Trazado 205586" d="M820.3,357.172c.081-.583-.251-.938-.74-.758-6.326,2.316-12.7,4.531-19.217,6.249A1.778,1.778,0,0,0,799.3,364.1c-.082.652.248,1.066.742.925,6.585-1.632,12.854-4.193,19.225-6.484a1.861,1.861,0,0,0,1.033-1.371" transform="translate(-332.212 -148.119)" fill="#999"/>
        <path id="Trazado_205587" data-name="Trazado 205587" d="M819.36,362.987c.078-.573-.25-.884-.734-.68a134.656,134.656,0,0,1-17.995,6.191,1.775,1.775,0,0,0-1.04,1.439c-.083.654.247,1.068.739.926a113.24,113.24,0,0,0,18.016-6.46,2,2,0,0,0,1.013-1.416" transform="translate(-332.334 -150.562)" fill="#999"/>
        <path id="Trazado_205588" data-name="Trazado 205588" d="M818.443,368.884c.075-.591-.251-.882-.726-.66a95.217,95.217,0,0,1-16.77,6.115,1.781,1.781,0,0,0-1.039,1.44c-.083.653.25,1.066.74.926a85.3,85.3,0,0,0,16.8-6.315,2.158,2.158,0,0,0,1-1.506" transform="translate(-332.465 -153.016)" fill="#999"/>
        <path id="Trazado_205589" data-name="Trazado 205589" d="M18.279,365.126s102.549,21.351,152.22-7.817a21.223,21.223,0,0,0-11.515-1.683c-35.557,4.768-85.658,3.846-90.86-1.033,0,0-2.97-3.233-1.814-5.155s-44.95,14.151-48.031,15.689" transform="translate(-7.597 -180.173)" fill="#f1ece6"/>
        <path id="Trazado_205590" data-name="Trazado 205590" d="M18.279,363.2l41.967,31.957s154.783,6.162,197.52-38.117c0,0,2.312-13.475-2.308-12.32s-73.156,17.71-73.156,17.71l-20.213-6.918s-59.511,8.925-143.811,7.688" transform="translate(-7.597 -178.251)" fill="#d9cebc"/>
        <path id="Trazado_205591" data-name="Trazado 205591" d="M260.091,351.044l22.717,8.085L344.7,344.5l-9.24-7.8Z" transform="translate(-108.103 -174.945)" fill="#5038a1"/>
        <path id="Trazado_205592" data-name="Trazado 205592" d="M318.172,299.494l1.866,5.737,40.045-5.777-5.343-7.2Z" transform="translate(-132.244 -156.47)" fill="#5038a1"/>
        <path id="Trazado_205593" data-name="Trazado 205593" d="M276.343,298.058l-9.994-5.392-40.044,5.777-1.763-5.789c19.109-3.31,41.615-8.074,41.615-8.074s-1.925-5.1-4.622-5.486l-12.7,1.155-10.4-4.333s-24.834,6.354-33.691,4.815a139.627,139.627,0,0,0-20.02-1.54s-31.383,7.606-34.078,11.453,37.059,6.449,54,4.912c3.554-.324,8.329-1,13.651-1.852l1.077,6.472s-77.082,12.663-90.257,4.275c0,0-29.835,8.785-35.258,12.782,0,0-2.713,4.789,0,6.789s32.817,10.23,94.905,1.854,90.384-18.482,90.384-18.482Z" transform="translate(-38.511 -149.681)" fill="#d9cebc"/>
        <path id="Trazado_205594" data-name="Trazado 205594" d="M177.818,301.284s-18.867,9.629-21.177,13.477c0,0,11.937,11.935,74.312-1.54l15.252-2.641-1.3-6.3c-11.932,1.54-62.471,1.235-67.091-3" transform="translate(-65.106 -160.225)" fill="#5038a1"/>
        <path id="Trazado_205595" data-name="Trazado 205595" d="M250.209,275.7l1.15-5.585s18.485.577,22.332-.192,21.565-2.4,21.565-2.4l9.242,5.2s-22.332,4.909-30.807,4.909-23.482-1.925-23.482-1.925" transform="translate(-103.996 -146.191)" fill="#5038a1"/>
        <path id="Trazado_205596" data-name="Trazado 205596" d="M275.777,264.55l-23.1,4.331,23.1.868,20.792-3.465Z" transform="translate(-105.021 -144.957)" fill="#f1ece6"/>
        <path id="Trazado_205597" data-name="Trazado 205597" d="M398.9,338.29l-7.219-14.437-9.529,3.176,9.672,13.283Z" transform="translate(-158.836 -169.605)" fill="#d9cebc"/>
        <path id="Trazado_205598" data-name="Trazado 205598" d="M282.276,365.857S205.753,403.4,77.248,397.91l8.372,6.064s148.142,6.932,196.656-38.117" transform="translate(-32.107 -187.063)" fill="#fedc72"/>
        <path id="Trazado_205599" data-name="Trazado 205599" d="M19.922,371.123s102-.472,142.719-7.881l10.092,3.1s-114.406,13.44-148.48,8.533Z" transform="translate(-8.28 -185.977)" fill="#ffb27d"/>
        <path id="Trazado_205600" data-name="Trazado 205600" d="M369.564,344.088c-1.733.385-57.66,14.728-78.837,18.672,0,0,6.353,2.409,6.066,2.409,5.775-.385,66.323-14.728,74.7-17.9,0,0-.021-3.6-1.925-3.178" transform="translate(-120.837 -178.001)" fill="#ffb27d"/>
        <path id="Trazado_205601" data-name="Trazado 205601" d="M57.479,388.8a619.18,619.18,0,0,0,67.282-3.174l4.622,3.462s-52.845,4.043-60.066,2.6Z" transform="translate(-23.89 -195.28)" fill="#fedc72"/>
        <path id="Trazado_205602" data-name="Trazado 205602" d="M206.146,387.117a1.442,1.442,0,1,1-2.885,0v-5.484a1.442,1.442,0,1,1,2.885,0Z" transform="translate(-84.483 -193.02)" fill="#5038a1"/>
        <path id="Trazado_205603" data-name="Trazado 205603" d="M219,385.634a1.444,1.444,0,1,1-2.887,0v-5.486a1.444,1.444,0,1,1,2.887,0Z" transform="translate(-89.822 -192.403)" fill="#5038a1"/>
        <path id="Trazado_205604" data-name="Trazado 205604" d="M227.892,384.893a1.444,1.444,0,1,1-2.887,0v-5.486a1.444,1.444,0,1,1,2.887,0Z" transform="translate(-93.52 -192.094)" fill="#5038a1"/>
        <path id="Trazado_205605" data-name="Trazado 205605" d="M236.786,383.413a1.444,1.444,0,1,1-2.887,0v-5.487a1.444,1.444,0,0,1,2.887,0Z" transform="translate(-97.217 -191.48)" fill="#5038a1"/>
        <path id="Trazado_205606" data-name="Trazado 205606" d="M261,380.448a1.444,1.444,0,1,1-2.887,0v-5.487a1.444,1.444,0,0,1,2.887,0Z" transform="translate(-107.282 -190.248)" fill="#5038a1"/>
        <path id="Trazado_205607" data-name="Trazado 205607" d="M307.233,388.658a1.444,1.444,0,1,1-.692-2.8l5.329-1.312a1.442,1.442,0,1,1,.69,2.8Z" transform="translate(-126.953 -194.812)" fill="#5038a1"/>
        <path id="Trazado_205608" data-name="Trazado 205608" d="M327.987,384.212a1.443,1.443,0,1,1-.69-2.8l5.326-1.312a1.443,1.443,0,0,1,.693,2.8Z" transform="translate(-135.579 -192.965)" fill="#5038a1"/>
        <path id="Trazado_205609" data-name="Trazado 205609" d="M363.878,375.439a1.289,1.289,0,1,1-.62-2.5l4.758-1.174a1.289,1.289,0,0,1,.618,2.5Z" transform="translate(-150.576 -189.502)" fill="#5038a1"/>
        <path id="Trazado_205610" data-name="Trazado 205610" d="M379.941,371.3a1.288,1.288,0,1,1-.62-2.5l4.761-1.174a1.289,1.289,0,0,1,.618,2.5Z" transform="translate(-157.253 -187.782)" fill="#5038a1"/>
        <path id="Trazado_205611" data-name="Trazado 205611" d="M408.091,363.525a1.152,1.152,0,0,1-.706-2.193l4.169-1.341a1.152,1.152,0,0,1,.7,2.193Z" transform="translate(-168.992 -184.602)" fill="#5038a1"/>
        <path id="Trazado_205612" data-name="Trazado 205612" d="M122.882,412.21a2.358,2.358,0,1,1-2.31-1.878,2.125,2.125,0,0,1,2.31,1.878" transform="translate(-49.155 -205.549)" fill="#5038a1"/>
        <path id="Trazado_205613" data-name="Trazado 205613" d="M156.487,410.974a2.362,2.362,0,1,1-2.312-1.875,2.129,2.129,0,0,1,2.312,1.875" transform="translate(-63.121 -205.036)" fill="#5038a1"/>
        <path id="Trazado_205614" data-name="Trazado 205614" d="M234.068,405.537a2.36,2.36,0,1,1-2.311-1.878,2.128,2.128,0,0,1,2.311,1.878" transform="translate(-95.367 -202.775)" fill="#5038a1"/>
        <path id="Trazado_205615" data-name="Trazado 205615" d="M250.379,404.057a2.362,2.362,0,1,1-2.312-1.876,2.13,2.13,0,0,1,2.312,1.876" transform="translate(-102.146 -202.161)" fill="#5038a1"/>
        <path id="Trazado_205616" data-name="Trazado 205616" d="M265.2,402.572a2.36,2.36,0,1,1-2.31-1.878,2.126,2.126,0,0,1,2.31,1.878" transform="translate(-108.309 -201.543)" fill="#5038a1"/>
        <path id="Trazado_205617" data-name="Trazado 205617" d="M323.343,345.271l7.892,11.74,4.432-.96-6.932-11.935Z" transform="translate(-134.393 -178.027)" fill="#d9cebc"/>
        <path id="Trazado_205618" data-name="Trazado 205618" d="M262.158,363.093l-4.052.774,20.027,7.193,5.388-1.155Z" transform="translate(-107.278 -185.915)" fill="#ffb27d"/>
        <path id="Trazado_205619" data-name="Trazado 205619" d="M295.013,272.54l.962,6.739,5.052-.385-3.7-6.932Z" transform="translate(-122.618 -148.037)" fill="#d9cebc"/>
        <path id="Trazado_205620" data-name="Trazado 205620" d="M235.433,281.519s-18.244,4.763-19.206,4.958c0,0-8.134,5.054,12.657,5.054,25.9,1.01,70.078-8.664,70.656-8.808-24.114,2.885-31.542.512-36.962.528-17.327.047-27.144-1.733-27.144-1.733" transform="translate(-89.22 -152.01)" fill="#f1ece6"/>
        <path id="Trazado_205621" data-name="Trazado 205621" d="M143.361,319.966l-17.517,5.39s-11.937,11.362,41,9.049,122.81-20.6,122.81-20.6S180.133,325.741,170.7,324.971s-20.79-.77-27.337-5.005" transform="translate(-51.826 -165.429)" fill="#f1ece6"/>
        <path id="Trazado_205622" data-name="Trazado 205622" d="M291.287,319.406s-98.472,23.68-160.176,21.658c0,0,48.709,10.01,161.042-18.867Z" transform="translate(-54.495 -167.757)" fill="#fedc72"/>
        <path id="Trazado_205623" data-name="Trazado 205623" d="M389.178,395.659c-.162-2.411-33.807-5.564-73.748,13.668s-74.755-1.211-74.919-3.62c.117,1.779,33.546,1.664,73.75-13.667s74.8,1.842,74.917,3.619" transform="translate(-99.965 -195.32)" fill="#8c6df2"/>
        <path id="Trazado_205624" data-name="Trazado 205624" d="M231.114,444.9c.369-2.958-39.352-14.623-91.874-.648S49.632,425.35,50,422.4c-.27,2.18,39.945,9.838,91.873.647s89.51,19.673,89.24,21.853" transform="translate(-20.781 -210.083)" fill="#8c6df2"/>
        <path id="Trazado_205625" data-name="Trazado 205625" d="M244.764,441.638c0,.411-3.063-2.922-8.017-2.392-4.948.105-11.8,4.08-19.351,9.2s-14.4,5.688-19.354,2.39c-4.951-2.872-8.015-9.611-8.015-9.2,0-.345,3.064,1.8,8.015,1,4.953-.476,11.794-3.9,19.354-7.808s14.4-3.93,19.351-1c4.954,2.6,8.017,8.151,8.017,7.808" transform="translate(-78.983 -214.452)" fill="#5038a1"/>
        <path id="Trazado_205626" data-name="Trazado 205626" d="M410.627,405.335c0,.3-2.231-2.125-5.829-1.737-3.6.078-8.571,2.965-14.066,6.686s-10.468,4.137-14.064,1.74c-3.6-2.089-5.828-6.986-5.828-6.688,0-.251,2.23,1.313,5.828.727,3.6-.347,8.571-2.838,14.064-5.674s10.468-2.857,14.066-.727c3.6,1.889,5.829,5.923,5.829,5.674" transform="translate(-154.134 -200.486)" fill="#5038a1"/>
      </g>
    </g>
  </g>
</svg>
