<svg xmlns="http://www.w3.org/2000/svg" xmlns:xlink="http://www.w3.org/1999/xlink" width="295" height="327.5" viewBox="0 0 295 327.5">
  <defs>
    <clipPath id="clip-path">
      <path id="Trazado_188103" data-name="Trazado 188103" d="M253.274,48.865a117.041,117.041,0,0,1,13.758,21.558c28.85,55.587,16.821,117.492,12.813,136.622-6.475,30.863-11.242,56.94-29.914,78.817-42.421,49.709-125.695,44.193-175.5,3.223-5.9-4.857-54.093-45.708-58.18-108.336-.1-1.532-.143-2.674-.188-3.673-.424-9.681-2.242-69.643,35.408-117.111a137.608,137.608,0,0,1,29.453-27.6C133.613-3.871,212.4-1.131,253.274,48.865Z" transform="translate(-15.919 -7.874)" fill="none"/>
    </clipPath>
    <clipPath id="clip-path-2">
      <rect id="Rectángulo_47154" data-name="Rectángulo 47154" width="234.817" height="189.572" fill="none"/>
    </clipPath>
    <clipPath id="clip-path-4">
      <rect id="Rectángulo_47152" data-name="Rectángulo 47152" width="123.398" height="94.164" fill="none"/>
    </clipPath>
  </defs>
  <g id="Grupo_161178" data-name="Grupo 161178" transform="translate(-1020.655 -8247.5)">
    <g id="Grupo_155477" data-name="Grupo 155477" transform="translate(1020.655 8247.5)">
      <path id="Trazado_188103-2" data-name="Trazado 188103" d="M253.274,48.865a117.041,117.041,0,0,1,13.758,21.558c28.85,55.587,16.821,117.492,12.813,136.622-6.475,30.863-11.242,56.94-29.914,78.817-42.421,49.709-125.695,44.193-175.5,3.223-5.9-4.857-54.093-45.708-58.18-108.336-.1-1.532-.143-2.674-.188-3.673-.424-9.681-2.242-69.643,35.408-117.111a137.608,137.608,0,0,1,29.453-27.6C133.613-3.871,212.4-1.131,253.274,48.865Z" transform="translate(0 -0.997)" fill="#e5e1f1"/>
      <g id="Grupo_132813" data-name="Grupo 132813" transform="translate(144.9 10.605)">
        <ellipse id="Elipse_5243" data-name="Elipse 5243" cx="71.169" cy="62.155" rx="71.169" ry="62.155" fill="#fdb74d" opacity="0.8" style="isolation: isolate"/>
        <ellipse id="Elipse_5247" data-name="Elipse 5247" cx="27.282" cy="23.826" rx="27.282" ry="23.826" transform="translate(82.336 135.385)" fill="#8c6df2" opacity="0.7" style="isolation: isolate"/>
        <g id="Elipse_5249" data-name="Elipse 5249" transform="translate(92.916 144.768)">
          <ellipse id="Elipse_5354" data-name="Elipse 5354" cx="10.28" cy="8.978" rx="10.28" ry="8.978" fill="none"/>
          <ellipse id="Elipse_5355" data-name="Elipse 5355" cx="9.094" cy="7.942" rx="9.094" ry="7.942" transform="translate(1.186 1.036)" fill="none" stroke="#fff" stroke-width="2.372"/>
        </g>
        <g id="Elipse_5250" data-name="Elipse 5250" transform="translate(24.514 75.276)">
          <ellipse id="Elipse_5356" data-name="Elipse 5356" cx="5.535" cy="4.834" rx="5.535" ry="4.834" fill="none"/>
          <ellipse id="Elipse_5357" data-name="Elipse 5357" cx="4.349" cy="3.798" rx="4.349" ry="3.798" transform="translate(1.186 1.036)" fill="none" stroke="#8c6df2" stroke-width="2.372"/>
        </g>
        <ellipse id="Elipse_5251" data-name="Elipse 5251" cx="3.558" cy="3.108" rx="3.558" ry="3.108" transform="translate(65.634 58.702)" fill="#8c6df2"/>
      </g>
      <path id="Trazado_139920" data-name="Trazado 139920" d="M17.028,11.23c-.164-.079-.332-.152-.5-.216-2.425-.893-4.72.3-5.121,2.654a5.632,5.632,0,0,0,3.668,5.888A128.641,128.641,0,0,1,39.5,31.846a141.219,141.219,0,0,1,21.978,17.3l1.27,1.213,1.23,1.247c.826.828,1.624,1.678,2.418,2.53q2.4,2.548,4.612,5.224c.75.884,1.451,1.8,2.176,2.7s1.394,1.831,2.091,2.741c.659.937,1.343,1.851,1.973,2.8s1.278,1.883,1.867,2.844,1.2,1.906,1.756,2.877c.28.484.569.962.835,1.448l.79,1.46c.546.966,1,1.957,1.5,2.929.462.982.922,1.962,1.349,2.945.406.987.843,1.964,1.194,2.95.179.493.375.981.547,1.472L87.577,88c.08.246.168.486.24.735l.213.756.423,1.506c.239,1.012.5,2.014.71,3.024a87.292,87.292,0,0,1,1.479,24.257c-.533,8.107-1.836,16.22-3.2,24.642-.679,4.215-1.4,8.5-2.036,12.931-.329,2.208-.607,4.469-.875,6.753-.12,1.156-.254,2.3-.357,3.477l-.3,3.425c-.753,8.771-1.4,17.854-1.449,27.384a168.971,168.971,0,0,0,2.383,30.2,121.917,121.917,0,0,0,4.086,16.486,109.01,109.01,0,0,0,7.232,17.18c1.517,2.876,3.2,5.74,5.044,8.553.919,1.41,1.889,2.8,2.886,4.184.5.688.987,1.355,1.531,2.054s1.086,1.4,1.648,2.084a101.523,101.523,0,0,0,15.007,14.949c1.373,1.106,2.762,2.183,4.185,3.21.748.549,1.329.947,1.964,1.4l1.885,1.328c1.262.882,2.562,1.73,3.87,2.569s2.652,1.637,3.987,2.453a121.374,121.374,0,0,0,17.008,8.359,107.636,107.636,0,0,0,18.146,5.457,102.416,102.416,0,0,0,51.926-2.693,121.258,121.258,0,0,0,28.132-13.034,136.874,136.874,0,0,0,12.289-8.656c1.971-1.564,3.9-3.189,5.83-4.919.962-.87,1.926-1.757,2.9-2.708.491-.477.982-.963,1.5-1.5l.795-.838.433-.48.256-.3.367-.451c11.2-15.338,6.089-39.764-11.415-54.548s-40.778-14.334-51.98,1.006l.142-.15c.037-.034.028-.01.028-.01l.007.016c.012.011-.014.074-.022.113a2.961,2.961,0,0,1-.136.338c-.1.25-.256.535-.4.819-.3.578-.651,1.191-1.021,1.8-.75,1.228-1.568,2.478-2.431,3.7a72.93,72.93,0,0,1-5.637,7.064,66.7,66.7,0,0,1-13.087,11.347,46.708,46.708,0,0,1-14.485,6.354,36.5,36.5,0,0,1-7.652,1.028,40.443,40.443,0,0,1-8.105-.569,50.406,50.406,0,0,1-8.692-2.278c-.747-.292-1.5-.552-2.263-.858-.758-.328-1.525-.622-2.293-.97l-2.227-1.018c-.589-.253-1.174-.544-1.755-.831a35.579,35.579,0,0,1-6.58-4.377c-.26-.21-.51-.432-.763-.652l-.8-.742c-.533-.508-1.064-1.027-1.578-1.575-1.034-1.089-2.043-2.252-3.019-3.5a68.3,68.3,0,0,1-9.928-18.7q-1.013-2.727-1.861-5.589t-1.581-5.834c-.975-3.955-1.8-8.033-2.507-12.191-1.416-8.321-2.343-16.936-3.155-25.795l-.286-3.178c-.094-1.026-.159-2.065-.24-3.107-.132-2.093-.251-4.2-.33-6.345-.17-4.276-.249-8.652-.308-13.1-.136-8.9-.258-18.164-1.27-27.785a117.142,117.142,0,0,0-6.641-29.431c-.45-1.223-.968-2.439-1.458-3.651-.543-1.212-1.047-2.4-1.626-3.618l-.856-1.816c-.3-.6-.609-1.189-.913-1.782-.594-1.191-1.268-2.342-1.914-3.5a110.468,110.468,0,0,0-8.888-12.985A158.1,158.1,0,0,0,66.463,43.019a211.013,211.013,0,0,0-23.927-17.58,273.753,273.753,0,0,0-25.481-14.2Z" transform="translate(0 -1.358)" fill="#fdb74d"/>
      <rect id="Rectángulo_43931" data-name="Rectángulo 43931" width="295" height="327.5" fill="none"/>
      <g id="Elipse_5245" data-name="Elipse 5245" transform="translate(154.123 237.69)">
        <ellipse id="Elipse_5362" data-name="Elipse 5362" cx="27.611" cy="25.898" rx="27.611" ry="25.898" fill="none"/>
        <ellipse id="Elipse_5363" data-name="Elipse 5363" cx="26.03" cy="24.517" rx="26.03" ry="24.517" transform="translate(1.582 1.381)" fill="none" stroke="#fff" stroke-linecap="round" stroke-width="3.163" stroke-dasharray="2.372 6.326"/>
      </g>
    </g>
    <g id="Grupo_156279" data-name="Grupo 156279" transform="translate(1049.683 8316.464)">
      <g id="Grupo_156278" data-name="Grupo 156278" clip-path="url(#clip-path-2)">
        <g id="Grupo_156277" data-name="Grupo 156277">
          <g id="Grupo_156276" data-name="Grupo 156276" clip-path="url(#clip-path-2)">
            <path id="Trazado_206199" data-name="Trazado 206199" d="M61.026,31.777c11.3,21.176,6.535,38.643-8.237,46.523S18.066,81.251,6.769,60.074-.9,8.424,11.872,1.607c10.6-5.652,34.887,3.426,49.154,30.17" transform="translate(0 0)" fill="#5038a1"/>
            <path id="Trazado_206200" data-name="Trazado 206200" d="M48.388,91.194,29.47,50.55l7.182-3.833L64.668,87.122Z" transform="translate(17.23 27.312)" fill="#5038a1"/>
            <path id="Trazado_206201" data-name="Trazado 206201" d="M104.3,91.627,126.545,52.7l-6.836-4.42L88.417,86.208Z" transform="translate(51.692 28.229)" fill="#5038a1"/>
            <path id="Trazado_206202" data-name="Trazado 206202" d="M141.366,53.99a52.23,52.23,0,0,1-3.976,5.369,18.9,18.9,0,1,1-31.748-20.516s2.556-4.862,3.654-5.89c1.594,1.852,32.07,21.038,32.07,21.038" transform="translate(59.993 19.265)" fill="#5038a1"/>
            <path id="Trazado_206203" data-name="Trazado 206203" d="M111.584,59.19,146.755,4.764a2.508,2.508,0,0,1,3.494-.423A2.508,2.508,0,0,1,151.3,7.7L116.122,62.123Z" transform="translate(65.237 2.243)" fill="#5038a1"/>
            <path id="Trazado_206204" data-name="Trazado 206204" d="M122.927,66.521,158.1,12.095a2.506,2.506,0,0,1,3.493-.422,2.508,2.508,0,0,1,1.047,3.355L127.467,69.455Z" transform="translate(71.868 6.53)" fill="#5038a1"/>
            <path id="Trazado_206205" data-name="Trazado 206205" d="M105.648,55.353,140.824.927a2.5,2.5,0,0,1,3.488-.422,2.509,2.509,0,0,1,1.051,3.358L110.19,58.288Z" transform="translate(61.766 0)" fill="#5038a1"/>
            <path id="Trazado_206206" data-name="Trazado 206206" d="M117.038,62.713,152.212,8.287a2.509,2.509,0,0,1,3.493-.42,2.506,2.506,0,0,1,1.047,3.355L121.58,65.649Z" transform="translate(68.425 4.305)" fill="#5038a1"/>
            <path id="Trazado_206207" data-name="Trazado 206207" d="M218.686,117.8a7,7,0,0,1-7,7H14.439a7,7,0,1,1,0-14H211.687a7,7,0,0,1,7,7" transform="translate(4.347 64.777)" fill="#fedc72"/>
            <rect id="Rectángulo_47151" data-name="Rectángulo 47151" width="8.101" height="41.665" transform="translate(113.359 56.247)" fill="#5038a1"/>
            <path id="Trazado_206208" data-name="Trazado 206208" d="M91.521,38A12.732,12.732,0,1,1,78.79,25.27,12.733,12.733,0,0,1,91.521,38" transform="translate(38.62 14.774)" fill="#5038a1" fill-rule="evenodd"/>
            <path id="Trazado_206209" data-name="Trazado 206209" d="M204.812,146.013c-6.058-53.114-46.5-94.164-95.487-94.164S19.891,92.9,13.831,146.013Z" transform="translate(8.086 30.313)" fill="#fedc72"/>
            <path id="Trazado_206210" data-name="Trazado 206210" d="M116.883,116.955a32.335,32.335,0,0,0,2.488-11.427c.658-14.791-20.8-37.241-32.146-41.6,28.188,3.432,49.457,23.006,48.449,45.62a34.458,34.458,0,0,1-1.366,8.178Z" transform="translate(50.995 37.376)" fill="#fff"/>
            <g id="Grupo_156275" data-name="Grupo 156275" transform="translate(21.917 82.162)" opacity="0.3" style="mix-blend-mode: multiply;isolation: isolate">
              <g id="Grupo_156274" data-name="Grupo 156274" opacity="0.5">
                <g id="Grupo_156273" data-name="Grupo 156273" clip-path="url(#clip-path-4)">
                  <path id="Trazado_206211" data-name="Trazado 206211" d="M137.229,56.482a86.558,86.558,0,0,0-27.9-4.633c-48.991,0-89.436,41.05-95.494,94.164H97.093c-12.775-37.908-3.516-72.627,40.136-89.531" transform="translate(-13.831 -51.849)" fill="#ff5e34"/>
                </g>
              </g>
            </g>
          </g>
        </g>
      </g>
    </g>
  </g>
</svg>
