<svg id="Grupo_155462" data-name="Grupo 155462" xmlns="http://www.w3.org/2000/svg" xmlns:xlink="http://www.w3.org/1999/xlink" width="400" height="306" viewBox="0 0 400 306">
  <defs>
    <clipPath id="clip-path">
      <rect id="Rectángulo_47148" data-name="Rectángulo 47148" width="280.812" height="306" fill="none"/>
    </clipPath>
  </defs>
  <path id="Trazado_188103" data-name="Trazado 188103" d="M338.664,47.126a121.884,121.884,0,0,1,19.467,20.446c41.06,52.6,25.9,110.363,20.815,128.208-8.218,28.79-14.189,53.129-39.43,73.277-57.346,45.783-172.293,39.085-241.9-.206C89.36,264.192,21.976,225.042,14.9,166.3c-.172-1.437-.258-2.507-.344-3.445-.807-9.075-4.7-65.275,46.123-109.046C71.28,44.513,84.728,36,100.65,28.5,172.457-4.471,281.158-.457,338.664,47.126Z" transform="translate(0 -0.607)" fill="#e5e1f1"/>
  <path id="Trazado_139920" data-name="Trazado 139920" d="M32.751,21.941c-.192-.038-.387-.068-.583-.087-2.752-.269-4.65,1.62-4.235,4.215a6.657,6.657,0,0,0,5.74,5.186A139.875,139.875,0,0,1,62.552,37.43,160.568,160.568,0,0,1,90.7,49.565l1.7.925,1.673.974c1.119.642,2.218,1.317,3.314,1.995q3.3,2.02,6.461,4.226c1.061.723,2.086,1.494,3.128,2.236,1.031.759,2.04,1.542,3.058,2.307.989.8,2,1.577,2.962,2.408s1.941,1.63,2.868,2.479,1.873,1.674,2.768,2.543c.45.433.907.857,1.345,1.3l1.3,1.319c.886.866,1.685,1.785,2.528,2.67.806.907,1.61,1.812,2.381,2.728.752.927,1.532,1.836,2.228,2.777.351.469.719.929,1.062,1.4l1,1.409c.166.238.338.466.5.709l.477.737.948,1.469c.593,1,1.209,1.982,1.766,2.99a103.66,103.66,0,0,1,9.918,25.143c2.28,8.689,3.787,17.6,5.335,26.848.78,4.628,1.54,9.341,2.442,14.186.436,2.417.942,4.877,1.465,7.358.281,1.25.544,2.495.848,3.762l.887,3.692c2.288,9.449,4.79,19.2,8.056,29.25a201.2,201.2,0,0,0,12.892,31.154,147.088,147.088,0,0,0,9.844,16.234,131.9,131.9,0,0,0,13.253,16.095c2.527,2.609,5.22,5.158,8.053,7.612,1.415,1.231,2.876,2.427,4.36,3.608.745.586,1.465,1.155,2.256,1.74s1.581,1.175,2.384,1.738a117.949,117.949,0,0,0,20.31,11.588c1.766.785,3.539,1.535,5.33,2.221.944.371,1.666.628,2.466.934l2.36.877c1.578.58,3.181,1.113,4.79,1.634s3.241.99,4.868,1.479a131.588,131.588,0,0,0,20.035,4.091,112.349,112.349,0,0,0,20.173.72A100.316,100.316,0,0,0,347.861,283.9a116.374,116.374,0,0,0,23.806-21.528,133.073,133.073,0,0,0,9.37-12.524c1.443-2.195,2.826-4.443,4.163-6.8.668-1.183,1.33-2.385,1.985-3.659.33-.639.655-1.286.988-1.989l.509-1.1.27-.626.155-.383.213-.576c5.953-19.263-7.683-43.577-30.45-54.3s-46.053-3.8-52.006,15.467l.091-.2c.026-.046.025-.017.025-.017l.013.015c.016.008.011.081.017.124a3.48,3.48,0,0,1-.02.395c-.019.291-.072.634-.122.975-.105.693-.242,1.435-.4,2.18-.328,1.5-.718,3.044-1.162,4.574a74.479,74.479,0,0,1-3.223,9,65.946,65.946,0,0,1-9.238,15.581,44.8,44.8,0,0,1-12.382,10.709,35.286,35.286,0,0,1-7.35,3.2,40.26,40.26,0,0,1-8.361,1.648,52.231,52.231,0,0,1-9.546.01c-.854-.1-1.705-.165-2.577-.278-.878-.135-1.753-.232-2.647-.386l-2.6-.455c-.681-.1-1.372-.248-2.057-.389a39.764,39.764,0,0,1-8.148-2.787c-.335-.15-.664-.314-.995-.476l-1.066-.56c-.713-.387-1.428-.787-2.136-1.221-1.42-.86-2.841-1.807-4.259-2.854a82.209,82.209,0,0,1-16.5-16.949q-1.967-2.594-3.816-5.373t-3.62-5.708c-2.356-3.9-4.6-7.963-6.76-12.148-4.318-8.373-8.244-17.191-12.141-26.3l-1.392-3.269c-.451-1.054-.878-2.132-1.322-3.207-.859-2.168-1.711-4.354-2.536-6.592-1.657-4.457-3.258-9.045-4.863-13.717-3.231-9.343-6.571-19.063-10.934-28.918a141.137,141.137,0,0,0-16.914-29.164c-.878-1.164-1.823-2.3-2.738-3.443-.967-1.126-1.888-2.239-2.894-3.361L140.8,74.853c-.506-.55-1.026-1.084-1.538-1.625-1.013-1.09-2.091-2.116-3.144-3.154a131.7,131.7,0,0,0-13.463-11.215A184.152,184.152,0,0,0,93.588,41.728,238.285,238.285,0,0,0,63.38,29.84a300.878,300.878,0,0,0-30.6-7.895Z" transform="translate(0 -1.89)" fill="#fdb74d"/>
  <ellipse id="Elipse_5940" data-name="Elipse 5940" cx="52.805" cy="48.234" rx="52.805" ry="48.234" transform="translate(185.388 97.747)" fill="#fdb74d" opacity="0.5"/>
  <g id="Grupo_135175" data-name="Grupo 135175" transform="translate(279.659 12.461)">
    <ellipse id="Elipse_5247" data-name="Elipse 5247" cx="28.38" cy="25.923" rx="28.38" ry="25.923" transform="translate(42.134)" fill="#5038a1" opacity="0.7" style="isolation: isolate"/>
    <g id="Elipse_5249" data-name="Elipse 5249" transform="translate(54.622 9.08)">
      <ellipse id="Elipse_5941" data-name="Elipse 5941" cx="10.694" cy="9.768" rx="10.694" ry="9.768" fill="none"/>
      <ellipse id="Elipse_5942" data-name="Elipse 5942" cx="9.46" cy="8.641" rx="9.46" ry="8.641" transform="translate(1.234 1.127)" fill="none" stroke="#fff" stroke-width="2.468"/>
    </g>
    <g id="Elipse_5250" data-name="Elipse 5250" transform="translate(0 60.503)">
      <ellipse id="Elipse_5943" data-name="Elipse 5943" cx="5.758" cy="5.26" rx="5.758" ry="5.26" fill="#fdb74d"/>
      <ellipse id="Elipse_5944" data-name="Elipse 5944" cx="4.524" cy="4.133" rx="4.524" ry="4.133" transform="translate(1.234 1.127)" fill="#fdb74d" stroke="#8c6df2" stroke-width="2.468"/>
    </g>
    <ellipse id="Elipse_5251" data-name="Elipse 5251" cx="3.702" cy="3.381" rx="3.702" ry="3.381" transform="translate(46.391 50.551)" fill="#fdb74d"/>
  </g>
  <g id="Elipse_4972" data-name="Elipse 4972" transform="translate(189.43 101.438)">
    <ellipse id="Elipse_5945" data-name="Elipse 5945" cx="48.764" cy="44.542" rx="48.764" ry="44.542" fill="none"/>
    <ellipse id="Elipse_5946" data-name="Elipse 5946" cx="46.163" cy="42.167" rx="46.163" ry="42.167" transform="translate(2.601 2.376)" fill="none" stroke="#fff" stroke-linecap="round" stroke-width="5.201" stroke-dasharray="3.901 10.403"/>
  </g>
  <rect id="Rectángulo_44813" data-name="Rectángulo 44813" width="400" height="306" fill="none"/>
  <g id="Grupo_156268" data-name="Grupo 156268" transform="translate(59.594)">
    <rect id="Rectángulo_47136" data-name="Rectángulo 47136" width="5.419" height="79.324" transform="translate(259.946 212.653)" fill="#5b0000"/>
    <rect id="Rectángulo_47137" data-name="Rectángulo 47137" width="5.419" height="79.324" transform="translate(204.784 212.653)" fill="#5b0000"/>
    <g id="Grupo_156267" data-name="Grupo 156267">
      <g id="Grupo_156266" data-name="Grupo 156266" clip-path="url(#clip-path)">
        <path id="Trazado_206037" data-name="Trazado 206037" d="M239.932,246.008s-.4.659-.552.7c-.275.075-1.076-.7-1.076-.7h-2.444s-.5.7-.689.7-.808-.7-.808-.7H231.92s-.543.7-.743.7c-.174,0-.754-.7-.754-.7h-2.444s-.512.7-.7.7-.795-.7-.795-.7h-2.443s-.523.7-.716.7-.781-.7-.781-.7H220.1s-.483.7-.665.7-.833-.7-.833-.7h-2.443s-.543.7-.743.7c-.173,0-.754-.7-.754-.7h-2.443s-.464.7-.638.7c-.2,0-.86-.7-.86-.7h-2.443s-.522.7-.716.7-.781-.7-.781-.7h-2.443s-.474.7-.651.7c-.2,0-.848-.7-.848-.7H200.4s-.5.7-.689.7-.808-.7-.808-.7h-2.443s-.513.7-.7.7-.794-.7-.794-.7h-2.444s-.532.7-.729.7c-.177,0-.768-.7-.768-.7h-2.443s-.5.7-.689.7-.809-.7-.809-.7h-2.443s-.483.7-.663.7-.833-.7-.833-.7h-2.443s-.561.7-.768.7c-.168,0-.73-.7-.73-.7h-2.442s-.543.7-.743.7c-.174,0-.754-.7-.754-.7h-2.444s-.493.7-.678.7c-.164,0-.715-.7-.715-.7l.472-68.071h67.083Z" transform="translate(29.523 30.645)" fill="#12263f"/>
        <path id="Trazado_206038" data-name="Trazado 206038" d="M172.61,245l1.025-61.175L175.053,245Z" transform="translate(29.728 31.659)" fill="#727997"/>
        <path id="Trazado_206039" data-name="Trazado 206039" d="M175.971,244.029l1.025-54.6,1.418,54.6Z" transform="translate(30.307 32.625)" fill="#727997"/>
        <path id="Trazado_206040" data-name="Trazado 206040" d="M179.333,245l1.025-61.175L181.775,245Z" transform="translate(30.886 31.659)" fill="#727997"/>
        <path id="Trazado_206041" data-name="Trazado 206041" d="M182.694,245l1.025-61.175L185.137,245Z" transform="translate(31.464 31.659)" fill="#727997"/>
        <path id="Trazado_206042" data-name="Trazado 206042" d="M186.055,244.029l1.025-54.6,1.418,54.6Z" transform="translate(32.043 32.625)" fill="#727997"/>
        <path id="Trazado_206043" data-name="Trazado 206043" d="M189.417,245l1.025-61.175L191.86,245Z" transform="translate(32.622 31.659)" fill="#727997"/>
        <path id="Trazado_206044" data-name="Trazado 206044" d="M192.778,244.426l1.025-57.3,1.418,57.3Z" transform="translate(33.201 32.228)" fill="#727997"/>
        <path id="Trazado_206045" data-name="Trazado 206045" d="M196.14,245l1.025-61.175L198.583,245Z" transform="translate(33.78 31.659)" fill="#727997"/>
        <path id="Trazado_206046" data-name="Trazado 206046" d="M199.5,245l1.025-61.175L201.944,245Z" transform="translate(34.359 31.659)" fill="#727997"/>
        <path id="Trazado_206047" data-name="Trazado 206047" d="M202.863,245l1.025-61.175L205.306,245Z" transform="translate(34.938 31.659)" fill="#727997"/>
        <path id="Trazado_206048" data-name="Trazado 206048" d="M206.224,244.029l1.025-54.6,1.418,54.6Z" transform="translate(35.517 32.625)" fill="#727997"/>
        <path id="Trazado_206049" data-name="Trazado 206049" d="M209.585,245l1.025-61.175L212.028,245Z" transform="translate(36.096 31.659)" fill="#727997"/>
        <path id="Trazado_206050" data-name="Trazado 206050" d="M212.947,245l1.025-61.175L215.39,245Z" transform="translate(36.675 31.659)" fill="#727997"/>
        <path id="Trazado_206051" data-name="Trazado 206051" d="M216.308,244.225l1.025-55.928,1.418,55.928Z" transform="translate(37.254 32.429)" fill="#727997"/>
        <path id="Trazado_206052" data-name="Trazado 206052" d="M219.67,244.225l1.025-55.928,1.418,55.928Z" transform="translate(37.833 32.429)" fill="#727997"/>
        <path id="Trazado_206053" data-name="Trazado 206053" d="M223.031,245l1.025-61.175L225.474,245Z" transform="translate(38.412 31.659)" fill="#727997"/>
        <path id="Trazado_206054" data-name="Trazado 206054" d="M226.393,244.588l1.025-58.4,1.418,58.4Z" transform="translate(38.99 32.066)" fill="#727997"/>
        <path id="Trazado_206055" data-name="Trazado 206055" d="M238.095,189.791h-65.5a1.733,1.733,0,0,1-1.734-1.734v-11.55a1.733,1.733,0,0,1,1.734-1.734h65.5a1.733,1.733,0,0,1,1.734,1.734v11.55a1.733,1.733,0,0,1-1.734,1.734" transform="translate(29.426 30.1)" fill="#12263f"/>
        <path id="Trazado_206056" data-name="Trazado 206056" d="M238.615,91.7h0a4.426,4.426,0,0,0-4.9,3.867l-11.308,96.122a4.413,4.413,0,0,0,8.766,1.032L242.483,96.6a4.428,4.428,0,0,0-3.868-4.9" transform="translate(38.299 15.787)" fill="#12263f"/>
        <path id="Trazado_206057" data-name="Trazado 206057" d="M196.293,91.762c3.84,1.176,5.048,6.215,3.092,11.5s-18.867,29.819-20.806,30.273-7.231-.872-7.467-3.575,10.194-25.683,12.679-29.674,7.5-10.052,12.5-8.52" transform="translate(29.469 15.762)" fill="#ffa47c"/>
        <path id="Trazado_206058" data-name="Trazado 206058" d="M184.895,125.617c.055,3.532-6.048,4.949-10.64,5.29s-18.486.846-18.486.846l-1.929-6.126s22.65-5.715,23.923-5.9,7.037-.191,7.133,5.892" transform="translate(26.495 20.611)" fill="#ffa47c"/>
        <path id="Trazado_206059" data-name="Trazado 206059" d="M199.441,218.968s-16.382-16.307-23.339-19.673-37.027-31.941-37.027-31.941l50.41-1.122Z" transform="translate(23.952 28.629)" fill="#5038a1"/>
        <path id="Trazado_206060" data-name="Trazado 206060" d="M208.671,52.857s2.838-9.173,8.877-6.026,7.965,13.212,6.209,17.068-2.822,18.819-1.969,18.787.326,2.615-1.588,2.777-7.6-.958-7.306-8.312a25.89,25.89,0,0,0-2.333-12.272Z" transform="translate(35.938 7.952)" fill="#8d3b26"/>
        <path id="Trazado_206061" data-name="Trazado 206061" d="M216.468,184.239c-1.273,3.82-23.623,4.731-38.457,1.9-14.077-2.69-33.38-4.5-34.415-5.708s-2.482-11.721-1.445-13.383,58.51-12.1,61.443-12.269,18.393,12.9,12.875,29.462" transform="translate(24.42 26.656)" fill="#ffa47c"/>
        <path id="Trazado_206062" data-name="Trazado 206062" d="M174.942,226.264a15.335,15.335,0,0,0,4.642,5.415c1.6,1.4,2.567,4.436,2.038,5.576-1.451,3.133-4.46,3.424-6.566,6.319s-3.809,10.937-5.956,12.477-7.67,3.5-8.468,2.5,3.217-7.458,3.217-7.458c4.3-13.953,3.229-19.277,3.229-19.277s7.663-5.98,7.863-5.551" transform="translate(27.647 38.965)" fill="#ffa47c"/>
        <path id="Trazado_206063" data-name="Trazado 206063" d="M164,250.577s-1.073,2.027-.645,2.344c.615.46,2.982-.764,3.493-1.349,4.593-5.252,9.747-14.708,10.551-17.311a9.54,9.54,0,0,0,.155-5.029c.505-.168,3.846,2.285,4.344,4.962a8.219,8.219,0,0,1-.127,2.547c-.817,1.763-4.413,5.7-5.334,6.967-2.105,2.9-3.459,10.821-5.606,12.36s-10.263,4.66-11.061,3.659c-.626-.787,2.308-6.228,4.228-9.149" transform="translate(27.501 39.478)" fill="#191919"/>
        <path id="Trazado_206064" data-name="Trazado 206064" d="M179.33,233.061s.145,5.225.264,6.951a53.348,53.348,0,0,0,1.661,7.757l-1.069.354s-2.4-9.861-6.192-5.075c-1.184,1.492,5.336-9.987,5.336-9.987" transform="translate(29.941 40.139)" fill="#191919"/>
        <path id="Trazado_206065" data-name="Trazado 206065" d="M155.657,167.98c8.707,4.267,15.681,20.58,17.454,27.142s5.325,42.964,6.454,45.174-8.429,3.4-8.792,2.065c-3.613-13.24-19.941-46.14-21.6-49.364s-10.11-15.5-10.1-20.87c.026-11.022,11.6-6.587,16.583-4.147" transform="translate(23.952 28.418)" fill="#ffa47c"/>
        <path id="Trazado_206066" data-name="Trazado 206066" d="M215.358,67.431s-1.125,18.148,0,19.086c3.5,2.922,13.833,5.611,16.214,10.694,2.886,6.161-12.464,25.626-15.178,44.783-1.315,9.281,8.071,26.039,9.452,35.007S197.675,193.26,196.64,193.26s-13.19-8.255-14.914-11.188,3.846-29.576,3.846-35.441-1.5-17.665-2.395-18.7-4.615-4.508-4.615-8.3c0-5.519,8.275-13.3,8.619-15.2s-.368-4.627.585-5.84c1.9-2.414,11.725-7.413,11.9-8.621s-.172-16.731-.172-16.731Z" transform="translate(30.753 11.613)" fill="#ffbd95"/>
        <path id="Trazado_206067" data-name="Trazado 206067" d="M230.243,175.8c-3.88,8.21-20.287,11.424-35.729,11.776-20.351.464-37.93-1.139-39.083-2.234s-2.417-11.007-1.558-12.767,41.648-13.278,44.547-13.75c2.253-.368,28.071-7.63,31.726,2.917,1.022,2.949,2.523,8.925.1,14.058" transform="translate(26.452 26.875)" fill="#ffbd95"/>
        <path id="Trazado_206068" data-name="Trazado 206068" d="M212.088,69.973l-.312,8.411L196.592,88.851V74.268Z" transform="translate(33.858 12.051)" fill="#ffa47c"/>
        <path id="Trazado_206069" data-name="Trazado 206069" d="M167.414,174.577c6.928,6.786,8.385,23.788,8.006,30.575s-8.391,43.139-8.015,45.589-8.823,2.327-8.823.944c0-17.588-5.708-50.14-6.275-53.722s0-16.831,0-23.085c0-8.3,11.143-4.181,15.106-.3" transform="translate(26.188 29.288)" fill="#ffbd95"/>
        <path id="Trazado_206070" data-name="Trazado 206070" d="M168.862,236.434a15.323,15.323,0,0,0,2.708,6.6c1.076,1.833,1.043,5.017.184,5.935-2.362,2.518-5.31,1.85-8.217,3.937s-7.051,9.188-9.572,9.977-8.381.913-8.825-.287,5.4-6.071,5.4-6.071c8.462-11.9,9.118-17.288,9.118-17.288s9.153-3.272,9.209-2.8" transform="translate(24.993 40.712)" fill="#ffbd95"/>
        <path id="Trazado_206071" data-name="Trazado 206071" d="M194.471,52.19c4.365-3.312,16.387-5.52,21.215,2.932s1.466,15.954-2.156,20.439c-2.824,3.5-5.391,5.329-10.263,6.986-.993.338-9.724.969-11.368.195-1.125-.531-1.05-9.38-1.395-9.38a1.552,1.552,0,0,1-1.207-1.336c.042-1.042,1.832-7.223,1.66-7.913s-1.488-8.128,3.514-11.923" transform="translate(32.602 8.481)" fill="#ffbd95"/>
        <path id="Trazado_206072" data-name="Trazado 206072" d="M150.754,255.916S149.1,257.5,149.4,257.94c.441.629,3.072.211,3.741-.183,6.01-3.545,13.873-10.905,15.453-13.124a9.551,9.551,0,0,0,1.726-4.726c.532,0,2.935,3.378,2.567,6.077a8.228,8.228,0,0,1-.92,2.377c-1.329,1.418-5.981,4.027-7.251,4.94-2.907,2.088-6.682,9.187-9.2,9.976s-11.208,1.2-11.651,0c-.347-.944,4.147-5.189,6.888-7.359" transform="translate(24.774 41.318)" fill="#303030"/>
        <path id="Trazado_206073" data-name="Trazado 206073" d="M169.881,244.673s-1.5,5.005-1.932,6.682a53.377,53.377,0,0,0-.858,7.888h-1.126s.819-10.115-4.286-6.763c-1.593,1.046,8.2-7.807,8.2-7.807" transform="translate(27.815 42.139)" fill="#303030"/>
        <path id="Trazado_206074" data-name="Trazado 206074" d="M190.1,103.6h28.567l8.472,6,2.811,5.215s-5.824,13.517-6.59,19.8,7.2,21.1,10.455,32.543c.86,3.026,2.633,16.524-2.206,22.507-2,2.468-12.589,4.2-12.952,4.879-9.992,18.609-19.214,35.216-19.214,35.216s-25.094-35.61-35.905-45.182c-4.486-3.971-24.59-5.511-24.461-6.433,1.272-9.126,47.949-11.361,48.061-13.9s4.787-15.559,5.086-21.843-.946-19.332-2.635-21.218-4.6-4.084-4.471-8.049S190.1,103.6,190.1,103.6" transform="translate(23.952 17.842)" fill="#8c6df2"/>
        <path id="Trazado_206075" data-name="Trazado 206075" d="M220.275,88.165a15.139,15.139,0,0,0-6.892,5.089c-4.009,5.318-5.723,14.643-5.723,14.643l-2.08-.1s2.809-10.353,6.287-15.112,6.777-5.351,6.777-5.351Z" transform="translate(35.406 15.041)" fill="#002d56"/>
        <path id="Trazado_206076" data-name="Trazado 206076" d="M219.83,112.668a25.953,25.953,0,0,1-14.54,6.534,206.03,206.03,0,0,1-22.373.938s3.1,13.651,2.672,17.171a134.715,134.715,0,0,1-2.443,13.663c-.8,2.9-3.07,11.7-3.07,11.7s2.68-1.937,8.233.842,6.263-.554,6.658-3.471,2.274-24.1,6.384-28.21,17.059-7.182,17.059-7.182l4.478-11.407Z" transform="translate(31.013 19.404)" fill="#5038a1"/>
        <path id="Trazado_206077" data-name="Trazado 206077" d="M191.979,90.546l-6.064,9.9,3.341-8.118Z" transform="translate(32.019 15.594)" fill="#002d56"/>
        <path id="Trazado_206078" data-name="Trazado 206078" d="M210.808,132.369c-1.99,3.456-12.338,3.258-19.7,2.4s-29.314-3.956-29.314-3.956l.594-6.467s38.667.29,40.759.436,11.083,1.634,7.656,7.585" transform="translate(27.866 21.416)" fill="#ffbd95"/>
        <path id="Trazado_206079" data-name="Trazado 206079" d="M225.131,90.208c3.886,1.081,4.785,6.763,2.4,12.939s-21.547,35.414-23.579,36.067-7.411-.5-7.468-3.575,12.3-30.085,15.144-34.822,8.439-12.016,13.5-10.609" transform="translate(33.84 15.506)" fill="#ffbd95"/>
        <path id="Trazado_206080" data-name="Trazado 206080" d="M193.288,56.452c-.217.934,2.58,5.834,5.274,6.62s8.072.225,9.59,1.123,5.07,10.884,5.07,10.884,6.771-7.294,5.873-14.251S211.31,50.183,206.731,49.5s-11.648-.792-13.443,6.95" transform="translate(33.287 8.475)" fill="#8d3b26"/>
        <path id="Trazado_206081" data-name="Trazado 206081" d="M194.854,55.268s-2.115,3.224-3.136,3.479-1.151,1.687-1.151,1.687a6.423,6.423,0,0,1,.7-6.287c2.244-3.142,7.741-6.291,10.323-4.885s-6.732,6.005-6.732,6.005" transform="translate(32.731 8.425)" fill="#8d3b26"/>
        <path id="Trazado_206082" data-name="Trazado 206082" d="M207.64,50.6s6.153-3.888,9.064-1.577,4.127,8.3,3.668,11.516-1.842,6.44-4.59,5.8S207.64,50.6,207.64,50.6" transform="translate(35.761 8.317)" fill="#8d3b26"/>
        <path id="Trazado_206083" data-name="Trazado 206083" d="M168.389,124.62s-9.351-1.342-9.725-1.716-15.111,7.93-14.288,8.453,2.843.449,5.161-.6,12.691,2.139,16.968.546,1.884-6.684,1.884-6.684" transform="translate(24.859 21.165)" fill="#ffbd95"/>
        <rect id="Rectángulo_47138" data-name="Rectángulo 47138" width="14.198" height="111.32" transform="translate(126.491 159.928)" fill="#8c6df2"/>
        <path id="Trazado_206084" data-name="Trazado 206084" d="M112.381,244.77h-4.473V136.431h4.473v81.385l9.725-3.362v7.69l-7.067,5.846-2.657-1.645Z" transform="translate(18.584 23.497)" fill="#5038a1"/>
        <path id="Trazado_206085" data-name="Trazado 206085" d="M92.326,253.716h-8.95a26.281,26.281,0,0,1,7.487-18.546A21.942,21.942,0,0,1,106.4,228.6h.055l12.8.033-.025,8.951-12.8-.034h-.03a13.053,13.053,0,0,0-9.218,3.96,17.275,17.275,0,0,0-4.859,12.21" transform="translate(14.359 39.37)" fill="#8c6df2"/>
        <path id="Trazado_206086" data-name="Trazado 206086" d="M140.873,253.716h8.95a26.281,26.281,0,0,0-7.487-18.546A21.942,21.942,0,0,0,126.8,228.6h-.055l-12.8.033.025,8.951,12.8-.034h.03a13.053,13.053,0,0,1,9.218,3.96,17.275,17.275,0,0,1,4.859,12.21" transform="translate(19.623 39.37)" fill="#8c6df2"/>
        <path id="Trazado_206087" data-name="Trazado 206087" d="M105.222,233.308h-.034a15.05,15.05,0,0,0-10.121,3.96c-3.391,3.082-6.778,9.849-6.778,14.529h-4.86c-.015.369-.053.736-.053,1.108h8.95a17.277,17.277,0,0,1,4.859-12.21,13.053,13.053,0,0,1,9.218-3.96h.03l12.8.033.009-3.425Z" transform="translate(14.359 40.181)" fill="#5038a1"/>
        <path id="Trazado_206088" data-name="Trazado 206088" d="M128.093,233.308h-.034l-14.06.034-.042,3.425,12.8-.033h.03a13.055,13.055,0,0,1,9.218,3.96,17.277,17.277,0,0,1,4.859,12.21h3.212c0-4.68-2.475-12.555-5.867-15.636a15.05,15.05,0,0,0-10.121-3.96" transform="translate(19.626 40.181)" fill="#5038a1"/>
        <path id="Trazado_206089" data-name="Trazado 206089" d="M93.44,253.316H83.314a2.118,2.118,0,1,1,0-4.236H93.44a2.118,2.118,0,1,1,0,4.236" transform="translate(13.984 42.898)" fill="#5038a1"/>
        <path id="Trazado_206090" data-name="Trazado 206090" d="M146.661,253.316H136.535a2.118,2.118,0,1,1,0-4.236h10.126a2.118,2.118,0,1,1,0,4.236" transform="translate(23.15 42.898)" fill="#5038a1"/>
        <path id="Trazado_206091" data-name="Trazado 206091" d="M60.283,130.559l-6.2,16.555,70.2,76.041,70.2-76.041-6.2-16.555Z" transform="translate(9.314 22.486)" fill="#12263f"/>
        <path id="Trazado_206092" data-name="Trazado 206092" d="M56.037,52.055c-5.858,2.328-6.42,10.482-4.029,16.865S71.869,104.887,73.767,105.5s10.164-3.666,10.122-6.888S71.6,67.544,68.828,62.684,62.9,49.327,56.037,52.055" transform="translate(8.729 8.874)" fill="#b8d1ff"/>
        <path id="Trazado_206093" data-name="Trazado 206093" d="M105.009,103.844s2.891-1.791,4.077-1.68,5.44,2.47,6.133,2.581,2.274-.9,2.274,0-.989,2.693-3.56,2.356-9.911,4.367-9.911,4.367Z" transform="translate(17.915 17.594)" fill="#ffa47c"/>
        <path id="Trazado_206094" data-name="Trazado 206094" d="M103.757,112.092s6.561,1.268,8.045,1.493,13.55.674,13.648,0-.3-2.262-3.165-2.366-10.137-.784-11.483-1.9-5.749-5.725-5.749-5.725Z" transform="translate(17.87 17.842)" fill="#ffa47c"/>
        <rect id="Rectángulo_47139" data-name="Rectángulo 47139" width="11.589" height="2.192" transform="translate(29.987 296.426)" fill="#191919"/>
        <path id="Trazado_206095" data-name="Trazado 206095" d="M26.368,239.723a20.626,20.626,0,0,0-2.695,8.247c-.181,2.314,1.18,7.194,2.682,7.194a110.063,110.063,0,0,1,14.138.8c4.519.618,6.209,3.252,17.766,3.225,3.372-.008,9.5-.225,9.322-1.614s-11.087-3.911-14.6-7.2c-8.9-8.315-14.829-10.325-14.829-10.325s-11.468-.769-11.78-.326" transform="translate(4.074 41.263)" fill="#191919"/>
        <path id="Trazado_206096" data-name="Trazado 206096" d="M48.977,20.251s-6.1,19.372-7.5,20.017c-4.338,2-17.881,1.05-21.669,5.547-4.593,5.452,3.916,37.735,3.528,47.547s-8.562,22.983-12.393,31.683,21.767,27.329,22.814,27.611S46.234,147.5,48.775,145s7.113-26.913,8.7-32.847S66.022,85.8,66.652,84.509c4.219-8.605,3.8-16.4,3.966-18.41s1.13-5.2.495-6.683C69.848,56.458,60.041,50.371,60.194,49.1s3.261-18.67,3.261-18.67Z" transform="translate(1.818 3.488)" fill="#ffbd95"/>
        <path id="Trazado_206097" data-name="Trazado 206097" d="M42,24.755,39.873,31.6,51.21,53.333l4.3-7.274L57.756,33.31Z" transform="translate(6.867 4.263)" fill="#ffa47c"/>
        <path id="Trazado_206098" data-name="Trazado 206098" d="M18.362,112.733s-.756,4.758-1.462,11.576,5.794,28.64,8.094,45.8,3.723,20.633,3.149,24.686-5.6,20.473-4.957,31.4,2.8,39.489,2.8,39.489a29.652,29.652,0,0,0,8.737,2.006c5.552.542,9.4-4.3,9.4-4.3S48.6,199.565,49.3,192.832c.457-4.357,3.973-34.424,5.049-58.934.346-7.887-.753-18.987-.75-22.248,0-2.269-35.238,1.082-35.238,1.082" transform="translate(2.901 19.093)" fill="#ffb27d"/>
        <path id="Trazado_206099" data-name="Trazado 206099" d="M14.186,102.976s-5.465,10.193-5.352,18.65c.091,6.854,2.036,19.436,4.336,36.6s2.52,33.118,1.947,37.17-5.922,21.234-5.28,32.156S13.4,265.425,13.4,265.425a16.855,16.855,0,0,0,8.929,3.539,13.527,13.527,0,0,0,8.833-1.852s6.473-63.93,8.977-70.22c4-10.041,4.6-41.664,7.366-63.227,1.116-8.7,7.48-19.823,7.48-19.823Z" transform="translate(1.521 17.735)" fill="#fedc72"/>
        <path id="Trazado_206100" data-name="Trazado 206100" d="M41.133,37.327l14.782,13.84,3.934-5.005s10.109,7.479,10.918,10.313.088,8.32.043,10.419-2.2,11.256-5.077,18.922c-1.686,4.488-3.2,10.607-6.006,18.268-2.4,6.56-3.049,17.919-5.389,21.065-.6.81-7.24.958-17.051-2.191-11.357-3.643-24.451-5.429-24.716-7.5-.379-2.946,7.927-21.009,8.051-23.086s-4.867-40.015-3.9-44.552a9.444,9.444,0,0,1,7.894-7.646c3.84-.777,16.514-2.851,16.514-2.851" transform="translate(2.163 6.429)" fill="#cee0ff"/>
        <path id="Trazado_206101" data-name="Trazado 206101" d="M37.476,37.849s14.778,39.8,19.772,40.34,4.941-30.311,4.941-30.311,8.211,5.291,8.578,8.515-.081,17.882-4.484,27.831-7.078,26.32-7.527,29.018-3.6,15.041-3.6,15.041l-1.692-2.866-6.6,4.661S17.9,112.018,15.777,111.421a29.727,29.727,0,0,1-3.219-1.06S19.71,94.7,19.71,91.628s-.417-12.211-.417-12.211,3.414-4.769,5.506-14.643-3.967-23.991-3.967-23.991,9.726-3.38,16.644-2.934" transform="translate(2.163 6.512)" fill="#8c6df2"/>
        <path id="Trazado_206102" data-name="Trazado 206102" d="M30.682,42.156C24.706,38,19.552,41.518,15.927,47.432S.276,87.506,1.082,89.636s7.71,7.311,10.346,5.418,17.2-29.394,19.3-34.786,6.952-13.243-.05-18.112" transform="translate(0.18 6.948)" fill="#cee0ff"/>
        <path id="Trazado_206103" data-name="Trazado 206103" d="M.132,86.44C-1.6,94.552,14.214,96.237,22,96.64s30.654-.886,30.654-.886l1.273-9.006S13.952,79.94,11.76,79.718,1.9,78.187.132,86.44" transform="translate(0 13.693)" fill="#cee0ff"/>
        <path id="Trazado_206104" data-name="Trazado 206104" d="M69.117,92.322c-3.347,6.648,8.016,13.013,13.972,15.567s24.741,7.088,24.741,7.088l3.651-9.419s-29.43-17.288-31.08-18.1-7.879-1.9-11.284,4.867" transform="translate(11.799 14.958)" fill="#b8d1ff"/>
        <rect id="Rectángulo_47140" data-name="Rectángulo 47140" width="2.263" height="11.589" transform="translate(14.466 301.929) rotate(-86.364)" fill="#191919"/>
        <path id="Trazado_206105" data-name="Trazado 206105" d="M14.2,242.106c-1.655,2.124-2.954,6.358-3.229,8.326-.332,2.374.707,7.488,2.206,7.583a106.769,106.769,0,0,1,14.057,1.719c4.47.923,5.983,3.744,17.519,4.449,3.365.206,9.5.372,9.408-1.071s-10.808-4.732-14.1-8.343c-8.337-9.133-14.123-11.579-14.123-11.579s-11.394-1.519-11.734-1.083" transform="translate(1.878 41.683)" fill="#303030"/>
        <path id="Trazado_206106" data-name="Trazado 206106" d="M96.612,111.794l8.025,2.075,4.081-11.511-8.027-3.316Z" transform="translate(16.639 17.057)" fill="#b8d1ff"/>
        <path id="Trazado_206107" data-name="Trazado 206107" d="M45.629,87.1s2.457-1.722,3.964-1.722,18.695.862,18.695.862,1.512,1.533-7.166,3.328-16.26,3.44-16.26,3.44Z" transform="translate(7.726 14.705)" fill="#ffa47c"/>
        <path id="Trazado_206108" data-name="Trazado 206108" d="M50.834,46.017l-.149,4.19-7.761-7.294Z" transform="translate(7.393 7.391)" fill="#b8d1ff"/>
        <path id="Trazado_206109" data-name="Trazado 206109" d="M34.809,38.2l4.14-3.538L52.231,47.438l-3.664,4.937Z" transform="translate(5.995 5.969)" fill="#e0f2ff"/>
        <path id="Trazado_206110" data-name="Trazado 206110" d="M49.545,49.821l2.528-4.675,1.776,2.162Z" transform="translate(8.533 7.775)" fill="#b8d1ff"/>
        <path id="Trazado_206111" data-name="Trazado 206111" d="M51.7,45.581l1.776,4.207,2.241-2.73-2.132-4.432Z" transform="translate(8.904 7.341)" fill="#e0f2ff"/>
        <path id="Trazado_206112" data-name="Trazado 206112" d="M50.714,49.447,46.008,44.6,44.886,51.71Z" transform="translate(7.731 7.682)" fill="#5038a1"/>
        <path id="Trazado_206113" data-name="Trazado 206113" d="M49.858,49.447,53.47,44.6l1.407,6.059Z" transform="translate(8.587 7.682)" fill="#5038a1"/>
        <path id="Trazado_206114" data-name="Trazado 206114" d="M66.627,7.309C62.884,2.484,50.58-3.365,42.94,4.338s-6.186,16.753-3.582,22.627c2.031,4.581,4.266,7.294,9.031,10.484.973.651,10.189,3.853,12.184,3.494,1.364-.246,3.839-9.8,4.211-9.7a1.732,1.732,0,0,0,1.686-1.091c.256-1.134.114-8.305.5-9s3.949-8.32-.34-13.851" transform="translate(6.418 0.104)" fill="#ffbd95"/>
        <path id="Trazado_206115" data-name="Trazado 206115" d="M68.593,12.16s-6.577-5.337-16.845,1.646c-2.21,1.5.265,9.8-.325,10.406-.632.652-6.264-6.786-6.142-5.869,1.244,9.343-2.347,13.8-3.147,13.734-2.428-.22-7.908-14-2.688-23.6S55.43-.436,57.886.516,67.916,3.274,68.593,12.16" transform="translate(6.418 0)" fill="#8d3b26"/>
        <path id="Trazado_206116" data-name="Trazado 206116" d="M48.184,18.464c.413,2.976.222,6.87-1.342,7.087s-3.167-2.021-3.58-5,.523-5.566,2.087-5.783,2.423.716,2.836,3.693" transform="translate(7.434 2.539)" fill="#ffbd95"/>
        <rect id="Rectángulo_47141" data-name="Rectángulo 47141" width="21.829" height="2.403" transform="translate(136.134 120.336)" fill="#b84c00"/>
        <rect id="Rectángulo_47142" data-name="Rectángulo 47142" width="21.829" height="2.404" transform="translate(136.134 117.932)" fill="#7e0000"/>
        <rect id="Rectángulo_47143" data-name="Rectángulo 47143" width="21.829" height="2.404" transform="translate(136.134 115.67)" fill="#b84c00"/>
        <rect id="Rectángulo_47144" data-name="Rectángulo 47144" width="21.829" height="2.403" transform="translate(136.134 113.269)" fill="#7e0000"/>
        <rect id="Rectángulo_47145" data-name="Rectángulo 47145" width="21.829" height="2.404" transform="translate(136.134 111.006)" fill="#b84c00"/>
        <path id="Trazado_206117" data-name="Trazado 206117" d="M115.514,95.222c.165-.374-.656-1.272,2.26-1.272s19.571-.3,20.3,0,.649,2.5.574,3.159.309,3.991.086,4.664-.393,1.659-1.259,1.754c-.621.068-1-3.566-1-4.7s-.823-3.145-2.02-2.776-3.591.637-3.143,2.224.543,2.552.749,3.158c.523,1.545-2.694,1.346-2.395-.15s.449-3.292-.673-4.039-1.795-1.86-3.44-1.192-1.013,3.837-2.115,2.776-.653-3.3-1.4-3.38-.822,8.045-1.795,8.388-.748-7.939-1.2-8.088-2.171,2.095-2.806,2.095-.726-2.619-.726-2.619" transform="translate(19.894 16.158)" fill="#470000"/>
        <rect id="Rectángulo_47146" data-name="Rectángulo 47146" width="21.829" height="2.404" transform="translate(136.134 122.597)" fill="#7e0000"/>
        <path id="Trazado_206118" data-name="Trazado 206118" d="M133.8,91.889h-5.594a1.131,1.131,0,0,0,0,2.261H133.8a1.131,1.131,0,0,0,0-2.261" transform="translate(21.886 15.826)" fill="#b8d1ff"/>
        <path id="Trazado_206119" data-name="Trazado 206119" d="M132.551,91.491c0,.661-.726,1.2-1.62,1.2s-1.62-.536-1.62-1.2.726-1.2,1.62-1.2,1.62.536,1.62,1.2" transform="translate(22.271 15.551)" fill="#c90000"/>
        <path id="Trazado_206120" data-name="Trazado 206120" d="M146.1,106.214c0,2.92-8.767,5.287-19.583,5.287s-19.582-2.367-19.582-5.287Z" transform="translate(18.418 18.293)" fill="#12263f"/>
        <path id="Trazado_206121" data-name="Trazado 206121" d="M135.552,110.835H114.817a.114.114,0,0,1-.114-.113v-.529a.114.114,0,0,1,.114-.114h20.735a.115.115,0,0,1,.114.114v.529a.114.114,0,0,1-.114.113" transform="translate(19.755 18.959)" fill="#12263f"/>
        <path id="Trazado_206122" data-name="Trazado 206122" d="M73.8,78.679c0,4.792-4.671,8.678-10.435,8.678s-10.435-3.886-10.435-8.678S57.6,70,63.361,70,73.8,73.887,73.8,78.679" transform="translate(9.115 12.056)" fill="#12263f"/>
        <path id="Trazado_206123" data-name="Trazado 206123" d="M55.356,82.43s-3.872.241-5.05-2.395-2.02-6.172-2.581-6.621A11.924,11.924,0,0,0,46,72.4l2.79-.393a5.33,5.33,0,0,1,2.132,2.3c.729,1.571,3.86.98,3.86.98s2.539,2.745.573,7.138" transform="translate(7.922 12.402)" fill="#12263f"/>
        <path id="Trazado_206124" data-name="Trazado 206124" d="M68.03,72.333s4.313-2.487,6.165-1.533,2.469,6.021,1.683,7.779-5.061,5.579-6.627,5.07A1.071,1.071,0,0,1,69.2,81.57c.56,0,4.487-2.58,4.936-3.534s.505-5.218-.785-5.329-3.534,1.513-4.151,1.57-1.727-1.026-1.172-1.944" transform="translate(11.691 12.156)" fill="#12263f"/>
        <path id="Trazado_206125" data-name="Trazado 206125" d="M66.848,70.869c0,1.084-1.959,1.963-4.376,1.963S58.1,71.954,58.1,70.869s1.959-1.963,4.376-1.963,4.376.879,4.376,1.963" transform="translate(10.006 11.867)" fill="#12263f"/>
        <path id="Trazado_206126" data-name="Trazado 206126" d="M63.206,68.477a1.2,1.2,0,1,1-1.2-1.2,1.2,1.2,0,0,1,1.2,1.2" transform="translate(10.471 11.586)" fill="#12263f"/>
        <rect id="Rectángulo_47147" data-name="Rectángulo 47147" width="60.325" height="2.544" transform="translate(41.471 98.14)" fill="#303030"/>
      </g>
    </g>
  </g>
</svg>
