<svg xmlns="http://www.w3.org/2000/svg" width="1031.014" height="222.735" viewBox="0 0 1031.014 222.735">
  <g id="Grupo_161162" data-name="Grupo 161162" transform="translate(-283.993 -11494.5)">
    <g id="Trazado_231699" data-name="Trazado 231699" transform="translate(284.007 11494.5)" fill="#5038a1">
      <path d="M 140.5 96.5 L 0.5 96.5 L 0.5 0.5 L 140.5 0.5 L 140.5 96.5 Z" stroke="none"/>
      <path d="M 1 1 L 1 96 L 140 96 L 140 1 L 1 1 M 0 0 L 141 0 L 141 97 L 0 97 L 0 0 Z" stroke="none" fill="#5038a1"/>
    </g>
    <g id="Trazado_231700" data-name="Trazado 231700" transform="translate(1174.007 11494.5)" fill="#5038a1">
      <path d="M 140.5 96.5 L 0.5 96.5 L 0.5 0.5 L 140.5 0.5 L 140.5 96.5 Z" stroke="none"/>
      <path d="M 1 1 L 1 96 L 140 96 L 140 1 L 1 1 M 0 0 L 141 0 L 141 97 L 0 97 L 0 0 Z" stroke="none" fill="#5038a1"/>
    </g>
    <g id="Trazado_231701" data-name="Trazado 231701" transform="translate(434.007 11494.5)" fill="#5038a1">
      <path d="M 309.5 45.5 L 0.5 45.5 L 0.5 0.5 L 309.5 0.5 L 309.5 45.5 Z" stroke="none"/>
      <path d="M 1 1 L 1 45 L 309 45 L 309 1 L 1 1 M 0 0 L 310 0 L 310 46 L 0 46 L 0 0 Z" stroke="none" fill="#5038a1"/>
    </g>
    <g id="Trazado_231702" data-name="Trazado 231702" transform="translate(754.007 11494.5)" fill="#5038a1">
      <path d="M 410.5 45.5 L 0.5 45.5 L 0.5 0.5 L 410.5 0.5 L 410.5 45.5 Z" stroke="none"/>
      <path d="M 1 1 L 1 45 L 410 45 L 410 1 L 1 1 M 0 0 L 411 0 L 411 46 L 0 46 L 0 0 Z" stroke="none" fill="#5038a1"/>
    </g>
    <path id="Trazado_231703" data-name="Trazado 231703" d="M0,0H100.342V46H0Z" transform="translate(434.4 11543.5)" fill="#8c6df2"/>
    <path id="Trazado_231704" data-name="Trazado 231704" d="M0,0H100.342V46H0Z" transform="translate(753.727 11543.5)" fill="#8c6df2"/>
    <path id="Trazado_231705" data-name="Trazado 231705" d="M0,0H100.342V46H0Z" transform="translate(539.026 11543.5)" fill="#8c6df2"/>
    <path id="Trazado_231706" data-name="Trazado 231706" d="M0,0H100.342V46H0Z" transform="translate(857.263 11543.5)" fill="#8c6df2"/>
    <path id="Trazado_231707" data-name="Trazado 231707" d="M0,0H100.342V46H0Z" transform="translate(643.568 11543.5)" fill="#8c6df2"/>
    <path id="Trazado_231708" data-name="Trazado 231708" d="M0,0H100.342V46H0Z" transform="translate(960.715 11543.5)" fill="#8c6df2"/>
    <path id="Trazado_231709" data-name="Trazado 231709" d="M0,0H100.342V46H0Z" transform="translate(1064.327 11543.5)" fill="#8c6df2"/>
    <g id="Trazado_231710" data-name="Trazado 231710" transform="translate(283.993 11594.822)" fill="#fff">
      <path d="M 140.0982818603516 37.91308975219727 L 0.4999954700469971 37.91308975219727 L 0.4999954700469971 0.4999975264072418 L 140.0982818603516 0.4999975264072418 L 140.0982818603516 37.91308975219727 Z" stroke="none"/>
      <path d="M 1 0.9999961853027344 L 1 37.41308975219727 L 139.5982818603516 37.41308975219727 L 139.5982818603516 0.9999961853027344 L 1 0.9999961853027344 M 0 -3.814697265625e-06 L 140.5982818603516 -3.814697265625e-06 L 140.5982818603516 38.41308975219727 L 0 38.41308975219727 L 0 -3.814697265625e-06 Z" stroke="none" fill="#5038a1"/>
    </g>
    <g id="Trazado_231711" data-name="Trazado 231711" transform="translate(434.4 11594.822)" fill="#fff">
      <path d="M 99.84242248535156 37.91308975219727 L 0.4999979138374329 37.91308975219727 L 0.4999979138374329 0.4999963045120239 L 99.84242248535156 0.4999963045120239 L 99.84242248535156 37.91308975219727 Z" stroke="none"/>
      <path d="M 1 0.9999961853027344 L 1 37.41308975219727 L 99.34242248535156 37.41308975219727 L 99.34242248535156 0.9999961853027344 L 1 0.9999961853027344 M 0 -3.814697265625e-06 L 100.3424224853516 -3.814697265625e-06 L 100.3424224853516 38.41308975219727 L 0 38.41308975219727 L 0 -3.814697265625e-06 Z" stroke="none" fill="#5038a1"/>
    </g>
    <g id="Trazado_231712" data-name="Trazado 231712" transform="translate(539.064 11594.822)" fill="#fff">
      <path d="M 99.84242248535156 37.91308975219727 L 0.4999979138374329 37.91308975219727 L 0.4999979138374329 0.4999963045120239 L 99.84242248535156 0.4999963045120239 L 99.84242248535156 37.91308975219727 Z" stroke="none"/>
      <path d="M 1 0.9999961853027344 L 1 37.41308975219727 L 99.34242248535156 37.41308975219727 L 99.34242248535156 0.9999961853027344 L 1 0.9999961853027344 M 0 -3.814697265625e-06 L 100.3424224853516 -3.814697265625e-06 L 100.3424224853516 38.41308975219727 L 0 38.41308975219727 L 0 -3.814697265625e-06 Z" stroke="none" fill="#5038a1"/>
    </g>
    <g id="Trazado_231713" data-name="Trazado 231713" transform="translate(643.568 11594.822)" fill="#fff">
      <path d="M 99.84242248535156 37.91308975219727 L 0.4999979138374329 37.91308975219727 L 0.4999979138374329 0.4999963045120239 L 99.84242248535156 0.4999963045120239 L 99.84242248535156 37.91308975219727 Z" stroke="none"/>
      <path d="M 1 0.9999961853027344 L 1 37.41308975219727 L 99.34242248535156 37.41308975219727 L 99.34242248535156 0.9999961853027344 L 1 0.9999961853027344 M 0 -3.814697265625e-06 L 100.3424224853516 -3.814697265625e-06 L 100.3424224853516 38.41308975219727 L 0 38.41308975219727 L 0 -3.814697265625e-06 Z" stroke="none" fill="#5038a1"/>
    </g>
    <g id="Trazado_231714" data-name="Trazado 231714" transform="translate(753.727 11594.822)" fill="#fff">
      <path d="M 99.84242248535156 37.91308975219727 L 0.4999979138374329 37.91308975219727 L 0.4999979138374329 0.4999963045120239 L 99.84242248535156 0.4999963045120239 L 99.84242248535156 37.91308975219727 Z" stroke="none"/>
      <path d="M 1 0.9999961853027344 L 1 37.41308975219727 L 99.34242248535156 37.41308975219727 L 99.34242248535156 0.9999961853027344 L 1 0.9999961853027344 M 0 -3.814697265625e-06 L 100.3424224853516 -3.814697265625e-06 L 100.3424224853516 38.41308975219727 L 0 38.41308975219727 L 0 -3.814697265625e-06 Z" stroke="none" fill="#5038a1"/>
    </g>
    <g id="Trazado_231715" data-name="Trazado 231715" transform="translate(857.255 11594.822)" fill="#fff">
      <path d="M 99.84242248535156 37.91308975219727 L 0.4999979138374329 37.91308975219727 L 0.4999979138374329 0.4999963045120239 L 99.84242248535156 0.4999963045120239 L 99.84242248535156 37.91308975219727 Z" stroke="none"/>
      <path d="M 1 0.9999961853027344 L 1 37.41308975219727 L 99.34242248535156 37.41308975219727 L 99.34242248535156 0.9999961853027344 L 1 0.9999961853027344 M 0 -3.814697265625e-06 L 100.3424224853516 -3.814697265625e-06 L 100.3424224853516 38.41308975219727 L 0 38.41308975219727 L 0 -3.814697265625e-06 Z" stroke="none" fill="#5038a1"/>
    </g>
    <g id="Trazado_231716" data-name="Trazado 231716" transform="translate(960.783 11594.822)" fill="#fff">
      <path d="M 99.84242248535156 37.91308975219727 L 0.4999979138374329 37.91308975219727 L 0.4999979138374329 0.4999963045120239 L 99.84242248535156 0.4999963045120239 L 99.84242248535156 37.91308975219727 Z" stroke="none"/>
      <path d="M 1 0.9999961853027344 L 1 37.41308975219727 L 99.34242248535156 37.41308975219727 L 99.34242248535156 0.9999961853027344 L 1 0.9999961853027344 M 0 -3.814697265625e-06 L 100.3424224853516 -3.814697265625e-06 L 100.3424224853516 38.41308975219727 L 0 38.41308975219727 L 0 -3.814697265625e-06 Z" stroke="none" fill="#5038a1"/>
    </g>
    <g id="Trazado_231717" data-name="Trazado 231717" transform="translate(1064.327 11594.822)" fill="#fff">
      <path d="M 99.84242248535156 37.91308975219727 L 0.4999979138374329 37.91308975219727 L 0.4999979138374329 0.4999963045120239 L 99.84242248535156 0.4999963045120239 L 99.84242248535156 37.91308975219727 Z" stroke="none"/>
      <path d="M 1 0.9999961853027344 L 1 37.41308975219727 L 99.34242248535156 37.41308975219727 L 99.34242248535156 0.9999961853027344 L 1 0.9999961853027344 M 0 -3.814697265625e-06 L 100.3424224853516 -3.814697265625e-06 L 100.3424224853516 38.41308975219727 L 0 38.41308975219727 L 0 -3.814697265625e-06 Z" stroke="none" fill="#5038a1"/>
    </g>
    <g id="Trazado_231718" data-name="Trazado 231718" transform="translate(1174.485 11594.822)" fill="#fff">
      <path d="M 140.0152587890625 37.91308975219727 L 0.5000112056732178 37.91308975219727 L 0.5000112056732178 0.4999975264072418 L 140.0152587890625 0.4999975264072418 L 140.0152587890625 37.91308975219727 Z" stroke="none"/>
      <path d="M 1 0.9999961853027344 L 1 37.41308975219727 L 139.5152435302734 37.41308975219727 L 139.5152435302734 0.9999961853027344 L 1 0.9999961853027344 M 0 -3.814697265625e-06 L 140.5152435302734 -3.814697265625e-06 L 140.5152435302734 38.41308975219727 L 0 38.41308975219727 L 0 -3.814697265625e-06 Z" stroke="none" fill="#5038a1"/>
    </g>
    <g id="Trazado_231719" data-name="Trazado 231719" transform="translate(283.993 11636.822)" fill="#fff">
      <path d="M 140.0982818603516 37.91308975219727 L 0.4999954700469971 37.91308975219727 L 0.4999954700469971 0.4999975264072418 L 140.0982818603516 0.4999975264072418 L 140.0982818603516 37.91308975219727 Z" stroke="none"/>
      <path d="M 1 0.9999961853027344 L 1 37.41308975219727 L 139.5982818603516 37.41308975219727 L 139.5982818603516 0.9999961853027344 L 1 0.9999961853027344 M 0 -3.814697265625e-06 L 140.5982818603516 -3.814697265625e-06 L 140.5982818603516 38.41308975219727 L 0 38.41308975219727 L 0 -3.814697265625e-06 Z" stroke="none" fill="#5038a1"/>
    </g>
    <g id="Trazado_231720" data-name="Trazado 231720" transform="translate(434.4 11636.822)" fill="#fff">
      <path d="M 99.84242248535156 37.91308975219727 L 0.4999979138374329 37.91308975219727 L 0.4999979138374329 0.4999963045120239 L 99.84242248535156 0.4999963045120239 L 99.84242248535156 37.91308975219727 Z" stroke="none"/>
      <path d="M 1 0.9999961853027344 L 1 37.41308975219727 L 99.34242248535156 37.41308975219727 L 99.34242248535156 0.9999961853027344 L 1 0.9999961853027344 M 0 -3.814697265625e-06 L 100.3424224853516 -3.814697265625e-06 L 100.3424224853516 38.41308975219727 L 0 38.41308975219727 L 0 -3.814697265625e-06 Z" stroke="none" fill="#5038a1"/>
    </g>
    <g id="Trazado_231721" data-name="Trazado 231721" transform="translate(539.064 11636.822)" fill="#fff">
      <path d="M 99.84242248535156 37.91308975219727 L 0.4999979138374329 37.91308975219727 L 0.4999979138374329 0.4999963045120239 L 99.84242248535156 0.4999963045120239 L 99.84242248535156 37.91308975219727 Z" stroke="none"/>
      <path d="M 1 0.9999961853027344 L 1 37.41308975219727 L 99.34242248535156 37.41308975219727 L 99.34242248535156 0.9999961853027344 L 1 0.9999961853027344 M 0 -3.814697265625e-06 L 100.3424224853516 -3.814697265625e-06 L 100.3424224853516 38.41308975219727 L 0 38.41308975219727 L 0 -3.814697265625e-06 Z" stroke="none" fill="#5038a1"/>
    </g>
    <g id="Trazado_231722" data-name="Trazado 231722" transform="translate(643.568 11636.822)" fill="#fff">
      <path d="M 99.84242248535156 37.91308975219727 L 0.4999979138374329 37.91308975219727 L 0.4999979138374329 0.4999963045120239 L 99.84242248535156 0.4999963045120239 L 99.84242248535156 37.91308975219727 Z" stroke="none"/>
      <path d="M 1 0.9999961853027344 L 1 37.41308975219727 L 99.34242248535156 37.41308975219727 L 99.34242248535156 0.9999961853027344 L 1 0.9999961853027344 M 0 -3.814697265625e-06 L 100.3424224853516 -3.814697265625e-06 L 100.3424224853516 38.41308975219727 L 0 38.41308975219727 L 0 -3.814697265625e-06 Z" stroke="none" fill="#5038a1"/>
    </g>
    <g id="Trazado_231723" data-name="Trazado 231723" transform="translate(753.727 11636.822)" fill="#fff">
      <path d="M 99.84242248535156 37.91308975219727 L 0.4999979138374329 37.91308975219727 L 0.4999979138374329 0.4999963045120239 L 99.84242248535156 0.4999963045120239 L 99.84242248535156 37.91308975219727 Z" stroke="none"/>
      <path d="M 1 0.9999961853027344 L 1 37.41308975219727 L 99.34242248535156 37.41308975219727 L 99.34242248535156 0.9999961853027344 L 1 0.9999961853027344 M 0 -3.814697265625e-06 L 100.3424224853516 -3.814697265625e-06 L 100.3424224853516 38.41308975219727 L 0 38.41308975219727 L 0 -3.814697265625e-06 Z" stroke="none" fill="#5038a1"/>
    </g>
    <g id="Trazado_231724" data-name="Trazado 231724" transform="translate(857.255 11636.822)" fill="#fff">
      <path d="M 99.84242248535156 37.91308975219727 L 0.4999979138374329 37.91308975219727 L 0.4999979138374329 0.4999963045120239 L 99.84242248535156 0.4999963045120239 L 99.84242248535156 37.91308975219727 Z" stroke="none"/>
      <path d="M 1 0.9999961853027344 L 1 37.41308975219727 L 99.34242248535156 37.41308975219727 L 99.34242248535156 0.9999961853027344 L 1 0.9999961853027344 M 0 -3.814697265625e-06 L 100.3424224853516 -3.814697265625e-06 L 100.3424224853516 38.41308975219727 L 0 38.41308975219727 L 0 -3.814697265625e-06 Z" stroke="none" fill="#5038a1"/>
    </g>
    <g id="Trazado_231725" data-name="Trazado 231725" transform="translate(960.783 11636.822)" fill="#fff">
      <path d="M 99.84242248535156 37.91308975219727 L 0.4999979138374329 37.91308975219727 L 0.4999979138374329 0.4999963045120239 L 99.84242248535156 0.4999963045120239 L 99.84242248535156 37.91308975219727 Z" stroke="none"/>
      <path d="M 1 0.9999961853027344 L 1 37.41308975219727 L 99.34242248535156 37.41308975219727 L 99.34242248535156 0.9999961853027344 L 1 0.9999961853027344 M 0 -3.814697265625e-06 L 100.3424224853516 -3.814697265625e-06 L 100.3424224853516 38.41308975219727 L 0 38.41308975219727 L 0 -3.814697265625e-06 Z" stroke="none" fill="#5038a1"/>
    </g>
    <g id="Trazado_231726" data-name="Trazado 231726" transform="translate(1064.327 11636.822)" fill="#fff">
      <path d="M 99.84242248535156 37.91308975219727 L 0.4999979138374329 37.91308975219727 L 0.4999979138374329 0.4999963045120239 L 99.84242248535156 0.4999963045120239 L 99.84242248535156 37.91308975219727 Z" stroke="none"/>
      <path d="M 1 0.9999961853027344 L 1 37.41308975219727 L 99.34242248535156 37.41308975219727 L 99.34242248535156 0.9999961853027344 L 1 0.9999961853027344 M 0 -3.814697265625e-06 L 100.3424224853516 -3.814697265625e-06 L 100.3424224853516 38.41308975219727 L 0 38.41308975219727 L 0 -3.814697265625e-06 Z" stroke="none" fill="#5038a1"/>
    </g>
    <g id="Trazado_231727" data-name="Trazado 231727" transform="translate(1174.485 11636.822)" fill="#fff">
      <path d="M 140.0152587890625 37.91308975219727 L 0.5000112056732178 37.91308975219727 L 0.5000112056732178 0.4999975264072418 L 140.0152587890625 0.4999975264072418 L 140.0152587890625 37.91308975219727 Z" stroke="none"/>
      <path d="M 1 0.9999961853027344 L 1 37.41308975219727 L 139.5152435302734 37.41308975219727 L 139.5152435302734 0.9999961853027344 L 1 0.9999961853027344 M 0 -3.814697265625e-06 L 140.5152435302734 -3.814697265625e-06 L 140.5152435302734 38.41308975219727 L 0 38.41308975219727 L 0 -3.814697265625e-06 Z" stroke="none" fill="#5038a1"/>
    </g>
    <g id="Trazado_231728" data-name="Trazado 231728" transform="translate(283.993 11678.822)" fill="#fff">
      <path d="M 140.0982818603516 37.91308975219727 L 0.4999954700469971 37.91308975219727 L 0.4999954700469971 0.4999975264072418 L 140.0982818603516 0.4999975264072418 L 140.0982818603516 37.91308975219727 Z" stroke="none"/>
      <path d="M 1 0.9999961853027344 L 1 37.41308975219727 L 139.5982818603516 37.41308975219727 L 139.5982818603516 0.9999961853027344 L 1 0.9999961853027344 M 0 -3.814697265625e-06 L 140.5982818603516 -3.814697265625e-06 L 140.5982818603516 38.41308975219727 L 0 38.41308975219727 L 0 -3.814697265625e-06 Z" stroke="none" fill="#5038a1"/>
    </g>
    <g id="Trazado_231729" data-name="Trazado 231729" transform="translate(434.4 11678.822)" fill="#fff">
      <path d="M 99.84242248535156 37.91308975219727 L 0.4999979138374329 37.91308975219727 L 0.4999979138374329 0.4999963045120239 L 99.84242248535156 0.4999963045120239 L 99.84242248535156 37.91308975219727 Z" stroke="none"/>
      <path d="M 1 0.9999961853027344 L 1 37.41308975219727 L 99.34242248535156 37.41308975219727 L 99.34242248535156 0.9999961853027344 L 1 0.9999961853027344 M 0 -3.814697265625e-06 L 100.3424224853516 -3.814697265625e-06 L 100.3424224853516 38.41308975219727 L 0 38.41308975219727 L 0 -3.814697265625e-06 Z" stroke="none" fill="#5038a1"/>
    </g>
    <g id="Trazado_231730" data-name="Trazado 231730" transform="translate(539.064 11678.822)" fill="#fff">
      <path d="M 99.84242248535156 37.91308975219727 L 0.4999979138374329 37.91308975219727 L 0.4999979138374329 0.4999963045120239 L 99.84242248535156 0.4999963045120239 L 99.84242248535156 37.91308975219727 Z" stroke="none"/>
      <path d="M 1 0.9999961853027344 L 1 37.41308975219727 L 99.34242248535156 37.41308975219727 L 99.34242248535156 0.9999961853027344 L 1 0.9999961853027344 M 0 -3.814697265625e-06 L 100.3424224853516 -3.814697265625e-06 L 100.3424224853516 38.41308975219727 L 0 38.41308975219727 L 0 -3.814697265625e-06 Z" stroke="none" fill="#5038a1"/>
    </g>
    <g id="Trazado_231731" data-name="Trazado 231731" transform="translate(643.568 11678.822)" fill="#fff">
      <path d="M 99.84242248535156 37.91308975219727 L 0.4999979138374329 37.91308975219727 L 0.4999979138374329 0.4999963045120239 L 99.84242248535156 0.4999963045120239 L 99.84242248535156 37.91308975219727 Z" stroke="none"/>
      <path d="M 1 0.9999961853027344 L 1 37.41308975219727 L 99.34242248535156 37.41308975219727 L 99.34242248535156 0.9999961853027344 L 1 0.9999961853027344 M 0 -3.814697265625e-06 L 100.3424224853516 -3.814697265625e-06 L 100.3424224853516 38.41308975219727 L 0 38.41308975219727 L 0 -3.814697265625e-06 Z" stroke="none" fill="#5038a1"/>
    </g>
    <g id="Trazado_231732" data-name="Trazado 231732" transform="translate(753.727 11678.822)" fill="#fff">
      <path d="M 99.84242248535156 37.91308975219727 L 0.4999979138374329 37.91308975219727 L 0.4999979138374329 0.4999963045120239 L 99.84242248535156 0.4999963045120239 L 99.84242248535156 37.91308975219727 Z" stroke="none"/>
      <path d="M 1 0.9999961853027344 L 1 37.41308975219727 L 99.34242248535156 37.41308975219727 L 99.34242248535156 0.9999961853027344 L 1 0.9999961853027344 M 0 -3.814697265625e-06 L 100.3424224853516 -3.814697265625e-06 L 100.3424224853516 38.41308975219727 L 0 38.41308975219727 L 0 -3.814697265625e-06 Z" stroke="none" fill="#5038a1"/>
    </g>
    <g id="Trazado_231733" data-name="Trazado 231733" transform="translate(857.255 11678.822)" fill="#fff">
      <path d="M 99.84242248535156 37.91308975219727 L 0.4999979138374329 37.91308975219727 L 0.4999979138374329 0.4999963045120239 L 99.84242248535156 0.4999963045120239 L 99.84242248535156 37.91308975219727 Z" stroke="none"/>
      <path d="M 1 0.9999961853027344 L 1 37.41308975219727 L 99.34242248535156 37.41308975219727 L 99.34242248535156 0.9999961853027344 L 1 0.9999961853027344 M 0 -3.814697265625e-06 L 100.3424224853516 -3.814697265625e-06 L 100.3424224853516 38.41308975219727 L 0 38.41308975219727 L 0 -3.814697265625e-06 Z" stroke="none" fill="#5038a1"/>
    </g>
    <g id="Trazado_231734" data-name="Trazado 231734" transform="translate(960.783 11678.822)" fill="#fff">
      <path d="M 99.84242248535156 37.91308975219727 L 0.4999979138374329 37.91308975219727 L 0.4999979138374329 0.4999963045120239 L 99.84242248535156 0.4999963045120239 L 99.84242248535156 37.91308975219727 Z" stroke="none"/>
      <path d="M 1 0.9999961853027344 L 1 37.41308975219727 L 99.34242248535156 37.41308975219727 L 99.34242248535156 0.9999961853027344 L 1 0.9999961853027344 M 0 -3.814697265625e-06 L 100.3424224853516 -3.814697265625e-06 L 100.3424224853516 38.41308975219727 L 0 38.41308975219727 L 0 -3.814697265625e-06 Z" stroke="none" fill="#5038a1"/>
    </g>
    <g id="Trazado_231735" data-name="Trazado 231735" transform="translate(1064.327 11678.822)" fill="#fff">
      <path d="M 99.84242248535156 37.91308975219727 L 0.4999979138374329 37.91308975219727 L 0.4999979138374329 0.4999963045120239 L 99.84242248535156 0.4999963045120239 L 99.84242248535156 37.91308975219727 Z" stroke="none"/>
      <path d="M 1 0.9999961853027344 L 1 37.41308975219727 L 99.34242248535156 37.41308975219727 L 99.34242248535156 0.9999961853027344 L 1 0.9999961853027344 M 0 -3.814697265625e-06 L 100.3424224853516 -3.814697265625e-06 L 100.3424224853516 38.41308975219727 L 0 38.41308975219727 L 0 -3.814697265625e-06 Z" stroke="none" fill="#5038a1"/>
    </g>
    <g id="Trazado_231736" data-name="Trazado 231736" transform="translate(1174.485 11678.822)" fill="#fff">
      <path d="M 140.0152587890625 37.91308975219727 L 0.5000112056732178 37.91308975219727 L 0.5000112056732178 0.4999975264072418 L 140.0152587890625 0.4999975264072418 L 140.0152587890625 37.91308975219727 Z" stroke="none"/>
      <path d="M 1 0.9999961853027344 L 1 37.41308975219727 L 139.5152435302734 37.41308975219727 L 139.5152435302734 0.9999961853027344 L 1 0.9999961853027344 M 0 -3.814697265625e-06 L 140.5152435302734 -3.814697265625e-06 L 140.5152435302734 38.41308975219727 L 0 38.41308975219727 L 0 -3.814697265625e-06 Z" stroke="none" fill="#5038a1"/>
    </g>
    <path id="Trazado_231737" data-name="Trazado 231737" d="M37.756,15H35.413L30.85,7.516V15H28.506V3.625H30.85l4.57,7.5v-7.5h2.336ZM39.3,10.7a5.013,5.013,0,0,1,.484-2.242A3.546,3.546,0,0,1,41.182,6.93,4.069,4.069,0,0,1,43.3,6.391a3.849,3.849,0,0,1,2.793,1.047A4.2,4.2,0,0,1,47.3,10.281l.016.578a4.418,4.418,0,0,1-1.086,3.121,4.209,4.209,0,0,1-5.832,0A4.5,4.5,0,0,1,39.3,10.8Zm2.258.16a3.16,3.16,0,0,0,.453,1.843,1.628,1.628,0,0,0,2.578.008,3.457,3.457,0,0,0,.461-2.015,3.128,3.128,0,0,0-.461-1.831,1.5,1.5,0,0,0-1.3-.649,1.474,1.474,0,0,0-1.281.646A3.516,3.516,0,0,0,41.561,10.856Zm9.258-4.309.07.945a2.971,2.971,0,0,1,2.43-1.1A2.255,2.255,0,0,1,55.561,7.68,2.9,2.9,0,0,1,58.1,6.391a2.521,2.521,0,0,1,2.047.8,3.681,3.681,0,0,1,.672,2.41V15H58.553V9.6a1.616,1.616,0,0,0-.281-1.053,1.245,1.245,0,0,0-.992-.333,1.409,1.409,0,0,0-1.406.971L55.881,15H53.624V9.6a1.6,1.6,0,0,0-.289-1.065,1.257,1.257,0,0,0-.984-.329,1.463,1.463,0,0,0-1.391.8V15H48.7V6.547Zm19.352,4.3A5.119,5.119,0,0,1,69.3,14.02a2.872,2.872,0,0,1-2.422,1.137,2.639,2.639,0,0,1-2.2-1.055l-.1.9H62.553V3h2.258V7.3a2.571,2.571,0,0,1,2.055-.914,2.9,2.9,0,0,1,2.426,1.137,5.126,5.126,0,0,1,.879,3.2Zm-2.258-.172A3.381,3.381,0,0,0,67.506,8.8,1.372,1.372,0,0,0,66.3,8.211a1.489,1.489,0,0,0-1.484.885v3.346a1.509,1.509,0,0,0,1.5.893,1.4,1.4,0,0,0,1.438-1.081A5.6,5.6,0,0,0,67.913,10.679Zm8.4-2.015A6.134,6.134,0,0,0,75.5,8.6a1.654,1.654,0,0,0-1.68.867V15H71.561V6.547h2.133l.063,1.008a2.092,2.092,0,0,1,1.883-1.164,2.366,2.366,0,0,1,.7.1Zm4.828,6.492a4.15,4.15,0,0,1-3.027-1.141,4.054,4.054,0,0,1-1.168-3.039v-.219a5.106,5.106,0,0,1,.492-2.277,3.612,3.612,0,0,1,1.395-1.547,3.914,3.914,0,0,1,2.059-.543,3.508,3.508,0,0,1,2.73,1.094,4.444,4.444,0,0,1,1,3.1v.922H79.233a2.1,2.1,0,0,0,.66,1.328,2,2,0,0,0,1.395.5,2.437,2.437,0,0,0,2.039-.945l1.109,1.242a3.389,3.389,0,0,1-1.375,1.121A4.511,4.511,0,0,1,81.139,15.156Zm-.258-6.945a1.411,1.411,0,0,0-1.09.455,2.357,2.357,0,0,0-.535,1.3H82.4V9.788a1.681,1.681,0,0,0-.406-1.165A1.456,1.456,0,0,0,80.881,8.211Zm8.648,2.5a5.094,5.094,0,0,1,.887-3.148,2.877,2.877,0,0,1,2.426-1.172,2.589,2.589,0,0,1,2.039.922V3h2.266V15H95.108L95,14.1a2.657,2.657,0,0,1-2.172,1.055,2.869,2.869,0,0,1-2.395-1.176A5.258,5.258,0,0,1,89.53,10.711Zm2.258.161A3.355,3.355,0,0,0,92.2,12.7a1.348,1.348,0,0,0,1.2.636,1.51,1.51,0,0,0,1.477-.887V9.1a1.489,1.489,0,0,0-1.461-.887Q91.788,8.211,91.788,10.872Zm11,4.285a4.15,4.15,0,0,1-3.027-1.141,4.054,4.054,0,0,1-1.168-3.039v-.219a5.106,5.106,0,0,1,.492-2.277,3.612,3.612,0,0,1,1.395-1.547,3.914,3.914,0,0,1,2.059-.543,3.508,3.508,0,0,1,2.73,1.094,4.444,4.444,0,0,1,1,3.1v.922h-5.383a2.1,2.1,0,0,0,.66,1.328,2,2,0,0,0,1.395.5,2.437,2.437,0,0,0,2.039-.945l1.109,1.242a3.389,3.389,0,0,1-1.375,1.121A4.511,4.511,0,0,1,102.788,15.156Zm-.258-6.945a1.411,1.411,0,0,0-1.09.455,2.357,2.357,0,0,0-.535,1.3h3.141V9.788a1.681,1.681,0,0,0-.406-1.165A1.456,1.456,0,0,0,102.53,8.211Zm7.4,6.789h-2.266V3h2.266ZM41.549,31.469a2.818,2.818,0,0,1,2.258-1.078q2.75,0,2.789,3.2V39H44.338V33.636a1.577,1.577,0,0,0-.312-1.077,1.338,1.338,0,0,0-1.039-.348,1.536,1.536,0,0,0-1.437.767V39H39.291V27h2.258Zm11.813,6.672a2.831,2.831,0,0,1-2.312,1.016,2.67,2.67,0,0,1-2.074-.781,3.335,3.335,0,0,1-.73-2.289V30.547H50.5v5.467q0,1.322,1.2,1.322a1.63,1.63,0,0,0,1.578-.8V30.547h2.266V39H53.424Zm7.781,1.016a4.15,4.15,0,0,1-3.027-1.141,4.054,4.054,0,0,1-1.168-3.039v-.219a5.106,5.106,0,0,1,.492-2.277,3.612,3.612,0,0,1,1.395-1.547,3.914,3.914,0,0,1,2.059-.543,3.508,3.508,0,0,1,2.73,1.094,4.444,4.444,0,0,1,1,3.1v.922H59.237a2.1,2.1,0,0,0,.66,1.328,2,2,0,0,0,1.395.5,2.437,2.437,0,0,0,2.039-.945l1.109,1.242a3.389,3.389,0,0,1-1.375,1.121A4.511,4.511,0,0,1,61.143,39.156Zm-.258-6.945a1.411,1.411,0,0,0-1.09.455,2.357,2.357,0,0,0-.535,1.3H62.4v-.181a1.681,1.681,0,0,0-.406-1.165A1.456,1.456,0,0,0,60.885,32.211Zm.2-5.211h2.461l-2.164,2.422H59.549Zm9.391,9.664a.727.727,0,0,0-.41-.652,4.659,4.659,0,0,0-1.316-.426q-3.016-.633-3.016-2.562a2.323,2.323,0,0,1,.934-1.879,3.766,3.766,0,0,1,2.441-.754,4.053,4.053,0,0,1,2.574.758,2.388,2.388,0,0,1,.965,1.969H70.393a1.092,1.092,0,0,0-.312-.8A1.322,1.322,0,0,0,69.1,32a1.351,1.351,0,0,0-.883.258.814.814,0,0,0-.312.656.7.7,0,0,0,.355.605,3.657,3.657,0,0,0,1.2.4,9.8,9.8,0,0,1,1.422.379,2.336,2.336,0,0,1,1.789,2.273,2.2,2.2,0,0,1-.992,1.871,4.28,4.28,0,0,1-2.562.715,4.47,4.47,0,0,1-1.887-.379,3.166,3.166,0,0,1-1.293-1.039,2.414,2.414,0,0,1-.469-1.426h2.141a1.179,1.179,0,0,0,.445.922,1.766,1.766,0,0,0,1.109.32,1.635,1.635,0,0,0,.98-.246A.766.766,0,0,0,70.479,36.664Zm11.258-1.812a5.07,5.07,0,0,1-.887,3.129,2.843,2.843,0,0,1-2.395,1.176,2.633,2.633,0,0,1-2.07-.891V42.25H74.127v-11.7h2.094l.078.828a2.654,2.654,0,0,1,2.141-.984,2.862,2.862,0,0,1,2.43,1.156,5.207,5.207,0,0,1,.867,3.188Zm-2.258-.172a3.345,3.345,0,0,0-.418-1.826,1.36,1.36,0,0,0-1.215-.643,1.478,1.478,0,0,0-1.461.815V36.5a1.5,1.5,0,0,0,1.477.839Q79.479,37.336,79.479,34.679Zm7.547,4.477A4.15,4.15,0,0,1,84,38.016a4.054,4.054,0,0,1-1.168-3.039v-.219a5.106,5.106,0,0,1,.492-2.277,3.612,3.612,0,0,1,1.395-1.547,3.914,3.914,0,0,1,2.059-.543,3.508,3.508,0,0,1,2.73,1.094,4.444,4.444,0,0,1,1,3.1v.922H85.12a2.1,2.1,0,0,0,.66,1.328,2,2,0,0,0,1.395.5,2.437,2.437,0,0,0,2.039-.945l1.109,1.242a3.389,3.389,0,0,1-1.375,1.121A4.511,4.511,0,0,1,87.026,39.156Zm-.258-6.945a1.411,1.411,0,0,0-1.09.455,2.357,2.357,0,0,0-.535,1.3h3.141v-.181a1.681,1.681,0,0,0-.406-1.165A1.456,1.456,0,0,0,86.768,32.211Zm4.664,2.5a5.094,5.094,0,0,1,.887-3.148,2.877,2.877,0,0,1,2.426-1.172,2.589,2.589,0,0,1,2.039.922V27h2.266V39H97.01l-.109-.9a2.657,2.657,0,0,1-2.172,1.055,2.869,2.869,0,0,1-2.395-1.176A5.258,5.258,0,0,1,91.432,34.711Zm2.258.161A3.355,3.355,0,0,0,94.1,36.7a1.348,1.348,0,0,0,1.2.636,1.51,1.51,0,0,0,1.477-.887V33.1a1.489,1.489,0,0,0-1.461-.887Q93.69,32.211,93.69,34.872Z" transform="translate(284.462 11521.738)" fill="#fff"/>
    <path id="Trazado_231738" data-name="Trazado 231738" d="M39.971,15H37.627L33.065,7.516V15H30.721V3.625h2.344l4.57,7.5v-7.5h2.336Zm6.961-.859a2.831,2.831,0,0,1-2.312,1.016,2.67,2.67,0,0,1-2.074-.781,3.335,3.335,0,0,1-.73-2.289V6.547h2.258v5.467q0,1.322,1.2,1.322a1.63,1.63,0,0,0,1.578-.8V6.547H49.12V15H46.995ZM45.924,3h2.461L46.221,5.422H44.385ZM52.94,6.547l.07.945a2.971,2.971,0,0,1,2.43-1.1A2.255,2.255,0,0,1,57.682,7.68a2.9,2.9,0,0,1,2.539-1.289,2.521,2.521,0,0,1,2.047.8A3.681,3.681,0,0,1,62.94,9.6V15H60.674V9.6a1.616,1.616,0,0,0-.281-1.053,1.245,1.245,0,0,0-.992-.333,1.409,1.409,0,0,0-1.406.971L58,15H55.745V9.6a1.6,1.6,0,0,0-.289-1.065,1.257,1.257,0,0,0-.984-.329,1.463,1.463,0,0,0-1.391.8V15H50.823V6.547Zm15.625,8.609a4.15,4.15,0,0,1-3.027-1.141,4.054,4.054,0,0,1-1.168-3.039v-.219a5.106,5.106,0,0,1,.492-2.277,3.612,3.612,0,0,1,1.395-1.547,3.914,3.914,0,0,1,2.059-.543,3.508,3.508,0,0,1,2.73,1.094,4.444,4.444,0,0,1,1,3.1v.922H66.659a2.1,2.1,0,0,0,.66,1.328,2,2,0,0,0,1.395.5,2.437,2.437,0,0,0,2.039-.945l1.109,1.242a3.389,3.389,0,0,1-1.375,1.121A4.511,4.511,0,0,1,68.565,15.156Zm-.258-6.945a1.411,1.411,0,0,0-1.09.455,2.357,2.357,0,0,0-.535,1.3h3.141V9.788a1.681,1.681,0,0,0-.406-1.165A1.456,1.456,0,0,0,68.307,8.211Zm9.766.453A6.134,6.134,0,0,0,77.26,8.6a1.654,1.654,0,0,0-1.68.867V15H73.323V6.547h2.133l.063,1.008A2.092,2.092,0,0,1,77.4,6.391a2.366,2.366,0,0,1,.7.1Zm.453,2.031a5.013,5.013,0,0,1,.484-2.242A3.546,3.546,0,0,1,80.4,6.93a4.069,4.069,0,0,1,2.113-.539,3.849,3.849,0,0,1,2.793,1.047,4.2,4.2,0,0,1,1.207,2.844l.016.578a4.418,4.418,0,0,1-1.086,3.121,4.209,4.209,0,0,1-5.832,0,4.5,4.5,0,0,1-1.09-3.187Zm2.258.16a3.16,3.16,0,0,0,.453,1.843,1.628,1.628,0,0,0,2.578.008,3.457,3.457,0,0,0,.461-2.015,3.128,3.128,0,0,0-.461-1.831,1.5,1.5,0,0,0-1.3-.649,1.474,1.474,0,0,0-1.281.646A3.516,3.516,0,0,0,80.784,10.856Zm10.773-.145a5.094,5.094,0,0,1,.887-3.148A2.877,2.877,0,0,1,94.87,6.391a2.589,2.589,0,0,1,2.039.922V3h2.266V15H97.135l-.109-.9a2.657,2.657,0,0,1-2.172,1.055,2.869,2.869,0,0,1-2.395-1.176A5.258,5.258,0,0,1,91.557,10.711Zm2.258.161a3.355,3.355,0,0,0,.414,1.829,1.348,1.348,0,0,0,1.2.636,1.51,1.51,0,0,0,1.477-.887V9.1a1.489,1.489,0,0,0-1.461-.887Q93.815,8.211,93.815,10.872Zm11,4.285a4.15,4.15,0,0,1-3.027-1.141,4.054,4.054,0,0,1-1.168-3.039v-.219a5.106,5.106,0,0,1,.492-2.277,3.612,3.612,0,0,1,1.395-1.547,3.914,3.914,0,0,1,2.059-.543,3.508,3.508,0,0,1,2.73,1.094,4.444,4.444,0,0,1,1,3.1v.922h-5.383a2.1,2.1,0,0,0,.66,1.328,2,2,0,0,0,1.395.5A2.437,2.437,0,0,0,107,12.391l1.109,1.242a3.389,3.389,0,0,1-1.375,1.121A4.511,4.511,0,0,1,104.815,15.156Zm-.258-6.945a1.411,1.411,0,0,0-1.09.455,2.357,2.357,0,0,0-.535,1.3h3.141V9.788a1.681,1.681,0,0,0-.406-1.165A1.456,1.456,0,0,0,104.557,8.211ZM34.6,31.469a2.818,2.818,0,0,1,2.258-1.078q2.75,0,2.789,3.2V39H37.385V33.636a1.577,1.577,0,0,0-.312-1.077,1.338,1.338,0,0,0-1.039-.348,1.536,1.536,0,0,0-1.437.767V39H32.338V27H34.6ZM46.245,39a2.507,2.507,0,0,1-.227-.758,2.732,2.732,0,0,1-2.133.914,3,3,0,0,1-2.059-.719,2.312,2.312,0,0,1-.816-1.812,2.389,2.389,0,0,1,1-2.062,4.915,4.915,0,0,1,2.879-.727h1.039v-.484a1.393,1.393,0,0,0-.3-.937,1.183,1.183,0,0,0-.949-.352,1.345,1.345,0,0,0-.895.273.929.929,0,0,0-.324.75H41.2a2.268,2.268,0,0,1,.453-1.359,3,3,0,0,1,1.281-.98,4.669,4.669,0,0,1,1.859-.355,3.689,3.689,0,0,1,2.48.785,2.747,2.747,0,0,1,.918,2.207v3.664a4.041,4.041,0,0,0,.336,1.82V39Zm-1.867-1.57a1.945,1.945,0,0,0,.922-.223,1.462,1.462,0,0,0,.625-.6V35.156h-.844q-1.7,0-1.8,1.172l-.008.133a.9.9,0,0,0,.3.7A1.153,1.153,0,0,0,44.377,37.43Zm13.164-2.578a5.119,5.119,0,0,1-.867,3.168,2.872,2.872,0,0,1-2.422,1.137,2.639,2.639,0,0,1-2.2-1.055l-.1.9H49.924V27h2.258v4.3a2.571,2.571,0,0,1,2.055-.914,2.9,2.9,0,0,1,2.426,1.137,5.126,5.126,0,0,1,.879,3.2Zm-2.258-.172a3.381,3.381,0,0,0-.406-1.877,1.372,1.372,0,0,0-1.211-.592,1.489,1.489,0,0,0-1.484.885v3.346a1.509,1.509,0,0,0,1.5.893,1.4,1.4,0,0,0,1.438-1.081A5.6,5.6,0,0,0,55.284,34.679ZM61.315,39H59.049V30.547h2.266Zm-2.4-10.641a1.112,1.112,0,0,1,.34-.836,1.465,1.465,0,0,1,1.848,0,1.193,1.193,0,0,1,0,1.68,1.448,1.448,0,0,1-1.836,0A1.108,1.108,0,0,1,58.916,28.359Zm6.961.109v2.078h1.445V32.2H65.877v4.219a1.007,1.007,0,0,0,.18.672.9.9,0,0,0,.688.2,3.6,3.6,0,0,0,.664-.055v1.711a4.648,4.648,0,0,1-1.367.2,2.156,2.156,0,0,1-2.422-2.4V32.2H62.385V30.547H63.62V28.469ZM73.479,39a2.507,2.507,0,0,1-.227-.758,2.732,2.732,0,0,1-2.133.914,3,3,0,0,1-2.059-.719,2.312,2.312,0,0,1-.816-1.812,2.389,2.389,0,0,1,1-2.062,4.915,4.915,0,0,1,2.879-.727h1.039v-.484a1.393,1.393,0,0,0-.3-.937,1.183,1.183,0,0,0-.949-.352,1.345,1.345,0,0,0-.895.273.929.929,0,0,0-.324.75H68.432a2.268,2.268,0,0,1,.453-1.359,3,3,0,0,1,1.281-.98,4.669,4.669,0,0,1,1.859-.355,3.689,3.689,0,0,1,2.48.785,2.747,2.747,0,0,1,.918,2.207v3.664a4.041,4.041,0,0,0,.336,1.82V39Zm-1.867-1.57a1.945,1.945,0,0,0,.922-.223,1.462,1.462,0,0,0,.625-.6V35.156h-.844q-1.7,0-1.8,1.172l-.008.133a.9.9,0,0,0,.3.7A1.153,1.153,0,0,0,71.612,37.43Zm9.063-.094a1.481,1.481,0,0,0,1.016-.344,1.2,1.2,0,0,0,.406-.914h2.117a2.9,2.9,0,0,1-.469,1.574,3.093,3.093,0,0,1-1.262,1.109,3.949,3.949,0,0,1-1.77.395A3.67,3.67,0,0,1,77.854,38a4.56,4.56,0,0,1-1.047-3.184v-.148a4.508,4.508,0,0,1,1.039-3.117A3.627,3.627,0,0,1,80.7,30.391a3.555,3.555,0,0,1,2.543.9,3.2,3.2,0,0,1,.973,2.4H82.1a1.551,1.551,0,0,0-.406-1.072,1.51,1.51,0,0,0-2.223.163,3.333,3.333,0,0,0-.4,1.866v.235a3.375,3.375,0,0,0,.4,1.878A1.377,1.377,0,0,0,80.674,37.336ZM87.885,39H85.62V30.547h2.266Zm-2.4-10.641a1.112,1.112,0,0,1,.34-.836,1.465,1.465,0,0,1,1.848,0,1.193,1.193,0,0,1,0,1.68,1.448,1.448,0,0,1-1.836,0A1.108,1.108,0,0,1,85.487,28.359ZM89.393,34.7a5.013,5.013,0,0,1,.484-2.242,3.546,3.546,0,0,1,1.395-1.523,4.069,4.069,0,0,1,2.113-.539,3.849,3.849,0,0,1,2.793,1.047,4.2,4.2,0,0,1,1.207,2.844l.016.578a4.418,4.418,0,0,1-1.086,3.121,4.209,4.209,0,0,1-5.832,0,4.5,4.5,0,0,1-1.09-3.187Zm2.258.16A3.16,3.16,0,0,0,92.1,36.7a1.628,1.628,0,0,0,2.578.008,3.457,3.457,0,0,0,.461-2.015,3.128,3.128,0,0,0-.461-1.831,1.5,1.5,0,0,0-1.3-.649,1.474,1.474,0,0,0-1.281.646A3.516,3.516,0,0,0,91.651,34.856ZM93.831,27h2.461l-2.164,2.422H92.291Zm7.039,3.547.07.977a2.951,2.951,0,0,1,2.43-1.133,2.453,2.453,0,0,1,2,.789,3.682,3.682,0,0,1,.672,2.359V39h-2.258V33.581a1.47,1.47,0,0,0-.312-1.045,1.4,1.4,0,0,0-1.039-.325,1.553,1.553,0,0,0-1.43.814V39H98.745V30.547ZM42.315,63a2.507,2.507,0,0,1-.227-.758,2.732,2.732,0,0,1-2.133.914,3,3,0,0,1-2.059-.719,2.312,2.312,0,0,1-.816-1.812,2.389,2.389,0,0,1,1-2.062,4.915,4.915,0,0,1,2.879-.727h1.039v-.484a1.393,1.393,0,0,0-.3-.937,1.183,1.183,0,0,0-.949-.352,1.345,1.345,0,0,0-.895.273.929.929,0,0,0-.324.75H37.268a2.268,2.268,0,0,1,.453-1.359A3,3,0,0,1,39,54.746a4.669,4.669,0,0,1,1.859-.355,3.689,3.689,0,0,1,2.48.785,2.747,2.747,0,0,1,.918,2.207v3.664a4.041,4.041,0,0,0,.336,1.82V63Zm-1.867-1.57a1.945,1.945,0,0,0,.922-.223,1.462,1.462,0,0,0,.625-.6V59.156h-.844q-1.7,0-1.8,1.172l-.008.133a.9.9,0,0,0,.3.7A1.153,1.153,0,0,0,40.448,61.43Zm10.125-.766a.727.727,0,0,0-.41-.652,4.659,4.659,0,0,0-1.316-.426q-3.016-.633-3.016-2.562a2.323,2.323,0,0,1,.934-1.879,3.766,3.766,0,0,1,2.441-.754,4.053,4.053,0,0,1,2.574.758,2.388,2.388,0,0,1,.965,1.969H50.487a1.092,1.092,0,0,0-.312-.8A1.322,1.322,0,0,0,49.2,56a1.351,1.351,0,0,0-.883.258.814.814,0,0,0-.312.656.7.7,0,0,0,.355.605,3.657,3.657,0,0,0,1.2.4,9.8,9.8,0,0,1,1.422.379,2.336,2.336,0,0,1,1.789,2.273,2.205,2.205,0,0,1-.992,1.871,4.28,4.28,0,0,1-2.562.715,4.47,4.47,0,0,1-1.887-.379,3.166,3.166,0,0,1-1.293-1.039,2.414,2.414,0,0,1-.469-1.426h2.141a1.179,1.179,0,0,0,.445.922,1.766,1.766,0,0,0,1.109.32,1.635,1.635,0,0,0,.98-.246A.766.766,0,0,0,50.573,60.664ZM56.6,63H54.338V54.547H56.6Zm-2.4-10.641a1.112,1.112,0,0,1,.34-.836,1.465,1.465,0,0,1,1.848,0,1.193,1.193,0,0,1,0,1.68,1.448,1.448,0,0,1-1.836,0A1.108,1.108,0,0,1,54.206,52.359Zm3.93,6.352a4.954,4.954,0,0,1,.926-3.133,3,3,0,0,1,2.5-1.187,2.631,2.631,0,0,1,2.164.953l.094-.8h2.047v8.172a3.613,3.613,0,0,1-.5,1.93A3.236,3.236,0,0,1,63.94,65.9a4.985,4.985,0,0,1-2.141.43,4.635,4.635,0,0,1-1.812-.371A3.217,3.217,0,0,1,58.651,65l1-1.375a2.645,2.645,0,0,0,2.047.945,1.936,1.936,0,0,0,1.4-.48,1.8,1.8,0,0,0,.5-1.363v-.453a2.612,2.612,0,0,1-2.055.883,2.992,2.992,0,0,1-2.465-1.191,4.953,4.953,0,0,1-.941-3.16Zm2.258.161a3.1,3.1,0,0,0,.461,1.809,1.465,1.465,0,0,0,1.266.655,1.567,1.567,0,0,0,1.477-.777V56.988a1.563,1.563,0,0,0-1.461-.777,1.474,1.474,0,0,0-1.277.667A3.5,3.5,0,0,0,60.393,58.872Zm9.281-4.325.07.977a2.951,2.951,0,0,1,2.43-1.133,2.453,2.453,0,0,1,2,.789,3.682,3.682,0,0,1,.672,2.359V63H72.588V57.581a1.47,1.47,0,0,0-.312-1.045,1.4,1.4,0,0,0-1.039-.325,1.553,1.553,0,0,0-1.43.814V63H67.549V54.547ZM81.456,63a2.507,2.507,0,0,1-.227-.758,2.732,2.732,0,0,1-2.133.914,3,3,0,0,1-2.059-.719,2.312,2.312,0,0,1-.816-1.812,2.389,2.389,0,0,1,1-2.062,4.915,4.915,0,0,1,2.879-.727h1.039v-.484a1.393,1.393,0,0,0-.3-.937,1.183,1.183,0,0,0-.949-.352,1.345,1.345,0,0,0-.895.273.929.929,0,0,0-.324.75H76.409a2.268,2.268,0,0,1,.453-1.359,3,3,0,0,1,1.281-.98A4.669,4.669,0,0,1,80,54.391a3.689,3.689,0,0,1,2.48.785,2.747,2.747,0,0,1,.918,2.207v3.664a4.041,4.041,0,0,0,.336,1.82V63Zm-1.867-1.57a1.945,1.945,0,0,0,.922-.223,1.462,1.462,0,0,0,.625-.6V59.156h-.844q-1.7,0-1.8,1.172l-.008.133a.9.9,0,0,0,.3.7A1.153,1.153,0,0,0,79.588,61.43Zm5.2-2.719a5.094,5.094,0,0,1,.887-3.148A2.877,2.877,0,0,1,88.1,54.391a2.589,2.589,0,0,1,2.039.922V51H92.4V63H90.362l-.109-.9a2.657,2.657,0,0,1-2.172,1.055,2.869,2.869,0,0,1-2.395-1.176A5.258,5.258,0,0,1,84.784,58.711Zm2.258.161a3.355,3.355,0,0,0,.414,1.829,1.348,1.348,0,0,0,1.2.636,1.51,1.51,0,0,0,1.477-.887V57.1a1.489,1.489,0,0,0-1.461-.887Q87.042,56.211,87.041,58.872ZM99.049,63a2.507,2.507,0,0,1-.227-.758,2.732,2.732,0,0,1-2.133.914,3,3,0,0,1-2.059-.719,2.312,2.312,0,0,1-.816-1.812,2.389,2.389,0,0,1,1-2.062,4.915,4.915,0,0,1,2.879-.727h1.039v-.484a1.393,1.393,0,0,0-.3-.937,1.183,1.183,0,0,0-.949-.352,1.345,1.345,0,0,0-.895.273.929.929,0,0,0-.324.75H94a2.268,2.268,0,0,1,.453-1.359,3,3,0,0,1,1.281-.98,4.669,4.669,0,0,1,1.859-.355,3.689,3.689,0,0,1,2.48.785,2.747,2.747,0,0,1,.918,2.207v3.664a4.041,4.041,0,0,0,.336,1.82V63Zm-1.867-1.57a1.945,1.945,0,0,0,.922-.223,1.462,1.462,0,0,0,.625-.6V59.156h-.844q-1.7,0-1.8,1.172l-.008.133a.9.9,0,0,0,.3.7A1.153,1.153,0,0,0,97.182,61.43Z" transform="translate(1174.871 11508.5)" fill="#fff"/>
    <path id="Trazado_231739" data-name="Trazado 231739" d="M80.984,5.523H77.5V15H75.156V5.523H71.719v-1.9h9.266ZM84.555,15H82.289V6.547h2.266Zm-2.4-10.641a1.112,1.112,0,0,1,.34-.836,1.465,1.465,0,0,1,1.848,0,1.105,1.105,0,0,1,.344.836,1.108,1.108,0,0,1-.348.844,1.448,1.448,0,0,1-1.836,0A1.108,1.108,0,0,1,82.156,4.359Zm11.867,6.492a5.07,5.07,0,0,1-.887,3.129,2.843,2.843,0,0,1-2.395,1.176,2.633,2.633,0,0,1-2.07-.891V18.25H86.414V6.547h2.094l.078.828a2.654,2.654,0,0,1,2.141-.984,2.862,2.862,0,0,1,2.43,1.156,5.207,5.207,0,0,1,.867,3.188Zm-2.258-.172a3.345,3.345,0,0,0-.418-1.826,1.36,1.36,0,0,0-1.215-.643,1.478,1.478,0,0,0-1.461.815V12.5a1.5,1.5,0,0,0,1.477.839Q91.766,13.336,91.766,10.679Zm3.3.016a5.013,5.013,0,0,1,.484-2.242A3.546,3.546,0,0,1,96.949,6.93a4.069,4.069,0,0,1,2.113-.539,3.849,3.849,0,0,1,2.793,1.047,4.2,4.2,0,0,1,1.207,2.844l.016.578a4.418,4.418,0,0,1-1.086,3.121,4.209,4.209,0,0,1-5.832,0A4.5,4.5,0,0,1,95.07,10.8Zm2.258.16a3.16,3.16,0,0,0,.453,1.843,1.628,1.628,0,0,0,2.578.008,3.457,3.457,0,0,0,.461-2.015,3.128,3.128,0,0,0-.461-1.831,1.5,1.5,0,0,0-1.3-.649,1.474,1.474,0,0,0-1.281.646A3.516,3.516,0,0,0,97.328,10.856Zm10.773-.145a5.094,5.094,0,0,1,.887-3.148,2.877,2.877,0,0,1,2.426-1.172,2.589,2.589,0,0,1,2.039.922V3h2.266V15H113.68l-.109-.9a2.657,2.657,0,0,1-2.172,1.055A2.869,2.869,0,0,1,109,13.98,5.258,5.258,0,0,1,108.1,10.711Zm2.258.161a3.355,3.355,0,0,0,.414,1.829,1.348,1.348,0,0,0,1.2.636,1.51,1.51,0,0,0,1.477-.887V9.1a1.489,1.489,0,0,0-1.461-.887Q110.359,8.211,110.359,10.872Zm11,4.285a4.15,4.15,0,0,1-3.027-1.141,4.054,4.054,0,0,1-1.168-3.039v-.219a5.106,5.106,0,0,1,.492-2.277,3.612,3.612,0,0,1,1.395-1.547,3.914,3.914,0,0,1,2.059-.543,3.508,3.508,0,0,1,2.73,1.094,4.444,4.444,0,0,1,1,3.1v.922h-5.383a2.1,2.1,0,0,0,.66,1.328,2,2,0,0,0,1.395.5,2.437,2.437,0,0,0,2.039-.945l1.109,1.242a3.389,3.389,0,0,1-1.375,1.121A4.511,4.511,0,0,1,121.359,15.156ZM121.1,8.211a1.411,1.411,0,0,0-1.09.455,2.357,2.357,0,0,0-.535,1.3h3.141V9.788a1.681,1.681,0,0,0-.406-1.165A1.456,1.456,0,0,0,121.1,8.211Zm11.2-.742a2.818,2.818,0,0,1,2.258-1.078q2.75,0,2.789,3.2V15h-2.258V9.636a1.577,1.577,0,0,0-.312-1.077,1.338,1.338,0,0,0-1.039-.348,1.536,1.536,0,0,0-1.437.767V15h-2.258V3H132.3ZM143.953,15a2.507,2.507,0,0,1-.227-.758,2.732,2.732,0,0,1-2.133.914,3,3,0,0,1-2.059-.719,2.312,2.312,0,0,1-.816-1.812,2.389,2.389,0,0,1,1-2.062,4.915,4.915,0,0,1,2.879-.727h1.039V9.352a1.393,1.393,0,0,0-.3-.937,1.183,1.183,0,0,0-.949-.352,1.345,1.345,0,0,0-.895.273.929.929,0,0,0-.324.75h-2.258a2.268,2.268,0,0,1,.453-1.359,3,3,0,0,1,1.281-.98,4.669,4.669,0,0,1,1.859-.355,3.689,3.689,0,0,1,2.48.785,2.747,2.747,0,0,1,.918,2.207v3.664a4.041,4.041,0,0,0,.336,1.82V15Zm-1.867-1.57a1.945,1.945,0,0,0,.922-.223,1.462,1.462,0,0,0,.625-.6V11.156h-.844q-1.7,0-1.8,1.172l-.008.133a.9.9,0,0,0,.3.7A1.153,1.153,0,0,0,142.086,13.43Zm13.164-2.578a5.119,5.119,0,0,1-.867,3.168,2.872,2.872,0,0,1-2.422,1.137,2.639,2.639,0,0,1-2.2-1.055l-.1.9h-2.031V3h2.258V7.3a2.571,2.571,0,0,1,2.055-.914,2.9,2.9,0,0,1,2.426,1.137,5.126,5.126,0,0,1,.879,3.2Zm-2.258-.172a3.381,3.381,0,0,0-.406-1.877,1.372,1.372,0,0,0-1.211-.592,1.489,1.489,0,0,0-1.484.885v3.346a1.509,1.509,0,0,0,1.5.893,1.4,1.4,0,0,0,1.438-1.081A5.6,5.6,0,0,0,152.992,10.679ZM159.023,15h-2.266V6.547h2.266Zm-2.4-10.641a1.112,1.112,0,0,1,.34-.836,1.465,1.465,0,0,1,1.848,0,1.105,1.105,0,0,1,.344.836,1.109,1.109,0,0,1-.348.844,1.448,1.448,0,0,1-1.836,0A1.109,1.109,0,0,1,156.625,4.359Zm6.961.109V6.547h1.445V8.2h-1.445v4.219a1.007,1.007,0,0,0,.18.672.9.9,0,0,0,.688.2,3.6,3.6,0,0,0,.664-.055v1.711a4.648,4.648,0,0,1-1.367.2,2.156,2.156,0,0,1-2.422-2.4V8.2h-1.234V6.547h1.234V4.469ZM171.188,15a2.507,2.507,0,0,1-.227-.758,2.732,2.732,0,0,1-2.133.914,3,3,0,0,1-2.059-.719,2.312,2.312,0,0,1-.816-1.812,2.389,2.389,0,0,1,1-2.062,4.915,4.915,0,0,1,2.879-.727h1.039V9.352a1.393,1.393,0,0,0-.3-.937,1.183,1.183,0,0,0-.949-.352,1.345,1.345,0,0,0-.895.273.929.929,0,0,0-.324.75h-2.258a2.268,2.268,0,0,1,.453-1.359,3,3,0,0,1,1.281-.98,4.669,4.669,0,0,1,1.859-.355,3.689,3.689,0,0,1,2.48.785,2.747,2.747,0,0,1,.918,2.207v3.664a4.041,4.041,0,0,0,.336,1.82V15Zm-1.867-1.57a1.945,1.945,0,0,0,.922-.223,1.462,1.462,0,0,0,.625-.6V11.156h-.844q-1.7,0-1.8,1.172l-.008.133a.9.9,0,0,0,.3.7A1.153,1.153,0,0,0,169.32,13.43Zm9.063-.094a1.481,1.481,0,0,0,1.016-.344,1.2,1.2,0,0,0,.406-.914h2.117a2.9,2.9,0,0,1-.469,1.574,3.093,3.093,0,0,1-1.262,1.109,3.949,3.949,0,0,1-1.77.395A3.67,3.67,0,0,1,175.563,14a4.56,4.56,0,0,1-1.047-3.184v-.148a4.508,4.508,0,0,1,1.039-3.117,3.627,3.627,0,0,1,2.852-1.164,3.555,3.555,0,0,1,2.543.9,3.2,3.2,0,0,1,.973,2.4H179.8a1.551,1.551,0,0,0-.406-1.072,1.51,1.51,0,0,0-2.223.163,3.333,3.333,0,0,0-.4,1.866v.235a3.375,3.375,0,0,0,.4,1.878A1.377,1.377,0,0,0,178.383,13.336ZM185.594,15h-2.266V6.547h2.266ZM183.2,4.359a1.112,1.112,0,0,1,.34-.836,1.465,1.465,0,0,1,1.848,0,1.105,1.105,0,0,1,.344.836,1.109,1.109,0,0,1-.348.844,1.448,1.448,0,0,1-1.836,0A1.109,1.109,0,0,1,183.2,4.359ZM187.1,10.7a5.013,5.013,0,0,1,.484-2.242A3.546,3.546,0,0,1,188.98,6.93a4.069,4.069,0,0,1,2.113-.539,3.849,3.849,0,0,1,2.793,1.047,4.2,4.2,0,0,1,1.207,2.844l.016.578a4.418,4.418,0,0,1-1.086,3.121,4.209,4.209,0,0,1-5.832,0A4.5,4.5,0,0,1,187.1,10.8Zm2.258.16a3.16,3.16,0,0,0,.453,1.843,1.628,1.628,0,0,0,2.578.008,3.457,3.457,0,0,0,.461-2.015,3.128,3.128,0,0,0-.461-1.831,1.5,1.5,0,0,0-1.3-.649,1.474,1.474,0,0,0-1.281.646A3.516,3.516,0,0,0,189.359,10.856ZM191.539,3H194l-2.164,2.422H190Zm7.039,3.547.07.977a2.951,2.951,0,0,1,2.43-1.133,2.453,2.453,0,0,1,2,.789,3.682,3.682,0,0,1,.672,2.359V15h-2.258V9.581a1.47,1.47,0,0,0-.312-1.045,1.4,1.4,0,0,0-1.039-.325,1.553,1.553,0,0,0-1.43.814V15h-2.258V6.547Z" transform="translate(451.007 11507.5)" fill="#fff"/>
    <path id="Trazado_231740" data-name="Trazado 231740" d="M146.316,12.656h-4.109L141.426,15h-2.492l4.234-11.375h2.172L149.6,15h-2.492Zm-3.477-1.9h2.844L144.254,6.5Zm11.188,2.578a1.481,1.481,0,0,0,1.016-.344,1.2,1.2,0,0,0,.406-.914h2.117a2.9,2.9,0,0,1-.469,1.574,3.093,3.093,0,0,1-1.262,1.109,3.949,3.949,0,0,1-1.77.395A3.67,3.67,0,0,1,151.207,14a4.56,4.56,0,0,1-1.047-3.184v-.148A4.508,4.508,0,0,1,151.2,7.555a3.627,3.627,0,0,1,2.852-1.164,3.555,3.555,0,0,1,2.543.9,3.2,3.2,0,0,1,.973,2.4h-2.117a1.551,1.551,0,0,0-.406-1.072,1.51,1.51,0,0,0-2.223.163,3.333,3.333,0,0,0-.4,1.866v.235a3.375,3.375,0,0,0,.4,1.878A1.377,1.377,0,0,0,154.027,13.336ZM158.5,10.7a5.013,5.013,0,0,1,.484-2.242,3.546,3.546,0,0,1,1.395-1.523,4.069,4.069,0,0,1,2.113-.539,3.849,3.849,0,0,1,2.793,1.047,4.2,4.2,0,0,1,1.207,2.844l.016.578a4.418,4.418,0,0,1-1.086,3.121,4.209,4.209,0,0,1-5.832,0A4.5,4.5,0,0,1,158.5,10.8Zm2.258.16a3.16,3.16,0,0,0,.453,1.843,1.628,1.628,0,0,0,2.578.008,3.457,3.457,0,0,0,.461-2.015,3.128,3.128,0,0,0-.461-1.831,1.5,1.5,0,0,0-1.3-.649,1.474,1.474,0,0,0-1.281.646A3.516,3.516,0,0,0,160.762,10.856Zm9.258-4.309.07.945a2.971,2.971,0,0,1,2.43-1.1,2.255,2.255,0,0,1,2.242,1.289A2.9,2.9,0,0,1,177.3,6.391a2.521,2.521,0,0,1,2.047.8,3.681,3.681,0,0,1,.672,2.41V15h-2.266V9.6a1.616,1.616,0,0,0-.281-1.053,1.245,1.245,0,0,0-.992-.333,1.409,1.409,0,0,0-1.406.971L175.082,15h-2.258V9.6a1.6,1.6,0,0,0-.289-1.065,1.257,1.257,0,0,0-.984-.329,1.463,1.463,0,0,0-1.391.8V15H167.9V6.547ZM181.4,10.7a5.013,5.013,0,0,1,.484-2.242,3.546,3.546,0,0,1,1.395-1.523,4.069,4.069,0,0,1,2.113-.539,3.849,3.849,0,0,1,2.793,1.047,4.2,4.2,0,0,1,1.207,2.844l.016.578a4.418,4.418,0,0,1-1.086,3.121,4.209,4.209,0,0,1-5.832,0A4.5,4.5,0,0,1,181.4,10.8Zm2.258.16a3.16,3.16,0,0,0,.453,1.843,1.628,1.628,0,0,0,2.578.008,3.457,3.457,0,0,0,.461-2.015,3.128,3.128,0,0,0-.461-1.831,1.5,1.5,0,0,0-1.3-.649,1.474,1.474,0,0,0-1.281.646A3.516,3.516,0,0,0,183.66,10.856Zm6.789-.145a5.094,5.094,0,0,1,.887-3.148,2.877,2.877,0,0,1,2.426-1.172,2.589,2.589,0,0,1,2.039.922V3h2.266V15h-2.039l-.109-.9a2.657,2.657,0,0,1-2.172,1.055,2.869,2.869,0,0,1-2.395-1.176A5.258,5.258,0,0,1,190.449,10.711Zm2.258.161a3.355,3.355,0,0,0,.414,1.829,1.348,1.348,0,0,0,1.2.636,1.51,1.51,0,0,0,1.477-.887V9.1a1.489,1.489,0,0,0-1.461-.887Q192.707,8.211,192.707,10.872ZM204.715,15a2.507,2.507,0,0,1-.227-.758,2.732,2.732,0,0,1-2.133.914,3,3,0,0,1-2.059-.719,2.312,2.312,0,0,1-.816-1.812,2.389,2.389,0,0,1,1-2.062,4.915,4.915,0,0,1,2.879-.727h1.039V9.352a1.393,1.393,0,0,0-.3-.937,1.183,1.183,0,0,0-.949-.352,1.345,1.345,0,0,0-.895.273.929.929,0,0,0-.324.75h-2.258a2.268,2.268,0,0,1,.453-1.359,3,3,0,0,1,1.281-.98,4.669,4.669,0,0,1,1.859-.355,3.689,3.689,0,0,1,2.48.785,2.747,2.747,0,0,1,.918,2.207v3.664a4.041,4.041,0,0,0,.336,1.82V15Zm-1.867-1.57a1.945,1.945,0,0,0,.922-.223,1.462,1.462,0,0,0,.625-.6V11.156h-.844q-1.7,0-1.8,1.172l-.008.133a.9.9,0,0,0,.3.7A1.153,1.153,0,0,0,202.848,13.43Zm9.063-.094a1.481,1.481,0,0,0,1.016-.344,1.2,1.2,0,0,0,.406-.914h2.117a2.9,2.9,0,0,1-.469,1.574,3.093,3.093,0,0,1-1.262,1.109,3.949,3.949,0,0,1-1.77.395A3.67,3.67,0,0,1,209.09,14a4.56,4.56,0,0,1-1.047-3.184v-.148a4.508,4.508,0,0,1,1.039-3.117,3.627,3.627,0,0,1,2.852-1.164,3.555,3.555,0,0,1,2.543.9,3.2,3.2,0,0,1,.973,2.4h-2.117a1.551,1.551,0,0,0-.406-1.072,1.51,1.51,0,0,0-2.223.163,3.333,3.333,0,0,0-.4,1.866v.235a3.375,3.375,0,0,0,.4,1.878A1.377,1.377,0,0,0,211.91,13.336ZM219.121,15h-2.266V6.547h2.266Zm-2.4-10.641a1.112,1.112,0,0,1,.34-.836,1.465,1.465,0,0,1,1.848,0,1.105,1.105,0,0,1,.344.836,1.109,1.109,0,0,1-.348.844,1.448,1.448,0,0,1-1.836,0A1.109,1.109,0,0,1,216.723,4.359Zm3.906,6.336a5.013,5.013,0,0,1,.484-2.242,3.546,3.546,0,0,1,1.395-1.523,4.069,4.069,0,0,1,2.113-.539,3.849,3.849,0,0,1,2.793,1.047,4.2,4.2,0,0,1,1.207,2.844l.016.578a4.418,4.418,0,0,1-1.086,3.121,4.209,4.209,0,0,1-5.832,0,4.5,4.5,0,0,1-1.09-3.187Zm2.258.16a3.16,3.16,0,0,0,.453,1.843,1.628,1.628,0,0,0,2.578.008,3.457,3.457,0,0,0,.461-2.015,3.128,3.128,0,0,0-.461-1.831,1.5,1.5,0,0,0-1.3-.649,1.474,1.474,0,0,0-1.281.646A3.516,3.516,0,0,0,222.887,10.856ZM225.066,3h2.461l-2.164,2.422h-1.836Zm7.039,3.547.07.977a2.951,2.951,0,0,1,2.43-1.133,2.453,2.453,0,0,1,2,.789,3.682,3.682,0,0,1,.672,2.359V15H235.02V9.581a1.47,1.47,0,0,0-.312-1.045,1.4,1.4,0,0,0-1.039-.325,1.553,1.553,0,0,0-1.43.814V15H229.98V6.547Z" transform="translate(770.007 11507.5)" fill="#fff"/>
    <path id="Trazado_231741" data-name="Trazado 231741" d="M15.422,12.016A1.2,1.2,0,0,0,14.953,11a6.148,6.148,0,0,0-1.687-.75,11.963,11.963,0,0,1-1.93-.777A3.153,3.153,0,0,1,9.4,6.648,2.747,2.747,0,0,1,9.918,5,3.389,3.389,0,0,1,11.41,3.875a5.616,5.616,0,0,1,2.184-.406,5.112,5.112,0,0,1,2.172.441,3.458,3.458,0,0,1,1.48,1.246,3.261,3.261,0,0,1,.527,1.828H15.43a1.534,1.534,0,0,0-.492-1.215,2.023,2.023,0,0,0-1.383-.434,2.162,2.162,0,0,0-1.336.363,1.146,1.146,0,0,0-.477.957,1.1,1.1,0,0,0,.559.93,6.311,6.311,0,0,0,1.645.7A7.106,7.106,0,0,1,16.86,9.781,2.972,2.972,0,0,1,17.774,12a2.737,2.737,0,0,1-1.117,2.316,4.891,4.891,0,0,1-3.008.84,5.808,5.808,0,0,1-2.391-.48,3.783,3.783,0,0,1-1.645-1.316,3.371,3.371,0,0,1-.566-1.937H11.4q0,1.883,2.25,1.883a2.189,2.189,0,0,0,1.3-.34A1.106,1.106,0,0,0,15.422,12.016Zm7.68,3.141a4.15,4.15,0,0,1-3.027-1.141,4.054,4.054,0,0,1-1.168-3.039v-.219A5.106,5.106,0,0,1,19.4,8.48a3.612,3.612,0,0,1,1.395-1.547,3.914,3.914,0,0,1,2.059-.543,3.508,3.508,0,0,1,2.73,1.094,4.444,4.444,0,0,1,1,3.1v.922H21.2a2.1,2.1,0,0,0,.66,1.328,2,2,0,0,0,1.395.5,2.437,2.437,0,0,0,2.039-.945L26.4,13.633a3.389,3.389,0,0,1-1.375,1.121A4.511,4.511,0,0,1,23.1,15.156Zm-.258-6.945a1.411,1.411,0,0,0-1.09.455,2.357,2.357,0,0,0-.535,1.3H24.36V9.788a1.681,1.681,0,0,0-.406-1.165A1.456,1.456,0,0,0,22.844,8.211Zm7.094-1.664.07.977a2.951,2.951,0,0,1,2.43-1.133,2.453,2.453,0,0,1,2,.789,3.682,3.682,0,0,1,.672,2.359V15H32.852V9.581a1.47,1.47,0,0,0-.312-1.045A1.4,1.4,0,0,0,31.5,8.211a1.553,1.553,0,0,0-1.43.814V15H27.813V6.547Zm10.4,6.789a1.481,1.481,0,0,0,1.016-.344,1.2,1.2,0,0,0,.406-.914h2.117a2.9,2.9,0,0,1-.469,1.574,3.093,3.093,0,0,1-1.262,1.109,3.949,3.949,0,0,1-1.77.395A3.67,3.67,0,0,1,37.516,14a4.56,4.56,0,0,1-1.047-3.184v-.148a4.508,4.508,0,0,1,1.039-3.117A3.627,3.627,0,0,1,40.36,6.391a3.555,3.555,0,0,1,2.543.9,3.2,3.2,0,0,1,.973,2.4H41.758a1.551,1.551,0,0,0-.406-1.072,1.51,1.51,0,0,0-2.223.163,3.333,3.333,0,0,0-.4,1.866v.235a3.375,3.375,0,0,0,.4,1.878A1.377,1.377,0,0,0,40.336,13.336ZM47.547,15H45.282V6.547h2.266Zm-2.4-10.641a1.112,1.112,0,0,1,.34-.836,1.465,1.465,0,0,1,1.848,0,1.105,1.105,0,0,1,.344.836,1.108,1.108,0,0,1-.348.844,1.448,1.448,0,0,1-1.836,0A1.108,1.108,0,0,1,45.149,4.359ZM51.789,15H49.524V3h2.266Zm4.242,0H53.766V3h2.266Zm6.758,0a2.507,2.507,0,0,1-.227-.758,2.732,2.732,0,0,1-2.133.914,3,3,0,0,1-2.059-.719,2.312,2.312,0,0,1-.816-1.812,2.389,2.389,0,0,1,1-2.062,4.915,4.915,0,0,1,2.879-.727h1.039V9.352a1.393,1.393,0,0,0-.3-.937,1.183,1.183,0,0,0-.949-.352,1.345,1.345,0,0,0-.895.273.929.929,0,0,0-.324.75H57.742A2.268,2.268,0,0,1,58.2,7.727a3,3,0,0,1,1.281-.98,4.669,4.669,0,0,1,1.859-.355,3.689,3.689,0,0,1,2.48.785,2.747,2.747,0,0,1,.918,2.207v3.664a4.041,4.041,0,0,0,.336,1.82V15Zm-1.867-1.57a1.945,1.945,0,0,0,.922-.223,1.462,1.462,0,0,0,.625-.6V11.156h-.844q-1.7,0-1.8,1.172l-.008.133a.9.9,0,0,0,.3.7A1.153,1.153,0,0,0,60.922,13.43Z" transform="translate(447.555 11556.234)" fill="#fff"/>
    <path id="Trazado_231742" data-name="Trazado 231742" d="M15.422,12.016A1.2,1.2,0,0,0,14.953,11a6.148,6.148,0,0,0-1.687-.75,11.963,11.963,0,0,1-1.93-.777A3.153,3.153,0,0,1,9.4,6.648,2.747,2.747,0,0,1,9.918,5,3.389,3.389,0,0,1,11.41,3.875a5.616,5.616,0,0,1,2.184-.406,5.112,5.112,0,0,1,2.172.441,3.458,3.458,0,0,1,1.48,1.246,3.261,3.261,0,0,1,.527,1.828H15.43a1.534,1.534,0,0,0-.492-1.215,2.023,2.023,0,0,0-1.383-.434,2.162,2.162,0,0,0-1.336.363,1.146,1.146,0,0,0-.477.957,1.1,1.1,0,0,0,.559.93,6.311,6.311,0,0,0,1.645.7A7.106,7.106,0,0,1,16.86,9.781,2.972,2.972,0,0,1,17.774,12a2.737,2.737,0,0,1-1.117,2.316,4.891,4.891,0,0,1-3.008.84,5.808,5.808,0,0,1-2.391-.48,3.783,3.783,0,0,1-1.645-1.316,3.371,3.371,0,0,1-.566-1.937H11.4q0,1.883,2.25,1.883a2.189,2.189,0,0,0,1.3-.34A1.106,1.106,0,0,0,15.422,12.016Zm7.68,3.141a4.15,4.15,0,0,1-3.027-1.141,4.054,4.054,0,0,1-1.168-3.039v-.219A5.106,5.106,0,0,1,19.4,8.48a3.612,3.612,0,0,1,1.395-1.547,3.914,3.914,0,0,1,2.059-.543,3.508,3.508,0,0,1,2.73,1.094,4.444,4.444,0,0,1,1,3.1v.922H21.2a2.1,2.1,0,0,0,.66,1.328,2,2,0,0,0,1.395.5,2.437,2.437,0,0,0,2.039-.945L26.4,13.633a3.389,3.389,0,0,1-1.375,1.121A4.511,4.511,0,0,1,23.1,15.156Zm-.258-6.945a1.411,1.411,0,0,0-1.09.455,2.357,2.357,0,0,0-.535,1.3H24.36V9.788a1.681,1.681,0,0,0-.406-1.165A1.456,1.456,0,0,0,22.844,8.211Zm7.094-1.664.07.977a2.951,2.951,0,0,1,2.43-1.133,2.453,2.453,0,0,1,2,.789,3.682,3.682,0,0,1,.672,2.359V15H32.852V9.581a1.47,1.47,0,0,0-.312-1.045A1.4,1.4,0,0,0,31.5,8.211a1.553,1.553,0,0,0-1.43.814V15H27.813V6.547Zm10.4,6.789a1.481,1.481,0,0,0,1.016-.344,1.2,1.2,0,0,0,.406-.914h2.117a2.9,2.9,0,0,1-.469,1.574,3.093,3.093,0,0,1-1.262,1.109,3.949,3.949,0,0,1-1.77.395A3.67,3.67,0,0,1,37.516,14a4.56,4.56,0,0,1-1.047-3.184v-.148a4.508,4.508,0,0,1,1.039-3.117A3.627,3.627,0,0,1,40.36,6.391a3.555,3.555,0,0,1,2.543.9,3.2,3.2,0,0,1,.973,2.4H41.758a1.551,1.551,0,0,0-.406-1.072,1.51,1.51,0,0,0-2.223.163,3.333,3.333,0,0,0-.4,1.866v.235a3.375,3.375,0,0,0,.4,1.878A1.377,1.377,0,0,0,40.336,13.336ZM47.547,15H45.282V6.547h2.266Zm-2.4-10.641a1.112,1.112,0,0,1,.34-.836,1.465,1.465,0,0,1,1.848,0,1.105,1.105,0,0,1,.344.836,1.108,1.108,0,0,1-.348.844,1.448,1.448,0,0,1-1.836,0A1.108,1.108,0,0,1,45.149,4.359ZM51.789,15H49.524V3h2.266Zm4.242,0H53.766V3h2.266Zm6.758,0a2.507,2.507,0,0,1-.227-.758,2.732,2.732,0,0,1-2.133.914,3,3,0,0,1-2.059-.719,2.312,2.312,0,0,1-.816-1.812,2.389,2.389,0,0,1,1-2.062,4.915,4.915,0,0,1,2.879-.727h1.039V9.352a1.393,1.393,0,0,0-.3-.937,1.183,1.183,0,0,0-.949-.352,1.345,1.345,0,0,0-.895.273.929.929,0,0,0-.324.75H57.742A2.268,2.268,0,0,1,58.2,7.727a3,3,0,0,1,1.281-.98,4.669,4.669,0,0,1,1.859-.355,3.689,3.689,0,0,1,2.48.785,2.747,2.747,0,0,1,.918,2.207v3.664a4.041,4.041,0,0,0,.336,1.82V15Zm-1.867-1.57a1.945,1.945,0,0,0,.922-.223,1.462,1.462,0,0,0,.625-.6V11.156h-.844q-1.7,0-1.8,1.172l-.008.133a.9.9,0,0,0,.3.7A1.153,1.153,0,0,0,60.922,13.43Z" transform="translate(766.881 11556.234)" fill="#fff"/>
    <path id="Trazado_231743" data-name="Trazado 231743" d="M17.4,15V3.625h3.5a5.315,5.315,0,0,1,2.684.676A4.712,4.712,0,0,1,25.43,6.223a5.928,5.928,0,0,1,.664,2.832v.523a5.945,5.945,0,0,1-.652,2.82,4.672,4.672,0,0,1-1.84,1.914,5.355,5.355,0,0,1-2.68.688Zm2.344-9.477v7.594h1.133a2.545,2.545,0,0,0,2.1-.9,4.06,4.06,0,0,0,.742-2.57v-.6A4.124,4.124,0,0,0,23,6.418a2.537,2.537,0,0,0-2.1-.895ZM27.3,10.7a5.013,5.013,0,0,1,.484-2.242A3.546,3.546,0,0,1,29.176,6.93a4.069,4.069,0,0,1,2.113-.539,3.849,3.849,0,0,1,2.793,1.047,4.2,4.2,0,0,1,1.207,2.844l.016.578a4.418,4.418,0,0,1-1.086,3.121A3.775,3.775,0,0,1,31.3,15.156a3.793,3.793,0,0,1-2.918-1.172A4.5,4.5,0,0,1,27.3,10.8Zm2.258.16a3.16,3.16,0,0,0,.453,1.843,1.628,1.628,0,0,0,2.578.008,3.457,3.457,0,0,0,.461-2.015,3.128,3.128,0,0,0-.461-1.831,1.5,1.5,0,0,0-1.3-.649,1.474,1.474,0,0,0-1.281.646A3.516,3.516,0,0,0,29.555,10.856Zm14.758,0a5.119,5.119,0,0,1-.867,3.168,2.872,2.872,0,0,1-2.422,1.137,2.639,2.639,0,0,1-2.2-1.055l-.1.9H36.7V3h2.258V7.3a2.571,2.571,0,0,1,2.055-.914,2.9,2.9,0,0,1,2.426,1.137,5.126,5.126,0,0,1,.879,3.2Zm-2.258-.172A3.381,3.381,0,0,0,41.649,8.8a1.372,1.372,0,0,0-1.211-.592,1.489,1.489,0,0,0-1.484.885v3.346a1.509,1.509,0,0,0,1.5.893,1.4,1.4,0,0,0,1.438-1.081A5.6,5.6,0,0,0,42.055,10.679ZM48.086,15H45.821V3h2.266Zm5.75.156a4.15,4.15,0,0,1-3.027-1.141,4.054,4.054,0,0,1-1.168-3.039v-.219a5.106,5.106,0,0,1,.492-2.277,3.612,3.612,0,0,1,1.395-1.547,3.914,3.914,0,0,1,2.059-.543,3.508,3.508,0,0,1,2.73,1.094,4.444,4.444,0,0,1,1,3.1v.922H51.93a2.1,2.1,0,0,0,.66,1.328,2,2,0,0,0,1.395.5,2.437,2.437,0,0,0,2.039-.945l1.109,1.242a3.389,3.389,0,0,1-1.375,1.121A4.511,4.511,0,0,1,53.836,15.156Zm-.258-6.945a1.411,1.411,0,0,0-1.09.455,2.357,2.357,0,0,0-.535,1.3h3.141V9.788a1.681,1.681,0,0,0-.406-1.165A1.456,1.456,0,0,0,53.578,8.211Z" transform="translate(552.181 11556.234)" fill="#fff"/>
    <path id="Trazado_231744" data-name="Trazado 231744" d="M17.4,15V3.625h3.5a5.315,5.315,0,0,1,2.684.676A4.712,4.712,0,0,1,25.43,6.223a5.928,5.928,0,0,1,.664,2.832v.523a5.945,5.945,0,0,1-.652,2.82,4.672,4.672,0,0,1-1.84,1.914,5.355,5.355,0,0,1-2.68.688Zm2.344-9.477v7.594h1.133a2.545,2.545,0,0,0,2.1-.9,4.06,4.06,0,0,0,.742-2.57v-.6A4.124,4.124,0,0,0,23,6.418a2.537,2.537,0,0,0-2.1-.895ZM27.3,10.7a5.013,5.013,0,0,1,.484-2.242A3.546,3.546,0,0,1,29.176,6.93a4.069,4.069,0,0,1,2.113-.539,3.849,3.849,0,0,1,2.793,1.047,4.2,4.2,0,0,1,1.207,2.844l.016.578a4.418,4.418,0,0,1-1.086,3.121A3.775,3.775,0,0,1,31.3,15.156a3.793,3.793,0,0,1-2.918-1.172A4.5,4.5,0,0,1,27.3,10.8Zm2.258.16a3.16,3.16,0,0,0,.453,1.843,1.628,1.628,0,0,0,2.578.008,3.457,3.457,0,0,0,.461-2.015,3.128,3.128,0,0,0-.461-1.831,1.5,1.5,0,0,0-1.3-.649,1.474,1.474,0,0,0-1.281.646A3.516,3.516,0,0,0,29.555,10.856Zm14.758,0a5.119,5.119,0,0,1-.867,3.168,2.872,2.872,0,0,1-2.422,1.137,2.639,2.639,0,0,1-2.2-1.055l-.1.9H36.7V3h2.258V7.3a2.571,2.571,0,0,1,2.055-.914,2.9,2.9,0,0,1,2.426,1.137,5.126,5.126,0,0,1,.879,3.2Zm-2.258-.172A3.381,3.381,0,0,0,41.649,8.8a1.372,1.372,0,0,0-1.211-.592,1.489,1.489,0,0,0-1.484.885v3.346a1.509,1.509,0,0,0,1.5.893,1.4,1.4,0,0,0,1.438-1.081A5.6,5.6,0,0,0,42.055,10.679ZM48.086,15H45.821V3h2.266Zm5.75.156a4.15,4.15,0,0,1-3.027-1.141,4.054,4.054,0,0,1-1.168-3.039v-.219a5.106,5.106,0,0,1,.492-2.277,3.612,3.612,0,0,1,1.395-1.547,3.914,3.914,0,0,1,2.059-.543,3.508,3.508,0,0,1,2.73,1.094,4.444,4.444,0,0,1,1,3.1v.922H51.93a2.1,2.1,0,0,0,.66,1.328,2,2,0,0,0,1.395.5,2.437,2.437,0,0,0,2.039-.945l1.109,1.242a3.389,3.389,0,0,1-1.375,1.121A4.511,4.511,0,0,1,53.836,15.156Zm-.258-6.945a1.411,1.411,0,0,0-1.09.455,2.357,2.357,0,0,0-.535,1.3h3.141V9.788a1.681,1.681,0,0,0-.406-1.165A1.456,1.456,0,0,0,53.578,8.211Z" transform="translate(870.417 11556.234)" fill="#fff"/>
    <path id="Trazado_231745" data-name="Trazado 231745" d="M14.77,10.055h-4.5v3.063h5.281V15H7.926V3.625h7.609v1.9H10.27V8.234h4.5Zm6.586,2.609a.727.727,0,0,0-.41-.652,4.659,4.659,0,0,0-1.316-.426q-3.016-.633-3.016-2.562a2.323,2.323,0,0,1,.934-1.879,3.766,3.766,0,0,1,2.441-.754,4.053,4.053,0,0,1,2.574.758,2.388,2.388,0,0,1,.965,1.969H21.27a1.092,1.092,0,0,0-.312-.8A1.322,1.322,0,0,0,19.981,8a1.351,1.351,0,0,0-.883.258.814.814,0,0,0-.312.656.7.7,0,0,0,.355.605,3.657,3.657,0,0,0,1.2.4,9.8,9.8,0,0,1,1.422.379,2.336,2.336,0,0,1,1.789,2.273,2.2,2.2,0,0,1-.992,1.871A4.28,4.28,0,0,1,20,15.156a4.47,4.47,0,0,1-1.887-.379,3.166,3.166,0,0,1-1.293-1.039,2.414,2.414,0,0,1-.469-1.426h2.141a1.179,1.179,0,0,0,.445.922,1.766,1.766,0,0,0,1.109.32,1.635,1.635,0,0,0,.98-.246A.766.766,0,0,0,21.356,12.664Zm11.258-1.812a5.07,5.07,0,0,1-.887,3.129,2.843,2.843,0,0,1-2.395,1.176,2.633,2.633,0,0,1-2.07-.891V18.25H25V6.547H27.1l.078.828a2.654,2.654,0,0,1,2.141-.984,2.862,2.862,0,0,1,2.43,1.156,5.207,5.207,0,0,1,.867,3.188Zm-2.258-.172a3.345,3.345,0,0,0-.418-1.826,1.36,1.36,0,0,0-1.215-.643,1.478,1.478,0,0,0-1.461.815V12.5a1.5,1.5,0,0,0,1.477.839Q30.356,13.336,30.356,10.679ZM37.9,15.156a4.15,4.15,0,0,1-3.027-1.141,4.054,4.054,0,0,1-1.168-3.039v-.219A5.106,5.106,0,0,1,34.2,8.48a3.612,3.612,0,0,1,1.395-1.547,3.914,3.914,0,0,1,2.059-.543,3.508,3.508,0,0,1,2.73,1.094,4.444,4.444,0,0,1,1,3.1v.922H36a2.1,2.1,0,0,0,.66,1.328,2,2,0,0,0,1.395.5,2.437,2.437,0,0,0,2.039-.945L41.2,13.633a3.389,3.389,0,0,1-1.375,1.121A4.511,4.511,0,0,1,37.9,15.156Zm-.258-6.945a1.411,1.411,0,0,0-1.09.455,2.357,2.357,0,0,0-.535,1.3H39.16V9.788a1.681,1.681,0,0,0-.406-1.165A1.456,1.456,0,0,0,37.645,8.211Zm8.531,5.125a1.481,1.481,0,0,0,1.016-.344,1.2,1.2,0,0,0,.406-.914h2.117a2.9,2.9,0,0,1-.469,1.574,3.093,3.093,0,0,1-1.262,1.109,3.949,3.949,0,0,1-1.77.395A3.67,3.67,0,0,1,43.356,14a4.56,4.56,0,0,1-1.047-3.184v-.148a4.508,4.508,0,0,1,1.039-3.117A3.627,3.627,0,0,1,46.2,6.391a3.555,3.555,0,0,1,2.543.9,3.2,3.2,0,0,1,.973,2.4H47.6a1.551,1.551,0,0,0-.406-1.072,1.51,1.51,0,0,0-2.223.163,3.333,3.333,0,0,0-.4,1.866v.235a3.375,3.375,0,0,0,.4,1.878A1.377,1.377,0,0,0,46.176,13.336ZM53.387,15H51.121V6.547h2.266Zm-2.4-10.641a1.112,1.112,0,0,1,.34-.836,1.465,1.465,0,0,1,1.848,0,1.105,1.105,0,0,1,.344.836,1.108,1.108,0,0,1-.348.844,1.448,1.448,0,0,1-1.836,0A1.108,1.108,0,0,1,50.989,4.359ZM60.145,15a2.507,2.507,0,0,1-.227-.758,2.732,2.732,0,0,1-2.133.914,3,3,0,0,1-2.059-.719,2.312,2.312,0,0,1-.816-1.812,2.389,2.389,0,0,1,1-2.062,4.915,4.915,0,0,1,2.879-.727h1.039V9.352a1.393,1.393,0,0,0-.3-.937,1.183,1.183,0,0,0-.949-.352,1.345,1.345,0,0,0-.895.273.929.929,0,0,0-.324.75H55.1a2.268,2.268,0,0,1,.453-1.359,3,3,0,0,1,1.281-.98,4.669,4.669,0,0,1,1.859-.355,3.689,3.689,0,0,1,2.48.785,2.747,2.747,0,0,1,.918,2.207v3.664a4.041,4.041,0,0,0,.336,1.82V15Zm-1.867-1.57a1.945,1.945,0,0,0,.922-.223,1.462,1.462,0,0,0,.625-.6V11.156h-.844q-1.7,0-1.8,1.172l-.008.133a.9.9,0,0,0,.3.7A1.153,1.153,0,0,0,58.278,13.43ZM66.207,15H63.942V3h2.266Z" transform="translate(656.723 11556.234)" fill="#fff"/>
    <path id="Trazado_231746" data-name="Trazado 231746" d="M25.949,5.523H22.465V15H20.121V5.523H16.684v-1.9h9.266Zm5.43,3.141a6.134,6.134,0,0,0-.812-.062,1.654,1.654,0,0,0-1.68.867V15H26.629V6.547h2.133l.063,1.008a2.092,2.092,0,0,1,1.883-1.164,2.366,2.366,0,0,1,.7.1ZM34.848,15H32.582V6.547h2.266Zm-2.4-10.641a1.112,1.112,0,0,1,.34-.836,1.465,1.465,0,0,1,1.848,0,1.105,1.105,0,0,1,.344.836,1.108,1.108,0,0,1-.348.844,1.448,1.448,0,0,1-1.836,0A1.108,1.108,0,0,1,32.449,4.359Zm11.867,6.492a5.07,5.07,0,0,1-.887,3.129,2.843,2.843,0,0,1-2.395,1.176,2.633,2.633,0,0,1-2.07-.891V18.25H36.707V6.547H38.8l.078.828a2.654,2.654,0,0,1,2.141-.984,2.862,2.862,0,0,1,2.43,1.156,5.207,5.207,0,0,1,.867,3.188Zm-2.258-.172a3.345,3.345,0,0,0-.418-1.826,1.36,1.36,0,0,0-1.215-.643,1.478,1.478,0,0,0-1.461.815V12.5a1.5,1.5,0,0,0,1.477.839Q42.059,13.336,42.059,10.679ZM48.1,15H45.832V3H48.1Zm5.75.156a4.15,4.15,0,0,1-3.027-1.141,4.054,4.054,0,0,1-1.168-3.039v-.219a5.106,5.106,0,0,1,.492-2.277,3.612,3.612,0,0,1,1.395-1.547A3.914,3.914,0,0,1,53.6,6.391a3.508,3.508,0,0,1,2.73,1.094,4.444,4.444,0,0,1,1,3.1v.922H51.942a2.1,2.1,0,0,0,.66,1.328,2,2,0,0,0,1.395.5,2.437,2.437,0,0,0,2.039-.945l1.109,1.242a3.389,3.389,0,0,1-1.375,1.121A4.511,4.511,0,0,1,53.848,15.156ZM53.59,8.211a1.411,1.411,0,0,0-1.09.455,2.357,2.357,0,0,0-.535,1.3h3.141V9.788A1.681,1.681,0,0,0,54.7,8.623,1.456,1.456,0,0,0,53.59,8.211Z" transform="translate(973.87 11556.234)" fill="#fff"/>
    <path id="Trazado_231747" data-name="Trazado 231747" d="M11.754,3.625l2.922,8.25,2.906-8.25H20.66V15H18.309V11.891l.234-5.367L15.473,15H13.864L10.8,6.531l.234,5.359V15H8.692V3.625ZM27.621,14.141a2.831,2.831,0,0,1-2.312,1.016,2.67,2.67,0,0,1-2.074-.781,3.335,3.335,0,0,1-.73-2.289V6.547h2.258v5.467q0,1.322,1.2,1.322a1.63,1.63,0,0,0,1.578-.8V6.547h2.266V15H27.684ZM26.614,3h2.461L26.91,5.422H25.074Zm7.281,12H31.629V3h2.266ZM38.457,4.469V6.547H39.9V8.2H38.457v4.219a1.007,1.007,0,0,0,.18.672.9.9,0,0,0,.688.2,3.6,3.6,0,0,0,.664-.055v1.711a4.648,4.648,0,0,1-1.367.2,2.156,2.156,0,0,1-2.422-2.4V8.2H34.965V6.547H36.2V4.469ZM43.543,15H41.278V6.547h2.266Zm-2.4-10.641a1.112,1.112,0,0,1,.34-.836,1.465,1.465,0,0,1,1.848,0,1.105,1.105,0,0,1,.344.836,1.108,1.108,0,0,1-.348.844,1.448,1.448,0,0,1-1.836,0A1.108,1.108,0,0,1,41.145,4.359Zm11.867,6.492a5.07,5.07,0,0,1-.887,3.129,2.843,2.843,0,0,1-2.395,1.176,2.633,2.633,0,0,1-2.07-.891V18.25H45.4V6.547H47.5l.078.828a2.654,2.654,0,0,1,2.141-.984,2.862,2.862,0,0,1,2.43,1.156,5.207,5.207,0,0,1,.867,3.188Zm-2.258-.172a3.345,3.345,0,0,0-.418-1.826,1.36,1.36,0,0,0-1.215-.643,1.478,1.478,0,0,0-1.461.815V12.5a1.5,1.5,0,0,0,1.477.839Q50.754,13.336,50.754,10.679ZM56.793,15H54.528V3h2.266Zm5.75.156a4.15,4.15,0,0,1-3.027-1.141,4.054,4.054,0,0,1-1.168-3.039v-.219A5.106,5.106,0,0,1,58.84,8.48a3.612,3.612,0,0,1,1.395-1.547,3.914,3.914,0,0,1,2.059-.543,3.508,3.508,0,0,1,2.73,1.094,4.444,4.444,0,0,1,1,3.1v.922H60.637a2.1,2.1,0,0,0,.66,1.328,2,2,0,0,0,1.395.5,2.437,2.437,0,0,0,2.039-.945l1.109,1.242a3.389,3.389,0,0,1-1.375,1.121A4.511,4.511,0,0,1,62.543,15.156Zm-.258-6.945a1.411,1.411,0,0,0-1.09.455,2.357,2.357,0,0,0-.535,1.3H63.8V9.788a1.681,1.681,0,0,0-.406-1.165A1.456,1.456,0,0,0,62.285,8.211Z" transform="translate(1077.481 11556.234)" fill="#fff"/>
  </g>
</svg>
