<svg xmlns="http://www.w3.org/2000/svg" width="85" height="85" viewBox="0 0 85 85">
  <g id="Capa_2" data-name="Capa 2" transform="translate(0)">
    <g id="OBJECTS" transform="translate(0 0)">
      <circle id="Elipse_4947" data-name="Elipse 4947" cx="42.5" cy="42.5" r="42.5" transform="translate(0)" fill="#fdb74d"/>
      <circle id="Elipse_4948" data-name="Elipse 4948" cx="37.215" cy="37.215" r="37.215" transform="translate(5.285 5.285)" fill="#fedc72"/>
      <g id="Icons" transform="translate(21.222 14.467)">
        <path id="Trazado_114607" data-name="Trazado 114607" d="M125.707,273.36a.72.72,0,0,1-.081-.925l4.2-6,14.447-14.462a.722.722,0,0,1,1.015,0l1.782,1.784a.72.72,0,0,1,0,1.015L132.7,269.141l-6.076,4.294a.719.719,0,0,1-.925-.079Z" transform="translate(-125.495 -223.659)" fill="#5038a1"/>
        <g id="Grupo_80526" data-name="Grupo 80526" transform="translate(12.059 32.185)" opacity="0.5">
          <rect id="Rectángulo_34362" data-name="Rectángulo 34362" width="4.028" height="3.967" transform="translate(0 2.848) rotate(-45)"/>
        </g>
        <path id="Trazado_114608" data-name="Trazado 114608" d="M172.535,131.374a3.085,3.085,0,0,0,.338-.306,6.542,6.542,0,0,0,1.439-2.176,6.642,6.642,0,0,0,.475-2.5,7.1,7.1,0,0,0-.321-2.009,18.586,18.586,0,0,0-.846-1.806A11.3,11.3,0,0,1,172.6,117c.095-.923.665-1.336,1.282-1.953l1.223-1.223,1.507-1.505,1.672-1.674L180,108.923l1.654-1.652,1.466-1.466,1.16-1.162c.282-.282.565-.563.846-.846a1.38,1.38,0,0,1,.725-.25,6.822,6.822,0,0,1,2.537-.015,7.43,7.43,0,0,1,1.263.36,6.33,6.33,0,0,1,1,.55,2.549,2.549,0,0,0,1.038.367,2.76,2.76,0,0,0,2.274-4.691l-2.582-2.581-8.663-8.663-2.508-2.515a2.751,2.751,0,0,0-4.49,3,2.655,2.655,0,0,0,.284.517,4.538,4.538,0,0,1,.636,1.541,6.809,6.809,0,0,1,.211,1.6,6.666,6.666,0,0,1-.085,1.116,1.874,1.874,0,0,1-.32,1.015c-.391.387-.78.778-1.169,1.167l-1.27,1.282-1.556,1.554-1.691,1.691-1.725,1.718-1.623,1.627L166,105.6l-1.077,1.079a2.3,2.3,0,0,1-1.246.862,10.829,10.829,0,0,1-6.426-1.1,6.827,6.827,0,0,0-3.313-.9,6.671,6.671,0,0,0-4.654,1.936,2.794,2.794,0,0,0-.306.338Z" transform="translate(-145.008 -85.547)" fill="#8c6df2"/>
        <path id="Trazado_114609" data-name="Trazado 114609" d="M190.269,124.94c.44,3.235-1.015,4.278-1.106,4.41l-11.89,11.89c-5.7,4.267-10.1-4.3-14.1-.225,5.166-1.278,9.519,5.731,14.7,1.481C190.175,129.6,192.779,129.186,190.269,124.94Z" transform="translate(-156.799 -118.278)" fill="#fff"/>
      </g>
    </g>
  </g>
</svg>
