<svg xmlns="http://www.w3.org/2000/svg" xmlns:xlink="http://www.w3.org/1999/xlink" width="241" height="241" viewBox="0 0 241 241">
  <defs>
    <clipPath id="clip-path">
      <path id="Trazado_188103" data-name="Trazado 188103" d="M209.318,50.214A85.4,85.4,0,0,1,220.5,65.682c23.54,39.834,14.444,83.87,11.4,97.476-4.917,21.951-8.509,40.5-23.255,55.958-33.5,35.119-100.142,30.572-140.312,1-4.763-3.506-43.642-32.98-47.44-77.65-.092-1.093-.137-1.907-.181-2.619-.421-6.9-2.381-49.657,27.325-83.213A102.788,102.788,0,0,1,71.358,37.179C113.183,11.742,176.212,14.276,209.318,50.214Z" transform="translate(-8.178 -8.09)" fill="#e5e1f1"/>
    </clipPath>
    <clipPath id="clip-path-2">
      <rect id="Rectángulo_47149" data-name="Rectángulo 47149" width="142.165" height="297.534" fill="none"/>
    </clipPath>
    <clipPath id="clip-path-3">
      <rect id="Rectángulo_47150" data-name="Rectángulo 47150" width="73.021" height="66.662" transform="translate(0 0)" fill="none"/>
    </clipPath>
  </defs>
  <g id="Grupo_161173" data-name="Grupo 161173" transform="translate(-1074.155 -7889)">
    <g id="Grupo_155467" data-name="Grupo 155467" transform="translate(1074.155 7889.334)">
      <rect id="Rectángulo_43932" data-name="Rectángulo 43932" width="241" height="241" transform="translate(0 -0.334)" fill="none"/>
      <g id="Grupo_132821" data-name="Grupo 132821" transform="translate(7.625 3.606)">
        <circle id="Elipse_5243" data-name="Elipse 5243" cx="42.82" cy="42.82" r="42.82" fill="#fdb74d" opacity="0.8" style="isolation: isolate"/>
        <g id="Elipse_5250" data-name="Elipse 5250" transform="translate(14.749 51.86)">
          <circle id="Elipse_5364" data-name="Elipse 5364" cx="3.33" cy="3.33" r="3.33" fill="none"/>
          <circle id="Elipse_5365" data-name="Elipse 5365" cx="2.617" cy="2.617" r="2.617" transform="translate(0.714 0.714)" fill="none" stroke="#8c6df2" stroke-width="2.372"/>
        </g>
        <circle id="Elipse_5251" data-name="Elipse 5251" cx="2.141" cy="2.141" r="2.141" transform="translate(39.49 40.441)" fill="#8c6df2"/>
      </g>
      <path id="Trazado_188103-2" data-name="Trazado 188103" d="M209.318,50.214A85.4,85.4,0,0,1,220.5,65.682c23.54,39.834,14.444,83.87,11.4,97.476-4.917,21.951-8.509,40.5-23.255,55.958-33.5,35.119-100.142,30.572-140.312,1-4.763-3.506-43.642-32.98-47.44-77.65-.092-1.093-.137-1.907-.181-2.619-.421-6.9-2.381-49.657,27.325-83.213A102.788,102.788,0,0,1,71.358,37.179C113.183,11.742,176.212,14.276,209.318,50.214Z" transform="translate(-8.178 -8.09)" fill="#e5e1f1"/>
      <path id="Trazado_139920" data-name="Trazado 139920" d="M37.808,235.332a3.388,3.388,0,0,0-.087.379,2.48,2.48,0,0,0,2.859,2.966,4.553,4.553,0,0,0,3.958-3.54,85.189,85.189,0,0,1,5.6-18.685,101.082,101.082,0,0,1,9.853-17.943l.733-1.075.767-1.055c.507-.706,1.035-1.4,1.567-2.088q1.584-2.077,3.3-4.055c.562-.665,1.158-1.3,1.733-1.955s1.19-1.271,1.782-1.905c.618-.614,1.214-1.241,1.849-1.838s1.249-1.2,1.9-1.774,1.279-1.156,1.939-1.705c.329-.276.652-.558.984-.826l1-.8c.658-.543,1.351-1.027,2.021-1.541.684-.489,1.367-.977,2.056-1.443s1.381-.924,2.085-1.34c.351-.21.7-.431,1.048-.636l1.054-.6c.177-.1.348-.2.529-.3l.549-.281,1.094-.558c.742-.345,1.472-.706,2.219-1.028a78.947,78.947,0,0,1,18.468-5.4c6.336-1.114,12.8-1.711,19.508-2.32,3.357-.308,6.775-.6,10.293-.978,1.754-.18,3.542-.4,5.346-.638.91-.129,1.815-.247,2.737-.391l2.689-.419c6.882-1.087,13.988-2.3,21.343-4a152.765,152.765,0,0,0,22.907-7.091,108.24,108.24,0,0,0,12.063-5.747,93.694,93.694,0,0,0,12.1-7.991c1.976-1.544,3.917-3.2,5.795-4.951.941-.874,1.859-1.78,2.768-2.7.451-.463.889-.91,1.341-1.4s.908-.986,1.345-1.488a76.125,76.125,0,0,0,9.144-12.821c.635-1.125,1.245-2.256,1.811-3.4.3-.6.519-1.067.771-1.578l.725-1.511c.48-1.01.928-2.04,1.366-3.073s.842-2.084,1.259-3.13A80.119,80.119,0,0,0,247.718,87.7a67.547,67.547,0,0,0,1.328-13.21,62.263,62.263,0,0,0-10.315-34.476,79.485,79.485,0,0,0-14.513-16.575,95.677,95.677,0,0,0-8.624-6.7c-1.519-1.044-3.079-2.05-4.718-3.032-.823-.49-1.66-.978-2.549-1.464-.446-.244-.9-.486-1.39-.736l-.772-.383-.439-.2-.269-.119-.406-.165c-13.6-4.756-31.625,3.124-40.246,17.6s-4.58,30.063,9.024,34.819l-.138-.069c-.032-.019-.012-.017-.012-.017l.011-.007c.007-.011.059,0,.09-.006.094.005.189.016.282.03.209.026.453.075.7.123.494.1,1.022.223,1.55.36,1.066.282,2.159.606,3.241.964a57.116,57.116,0,0,1,6.341,2.512A48.6,48.6,0,0,1,196.716,73.7a30.4,30.4,0,0,1,7.2,8.6,22.28,22.28,0,0,1,2.007,4.966,24.561,24.561,0,0,1,.848,5.561,31.438,31.438,0,0,1-.377,6.266c-.106.557-.188,1.112-.3,1.68-.133.57-.238,1.14-.384,1.72l-.432,1.685c-.1.442-.233.889-.362,1.333a24.666,24.666,0,0,1-2.33,5.225c-.122.214-.253.422-.382.633l-.445.674c-.307.451-.623.9-.964,1.349-.675.894-1.413,1.785-2.222,2.67a57.155,57.155,0,0,1-12.844,10.083q-1.942,1.177-4.014,2.268t-4.247,2.124c-2.895,1.375-5.908,2.673-9,3.9-6.191,2.466-12.686,4.655-19.387,6.811l-2.405.77c-.776.25-1.567.482-2.358.727-1.593.468-3.2.931-4.839,1.374-3.27.891-6.632,1.74-10.054,2.588-6.843,1.709-13.964,3.475-21.221,5.9a104.309,104.309,0,0,0-21.638,9.819c-.872.525-1.727,1.1-2.584,1.645-.848.586-1.685,1.141-2.532,1.753l-1.264.906c-.415.308-.82.626-1.229.938-.824.617-1.6,1.28-2.393,1.925a88.959,88.959,0,0,0-8.6,8.343,119.229,119.229,0,0,0-13.48,18.327,149,149,0,0,0-9.758,19.306,184.081,184.081,0,0,0-6.9,19.737Z" transform="translate(-15.008 -3.686)" fill="#fdb74d"/>
      <circle id="Elipse_5247" data-name="Elipse 5247" cx="16.414" cy="16.414" r="16.414" transform="translate(38.244 18.823)" fill="#8c6df2" opacity="0.7" style="isolation: isolate"/>
      <g id="Elipse_5249" data-name="Elipse 5249" transform="translate(44.609 25.287)">
        <circle id="Elipse_5369" data-name="Elipse 5369" cx="6.185" cy="6.185" r="6.185" fill="none"/>
        <circle id="Elipse_5370" data-name="Elipse 5370" cx="5.471" cy="5.471" r="5.471" transform="translate(0.714 0.714)" fill="none" stroke="#fff" stroke-width="2.372"/>
      </g>
      <g id="Elipse_5245" data-name="Elipse 5245" transform="translate(195.286 5.567)">
        <circle id="Elipse_5371" data-name="Elipse 5371" cx="17.842" cy="17.842" r="17.842" fill="none"/>
        <circle id="Elipse_5372" data-name="Elipse 5372" cx="16.89" cy="16.89" r="16.89" transform="translate(0.952 0.952)" fill="none" stroke="#fff" stroke-linecap="round" stroke-width="3.163" stroke-dasharray="2.372 6.326"/>
      </g>
      <g id="Enmascarar_grupo_136" data-name="Enmascarar grupo 136" clip-path="url(#clip-path)">
        <g id="Grupo_156270" data-name="Grupo 156270" transform="translate(50.845 23.409)">
          <g id="Grupo_156269" data-name="Grupo 156269" clip-path="url(#clip-path-2)">
            <path id="Trazado_206127" data-name="Trazado 206127" d="M50.061,96.714,40.644,33.46A17.682,17.682,0,0,1,55.225,13.241l24.029-5.2C88.72,6.632,93.1,15.725,94.541,25.436l9.417,63.254c1.446,9.712-52.45,17.735-53.9,8.024" transform="translate(8.699 1.698)" fill="#782c2b"/>
            <path id="Trazado_206128" data-name="Trazado 206128" d="M13.853,115.527c2.406-5.592,28.4-41.579,34.442-47.68a10.844,10.844,0,0,1,2.623-2.03c.648-.328,5.242-.118,5.48.546,2.584,7.214-.859,31.8-4.49,38.417-4.067,7.413-22.682,27.868-23.926,27.6-6.62-1.447-17.357-9.345-14.129-16.848" transform="translate(2.852 14.123)" fill="#ececec"/>
            <path id="Trazado_206129" data-name="Trazado 206129" d="M123.772,129.323c-.011-1.535-18.458-51.3-22.039-59.105a10.835,10.835,0,0,0-1.768-2.807c-.493-.53-4.882-1.91-5.333-1.368-4.9,5.887-10.111,30.161-8.973,37.623,1.275,8.36,20.642,40.214,21.758,40.827,8.431,4.632,16.525-9.108,16.355-15.169" transform="translate(18.39 14.178)" fill="#ececec"/>
            <path id="Trazado_206130" data-name="Trazado 206130" d="M90.375,69.135c0,6.448-11.962,31.986-18.317,31.986S54.31,75.584,54.31,69.135s8.073-5.306,18.033-5.306,18.032-1.142,18.032,5.306" transform="translate(11.681 13.712)" fill="#f0b79e"/>
            <path id="Trazado_206131" data-name="Trazado 206131" d="M71.813,85.1h0c-6.728,0-14.74-5.04-14.74-12.233l5.64-21.253c0-7.141,18.2-7.141,18.2,0l5.64,21.253c0,7.193-8.012,12.233-14.74,12.233" transform="translate(12.275 9.949)" fill="#f0b79e"/>
            <path id="Trazado_206132" data-name="Trazado 206132" d="M50.914,148.755c.23,1.21-8.143,20.136.193,20.136s55.667-2.354,55.667-2.354c.311-1.21-7.821-16.574-7.592-17.784,0,0,2.8-26.343,3.54-30.8.784-4.739,6.82-18.189,4.272-31.349,0,0,1.611-11.372.861-16.56-5.8-6.264-12.668-7.865-20.728-10.493l1.112,10.811c-1.618,7.58-12.954,16.366-12.954,16.366S63.694,77.587,61.96,69.909l1.01-10.355c-8.06,2.627-14.927,4.228-20.728,10.492-.75,5.188.861,16.56.861,16.56-2.592,10.973,3.489,26.612,4.272,31.349.739,4.456,3.54,30.8,3.54,30.8" transform="translate(9.043 12.809)" fill="#ececec"/>
            <path id="Trazado_206133" data-name="Trazado 206133" d="M99.682,110.895c-1.484,2.225-20.9,3.719-35.55,1.124-4.079-4.078-18.886-12.752-20.554-18.314-.557-2.04-.557-4.265-1.112-6.3-.026-.09-.05-.179-.075-.267.111,9.919,4.27,21.026,4.909,24.889.471,2.849,1.786,14.642,2.673,22.778,9.186,0,20.961.643,21.823-1.582s-2.39-6.842-4.152-11.857c-.372-1.112,1.333-5.232,2.074-5.232,11.626,1.148,23.57,9.021,30.349,17.8.885-8.084,2.124-19.156,2.578-21.9.495-2.987,3.077-9.438,4.28-17.1-1.462,3.394-5.2,12.9-7.243,15.969" transform="translate(9.118 18.741)" fill="#d1d7de"/>
            <path id="Trazado_206134" data-name="Trazado 206134" d="M70.654,85.673c3.821-2.538,8.261-5.278,12.628-3.872,3.406,1.095,2.346,4.366,3.919,7.414-.959-7.205,1.225-14.41.081-21.614a16,16,0,0,0-1.661-5.717,5.435,5.435,0,0,0-4.876-2.9s1.066,9.794.414,11.892-11.83,15.679-10.506,14.8" transform="translate(15.173 12.682)" fill="#f4f4f4"/>
            <path id="Trazado_206135" data-name="Trazado 206135" d="M70.956,85.456c-3.821-2.538-8.428-5.271-12.795-3.866-3.406,1.1-2.346,4.367-3.919,7.416.959-7.205-1.224-14.41-.08-21.614a15.972,15.972,0,0,1,1.66-5.717,5.435,5.435,0,0,1,4.877-2.9s-1.067,9.794-.416,11.892,12,15.672,10.672,14.792" transform="translate(11.576 12.637)" fill="#f4f4f4"/>
            <path id="Trazado_206136" data-name="Trazado 206136" d="M54.052,50.843a19,19,0,0,1-5.419-1.453,9.848,9.848,0,0,1-4.508-4.374c-1.04-2.061-1.283-4.769-.3-6.537s3.114-1.849,4.741-.55c.783.625,6.612,13.1,5.491,12.915" transform="translate(9.292 7.967)" fill="#f0c7ad"/>
            <path id="Trazado_206137" data-name="Trazado 206137" d="M81.172,44.011a28.2,28.2,0,0,0,5.589-4.253,9.912,9.912,0,0,0,2.9-6.255,6.131,6.131,0,0,0-3.265-5.786,4.783,4.783,0,0,0-5.9,2.156c-.577.971-.543,14.916.679,14.139" transform="translate(17.235 5.884)" fill="#f0c7ad"/>
            <path id="Trazado_206138" data-name="Trazado 206138" d="M58,7.011C58.372,6.9,61.919,6,62.3,5.92,73.874,3.564,85.156,2.747,88.04,21.093c0,0,3.44,21.029,3.454,25.265a18.835,18.835,0,0,1-1.587,6.38,40.728,40.728,0,0,1-4.411,8.6c-2.227,3.265-5.1,6.323-9,7.315a15.046,15.046,0,0,1-9.806-.688,36.1,36.1,0,0,1-8.831-5.193,28.345,28.345,0,0,1-5.689-5.5,7.32,7.32,0,0,1-.507-.785c-2.011-3.729-9.033-23.847-9.033-23.847C36.406,15.142,46.707,10.472,58,7.011" transform="translate(8.765 1.008)" fill="#f0c7ad"/>
            <path id="Trazado_206139" data-name="Trazado 206139" d="M75.764,67.877c8.265-2.471,13.127-12.069,13.616-20.345.207-2.831-.391-8.108-1.555-10.543-1.874-3.92-12.182-11.611-18.141-14.2a29.237,29.237,0,0,0-17.456-1.825c-3.717.659-2.547,11.823-9.585,11.7l-.01-.029C36.405,15.141,46.707,10.472,58,7.011,58.372,6.9,61.919,6,62.3,5.919,73.874,3.564,85.156,2.746,88.04,21.093c0,0,3.441,21.029,3.454,25.265a18.828,18.828,0,0,1-1.587,6.379,40.65,40.65,0,0,1-4.411,8.6c-2.227,3.264-5.1,6.323-9,7.315a15.046,15.046,0,0,1-9.806-.688,30.816,30.816,0,0,1-4.086-1.982c6.484,2.755,11.984,2.38,13.158,1.9" transform="translate(8.765 1.008)" fill="#ec9d7a"/>
            <path id="Trazado_206140" data-name="Trazado 206140" d="M94.787,33.256a6.282,6.282,0,0,1-6.388,1.79,16.944,16.944,0,0,1-6.605-3.668c-3.43-2.953-6.651-6.18-10.407-8.7s-8.193-4.338-12.709-4.021a12.27,12.27,0,0,0-9.137,4.988q.241,4.537.48,9.071c.125,2.378-.239,7.12-1.122,9.332s-2.93,4.017-5.3,3.764c0,0-11.9-26.965,2.87-32.548,0,0,1.355-4.5,7.743-8.586C62.6-.691,82.893-4.7,90.466,11.87c5.688,12.451,4.321,21.385,4.321,21.385" transform="translate(8.403 0)" fill="#782c2b"/>
            <path id="Trazado_206141" data-name="Trazado 206141" d="M74.408,136.065c5.82-.069,23.466-1.738,25.587-1.989,3.177,4.679,13.291,20.743,13.291,35.666,0,17.7-6.67,95.235-6.67,95.235a298.808,298.808,0,0,1-31.983,3.609c-15.421.714-23.412-2.277-23.412-2.277s-8.568-78.543-8.568-96.247c0-14.874,3.939-31.2,7.152-35.937,8.761.939,15.779,2.045,24.6,1.94" transform="translate(9.174 28.837)" fill="#5038a1"/>
            <path id="Trazado_206142" data-name="Trazado 206142" d="M67.6,83.249s-2.351-4.427-4.21-4.521-5.773,4.341-5.773,4.341Z" transform="translate(12.392 16.933)" fill="#f0c7ad"/>
            <path id="Trazado_206143" data-name="Trazado 206143" d="M45.186,94.638l-2.533,3.755,4.52.006,34.318-21.46L79.5,73.178Z" transform="translate(9.174 15.739)" fill="#8c6df2"/>
            <path id="Trazado_206144" data-name="Trazado 206144" d="M44.383,94.165s.067-1.2-.8-1.324l-1.122,1.434Z" transform="translate(9.133 19.969)" fill="#b3b3b3"/>
            <path id="Trazado_206145" data-name="Trazado 206145" d="M56.191,86.877l1.3,2.467L80.008,75.266,78.7,72.8Z" transform="translate(12.086 15.658)" fill="#8c6df2"/>
            <path id="Trazado_206146" data-name="Trazado 206146" d="M76.688,77.071h0a.625.625,0,0,0,.2-.81l-2.3-4.345a.524.524,0,0,0-.746-.216.625.625,0,0,0-.2.81l2.3,4.345a.524.524,0,0,0,.747.216" transform="translate(15.825 15.404)" fill="#8c6df2"/>
            <path id="Trazado_206147" data-name="Trazado 206147" d="M63.767,78.926l8.5-5.08,1.5,1.1.29-.462-1.764-1.3-8.778,5.244Z" transform="translate(13.662 15.743)" fill="#8c6df2"/>
            <path id="Trazado_206148" data-name="Trazado 206148" d="M68.3,100.428s-2.808,3.557-3.913,3.177-6.5-3.727-6.5-3.727-4-3.527-3.078-6.767S68.3,100.428,68.3,100.428" transform="translate(11.76 19.894)" fill="#f0c7ad"/>
            <path id="Trazado_206149" data-name="Trazado 206149" d="M70.07,82.536s-13.811-.766-16.9.368a2.93,2.93,0,0,0-.417,5.472c2,.937,16.4,1.751,19.428,1.756s4.2-6.389-2.115-7.6" transform="translate(10.982 17.698)" fill="#f0c7ad"/>
            <path id="Trazado_206150" data-name="Trazado 206150" d="M70.075,86.867l-.43-.022c-2.358-.118-13.7-.625-16.466.39a2.93,2.93,0,0,0-.417,5.472c2,.937,16.4,1.751,19.428,1.756s4.2-6.389-2.115-7.6" transform="translate(10.983 18.629)" fill="#f0c7ad"/>
            <path id="Trazado_206151" data-name="Trazado 206151" d="M72.213,93.255a5.262,5.262,0,0,1,.678,4.961c-.959,3.122-5.089,2.784-8.1,1.162-8.1-4.365-11.317-7.475-11.317-7.475Z" transform="translate(11.501 19.767)" fill="#f0c7ad"/>
            <path id="Trazado_206152" data-name="Trazado 206152" d="M12.7,118c-3.362-3.759-1.3-9.1-2.719-13.252A25.83,25.83,0,0,0,5.838,96.8c-1.348-1.667-.2-6,6.153-1.451,1.722,1.233,4.028,8.666,5.538,9.457,8.97,4.7-1.351,17.078-4.829,13.19" transform="translate(1.148 20.075)" fill="#f0c7ad"/>
            <path id="Trazado_206153" data-name="Trazado 206153" d="M24.926,133.541l48.54,1.605c1.208.039,2.033-1.467,1.514-2.761L52.622,76.719a2.389,2.389,0,0,0-2.079-1.606L3.816,73.568C2,73.507.766,75.766,1.545,77.707l21.994,54.764a1.594,1.594,0,0,0,1.386,1.07" transform="translate(0.281 15.823)" fill="#8c6df2"/>
            <path id="Trazado_206154" data-name="Trazado 206154" d="M23.618,133.5l48.54,1.605c1.208.039,2.033-1.467,1.514-2.761L51.314,76.675a2.389,2.389,0,0,0-2.079-1.606L2.508,73.524C.7,73.463-.542,75.722.237,77.663l21.994,54.764a1.594,1.594,0,0,0,1.386,1.07" transform="translate(0 15.814)" fill="#5038a1"/>
            <path id="Trazado_206155" data-name="Trazado 206155" d="M44.748,79.17l22.439,48.058L64,127.1Z" transform="translate(9.625 17.028)" fill="#f2f2f2"/>
            <path id="Trazado_206156" data-name="Trazado 206156" d="M12.5,80.282l25.881.855L35.543,74.9,9.662,74.043Z" transform="translate(2.078 15.925)" fill="#ffb27d"/>
            <path id="Trazado_206157" data-name="Trazado 206157" d="M33.8,81.2l.847-1.245-2.61-6.225-1.074,1.232Z" transform="translate(6.659 15.859)" fill="#fedc72"/>
            <path id="Trazado_206158" data-name="Trazado 206158" d="M36.617,73.885l-1.074,1.232-25.88-.855,1.04-1.233Z" transform="translate(2.078 15.707)" fill="#fedc72"/>
            <path id="Trazado_206159" data-name="Trazado 206159" d="M9.334,108.478s-2.712-4.218-1.767-6.591c.4-1.011,6.118-6.118,6.661-6.662s5.71,0,8.837,0,1.968,2.7-1.191,3.03c-1.835.3-5.638.708-5.638.708Z" transform="translate(1.585 20.429)" fill="#f0c7ad"/>
            <path id="Trazado_206160" data-name="Trazado 206160" d="M10.158,111.35s-2.764-4.1-1.767-6.591c.4-1.01,6.118-6.118,6.661-6.662s5.711,0,8.837,0,1.968,2.7-1.191,3.03c-1.835.3-5.638.708-5.638.708Z" transform="translate(1.758 21.047)" fill="#f0c7ad"/>
            <path id="Trazado_206161" data-name="Trazado 206161" d="M11.235,114.956s-2.774-4.815-1.767-6.591c0-1.089,6.118-6.118,6.661-6.662s5.711,0,8.837,0,1.968,2.7-1.191,3.03c-1.835.3-5.638.708-5.638.708Z" transform="translate(1.989 21.823)" fill="#f0c7ad"/>
            <path id="Trazado_206162" data-name="Trazado 206162" d="M11.924,115.56c-1.341-.181-1.749-3.842-1.749-4.8s5.811-5.4,6.328-5.879,5.423,0,8.394,0,1.869,2.379-1.132,2.674c-1.741.265-5.354.626-5.354.626s-5.146,7.561-6.487,7.38" transform="translate(2.188 22.512)" fill="#f0c7ad"/>
            <path id="Trazado_206163" data-name="Trazado 206163" d="M112.659,139.175c-6.03-2.3-13.887-8.716-18.631-12.967-9.288-8.328-34.2-27.257-34.2-27.257s4.44-5.267,7.531-9.009c0,0,49.789,28.717,56.105,35.033,4.6,4.6.439,18.48-10.8,14.2" transform="translate(12.868 19.345)" fill="#f0c7ad"/>
          </g>
        </g>
      </g>
    </g>
    <g id="Grupo_156272" data-name="Grupo 156272" transform="translate(1090.155 7908.338)">
      <g id="Grupo_156271" data-name="Grupo 156271" clip-path="url(#clip-path-3)">
        <path id="Trazado_206164" data-name="Trazado 206164" d="M59.129,52.317c1.74,4.769,6.7,13.038,13.892,14.254,0,0-12.286,1.643-19.473-8.994s5.581-5.26,5.581-5.26" fill="#8c6df2"/>
        <path id="Trazado_206165" data-name="Trazado 206165" d="M0,32.842C0,50.98,16.118,65.684,36,65.684s36-14.7,36-32.842S55.882,0,36,0,0,14.7,0,32.842" fill="#8c6df2"/>
        <path id="Trazado_206166" data-name="Trazado 206166" d="M24.313,37.3a1.3,1.3,0,0,1,.817.164,1.2,1.2,0,0,1,.2.156q-1.924,6.811-3.85,13.621l-1.028-.29q1.927-6.825,3.857-13.651" fill="#5038a1"/>
        <path id="Trazado_206167" data-name="Trazado 206167" d="M21.484,51.244l-.961,1.44-.068-1.73a.572.572,0,0,1,1.029.29" fill="#8c6df2"/>
        <path id="Trazado_206168" data-name="Trazado 206168" d="M23.251,37.9c5.477,2.409,12.291-1.079,11.845.316a8.759,8.759,0,0,1-4.91,4.424c-5.042,2.051-12.546.813-15.36-4.2-2.048-3.649-.119-8.89.167-9.037,1.563-.8,2.741,6.072,8.258,8.5" fill="#eee"/>
        <path id="Trazado_206169" data-name="Trazado 206169" d="M22.429,37.03c4.928,2.167,11.061-.971,10.659.284A7.879,7.879,0,0,1,28.669,41.3c-4.537,1.845-11.289.731-13.822-3.781-1.843-3.284-.107-8,.151-8.132,1.406-.72,2.467,5.464,7.431,7.647" fill="#f4f2f1"/>
        <path id="Trazado_206170" data-name="Trazado 206170" d="M20.933,35.439c3.93,1.729,8.821-.774,8.5.227a6.293,6.293,0,0,1-3.524,3.175c-3.619,1.472-9,.583-11.024-3.015-1.469-2.619-.085-6.38.121-6.485,1.121-.575,1.967,4.357,5.926,6.1" fill="#fff"/>
        <path id="Trazado_206171" data-name="Trazado 206171" d="M23.251,37.9c5.551,2.434,10.855,2.575,11.845.316s-2.707-6.064-8.258-8.5-10.854-2.575-11.845-.316,2.707,6.064,8.258,8.5" fill="#ffe9db"/>
        <path id="Trazado_206172" data-name="Trazado 206172" d="M21.961,36.476c4.664,2.045,9.119,2.163,9.951.265s-2.273-5.094-6.937-7.139-9.12-2.163-9.952-.265,2.274,5.094,6.938,7.139" fill="#fcefe9"/>
        <path id="Trazado_206173" data-name="Trazado 206173" d="M20.9,34.41c3.753,1.645,7.337,1.741,8.007.213s-1.83-4.1-5.582-5.744-7.338-1.741-8.007-.213,1.829,4.1,5.582,5.744" fill="#faf4f1"/>
        <path id="Trazado_206174" data-name="Trazado 206174" d="M21.263,34.952c2.443,1.069,6.084,1.507,6.793.181.722-1.351-1.62-4.5-4.534-5.719-2.773-1.16-6.5-.76-6.995.665s2.3,3.8,4.736,4.873" fill="#ffb27d"/>
        <path id="Trazado_206175" data-name="Trazado 206175" d="M21.232,33.977c1.982.868,4.937,1.223,5.512.147.586-1.1-1.314-3.651-3.679-4.641-2.25-.941-5.275-.617-5.676.54s1.864,3.088,3.843,3.954" fill="#fedc72"/>
        <path id="Trazado_206176" data-name="Trazado 206176" d="M41.357,31.376c-6.6.652-10.8-.693-13.458-2.1-1.555-.825-3.5-2.16-7.19-3.89-2.336-1.095-4.318-1.855-5.645-2.33a12.546,12.546,0,0,0,1.822,5.09,13.9,13.9,0,0,0,5.245,4.638c2.34,1.367,5.52,3.225,9.874,2.925a15.136,15.136,0,0,0,9.352-4.33" fill="#80ea00"/>
        <path id="Trazado_206177" data-name="Trazado 206177" d="M41.357,31.376a19.3,19.3,0,0,1-14.73-2.822,92.466,92.466,0,0,0-11.563-5.5s4.148-2.547,13.212,2.6,13.081,5.726,13.081,5.726" fill="#8bfb1c"/>
        <path id="Trazado_206178" data-name="Trazado 206178" d="M22.307,26.264s4.1,3.039,5.327,6.938c0,0,.134-3.9-5.327-6.938" fill="#6ec900"/>
        <path id="Trazado_206179" data-name="Trazado 206179" d="M28.111,29.47s4.127,2.69,3.982,4.615c0,0,1.208-1.906-3.982-4.615" fill="#6ec900"/>
        <path id="Trazado_206180" data-name="Trazado 206180" d="M33.505,31.427A5.441,5.441,0,0,1,37.2,34s-.112-2.318-3.694-2.57" fill="#6ec900"/>
        <path id="Trazado_206181" data-name="Trazado 206181" d="M15.064,23.052a12.286,12.286,0,0,0,3.728,1.369,12.438,12.438,0,0,0,5.629-.236c-1.227-.077-2.5-.184-3.815-.329-1.954-.215-3.8-.49-5.542-.8" fill="#78db00"/>
        <path id="Trazado_206182" data-name="Trazado 206182" d="M15.064,23.052a25.239,25.239,0,0,1,9.328,9.419s-2.3-7.388-9.328-9.419" fill="#6ec900"/>
        <path id="Trazado_206183" data-name="Trazado 206183" d="M22.307,26.264a7.659,7.659,0,0,0,6.014-.173s-2.216,2.452-6.014.173" fill="#78db00"/>
        <path id="Trazado_206184" data-name="Trazado 206184" d="M28.111,29.47s3.474.626,4.5-1.015c0,0-.031,2.456-4.5,1.015" fill="#78db00"/>
        <path id="Trazado_206185" data-name="Trazado 206185" d="M33.505,31.427s2.578.05,3.338-1.52c0,0,.592,1.939-3.338,1.52" fill="#78db00"/>
        <path id="Trazado_206186" data-name="Trazado 206186" d="M16.817,23.377c.948.155,2.324.414,3.962.845.848.223,1.687.472,4.611,1.455,1.2.405,2.778.94,4.63,1.586a29.913,29.913,0,0,0-4.43-2.584c-2.242-1.06-3.981-1.858-6.282-1.757a9.354,9.354,0,0,0-2.491.455" fill="#d1fb91"/>
        <path id="Trazado_206187" data-name="Trazado 206187" d="M31.374,28.038s4.058,1.21,5.732,2.69Z" fill="#d1fb91"/>
        <path id="Trazado_206188" data-name="Trazado 206188" d="M20.108,24.063a9.216,9.216,0,0,1-2.529-2.256c-.545-.714-1.206-1.579-.9-2.289a1.377,1.377,0,0,1,.785-.675l.494-.613a4.524,4.524,0,0,1,1.077-.97c.19-.124.379-.246.546-.353l1.052-.682,1.2-.506a1.71,1.71,0,0,1,1.966-.434c.383.167.683.28.981.41a4.5,4.5,0,0,1,2.28,2.232c.331.712.727,1.461.727,1.461Z" fill="#ffeae8"/>
        <path id="Trazado_206189" data-name="Trazado 206189" d="M40.213,19.741a4.591,4.591,0,0,1-5.345-.839C32.2,16.485,32.184,12,32.48,10.391c0,0,5.021.458,7.267,6.53Z" fill="#fedc72"/>
        <path id="Trazado_206190" data-name="Trazado 206190" d="M41.141,19.8a4.589,4.589,0,0,0,2.627-4.729c-.262-3.594-3.792-6.364-5.241-7.12,0,0-2.727,4.24.678,9.746Z" fill="#fedc72"/>
        <path id="Trazado_206191" data-name="Trazado 206191" d="M38.068,15.506a.858.858,0,0,1,1.536-.721c1.891,2.8,3.41,6.691,1.186,10.468-4.153,7.053-14.86,7.215-20.682-1.19-.124-.352-.979-2.878.269-4.247.752-.824,1.953-.884,4.256-1a20.163,20.163,0,0,1,2.953.069s2.588,7.63,8.438,4.724c3.127-1.553,2.917-5.12,2.044-8.105" fill="#ffb27d"/>
        <path id="Trazado_206192" data-name="Trazado 206192" d="M22.566,26.9s-.034-5.12,2.773-4.035,4.048-.694,4.048-.694.442,2.1-2.784,2.33a4.761,4.761,0,0,1-2.026-.362c-.5-.192-1.325.029-2.011,2.761" fill="#fedc72"/>
        <path id="Trazado_206193" data-name="Trazado 206193" d="M32.262,24.1a3.41,3.41,0,0,1-2.249,3.449c-2.449.789-2.01,2.4-2.01,2.4s-.1-1.028,1.825-1.5,4.564-3.116,2.434-4.353" fill="#fedc72"/>
        <path id="Trazado_206194" data-name="Trazado 206194" d="M36.024,23.611s2.819-.871,2.109,1.427a5.74,5.74,0,0,0-.278,3.431,4.775,4.775,0,0,1,.678-2.227c.623-.866,1.451-4.53-2.509-2.631" fill="#fedc72"/>
        <path id="Trazado_206195" data-name="Trazado 206195" d="M41.7,23a1.278,1.278,0,0,1-.657-.391c-.521-.621.04-1.441-.447-2.378-.043-.083-.395-.761-.9-.8-.549-.039-1.186.689-1.479,1.871,0,0,.319-2.829,1.77-2.841S40.83,22.23,41.7,23" fill="#fedc72"/>
        <path id="Trazado_206196" data-name="Trazado 206196" d="M28.748,23.543a1.3,1.3,0,0,1-.817-.164,1.2,1.2,0,0,1-.2-.156q1.925-6.812,3.85-13.621l1.028.29q-1.927,6.825-3.857,13.651" fill="#5038a1"/>
        <path id="Trazado_206197" data-name="Trazado 206197" d="M31.577,9.6l.961-1.44.068,1.73a.572.572,0,0,1-1.029-.29" fill="#8c6df2"/>
        <path id="Trazado_206198" data-name="Trazado 206198" d="M26.567,50.742a21.666,21.666,0,0,1,8.7,8.7s7.978-15.232,20.308-16.682V33.128S44.337,39.5,34.908,53.281l-2.9-5.8Z" fill="#fedc72"/>
      </g>
    </g>
  </g>
</svg>
