<svg id="Grupo_155517" data-name="Grupo 155517" xmlns="http://www.w3.org/2000/svg" xmlns:xlink="http://www.w3.org/1999/xlink" width="400" height="353.147" viewBox="0 0 400 353.147">
  <defs>
    <clipPath id="clip-path">
      <rect id="Rectángulo_41146" data-name="Rectángulo 41146" width="385.15" height="352.938" fill="none"/>
    </clipPath>
    <clipPath id="clip-path-2">
      <rect id="Rectángulo_47088" data-name="Rectángulo 47088" width="340.359" height="326.525" fill="none"/>
    </clipPath>
  </defs>
  <g id="Grupo_132124" data-name="Grupo 132124" transform="translate(0 0)">
    <g id="Grupo_132124-2" data-name="Grupo 132124">
      <rect id="Rectángulo_44115" data-name="Rectángulo 44115" width="399.928" height="33.139" transform="translate(0.072)" fill="#fff"/>
      <g id="Image_Place_Holder" data-name="Image Place Holder" transform="translate(0 32.838)" opacity="0.1">
        <rect id="Image_Place_Holder-2" data-name="Image Place Holder-2" width="399.482" height="320.309" fill="#fdb74d"/>
      </g>
    </g>
  </g>
  <g id="Grupo_132125" data-name="Grupo 132125" transform="translate(8.561 0.209)">
    <g id="Grupo_130781" data-name="Grupo 130781" transform="translate(0)" clip-path="url(#clip-path)">
      <g id="Grupo_130836" data-name="Grupo 130836" transform="translate(4.235 44.882)">
        <path id="Trazado_138126" data-name="Trazado 138126" d="M783.027,535.935a236.984,236.984,0,0,1-31.741-1.133,175.942,175.942,0,0,1-31.313-6.2,131.48,131.48,0,0,1-30.087-13.042,96.813,96.813,0,0,1-13.913-10.112c-1.089-.993-2.2-1.959-3.247-3.029-.528-.525-1.064-1.041-1.585-1.581l-1.539-1.657c-1.04-1.107-1.986-2.23-2.984-3.355-.945-1.159-1.918-2.3-2.816-3.5A132.509,132.509,0,0,1,646.431,460.9c-4.464-11-7.867-22.133-11.156-32.821-1.634-5.35-3.266-10.6-4.96-15.665-.839-2.545-1.709-5.019-2.587-7.468-.45-1.206-.888-2.427-1.351-3.609l-1.426-3.668c-3.984-10.209-8-20.05-12.431-29.227-2.21-4.585-4.513-9-6.94-13.171q-1.817-3.128-3.721-6.06c-1.271-1.951-2.593-3.808-3.928-5.593a63.817,63.817,0,0,0-17.019-16.384,40.007,40.007,0,0,0-4.405-2.34c-.732-.338-1.473-.632-2.206-.917l-1.1-.4c-.345-.1-.682-.219-1.029-.309a30.037,30.037,0,0,0-8.449-1.153c-.711.011-1.422.034-2.131.1l-2.7.171c-.931.058-1.836.19-2.748.27-.905.107-1.788.268-2.675.386a50.823,50.823,0,0,0-9.922,2.717,47.012,47.012,0,0,0-8.7,4.415,49.484,49.484,0,0,0-7.663,6.061,75.339,75.339,0,0,0-12.95,16.812,119.052,119.052,0,0,0-9.712,21.969q-1.992,5.949-3.414,12.1c-.471,2.029-.888,4.056-1.235,6.006-.168.976-.318,1.934-.433,2.823-.057.442-.107.876-.134,1.246-.016.164-.023.329-.023.494.005.053,0,.143.017.15l.013.013s0,.036.027-.028l.1-.271c-6.252,25.635-30.455,40.914-54.06,34.124s-37.674-33.075-31.423-58.71l.07-.282.226-.778.165-.518.287-.858.538-1.512c.348-.973.694-1.865,1.041-2.751.691-1.767,1.391-3.453,2.086-5.11,1.407-3.3,2.863-6.485,4.373-9.622,3.023-6.262,6.306-12.295,9.827-18.219a197.939,197.939,0,0,1,24.885-33.478,140.811,140.811,0,0,1,33.583-26.989,116.668,116.668,0,0,1,19.925-8.961,105.6,105.6,0,0,1,20.962-4.825,107.653,107.653,0,0,1,20.792-.594c1.691.15,3.38.267,5.049.459,1.662.216,3.331.4,4.968.668l2.45.416c.83.146,1.579.271,2.552.459,1.852.35,3.693.775,5.52,1.253a84.285,84.285,0,0,1,21.023,8.643c.831.473,1.647.982,2.462,1.483.789.5,1.563,1.005,2.334,1.521,1.532,1.043,3.043,2.113,4.506,3.248a95.82,95.82,0,0,1,8.312,7.169,108.02,108.02,0,0,1,13.66,16.236,135.654,135.654,0,0,1,10.117,17.375,213.72,213.72,0,0,1,13.176,35.041c3.327,11.557,5.85,22.957,8.164,34.048l.895,4.335c.308,1.487.57,2.955.856,4.432.528,2.932,1.029,5.852,1.473,8.728.908,5.766,1.66,11.4,2.438,16.929,1.543,11.053,3.04,21.7,5.357,31.832a111.854,111.854,0,0,0,10.126,28.424c.572,1.094,1.205,2.139,1.812,3.213l.971,1.562.486.784c.164.256.343.492.513.739l1.034,1.473c.353.484.731.955,1.1,1.434.715.976,1.521,1.88,2.294,2.818.8.923,1.623,1.813,2.457,2.714.87.861,1.7,1.774,2.607,2.6l1.349,1.264c.451.421.925.817,1.387,1.227.923.824,1.889,1.6,2.858,2.373.953.8,1.973,1.505,2.96,2.264,1,.737,2.035,1.435,3.057,2.153,1.053.663,2.095,1.351,3.161,2,1.075.621,2.136,1.3,3.235,1.892,2.179,1.233,4.407,2.363,6.682,3.419,1.135.531,2.273,1.057,3.429,1.539l1.731.734,1.756.675a117.32,117.32,0,0,0,29.159,7.1,113.644,113.644,0,0,0,29.981-.5,5.321,5.321,0,0,1,5.912,4.832,5.623,5.623,0,0,1-4.449,6.42,4.863,4.863,0,0,1-.57.052Z" transform="translate(-412.472 -258.206)" fill="#fdb74d"/>
      </g>
      <g id="Grupo_156203" data-name="Grupo 156203" transform="translate(21.886 0)">
        <g id="Grupo_156202" data-name="Grupo 156202" clip-path="url(#clip-path-2)">
          <path id="Trazado_205252" data-name="Trazado 205252" d="M133.808,46.1c-.077,7.478-4.421,11.6-12.988,12.436,3.9,1.85,7.919,3.123,12.369,2.033-1.672,4.012-5.411,6.29-9.933,7.9,4.022.648,7.919.648,11.557-.812-1.527,3.128-4.55,5.2-8.722,6.491,6.93,2.114,12.96,1.739,18.045-1.215,2.629-15.612-4.056-42.378-10.327-26.838" transform="translate(13.982 4.792)" fill="#161313"/>
          <path id="Trazado_205253" data-name="Trazado 205253" d="M173.711,46.1c.077,7.478,4.422,11.6,12.994,12.436-3.907,1.85-7.924,3.123-12.369,2.033,1.667,4.012,5.406,6.29,9.928,7.9-4.018.648-7.919.648-11.557-.812,1.529,3.128,4.55,5.2,8.722,6.491-6.929,2.114-12.96,1.739-18.044-1.215-2.624-15.612,4.056-42.378,10.326-26.838" transform="translate(18.84 4.792)" fill="#161313"/>
          <path id="Trazado_205254" data-name="Trazado 205254" d="M198.374,102.777l3.887,53-12.584,2.278-3.686-51.066Z" transform="translate(21.524 11.894)" fill="#e2c7b5"/>
          <path id="Trazado_205255" data-name="Trazado 205255" d="M171.306,60.379l-32.791-.48-3.724.97-1.283.649.312.9,10.188,28.673,2.975,23.248h16.885l1.6-22.711,10.365-25.568-1.134-4.7Z" transform="translate(15.45 6.932)" fill="#e2c7b5"/>
          <path id="Trazado_205256" data-name="Trazado 205256" d="M202.086,83.776c0-10.908-8.116-19.283-24.426-22.518,0,0-3.522,15.262-7.064,22.6-2.5,5.2-12.248,6.853-12.248,6.853s-10.8-1.97-13.546-7.381c-3.7-7.271-7.054-22.561-7.054-22.561-15.675,3.11-24.492,11.711-24.492,23.007l-5.305,23.863,18.264,6.689-.619,97.657h63.785l-.091-98.181L207.4,107.64Z" transform="translate(12.493 7.033)" fill="#fedc72"/>
          <path id="Trazado_205257" data-name="Trazado 205257" d="M162.619,51.349H145.34c-2.989,0-5.406,1.889-5.406,4.224V66.457c0,1.163,6.866,11.369,13.786,11.542S167.9,68.259,167.9,66.865c0-.048.116-11.292.116-11.292,0-2.335-2.412-4.224-5.4-4.224" transform="translate(16.194 5.942)" fill="#d1ab86"/>
          <path id="Trazado_205258" data-name="Trazado 205258" d="M181.032,32.952c-.773-.212.913.254.1,1.215.019-.465.038-.936.038-1.394,0-15.121-11.547-27.37-25.776-27.37s-25.774,12.248-25.774,27.37c0,.457,0,.928.029,1.394-.822-.961.7-1.427-.054-1.215-1.825.485-2.354,4.709-1.211,9.423,1.144,4.689,3.522,8.1,5.348,7.611.639-.179-1.254-.832-.961-1.8,4.4,11.311,12.873,21.556,22.622,21.556S173.612,59.5,177.99,48.19c.307.965-1.745,1.619-1.106,1.8,1.816.485,4.205-2.922,5.343-7.611,1.154-4.714.61-8.938-1.2-9.423" transform="translate(14.787 0.625)" fill="#ffe2c2"/>
          <path id="Trazado_205259" data-name="Trazado 205259" d="M108.205,120.823s-5.637,5.805-.5,12.364c2.648,3.387,11.24-1.629,11.24-1.629l17.8-12.086L133.6,106.46Z" transform="translate(12.214 12.32)" fill="#e2c7b5"/>
          <rect id="Rectángulo_47082" data-name="Rectángulo 47082" width="35.994" height="48.381" transform="matrix(0.974, -0.227, 0.227, 0.974, 137.231, 86.888)" fill="#f2f2f2"/>
          <path id="Trazado_205260" data-name="Trazado 205260" d="M138.063,117.6c-3.714,3.46-8.8,4.031-11.35,1.288s-1.59-7.77,2.129-11.224,8.813-4.032,11.359-1.289,1.591,7.771-2.138,11.225" transform="translate(14.499 12.109)" fill="#e2c7b5"/>
          <path id="Trazado_205261" data-name="Trazado 205261" d="M219.479,307H101.428L84.009,168.676H236.9Z" transform="translate(9.722 19.52)" fill="#aec3ff"/>
          <path id="Trazado_205262" data-name="Trazado 205262" d="M251.055,172.755H73.88a7.277,7.277,0,0,1-7.275-7.28V133.429H258.329v32.046a7.277,7.277,0,0,1-7.274,7.28" transform="translate(7.708 15.441)" fill="#c0d4ff"/>
          <path id="Trazado_205263" data-name="Trazado 205263" d="M192.169,271.609H120.677a1.821,1.821,0,1,1,0-3.642h71.492a1.821,1.821,0,1,1,0,3.642" transform="translate(13.755 31.011)" fill="#73665f"/>
          <path id="Trazado_205264" data-name="Trazado 205264" d="M182.05,107.478l5.987-3.133L198.681,124.6h.148v12.508h-7.347V125.455Z" transform="translate(21.068 12.076)" fill="#5e5e5e"/>
          <path id="Trazado_205265" data-name="Trazado 205265" d="M186.04,114.733l5.974-3.129a3.569,3.569,0,0,0,1.5-4.834L179.928,80.86a3.584,3.584,0,0,0-4.834-1.5l-5.964,3.137a3.572,3.572,0,0,0-1.513,4.824l13.588,25.9a3.59,3.59,0,0,0,4.834,1.51" transform="translate(19.351 9.136)" fill="#3b3b3b"/>
          <path id="Trazado_205266" data-name="Trazado 205266" d="M188.575,119.9l5.987-3.137-1.859-3.551-6,3.143Z" transform="translate(21.607 13.101)" fill="#8a8a8a"/>
          <path id="Trazado_205267" data-name="Trazado 205267" d="M112.226,102.928l-6.5,23.084,16.473-4.926,2.8-12.18Z" transform="translate(12.235 11.912)" fill="#e2c7b5"/>
          <path id="Trazado_205268" data-name="Trazado 205268" d="M167,7.648C155.36-8.031,124.851.373,129.935,33.069c1.481,2.215,1.812,5.689,2.178,7.956.25,1.722,3.214,7.68,2.546,10.14-.778,2.888,1.231,2.811,1.231,2.811s.071-9.091.423-12.892c16.588-2.758,26.015-11.2,29.97-24a43.8,43.8,0,0,0,8.943,19.5.689.689,0,0,0,.058.235c.49,1.466,0,16.17,0,16.17s1.989.167,1.35-3.1c-.586-2.946.962-6.424,1.231-7.63.019.023,1.125-2.754,1.139-2.739a14.576,14.576,0,0,1,2.585-6.382c2.551-14.492-3.82-22.095-14.589-25.5" transform="translate(14.971 0)" fill="#161313"/>
          <path id="Trazado_205269" data-name="Trazado 205269" d="M165.342,47.747h-6.693c-2.854,0-4.672-4.474-4.672-6.814a4.672,4.672,0,0,1,4.672-4.666h6.693a4.673,4.673,0,0,1,4.676,4.666c0,2.34-1.821,6.814-4.676,6.814m-6.693-9.471a2.664,2.664,0,0,0-2.662,2.658c0,1.825,1.49,4.805,2.662,4.805h6.693c1.178,0,2.668-2.98,2.668-4.805a2.666,2.666,0,0,0-2.668-2.658Z" transform="translate(17.819 4.197)" fill="#4a5152"/>
          <path id="Trazado_205270" data-name="Trazado 205270" d="M147.913,47.747h-6.7c-2.854,0-4.67-4.474-4.67-6.814a4.671,4.671,0,0,1,4.67-4.666h6.7a4.671,4.671,0,0,1,4.67,4.666c0,2.34-1.816,6.814-4.67,6.814m-6.7-9.471a2.664,2.664,0,0,0-2.662,2.658c0,1.825,1.49,4.805,2.662,4.805h6.7c1.173,0,2.662-2.98,2.662-4.805a2.664,2.664,0,0,0-2.662-2.658Z" transform="translate(15.802 4.197)" fill="#4a5152"/>
          <rect id="Rectángulo_47083" data-name="Rectángulo 47083" width="5.516" height="1.821" transform="translate(167.381 44.323)" fill="#4a5152"/>
          <path id="Trazado_205271" data-name="Trazado 205271" d="M173.324,204.979c.779,3.512,2.383,6.141,3.575,5.872s1.548-3.32.769-6.833-2.388-6.147-3.579-5.877-1.543,3.329-.764,6.837" transform="translate(20.01 22.928)" fill="#e2c7b5"/>
          <path id="Trazado_205272" data-name="Trazado 205272" d="M209.767,204.979c-.779,3.512-2.379,6.141-3.585,5.872s-1.537-3.32-.764-6.833,2.384-6.147,3.59-5.877,1.533,3.329.759,6.837" transform="translate(23.724 22.928)" fill="#e2c7b5"/>
          <rect id="Rectángulo_47084" data-name="Rectángulo 47084" width="21.83" height="11.143" transform="translate(202.498 239.441)" fill="#e2c7b5"/>
          <path id="Trazado_205273" data-name="Trazado 205273" d="M212.468,204.141c-1.662,11.278-8.453,20.672-18.876,20.672s-17.265-9.384-18.865-20.672c-2.273-16.146,2.542-24.1,18.851-24.1,16.9,0,20.975,9.875,18.889,24.1" transform="translate(20.159 20.836)" fill="#e2c7b5"/>
          <path id="Trazado_205274" data-name="Trazado 205274" d="M214.13,199.021c-1.039,7.309-1.46,11.475-7.276,15.358-3.493,2.33-7.275,8.106-13.478,8.106-4.4,0-10.265-6.607-13.152-8.106-6.612-3.441-5.637-6.584-6.833-15.358-2.274-16.741,10.426-26.809,20.311-26.809,10.371,0,22.513,12.052,20.428,26.809" transform="translate(20.035 19.93)" fill="#8d6752"/>
          <path id="Trazado_205275" data-name="Trazado 205275" d="M232.851,229.627c-2.754-2.917-21.941-7.145-25.392-7.145h-23.1c-4.114,0-21.091,2.287-25.257,7.145-7.972,9.327-7.861,45.957-7.861,45.957l1.163,25.194h87.148l1.168-25.194s.562-37.029-7.871-45.957" transform="translate(17.503 25.747)" fill="#8c6df2"/>
          <rect id="Rectángulo_47085" data-name="Rectángulo 47085" width="21.835" height="11.143" transform="translate(33.747 239.441)" fill="#e2c7b5"/>
          <path id="Trazado_205276" data-name="Trazado 205276" d="M61.225,204.141c-1.668,11.278-8.453,20.672-18.875,20.672s-17.266-9.384-18.866-20.672c-2.273-16.146,2.543-24.1,18.851-24.1,16.9,0,20.97,9.875,18.889,24.1" transform="translate(2.656 20.836)" fill="#e2c7b5"/>
          <path id="Trazado_205277" data-name="Trazado 205277" d="M62.886,199.021c-1.038,7.309.812,10.134-5.694,15.358-3.907,3.137-8.857,8.106-15.06,8.106-4.4,0-11.509-6.087-14.738-8.106-7.4-4.633-4.051-6.584-5.247-15.358-2.273-16.741,10.428-26.809,20.311-26.809,10.371,0,22.513,12.052,20.428,26.809" transform="translate(2.532 19.93)" fill="#31130b"/>
          <path id="Trazado_205278" data-name="Trazado 205278" d="M81.6,229.627c-2.749-2.917-21.941-7.145-25.386-7.145h-23.1c-4.114,0-21.1,2.287-25.257,7.145C-.115,238.955,0,275.584,0,275.584l1.163,25.194H88.311l1.168-25.194s.562-37.029-7.876-45.957" transform="translate(0 25.747)" fill="#8c6df2"/>
          <path id="Trazado_205279" data-name="Trazado 205279" d="M98.105,204.979c.779,3.512,2.383,6.141,3.58,5.872s1.542-3.32.769-6.833-2.389-6.147-3.585-5.877-1.543,3.329-.764,6.837" transform="translate(11.305 22.928)" fill="#e2c7b5"/>
          <path id="Trazado_205280" data-name="Trazado 205280" d="M136.1,204.979c-.779,3.512-2.388,6.141-3.585,5.872s-1.537-3.32-.764-6.833,2.379-6.147,3.586-5.877,1.542,3.329.763,6.837" transform="translate(15.199 22.928)" fill="#e2c7b5"/>
          <rect id="Rectángulo_47086" data-name="Rectángulo 47086" width="20.293" height="8.168" transform="translate(119.742 242.415)" fill="#e2c7b5"/>
          <path id="Trazado_205281" data-name="Trazado 205281" d="M137.606,204.141c-1.658,11.278-8.447,20.672-18.87,20.672s-17.27-9.384-18.86-20.672c-2.277-16.146,2.537-24.1,18.841-24.1,16.914,0,20.97,9.875,18.889,24.1" transform="translate(11.497 20.836)" fill="#e2c7b5"/>
          <path id="Trazado_205282" data-name="Trazado 205282" d="M139.3,199.05c-1.177,8.28-5.531,15.583-11.1,19.139-2.3,1.466-4.492,4.325-9.317,4.325-5.5,0-7.976-2.979-10.331-4.647-5.18-3.656-8.895-10.772-9.99-18.817-2.278-16.741,4.142-29.125,20.3-26.809,17.116-.5,22.522,12.052,20.437,26.809" transform="translate(11.354 19.901)" fill="#0c0a0a"/>
          <path id="Trazado_205283" data-name="Trazado 205283" d="M157.994,229.627c-2.754-2.917-21.951-7.145-25.4-7.145H109.509c-4.123,0-21.105,2.287-25.261,7.145-7.982,9.327-7.867,45.957-7.867,45.957l1.173,25.194H88.687l3.557-11.734-.135,11.734h57.13l.677-10.028,3.406,10.028h11.37l1.177-25.194s.552-37.029-7.876-45.957" transform="translate(8.839 25.747)" fill="#5038a1"/>
          <rect id="Rectángulo_47087" data-name="Rectángulo 47087" width="16.939" height="8.168" transform="translate(287.075 242.415)" fill="#e2c7b5"/>
          <path id="Trazado_205284" data-name="Trazado 205284" d="M286.085,204.141c-1.658,11.278-8.457,20.672-18.88,20.672s-17.265-9.384-18.865-20.672c-2.278-16.146,2.542-24.1,18.856-24.1,16.9,0,20.97,9.875,18.889,24.1" transform="translate(28.678 20.836)" fill="#e2c7b5"/>
          <path id="Trazado_205285" data-name="Trazado 205285" d="M287.761,199.021c-.942,6.645-9.2,29.279,4.473,37.76,2.288,1.418-8.149-3.191-16.063-8.481-4.364-2.922-6.28-7.838-8.823-7.842-17.592,0-18.725-9.736-20.321-21.436-2.283-16.741,4-26.809,20.312-26.809,16.9,0,22.5,12.052,20.422,26.809" transform="translate(28.535 19.93)" fill="#df7e2f"/>
          <path id="Trazado_205286" data-name="Trazado 205286" d="M306.464,229.627c-2.749-2.917-21.941-7.145-25.392-7.145h-23.1c-4.124,0-21.1,2.287-25.252,7.145-7.986,9.327-7.866,45.957-7.866,45.957l1.158,25.194h71.132l.346-16.515,4.834,16.515h10.84l1.163-25.194s.568-37.029-7.866-45.957" transform="translate(26.022 25.747)" fill="#5038a1"/>
        </g>
      </g>
    </g>
  </g>
</svg>
