<svg xmlns="http://www.w3.org/2000/svg" width="95" height="95" viewBox="0 0 95 95">
  <g id="Grupo_131765" data-name="Grupo 131765" transform="translate(-336 -1828)">
    <g id="Elipse_5098" data-name="Elipse 5098" transform="translate(336 1828)" fill="#fff" stroke="#5038a1" stroke-width="8">
      <circle cx="47.5" cy="47.5" r="47.5" stroke="none"/>
      <circle cx="47.5" cy="47.5" r="43.5" fill="none"/>
    </g>
    <path id="Trazado_205627" data-name="Trazado 205627" d="M57.753,0C71.274,0,80.288,3.541,80.288,8.048v4.829A3.216,3.216,0,0,1,83.507,16.1v6.438a3.216,3.216,0,0,1-3.219,3.219v16.1a3.216,3.216,0,0,1-3.219,3.219v3.219a3.216,3.216,0,0,1-3.219,3.219H70.63a3.216,3.216,0,0,1-3.219-3.219V45.068H48.1v3.219a3.216,3.216,0,0,1-3.219,3.219H41.658a3.216,3.216,0,0,1-3.219-3.219V45.068a3.218,3.218,0,0,1-3.219-3.219v-16.1A3.218,3.218,0,0,1,32,22.534V16.1a3.218,3.218,0,0,1,3.219-3.219V8.048C35.219,3.541,44.233,0,57.753,0Zm-16.1,25.753a3.216,3.216,0,0,0,3.219,3.219H56.144v-16.1H44.877A3.216,3.216,0,0,0,41.658,16.1Zm17.705,3.219H70.63a3.216,3.216,0,0,0,3.219-3.219V16.1a3.216,3.216,0,0,0-3.219-3.219H59.363ZM43.267,40.24a3.219,3.219,0,1,0-3.219-3.219A3.216,3.216,0,0,0,43.267,40.24Zm28.973,0a3.219,3.219,0,1,0-3.219-3.219A3.216,3.216,0,0,0,72.24,40.24ZM65.8,6.438h-16.1a1.61,1.61,0,1,0,0,3.219H65.8a1.61,1.61,0,1,0,0-3.219Z" transform="translate(325.747 1849.747)" fill="#5038a1"/>
  </g>
</svg>
