<svg xmlns="http://www.w3.org/2000/svg" xmlns:xlink="http://www.w3.org/1999/xlink" width="190" height="117.484" viewBox="0 0 190 117.484">
  <defs>
    <linearGradient id="linear-gradient" x1="0.5" x2="0.5" y2="1" gradientUnits="objectBoundingBox">
      <stop offset="0" stop-color="#fedc72"/>
      <stop offset="1" stop-color="#fdb74d"/>
    </linearGradient>
    <clipPath id="clip-path">
      <rect id="Rectángulo_47110" data-name="Rectángulo 47110" width="84.177" height="84.031" fill="#5038a1"/>
    </clipPath>
  </defs>
  <g id="Grupo_161164" data-name="Grupo 161164" transform="translate(-284.581 -2147)">
    <ellipse id="Elipse_6232" data-name="Elipse 6232" cx="95" cy="58.742" rx="95" ry="58.742" transform="translate(284.581 2147)" fill="url(#linear-gradient)"/>
    <circle id="Elipse_6233" data-name="Elipse 6233" cx="4.038" cy="4.038" r="4.038" transform="translate(301.824 2185.425)" fill="#fff"/>
    <circle id="Elipse_6234" data-name="Elipse 6234" cx="4.038" cy="4.038" r="4.038" transform="translate(305.862 2224.03)" fill="#fff"/>
    <circle id="Elipse_6235" data-name="Elipse 6235" cx="4.038" cy="4.038" r="4.038" transform="translate(453.938 2201.704)" fill="#fff"/>
    <circle id="Elipse_6237" data-name="Elipse 6237" cx="7.038" cy="7.038" r="7.038" transform="translate(320.9 2198.704)" fill="#fff"/>
    <circle id="Elipse_6238" data-name="Elipse 6238" cx="7.038" cy="7.038" r="7.038" transform="translate(428.9 2175.387)" fill="#fff"/>
    <circle id="Elipse_6245" data-name="Elipse 6245" cx="7.038" cy="7.038" r="7.038" transform="translate(428.9 2225.068)" fill="#fff"/>
    <g id="Grupo_156237" data-name="Grupo 156237" transform="translate(337.581 2164)">
      <g id="Grupo_156236" data-name="Grupo 156236" clip-path="url(#clip-path)">
        <path id="Trazado_205628" data-name="Trazado 205628" d="M120.782,65.786c-2.245,4.492-4.169,8.531-6.315,12.449a2.831,2.831,0,0,1-2.522,1.033,39.478,39.478,0,0,1-5.289-2.594c-5.555,4.022-8.305,4.032-13.813-.2-4.5,4.052-9.2,4.458-13.8.1-5.9,3.624-5.907,3.625-9-2.588-1.3-2.6-2.579-5.213-4.155-8.4H86.873c-1.075-2.452-1.465-5.169-3.021-6.355-1.449-1.1-4.14-.577-6.454-.783-.215-2.565,1.465-3.3,3.393-3.319,7.99-.093,15.986-.173,23.968.088a5.159,5.159,0,0,1,3.635,2.878c2.7,7.255,2.585,7.3,10.262,7.5.519.013,1.037.094,2.125.2M91.2,58.681a35.306,35.306,0,0,0,1.718,4.431c.519.931,1.378,2.256,2.191,2.336,2.886.285,5.816.111,8.79.111-1.347-6.881-1.347-6.881-7.644-6.878H91.2" transform="translate(-36.719 -30.674)" fill="#5038a1"/>
        <path id="Trazado_205629" data-name="Trazado 205629" d="M6.826,142.353c-4.683.357-6.716-1.435-6.8-5.855-.026-1.422-.059-2.849.026-4.267.131-2.177,1.458-3.89,3.5-3.486,6.179,1.223,9.909-2.234,13.226-6.429,2.687-3.4,6-3.992,10.176-4.409,8.519-.85,14.942,1.659,20.056,8.47,1.081,1.44,3.367,2.316,5.257,2.738,4.367.973,8.829,1.524,13.257,2.214,2.534.4,4.168,1.6,4.644,4.3.492,2.792-.735,4.255-3.228,5.124a31.666,31.666,0,0,0-3.507,1.711c-1.848-7.08-5.215-10.282-10.7-10.353-5.605-.073-9.163,3.243-10.946,10.326H28.517c-2.813-7.839-6.1-10.726-11.644-10.3-5.344.409-8.6,3.666-10.047,10.214m34.4-13.874c-3-2.468-4.132-7.654-9.486-6.735v6.735Zm-13.288-6.469c-3.527-.677-5.4,1.017-7.279,6.353h7.279Z" transform="translate(0 -65.626)" fill="#5038a1"/>
        <path id="Trazado_205630" data-name="Trazado 205630" d="M9.714,7.239c2.176-.645,4.322-1.678,6.535-1.85a84.042,84.042,0,0,1,11.814-.046c9.427.6,18.481-.49,27.1-4.673,2.973-1.443,5.421-.448,6.306,1.922.9,2.421-.233,4.953-3.448,5.65C46.158,10.816,37.791,17.76,31.769,28.016c-.585,1-2.066,1.466-3.131,2.181l-.707-.764,3.75-11.443c-5.413,1.9-10.223,3.5-14.953,5.31a4.063,4.063,0,0,1-4.709-.714C8.379,19.455,4.554,16.541.743,13.491,3.634,11.1,6.37,9.826,9.491,12.732c3.184,2.966,6.592,3.035,10.4,1.007,2.371-1.264,5.044-1.964,7.571-3.592L9.915,8.171q-.1-.466-.2-.932" transform="translate(-0.414 0)" fill="#5038a1"/>
        <path id="Trazado_205631" data-name="Trazado 205631" d="M120.817,111.3c4.375,4.22,8.99,4.293,13.643.3,1.027,2.962-.7,4.329-2.729,5.361-4.2,2.134-7.816.773-11.015-2.191-5.441,4.346-8.3,4.354-14.023.1-6.292,4.714-10.033,4.246-15.926-2.548,1.2-.181,2.327-.7,2.73-.359,4.646,3.9,8.988,3.121,13.145-.666,5.688,4.341,8.315,4.342,14.173,0" transform="translate(-50.589 -62.034)" fill="#5038a1"/>
        <path id="Trazado_205632" data-name="Trazado 205632" d="M30.911,158.368a6.935,6.935,0,0,0-7.074,6.681,7.088,7.088,0,0,0,6.906,7.247,6.93,6.93,0,0,0,7.011-6.75,6.787,6.787,0,0,0-6.843-7.178m-.138,9.992a3.083,3.083,0,0,1-3-3.151,3.016,3.016,0,0,1,3.076-2.906,2.952,2.952,0,0,1,2.976,3.122,3.014,3.014,0,0,1-3.049,2.935" transform="translate(-13.284 -88.266)" fill="#5038a1"/>
        <path id="Trazado_205633" data-name="Trazado 205633" d="M109.942,158.373a7.016,7.016,0,0,0-7.123,7.006,7.03,7.03,0,0,0,14.059-.146,7,7,0,0,0-6.936-6.86m-.116,9.99a3.083,3.083,0,0,1-3-3.151,3.015,3.015,0,0,1,3.076-2.906,2.951,2.951,0,0,1,2.976,3.122,3.014,3.014,0,0,1-3.049,2.935" transform="translate(-57.305 -88.268)" fill="#5038a1"/>
      </g>
    </g>
  </g>
</svg>
