<svg xmlns="http://www.w3.org/2000/svg" width="109" height="109" viewBox="0 0 109 109">
  <g id="Grupo_130820" data-name="Grupo 130820" transform="translate(-260.667 -914)">
    <circle id="Elipse_4743" data-name="Elipse 4743" cx="54.5" cy="54.5" r="54.5" transform="translate(260.667 914)" fill="#8c6df2"/>
    <g id="Capa_1-2" transform="translate(267.305 921)">
      <g id="Grupo_130813" data-name="Grupo 130813">
        <rect id="Rectángulo_41195" data-name="Rectángulo 41195" width="95" height="95" rx="47.5" transform="translate(0.362)" fill="none"/>
        <g id="Grupo_156243" data-name="Grupo 156243" transform="translate(14.346 15.499)">
          <g id="Grupo_156241" data-name="Grupo 156241">
            <path id="Trazado_205854" data-name="Trazado 205854" d="M18.726,25.79a9.094,9.094,0,1,0,9.092,9.094A9.095,9.095,0,0,0,18.726,25.79Zm0,15.578a6.484,6.484,0,1,1,6.483-6.484A6.484,6.484,0,0,1,18.724,41.368Z" fill="#fff"/>
          </g>
          <g id="Grupo_156242" data-name="Grupo 156242">
            <path id="Trazado_205855" data-name="Trazado 205855" d="M41.927,28.362a11.38,11.38,0,0,0-7.271-3.712A28.414,28.414,0,0,1,22.79,19.641c-.029,0-.043-.028-.071-.057-.513-.4-.882-.682-1.067-.867a1,1,0,0,0-.186-.171,13.194,13.194,0,0,0-7.953-2.618A13.376,13.376,0,0,0,.14,29.3a13.2,13.2,0,0,0,3.244,8.724,1.646,1.646,0,0,1,.228.256,1.288,1.288,0,0,1,.169.214c.684.908,2.063,3.328,2.5,8.281.014.269.043.552.059.838A13.933,13.933,0,0,0,31.112,54.87c.372-.569.74-1.1,1.1-1.6,3.414-4.922,5.562-6.486,6.3-6.928.2-.1.3-.142.3-.142a11.478,11.478,0,0,0,3.117-17.843Zm-5.791,16.5s-.081.036-.248.119c-.617.37-2.416,1.678-5.269,5.792-.3.416-.606.855-.916,1.333A11.649,11.649,0,0,1,9,46.04c-.011-.236-.035-.475-.047-.7-.367-4.14-1.522-6.16-2.093-6.924a1.023,1.023,0,0,0-.142-.175,1.509,1.509,0,0,0-.191-.217,11.019,11.019,0,0,1-2.711-7.291A11.18,11.18,0,0,1,14.991,19.555a11.042,11.042,0,0,1,6.65,2.188c.047.047.107.07.154.142.155.155.463.393.892.725.024.025.036.048.06.048a23.739,23.739,0,0,0,9.918,4.187,9.6,9.6,0,0,1,3.471,18.018Z" fill="#fff"/>
          </g>
          <path id="Trazado_205856" data-name="Trazado 205856" d="M15.176,32.63a5.239,5.239,0,0,1,3.639-1.867,3.468,3.468,0,0,1,2.719.822A1.442,1.442,0,0,1,20.6,33.9a2.722,2.722,0,0,1-.978-.2,2.167,2.167,0,0,0-2.09.577,2.887,2.887,0,0,0-.533.979,1.416,1.416,0,0,1-1.374,1.111,1.46,1.46,0,0,1-1.338-1.912A7.573,7.573,0,0,1,15.176,32.63Z" fill="#fff"/>
          <path id="Trazado_205857" data-name="Trazado 205857" d="M23.361,16.624a1.441,1.441,0,0,0,2.059-.867,12.514,12.514,0,0,1,5.224-5.8A23.231,23.231,0,0,1,41.137,6.8,24.228,24.228,0,0,1,54.654,9.6c1.29.711,5.536,3.4,6.247,7.87.223,1.689.334,4.862-3.445,8.322a1.368,1.368,0,0,0-.667,1.137c0,.5-.022,16-.022,16s-.134,1.912-1.934,1.912H44.651a1.528,1.528,0,0,0-1.579,1.224c-.022.489.134,1.622,1.223,1.622h9.759s2.4.244,3.735-1.022a4.667,4.667,0,0,0,1.823-3.735V28.363a3.254,3.254,0,0,1,.712-1.434A12.712,12.712,0,0,0,63.857,19.6a11.383,11.383,0,0,0-2.712-8.221A20.757,20.757,0,0,0,49.718,4.666c-4.49-.979-12.048-1.823-19.7,2.4a15.6,15.6,0,0,0-6.661,6.313C22.508,14.89,22.256,15.824,23.361,16.624Z" fill="#fff"/>
        </g>
      </g>
    </g>
  </g>
</svg>
