<svg xmlns="http://www.w3.org/2000/svg" width="109" height="109" viewBox="0 0 109 109">
  <g id="Grupo_130819" data-name="Grupo 130819" transform="translate(-260.667 -1089)">
    <circle id="Elipse_4744" data-name="Elipse 4744" cx="54.5" cy="54.5" r="54.5" transform="translate(260.667 1089)" fill="#5038a1"/>
    <g id="Capa_1-2" transform="translate(267.58 1096)">
      <g id="Grupo_130816" data-name="Grupo 130816">
        <rect id="Rectángulo_41197" data-name="Rectángulo 41197" width="95" height="95" rx="47.5" transform="translate(0.087)" fill="none"/>
        <g id="Grupo_156244" data-name="Grupo 156244" transform="translate(18.087 18)">
          <path id="Trazado_205858" data-name="Trazado 205858" d="M45.2,36H47a8.924,8.924,0,0,0,1-17.8V16a1.89,1.89,0,0,0-2-2H10a1.89,1.89,0,0,0-2,2V26a19.978,19.978,0,0,0,8,16H6a2,2,0,0,0,0,4H50a2,2,0,0,0,0-4H40A16.661,16.661,0,0,0,45.2,36ZM52,27a4.951,4.951,0,0,1-5,5,19.857,19.857,0,0,0,1-6V22.2A4.937,4.937,0,0,1,52,27Zm-8-9v4.8a18.118,18.118,0,0,1-15.2-.6,18.582,18.582,0,0,0-16.8.2V18ZM12,27a14.868,14.868,0,0,1,15-1.2A21.652,21.652,0,0,0,37,28a30.812,30.812,0,0,0,7-1,16.466,16.466,0,0,1-1.4,5.6,1.516,1.516,0,0,0-.4.8,16.086,16.086,0,0,1-14,8.4A15.867,15.867,0,0,1,12,27Z" transform="translate(0 12)" fill="#fff"/>
          <path id="Trazado_205859" data-name="Trazado 205859" d="M13.5,20h6a.945.945,0,0,1,1,1v1a1.89,1.89,0,0,0,2,2,1.89,1.89,0,0,0,2-2V21a4.951,4.951,0,0,0-5-5h-6a1,1,0,0,1,0-2h19a5.893,5.893,0,0,0,6-6,5.893,5.893,0,0,0-6-6h-20a1.89,1.89,0,0,0-2,2,1.89,1.89,0,0,0,2,2h20a1.89,1.89,0,0,1,2,2,1.89,1.89,0,0,1-2,2h-19a5,5,0,0,0,0,10Z" transform="translate(4.5)" fill="#fff"/>
        </g>
      </g>
    </g>
  </g>
</svg>
